%TF.GenerationSoftware,KiCad,Pcbnew,7.0.5-0*%
%TF.CreationDate,2023-06-02T14:28:35-04:00*%
%TF.ProjectId,mini_arduino_clone,6d696e69-5f61-4726-9475-696e6f5f636c,A*%
%TF.SameCoordinates,Original*%
%TF.FileFunction,Copper,L2,Inr*%
%TF.FilePolarity,Positive*%
%FSLAX46Y46*%
G04 Gerber Fmt 4.6, Leading zero omitted, Abs format (unit mm)*
G04 Created by KiCad (PCBNEW 7.0.5-0) date 2023-06-02 14:28:35*
%MOMM*%
%LPD*%
G01*
G04 APERTURE LIST*
%TA.AperFunction,ComponentPad*%
%ADD10O,1.700000X1.000000*%
%TD*%
%TA.AperFunction,ComponentPad*%
%ADD11O,1.700000X0.850000*%
%TD*%
%TA.AperFunction,ComponentPad*%
%ADD12R,1.700000X1.700000*%
%TD*%
%TA.AperFunction,ComponentPad*%
%ADD13O,1.700000X1.700000*%
%TD*%
%TA.AperFunction,ViaPad*%
%ADD14C,0.800000*%
%TD*%
%TA.AperFunction,Conductor*%
%ADD15C,1.000000*%
%TD*%
%TA.AperFunction,Conductor*%
%ADD16C,0.500000*%
%TD*%
G04 APERTURE END LIST*
D10*
%TO.N,unconnected-(J101-Shield-Pad6)*%
%TO.C,J101*%
X1515000Y11842000D03*
D11*
X1515000Y6192000D03*
%TD*%
D12*
%TO.N,/D5*%
%TO.C,J103*%
X39497000Y16627000D03*
D13*
%TO.N,/D6*%
X36957000Y16627000D03*
%TO.N,/D7*%
X34417000Y16627000D03*
%TO.N,/D8*%
X31877000Y16627000D03*
%TO.N,/D9*%
X29337000Y16627000D03*
%TO.N,/D10*%
X26797000Y16627000D03*
%TO.N,/D11{slash}MOSI*%
X24257000Y16627000D03*
%TO.N,/D12{slash}MISO*%
X21717000Y16627000D03*
%TO.N,/D4*%
X19177000Y16627000D03*
%TO.N,/D3*%
X16637000Y16627000D03*
%TO.N,/D2*%
X14097000Y16627000D03*
%TO.N,GND*%
X11557000Y16627000D03*
%TO.N,/~{RESET}*%
X9017000Y16627000D03*
%TO.N,/D0{slash}RX*%
X6477000Y16627000D03*
%TO.N,/D1{slash}TX*%
X3937000Y16627000D03*
%TD*%
D12*
%TO.N,/D13{slash}SCK*%
%TO.C,J104*%
X39497000Y1387000D03*
D13*
%TO.N,GND*%
X36957000Y1387000D03*
%TO.N,/~{RESET}*%
X34417000Y1387000D03*
%TO.N,+5V*%
X31877000Y1387000D03*
%TO.N,/A7*%
X29337000Y1387000D03*
%TO.N,/A6*%
X26797000Y1387000D03*
%TO.N,/A5{slash}SCL*%
X24257000Y1387000D03*
%TO.N,/A4{slash}~{SDA}*%
X21717000Y1387000D03*
%TO.N,/A3*%
X19177000Y1387000D03*
%TO.N,/A2*%
X16637000Y1387000D03*
%TO.N,/A1*%
X14097000Y1387000D03*
%TO.N,/A0*%
X11557000Y1387000D03*
%TO.N,GND*%
X9017000Y1387000D03*
%TO.N,+3V3*%
X6477000Y1387000D03*
%TO.N,VBUS*%
X3937000Y1387000D03*
%TD*%
D14*
%TO.N,GND*%
X39932893Y4438487D03*
%TO.N,/~{RESET}*%
X42599893Y7232487D03*
%TO.N,+5V*%
X43615893Y4565487D03*
%TO.N,GND*%
X20826150Y3719987D03*
X1324893Y3676487D03*
X7903493Y5403687D03*
X21162293Y11957387D03*
X16539493Y4641687D03*
X35614893Y9707987D03*
X20298693Y14192087D03*
X13135893Y9518487D03*
X29696693Y7118865D03*
X36249893Y12185487D03*
X10214893Y6724487D03*
X43234893Y2152487D03*
X43361893Y15995487D03*
X5973093Y7384887D03*
X35233893Y3549487D03*
X34268693Y2965287D03*
X39170893Y12820487D03*
X6165244Y12007687D03*
%TO.N,VBUS*%
X6023893Y10915487D03*
X6023893Y5962487D03*
%TO.N,+5V*%
X30661893Y7994487D03*
X1324893Y17138487D03*
X25435125Y14451719D03*
X39297893Y9707987D03*
X18088893Y13836487D03*
X13770893Y5962487D03*
X13770893Y5200487D03*
%TO.N,/~{RESET}*%
X8359593Y9518487D03*
X15421893Y13201487D03*
X26666994Y8339403D03*
X11595954Y14010356D03*
%TO.N,+3V3*%
X21173993Y4819487D03*
%TO.N,/USB_UART/VBUS*%
X9325893Y5454487D03*
X9186493Y13176087D03*
%TO.N,/D_P*%
X6150893Y8853100D03*
X13481598Y13490782D03*
%TO.N,/D_N*%
X12790188Y14182192D03*
X6150893Y9830900D03*
%TO.N,/D12{slash}MISO*%
X43139143Y9106237D03*
X27359893Y12058487D03*
%TO.N,/D13{slash}SCK*%
X43248271Y10928865D03*
X30661893Y14598487D03*
%TO.N,/D11{slash}MOSI*%
X29264893Y10661487D03*
X38916893Y11169487D03*
%TO.N,/D2*%
X26851893Y9518487D03*
%TO.N,/D3*%
X28763473Y8606810D03*
%TO.N,/D4*%
X30407893Y9261987D03*
%TO.N,/D10*%
X29010893Y11804487D03*
%TO.N,/A7*%
X25073893Y8219709D03*
%TO.N,/A6*%
X25806813Y7220390D03*
%TO.N,/A1*%
X21173993Y6028513D03*
%TO.N,/A0*%
X20456621Y6724487D03*
%TO.N,/D0{slash}RX*%
X24350993Y4184487D03*
X16844293Y9924887D03*
%TO.N,/D1{slash}TX*%
X18977893Y6826087D03*
X24882710Y3332892D03*
%TD*%
D15*
%TO.N,+3V3*%
X21173993Y4819487D02*
X20216258Y4819487D01*
X20216258Y4819487D02*
X18819258Y3422487D01*
X8512487Y3422487D02*
X6477000Y1387000D01*
X18819258Y3422487D02*
X8512487Y3422487D01*
D16*
%TO.N,/USB_UART/VBUS*%
X9209593Y5570787D02*
X9325893Y5454487D01*
X9186493Y11893087D02*
X9209593Y11869987D01*
X9209593Y11869987D02*
X9209593Y5570787D01*
X9186493Y13176087D02*
X9186493Y11893087D01*
%TD*%
%TA.AperFunction,Conductor*%
%TO.N,+5V*%
G36*
X3266077Y18013815D02*
G01*
X3311832Y17961011D01*
X3321776Y17891853D01*
X3292751Y17828297D01*
X3263564Y17804199D01*
X3263605Y17804140D01*
X3262869Y17803625D01*
X3261037Y17802112D01*
X3259166Y17801032D01*
X3065597Y17665495D01*
X2898505Y17498403D01*
X2762965Y17304831D01*
X2762964Y17304829D01*
X2663098Y17090665D01*
X2663094Y17090656D01*
X2601938Y16862414D01*
X2601936Y16862404D01*
X2581341Y16627001D01*
X2581341Y16627000D01*
X2601936Y16391597D01*
X2601938Y16391587D01*
X2663094Y16163345D01*
X2663096Y16163341D01*
X2663097Y16163337D01*
X2667000Y16154968D01*
X2762965Y15949170D01*
X2762967Y15949166D01*
X2862352Y15807231D01*
X2898505Y15755599D01*
X3065599Y15588505D01*
X3162384Y15520735D01*
X3259165Y15452968D01*
X3259167Y15452967D01*
X3259170Y15452965D01*
X3473337Y15353097D01*
X3701592Y15291937D01*
X3878034Y15276500D01*
X3936999Y15271341D01*
X3937000Y15271341D01*
X3937001Y15271341D01*
X3995966Y15276500D01*
X4172408Y15291937D01*
X4400663Y15353097D01*
X4614830Y15452965D01*
X4808401Y15588505D01*
X4975495Y15755599D01*
X5105424Y15941158D01*
X5160002Y15984783D01*
X5229500Y15991977D01*
X5291855Y15960454D01*
X5308575Y15941158D01*
X5438500Y15755605D01*
X5438505Y15755599D01*
X5605599Y15588505D01*
X5702384Y15520735D01*
X5799165Y15452968D01*
X5799167Y15452967D01*
X5799170Y15452965D01*
X6013337Y15353097D01*
X6241592Y15291937D01*
X6418034Y15276500D01*
X6476999Y15271341D01*
X6477000Y15271341D01*
X6477001Y15271341D01*
X6535966Y15276500D01*
X6712408Y15291937D01*
X6940663Y15353097D01*
X7154830Y15452965D01*
X7348401Y15588505D01*
X7515495Y15755599D01*
X7645424Y15941158D01*
X7700002Y15984783D01*
X7769500Y15991977D01*
X7831855Y15960454D01*
X7848575Y15941158D01*
X7978500Y15755605D01*
X7978505Y15755599D01*
X8145599Y15588505D01*
X8242384Y15520735D01*
X8339165Y15452968D01*
X8339167Y15452967D01*
X8339170Y15452965D01*
X8553337Y15353097D01*
X8781592Y15291937D01*
X8958034Y15276500D01*
X9016999Y15271341D01*
X9017000Y15271341D01*
X9017001Y15271341D01*
X9075966Y15276500D01*
X9252408Y15291937D01*
X9480663Y15353097D01*
X9694830Y15452965D01*
X9888401Y15588505D01*
X10055495Y15755599D01*
X10185424Y15941158D01*
X10240002Y15984783D01*
X10309500Y15991977D01*
X10371855Y15960454D01*
X10388575Y15941158D01*
X10518500Y15755605D01*
X10518505Y15755599D01*
X10685599Y15588505D01*
X10782384Y15520735D01*
X10879165Y15452968D01*
X10879167Y15452967D01*
X10879170Y15452965D01*
X11093337Y15353097D01*
X11321592Y15291937D01*
X11498034Y15276500D01*
X11556999Y15271341D01*
X11557000Y15271341D01*
X11557001Y15271341D01*
X11615966Y15276500D01*
X11792408Y15291937D01*
X12020663Y15353097D01*
X12234830Y15452965D01*
X12428401Y15588505D01*
X12595495Y15755599D01*
X12725424Y15941158D01*
X12780002Y15984783D01*
X12849500Y15991977D01*
X12911855Y15960454D01*
X12928575Y15941158D01*
X13058500Y15755605D01*
X13058505Y15755599D01*
X13225599Y15588505D01*
X13322384Y15520735D01*
X13419165Y15452968D01*
X13419167Y15452967D01*
X13419170Y15452965D01*
X13633337Y15353097D01*
X13861592Y15291937D01*
X14038034Y15276500D01*
X14096999Y15271341D01*
X14097000Y15271341D01*
X14097001Y15271341D01*
X14155966Y15276500D01*
X14332408Y15291937D01*
X14560663Y15353097D01*
X14774830Y15452965D01*
X14968401Y15588505D01*
X15135495Y15755599D01*
X15265424Y15941158D01*
X15320002Y15984783D01*
X15389500Y15991977D01*
X15451855Y15960454D01*
X15468575Y15941158D01*
X15598500Y15755605D01*
X15598505Y15755599D01*
X15765599Y15588505D01*
X15862384Y15520735D01*
X15959165Y15452968D01*
X15959167Y15452967D01*
X15959170Y15452965D01*
X16173337Y15353097D01*
X16401592Y15291937D01*
X16578034Y15276500D01*
X16636999Y15271341D01*
X16637000Y15271341D01*
X16637001Y15271341D01*
X16695966Y15276500D01*
X16872408Y15291937D01*
X17100663Y15353097D01*
X17314830Y15452965D01*
X17508401Y15588505D01*
X17675495Y15755599D01*
X17805424Y15941158D01*
X17860002Y15984783D01*
X17929500Y15991977D01*
X17991855Y15960454D01*
X18008575Y15941158D01*
X18138500Y15755605D01*
X18138505Y15755599D01*
X18305599Y15588505D01*
X18402384Y15520735D01*
X18499165Y15452968D01*
X18499167Y15452967D01*
X18499170Y15452965D01*
X18713337Y15353097D01*
X18941592Y15291937D01*
X19118034Y15276500D01*
X19176999Y15271341D01*
X19177000Y15271341D01*
X19177001Y15271341D01*
X19235966Y15276500D01*
X19412408Y15291937D01*
X19640663Y15353097D01*
X19854830Y15452965D01*
X20048401Y15588505D01*
X20215495Y15755599D01*
X20345424Y15941158D01*
X20400002Y15984783D01*
X20469500Y15991977D01*
X20531855Y15960454D01*
X20548575Y15941158D01*
X20678500Y15755605D01*
X20678505Y15755599D01*
X20845599Y15588505D01*
X20942384Y15520736D01*
X21039165Y15452968D01*
X21039167Y15452967D01*
X21039170Y15452965D01*
X21253337Y15353097D01*
X21481592Y15291937D01*
X21658034Y15276500D01*
X21716999Y15271341D01*
X21717000Y15271341D01*
X21717001Y15271341D01*
X21775966Y15276500D01*
X21952408Y15291937D01*
X22180663Y15353097D01*
X22394830Y15452965D01*
X22588401Y15588505D01*
X22755495Y15755599D01*
X22885424Y15941158D01*
X22940002Y15984783D01*
X23009500Y15991977D01*
X23071855Y15960454D01*
X23088575Y15941158D01*
X23218500Y15755605D01*
X23218505Y15755599D01*
X23385599Y15588505D01*
X23482384Y15520736D01*
X23579165Y15452968D01*
X23579167Y15452967D01*
X23579170Y15452965D01*
X23793337Y15353097D01*
X24021592Y15291937D01*
X24198034Y15276500D01*
X24256999Y15271341D01*
X24257000Y15271341D01*
X24257001Y15271341D01*
X24315966Y15276500D01*
X24492408Y15291937D01*
X24720663Y15353097D01*
X24934830Y15452965D01*
X25128401Y15588505D01*
X25295495Y15755599D01*
X25425424Y15941158D01*
X25480002Y15984783D01*
X25549500Y15991977D01*
X25611855Y15960454D01*
X25628575Y15941158D01*
X25758500Y15755605D01*
X25758505Y15755599D01*
X25925599Y15588505D01*
X26022384Y15520736D01*
X26119165Y15452968D01*
X26119167Y15452967D01*
X26119170Y15452965D01*
X26333337Y15353097D01*
X26561592Y15291937D01*
X26738034Y15276500D01*
X26796999Y15271341D01*
X26797000Y15271341D01*
X26797001Y15271341D01*
X26855966Y15276500D01*
X27032408Y15291937D01*
X27260663Y15353097D01*
X27474830Y15452965D01*
X27668401Y15588505D01*
X27835495Y15755599D01*
X27965424Y15941158D01*
X28020002Y15984783D01*
X28089500Y15991977D01*
X28151855Y15960454D01*
X28168575Y15941158D01*
X28298500Y15755605D01*
X28298505Y15755599D01*
X28465599Y15588505D01*
X28562384Y15520736D01*
X28659165Y15452968D01*
X28659167Y15452967D01*
X28659170Y15452965D01*
X28873337Y15353097D01*
X29101592Y15291937D01*
X29278034Y15276500D01*
X29336999Y15271341D01*
X29337000Y15271341D01*
X29337001Y15271341D01*
X29395966Y15276500D01*
X29572408Y15291937D01*
X29800663Y15353097D01*
X29815294Y15359920D01*
X29884372Y15370413D01*
X29948156Y15341894D01*
X29986397Y15283418D01*
X29986952Y15213551D01*
X29959851Y15164567D01*
X29929359Y15130703D01*
X29834714Y14966772D01*
X29834711Y14966765D01*
X29778741Y14794505D01*
X29776219Y14786743D01*
X29756433Y14598487D01*
X29776219Y14410231D01*
X29776220Y14410228D01*
X29834711Y14230210D01*
X29834714Y14230203D01*
X29929360Y14066271D01*
X30056022Y13925600D01*
X30056022Y13925599D01*
X30209158Y13814339D01*
X30209163Y13814336D01*
X30382085Y13737345D01*
X30382090Y13737343D01*
X30567247Y13697987D01*
X30567248Y13697987D01*
X30756537Y13697987D01*
X30756539Y13697987D01*
X30941696Y13737343D01*
X31114623Y13814336D01*
X31267764Y13925599D01*
X31394426Y14066271D01*
X31489072Y14230203D01*
X31547567Y14410231D01*
X31567353Y14598487D01*
X31547567Y14786743D01*
X31489072Y14966771D01*
X31394426Y15130703D01*
X31391177Y15136331D01*
X31392465Y15137075D01*
X31371559Y15195661D01*
X31387381Y15263716D01*
X31437484Y15312413D01*
X31505962Y15326292D01*
X31527449Y15322521D01*
X31559496Y15313935D01*
X31641592Y15291937D01*
X31818034Y15276500D01*
X31876999Y15271341D01*
X31877000Y15271341D01*
X31877001Y15271341D01*
X31935966Y15276500D01*
X32112408Y15291937D01*
X32340663Y15353097D01*
X32554830Y15452965D01*
X32748401Y15588505D01*
X32915495Y15755599D01*
X33045424Y15941158D01*
X33100002Y15984783D01*
X33169500Y15991977D01*
X33231855Y15960454D01*
X33248575Y15941158D01*
X33378500Y15755605D01*
X33378505Y15755599D01*
X33545599Y15588505D01*
X33642384Y15520736D01*
X33739165Y15452968D01*
X33739167Y15452967D01*
X33739170Y15452965D01*
X33953337Y15353097D01*
X34181592Y15291937D01*
X34358034Y15276500D01*
X34416999Y15271341D01*
X34417000Y15271341D01*
X34417001Y15271341D01*
X34475966Y15276500D01*
X34652408Y15291937D01*
X34880663Y15353097D01*
X35094830Y15452965D01*
X35288401Y15588505D01*
X35455495Y15755599D01*
X35585424Y15941158D01*
X35640002Y15984783D01*
X35709500Y15991977D01*
X35771855Y15960454D01*
X35788575Y15941158D01*
X35918500Y15755605D01*
X35918505Y15755599D01*
X36085599Y15588505D01*
X36182384Y15520736D01*
X36279165Y15452968D01*
X36279167Y15452967D01*
X36279170Y15452965D01*
X36493337Y15353097D01*
X36721592Y15291937D01*
X36898034Y15276500D01*
X36956999Y15271341D01*
X36957000Y15271341D01*
X36957001Y15271341D01*
X37015966Y15276500D01*
X37192408Y15291937D01*
X37420663Y15353097D01*
X37634830Y15452965D01*
X37828401Y15588505D01*
X37950329Y15710434D01*
X38011648Y15743916D01*
X38081340Y15738932D01*
X38137274Y15697061D01*
X38154189Y15666083D01*
X38203202Y15534672D01*
X38203206Y15534665D01*
X38289452Y15419456D01*
X38289455Y15419453D01*
X38404664Y15333207D01*
X38404671Y15333203D01*
X38539517Y15282909D01*
X38539516Y15282909D01*
X38546444Y15282165D01*
X38599127Y15276500D01*
X40394872Y15276501D01*
X40454483Y15282909D01*
X40589331Y15333204D01*
X40704546Y15419454D01*
X40790796Y15534669D01*
X40841091Y15669517D01*
X40847500Y15729127D01*
X40847500Y15995487D01*
X42456433Y15995487D01*
X42476219Y15807231D01*
X42476220Y15807228D01*
X42534711Y15627210D01*
X42534714Y15627203D01*
X42629360Y15463271D01*
X42746473Y15333204D01*
X42756022Y15322599D01*
X42909158Y15211339D01*
X42909163Y15211336D01*
X43082085Y15134345D01*
X43082090Y15134343D01*
X43267247Y15094987D01*
X43267248Y15094987D01*
X43456537Y15094987D01*
X43456539Y15094987D01*
X43641696Y15134343D01*
X43814623Y15211336D01*
X43967764Y15322599D01*
X44094426Y15463271D01*
X44189072Y15627203D01*
X44247567Y15807231D01*
X44267353Y15995487D01*
X44247567Y16183743D01*
X44189072Y16363771D01*
X44094426Y16527703D01*
X43967764Y16668375D01*
X43967763Y16668376D01*
X43814627Y16779636D01*
X43814622Y16779639D01*
X43641700Y16856630D01*
X43641695Y16856632D01*
X43495894Y16887622D01*
X43456539Y16895987D01*
X43267247Y16895987D01*
X43234790Y16889089D01*
X43082090Y16856632D01*
X43082085Y16856630D01*
X42909163Y16779639D01*
X42909158Y16779636D01*
X42756022Y16668376D01*
X42629359Y16527702D01*
X42534714Y16363772D01*
X42534711Y16363765D01*
X42476220Y16183747D01*
X42476219Y16183743D01*
X42456433Y15995487D01*
X40847500Y15995487D01*
X40847499Y17524872D01*
X40841091Y17584483D01*
X40839810Y17587917D01*
X40790797Y17719329D01*
X40790793Y17719336D01*
X40704065Y17835189D01*
X40679647Y17900653D01*
X40694498Y17968926D01*
X40743903Y18018332D01*
X40803331Y18033500D01*
X44960500Y18033500D01*
X45027539Y18013815D01*
X45073294Y17961011D01*
X45084500Y17909500D01*
X45084500Y124500D01*
X45064815Y57461D01*
X45012011Y11706D01*
X44960500Y500D01*
X40818303Y500D01*
X40751264Y20185D01*
X40705509Y72989D01*
X40695565Y142147D01*
X40719037Y198811D01*
X40790793Y294665D01*
X40790792Y294665D01*
X40790796Y294669D01*
X40841091Y429517D01*
X40847500Y489127D01*
X40847499Y2152487D01*
X42329433Y2152487D01*
X42349219Y1964231D01*
X42349220Y1964228D01*
X42407711Y1784210D01*
X42407714Y1784203D01*
X42502360Y1620271D01*
X42523454Y1596844D01*
X42629022Y1479599D01*
X42782158Y1368339D01*
X42782163Y1368336D01*
X42955085Y1291345D01*
X42955090Y1291343D01*
X43140247Y1251987D01*
X43140248Y1251987D01*
X43329537Y1251987D01*
X43329539Y1251987D01*
X43514696Y1291343D01*
X43687623Y1368336D01*
X43840764Y1479599D01*
X43967426Y1620271D01*
X44062072Y1784203D01*
X44120567Y1964231D01*
X44140353Y2152487D01*
X44120567Y2340743D01*
X44062072Y2520771D01*
X43967426Y2684703D01*
X43840764Y2825375D01*
X43828228Y2834483D01*
X43687627Y2936636D01*
X43687622Y2936639D01*
X43514700Y3013630D01*
X43514695Y3013632D01*
X43357240Y3047099D01*
X43329539Y3052987D01*
X43140247Y3052987D01*
X43112546Y3047099D01*
X42955090Y3013632D01*
X42955085Y3013630D01*
X42782163Y2936639D01*
X42782158Y2936636D01*
X42629022Y2825376D01*
X42502359Y2684702D01*
X42407714Y2520772D01*
X42407711Y2520765D01*
X42350434Y2344483D01*
X42349219Y2340743D01*
X42329433Y2152487D01*
X40847499Y2152487D01*
X40847499Y2284872D01*
X40841091Y2344483D01*
X40839810Y2347917D01*
X40790797Y2479329D01*
X40790793Y2479336D01*
X40704547Y2594545D01*
X40704544Y2594548D01*
X40589335Y2680794D01*
X40589328Y2680798D01*
X40454482Y2731092D01*
X40454483Y2731092D01*
X40394883Y2737499D01*
X40394881Y2737500D01*
X40394873Y2737500D01*
X40394864Y2737500D01*
X38599129Y2737500D01*
X38599123Y2737499D01*
X38539516Y2731092D01*
X38404671Y2680798D01*
X38404664Y2680794D01*
X38289455Y2594548D01*
X38289452Y2594545D01*
X38203206Y2479336D01*
X38203203Y2479331D01*
X38154189Y2347917D01*
X38112317Y2291984D01*
X38046853Y2267567D01*
X37978580Y2282419D01*
X37950326Y2303570D01*
X37828402Y2425494D01*
X37828395Y2425499D01*
X37634834Y2561033D01*
X37634830Y2561035D01*
X37619289Y2568282D01*
X37420663Y2660903D01*
X37420659Y2660904D01*
X37420655Y2660906D01*
X37192413Y2722062D01*
X37192403Y2722064D01*
X36957001Y2742659D01*
X36956999Y2742659D01*
X36721596Y2722064D01*
X36721586Y2722062D01*
X36493344Y2660906D01*
X36493335Y2660902D01*
X36279171Y2561036D01*
X36279169Y2561035D01*
X36085597Y2425495D01*
X35918508Y2258406D01*
X35788574Y2072840D01*
X35733997Y2029216D01*
X35664498Y2022023D01*
X35602144Y2053545D01*
X35585429Y2072836D01*
X35455495Y2258401D01*
X35455493Y2258404D01*
X35288402Y2425494D01*
X35288398Y2425497D01*
X35286503Y2426824D01*
X35285863Y2427625D01*
X35284249Y2428979D01*
X35284521Y2429304D01*
X35242877Y2481401D01*
X35235683Y2550899D01*
X35267205Y2613254D01*
X35327434Y2648669D01*
X35331829Y2649687D01*
X35513696Y2688343D01*
X35686623Y2765336D01*
X35839764Y2876599D01*
X35966426Y3017271D01*
X36061072Y3181203D01*
X36119567Y3361231D01*
X36139353Y3549487D01*
X36119567Y3737743D01*
X36061072Y3917771D01*
X35966426Y4081703D01*
X35839764Y4222375D01*
X35839763Y4222376D01*
X35686627Y4333636D01*
X35686622Y4333639D01*
X35513700Y4410630D01*
X35513695Y4410632D01*
X35382643Y4438487D01*
X39027433Y4438487D01*
X39047219Y4250231D01*
X39047220Y4250228D01*
X39105711Y4070210D01*
X39105714Y4070203D01*
X39200360Y3906271D01*
X39327022Y3765600D01*
X39327022Y3765599D01*
X39480158Y3654339D01*
X39480163Y3654336D01*
X39653085Y3577345D01*
X39653090Y3577343D01*
X39838247Y3537987D01*
X39838248Y3537987D01*
X40027537Y3537987D01*
X40027539Y3537987D01*
X40212696Y3577343D01*
X40385623Y3654336D01*
X40538764Y3765599D01*
X40665426Y3906271D01*
X40760072Y4070203D01*
X40818567Y4250231D01*
X40838353Y4438487D01*
X40818567Y4626743D01*
X40760072Y4806771D01*
X40665426Y4970703D01*
X40538764Y5111375D01*
X40452703Y5173902D01*
X40385627Y5222636D01*
X40385622Y5222639D01*
X40212700Y5299630D01*
X40212695Y5299632D01*
X40066893Y5330622D01*
X40027539Y5338987D01*
X39838247Y5338987D01*
X39805790Y5332089D01*
X39653090Y5299632D01*
X39653085Y5299630D01*
X39480163Y5222639D01*
X39480158Y5222636D01*
X39327022Y5111376D01*
X39200359Y4970702D01*
X39105714Y4806772D01*
X39105711Y4806765D01*
X39050262Y4636108D01*
X39047219Y4626743D01*
X39037853Y4537631D01*
X39027613Y4440195D01*
X39027433Y4438487D01*
X35382643Y4438487D01*
X35362954Y4442672D01*
X35328539Y4449987D01*
X35139247Y4449987D01*
X35106790Y4443089D01*
X34954090Y4410632D01*
X34954085Y4410630D01*
X34781163Y4333639D01*
X34781158Y4333636D01*
X34628022Y4222376D01*
X34501359Y4081702D01*
X34412497Y3927787D01*
X34361930Y3879572D01*
X34305110Y3865787D01*
X34174047Y3865787D01*
X34149277Y3860522D01*
X33988890Y3826432D01*
X33988885Y3826430D01*
X33815963Y3749439D01*
X33815958Y3749436D01*
X33662822Y3638176D01*
X33536159Y3497502D01*
X33441514Y3333572D01*
X33441511Y3333565D01*
X33383020Y3153547D01*
X33383019Y3153543D01*
X33363233Y2965287D01*
X33383019Y2777031D01*
X33383020Y2777028D01*
X33441511Y2597010D01*
X33441514Y2597003D01*
X33485526Y2520771D01*
X33494813Y2504687D01*
X33511286Y2436787D01*
X33488433Y2370760D01*
X33475108Y2355007D01*
X33378508Y2258406D01*
X33248269Y2072405D01*
X33193692Y2028781D01*
X33124193Y2021588D01*
X33061839Y2053110D01*
X33045119Y2072406D01*
X32915113Y2258074D01*
X32915108Y2258080D01*
X32748082Y2425106D01*
X32554578Y2560601D01*
X32340492Y2660430D01*
X32340486Y2660433D01*
X32127000Y2717636D01*
X32127000Y1822502D01*
X32019315Y1871680D01*
X31912763Y1887000D01*
X31841237Y1887000D01*
X31734685Y1871680D01*
X31626999Y1822502D01*
X31627000Y2717636D01*
X31626999Y2717636D01*
X31413513Y2660433D01*
X31413507Y2660430D01*
X31199422Y2560601D01*
X31199420Y2560600D01*
X31005926Y2425114D01*
X31005920Y2425109D01*
X30838891Y2258080D01*
X30838890Y2258078D01*
X30708880Y2072405D01*
X30654303Y2028781D01*
X30584804Y2021588D01*
X30522450Y2053110D01*
X30505730Y2072406D01*
X30375494Y2258403D01*
X30208402Y2425494D01*
X30208395Y2425499D01*
X30014834Y2561033D01*
X30014830Y2561035D01*
X29999289Y2568282D01*
X29800663Y2660903D01*
X29800659Y2660904D01*
X29800655Y2660906D01*
X29572413Y2722062D01*
X29572403Y2722064D01*
X29337001Y2742659D01*
X29336999Y2742659D01*
X29101596Y2722064D01*
X29101586Y2722062D01*
X28873344Y2660906D01*
X28873335Y2660902D01*
X28659171Y2561036D01*
X28659169Y2561035D01*
X28465597Y2425495D01*
X28298505Y2258403D01*
X28168575Y2072842D01*
X28113998Y2029217D01*
X28044500Y2022023D01*
X27982145Y2053546D01*
X27965425Y2072842D01*
X27835494Y2258403D01*
X27668402Y2425494D01*
X27668395Y2425499D01*
X27474834Y2561033D01*
X27474830Y2561035D01*
X27459289Y2568282D01*
X27260663Y2660903D01*
X27260659Y2660904D01*
X27260655Y2660906D01*
X27032413Y2722062D01*
X27032403Y2722064D01*
X26797001Y2742659D01*
X26796999Y2742659D01*
X26561596Y2722064D01*
X26561586Y2722062D01*
X26333344Y2660906D01*
X26333335Y2660902D01*
X26119171Y2561036D01*
X26119169Y2561035D01*
X25925597Y2425495D01*
X25758508Y2258406D01*
X25628574Y2072840D01*
X25573997Y2029216D01*
X25504498Y2022023D01*
X25442144Y2053545D01*
X25425429Y2072836D01*
X25295495Y2258401D01*
X25234480Y2319416D01*
X25200997Y2380736D01*
X25205981Y2450428D01*
X25247852Y2506362D01*
X25271727Y2520374D01*
X25335440Y2548741D01*
X25488581Y2660004D01*
X25615243Y2800676D01*
X25709889Y2964608D01*
X25768384Y3144636D01*
X25788170Y3332892D01*
X25768384Y3521148D01*
X25709889Y3701176D01*
X25615243Y3865108D01*
X25488581Y4005780D01*
X25434914Y4044771D01*
X25335443Y4117041D01*
X25335442Y4117042D01*
X25335440Y4117043D01*
X25325410Y4121509D01*
X25272175Y4166760D01*
X25252528Y4221824D01*
X25236667Y4372743D01*
X25178172Y4552771D01*
X25083526Y4716703D01*
X24956864Y4857375D01*
X24938901Y4870426D01*
X24803727Y4968636D01*
X24803722Y4968639D01*
X24630800Y5045630D01*
X24630795Y5045632D01*
X24484993Y5076622D01*
X24445639Y5084987D01*
X24256347Y5084987D01*
X24223890Y5078089D01*
X24071190Y5045632D01*
X24071185Y5045630D01*
X23898263Y4968639D01*
X23898258Y4968636D01*
X23745122Y4857376D01*
X23618459Y4716702D01*
X23523814Y4552772D01*
X23523811Y4552765D01*
X23477629Y4410630D01*
X23465319Y4372743D01*
X23445533Y4184487D01*
X23465319Y3996231D01*
X23465320Y3996228D01*
X23523811Y3816210D01*
X23523814Y3816203D01*
X23618460Y3652271D01*
X23721362Y3537987D01*
X23745122Y3511599D01*
X23898258Y3400339D01*
X23898260Y3400338D01*
X23898263Y3400336D01*
X23908290Y3395872D01*
X23961526Y3350621D01*
X23981174Y3295555D01*
X23997036Y3144636D01*
X23997037Y3144633D01*
X24055528Y2964615D01*
X24055531Y2964608D01*
X24072142Y2935836D01*
X24091456Y2902384D01*
X24107929Y2834483D01*
X24085076Y2768457D01*
X24030155Y2725266D01*
X24016162Y2720609D01*
X23793344Y2660906D01*
X23793335Y2660902D01*
X23579171Y2561036D01*
X23579169Y2561035D01*
X23385597Y2425495D01*
X23218505Y2258403D01*
X23088575Y2072842D01*
X23033998Y2029217D01*
X22964500Y2022023D01*
X22902145Y2053546D01*
X22885425Y2072842D01*
X22755494Y2258403D01*
X22588402Y2425494D01*
X22588395Y2425499D01*
X22394834Y2561033D01*
X22394830Y2561035D01*
X22379289Y2568282D01*
X22180663Y2660903D01*
X22180659Y2660904D01*
X22180655Y2660906D01*
X21952413Y2722062D01*
X21952403Y2722064D01*
X21717001Y2742659D01*
X21716999Y2742659D01*
X21481596Y2722064D01*
X21481586Y2722062D01*
X21288527Y2670333D01*
X21223770Y2671875D01*
X21176989Y2625537D01*
X21170486Y2622269D01*
X21039171Y2561036D01*
X21039169Y2561035D01*
X20845597Y2425495D01*
X20678508Y2258406D01*
X20548574Y2072840D01*
X20493997Y2029216D01*
X20424498Y2022023D01*
X20362144Y2053545D01*
X20345429Y2072836D01*
X20215495Y2258401D01*
X20215493Y2258404D01*
X20048402Y2425494D01*
X20048395Y2425499D01*
X19854834Y2561033D01*
X19854830Y2561035D01*
X19839289Y2568282D01*
X19686537Y2639512D01*
X19634100Y2685682D01*
X19614948Y2752876D01*
X19635164Y2819757D01*
X19651258Y2839568D01*
X19956612Y3144922D01*
X20017933Y3178405D01*
X20087625Y3173421D01*
X20136439Y3140213D01*
X20214977Y3052987D01*
X20220279Y3047099D01*
X20373415Y2935839D01*
X20373420Y2935836D01*
X20546342Y2858845D01*
X20546347Y2858843D01*
X20731504Y2819487D01*
X20731505Y2819487D01*
X20920794Y2819487D01*
X20920796Y2819487D01*
X21092300Y2855941D01*
X21151390Y2851433D01*
X21191897Y2895990D01*
X21205985Y2903381D01*
X21278880Y2935836D01*
X21432021Y3047099D01*
X21558683Y3187771D01*
X21653329Y3351703D01*
X21711824Y3531731D01*
X21731610Y3719987D01*
X21713381Y3893421D01*
X21725950Y3962145D01*
X21755930Y4000462D01*
X21902888Y4126621D01*
X22027441Y4287529D01*
X22117053Y4470216D01*
X22168056Y4667202D01*
X22178362Y4870423D01*
X22147549Y5071558D01*
X22091596Y5222636D01*
X22076881Y5262369D01*
X22076880Y5262370D01*
X22076879Y5262374D01*
X21969245Y5435058D01*
X21969243Y5435060D01*
X21965397Y5440029D01*
X21967255Y5441468D01*
X21940158Y5494232D01*
X21946909Y5563775D01*
X21954562Y5579501D01*
X22001172Y5660229D01*
X22059667Y5840257D01*
X22079453Y6028513D01*
X22059667Y6216769D01*
X22001172Y6396797D01*
X21906526Y6560729D01*
X21779864Y6701401D01*
X21748089Y6724487D01*
X21626727Y6812662D01*
X21626722Y6812665D01*
X21453800Y6889656D01*
X21453796Y6889657D01*
X21412106Y6898519D01*
X21350624Y6931712D01*
X21319957Y6981491D01*
X21300250Y7042144D01*
X21283800Y7092771D01*
X21189154Y7256703D01*
X21062492Y7397375D01*
X21030329Y7420743D01*
X20909355Y7508636D01*
X20909350Y7508639D01*
X20736428Y7585630D01*
X20736423Y7585632D01*
X20590621Y7616622D01*
X20551267Y7624987D01*
X20361975Y7624987D01*
X20329518Y7618089D01*
X20176818Y7585632D01*
X20176813Y7585630D01*
X20003891Y7508639D01*
X20003886Y7508636D01*
X19850746Y7397374D01*
X19845967Y7393070D01*
X19782974Y7362845D01*
X19713639Y7371475D01*
X19670852Y7402254D01*
X19654204Y7420743D01*
X19583764Y7498975D01*
X19554399Y7520310D01*
X19430627Y7610236D01*
X19430622Y7610239D01*
X19257700Y7687230D01*
X19257695Y7687232D01*
X19111894Y7718222D01*
X19072539Y7726587D01*
X18883247Y7726587D01*
X18850790Y7719689D01*
X18698090Y7687232D01*
X18698085Y7687230D01*
X18525163Y7610239D01*
X18525158Y7610236D01*
X18372022Y7498976D01*
X18245359Y7358302D01*
X18150714Y7194372D01*
X18150711Y7194365D01*
X18092220Y7014347D01*
X18092219Y7014343D01*
X18072433Y6826087D01*
X18092219Y6637831D01*
X18092220Y6637828D01*
X18150711Y6457810D01*
X18150714Y6457803D01*
X18245360Y6293871D01*
X18340932Y6187728D01*
X18372022Y6153199D01*
X18525158Y6041939D01*
X18525163Y6041936D01*
X18698085Y5964945D01*
X18698090Y5964943D01*
X18883247Y5925587D01*
X18883248Y5925587D01*
X19072537Y5925587D01*
X19072539Y5925587D01*
X19257696Y5964943D01*
X19430623Y6041936D01*
X19583764Y6153199D01*
X19583768Y6153204D01*
X19588536Y6157496D01*
X19651527Y6187728D01*
X19720862Y6179105D01*
X19763661Y6148321D01*
X19850750Y6051599D01*
X19936021Y5989646D01*
X19978687Y5934316D01*
X19984666Y5864703D01*
X19952060Y5802908D01*
X19909131Y5774174D01*
X19882640Y5763593D01*
X19878203Y5762013D01*
X19819672Y5743647D01*
X19819668Y5743645D01*
X19789636Y5726977D01*
X19782542Y5723608D01*
X19750640Y5710864D01*
X19750635Y5710862D01*
X19699414Y5677106D01*
X19695386Y5674665D01*
X19641759Y5644899D01*
X19615692Y5622522D01*
X19609423Y5617795D01*
X19580742Y5598892D01*
X19580736Y5598887D01*
X19537367Y5555519D01*
X19533913Y5552318D01*
X19487362Y5512353D01*
X19466333Y5485187D01*
X19461142Y5479294D01*
X18441157Y4459306D01*
X18379834Y4425821D01*
X18353476Y4422987D01*
X17559683Y4422987D01*
X17492644Y4442672D01*
X17446889Y4495476D01*
X17436362Y4559948D01*
X17444953Y4641687D01*
X17425167Y4829943D01*
X17366672Y5009971D01*
X17272026Y5173903D01*
X17145364Y5314575D01*
X17107815Y5341856D01*
X16992227Y5425836D01*
X16992222Y5425839D01*
X16819300Y5502830D01*
X16819295Y5502832D01*
X16673494Y5533822D01*
X16634139Y5542187D01*
X16444847Y5542187D01*
X16412390Y5535289D01*
X16259690Y5502832D01*
X16259685Y5502830D01*
X16086763Y5425839D01*
X16086758Y5425836D01*
X15933622Y5314576D01*
X15806959Y5173902D01*
X15712314Y5009972D01*
X15712311Y5009965D01*
X15662732Y4857375D01*
X15653819Y4829943D01*
X15641917Y4716702D01*
X15634033Y4641687D01*
X15642624Y4559948D01*
X15630054Y4491218D01*
X15582322Y4440195D01*
X15519303Y4422987D01*
X9806442Y4422987D01*
X9739403Y4442672D01*
X9693648Y4495476D01*
X9683704Y4564634D01*
X9712729Y4628190D01*
X9756003Y4660266D01*
X9778623Y4670336D01*
X9931764Y4781599D01*
X10058426Y4922271D01*
X10153072Y5086203D01*
X10211567Y5266231D01*
X10231353Y5454487D01*
X10211567Y5642743D01*
X10208928Y5650863D01*
X10205176Y5662414D01*
X10203181Y5732255D01*
X10239262Y5792087D01*
X10301963Y5822915D01*
X10309268Y5823930D01*
X10309536Y5823987D01*
X10309539Y5823987D01*
X10494696Y5863343D01*
X10667623Y5940336D01*
X10820764Y6051599D01*
X10947426Y6192271D01*
X11042072Y6356203D01*
X11100567Y6536231D01*
X11120353Y6724487D01*
X11100567Y6912743D01*
X11042072Y7092771D01*
X10947426Y7256703D01*
X10820764Y7397375D01*
X10788601Y7420743D01*
X10667627Y7508636D01*
X10667622Y7508639D01*
X10494700Y7585630D01*
X10494695Y7585632D01*
X10348893Y7616622D01*
X10309539Y7624987D01*
X10120247Y7624987D01*
X10114045Y7623669D01*
X10109867Y7622781D01*
X10040200Y7628102D01*
X9984469Y7670242D01*
X9960368Y7735823D01*
X9960093Y7744073D01*
X9960093Y8219709D01*
X24168433Y8219709D01*
X24188219Y8031453D01*
X24188220Y8031450D01*
X24246711Y7851432D01*
X24246714Y7851425D01*
X24341360Y7687493D01*
X24451957Y7564663D01*
X24468022Y7546821D01*
X24621158Y7435561D01*
X24621163Y7435558D01*
X24794084Y7358567D01*
X24794086Y7358567D01*
X24794090Y7358565D01*
X24804004Y7356458D01*
X24865484Y7323267D01*
X24899262Y7262105D01*
X24901276Y7226888D01*
X24901353Y7226888D01*
X24901353Y7225550D01*
X24901544Y7222210D01*
X24901353Y7220390D01*
X24921139Y7032134D01*
X24921140Y7032131D01*
X24979631Y6852113D01*
X24979634Y6852106D01*
X25074280Y6688174D01*
X25119612Y6637828D01*
X25200942Y6547502D01*
X25354078Y6436242D01*
X25354083Y6436239D01*
X25527005Y6359248D01*
X25527010Y6359246D01*
X25712167Y6319890D01*
X25712168Y6319890D01*
X25901457Y6319890D01*
X25901459Y6319890D01*
X26086616Y6359246D01*
X26259543Y6436239D01*
X26412684Y6547502D01*
X26539346Y6688174D01*
X26633992Y6852106D01*
X26692487Y7032134D01*
X26712273Y7220390D01*
X26702557Y7312829D01*
X26715126Y7381556D01*
X26762858Y7432580D01*
X26800089Y7447076D01*
X26946797Y7478259D01*
X26946801Y7478261D01*
X26946802Y7478261D01*
X27015024Y7508636D01*
X27119724Y7555252D01*
X27272865Y7666515D01*
X27399527Y7807187D01*
X27494173Y7971119D01*
X27552668Y8151147D01*
X27572454Y8339403D01*
X27552668Y8527659D01*
X27494173Y8707687D01*
X27476477Y8738336D01*
X27460005Y8806235D01*
X27482858Y8872262D01*
X27491704Y8883294D01*
X27584426Y8986271D01*
X27679072Y9150203D01*
X27737567Y9330231D01*
X27757353Y9518487D01*
X27737567Y9706743D01*
X27679072Y9886771D01*
X27584426Y10050703D01*
X27457764Y10191375D01*
X27457763Y10191376D01*
X27304627Y10302636D01*
X27304622Y10302639D01*
X27131700Y10379630D01*
X27131695Y10379632D01*
X26985893Y10410622D01*
X26946539Y10418987D01*
X26757247Y10418987D01*
X26724790Y10412089D01*
X26572090Y10379632D01*
X26572085Y10379630D01*
X26399163Y10302639D01*
X26399158Y10302636D01*
X26246022Y10191376D01*
X26119359Y10050702D01*
X26024714Y9886772D01*
X26024711Y9886765D01*
X25987167Y9771215D01*
X25966219Y9706743D01*
X25946433Y9518487D01*
X25966219Y9330231D01*
X25966220Y9330228D01*
X26024711Y9150210D01*
X26024714Y9150203D01*
X26042408Y9119556D01*
X26058881Y9051657D01*
X26036029Y8985630D01*
X26027171Y8974585D01*
X25934461Y8871620D01*
X25927666Y8859850D01*
X25877097Y8811636D01*
X25808490Y8798415D01*
X25743626Y8824384D01*
X25728130Y8838881D01*
X25709249Y8859850D01*
X25679764Y8892597D01*
X25644826Y8917981D01*
X25526627Y9003858D01*
X25526622Y9003861D01*
X25353700Y9080852D01*
X25353695Y9080854D01*
X25171606Y9119557D01*
X25168539Y9120209D01*
X24979247Y9120209D01*
X24976180Y9119557D01*
X24794090Y9080854D01*
X24794085Y9080852D01*
X24621163Y9003861D01*
X24621158Y9003858D01*
X24468022Y8892598D01*
X24341359Y8751924D01*
X24246714Y8587994D01*
X24246711Y8587987D01*
X24188220Y8407969D01*
X24188219Y8407965D01*
X24168433Y8219709D01*
X9960093Y8219709D01*
X9960093Y9518487D01*
X12230433Y9518487D01*
X12250219Y9330231D01*
X12250220Y9330228D01*
X12308711Y9150210D01*
X12308714Y9150203D01*
X12403360Y8986271D01*
X12517190Y8859850D01*
X12530022Y8845599D01*
X12683158Y8734339D01*
X12683163Y8734336D01*
X12856085Y8657345D01*
X12856090Y8657343D01*
X13041247Y8617987D01*
X13041248Y8617987D01*
X13230537Y8617987D01*
X13230539Y8617987D01*
X13415696Y8657343D01*
X13588623Y8734336D01*
X13741764Y8845599D01*
X13868426Y8986271D01*
X13963072Y9150203D01*
X14021567Y9330231D01*
X14041353Y9518487D01*
X14021567Y9706743D01*
X13963072Y9886771D01*
X13941066Y9924887D01*
X15938833Y9924887D01*
X15958619Y9736631D01*
X15958620Y9736628D01*
X16017111Y9556610D01*
X16017114Y9556603D01*
X16111760Y9392671D01*
X16197358Y9297605D01*
X16238422Y9251999D01*
X16391558Y9140739D01*
X16391563Y9140736D01*
X16564485Y9063745D01*
X16564490Y9063743D01*
X16749647Y9024387D01*
X16749648Y9024387D01*
X16938937Y9024387D01*
X16938939Y9024387D01*
X17124096Y9063743D01*
X17297023Y9140736D01*
X17450164Y9251999D01*
X17576826Y9392671D01*
X17671472Y9556603D01*
X17729967Y9736631D01*
X17749753Y9924887D01*
X17729967Y10113143D01*
X17671472Y10293171D01*
X17576826Y10457103D01*
X17450164Y10597775D01*
X17450163Y10597776D01*
X17297027Y10709036D01*
X17297022Y10709039D01*
X17124100Y10786030D01*
X17124095Y10786032D01*
X16978293Y10817022D01*
X16938939Y10825387D01*
X16749647Y10825387D01*
X16717190Y10818489D01*
X16564490Y10786032D01*
X16564485Y10786030D01*
X16391563Y10709039D01*
X16391558Y10709036D01*
X16238422Y10597776D01*
X16111759Y10457102D01*
X16017114Y10293172D01*
X16017111Y10293165D01*
X15961864Y10123131D01*
X15958619Y10113143D01*
X15938833Y9924887D01*
X13941066Y9924887D01*
X13868426Y10050703D01*
X13741764Y10191375D01*
X13741763Y10191376D01*
X13588627Y10302636D01*
X13588622Y10302639D01*
X13415700Y10379630D01*
X13415695Y10379632D01*
X13269894Y10410622D01*
X13230539Y10418987D01*
X13041247Y10418987D01*
X13008790Y10412089D01*
X12856090Y10379632D01*
X12856085Y10379630D01*
X12683163Y10302639D01*
X12683158Y10302636D01*
X12530022Y10191376D01*
X12403359Y10050702D01*
X12308714Y9886772D01*
X12308711Y9886765D01*
X12271167Y9771215D01*
X12250219Y9706743D01*
X12230433Y9518487D01*
X9960093Y9518487D01*
X9960093Y11806282D01*
X9961402Y11824252D01*
X9962151Y11829365D01*
X9964882Y11848010D01*
X9964762Y11849378D01*
X9962413Y11876225D01*
X9960328Y11900054D01*
X9960093Y11905455D01*
X9960093Y11913691D01*
X9960093Y11913696D01*
X9956384Y11945423D01*
X9956211Y11947115D01*
X9955312Y11957387D01*
X20256833Y11957387D01*
X20276619Y11769131D01*
X20276620Y11769128D01*
X20335111Y11589110D01*
X20335114Y11589103D01*
X20429760Y11425171D01*
X20520546Y11324343D01*
X20556422Y11284499D01*
X20709558Y11173239D01*
X20709563Y11173236D01*
X20882485Y11096245D01*
X20882490Y11096243D01*
X21067647Y11056887D01*
X21067648Y11056887D01*
X21256937Y11056887D01*
X21256939Y11056887D01*
X21442096Y11096243D01*
X21615023Y11173236D01*
X21768164Y11284499D01*
X21894826Y11425171D01*
X21989472Y11589103D01*
X22047967Y11769131D01*
X22067753Y11957387D01*
X22057127Y12058487D01*
X26454433Y12058487D01*
X26474219Y11870231D01*
X26474220Y11870228D01*
X26532711Y11690210D01*
X26532714Y11690203D01*
X26627360Y11526271D01*
X26739850Y11401339D01*
X26754022Y11385599D01*
X26907158Y11274339D01*
X26907163Y11274336D01*
X27080085Y11197345D01*
X27080090Y11197343D01*
X27265247Y11157987D01*
X27265248Y11157987D01*
X27454537Y11157987D01*
X27454539Y11157987D01*
X27639696Y11197343D01*
X27812623Y11274336D01*
X27965764Y11385599D01*
X28002163Y11426025D01*
X28061648Y11462672D01*
X28131505Y11461343D01*
X28189553Y11422457D01*
X28201699Y11405052D01*
X28278360Y11272271D01*
X28345824Y11197345D01*
X28405453Y11131120D01*
X28435683Y11068129D01*
X28431234Y11009830D01*
X28389849Y10882460D01*
X28379219Y10849743D01*
X28359433Y10661487D01*
X28379219Y10473231D01*
X28379220Y10473228D01*
X28437711Y10293210D01*
X28437714Y10293203D01*
X28532360Y10129271D01*
X28659022Y9988599D01*
X28812158Y9877339D01*
X28812163Y9877336D01*
X28985085Y9800345D01*
X28985090Y9800343D01*
X29170247Y9760987D01*
X29170248Y9760987D01*
X29359537Y9760987D01*
X29359539Y9760987D01*
X29432666Y9776531D01*
X29502330Y9771215D01*
X29558064Y9729079D01*
X29582170Y9663499D01*
X29576376Y9616923D01*
X29527973Y9467953D01*
X29522219Y9450243D01*
X29517170Y9402203D01*
X29490584Y9337589D01*
X29433287Y9297605D01*
X29363467Y9294946D01*
X29320965Y9314847D01*
X29216203Y9390961D01*
X29216202Y9390962D01*
X29043280Y9467953D01*
X29043275Y9467955D01*
X28897473Y9498945D01*
X28858119Y9507310D01*
X28668827Y9507310D01*
X28636370Y9500412D01*
X28483670Y9467955D01*
X28483665Y9467953D01*
X28310743Y9390962D01*
X28310738Y9390959D01*
X28157602Y9279699D01*
X28030939Y9139025D01*
X27936294Y8975095D01*
X27936291Y8975088D01*
X27878887Y8798415D01*
X27877799Y8795066D01*
X27858013Y8606810D01*
X27877799Y8418554D01*
X27877800Y8418551D01*
X27936291Y8238533D01*
X27936294Y8238526D01*
X28030940Y8074594D01*
X28124103Y7971126D01*
X28157602Y7933922D01*
X28310738Y7822662D01*
X28310743Y7822659D01*
X28483665Y7745668D01*
X28483670Y7745666D01*
X28668827Y7706310D01*
X28668828Y7706310D01*
X28781273Y7706310D01*
X28848312Y7686625D01*
X28894067Y7633821D01*
X28904011Y7564663D01*
X28888660Y7520313D01*
X28881921Y7508639D01*
X28869514Y7487150D01*
X28869511Y7487143D01*
X28811020Y7307125D01*
X28811019Y7307121D01*
X28791233Y7118865D01*
X28811019Y6930609D01*
X28811020Y6930606D01*
X28869511Y6750588D01*
X28869514Y6750581D01*
X28964160Y6586649D01*
X29080174Y6457803D01*
X29090822Y6445977D01*
X29243958Y6334717D01*
X29243963Y6334714D01*
X29416885Y6257723D01*
X29416890Y6257721D01*
X29602047Y6218365D01*
X29602048Y6218365D01*
X29791337Y6218365D01*
X29791339Y6218365D01*
X29976496Y6257721D01*
X30149423Y6334714D01*
X30302564Y6445977D01*
X30429226Y6586649D01*
X30523872Y6750581D01*
X30582367Y6930609D01*
X30602153Y7118865D01*
X30582367Y7307121D01*
X30523872Y7487149D01*
X30429226Y7651081D01*
X30302564Y7791753D01*
X30281321Y7807187D01*
X30149427Y7903014D01*
X30149422Y7903017D01*
X29976500Y7980008D01*
X29976495Y7980010D01*
X29830693Y8011000D01*
X29791339Y8019365D01*
X29678893Y8019365D01*
X29611854Y8039050D01*
X29566099Y8091854D01*
X29556155Y8161012D01*
X29571505Y8205363D01*
X29590652Y8238526D01*
X29649147Y8418554D01*
X29654196Y8466597D01*
X29680779Y8531207D01*
X29738076Y8571193D01*
X29807895Y8573853D01*
X29850398Y8553952D01*
X29955159Y8477839D01*
X29955163Y8477836D01*
X30128085Y8400845D01*
X30128090Y8400843D01*
X30313247Y8361487D01*
X30313248Y8361487D01*
X30502537Y8361487D01*
X30502539Y8361487D01*
X30687696Y8400843D01*
X30817904Y8458816D01*
X40580085Y8458816D01*
X40607739Y8301975D01*
X40610367Y8287075D01*
X40679440Y8126948D01*
X40783578Y7987065D01*
X40783579Y7987064D01*
X40783581Y7987062D01*
X40880933Y7905375D01*
X40917168Y7874970D01*
X41073009Y7796704D01*
X41242698Y7756487D01*
X41242700Y7756487D01*
X41373341Y7756487D01*
X41373348Y7756487D01*
X41503104Y7771653D01*
X41649209Y7824832D01*
X41718936Y7829262D01*
X41779992Y7795292D01*
X41812989Y7733705D01*
X41807452Y7664056D01*
X41799006Y7646311D01*
X41785422Y7622781D01*
X41772713Y7600769D01*
X41772711Y7600765D01*
X41718065Y7432580D01*
X41714219Y7420743D01*
X41694433Y7232487D01*
X41714219Y7044231D01*
X41714220Y7044228D01*
X41772711Y6864210D01*
X41772714Y6864203D01*
X41867360Y6700271D01*
X41954271Y6603747D01*
X41994022Y6559599D01*
X42147158Y6448339D01*
X42147163Y6448336D01*
X42320085Y6371345D01*
X42320090Y6371343D01*
X42505247Y6331987D01*
X42505248Y6331987D01*
X42694537Y6331987D01*
X42694539Y6331987D01*
X42879696Y6371343D01*
X43052623Y6448336D01*
X43205764Y6559599D01*
X43332426Y6700271D01*
X43427072Y6864203D01*
X43485567Y7044231D01*
X43505353Y7232487D01*
X43485567Y7420743D01*
X43427072Y7600771D01*
X43332426Y7764703D01*
X43205764Y7905375D01*
X43101098Y7981419D01*
X43058433Y8036749D01*
X43052454Y8106362D01*
X43085060Y8168157D01*
X43145899Y8202515D01*
X43173984Y8205737D01*
X43233787Y8205737D01*
X43233789Y8205737D01*
X43418946Y8245093D01*
X43591873Y8322086D01*
X43745014Y8433349D01*
X43871676Y8574021D01*
X43966322Y8737953D01*
X44024817Y8917981D01*
X44044603Y9106237D01*
X44024817Y9294493D01*
X43966322Y9474521D01*
X43871676Y9638453D01*
X43745014Y9779125D01*
X43745013Y9779126D01*
X43590050Y9891713D01*
X43547384Y9947043D01*
X43541405Y10016656D01*
X43574011Y10078451D01*
X43612499Y10105310D01*
X43701001Y10144714D01*
X43854142Y10255977D01*
X43980804Y10396649D01*
X44075450Y10560581D01*
X44133945Y10740609D01*
X44153731Y10928865D01*
X44133945Y11117121D01*
X44075450Y11297149D01*
X43980804Y11461081D01*
X43854142Y11601753D01*
X43854141Y11601754D01*
X43701005Y11713014D01*
X43701000Y11713017D01*
X43528078Y11790008D01*
X43528073Y11790010D01*
X43366972Y11824252D01*
X43342917Y11829365D01*
X43153625Y11829365D01*
X43129570Y11824252D01*
X42968468Y11790010D01*
X42968463Y11790008D01*
X42795541Y11713017D01*
X42795536Y11713014D01*
X42642400Y11601754D01*
X42515737Y11461080D01*
X42421092Y11297150D01*
X42421089Y11297143D01*
X42366800Y11130056D01*
X42362597Y11117121D01*
X42342811Y10928865D01*
X42362597Y10740609D01*
X42362598Y10740606D01*
X42421089Y10560588D01*
X42421092Y10560581D01*
X42515738Y10396649D01*
X42608910Y10293171D01*
X42642400Y10255977D01*
X42797363Y10143390D01*
X42840029Y10088060D01*
X42846008Y10018447D01*
X42813402Y9956652D01*
X42774915Y9929793D01*
X42686410Y9890387D01*
X42686408Y9890386D01*
X42533272Y9779126D01*
X42406609Y9638452D01*
X42311964Y9474522D01*
X42311961Y9474515D01*
X42254480Y9297605D01*
X42253469Y9294493D01*
X42233683Y9106237D01*
X42253469Y8917981D01*
X42253470Y8917978D01*
X42311961Y8737960D01*
X42311964Y8737953D01*
X42406610Y8574021D01*
X42533272Y8433349D01*
X42578013Y8400843D01*
X42637938Y8357305D01*
X42680603Y8301975D01*
X42686582Y8232362D01*
X42653976Y8170567D01*
X42593137Y8136209D01*
X42565052Y8132987D01*
X42505247Y8132987D01*
X42472790Y8126089D01*
X42320090Y8093632D01*
X42177651Y8030213D01*
X42108401Y8020929D01*
X42045125Y8050557D01*
X42007912Y8109692D01*
X42008577Y8179559D01*
X42016730Y8198349D01*
X42016685Y8198368D01*
X42019541Y8204993D01*
X42019546Y8205000D01*
X42069561Y8372064D01*
X42079701Y8546158D01*
X42049419Y8717899D01*
X41980346Y8878026D01*
X41876208Y9017909D01*
X41876205Y9017911D01*
X41876204Y9017913D01*
X41742618Y9130004D01*
X41742616Y9130005D01*
X41586780Y9208269D01*
X41586778Y9208270D01*
X41586777Y9208270D01*
X41417088Y9248487D01*
X41286438Y9248487D01*
X41185516Y9236692D01*
X41156680Y9233321D01*
X41156678Y9233320D01*
X40992810Y9173677D01*
X40992806Y9173675D01*
X40847111Y9077850D01*
X40847110Y9077849D01*
X40727436Y8951002D01*
X40727432Y8950997D01*
X40640240Y8799976D01*
X40590226Y8632914D01*
X40590224Y8632906D01*
X40580085Y8458817D01*
X40580085Y8458816D01*
X30817904Y8458816D01*
X30860623Y8477836D01*
X31013764Y8589099D01*
X31140426Y8729771D01*
X31235072Y8893703D01*
X31293567Y9073731D01*
X31313353Y9261987D01*
X31293567Y9450243D01*
X31235072Y9630271D01*
X31190203Y9707987D01*
X34709433Y9707987D01*
X34729219Y9519731D01*
X34729220Y9519728D01*
X34787711Y9339710D01*
X34787714Y9339703D01*
X34882360Y9175771D01*
X34974240Y9073728D01*
X35009022Y9035099D01*
X35162158Y8923839D01*
X35162163Y8923836D01*
X35335085Y8846845D01*
X35335090Y8846843D01*
X35520247Y8807487D01*
X35520248Y8807487D01*
X35709537Y8807487D01*
X35709539Y8807487D01*
X35894696Y8846843D01*
X36067623Y8923836D01*
X36220764Y9035099D01*
X36347426Y9175771D01*
X36442072Y9339703D01*
X36500567Y9519731D01*
X36520353Y9707987D01*
X36500567Y9896243D01*
X36442072Y10076271D01*
X36347426Y10240203D01*
X36220764Y10380875D01*
X36199053Y10396649D01*
X36067627Y10492136D01*
X36067622Y10492139D01*
X35894700Y10569130D01*
X35894695Y10569132D01*
X35748894Y10600122D01*
X35709539Y10608487D01*
X35520247Y10608487D01*
X35487790Y10601589D01*
X35335090Y10569132D01*
X35335085Y10569130D01*
X35162163Y10492139D01*
X35162158Y10492136D01*
X35009022Y10380876D01*
X34882359Y10240202D01*
X34787714Y10076272D01*
X34787711Y10076265D01*
X34741771Y9934875D01*
X34729219Y9896243D01*
X34709433Y9707987D01*
X31190203Y9707987D01*
X31140426Y9794203D01*
X31013764Y9934875D01*
X31013763Y9934876D01*
X30860627Y10046136D01*
X30860622Y10046139D01*
X30687700Y10123130D01*
X30687695Y10123132D01*
X30541893Y10154122D01*
X30502539Y10162487D01*
X30313247Y10162487D01*
X30313245Y10162487D01*
X30240120Y10146944D01*
X30170453Y10152260D01*
X30114720Y10194398D01*
X30090615Y10259978D01*
X30096408Y10306550D01*
X30150567Y10473231D01*
X30170353Y10661487D01*
X30150567Y10849743D01*
X30092072Y11029771D01*
X30011407Y11169487D01*
X38011433Y11169487D01*
X38031219Y10981231D01*
X38031220Y10981228D01*
X38089711Y10801210D01*
X38089714Y10801203D01*
X38184360Y10637271D01*
X38301360Y10507330D01*
X38311022Y10496599D01*
X38464158Y10385339D01*
X38464163Y10385336D01*
X38637085Y10308345D01*
X38637090Y10308343D01*
X38822247Y10268987D01*
X38822248Y10268987D01*
X39011537Y10268987D01*
X39011539Y10268987D01*
X39196696Y10308343D01*
X39369623Y10385336D01*
X39522764Y10496599D01*
X39649426Y10637271D01*
X39744072Y10801203D01*
X39802567Y10981231D01*
X39822353Y11169487D01*
X39802567Y11357743D01*
X39744072Y11537771D01*
X39649426Y11701703D01*
X39541160Y11821944D01*
X39510931Y11884934D01*
X39519556Y11954269D01*
X39564297Y12007935D01*
X39582867Y12018191D01*
X39623623Y12036336D01*
X39776764Y12147599D01*
X39903426Y12288271D01*
X39998072Y12452203D01*
X40056567Y12632231D01*
X40066936Y12730890D01*
X40093519Y12795502D01*
X40150816Y12835487D01*
X40218850Y12838584D01*
X40227698Y12836487D01*
X40227701Y12836487D01*
X40358341Y12836487D01*
X40358348Y12836487D01*
X40488104Y12851653D01*
X40651977Y12911298D01*
X40797677Y13007127D01*
X40917351Y13133974D01*
X41004546Y13285000D01*
X41054561Y13452064D01*
X41059614Y13538816D01*
X41595085Y13538816D01*
X41621823Y13387170D01*
X41625367Y13367075D01*
X41694440Y13206948D01*
X41798578Y13067065D01*
X41798579Y13067064D01*
X41798581Y13067062D01*
X41870011Y13007126D01*
X41932168Y12954970D01*
X42088009Y12876704D01*
X42257698Y12836487D01*
X42257700Y12836487D01*
X42388341Y12836487D01*
X42388348Y12836487D01*
X42518104Y12851653D01*
X42681977Y12911298D01*
X42827677Y13007127D01*
X42947351Y13133974D01*
X43034546Y13285000D01*
X43084561Y13452064D01*
X43094701Y13626158D01*
X43064419Y13797899D01*
X42995346Y13958026D01*
X42891208Y14097909D01*
X42891205Y14097911D01*
X42891204Y14097913D01*
X42757618Y14210004D01*
X42757616Y14210005D01*
X42601780Y14288269D01*
X42601778Y14288270D01*
X42601777Y14288270D01*
X42432088Y14328487D01*
X42301438Y14328487D01*
X42200516Y14316692D01*
X42171680Y14313321D01*
X42171678Y14313320D01*
X42007810Y14253677D01*
X42007806Y14253675D01*
X41862111Y14157850D01*
X41862110Y14157849D01*
X41742436Y14031002D01*
X41742432Y14030997D01*
X41655240Y13879976D01*
X41605226Y13712914D01*
X41605224Y13712906D01*
X41595085Y13538817D01*
X41595085Y13538816D01*
X41059614Y13538816D01*
X41064701Y13626158D01*
X41034419Y13797899D01*
X40965346Y13958026D01*
X40861208Y14097909D01*
X40861205Y14097911D01*
X40861204Y14097913D01*
X40727618Y14210004D01*
X40727616Y14210005D01*
X40571780Y14288269D01*
X40571778Y14288270D01*
X40571777Y14288270D01*
X40402088Y14328487D01*
X40271438Y14328487D01*
X40170516Y14316692D01*
X40141680Y14313321D01*
X40141678Y14313320D01*
X39977810Y14253677D01*
X39977806Y14253675D01*
X39832111Y14157850D01*
X39832110Y14157849D01*
X39712436Y14031002D01*
X39712432Y14030997D01*
X39625240Y13879974D01*
X39625238Y13879971D01*
X39591748Y13768106D01*
X39553663Y13709528D01*
X39489955Y13680840D01*
X39447178Y13682379D01*
X39408187Y13690667D01*
X39265539Y13720987D01*
X39076247Y13720987D01*
X39043790Y13714089D01*
X38891090Y13681632D01*
X38891085Y13681630D01*
X38718163Y13604639D01*
X38718158Y13604636D01*
X38565022Y13493376D01*
X38438359Y13352702D01*
X38343714Y13188772D01*
X38343711Y13188765D01*
X38297529Y13046630D01*
X38285219Y13008743D01*
X38271024Y12873682D01*
X38267010Y12835487D01*
X38265433Y12820487D01*
X38285219Y12632231D01*
X38285220Y12632228D01*
X38343711Y12452210D01*
X38343714Y12452203D01*
X38438360Y12288271D01*
X38542356Y12172772D01*
X38546624Y12168032D01*
X38576854Y12105041D01*
X38568229Y12035705D01*
X38523487Y11982040D01*
X38504912Y11971782D01*
X38464165Y11953640D01*
X38464158Y11953636D01*
X38311022Y11842376D01*
X38184359Y11701702D01*
X38089714Y11537772D01*
X38089711Y11537765D01*
X38031220Y11357747D01*
X38031219Y11357743D01*
X38011433Y11169487D01*
X30011407Y11169487D01*
X29997426Y11193703D01*
X29870764Y11334375D01*
X29870332Y11334855D01*
X29840102Y11397846D01*
X29844550Y11456143D01*
X29896567Y11616231D01*
X29916353Y11804487D01*
X29896567Y11992743D01*
X29838072Y12172771D01*
X29830730Y12185487D01*
X35344433Y12185487D01*
X35364219Y11997231D01*
X35364220Y11997228D01*
X35422711Y11817210D01*
X35422714Y11817203D01*
X35517360Y11653271D01*
X35622603Y11536387D01*
X35644022Y11512599D01*
X35797158Y11401339D01*
X35797163Y11401336D01*
X35970085Y11324345D01*
X35970090Y11324343D01*
X36155247Y11284987D01*
X36155248Y11284987D01*
X36344537Y11284987D01*
X36344539Y11284987D01*
X36529696Y11324343D01*
X36702623Y11401336D01*
X36855764Y11512599D01*
X36982426Y11653271D01*
X37077072Y11817203D01*
X37135567Y11997231D01*
X37155353Y12185487D01*
X37135567Y12373743D01*
X37077072Y12553771D01*
X36982426Y12717703D01*
X36855764Y12858375D01*
X36841374Y12868830D01*
X36702627Y12969636D01*
X36702622Y12969639D01*
X36529700Y13046630D01*
X36529695Y13046632D01*
X36383893Y13077622D01*
X36344539Y13085987D01*
X36155247Y13085987D01*
X36122790Y13079089D01*
X35970090Y13046632D01*
X35970085Y13046630D01*
X35797163Y12969639D01*
X35797158Y12969636D01*
X35644022Y12858376D01*
X35517359Y12717702D01*
X35422714Y12553772D01*
X35422711Y12553765D01*
X35364289Y12373958D01*
X35364219Y12373743D01*
X35344433Y12185487D01*
X29830730Y12185487D01*
X29743426Y12336703D01*
X29616764Y12477375D01*
X29599934Y12489603D01*
X29463627Y12588636D01*
X29463622Y12588639D01*
X29290700Y12665630D01*
X29290695Y12665632D01*
X29111283Y12703766D01*
X29105539Y12704987D01*
X28916247Y12704987D01*
X28910503Y12703766D01*
X28731090Y12665632D01*
X28731085Y12665630D01*
X28558163Y12588639D01*
X28558158Y12588636D01*
X28405022Y12477376D01*
X28405021Y12477375D01*
X28368622Y12436950D01*
X28309135Y12400302D01*
X28239278Y12401633D01*
X28181230Y12440520D01*
X28169086Y12457924D01*
X28092429Y12590699D01*
X28092427Y12590702D01*
X27965763Y12731376D01*
X27812627Y12842636D01*
X27812622Y12842639D01*
X27639700Y12919630D01*
X27639695Y12919632D01*
X27493894Y12950622D01*
X27454539Y12958987D01*
X27265247Y12958987D01*
X27232790Y12952089D01*
X27080090Y12919632D01*
X27080085Y12919630D01*
X26907163Y12842639D01*
X26907158Y12842636D01*
X26754022Y12731376D01*
X26627359Y12590702D01*
X26532714Y12426772D01*
X26532711Y12426765D01*
X26474220Y12246747D01*
X26474219Y12246743D01*
X26454433Y12058487D01*
X22057127Y12058487D01*
X22047967Y12145643D01*
X21989472Y12325671D01*
X21894826Y12489603D01*
X21768164Y12630275D01*
X21719502Y12665630D01*
X21615027Y12741536D01*
X21615022Y12741539D01*
X21442100Y12818530D01*
X21442095Y12818532D01*
X21286263Y12851654D01*
X21256939Y12857887D01*
X21067647Y12857887D01*
X21038323Y12851654D01*
X20882490Y12818532D01*
X20882485Y12818530D01*
X20709563Y12741539D01*
X20709558Y12741536D01*
X20556422Y12630276D01*
X20429759Y12489602D01*
X20335114Y12325672D01*
X20335111Y12325665D01*
X20276620Y12145647D01*
X20276619Y12145643D01*
X20263706Y12022782D01*
X20257039Y11959343D01*
X20256833Y11957387D01*
X9955312Y11957387D01*
X9949591Y12022785D01*
X9949589Y12022790D01*
X9948131Y12029854D01*
X9948190Y12029867D01*
X9946559Y12037228D01*
X9946500Y12037214D01*
X9944834Y12044244D01*
X9944470Y12045244D01*
X9944100Y12047339D01*
X9943169Y12051270D01*
X9943397Y12051325D01*
X9936993Y12087651D01*
X9936993Y12641766D01*
X9953606Y12703766D01*
X9961652Y12717702D01*
X10013672Y12807803D01*
X10072167Y12987831D01*
X10091953Y13176087D01*
X10072167Y13364343D01*
X10013672Y13544371D01*
X9919026Y13708303D01*
X9792364Y13848975D01*
X9792363Y13848976D01*
X9639227Y13960236D01*
X9639222Y13960239D01*
X9526659Y14010356D01*
X10690494Y14010356D01*
X10710280Y13822100D01*
X10710281Y13822097D01*
X10768772Y13642079D01*
X10768775Y13642072D01*
X10863421Y13478140D01*
X10945331Y13387170D01*
X10990083Y13337468D01*
X11143219Y13226208D01*
X11143224Y13226205D01*
X11316146Y13149214D01*
X11316151Y13149212D01*
X11501308Y13109856D01*
X11501309Y13109856D01*
X11690598Y13109856D01*
X11690600Y13109856D01*
X11875757Y13149212D01*
X12048684Y13226205D01*
X12201825Y13337468D01*
X12219287Y13356863D01*
X12278770Y13393511D01*
X12348627Y13392183D01*
X12361873Y13387170D01*
X12510379Y13321050D01*
X12510382Y13321050D01*
X12510385Y13321048D01*
X12525774Y13317777D01*
X12587256Y13284588D01*
X12617928Y13234805D01*
X12654416Y13122504D01*
X12654419Y13122498D01*
X12749065Y12958566D01*
X12853447Y12842638D01*
X12875727Y12817894D01*
X13028863Y12706634D01*
X13028868Y12706631D01*
X13201790Y12629640D01*
X13201795Y12629638D01*
X13386952Y12590282D01*
X13386953Y12590282D01*
X13576242Y12590282D01*
X13576244Y12590282D01*
X13761401Y12629638D01*
X13934328Y12706631D01*
X14087469Y12817894D01*
X14214131Y12958566D01*
X14300661Y13108442D01*
X14351225Y13156654D01*
X14419832Y13169878D01*
X14484697Y13143910D01*
X14525226Y13086996D01*
X14531365Y13059406D01*
X14536219Y13013231D01*
X14536220Y13013228D01*
X14594711Y12833210D01*
X14594714Y12833203D01*
X14689360Y12669271D01*
X14805844Y12539903D01*
X14816022Y12528599D01*
X14969158Y12417339D01*
X14969163Y12417336D01*
X15142085Y12340345D01*
X15142090Y12340343D01*
X15327247Y12300987D01*
X15327248Y12300987D01*
X15516537Y12300987D01*
X15516539Y12300987D01*
X15701696Y12340343D01*
X15874623Y12417336D01*
X16027764Y12528599D01*
X16154426Y12669271D01*
X16249072Y12833203D01*
X16307567Y13013231D01*
X16327353Y13201487D01*
X16307567Y13389743D01*
X16249072Y13569771D01*
X16154426Y13733703D01*
X16027764Y13874375D01*
X16020055Y13879976D01*
X15874627Y13985636D01*
X15874622Y13985639D01*
X15701700Y14062630D01*
X15701695Y14062632D01*
X15535734Y14097907D01*
X15516539Y14101987D01*
X15327247Y14101987D01*
X15308052Y14097907D01*
X15142090Y14062632D01*
X15142085Y14062630D01*
X14969163Y13985639D01*
X14969158Y13985636D01*
X14816022Y13874376D01*
X14689358Y13733702D01*
X14602831Y13583831D01*
X14552264Y13535615D01*
X14483657Y13522392D01*
X14418792Y13548360D01*
X14378264Y13605275D01*
X14372125Y13632861D01*
X14367272Y13679038D01*
X14308777Y13859066D01*
X14214131Y14022998D01*
X14087469Y14163670D01*
X14087468Y14163671D01*
X14048357Y14192087D01*
X19393233Y14192087D01*
X19413019Y14003831D01*
X19413020Y14003828D01*
X19471511Y13823810D01*
X19471514Y13823803D01*
X19566160Y13659871D01*
X19675158Y13538817D01*
X19692822Y13519199D01*
X19845958Y13407939D01*
X19845963Y13407936D01*
X20018885Y13330945D01*
X20018890Y13330943D01*
X20204047Y13291587D01*
X20204048Y13291587D01*
X20393337Y13291587D01*
X20393339Y13291587D01*
X20578496Y13330943D01*
X20751423Y13407936D01*
X20904564Y13519199D01*
X21031226Y13659871D01*
X21125872Y13823803D01*
X21184367Y14003831D01*
X21204153Y14192087D01*
X21184367Y14380343D01*
X21125872Y14560371D01*
X21031226Y14724303D01*
X20904564Y14864975D01*
X20904563Y14864976D01*
X20751427Y14976236D01*
X20751422Y14976239D01*
X20578500Y15053230D01*
X20578495Y15053232D01*
X20432693Y15084222D01*
X20393339Y15092587D01*
X20204047Y15092587D01*
X20171590Y15085689D01*
X20018890Y15053232D01*
X20018885Y15053230D01*
X19845963Y14976239D01*
X19845958Y14976236D01*
X19692822Y14864976D01*
X19566159Y14724302D01*
X19471514Y14560372D01*
X19471511Y14560365D01*
X19422730Y14410231D01*
X19413019Y14380343D01*
X19393233Y14192087D01*
X14048357Y14192087D01*
X13934332Y14274931D01*
X13934327Y14274934D01*
X13761405Y14351925D01*
X13761406Y14351925D01*
X13746003Y14355199D01*
X13684522Y14388394D01*
X13653857Y14438171D01*
X13617369Y14550471D01*
X13617366Y14550477D01*
X13522721Y14714408D01*
X13396059Y14855080D01*
X13396058Y14855081D01*
X13242922Y14966341D01*
X13242917Y14966344D01*
X13069995Y15043335D01*
X13069990Y15043337D01*
X12924189Y15074327D01*
X12884834Y15082692D01*
X12695542Y15082692D01*
X12663085Y15075794D01*
X12510385Y15043337D01*
X12510380Y15043335D01*
X12337458Y14966344D01*
X12337453Y14966341D01*
X12184323Y14855086D01*
X12184318Y14855082D01*
X12166850Y14835682D01*
X12107362Y14799036D01*
X12037505Y14800369D01*
X12024267Y14805379D01*
X11875761Y14871499D01*
X11875756Y14871501D01*
X11729955Y14902491D01*
X11690600Y14910856D01*
X11501308Y14910856D01*
X11468851Y14903958D01*
X11316151Y14871501D01*
X11316146Y14871499D01*
X11143224Y14794508D01*
X11143219Y14794505D01*
X10990083Y14683245D01*
X10863420Y14542571D01*
X10768775Y14378641D01*
X10768772Y14378634D01*
X10710281Y14198616D01*
X10710280Y14198612D01*
X10690494Y14010356D01*
X9526659Y14010356D01*
X9466300Y14037230D01*
X9466295Y14037232D01*
X9320494Y14068222D01*
X9281139Y14076587D01*
X9091847Y14076587D01*
X9059390Y14069689D01*
X8906690Y14037232D01*
X8906685Y14037230D01*
X8733763Y13960239D01*
X8733758Y13960236D01*
X8580622Y13848976D01*
X8453959Y13708302D01*
X8359314Y13544372D01*
X8359311Y13544365D01*
X8300820Y13364347D01*
X8300819Y13364343D01*
X8281033Y13176087D01*
X8300819Y12987831D01*
X8300820Y12987828D01*
X8359311Y12807810D01*
X8359314Y12807803D01*
X8409259Y12721295D01*
X8419380Y12703766D01*
X8435993Y12641766D01*
X8435993Y11956793D01*
X8434684Y11938824D01*
X8431203Y11915062D01*
X8435757Y11863023D01*
X8435993Y11857617D01*
X8435993Y11848627D01*
X8416308Y11781588D01*
X8363504Y11735833D01*
X8294346Y11725889D01*
X8230790Y11754914D01*
X8145228Y11829055D01*
X8145224Y11829057D01*
X8014356Y11888824D01*
X7955088Y11906227D01*
X7947313Y11908510D01*
X7947309Y11908511D01*
X7804893Y11928987D01*
X7804891Y11928987D01*
X7190626Y11928987D01*
X7123587Y11948672D01*
X7077832Y12001476D01*
X7067305Y12040025D01*
X7066862Y12044244D01*
X7050918Y12195943D01*
X6992423Y12375971D01*
X6897777Y12539903D01*
X6771115Y12680575D01*
X6771114Y12680576D01*
X6617978Y12791836D01*
X6617973Y12791839D01*
X6445051Y12868830D01*
X6445046Y12868832D01*
X6299245Y12899822D01*
X6259890Y12908187D01*
X6070598Y12908187D01*
X6038141Y12901289D01*
X5885441Y12868832D01*
X5885436Y12868830D01*
X5712514Y12791839D01*
X5712509Y12791836D01*
X5559373Y12680576D01*
X5432710Y12539902D01*
X5338065Y12375972D01*
X5338062Y12375965D01*
X5287251Y12219583D01*
X5279570Y12195943D01*
X5263626Y12044244D01*
X5263183Y12040025D01*
X5236598Y11975411D01*
X5179301Y11935426D01*
X5139862Y11928987D01*
X4496893Y11928987D01*
X4496884Y11928987D01*
X4496883Y11928986D01*
X4389442Y11917435D01*
X4389430Y11917433D01*
X4337920Y11906227D01*
X4235395Y11872104D01*
X4235389Y11872101D01*
X4114355Y11794316D01*
X4114344Y11794308D01*
X4061552Y11748564D01*
X3967327Y11639825D01*
X3962533Y11632364D01*
X3961416Y11633082D01*
X3921649Y11587186D01*
X3854610Y11567500D01*
X3827341Y11567500D01*
X3715082Y11552071D01*
X3715079Y11552070D01*
X3576283Y11491783D01*
X3458889Y11396276D01*
X3371623Y11272648D01*
X3371621Y11272645D01*
X3320946Y11130061D01*
X3320946Y11130058D01*
X3310619Y10979082D01*
X3310619Y10979079D01*
X3341405Y10830922D01*
X3341407Y10830917D01*
X3341408Y10830915D01*
X3411029Y10696553D01*
X3411031Y10696551D01*
X3411032Y10696549D01*
X3514318Y10585957D01*
X3514320Y10585956D01*
X3643618Y10507328D01*
X3776849Y10469999D01*
X3836090Y10432958D01*
X3865902Y10369768D01*
X3867393Y10350598D01*
X3867393Y7681128D01*
X3847708Y7614089D01*
X3794904Y7568334D01*
X3760279Y7558283D01*
X3715081Y7552071D01*
X3715079Y7552070D01*
X3576283Y7491783D01*
X3458889Y7396276D01*
X3371623Y7272648D01*
X3371621Y7272645D01*
X3320946Y7130061D01*
X3320946Y7130058D01*
X3310619Y6979082D01*
X3310619Y6979079D01*
X3341405Y6830922D01*
X3341407Y6830917D01*
X3341408Y6830915D01*
X3411029Y6696553D01*
X3411031Y6696551D01*
X3411032Y6696549D01*
X3514318Y6585957D01*
X3514320Y6585956D01*
X3643618Y6507328D01*
X3776849Y6469999D01*
X3836090Y6432958D01*
X3865902Y6369768D01*
X3867393Y6350599D01*
X3867393Y4308487D01*
X3867394Y4308478D01*
X3878945Y4201037D01*
X3878947Y4201025D01*
X3890153Y4149515D01*
X3924276Y4046990D01*
X3924279Y4046984D01*
X4002064Y3925950D01*
X4002072Y3925939D01*
X4047816Y3873147D01*
X4047819Y3873144D01*
X4047823Y3873140D01*
X4156557Y3778920D01*
X4156560Y3778919D01*
X4156561Y3778918D01*
X4287429Y3719151D01*
X4287430Y3719151D01*
X4287434Y3719149D01*
X4354473Y3699464D01*
X4354477Y3699463D01*
X4496893Y3678987D01*
X7054704Y3678987D01*
X7121743Y3659302D01*
X7167498Y3606498D01*
X7177442Y3537340D01*
X7148417Y3473784D01*
X7142385Y3467306D01*
X6443969Y2768892D01*
X6382646Y2735407D01*
X6367097Y2733045D01*
X6241596Y2722064D01*
X6241586Y2722062D01*
X6013344Y2660906D01*
X6013335Y2660902D01*
X5799171Y2561036D01*
X5799169Y2561035D01*
X5605597Y2425495D01*
X5438505Y2258403D01*
X5308575Y2072842D01*
X5253998Y2029217D01*
X5184500Y2022023D01*
X5122145Y2053546D01*
X5105425Y2072842D01*
X4975494Y2258403D01*
X4808402Y2425494D01*
X4808395Y2425499D01*
X4614834Y2561033D01*
X4614830Y2561035D01*
X4599289Y2568282D01*
X4400663Y2660903D01*
X4400659Y2660904D01*
X4400655Y2660906D01*
X4172413Y2722062D01*
X4172403Y2722064D01*
X3937001Y2742659D01*
X3936999Y2742659D01*
X3701596Y2722064D01*
X3701586Y2722062D01*
X3473344Y2660906D01*
X3473335Y2660902D01*
X3259171Y2561036D01*
X3259169Y2561035D01*
X3065597Y2425495D01*
X2898505Y2258403D01*
X2762965Y2064831D01*
X2762964Y2064829D01*
X2663098Y1850665D01*
X2663094Y1850656D01*
X2601938Y1622414D01*
X2601936Y1622404D01*
X2581341Y1387001D01*
X2581341Y1387000D01*
X2601936Y1151597D01*
X2601938Y1151587D01*
X2663094Y923345D01*
X2663096Y923341D01*
X2663097Y923337D01*
X2742801Y752412D01*
X2762965Y709170D01*
X2762967Y709166D01*
X2871281Y554479D01*
X2898504Y515600D01*
X2898506Y515598D01*
X3065597Y348507D01*
X3065603Y348502D01*
X3240447Y226075D01*
X3284072Y171498D01*
X3291266Y102000D01*
X3259743Y39645D01*
X3199513Y4231D01*
X3169324Y500D01*
X124500Y500D01*
X57461Y20185D01*
X11706Y72989D01*
X500Y124500D01*
X500Y3676487D01*
X419433Y3676487D01*
X439219Y3488231D01*
X439220Y3488228D01*
X497711Y3308210D01*
X497714Y3308203D01*
X592360Y3144271D01*
X706710Y3017273D01*
X719022Y3003599D01*
X872158Y2892339D01*
X872163Y2892336D01*
X1045085Y2815345D01*
X1045090Y2815343D01*
X1230247Y2775987D01*
X1230248Y2775987D01*
X1419537Y2775987D01*
X1419539Y2775987D01*
X1604696Y2815343D01*
X1777623Y2892336D01*
X1930764Y3003599D01*
X2057426Y3144271D01*
X2152072Y3308203D01*
X2210567Y3488231D01*
X2230353Y3676487D01*
X2210567Y3864743D01*
X2152072Y4044771D01*
X2057426Y4208703D01*
X1930764Y4349375D01*
X1898601Y4372743D01*
X1777627Y4460636D01*
X1777622Y4460639D01*
X1604700Y4537630D01*
X1604695Y4537632D01*
X1458894Y4568622D01*
X1419539Y4576987D01*
X1230247Y4576987D01*
X1197790Y4570089D01*
X1045090Y4537632D01*
X1045085Y4537630D01*
X872163Y4460639D01*
X872158Y4460636D01*
X719022Y4349376D01*
X592359Y4208702D01*
X497714Y4044772D01*
X497711Y4044765D01*
X439220Y3864747D01*
X439219Y3864743D01*
X419433Y3676487D01*
X500Y3676487D01*
X500Y5780254D01*
X20185Y5847293D01*
X72989Y5893048D01*
X142147Y5902992D01*
X205703Y5873967D01*
X237780Y5830689D01*
X284076Y5726703D01*
X320111Y5677106D01*
X398431Y5569308D01*
X398432Y5569307D01*
X398433Y5569306D01*
X398435Y5569303D01*
X472260Y5502832D01*
X543008Y5439130D01*
X652703Y5375798D01*
X711488Y5341858D01*
X711489Y5341857D01*
X711491Y5341857D01*
X711492Y5341856D01*
X896518Y5281738D01*
X1041496Y5266500D01*
X1041501Y5266500D01*
X1988499Y5266500D01*
X1988504Y5266500D01*
X2133482Y5281738D01*
X2318508Y5341856D01*
X2486992Y5439130D01*
X2625424Y5563775D01*
X2631564Y5569303D01*
X2631564Y5569305D01*
X2631569Y5569308D01*
X2745922Y5726701D01*
X2825051Y5904429D01*
X2865500Y6094726D01*
X2865500Y6289274D01*
X2825051Y6479571D01*
X2754590Y6637831D01*
X2745923Y6657298D01*
X2678143Y6750588D01*
X2631569Y6814692D01*
X2631566Y6814695D01*
X2631564Y6814698D01*
X2537354Y6899524D01*
X2486992Y6944870D01*
X2427735Y6979082D01*
X2318511Y7042143D01*
X2318510Y7042144D01*
X2133483Y7102262D01*
X2109318Y7104802D01*
X1988504Y7117500D01*
X1041496Y7117500D01*
X937940Y7106616D01*
X896516Y7102262D01*
X711489Y7042144D01*
X711488Y7042143D01*
X543009Y6944871D01*
X398435Y6814698D01*
X398433Y6814695D01*
X284076Y6657298D01*
X237780Y6553312D01*
X192530Y6500075D01*
X125681Y6479753D01*
X58457Y6498798D01*
X12201Y6551164D01*
X500Y6603747D01*
X500Y11413649D01*
X20185Y11480688D01*
X72989Y11526443D01*
X142147Y11536387D01*
X205703Y11507362D01*
X240780Y11456717D01*
X262114Y11399113D01*
X287900Y11357743D01*
X369745Y11226433D01*
X369749Y11226428D01*
X460346Y11131120D01*
X509941Y11078947D01*
X638344Y10989576D01*
X676949Y10962706D01*
X676950Y10962706D01*
X676951Y10962705D01*
X863942Y10882460D01*
X1063259Y10841500D01*
X1915743Y10841500D01*
X2067439Y10856926D01*
X2261579Y10917838D01*
X2261580Y10917839D01*
X2261588Y10917841D01*
X2439502Y11016591D01*
X2593895Y11149134D01*
X2718448Y11310042D01*
X2808060Y11492729D01*
X2859063Y11689715D01*
X2869369Y11892936D01*
X2838556Y12094071D01*
X2767886Y12284887D01*
X2660252Y12457571D01*
X2568812Y12553765D01*
X2520061Y12605051D01*
X2520060Y12605052D01*
X2520059Y12605053D01*
X2378234Y12703766D01*
X2353050Y12721295D01*
X2166056Y12801541D01*
X1966741Y12842500D01*
X1114258Y12842500D01*
X1114257Y12842500D01*
X962560Y12827075D01*
X768420Y12766163D01*
X768405Y12766156D01*
X590500Y12667411D01*
X590495Y12667408D01*
X436106Y12534868D01*
X436104Y12534866D01*
X311554Y12373963D01*
X311553Y12373960D01*
X311552Y12373959D01*
X311552Y12373958D01*
X249151Y12246743D01*
X235828Y12219583D01*
X188631Y12168064D01*
X121073Y12150239D01*
X54603Y12171769D01*
X10325Y12225817D01*
X500Y12274192D01*
X500Y17909500D01*
X20185Y17976539D01*
X72989Y18022294D01*
X124500Y18033500D01*
X3199038Y18033500D01*
X3266077Y18013815D01*
G37*
%TD.AperFunction*%
%TD*%
%TA.AperFunction,Conductor*%
%TO.N,VBUS*%
G36*
X5491348Y11403802D02*
G01*
X5516459Y11382459D01*
X5559367Y11334804D01*
X5559374Y11334798D01*
X5712509Y11223539D01*
X5712514Y11223536D01*
X5885436Y11146545D01*
X5885441Y11146543D01*
X6070598Y11107187D01*
X6070599Y11107187D01*
X6259888Y11107187D01*
X6259890Y11107187D01*
X6445047Y11146543D01*
X6617974Y11223536D01*
X6771115Y11334799D01*
X6771120Y11334804D01*
X6814029Y11382459D01*
X6873515Y11419108D01*
X6906179Y11423487D01*
X7804893Y11423487D01*
X7871932Y11403802D01*
X7917687Y11350998D01*
X7928893Y11299487D01*
X7928893Y10381826D01*
X7909208Y10314787D01*
X7877779Y10281508D01*
X7753720Y10191374D01*
X7627059Y10050702D01*
X7532414Y9886772D01*
X7532411Y9886765D01*
X7473920Y9706747D01*
X7473919Y9706743D01*
X7454133Y9518487D01*
X7473919Y9330231D01*
X7473920Y9330228D01*
X7532411Y9150210D01*
X7532414Y9150203D01*
X7627060Y8986271D01*
X7753722Y8845599D01*
X7877780Y8755466D01*
X7920444Y8700139D01*
X7928893Y8655150D01*
X7928893Y6428187D01*
X7909208Y6361148D01*
X7856404Y6315393D01*
X7815151Y6306419D01*
X7815315Y6304867D01*
X7808848Y6304188D01*
X7623690Y6264832D01*
X7623685Y6264830D01*
X7450763Y6187839D01*
X7450758Y6187836D01*
X7297622Y6076576D01*
X7170959Y5935902D01*
X7076314Y5771972D01*
X7076311Y5771965D01*
X7017820Y5591947D01*
X7017819Y5591943D01*
X6998033Y5403687D01*
X7017819Y5215431D01*
X7017820Y5215428D01*
X7076311Y5035410D01*
X7076314Y5035403D01*
X7170960Y4871471D01*
X7297621Y4730799D01*
X7297622Y4730799D01*
X7450758Y4619539D01*
X7450763Y4619536D01*
X7623685Y4542545D01*
X7623690Y4542543D01*
X7808847Y4503187D01*
X7808848Y4503187D01*
X7815315Y4502507D01*
X7815072Y4500199D01*
X7871932Y4483502D01*
X7917687Y4430698D01*
X7928893Y4379187D01*
X7928893Y4308487D01*
X7909208Y4241448D01*
X7856404Y4195693D01*
X7804893Y4184487D01*
X4496893Y4184487D01*
X4429854Y4204172D01*
X4384099Y4256976D01*
X4372893Y4308487D01*
X4372893Y6780818D01*
X4380053Y6822344D01*
X4383099Y6830915D01*
X4409054Y6903944D01*
X4419381Y7054921D01*
X4403768Y7130056D01*
X4388594Y7203079D01*
X4388592Y7203083D01*
X4388592Y7203085D01*
X4386794Y7206555D01*
X4372893Y7263601D01*
X4372893Y7384887D01*
X5067633Y7384887D01*
X5087419Y7196631D01*
X5087420Y7196628D01*
X5145911Y7016610D01*
X5145914Y7016603D01*
X5240560Y6852671D01*
X5367221Y6712000D01*
X5367222Y6711999D01*
X5520358Y6600739D01*
X5520363Y6600736D01*
X5693285Y6523745D01*
X5693290Y6523743D01*
X5878447Y6484387D01*
X5878448Y6484387D01*
X6067737Y6484387D01*
X6067739Y6484387D01*
X6252896Y6523743D01*
X6425823Y6600736D01*
X6578964Y6711999D01*
X6705626Y6852671D01*
X6800272Y7016603D01*
X6858767Y7196631D01*
X6878553Y7384887D01*
X6858767Y7573143D01*
X6800272Y7753171D01*
X6705626Y7917103D01*
X6674783Y7951357D01*
X6644554Y8014347D01*
X6653178Y8083683D01*
X6694047Y8134646D01*
X6756764Y8180212D01*
X6883426Y8320884D01*
X6978072Y8484816D01*
X7036567Y8664844D01*
X7056353Y8853100D01*
X7036567Y9041356D01*
X6978072Y9221384D01*
X6944227Y9280004D01*
X6927756Y9347899D01*
X6944227Y9403996D01*
X6978072Y9462616D01*
X7036567Y9642644D01*
X7056353Y9830900D01*
X7036567Y10019156D01*
X6978072Y10199184D01*
X6883426Y10363116D01*
X6756764Y10503788D01*
X6703867Y10542220D01*
X6603627Y10615049D01*
X6603622Y10615052D01*
X6430700Y10692043D01*
X6430695Y10692045D01*
X6284893Y10723035D01*
X6245539Y10731400D01*
X6056247Y10731400D01*
X6023790Y10724502D01*
X5871090Y10692045D01*
X5871085Y10692043D01*
X5698163Y10615052D01*
X5698158Y10615049D01*
X5545022Y10503789D01*
X5418359Y10363115D01*
X5323714Y10199185D01*
X5323711Y10199178D01*
X5275469Y10050703D01*
X5265219Y10019156D01*
X5245433Y9830900D01*
X5265219Y9642644D01*
X5265220Y9642641D01*
X5323711Y9462623D01*
X5323712Y9462621D01*
X5323714Y9462616D01*
X5357555Y9404001D01*
X5357556Y9404000D01*
X5374028Y9336100D01*
X5357556Y9280003D01*
X5323714Y9221387D01*
X5323713Y9221383D01*
X5265220Y9041360D01*
X5265219Y9041356D01*
X5245433Y8853100D01*
X5265219Y8664844D01*
X5265220Y8664841D01*
X5323711Y8484823D01*
X5323714Y8484816D01*
X5418359Y8320885D01*
X5449201Y8286632D01*
X5479432Y8223640D01*
X5470807Y8154305D01*
X5429938Y8103341D01*
X5367220Y8057774D01*
X5240559Y7917102D01*
X5145914Y7753172D01*
X5145911Y7753165D01*
X5087420Y7573147D01*
X5087419Y7573143D01*
X5067633Y7384887D01*
X4372893Y7384887D01*
X4372893Y10780818D01*
X4380053Y10822344D01*
X4383099Y10830915D01*
X4409054Y10903944D01*
X4419381Y11054921D01*
X4400342Y11146543D01*
X4388594Y11203079D01*
X4388592Y11203083D01*
X4388592Y11203085D01*
X4386794Y11206555D01*
X4372893Y11263601D01*
X4372893Y11299487D01*
X4392578Y11366526D01*
X4445382Y11412281D01*
X4496893Y11423487D01*
X5424309Y11423487D01*
X5491348Y11403802D01*
G37*
%TD.AperFunction*%
%TD*%
M02*
