%TF.GenerationSoftware,KiCad,Pcbnew,(7.0.0-0)*%
%TF.CreationDate,2023-03-26T13:07:46-04:00*%
%TF.ProjectId,mini_arduino_clone,6d696e69-5f61-4726-9475-696e6f5f636c,rev?*%
%TF.SameCoordinates,Original*%
%TF.FileFunction,Legend,Top*%
%TF.FilePolarity,Positive*%
%FSLAX46Y46*%
G04 Gerber Fmt 4.6, Leading zero omitted, Abs format (unit mm)*
G04 Created by KiCad (PCBNEW (7.0.0-0)) date 2023-03-26 13:07:46*
%MOMM*%
%LPD*%
G01*
G04 APERTURE LIST*
G04 Aperture macros list*
%AMRoundRect*
0 Rectangle with rounded corners*
0 $1 Rounding radius*
0 $2 $3 $4 $5 $6 $7 $8 $9 X,Y pos of 4 corners*
0 Add a 4 corners polygon primitive as box body*
4,1,4,$2,$3,$4,$5,$6,$7,$8,$9,$2,$3,0*
0 Add four circle primitives for the rounded corners*
1,1,$1+$1,$2,$3*
1,1,$1+$1,$4,$5*
1,1,$1+$1,$6,$7*
1,1,$1+$1,$8,$9*
0 Add four rect primitives between the rounded corners*
20,1,$1+$1,$2,$3,$4,$5,0*
20,1,$1+$1,$4,$5,$6,$7,0*
20,1,$1+$1,$6,$7,$8,$9,0*
20,1,$1+$1,$8,$9,$2,$3,0*%
%AMRotRect*
0 Rectangle, with rotation*
0 The origin of the aperture is its center*
0 $1 length*
0 $2 width*
0 $3 Rotation angle, in degrees counterclockwise*
0 Add horizontal line*
21,1,$1,$2,0,0,$3*%
%AMFreePoly0*
4,1,9,1.050000,0.350000,0.550000,0.000000,0.550000,-0.400000,0.800000,-0.650000,0.800000,-0.800000,-1.050000,-0.800000,-1.050000,0.800000,1.050000,0.800000,1.050000,0.350000,1.050000,0.350000,$1*%
%AMFreePoly1*
4,1,9,1.050000,-0.800000,-0.800000,-0.800000,-0.800000,-0.650000,-0.550000,-0.400000,-0.550000,0.000000,-1.050000,0.350000,-1.050000,0.800000,1.050000,0.800000,1.050000,-0.800000,1.050000,-0.800000,$1*%
G04 Aperture macros list end*
%ADD10C,0.150000*%
%ADD11C,0.120000*%
%ADD12RotRect,1.600000X0.550000X135.000000*%
%ADD13RotRect,1.600000X0.550000X225.000000*%
%ADD14RoundRect,0.225000X0.335876X0.017678X0.017678X0.335876X-0.335876X-0.017678X-0.017678X-0.335876X0*%
%ADD15RoundRect,0.225000X0.225000X0.250000X-0.225000X0.250000X-0.225000X-0.250000X0.225000X-0.250000X0*%
%ADD16RoundRect,0.218750X0.256250X-0.218750X0.256250X0.218750X-0.256250X0.218750X-0.256250X-0.218750X0*%
%ADD17RoundRect,0.225000X-0.017678X0.335876X-0.335876X0.017678X0.017678X-0.335876X0.335876X-0.017678X0*%
%ADD18C,0.600000*%
%ADD19R,1.350000X0.400000*%
%ADD20FreePoly0,270.000000*%
%ADD21O,1.700000X1.000000*%
%ADD22R,1.900000X1.900000*%
%ADD23O,1.700000X0.850000*%
%ADD24FreePoly1,270.000000*%
%ADD25RoundRect,0.225000X-0.335876X-0.017678X-0.017678X-0.335876X0.335876X0.017678X0.017678X0.335876X0*%
%ADD26RoundRect,0.250000X-0.250000X0.250000X-0.250000X-0.250000X0.250000X-0.250000X0.250000X0.250000X0*%
%ADD27RoundRect,0.137500X-0.137500X0.712500X-0.137500X-0.712500X0.137500X-0.712500X0.137500X0.712500X0*%
%ADD28RoundRect,0.225000X-0.225000X-0.250000X0.225000X-0.250000X0.225000X0.250000X-0.225000X0.250000X0*%
%ADD29RoundRect,0.062500X-0.062500X0.337500X-0.062500X-0.337500X0.062500X-0.337500X0.062500X0.337500X0*%
%ADD30RoundRect,0.062500X-0.337500X0.062500X-0.337500X-0.062500X0.337500X-0.062500X0.337500X0.062500X0*%
%ADD31R,3.350000X3.350000*%
%ADD32RoundRect,0.225000X-0.250000X0.225000X-0.250000X-0.225000X0.250000X-0.225000X0.250000X0.225000X0*%
%ADD33RoundRect,0.200000X-0.275000X0.200000X-0.275000X-0.200000X0.275000X-0.200000X0.275000X0.200000X0*%
%ADD34RotRect,1.400000X1.200000X315.000000*%
%ADD35R,2.000000X1.100000*%
%ADD36R,0.800000X0.800000*%
%ADD37RoundRect,0.150000X-0.512500X-0.150000X0.512500X-0.150000X0.512500X0.150000X-0.512500X0.150000X0*%
%ADD38C,0.991000*%
%ADD39C,0.787000*%
%ADD40RoundRect,0.250000X-0.375000X-0.625000X0.375000X-0.625000X0.375000X0.625000X-0.375000X0.625000X0*%
%ADD41RoundRect,0.225000X0.017678X-0.335876X0.335876X-0.017678X-0.017678X0.335876X-0.335876X0.017678X0*%
%ADD42RoundRect,0.200000X0.200000X0.275000X-0.200000X0.275000X-0.200000X-0.275000X0.200000X-0.275000X0*%
%ADD43RoundRect,0.218750X0.218750X0.256250X-0.218750X0.256250X-0.218750X-0.256250X0.218750X-0.256250X0*%
%ADD44R,1.700000X1.700000*%
%ADD45O,1.700000X1.700000*%
%ADD46C,0.800000*%
G04 APERTURE END LIST*
D10*
%TO.C,U101*%
X28041417Y3890476D02*
X28200516Y4049575D01*
X28041417Y3890476D02*
X27811607Y4120286D01*
X28200516Y4049575D02*
X29208143Y3041948D01*
X33167941Y9017000D02*
X32938131Y8787190D01*
X33167941Y9017000D02*
X32938131Y9246810D01*
X22914893Y9017000D02*
X23144703Y8787190D01*
X22914893Y9017000D02*
X23144703Y9246810D01*
X28041417Y14143524D02*
X28271227Y13913714D01*
X28041417Y14143524D02*
X27811607Y13913714D01*
D11*
%TO.C,C107*%
X37131674Y9820457D02*
X36932863Y10019268D01*
X37852923Y10541706D02*
X37654112Y10740517D01*
%TO.C,C102*%
X4259473Y3039487D02*
X3978313Y3039487D01*
X4259473Y4059487D02*
X3978313Y4059487D01*
%TO.C,D101*%
X17353893Y7207487D02*
X18823893Y7207487D01*
X18823893Y7207487D02*
X18823893Y9492487D01*
X17353893Y9492487D02*
X17353893Y7207487D01*
%TO.C,C101*%
X23959123Y12965668D02*
X23760312Y12766857D01*
X23237874Y13686917D02*
X23039063Y13488106D01*
%TO.C,J101*%
X3065000Y12862000D02*
X575000Y12862000D01*
X5505000Y10717000D02*
X5505000Y9917000D01*
X5055000Y10317000D02*
X5505000Y10717000D01*
X5505000Y9917000D02*
X5055000Y10317000D01*
X3065000Y5172000D02*
X575000Y5172000D01*
%TO.C,C103*%
X33971112Y5406517D02*
X34169923Y5207706D01*
X33249863Y4685268D02*
X33448674Y4486457D01*
%TO.C,SW101*%
X8479093Y10956487D02*
X8039093Y10956487D01*
X6779093Y10956487D02*
X6779093Y6556487D01*
X9739093Y9756487D02*
X9739093Y10956487D01*
X9739093Y6556487D02*
X9739093Y7756487D01*
X8039093Y6556487D02*
X8479093Y6556487D01*
%TO.C,C201*%
X11598313Y6091487D02*
X11879473Y6091487D01*
X11598313Y5071487D02*
X11879473Y5071487D01*
%TO.C,U301*%
X10549893Y12165487D02*
X11274893Y12165487D01*
X15769893Y11440487D02*
X15769893Y12165487D01*
X10549893Y11440487D02*
X10549893Y12165487D01*
X15769893Y7670487D02*
X15769893Y6945487D01*
X10549893Y7670487D02*
X10549893Y6945487D01*
X15769893Y6945487D02*
X15044893Y6945487D01*
X10549893Y6945487D02*
X11274893Y6945487D01*
%TO.C,C303*%
X6686293Y14078667D02*
X6686293Y13797507D01*
X5666293Y14078667D02*
X5666293Y13797507D01*
%TO.C,R106*%
X1567993Y15496145D02*
X1567993Y15021629D01*
X522993Y15496145D02*
X522993Y15021629D01*
%TO.C,Y101*%
X36764406Y9686427D02*
X34430953Y7352974D01*
X34430953Y7352974D02*
X37259380Y4524547D01*
%TO.C,D1*%
X14132893Y2866487D02*
X14132893Y4486487D01*
X14132893Y2866487D02*
X10892893Y2866487D01*
X14132893Y4486487D02*
X10892893Y4486487D01*
%TO.C,R104*%
X18611393Y11977745D02*
X18611393Y11503229D01*
X17566393Y11977745D02*
X17566393Y11503229D01*
%TO.C,U201*%
X16310893Y6252487D02*
X14510893Y6252487D01*
X16310893Y6252487D02*
X17110893Y6252487D01*
X16310893Y3132487D02*
X15510893Y3132487D01*
X16310893Y3132487D02*
X17110893Y3132487D01*
%TO.C,C108*%
X15662313Y14981487D02*
X15943473Y14981487D01*
X15662313Y13961487D02*
X15943473Y13961487D01*
%TO.C,C104*%
X22612923Y13829268D02*
X22414112Y13630457D01*
X21891674Y14550517D02*
X21692863Y14351706D01*
%TO.C,C302*%
X8552073Y11624687D02*
X8270913Y11624687D01*
X8552073Y12644687D02*
X8270913Y12644687D01*
%TO.C,C301*%
X8552073Y13682087D02*
X8270913Y13682087D01*
X8552073Y14702087D02*
X8270913Y14702087D01*
%TO.C,D102*%
X19004893Y7207487D02*
X20474893Y7207487D01*
X20474893Y7207487D02*
X20474893Y9492487D01*
X19004893Y9492487D02*
X19004893Y7207487D01*
%TO.C,F101*%
X7326829Y4840487D02*
X8530957Y4840487D01*
X7326829Y3020487D02*
X8530957Y3020487D01*
%TO.C,C105*%
X38583863Y5334706D02*
X38782674Y5533517D01*
X39305112Y4613457D02*
X39503923Y4812268D01*
%TO.C,C202*%
X19868893Y4960067D02*
X19868893Y4678907D01*
X18848893Y4960067D02*
X18848893Y4678907D01*
%TO.C,R105*%
X20262393Y11977745D02*
X20262393Y11503229D01*
X19217393Y11977745D02*
X19217393Y11503229D01*
%TO.C,R103*%
X41719551Y3712787D02*
X41245035Y3712787D01*
X41719551Y4757787D02*
X41245035Y4757787D01*
%TO.C,C106*%
X32904312Y4339717D02*
X33103123Y4140906D01*
X32183063Y3618468D02*
X32381874Y3419657D01*
%TO.C,D103*%
X4867293Y13761887D02*
X4867293Y15231887D01*
X4867293Y15231887D02*
X2582293Y15231887D01*
X2582293Y13761887D02*
X4867293Y13761887D01*
%TD*%
%LPC*%
D12*
%TO.C,U101*%
X29066721Y4031896D03*
X29632406Y4597582D03*
X30198092Y5163267D03*
X30763777Y5728952D03*
X31329463Y6294638D03*
X31895148Y6860323D03*
X32460833Y7426009D03*
X33026519Y7991694D03*
D13*
X33026519Y10042304D03*
X32460833Y10607989D03*
X31895148Y11173675D03*
X31329463Y11739360D03*
X30763777Y12305046D03*
X30198092Y12870731D03*
X29632406Y13436416D03*
X29066721Y14002102D03*
D12*
X27016111Y14002102D03*
X26450426Y13436416D03*
X25884740Y12870731D03*
X25319055Y12305046D03*
X24753369Y11739360D03*
X24187684Y11173675D03*
X23621999Y10607989D03*
X23056313Y10042304D03*
D13*
X23056313Y7991694D03*
X23621999Y7426009D03*
X24187684Y6860323D03*
X24753369Y6294638D03*
X25319055Y5728952D03*
X25884740Y5163267D03*
X26450426Y4597582D03*
X27016111Y4031896D03*
%TD*%
D14*
%TO.C,C107*%
X37940901Y9732479D03*
X36844885Y10828495D03*
%TD*%
D15*
%TO.C,C102*%
X4893893Y3549487D03*
X3343893Y3549487D03*
%TD*%
D16*
%TO.C,D101*%
X18088893Y7904987D03*
X18088893Y9479987D03*
%TD*%
D17*
%TO.C,C101*%
X24047101Y13774895D03*
X22951085Y12678879D03*
%TD*%
D18*
%TO.C,J101*%
X3865000Y11017000D03*
X3865000Y7017000D03*
D19*
X4189999Y10316999D03*
X4189999Y9666999D03*
X4189999Y9016999D03*
X4189999Y8366999D03*
X4189999Y7716999D03*
D20*
X4065000Y12117000D03*
D21*
X1514999Y11841999D03*
D22*
X1514999Y10216999D03*
X1514999Y7816999D03*
D23*
X1514999Y6191999D03*
D24*
X4065000Y5917000D03*
%TD*%
D25*
%TO.C,C103*%
X33161885Y5494495D03*
X34257901Y4398479D03*
%TD*%
D26*
%TO.C,SW101*%
X9059093Y10756487D03*
X9059093Y6756487D03*
X7459093Y10756487D03*
X7459093Y6756487D03*
D27*
X9634093Y8756487D03*
%TD*%
D28*
%TO.C,C201*%
X10963893Y5581487D03*
X12513893Y5581487D03*
%TD*%
D29*
%TO.C,U301*%
X14659893Y12005487D03*
X14159893Y12005487D03*
X13659893Y12005487D03*
X13159893Y12005487D03*
X12659893Y12005487D03*
X12159893Y12005487D03*
X11659893Y12005487D03*
D30*
X10709893Y11055487D03*
X10709893Y10555487D03*
X10709893Y10055487D03*
X10709893Y9555487D03*
X10709893Y9055487D03*
X10709893Y8555487D03*
X10709893Y8055487D03*
D29*
X11659893Y7105487D03*
X12159893Y7105487D03*
X12659893Y7105487D03*
X13159893Y7105487D03*
X13659893Y7105487D03*
X14159893Y7105487D03*
X14659893Y7105487D03*
D30*
X15609893Y8055487D03*
X15609893Y8555487D03*
X15609893Y9055487D03*
X15609893Y9555487D03*
X15609893Y10055487D03*
X15609893Y10555487D03*
X15609893Y11055487D03*
D31*
X13159892Y9555486D03*
%TD*%
D32*
%TO.C,C303*%
X6176293Y14713087D03*
X6176293Y13163087D03*
%TD*%
D33*
%TO.C,R106*%
X1045493Y16083887D03*
X1045493Y14433887D03*
%TD*%
D34*
%TO.C,Y101*%
X35633034Y7282263D03*
X37188669Y5726628D03*
X38390750Y6928709D03*
X36835115Y8484344D03*
%TD*%
D35*
%TO.C,D1*%
X12872892Y3676486D03*
D36*
X10972892Y3676486D03*
%TD*%
D33*
%TO.C,R104*%
X18088893Y12565487D03*
X18088893Y10915487D03*
%TD*%
D37*
%TO.C,U201*%
X15173393Y5642487D03*
X15173393Y4692487D03*
X15173393Y3742487D03*
X17448393Y3742487D03*
X17448393Y5642487D03*
%TD*%
D28*
%TO.C,C108*%
X15027893Y14471487D03*
X16577893Y14471487D03*
%TD*%
D17*
%TO.C,C104*%
X22700901Y14638495D03*
X21604885Y13542479D03*
%TD*%
D15*
%TO.C,C302*%
X9186493Y12134687D03*
X7636493Y12134687D03*
%TD*%
%TO.C,C301*%
X9186493Y14192087D03*
X7636493Y14192087D03*
%TD*%
D16*
%TO.C,D102*%
X19739893Y7904987D03*
X19739893Y9479987D03*
%TD*%
D38*
%TO.C,J102*%
X41329893Y7994487D03*
X40314893Y13074487D03*
X42344893Y13074487D03*
D39*
X41964893Y9264487D03*
X40694893Y9264487D03*
X41964893Y10534487D03*
X40694893Y10534487D03*
X41964893Y11804487D03*
X40694893Y11804487D03*
%TD*%
D40*
%TO.C,F101*%
X6528893Y3930487D03*
X9328893Y3930487D03*
%TD*%
D41*
%TO.C,C105*%
X38495885Y4525479D03*
X39591901Y5621495D03*
%TD*%
D32*
%TO.C,C202*%
X19358893Y5594487D03*
X19358893Y4044487D03*
%TD*%
D33*
%TO.C,R105*%
X19739893Y12565487D03*
X19739893Y10915487D03*
%TD*%
D42*
%TO.C,R103*%
X42307293Y4235287D03*
X40657293Y4235287D03*
%TD*%
D25*
%TO.C,C106*%
X32095085Y4427695D03*
X33191101Y3331679D03*
%TD*%
D43*
%TO.C,D103*%
X4169793Y14496887D03*
X2594793Y14496887D03*
%TD*%
D44*
%TO.C,J103*%
X39496999Y16626999D03*
D45*
X36956999Y16626999D03*
X34416999Y16626999D03*
X31876999Y16626999D03*
X29336999Y16626999D03*
X26796999Y16626999D03*
X24256999Y16626999D03*
X21716999Y16626999D03*
X19176999Y16626999D03*
X16636999Y16626999D03*
X14096999Y16626999D03*
X11556999Y16626999D03*
X9016999Y16626999D03*
X6476999Y16626999D03*
X3936999Y16626999D03*
%TD*%
D44*
%TO.C,J104*%
X39496999Y1386999D03*
D45*
X36956999Y1386999D03*
X34416999Y1386999D03*
X31876999Y1386999D03*
X29336999Y1386999D03*
X26796999Y1386999D03*
X24256999Y1386999D03*
X21716999Y1386999D03*
X19176999Y1386999D03*
X16636999Y1386999D03*
X14096999Y1386999D03*
X11556999Y1386999D03*
X9016999Y1386999D03*
X6476999Y1386999D03*
X3936999Y1386999D03*
%TD*%
D46*
X20628893Y3676487D03*
X2086893Y3676487D03*
X7903493Y5403687D03*
X21162293Y11957387D03*
X16539493Y4641687D03*
X43920693Y1644487D03*
X20298693Y14192087D03*
X13135893Y9518487D03*
X29696693Y7118865D03*
X35995893Y11589568D03*
X10468893Y6597487D03*
X34569933Y6728047D03*
X40313893Y6597487D03*
X43920693Y16325687D03*
X5973093Y7384887D03*
X35437093Y4336887D03*
X34268693Y2965287D03*
X38662893Y12820487D03*
X6165244Y12007687D03*
X6023893Y10915487D03*
X6023893Y5962487D03*
X30661893Y7994487D03*
X1324893Y17138487D03*
X25200893Y14725487D03*
X39043893Y9010487D03*
X18088893Y13836487D03*
X13770893Y5962487D03*
X13770893Y5200487D03*
X42345893Y2787487D03*
X8359593Y9518487D03*
X15421893Y13201487D03*
X26666994Y8339403D03*
X11595954Y14010356D03*
X20628893Y4819487D03*
X9325893Y5454487D03*
X9186493Y13176087D03*
X6150893Y8853100D03*
X13481598Y13490782D03*
X12790188Y14182192D03*
X6150893Y9830900D03*
X43170393Y7867487D03*
X27359893Y12058487D03*
X43615893Y10534487D03*
X31119771Y14294365D03*
X29264893Y10661487D03*
X38916893Y11169487D03*
X26851893Y9518487D03*
X28763473Y8606810D03*
X30407893Y9261987D03*
X29010893Y11804487D03*
X25200893Y8121487D03*
X25806813Y7220390D03*
X21173993Y6028513D03*
X20456621Y6724487D03*
X24350993Y4184487D03*
X16844293Y9924887D03*
X18977893Y6826087D03*
X24882710Y3332892D03*
M02*
