%TF.GenerationSoftware,KiCad,Pcbnew,7.0.2-0*%
%TF.CreationDate,2023-05-15T20:56:50-04:00*%
%TF.ProjectId,mini_arduino_clone,6d696e69-5f61-4726-9475-696e6f5f636c,A*%
%TF.SameCoordinates,Original*%
%TF.FileFunction,Soldermask,Top*%
%TF.FilePolarity,Negative*%
%FSLAX46Y46*%
G04 Gerber Fmt 4.6, Leading zero omitted, Abs format (unit mm)*
G04 Created by KiCad (PCBNEW 7.0.2-0) date 2023-05-15 20:56:50*
%MOMM*%
%LPD*%
G01*
G04 APERTURE LIST*
G04 Aperture macros list*
%AMRoundRect*
0 Rectangle with rounded corners*
0 $1 Rounding radius*
0 $2 $3 $4 $5 $6 $7 $8 $9 X,Y pos of 4 corners*
0 Add a 4 corners polygon primitive as box body*
4,1,4,$2,$3,$4,$5,$6,$7,$8,$9,$2,$3,0*
0 Add four circle primitives for the rounded corners*
1,1,$1+$1,$2,$3*
1,1,$1+$1,$4,$5*
1,1,$1+$1,$6,$7*
1,1,$1+$1,$8,$9*
0 Add four rect primitives between the rounded corners*
20,1,$1+$1,$2,$3,$4,$5,0*
20,1,$1+$1,$4,$5,$6,$7,0*
20,1,$1+$1,$6,$7,$8,$9,0*
20,1,$1+$1,$8,$9,$2,$3,0*%
%AMRotRect*
0 Rectangle, with rotation*
0 The origin of the aperture is its center*
0 $1 length*
0 $2 width*
0 $3 Rotation angle, in degrees counterclockwise*
0 Add horizontal line*
21,1,$1,$2,0,0,$3*%
%AMFreePoly0*
4,1,9,1.050000,0.350000,0.550000,0.000000,0.550000,-0.400000,0.800000,-0.650000,0.800000,-0.800000,-1.050000,-0.800000,-1.050000,0.800000,1.050000,0.800000,1.050000,0.350000,1.050000,0.350000,$1*%
%AMFreePoly1*
4,1,9,1.050000,-0.800000,-0.800000,-0.800000,-0.800000,-0.650000,-0.550000,-0.400000,-0.550000,0.000000,-1.050000,0.350000,-1.050000,0.800000,1.050000,0.800000,1.050000,-0.800000,1.050000,-0.800000,$1*%
G04 Aperture macros list end*
%ADD10RoundRect,0.225000X0.225000X0.375000X-0.225000X0.375000X-0.225000X-0.375000X0.225000X-0.375000X0*%
%ADD11RotRect,1.600000X0.550000X135.000000*%
%ADD12RotRect,1.600000X0.550000X225.000000*%
%ADD13RoundRect,0.225000X0.335876X0.017678X0.017678X0.335876X-0.335876X-0.017678X-0.017678X-0.335876X0*%
%ADD14RoundRect,0.225000X0.225000X0.250000X-0.225000X0.250000X-0.225000X-0.250000X0.225000X-0.250000X0*%
%ADD15RoundRect,0.218750X0.256250X-0.218750X0.256250X0.218750X-0.256250X0.218750X-0.256250X-0.218750X0*%
%ADD16RoundRect,0.225000X-0.017678X0.335876X-0.335876X0.017678X0.017678X-0.335876X0.335876X-0.017678X0*%
%ADD17C,0.600000*%
%ADD18R,1.350000X0.400000*%
%ADD19FreePoly0,270.000000*%
%ADD20O,1.700000X1.000000*%
%ADD21R,1.900000X1.900000*%
%ADD22O,1.700000X0.850000*%
%ADD23FreePoly1,270.000000*%
%ADD24RoundRect,0.225000X-0.335876X-0.017678X-0.017678X-0.335876X0.335876X0.017678X0.017678X0.335876X0*%
%ADD25RoundRect,0.250000X-0.250000X0.250000X-0.250000X-0.250000X0.250000X-0.250000X0.250000X0.250000X0*%
%ADD26RoundRect,0.137500X-0.137500X0.712500X-0.137500X-0.712500X0.137500X-0.712500X0.137500X0.712500X0*%
%ADD27RoundRect,0.225000X-0.225000X-0.250000X0.225000X-0.250000X0.225000X0.250000X-0.225000X0.250000X0*%
%ADD28RoundRect,0.062500X-0.062500X0.337500X-0.062500X-0.337500X0.062500X-0.337500X0.062500X0.337500X0*%
%ADD29RoundRect,0.062500X-0.337500X0.062500X-0.337500X-0.062500X0.337500X-0.062500X0.337500X0.062500X0*%
%ADD30R,3.350000X3.350000*%
%ADD31RoundRect,0.225000X-0.250000X0.225000X-0.250000X-0.225000X0.250000X-0.225000X0.250000X0.225000X0*%
%ADD32RoundRect,0.200000X-0.275000X0.200000X-0.275000X-0.200000X0.275000X-0.200000X0.275000X0.200000X0*%
%ADD33RotRect,1.400000X1.200000X315.000000*%
%ADD34RoundRect,0.150000X-0.512500X-0.150000X0.512500X-0.150000X0.512500X0.150000X-0.512500X0.150000X0*%
%ADD35C,0.991000*%
%ADD36C,0.787000*%
%ADD37RoundRect,0.250000X-0.375000X-0.625000X0.375000X-0.625000X0.375000X0.625000X-0.375000X0.625000X0*%
%ADD38RoundRect,0.225000X0.017678X-0.335876X0.335876X-0.017678X-0.017678X0.335876X-0.335876X0.017678X0*%
%ADD39RoundRect,0.200000X0.200000X0.275000X-0.200000X0.275000X-0.200000X-0.275000X0.200000X-0.275000X0*%
%ADD40RoundRect,0.218750X0.218750X0.256250X-0.218750X0.256250X-0.218750X-0.256250X0.218750X-0.256250X0*%
%ADD41R,1.700000X1.700000*%
%ADD42O,1.700000X1.700000*%
%ADD43C,0.800000*%
G04 APERTURE END LIST*
D10*
%TO.C,D1*%
X14023893Y3727287D03*
X10723893Y3727287D03*
%TD*%
D11*
%TO.C,U101*%
X29066722Y4031897D03*
X29632407Y4597583D03*
X30198093Y5163268D03*
X30763778Y5728953D03*
X31329464Y6294639D03*
X31895149Y6860324D03*
X32460834Y7426010D03*
X33026520Y7991695D03*
D12*
X33026520Y10042305D03*
X32460834Y10607990D03*
X31895149Y11173676D03*
X31329464Y11739361D03*
X30763778Y12305047D03*
X30198093Y12870732D03*
X29632407Y13436417D03*
X29066722Y14002103D03*
D11*
X27016112Y14002103D03*
X26450427Y13436417D03*
X25884741Y12870732D03*
X25319056Y12305047D03*
X24753370Y11739361D03*
X24187685Y11173676D03*
X23622000Y10607990D03*
X23056314Y10042305D03*
D12*
X23056314Y7991695D03*
X23622000Y7426010D03*
X24187685Y6860324D03*
X24753370Y6294639D03*
X25319056Y5728953D03*
X25884741Y5163268D03*
X26450427Y4597583D03*
X27016112Y4031897D03*
%TD*%
D13*
%TO.C,C107*%
X37940901Y9732479D03*
X36844885Y10828495D03*
%TD*%
D14*
%TO.C,C102*%
X4004893Y3549487D03*
X2454893Y3549487D03*
%TD*%
D15*
%TO.C,D101*%
X18088893Y7904987D03*
X18088893Y9479987D03*
%TD*%
D16*
%TO.C,C101*%
X24047101Y13774895D03*
X22951085Y12678879D03*
%TD*%
D17*
%TO.C,J101*%
X3865000Y11017000D03*
X3865000Y7017000D03*
D18*
X4190000Y10317000D03*
X4190000Y9667000D03*
X4190000Y9017000D03*
X4190000Y8367000D03*
X4190000Y7717000D03*
D19*
X4065000Y12117000D03*
D20*
X1515000Y11842000D03*
D21*
X1515000Y10217000D03*
X1515000Y7817000D03*
D22*
X1515000Y6192000D03*
D23*
X4065000Y5917000D03*
%TD*%
D24*
%TO.C,C103*%
X33161885Y5494495D03*
X34257901Y4398479D03*
%TD*%
D25*
%TO.C,SW101*%
X9059093Y10756487D03*
X9059093Y6756487D03*
X7459093Y10756487D03*
X7459093Y6756487D03*
D26*
X9634093Y8756487D03*
%TD*%
D27*
%TO.C,C201*%
X10938493Y5657687D03*
X12488493Y5657687D03*
%TD*%
D28*
%TO.C,U301*%
X14659893Y12005487D03*
X14159893Y12005487D03*
X13659893Y12005487D03*
X13159893Y12005487D03*
X12659893Y12005487D03*
X12159893Y12005487D03*
X11659893Y12005487D03*
D29*
X10709893Y11055487D03*
X10709893Y10555487D03*
X10709893Y10055487D03*
X10709893Y9555487D03*
X10709893Y9055487D03*
X10709893Y8555487D03*
X10709893Y8055487D03*
D28*
X11659893Y7105487D03*
X12159893Y7105487D03*
X12659893Y7105487D03*
X13159893Y7105487D03*
X13659893Y7105487D03*
X14159893Y7105487D03*
X14659893Y7105487D03*
D29*
X15609893Y8055487D03*
X15609893Y8555487D03*
X15609893Y9055487D03*
X15609893Y9555487D03*
X15609893Y10055487D03*
X15609893Y10555487D03*
X15609893Y11055487D03*
D30*
X13159893Y9555487D03*
%TD*%
D31*
%TO.C,C303*%
X6176293Y14713087D03*
X6176293Y13163087D03*
%TD*%
D32*
%TO.C,R106*%
X1045493Y16083887D03*
X1045493Y14433887D03*
%TD*%
D33*
%TO.C,Y101*%
X35633035Y7282264D03*
X37188670Y5726629D03*
X38390751Y6928710D03*
X36835116Y8484345D03*
%TD*%
D32*
%TO.C,R104*%
X18088893Y12565487D03*
X18088893Y10915487D03*
%TD*%
D34*
%TO.C,U201*%
X15706793Y5642487D03*
X15706793Y4692487D03*
X15706793Y3742487D03*
X17981793Y3742487D03*
X17981793Y5642487D03*
%TD*%
D27*
%TO.C,C108*%
X15027893Y14471487D03*
X16577893Y14471487D03*
%TD*%
D16*
%TO.C,C104*%
X22700901Y14638495D03*
X21604885Y13542479D03*
%TD*%
D14*
%TO.C,C302*%
X9186493Y12134687D03*
X7636493Y12134687D03*
%TD*%
%TO.C,C301*%
X9186493Y14192087D03*
X7636493Y14192087D03*
%TD*%
D15*
%TO.C,D102*%
X19739893Y7904987D03*
X19739893Y9479987D03*
%TD*%
D35*
%TO.C,J102*%
X41329893Y7994487D03*
X40314893Y13074487D03*
X42344893Y13074487D03*
D36*
X41964893Y9264487D03*
X40694893Y9264487D03*
X41964893Y10534487D03*
X40694893Y10534487D03*
X41964893Y11804487D03*
X40694893Y11804487D03*
%TD*%
D37*
%TO.C,F101*%
X6274893Y3930487D03*
X9074893Y3930487D03*
%TD*%
D38*
%TO.C,C105*%
X38495885Y4525479D03*
X39591901Y5621495D03*
%TD*%
D31*
%TO.C,C202*%
X19638293Y5594487D03*
X19638293Y4044487D03*
%TD*%
D32*
%TO.C,R105*%
X19739893Y12565487D03*
X19739893Y10915487D03*
%TD*%
D39*
%TO.C,R103*%
X42307293Y4235287D03*
X40657293Y4235287D03*
%TD*%
D24*
%TO.C,C106*%
X32095085Y4427695D03*
X33191101Y3331679D03*
%TD*%
D40*
%TO.C,D103*%
X4169793Y14496887D03*
X2594793Y14496887D03*
%TD*%
D41*
%TO.C,J103*%
X39497000Y16627000D03*
D42*
X36957000Y16627000D03*
X34417000Y16627000D03*
X31877000Y16627000D03*
X29337000Y16627000D03*
X26797000Y16627000D03*
X24257000Y16627000D03*
X21717000Y16627000D03*
X19177000Y16627000D03*
X16637000Y16627000D03*
X14097000Y16627000D03*
X11557000Y16627000D03*
X9017000Y16627000D03*
X6477000Y16627000D03*
X3937000Y16627000D03*
%TD*%
D41*
%TO.C,J104*%
X39497000Y1387000D03*
D42*
X36957000Y1387000D03*
X34417000Y1387000D03*
X31877000Y1387000D03*
X29337000Y1387000D03*
X26797000Y1387000D03*
X24257000Y1387000D03*
X21717000Y1387000D03*
X19177000Y1387000D03*
X16637000Y1387000D03*
X14097000Y1387000D03*
X11557000Y1387000D03*
X9017000Y1387000D03*
X6477000Y1387000D03*
X3937000Y1387000D03*
%TD*%
D43*
X20826150Y3719987D03*
X1324893Y3676487D03*
X7903493Y5403687D03*
X21162293Y11957387D03*
X16539493Y4641687D03*
X43920693Y1644487D03*
X20298693Y14192087D03*
X13135893Y9518487D03*
X29696693Y7118865D03*
X35995893Y11589568D03*
X10468893Y6597487D03*
X34569933Y6728047D03*
X40313893Y6597487D03*
X43920693Y16325687D03*
X5973093Y7384887D03*
X35437093Y4336887D03*
X34268693Y2965287D03*
X38662893Y12820487D03*
X6165244Y12007687D03*
X6023893Y10915487D03*
X6023893Y5962487D03*
X30661893Y7994487D03*
X1324893Y17138487D03*
X25200893Y14725487D03*
X39043893Y9010487D03*
X18088893Y13836487D03*
X13770893Y5962487D03*
X13770893Y5200487D03*
X42345893Y2787487D03*
X8359593Y9518487D03*
X15421893Y13201487D03*
X26666994Y8339403D03*
X11595954Y14010356D03*
X21173993Y4819487D03*
X9325893Y5454487D03*
X9186493Y13176087D03*
X6150893Y8853100D03*
X13481598Y13490782D03*
X12790188Y14182192D03*
X6150893Y9830900D03*
X43170393Y7867487D03*
X27359893Y12058487D03*
X43615893Y10534487D03*
X30484771Y14929365D03*
X29264893Y10661487D03*
X38916893Y11169487D03*
X26851893Y9518487D03*
X28763473Y8606810D03*
X30407893Y9261987D03*
X29010893Y11804487D03*
X25200893Y8121487D03*
X25806813Y7220390D03*
X21173993Y6028513D03*
X20456621Y6724487D03*
X24350993Y4184487D03*
X16844293Y9924887D03*
X18977893Y6826087D03*
X24882710Y3332892D03*
M02*
