%TF.GenerationSoftware,KiCad,Pcbnew,(7.0.0-0)*%
%TF.CreationDate,2023-03-26T13:07:46-04:00*%
%TF.ProjectId,mini_arduino_clone,6d696e69-5f61-4726-9475-696e6f5f636c,rev?*%
%TF.SameCoordinates,Original*%
%TF.FileFunction,Copper,L2,Inr*%
%TF.FilePolarity,Positive*%
%FSLAX46Y46*%
G04 Gerber Fmt 4.6, Leading zero omitted, Abs format (unit mm)*
G04 Created by KiCad (PCBNEW (7.0.0-0)) date 2023-03-26 13:07:46*
%MOMM*%
%LPD*%
G01*
G04 APERTURE LIST*
%TA.AperFunction,ComponentPad*%
%ADD10O,1.700000X1.000000*%
%TD*%
%TA.AperFunction,ComponentPad*%
%ADD11O,1.700000X0.850000*%
%TD*%
%TA.AperFunction,ComponentPad*%
%ADD12R,1.700000X1.700000*%
%TD*%
%TA.AperFunction,ComponentPad*%
%ADD13O,1.700000X1.700000*%
%TD*%
%TA.AperFunction,ViaPad*%
%ADD14C,0.800000*%
%TD*%
%TA.AperFunction,Conductor*%
%ADD15C,1.000000*%
%TD*%
%TA.AperFunction,Conductor*%
%ADD16C,0.500000*%
%TD*%
G04 APERTURE END LIST*
D10*
%TO.N,unconnected-(J101-Shield-Pad6)*%
%TO.C,J101*%
X1514999Y11841999D03*
D11*
X1514999Y6191999D03*
%TD*%
D12*
%TO.N,/D5*%
%TO.C,J103*%
X39496999Y16626999D03*
D13*
%TO.N,/D6*%
X36956999Y16626999D03*
%TO.N,/D7*%
X34416999Y16626999D03*
%TO.N,/D8*%
X31876999Y16626999D03*
%TO.N,/D9*%
X29336999Y16626999D03*
%TO.N,/D10*%
X26796999Y16626999D03*
%TO.N,/D11{slash}MOSI*%
X24256999Y16626999D03*
%TO.N,/D12{slash}MISO*%
X21716999Y16626999D03*
%TO.N,/D4*%
X19176999Y16626999D03*
%TO.N,/D3*%
X16636999Y16626999D03*
%TO.N,/D2*%
X14096999Y16626999D03*
%TO.N,GND*%
X11556999Y16626999D03*
%TO.N,/~{RESET}*%
X9016999Y16626999D03*
%TO.N,/D0{slash}RX*%
X6476999Y16626999D03*
%TO.N,/D1{slash}TX*%
X3936999Y16626999D03*
%TD*%
D12*
%TO.N,/D13{slash}SCK*%
%TO.C,J104*%
X39496999Y1386999D03*
D13*
%TO.N,GND*%
X36956999Y1386999D03*
%TO.N,/~{RESET}*%
X34416999Y1386999D03*
%TO.N,+5V*%
X31876999Y1386999D03*
%TO.N,/A7*%
X29336999Y1386999D03*
%TO.N,/A6*%
X26796999Y1386999D03*
%TO.N,/A5{slash}SCL*%
X24256999Y1386999D03*
%TO.N,/A4{slash}~{SDA}*%
X21716999Y1386999D03*
%TO.N,/A3*%
X19176999Y1386999D03*
%TO.N,/A2*%
X16636999Y1386999D03*
%TO.N,/A1*%
X14096999Y1386999D03*
%TO.N,/A0*%
X11556999Y1386999D03*
%TO.N,GND*%
X9016999Y1386999D03*
%TO.N,+3V3*%
X6476999Y1386999D03*
%TO.N,VBUS*%
X3936999Y1386999D03*
%TD*%
D14*
%TO.N,GND*%
X20628893Y3676487D03*
X2086893Y3676487D03*
X7903493Y5403687D03*
X21162293Y11957387D03*
X16539493Y4641687D03*
X43920693Y1644487D03*
X20298693Y14192087D03*
X13135893Y9518487D03*
X29696693Y7118865D03*
X35995893Y11589568D03*
X10468893Y6597487D03*
X34569933Y6728047D03*
X40313893Y6597487D03*
X43920693Y16325687D03*
X5973093Y7384887D03*
X35437093Y4336887D03*
X34268693Y2965287D03*
X38662893Y12820487D03*
X6165244Y12007687D03*
%TO.N,VBUS*%
X6023893Y10915487D03*
X6023893Y5962487D03*
%TO.N,+5V*%
X30661893Y7994487D03*
X1324893Y17138487D03*
X25200893Y14725487D03*
X39043893Y9010487D03*
X18088893Y13836487D03*
X13770893Y5962487D03*
X13770893Y5200487D03*
X42345893Y2787487D03*
%TO.N,/~{RESET}*%
X8359593Y9518487D03*
X15421893Y13201487D03*
X26666994Y8339403D03*
X11595954Y14010356D03*
%TO.N,+3V3*%
X20628893Y4819487D03*
%TO.N,/USB_UART/VBUS*%
X9325893Y5454487D03*
X9186493Y13176087D03*
%TO.N,/D_P*%
X6150893Y8853100D03*
X13481598Y13490782D03*
%TO.N,/D_N*%
X12790188Y14182192D03*
X6150893Y9830900D03*
%TO.N,/D12{slash}MISO*%
X43170393Y7867487D03*
X27359893Y12058487D03*
%TO.N,/D13{slash}SCK*%
X43615893Y10534487D03*
X31119771Y14294365D03*
%TO.N,/D11{slash}MOSI*%
X29264893Y10661487D03*
X38916893Y11169487D03*
%TO.N,/D2*%
X26851893Y9518487D03*
%TO.N,/D3*%
X28763473Y8606810D03*
%TO.N,/D4*%
X30407893Y9261987D03*
%TO.N,/D10*%
X29010893Y11804487D03*
%TO.N,/A7*%
X25200893Y8121487D03*
%TO.N,/A6*%
X25806813Y7220390D03*
%TO.N,/A1*%
X21173993Y6028513D03*
%TO.N,/A0*%
X20456621Y6724487D03*
%TO.N,/D0{slash}RX*%
X24350993Y4184487D03*
X16844293Y9924887D03*
%TO.N,/D1{slash}TX*%
X18977893Y6826087D03*
X24882710Y3332892D03*
%TD*%
D15*
%TO.N,+3V3*%
X6477000Y1387000D02*
X8512487Y3422487D01*
X20216258Y4819487D02*
X20628893Y4819487D01*
X18819258Y3422487D02*
X20216258Y4819487D01*
X8512487Y3422487D02*
X18819258Y3422487D01*
D16*
%TO.N,/USB_UART/VBUS*%
X9209593Y5570787D02*
X9325893Y5454487D01*
X9186493Y11893087D02*
X9209593Y11869987D01*
X9209593Y11869987D02*
X9209593Y5570787D01*
X9186493Y13176087D02*
X9186493Y11893087D01*
%TD*%
%TA.AperFunction,Conductor*%
%TO.N,+5V*%
G36*
X3261982Y18016887D02*
G01*
X3307369Y17971500D01*
X3323982Y17909500D01*
X3307369Y17847499D01*
X3262418Y17802550D01*
X3259171Y17801035D01*
X3254741Y17797934D01*
X3254732Y17797928D01*
X3070034Y17668601D01*
X3070029Y17668598D01*
X3065599Y17665495D01*
X3061775Y17661672D01*
X3061769Y17661666D01*
X2902334Y17502231D01*
X2902328Y17502225D01*
X2898505Y17498401D01*
X2895402Y17493971D01*
X2895399Y17493966D01*
X2766073Y17309269D01*
X2766068Y17309262D01*
X2762965Y17304829D01*
X2760677Y17299923D01*
X2760675Y17299919D01*
X2665386Y17095573D01*
X2665383Y17095568D01*
X2663097Y17090663D01*
X2661698Y17085443D01*
X2661694Y17085431D01*
X2603337Y16867635D01*
X2603335Y16867629D01*
X2601937Y16862408D01*
X2601465Y16857023D01*
X2601465Y16857018D01*
X2587693Y16699598D01*
X2581341Y16627000D01*
X2581813Y16621605D01*
X2591797Y16507483D01*
X2601937Y16391592D01*
X2603336Y16386370D01*
X2603337Y16386366D01*
X2661694Y16168570D01*
X2661697Y16168562D01*
X2663097Y16163337D01*
X2665385Y16158430D01*
X2665386Y16158428D01*
X2760678Y15954073D01*
X2760681Y15954067D01*
X2762965Y15949170D01*
X2766064Y15944743D01*
X2766066Y15944741D01*
X2895399Y15760034D01*
X2895402Y15760030D01*
X2898505Y15755599D01*
X3065599Y15588505D01*
X3070031Y15585402D01*
X3070033Y15585400D01*
X3214260Y15484411D01*
X3259170Y15452965D01*
X3473337Y15353097D01*
X3701592Y15291937D01*
X3937000Y15271341D01*
X4172408Y15291937D01*
X4400663Y15353097D01*
X4614830Y15452965D01*
X4808401Y15588505D01*
X4975495Y15755599D01*
X5105424Y15941158D01*
X5149743Y15980024D01*
X5207000Y15994035D01*
X5264257Y15980024D01*
X5308575Y15941158D01*
X5435395Y15760039D01*
X5435401Y15760032D01*
X5438505Y15755599D01*
X5605599Y15588505D01*
X5610031Y15585402D01*
X5610033Y15585400D01*
X5754260Y15484411D01*
X5799170Y15452965D01*
X6013337Y15353097D01*
X6241592Y15291937D01*
X6477000Y15271341D01*
X6712408Y15291937D01*
X6940663Y15353097D01*
X7154830Y15452965D01*
X7348401Y15588505D01*
X7515495Y15755599D01*
X7645424Y15941158D01*
X7689743Y15980024D01*
X7747000Y15994035D01*
X7804257Y15980024D01*
X7848575Y15941158D01*
X7975395Y15760039D01*
X7975401Y15760032D01*
X7978505Y15755599D01*
X8145599Y15588505D01*
X8150031Y15585402D01*
X8150033Y15585400D01*
X8294260Y15484411D01*
X8339170Y15452965D01*
X8553337Y15353097D01*
X8781592Y15291937D01*
X9017000Y15271341D01*
X9252408Y15291937D01*
X9480663Y15353097D01*
X9694830Y15452965D01*
X9888401Y15588505D01*
X10055495Y15755599D01*
X10185424Y15941158D01*
X10229743Y15980024D01*
X10287000Y15994035D01*
X10344257Y15980024D01*
X10388575Y15941158D01*
X10515395Y15760039D01*
X10515401Y15760032D01*
X10518505Y15755599D01*
X10685599Y15588505D01*
X10690031Y15585402D01*
X10690033Y15585400D01*
X10834260Y15484411D01*
X10879170Y15452965D01*
X11093337Y15353097D01*
X11321592Y15291937D01*
X11557000Y15271341D01*
X11792408Y15291937D01*
X12020663Y15353097D01*
X12234830Y15452965D01*
X12428401Y15588505D01*
X12595495Y15755599D01*
X12725424Y15941158D01*
X12769743Y15980024D01*
X12827000Y15994035D01*
X12884257Y15980024D01*
X12928575Y15941158D01*
X13055395Y15760039D01*
X13055401Y15760032D01*
X13058505Y15755599D01*
X13225599Y15588505D01*
X13230031Y15585402D01*
X13230033Y15585400D01*
X13374260Y15484411D01*
X13419170Y15452965D01*
X13633337Y15353097D01*
X13861592Y15291937D01*
X14097000Y15271341D01*
X14332408Y15291937D01*
X14560663Y15353097D01*
X14774830Y15452965D01*
X14968401Y15588505D01*
X15135495Y15755599D01*
X15265424Y15941158D01*
X15309743Y15980024D01*
X15367000Y15994035D01*
X15424257Y15980024D01*
X15468575Y15941158D01*
X15595395Y15760039D01*
X15595401Y15760032D01*
X15598505Y15755599D01*
X15765599Y15588505D01*
X15770031Y15585402D01*
X15770033Y15585400D01*
X15914260Y15484411D01*
X15959170Y15452965D01*
X16173337Y15353097D01*
X16401592Y15291937D01*
X16637000Y15271341D01*
X16872408Y15291937D01*
X17100663Y15353097D01*
X17314830Y15452965D01*
X17508401Y15588505D01*
X17675495Y15755599D01*
X17805424Y15941158D01*
X17849743Y15980024D01*
X17907000Y15994035D01*
X17964257Y15980024D01*
X18008575Y15941158D01*
X18135395Y15760039D01*
X18135401Y15760032D01*
X18138505Y15755599D01*
X18305599Y15588505D01*
X18310031Y15585402D01*
X18310033Y15585400D01*
X18454260Y15484411D01*
X18499170Y15452965D01*
X18713337Y15353097D01*
X18941592Y15291937D01*
X19177000Y15271341D01*
X19412408Y15291937D01*
X19640663Y15353097D01*
X19854830Y15452965D01*
X20048401Y15588505D01*
X20215495Y15755599D01*
X20345424Y15941158D01*
X20389743Y15980024D01*
X20447000Y15994035D01*
X20504257Y15980024D01*
X20548575Y15941158D01*
X20675395Y15760039D01*
X20675401Y15760032D01*
X20678505Y15755599D01*
X20845599Y15588505D01*
X20850031Y15585402D01*
X20850033Y15585400D01*
X20994260Y15484411D01*
X21039170Y15452965D01*
X21253337Y15353097D01*
X21481592Y15291937D01*
X21717000Y15271341D01*
X21952408Y15291937D01*
X22180663Y15353097D01*
X22394830Y15452965D01*
X22588401Y15588505D01*
X22755495Y15755599D01*
X22885424Y15941158D01*
X22929743Y15980024D01*
X22987000Y15994035D01*
X23044257Y15980024D01*
X23088575Y15941158D01*
X23215395Y15760039D01*
X23215401Y15760032D01*
X23218505Y15755599D01*
X23385599Y15588505D01*
X23390031Y15585402D01*
X23390033Y15585400D01*
X23534260Y15484411D01*
X23579170Y15452965D01*
X23793337Y15353097D01*
X24021592Y15291937D01*
X24257000Y15271341D01*
X24492408Y15291937D01*
X24720663Y15353097D01*
X24934830Y15452965D01*
X25128401Y15588505D01*
X25295495Y15755599D01*
X25425424Y15941158D01*
X25469743Y15980024D01*
X25527000Y15994035D01*
X25584257Y15980024D01*
X25628575Y15941158D01*
X25755395Y15760039D01*
X25755401Y15760032D01*
X25758505Y15755599D01*
X25925599Y15588505D01*
X25930031Y15585402D01*
X25930033Y15585400D01*
X26074260Y15484411D01*
X26119170Y15452965D01*
X26333337Y15353097D01*
X26561592Y15291937D01*
X26797000Y15271341D01*
X27032408Y15291937D01*
X27260663Y15353097D01*
X27474830Y15452965D01*
X27668401Y15588505D01*
X27835495Y15755599D01*
X27965424Y15941158D01*
X28009743Y15980024D01*
X28067000Y15994035D01*
X28124257Y15980024D01*
X28168575Y15941158D01*
X28295395Y15760039D01*
X28295401Y15760032D01*
X28298505Y15755599D01*
X28465599Y15588505D01*
X28470031Y15585402D01*
X28470033Y15585400D01*
X28614260Y15484411D01*
X28659170Y15452965D01*
X28873337Y15353097D01*
X29101592Y15291937D01*
X29337000Y15271341D01*
X29572408Y15291937D01*
X29800663Y15353097D01*
X30014830Y15452965D01*
X30208401Y15588505D01*
X30375495Y15755599D01*
X30505424Y15941158D01*
X30549743Y15980024D01*
X30607000Y15994035D01*
X30664257Y15980024D01*
X30708575Y15941158D01*
X30835395Y15760039D01*
X30835401Y15760032D01*
X30838505Y15755599D01*
X31005599Y15588505D01*
X31010031Y15585402D01*
X31010033Y15585400D01*
X31154260Y15484411D01*
X31199170Y15452965D01*
X31204070Y15450680D01*
X31204072Y15450679D01*
X31245744Y15431247D01*
X31296140Y15388205D01*
X31317169Y15325354D01*
X31302824Y15260650D01*
X31257204Y15212576D01*
X31193339Y15194865D01*
X31025125Y15194865D01*
X31018766Y15193514D01*
X31018762Y15193513D01*
X30846330Y15156862D01*
X30846323Y15156860D01*
X30839968Y15155509D01*
X30834033Y15152867D01*
X30834025Y15152864D01*
X30672978Y15081160D01*
X30672973Y15081158D01*
X30667041Y15078516D01*
X30661787Y15074700D01*
X30661782Y15074696D01*
X30519159Y14971075D01*
X30519152Y14971070D01*
X30513900Y14967253D01*
X30509555Y14962428D01*
X30509550Y14962423D01*
X30391584Y14831409D01*
X30391579Y14831403D01*
X30387238Y14826581D01*
X30383993Y14820961D01*
X30383989Y14820955D01*
X30295840Y14668276D01*
X30295837Y14668271D01*
X30292592Y14662649D01*
X30290586Y14656477D01*
X30290584Y14656471D01*
X30236104Y14488801D01*
X30236102Y14488792D01*
X30234097Y14482621D01*
X30233419Y14476171D01*
X30233417Y14476161D01*
X30220083Y14349281D01*
X30214311Y14294365D01*
X30214990Y14287905D01*
X30233417Y14112570D01*
X30233418Y14112562D01*
X30234097Y14106109D01*
X30236102Y14099937D01*
X30236104Y14099930D01*
X30290584Y13932260D01*
X30292592Y13926081D01*
X30295839Y13920457D01*
X30295840Y13920455D01*
X30375814Y13781935D01*
X30387238Y13762149D01*
X30391582Y13757324D01*
X30391584Y13757322D01*
X30493086Y13644593D01*
X30513900Y13621477D01*
X30667041Y13510214D01*
X30839968Y13433221D01*
X31025125Y13393865D01*
X31207914Y13393865D01*
X31214417Y13393865D01*
X31399574Y13433221D01*
X31572501Y13510214D01*
X31725642Y13621477D01*
X31852304Y13762149D01*
X31946950Y13926081D01*
X32005445Y14106109D01*
X32025231Y14294365D01*
X32005445Y14482621D01*
X31946950Y14662649D01*
X31852304Y14826581D01*
X31830991Y14850251D01*
X31729991Y14962423D01*
X31729990Y14962424D01*
X31725642Y14967253D01*
X31720384Y14971073D01*
X31720382Y14971075D01*
X31590813Y15065212D01*
X31550595Y15114700D01*
X31540290Y15177631D01*
X31562622Y15237361D01*
X31611686Y15278095D01*
X31674503Y15289058D01*
X31877000Y15271341D01*
X32112408Y15291937D01*
X32340663Y15353097D01*
X32554830Y15452965D01*
X32748401Y15588505D01*
X32915495Y15755599D01*
X33045424Y15941158D01*
X33089743Y15980024D01*
X33147000Y15994035D01*
X33204257Y15980024D01*
X33248575Y15941158D01*
X33375395Y15760039D01*
X33375401Y15760032D01*
X33378505Y15755599D01*
X33545599Y15588505D01*
X33550031Y15585402D01*
X33550033Y15585400D01*
X33694260Y15484411D01*
X33739170Y15452965D01*
X33953337Y15353097D01*
X34181592Y15291937D01*
X34417000Y15271341D01*
X34652408Y15291937D01*
X34880663Y15353097D01*
X35094830Y15452965D01*
X35288401Y15588505D01*
X35455495Y15755599D01*
X35585424Y15941158D01*
X35629743Y15980024D01*
X35687000Y15994035D01*
X35744257Y15980024D01*
X35788575Y15941158D01*
X35915395Y15760039D01*
X35915401Y15760032D01*
X35918505Y15755599D01*
X36085599Y15588505D01*
X36090031Y15585402D01*
X36090033Y15585400D01*
X36234260Y15484411D01*
X36279170Y15452965D01*
X36493337Y15353097D01*
X36721592Y15291937D01*
X36957000Y15271341D01*
X37192408Y15291937D01*
X37420663Y15353097D01*
X37634830Y15452965D01*
X37828401Y15588505D01*
X37950329Y15710434D01*
X38003072Y15741727D01*
X38064365Y15743916D01*
X38119210Y15716463D01*
X38154189Y15666084D01*
X38177106Y15604641D01*
X38203204Y15534669D01*
X38208518Y15527570D01*
X38208519Y15527569D01*
X38264367Y15452965D01*
X38289454Y15419454D01*
X38404669Y15333204D01*
X38539517Y15282909D01*
X38599127Y15276500D01*
X40394872Y15276501D01*
X40454483Y15282909D01*
X40589331Y15333204D01*
X40704546Y15419454D01*
X40790796Y15534669D01*
X40841091Y15669517D01*
X40847500Y15729127D01*
X40847500Y16325687D01*
X43015233Y16325687D01*
X43015912Y16319227D01*
X43034339Y16143892D01*
X43034340Y16143884D01*
X43035019Y16137431D01*
X43037024Y16131259D01*
X43037026Y16131252D01*
X43081611Y15994035D01*
X43093514Y15957403D01*
X43188160Y15793471D01*
X43192504Y15788646D01*
X43192506Y15788644D01*
X43262930Y15710431D01*
X43314822Y15652799D01*
X43467963Y15541536D01*
X43640890Y15464543D01*
X43826047Y15425187D01*
X44008836Y15425187D01*
X44015339Y15425187D01*
X44200496Y15464543D01*
X44373423Y15541536D01*
X44526564Y15652799D01*
X44653226Y15793471D01*
X44747872Y15957403D01*
X44806367Y16137431D01*
X44826153Y16325687D01*
X44806367Y16513943D01*
X44747872Y16693971D01*
X44653226Y16857903D01*
X44526564Y16998575D01*
X44521306Y17002395D01*
X44521304Y17002397D01*
X44378681Y17106018D01*
X44378680Y17106019D01*
X44373423Y17109838D01*
X44367485Y17112482D01*
X44206438Y17184186D01*
X44206433Y17184188D01*
X44200496Y17186831D01*
X44194137Y17188183D01*
X44194133Y17188184D01*
X44021701Y17224835D01*
X44021698Y17224836D01*
X44015339Y17226187D01*
X43826047Y17226187D01*
X43819688Y17224836D01*
X43819684Y17224835D01*
X43647252Y17188184D01*
X43647245Y17188182D01*
X43640890Y17186831D01*
X43634955Y17184189D01*
X43634947Y17184186D01*
X43473900Y17112482D01*
X43473895Y17112480D01*
X43467963Y17109838D01*
X43462709Y17106022D01*
X43462704Y17106018D01*
X43320081Y17002397D01*
X43320074Y17002392D01*
X43314822Y16998575D01*
X43310477Y16993750D01*
X43310472Y16993745D01*
X43192506Y16862731D01*
X43192501Y16862725D01*
X43188160Y16857903D01*
X43184915Y16852283D01*
X43184911Y16852277D01*
X43096762Y16699598D01*
X43096759Y16699593D01*
X43093514Y16693971D01*
X43091508Y16687799D01*
X43091506Y16687793D01*
X43037026Y16520123D01*
X43037024Y16520114D01*
X43035019Y16513943D01*
X43034341Y16507493D01*
X43034339Y16507483D01*
X43021610Y16386366D01*
X43015233Y16325687D01*
X40847500Y16325687D01*
X40847499Y17524872D01*
X40841091Y17584483D01*
X40790796Y17719331D01*
X40704546Y17834546D01*
X40706701Y17836160D01*
X40685239Y17871182D01*
X40680697Y17928898D01*
X40702852Y17982385D01*
X40746875Y18019985D01*
X40803170Y18033500D01*
X44960500Y18033500D01*
X45022500Y18016887D01*
X45067887Y17971500D01*
X45084500Y17909500D01*
X45084500Y124500D01*
X45067887Y62500D01*
X45022500Y17113D01*
X44960500Y500D01*
X40818304Y500D01*
X40753137Y19005D01*
X40707420Y68996D01*
X40694798Y135553D01*
X40719037Y198811D01*
X40736776Y222509D01*
X40790796Y294669D01*
X40841091Y429517D01*
X40847500Y489127D01*
X40847499Y1644487D01*
X43015233Y1644487D01*
X43015912Y1638027D01*
X43034339Y1462692D01*
X43034340Y1462684D01*
X43035019Y1456231D01*
X43037024Y1450059D01*
X43037026Y1450052D01*
X43091506Y1282382D01*
X43093514Y1276203D01*
X43096761Y1270579D01*
X43096762Y1270577D01*
X43173882Y1137000D01*
X43188160Y1112271D01*
X43314822Y971599D01*
X43467963Y860336D01*
X43640890Y783343D01*
X43826047Y743987D01*
X44008836Y743987D01*
X44015339Y743987D01*
X44200496Y783343D01*
X44373423Y860336D01*
X44526564Y971599D01*
X44653226Y1112271D01*
X44747872Y1276203D01*
X44806367Y1456231D01*
X44826153Y1644487D01*
X44806367Y1832743D01*
X44747872Y2012771D01*
X44653226Y2176703D01*
X44526564Y2317375D01*
X44521306Y2321195D01*
X44521304Y2321197D01*
X44378681Y2424818D01*
X44378680Y2424819D01*
X44373423Y2428638D01*
X44367485Y2431282D01*
X44206438Y2502986D01*
X44206433Y2502988D01*
X44200496Y2505631D01*
X44194137Y2506983D01*
X44194133Y2506984D01*
X44021701Y2543635D01*
X44021698Y2543636D01*
X44015339Y2544987D01*
X43826047Y2544987D01*
X43819688Y2543636D01*
X43819684Y2543635D01*
X43647252Y2506984D01*
X43647245Y2506982D01*
X43640890Y2505631D01*
X43634955Y2502989D01*
X43634947Y2502986D01*
X43473900Y2431282D01*
X43473895Y2431280D01*
X43467963Y2428638D01*
X43462709Y2424822D01*
X43462704Y2424818D01*
X43320081Y2321197D01*
X43320074Y2321192D01*
X43314822Y2317375D01*
X43310477Y2312550D01*
X43310472Y2312545D01*
X43192506Y2181531D01*
X43192501Y2181525D01*
X43188160Y2176703D01*
X43184915Y2171083D01*
X43184911Y2171077D01*
X43096762Y2018398D01*
X43096759Y2018393D01*
X43093514Y2012771D01*
X43091508Y2006599D01*
X43091506Y2006593D01*
X43037026Y1838923D01*
X43037024Y1838914D01*
X43035019Y1832743D01*
X43034341Y1826293D01*
X43034339Y1826283D01*
X43016655Y1658023D01*
X43015233Y1644487D01*
X40847499Y1644487D01*
X40847499Y2284872D01*
X40841091Y2344483D01*
X40790796Y2479331D01*
X40704546Y2594546D01*
X40694086Y2602376D01*
X40596431Y2675481D01*
X40596430Y2675482D01*
X40589331Y2680796D01*
X40482442Y2720663D01*
X40461752Y2728380D01*
X40461750Y2728381D01*
X40454483Y2731091D01*
X40446770Y2731921D01*
X40446767Y2731921D01*
X40398180Y2737145D01*
X40398169Y2737146D01*
X40394873Y2737500D01*
X40391550Y2737500D01*
X38602439Y2737500D01*
X38602420Y2737500D01*
X38599128Y2737499D01*
X38595850Y2737147D01*
X38595838Y2737146D01*
X38547231Y2731921D01*
X38547225Y2731920D01*
X38539517Y2731091D01*
X38532252Y2728382D01*
X38532246Y2728380D01*
X38412980Y2683896D01*
X38412978Y2683896D01*
X38404669Y2680796D01*
X38397572Y2675484D01*
X38397568Y2675481D01*
X38296550Y2599859D01*
X38296546Y2599856D01*
X38289454Y2594546D01*
X38284144Y2587454D01*
X38284141Y2587450D01*
X38208519Y2486432D01*
X38208516Y2486428D01*
X38203204Y2479331D01*
X38200104Y2471022D01*
X38200105Y2471022D01*
X38154189Y2347917D01*
X38119210Y2297538D01*
X38064365Y2270085D01*
X38003072Y2272274D01*
X37950326Y2303570D01*
X37832232Y2421664D01*
X37832230Y2421666D01*
X37828401Y2425495D01*
X37823970Y2428598D01*
X37823966Y2428601D01*
X37639259Y2557934D01*
X37639257Y2557936D01*
X37634830Y2561035D01*
X37629933Y2563319D01*
X37629927Y2563322D01*
X37425572Y2658614D01*
X37425570Y2658615D01*
X37420663Y2660903D01*
X37415438Y2662303D01*
X37415430Y2662306D01*
X37197634Y2720663D01*
X37197630Y2720664D01*
X37192408Y2722063D01*
X37187020Y2722535D01*
X37187017Y2722535D01*
X36962395Y2742187D01*
X36957000Y2742659D01*
X36951605Y2742187D01*
X36726982Y2722535D01*
X36726977Y2722535D01*
X36721592Y2722063D01*
X36716371Y2720665D01*
X36716365Y2720663D01*
X36498569Y2662306D01*
X36498557Y2662302D01*
X36493337Y2660903D01*
X36488432Y2658617D01*
X36488427Y2658614D01*
X36284081Y2563325D01*
X36284077Y2563323D01*
X36279171Y2561035D01*
X36274738Y2557932D01*
X36274731Y2557927D01*
X36090034Y2428601D01*
X36090029Y2428598D01*
X36085599Y2425495D01*
X36081775Y2421672D01*
X36081769Y2421666D01*
X35922334Y2262231D01*
X35922328Y2262225D01*
X35918505Y2258401D01*
X35915402Y2253971D01*
X35915399Y2253966D01*
X35788575Y2072841D01*
X35744257Y2033975D01*
X35687000Y2019964D01*
X35629743Y2033975D01*
X35585425Y2072841D01*
X35574327Y2088690D01*
X35455495Y2258401D01*
X35288401Y2425495D01*
X35283970Y2428598D01*
X35283966Y2428601D01*
X35161319Y2514479D01*
X35125784Y2552809D01*
X35109200Y2602376D01*
X35114511Y2654370D01*
X35154367Y2777031D01*
X35174153Y2965287D01*
X35154367Y3153543D01*
X35108061Y3296055D01*
X35104703Y3360150D01*
X35133843Y3417342D01*
X35187675Y3452301D01*
X35251774Y3455660D01*
X35342447Y3436387D01*
X35525236Y3436387D01*
X35531739Y3436387D01*
X35716896Y3475743D01*
X35889823Y3552736D01*
X36042964Y3663999D01*
X36169626Y3804671D01*
X36264272Y3968603D01*
X36322767Y4148631D01*
X36342553Y4336887D01*
X36322767Y4525143D01*
X36264272Y4705171D01*
X36169626Y4869103D01*
X36126099Y4917444D01*
X36047313Y5004945D01*
X36047312Y5004946D01*
X36042964Y5009775D01*
X36037706Y5013595D01*
X36037704Y5013597D01*
X35895081Y5117218D01*
X35895080Y5117219D01*
X35889823Y5121038D01*
X35883885Y5123682D01*
X35722838Y5195386D01*
X35722833Y5195388D01*
X35716896Y5198031D01*
X35710537Y5199383D01*
X35710533Y5199384D01*
X35538101Y5236035D01*
X35538098Y5236036D01*
X35531739Y5237387D01*
X35342447Y5237387D01*
X35336088Y5236036D01*
X35336084Y5236035D01*
X35163652Y5199384D01*
X35163645Y5199382D01*
X35157290Y5198031D01*
X35151355Y5195389D01*
X35151347Y5195386D01*
X34990300Y5123682D01*
X34990295Y5123680D01*
X34984363Y5121038D01*
X34979109Y5117222D01*
X34979104Y5117218D01*
X34836481Y5013597D01*
X34836474Y5013592D01*
X34831222Y5009775D01*
X34826877Y5004950D01*
X34826872Y5004945D01*
X34708906Y4873931D01*
X34708901Y4873925D01*
X34704560Y4869103D01*
X34701315Y4863483D01*
X34701311Y4863477D01*
X34613162Y4710798D01*
X34613159Y4710793D01*
X34609914Y4705171D01*
X34607908Y4698999D01*
X34607906Y4698993D01*
X34553426Y4531323D01*
X34553424Y4531314D01*
X34551419Y4525143D01*
X34550741Y4518693D01*
X34550739Y4518683D01*
X34533347Y4353197D01*
X34531633Y4336887D01*
X34532312Y4330427D01*
X34550739Y4155092D01*
X34550740Y4155084D01*
X34551419Y4148631D01*
X34553424Y4142459D01*
X34553426Y4142452D01*
X34597723Y4006123D01*
X34601082Y3942024D01*
X34571942Y3884833D01*
X34518111Y3849874D01*
X34454012Y3846514D01*
X34363339Y3865787D01*
X34174047Y3865787D01*
X34167688Y3864436D01*
X34167684Y3864435D01*
X33995252Y3827784D01*
X33995245Y3827782D01*
X33988890Y3826431D01*
X33982955Y3823789D01*
X33982947Y3823786D01*
X33821900Y3752082D01*
X33821895Y3752080D01*
X33815963Y3749438D01*
X33810709Y3745622D01*
X33810704Y3745618D01*
X33668081Y3641997D01*
X33668074Y3641992D01*
X33662822Y3638175D01*
X33658477Y3633350D01*
X33658472Y3633345D01*
X33540506Y3502331D01*
X33540501Y3502325D01*
X33536160Y3497503D01*
X33532915Y3491883D01*
X33532911Y3491877D01*
X33444762Y3339198D01*
X33444759Y3339193D01*
X33441514Y3333571D01*
X33439508Y3327399D01*
X33439506Y3327393D01*
X33385026Y3159723D01*
X33385024Y3159714D01*
X33383019Y3153543D01*
X33382341Y3147093D01*
X33382339Y3147083D01*
X33366858Y2999779D01*
X33363233Y2965287D01*
X33363912Y2958827D01*
X33382339Y2783492D01*
X33382340Y2783484D01*
X33383019Y2777031D01*
X33385024Y2770859D01*
X33385026Y2770852D01*
X33421495Y2658614D01*
X33441514Y2597003D01*
X33444761Y2591379D01*
X33444762Y2591377D01*
X33494813Y2504686D01*
X33510954Y2453493D01*
X33503948Y2400276D01*
X33475108Y2355005D01*
X33382332Y2262229D01*
X33382326Y2262223D01*
X33378505Y2258401D01*
X33356423Y2226864D01*
X33248269Y2072404D01*
X33203951Y2033539D01*
X33146694Y2019528D01*
X33089437Y2033539D01*
X33045119Y2072405D01*
X32918215Y2253643D01*
X32911280Y2261908D01*
X32751909Y2421279D01*
X32743643Y2428216D01*
X32559008Y2557499D01*
X32549676Y2562887D01*
X32345397Y2658144D01*
X32335263Y2661832D01*
X32140780Y2713944D01*
X32129551Y2714312D01*
X32127000Y2703369D01*
X32127000Y1261000D01*
X32110387Y1199000D01*
X32065000Y1153613D01*
X32003000Y1137000D01*
X31751000Y1137000D01*
X31689000Y1153613D01*
X31643613Y1199000D01*
X31627000Y1261000D01*
X31627000Y2703369D01*
X31624448Y2714312D01*
X31613219Y2713944D01*
X31418736Y2661832D01*
X31408602Y2658144D01*
X31204332Y2562890D01*
X31194982Y2557492D01*
X31010357Y2428216D01*
X31002092Y2421281D01*
X30842719Y2261908D01*
X30835788Y2253648D01*
X30708880Y2072404D01*
X30664562Y2033539D01*
X30607305Y2019528D01*
X30550048Y2033539D01*
X30505730Y2072405D01*
X30505425Y2072841D01*
X30375495Y2258401D01*
X30208401Y2425495D01*
X30203970Y2428598D01*
X30203966Y2428601D01*
X30019259Y2557934D01*
X30019257Y2557936D01*
X30014830Y2561035D01*
X30009933Y2563319D01*
X30009927Y2563322D01*
X29805572Y2658614D01*
X29805570Y2658615D01*
X29800663Y2660903D01*
X29795438Y2662303D01*
X29795430Y2662306D01*
X29577634Y2720663D01*
X29577630Y2720664D01*
X29572408Y2722063D01*
X29567020Y2722535D01*
X29567017Y2722535D01*
X29342395Y2742187D01*
X29337000Y2742659D01*
X29331605Y2742187D01*
X29106982Y2722535D01*
X29106977Y2722535D01*
X29101592Y2722063D01*
X29096371Y2720665D01*
X29096365Y2720663D01*
X28878569Y2662306D01*
X28878557Y2662302D01*
X28873337Y2660903D01*
X28868432Y2658617D01*
X28868427Y2658614D01*
X28664081Y2563325D01*
X28664077Y2563323D01*
X28659171Y2561035D01*
X28654738Y2557932D01*
X28654731Y2557927D01*
X28470034Y2428601D01*
X28470029Y2428598D01*
X28465599Y2425495D01*
X28461775Y2421672D01*
X28461769Y2421666D01*
X28302334Y2262231D01*
X28302328Y2262225D01*
X28298505Y2258401D01*
X28295402Y2253971D01*
X28295399Y2253966D01*
X28168575Y2072841D01*
X28124257Y2033975D01*
X28067000Y2019964D01*
X28009743Y2033975D01*
X27965425Y2072841D01*
X27954327Y2088690D01*
X27835495Y2258401D01*
X27668401Y2425495D01*
X27663970Y2428598D01*
X27663966Y2428601D01*
X27479259Y2557934D01*
X27479257Y2557936D01*
X27474830Y2561035D01*
X27469933Y2563319D01*
X27469927Y2563322D01*
X27265572Y2658614D01*
X27265570Y2658615D01*
X27260663Y2660903D01*
X27255438Y2662303D01*
X27255430Y2662306D01*
X27037634Y2720663D01*
X27037630Y2720664D01*
X27032408Y2722063D01*
X27027020Y2722535D01*
X27027017Y2722535D01*
X26802395Y2742187D01*
X26797000Y2742659D01*
X26791605Y2742187D01*
X26566982Y2722535D01*
X26566977Y2722535D01*
X26561592Y2722063D01*
X26556371Y2720665D01*
X26556365Y2720663D01*
X26338569Y2662306D01*
X26338557Y2662302D01*
X26333337Y2660903D01*
X26328432Y2658617D01*
X26328427Y2658614D01*
X26124081Y2563325D01*
X26124077Y2563323D01*
X26119171Y2561035D01*
X26114738Y2557932D01*
X26114731Y2557927D01*
X25930034Y2428601D01*
X25930029Y2428598D01*
X25925599Y2425495D01*
X25921775Y2421672D01*
X25921769Y2421666D01*
X25762334Y2262231D01*
X25762328Y2262225D01*
X25758505Y2258401D01*
X25755402Y2253971D01*
X25755399Y2253966D01*
X25628575Y2072841D01*
X25584257Y2033975D01*
X25527000Y2019964D01*
X25469743Y2033975D01*
X25425425Y2072841D01*
X25414327Y2088690D01*
X25295495Y2258401D01*
X25234482Y2319414D01*
X25203741Y2370324D01*
X25200239Y2429692D01*
X25224784Y2483863D01*
X25271723Y2520373D01*
X25335440Y2548741D01*
X25488581Y2660004D01*
X25615243Y2800676D01*
X25709889Y2964608D01*
X25768384Y3144636D01*
X25788170Y3332892D01*
X25768384Y3521148D01*
X25709889Y3701176D01*
X25615243Y3865108D01*
X25597482Y3884833D01*
X25492930Y4000950D01*
X25492929Y4000951D01*
X25488581Y4005780D01*
X25483323Y4009600D01*
X25483321Y4009602D01*
X25340698Y4113223D01*
X25340697Y4113224D01*
X25335440Y4117043D01*
X25325406Y4121511D01*
X25275529Y4161905D01*
X25252528Y4221824D01*
X25236667Y4372743D01*
X25178172Y4552771D01*
X25083526Y4716703D01*
X24956864Y4857375D01*
X24951606Y4861195D01*
X24951604Y4861197D01*
X24808981Y4964818D01*
X24808980Y4964819D01*
X24803723Y4968638D01*
X24724765Y5003793D01*
X24636738Y5042986D01*
X24636733Y5042988D01*
X24630796Y5045631D01*
X24624437Y5046983D01*
X24624433Y5046984D01*
X24452001Y5083635D01*
X24451998Y5083636D01*
X24445639Y5084987D01*
X24256347Y5084987D01*
X24249988Y5083636D01*
X24249984Y5083635D01*
X24077552Y5046984D01*
X24077545Y5046982D01*
X24071190Y5045631D01*
X24065255Y5042989D01*
X24065247Y5042986D01*
X23904200Y4971282D01*
X23904195Y4971280D01*
X23898263Y4968638D01*
X23893009Y4964822D01*
X23893004Y4964818D01*
X23750381Y4861197D01*
X23750374Y4861192D01*
X23745122Y4857375D01*
X23740777Y4852550D01*
X23740772Y4852545D01*
X23622806Y4721531D01*
X23622801Y4721525D01*
X23618460Y4716703D01*
X23615215Y4711083D01*
X23615211Y4711077D01*
X23527062Y4558398D01*
X23527059Y4558393D01*
X23523814Y4552771D01*
X23521808Y4546599D01*
X23521806Y4546593D01*
X23467326Y4378923D01*
X23467324Y4378914D01*
X23465319Y4372743D01*
X23464641Y4366293D01*
X23464639Y4366283D01*
X23448078Y4208703D01*
X23445533Y4184487D01*
X23446212Y4178027D01*
X23464639Y4002692D01*
X23464640Y4002684D01*
X23465319Y3996231D01*
X23467324Y3990059D01*
X23467326Y3990052D01*
X23521350Y3823786D01*
X23523814Y3816203D01*
X23527061Y3810579D01*
X23527062Y3810577D01*
X23608899Y3668830D01*
X23618460Y3652271D01*
X23622804Y3647446D01*
X23622806Y3647444D01*
X23736524Y3521148D01*
X23745122Y3511599D01*
X23750380Y3507779D01*
X23750381Y3507778D01*
X23772267Y3491877D01*
X23898263Y3400336D01*
X23905233Y3397233D01*
X23908290Y3395871D01*
X23958172Y3355477D01*
X23981174Y3295554D01*
X23997036Y3144636D01*
X23999041Y3138464D01*
X23999043Y3138457D01*
X24053211Y2971747D01*
X24055531Y2964608D01*
X24058778Y2958984D01*
X24058779Y2958982D01*
X24091456Y2902384D01*
X24107804Y2848494D01*
X24098630Y2792931D01*
X24065828Y2747156D01*
X24016163Y2720609D01*
X23798567Y2662305D01*
X23798560Y2662303D01*
X23793337Y2660903D01*
X23788432Y2658617D01*
X23788427Y2658614D01*
X23584081Y2563325D01*
X23584077Y2563323D01*
X23579171Y2561035D01*
X23574738Y2557932D01*
X23574731Y2557927D01*
X23390034Y2428601D01*
X23390029Y2428598D01*
X23385599Y2425495D01*
X23381775Y2421672D01*
X23381769Y2421666D01*
X23222334Y2262231D01*
X23222328Y2262225D01*
X23218505Y2258401D01*
X23215402Y2253971D01*
X23215399Y2253966D01*
X23088575Y2072841D01*
X23044257Y2033975D01*
X22987000Y2019964D01*
X22929743Y2033975D01*
X22885425Y2072841D01*
X22874327Y2088690D01*
X22755495Y2258401D01*
X22588401Y2425495D01*
X22583970Y2428598D01*
X22583966Y2428601D01*
X22399259Y2557934D01*
X22399257Y2557936D01*
X22394830Y2561035D01*
X22389933Y2563319D01*
X22389927Y2563322D01*
X22185572Y2658614D01*
X22185570Y2658615D01*
X22180663Y2660903D01*
X22175438Y2662303D01*
X22175430Y2662306D01*
X21957634Y2720663D01*
X21957630Y2720664D01*
X21952408Y2722063D01*
X21947020Y2722535D01*
X21947017Y2722535D01*
X21722395Y2742187D01*
X21717000Y2742659D01*
X21711605Y2742187D01*
X21486982Y2722535D01*
X21486977Y2722535D01*
X21481592Y2722063D01*
X21476371Y2720665D01*
X21476365Y2720663D01*
X21258569Y2662306D01*
X21258557Y2662302D01*
X21253337Y2660903D01*
X21248432Y2658617D01*
X21248427Y2658614D01*
X21044081Y2563325D01*
X21044077Y2563323D01*
X21039171Y2561035D01*
X21034738Y2557932D01*
X21034731Y2557927D01*
X20850034Y2428601D01*
X20850029Y2428598D01*
X20845599Y2425495D01*
X20841775Y2421672D01*
X20841769Y2421666D01*
X20682334Y2262231D01*
X20682328Y2262225D01*
X20678505Y2258401D01*
X20675402Y2253971D01*
X20675399Y2253966D01*
X20548575Y2072841D01*
X20504257Y2033975D01*
X20447000Y2019964D01*
X20389743Y2033975D01*
X20345425Y2072841D01*
X20334327Y2088690D01*
X20215495Y2258401D01*
X20048401Y2425495D01*
X20043970Y2428598D01*
X20043966Y2428601D01*
X19859259Y2557934D01*
X19859257Y2557936D01*
X19854830Y2561035D01*
X19849926Y2563322D01*
X19686540Y2639511D01*
X19640569Y2676407D01*
X19616829Y2730361D01*
X19620684Y2789181D01*
X19651262Y2839572D01*
X19832204Y3020514D01*
X19889885Y3053148D01*
X19956139Y3051412D01*
X20012035Y3015801D01*
X20023022Y3003599D01*
X20176163Y2892336D01*
X20349090Y2815343D01*
X20534247Y2775987D01*
X20717036Y2775987D01*
X20723539Y2775987D01*
X20908696Y2815343D01*
X21081623Y2892336D01*
X21234764Y3003599D01*
X21361426Y3144271D01*
X21456072Y3308203D01*
X21514567Y3488231D01*
X21534353Y3676487D01*
X21514567Y3864743D01*
X21456072Y4044771D01*
X21428632Y4092298D01*
X21413057Y4138286D01*
X21416335Y4186730D01*
X21437965Y4230201D01*
X21478490Y4282553D01*
X21478493Y4282559D01*
X21482341Y4287529D01*
X21571953Y4470216D01*
X21622956Y4667202D01*
X21633262Y4870423D01*
X21602449Y5071558D01*
X21589807Y5105693D01*
X21582463Y5158377D01*
X21597874Y5209297D01*
X21633198Y5249067D01*
X21779864Y5355625D01*
X21906526Y5496297D01*
X22001172Y5660229D01*
X22059667Y5840257D01*
X22079453Y6028513D01*
X22059667Y6216769D01*
X22001172Y6396797D01*
X21906526Y6560729D01*
X21887780Y6581548D01*
X21784213Y6696571D01*
X21784212Y6696572D01*
X21779864Y6701401D01*
X21774606Y6705221D01*
X21774604Y6705223D01*
X21631981Y6808844D01*
X21631980Y6808845D01*
X21626723Y6812664D01*
X21612398Y6819042D01*
X21459738Y6887012D01*
X21459733Y6887014D01*
X21453796Y6889657D01*
X21447437Y6891009D01*
X21447436Y6891009D01*
X21412105Y6898519D01*
X21354915Y6927660D01*
X21319957Y6981491D01*
X21301305Y7038896D01*
X21283800Y7092771D01*
X21189154Y7256703D01*
X21181601Y7265091D01*
X21066841Y7392545D01*
X21066840Y7392546D01*
X21062492Y7397375D01*
X21057233Y7401196D01*
X21057232Y7401197D01*
X20914609Y7504818D01*
X20914608Y7504819D01*
X20909351Y7508638D01*
X20903413Y7511282D01*
X20742366Y7582986D01*
X20742361Y7582988D01*
X20736424Y7585631D01*
X20730065Y7586983D01*
X20730061Y7586984D01*
X20557629Y7623635D01*
X20557626Y7623636D01*
X20551267Y7624987D01*
X20361975Y7624987D01*
X20355616Y7623636D01*
X20355612Y7623635D01*
X20183180Y7586984D01*
X20183173Y7586982D01*
X20176818Y7585631D01*
X20170883Y7582989D01*
X20170875Y7582986D01*
X20009828Y7511282D01*
X20009823Y7511280D01*
X20003891Y7508638D01*
X19998637Y7504822D01*
X19998632Y7504818D01*
X19856008Y7401196D01*
X19856003Y7401192D01*
X19850750Y7397375D01*
X19846418Y7392564D01*
X19789235Y7363430D01*
X19725137Y7366790D01*
X19671307Y7401749D01*
X19588113Y7494145D01*
X19588112Y7494146D01*
X19583764Y7498975D01*
X19578506Y7502795D01*
X19578504Y7502797D01*
X19435881Y7606418D01*
X19435880Y7606419D01*
X19430623Y7610238D01*
X19424685Y7612882D01*
X19263638Y7684586D01*
X19263633Y7684588D01*
X19257696Y7687231D01*
X19251337Y7688583D01*
X19251333Y7688584D01*
X19078901Y7725235D01*
X19078898Y7725236D01*
X19072539Y7726587D01*
X18883247Y7726587D01*
X18876888Y7725236D01*
X18876884Y7725235D01*
X18704452Y7688584D01*
X18704445Y7688582D01*
X18698090Y7687231D01*
X18692155Y7684589D01*
X18692147Y7684586D01*
X18531100Y7612882D01*
X18531095Y7612880D01*
X18525163Y7610238D01*
X18519909Y7606422D01*
X18519904Y7606418D01*
X18377281Y7502797D01*
X18377274Y7502792D01*
X18372022Y7498975D01*
X18367677Y7494150D01*
X18367672Y7494145D01*
X18249706Y7363131D01*
X18249701Y7363125D01*
X18245360Y7358303D01*
X18242115Y7352683D01*
X18242111Y7352677D01*
X18153962Y7199998D01*
X18153959Y7199993D01*
X18150714Y7194371D01*
X18148708Y7188199D01*
X18148706Y7188193D01*
X18094226Y7020523D01*
X18094224Y7020514D01*
X18092219Y7014343D01*
X18091541Y7007893D01*
X18091539Y7007883D01*
X18079256Y6891009D01*
X18072433Y6826087D01*
X18073112Y6819627D01*
X18091539Y6644292D01*
X18091540Y6644284D01*
X18092219Y6637831D01*
X18094224Y6631659D01*
X18094226Y6631652D01*
X18146751Y6469999D01*
X18150714Y6457803D01*
X18153961Y6452179D01*
X18153962Y6452177D01*
X18189502Y6390619D01*
X18245360Y6293871D01*
X18249704Y6289046D01*
X18249706Y6289044D01*
X18367672Y6158030D01*
X18372022Y6153199D01*
X18525163Y6041936D01*
X18698090Y5964943D01*
X18883247Y5925587D01*
X19066036Y5925587D01*
X19072539Y5925587D01*
X19257696Y5964943D01*
X19430623Y6041936D01*
X19583764Y6153199D01*
X19588093Y6158008D01*
X19645272Y6187144D01*
X19709373Y6183785D01*
X19763206Y6148826D01*
X19833373Y6070898D01*
X19850750Y6051599D01*
X19936024Y5989644D01*
X19976901Y5938660D01*
X19986182Y5873972D01*
X19961287Y5813549D01*
X19909131Y5774173D01*
X19884825Y5764465D01*
X19875955Y5761308D01*
X19825669Y5745530D01*
X19825654Y5745524D01*
X19819670Y5743646D01*
X19814180Y5740600D01*
X19814173Y5740596D01*
X19793067Y5728882D01*
X19778898Y5722153D01*
X19756481Y5713198D01*
X19756471Y5713194D01*
X19750641Y5710864D01*
X19745398Y5707409D01*
X19745389Y5707404D01*
X19701381Y5678401D01*
X19693331Y5673524D01*
X19641756Y5644896D01*
X19636987Y5640803D01*
X19636984Y5640800D01*
X19618672Y5625080D01*
X19606145Y5615635D01*
X19585989Y5602351D01*
X19585977Y5602342D01*
X19580739Y5598889D01*
X19576297Y5594448D01*
X19576293Y5594444D01*
X19539032Y5557184D01*
X19532126Y5550783D01*
X19492131Y5516447D01*
X19492127Y5516444D01*
X19487363Y5512353D01*
X19483518Y5507387D01*
X19483516Y5507384D01*
X19468739Y5488294D01*
X19458365Y5476517D01*
X18671355Y4689504D01*
X18441157Y4459306D01*
X18400929Y4432426D01*
X18353476Y4422987D01*
X17559683Y4422987D01*
X17493973Y4441829D01*
X17448233Y4492629D01*
X17436362Y4559948D01*
X17444274Y4635227D01*
X17444953Y4641687D01*
X17425167Y4829943D01*
X17366672Y5009971D01*
X17272026Y5173903D01*
X17204342Y5249073D01*
X17149713Y5309745D01*
X17149712Y5309746D01*
X17145364Y5314575D01*
X17140106Y5318395D01*
X17140104Y5318397D01*
X16997481Y5422018D01*
X16997480Y5422019D01*
X16992223Y5425838D01*
X16986285Y5428482D01*
X16825238Y5500186D01*
X16825233Y5500188D01*
X16819296Y5502831D01*
X16812937Y5504183D01*
X16812933Y5504184D01*
X16640501Y5540835D01*
X16640498Y5540836D01*
X16634139Y5542187D01*
X16444847Y5542187D01*
X16438488Y5540836D01*
X16438484Y5540835D01*
X16266052Y5504184D01*
X16266045Y5504182D01*
X16259690Y5502831D01*
X16253755Y5500189D01*
X16253747Y5500186D01*
X16092700Y5428482D01*
X16092695Y5428480D01*
X16086763Y5425838D01*
X16081509Y5422022D01*
X16081504Y5422018D01*
X15938881Y5318397D01*
X15938874Y5318392D01*
X15933622Y5314575D01*
X15929277Y5309750D01*
X15929272Y5309745D01*
X15811306Y5178731D01*
X15811301Y5178725D01*
X15806960Y5173903D01*
X15803715Y5168283D01*
X15803711Y5168277D01*
X15715562Y5015598D01*
X15715559Y5015593D01*
X15712314Y5009971D01*
X15710308Y5003799D01*
X15710306Y5003793D01*
X15655826Y4836123D01*
X15655824Y4836114D01*
X15653819Y4829943D01*
X15653141Y4823493D01*
X15653139Y4823483D01*
X15637446Y4674157D01*
X15634033Y4641687D01*
X15634712Y4635227D01*
X15642624Y4559948D01*
X15630753Y4492629D01*
X15585013Y4441829D01*
X15519303Y4422987D01*
X9806442Y4422987D01*
X9742207Y4440922D01*
X9696553Y4489538D01*
X9682687Y4554772D01*
X9704619Y4617755D01*
X9756006Y4660266D01*
X9757928Y4661122D01*
X9778623Y4670336D01*
X9931764Y4781599D01*
X10058426Y4922271D01*
X10153072Y5086203D01*
X10211567Y5266231D01*
X10231353Y5454487D01*
X10219857Y5563863D01*
X10227414Y5621258D01*
X10260206Y5668971D01*
X10311084Y5696596D01*
X10361312Y5697911D01*
X10361429Y5699018D01*
X10367884Y5698340D01*
X10374247Y5696987D01*
X10557036Y5696987D01*
X10563539Y5696987D01*
X10748696Y5736343D01*
X10921623Y5813336D01*
X11074764Y5924599D01*
X11201426Y6065271D01*
X11296072Y6229203D01*
X11354567Y6409231D01*
X11374353Y6597487D01*
X11354567Y6785743D01*
X11296072Y6965771D01*
X11201426Y7129703D01*
X11125587Y7213930D01*
X11079113Y7265545D01*
X11079112Y7265546D01*
X11074764Y7270375D01*
X11069506Y7274195D01*
X11069504Y7274197D01*
X10926881Y7377818D01*
X10926880Y7377819D01*
X10921623Y7381638D01*
X10897126Y7392545D01*
X10754638Y7455986D01*
X10754633Y7455988D01*
X10748696Y7458631D01*
X10742337Y7459983D01*
X10742333Y7459984D01*
X10569901Y7496635D01*
X10569898Y7496636D01*
X10563539Y7497987D01*
X10374247Y7497987D01*
X10367888Y7496636D01*
X10367884Y7496635D01*
X10195452Y7459984D01*
X10195445Y7459982D01*
X10189090Y7458631D01*
X10177409Y7453430D01*
X10134528Y7434338D01*
X10074364Y7424000D01*
X10016558Y7443623D01*
X9975120Y7488450D01*
X9960093Y7547618D01*
X9960093Y8121487D01*
X24295433Y8121487D01*
X24296112Y8115027D01*
X24314539Y7939692D01*
X24314540Y7939684D01*
X24315219Y7933231D01*
X24317224Y7927059D01*
X24317226Y7927052D01*
X24367460Y7772450D01*
X24373714Y7753203D01*
X24376961Y7747579D01*
X24376962Y7747577D01*
X24456254Y7610238D01*
X24468360Y7589271D01*
X24472704Y7584446D01*
X24472706Y7584444D01*
X24559140Y7488450D01*
X24595022Y7448599D01*
X24600280Y7444779D01*
X24600281Y7444778D01*
X24660267Y7401196D01*
X24748163Y7337336D01*
X24830576Y7300643D01*
X24880458Y7260249D01*
X24903461Y7200326D01*
X24916035Y7080693D01*
X24921139Y7032134D01*
X24923144Y7025962D01*
X24923146Y7025955D01*
X24968292Y6887012D01*
X24979634Y6852106D01*
X24982881Y6846482D01*
X24982882Y6846480D01*
X25047529Y6734507D01*
X25074280Y6688174D01*
X25078624Y6683349D01*
X25078626Y6683347D01*
X25196592Y6552333D01*
X25200942Y6547502D01*
X25354083Y6436239D01*
X25527010Y6359246D01*
X25712167Y6319890D01*
X25894956Y6319890D01*
X25901459Y6319890D01*
X26086616Y6359246D01*
X26259543Y6436239D01*
X26412684Y6547502D01*
X26539346Y6688174D01*
X26633992Y6852106D01*
X26692487Y7032134D01*
X26712273Y7220390D01*
X26702557Y7312830D01*
X26710907Y7372239D01*
X26746173Y7420778D01*
X26800095Y7447077D01*
X26946797Y7478259D01*
X27119724Y7555252D01*
X27272865Y7666515D01*
X27399527Y7807187D01*
X27494173Y7971119D01*
X27552668Y8151147D01*
X27572454Y8339403D01*
X27552668Y8527659D01*
X27494173Y8707687D01*
X27476476Y8738338D01*
X27460544Y8787373D01*
X27465934Y8838654D01*
X27491713Y8883304D01*
X27584426Y8986271D01*
X27679072Y9150203D01*
X27737567Y9330231D01*
X27757353Y9518487D01*
X27745013Y9635898D01*
X27738246Y9700283D01*
X27738245Y9700284D01*
X27737567Y9706743D01*
X27679072Y9886771D01*
X27584426Y10050703D01*
X27457764Y10191375D01*
X27452506Y10195195D01*
X27452504Y10195197D01*
X27309881Y10298818D01*
X27309880Y10298819D01*
X27304623Y10302638D01*
X27295830Y10306553D01*
X27137638Y10376986D01*
X27137633Y10376988D01*
X27131696Y10379631D01*
X27125337Y10380983D01*
X27125333Y10380984D01*
X26952901Y10417635D01*
X26952898Y10417636D01*
X26946539Y10418987D01*
X26757247Y10418987D01*
X26750888Y10417636D01*
X26750884Y10417635D01*
X26578452Y10380984D01*
X26578445Y10380982D01*
X26572090Y10379631D01*
X26566155Y10376989D01*
X26566147Y10376986D01*
X26405100Y10305282D01*
X26405095Y10305280D01*
X26399163Y10302638D01*
X26393909Y10298822D01*
X26393904Y10298818D01*
X26251281Y10195197D01*
X26251274Y10195192D01*
X26246022Y10191375D01*
X26241677Y10186550D01*
X26241672Y10186545D01*
X26123706Y10055531D01*
X26123701Y10055525D01*
X26119360Y10050703D01*
X26116115Y10045083D01*
X26116111Y10045077D01*
X26027962Y9892398D01*
X26027959Y9892393D01*
X26024714Y9886771D01*
X26022708Y9880599D01*
X26022706Y9880593D01*
X25968226Y9712923D01*
X25968224Y9712914D01*
X25966219Y9706743D01*
X25965541Y9700293D01*
X25965539Y9700283D01*
X25951088Y9562782D01*
X25946433Y9518487D01*
X25947112Y9512027D01*
X25965539Y9336692D01*
X25965540Y9336684D01*
X25966219Y9330231D01*
X25968224Y9324059D01*
X25968226Y9324052D01*
X26022706Y9156382D01*
X26024714Y9150203D01*
X26027961Y9144579D01*
X26027962Y9144577D01*
X26042408Y9119556D01*
X26058342Y9070517D01*
X26052952Y9019238D01*
X26027171Y8974584D01*
X25949280Y8888077D01*
X25934461Y8871619D01*
X25931212Y8865993D01*
X25927392Y8860734D01*
X25925166Y8862351D01*
X25884842Y8823542D01*
X25818043Y8809415D01*
X25753892Y8832789D01*
X25658881Y8901818D01*
X25658880Y8901819D01*
X25653623Y8905638D01*
X25647685Y8908282D01*
X25486638Y8979986D01*
X25486633Y8979988D01*
X25480696Y8982631D01*
X25474337Y8983983D01*
X25474333Y8983984D01*
X25301901Y9020635D01*
X25301898Y9020636D01*
X25295539Y9021987D01*
X25106247Y9021987D01*
X25099888Y9020636D01*
X25099884Y9020635D01*
X24927452Y8983984D01*
X24927445Y8983982D01*
X24921090Y8982631D01*
X24915155Y8979989D01*
X24915147Y8979986D01*
X24754100Y8908282D01*
X24754095Y8908280D01*
X24748163Y8905638D01*
X24742909Y8901822D01*
X24742904Y8901818D01*
X24600281Y8798197D01*
X24600274Y8798192D01*
X24595022Y8794375D01*
X24590677Y8789550D01*
X24590672Y8789545D01*
X24472706Y8658531D01*
X24472701Y8658525D01*
X24468360Y8653703D01*
X24465115Y8648083D01*
X24465111Y8648077D01*
X24376962Y8495398D01*
X24376959Y8495393D01*
X24373714Y8489771D01*
X24371708Y8483599D01*
X24371706Y8483593D01*
X24317226Y8315923D01*
X24317224Y8315914D01*
X24315219Y8309743D01*
X24314541Y8303293D01*
X24314539Y8303283D01*
X24299229Y8157608D01*
X24295433Y8121487D01*
X9960093Y8121487D01*
X9960093Y9518487D01*
X12230433Y9518487D01*
X12231112Y9512027D01*
X12249539Y9336692D01*
X12249540Y9336684D01*
X12250219Y9330231D01*
X12252224Y9324059D01*
X12252226Y9324052D01*
X12306706Y9156382D01*
X12308714Y9150203D01*
X12311961Y9144579D01*
X12311962Y9144577D01*
X12384326Y9019238D01*
X12403360Y8986271D01*
X12407704Y8981446D01*
X12407706Y8981444D01*
X12502246Y8876447D01*
X12530022Y8845599D01*
X12535280Y8841779D01*
X12535281Y8841778D01*
X12599575Y8795066D01*
X12683163Y8734336D01*
X12856090Y8657343D01*
X13041247Y8617987D01*
X13224036Y8617987D01*
X13230539Y8617987D01*
X13415696Y8657343D01*
X13588623Y8734336D01*
X13741764Y8845599D01*
X13868426Y8986271D01*
X13963072Y9150203D01*
X14021567Y9330231D01*
X14041353Y9518487D01*
X14029013Y9635898D01*
X14022246Y9700283D01*
X14022245Y9700284D01*
X14021567Y9706743D01*
X13963072Y9886771D01*
X13941066Y9924887D01*
X15938833Y9924887D01*
X15939512Y9918427D01*
X15957939Y9743092D01*
X15957940Y9743084D01*
X15958619Y9736631D01*
X15960624Y9730459D01*
X15960626Y9730452D01*
X16015106Y9562782D01*
X16017114Y9556603D01*
X16020361Y9550979D01*
X16020362Y9550977D01*
X16082250Y9443783D01*
X16111760Y9392671D01*
X16116104Y9387846D01*
X16116106Y9387844D01*
X16223612Y9268447D01*
X16238422Y9251999D01*
X16391563Y9140736D01*
X16564490Y9063743D01*
X16749647Y9024387D01*
X16932436Y9024387D01*
X16938939Y9024387D01*
X17124096Y9063743D01*
X17297023Y9140736D01*
X17450164Y9251999D01*
X17576826Y9392671D01*
X17671472Y9556603D01*
X17729967Y9736631D01*
X17749753Y9924887D01*
X17729967Y10113143D01*
X17671472Y10293171D01*
X17576826Y10457103D01*
X17565214Y10469999D01*
X17454513Y10592945D01*
X17454512Y10592946D01*
X17450164Y10597775D01*
X17444906Y10601595D01*
X17444904Y10601597D01*
X17302281Y10705218D01*
X17302280Y10705219D01*
X17297023Y10709038D01*
X17280751Y10716283D01*
X17130038Y10783386D01*
X17130033Y10783388D01*
X17124096Y10786031D01*
X17117737Y10787383D01*
X17117733Y10787384D01*
X16945301Y10824035D01*
X16945298Y10824036D01*
X16938939Y10825387D01*
X16749647Y10825387D01*
X16743288Y10824036D01*
X16743284Y10824035D01*
X16570852Y10787384D01*
X16570845Y10787382D01*
X16564490Y10786031D01*
X16558555Y10783389D01*
X16558547Y10783386D01*
X16397500Y10711682D01*
X16397495Y10711680D01*
X16391563Y10709038D01*
X16386309Y10705222D01*
X16386304Y10705218D01*
X16243681Y10601597D01*
X16243674Y10601592D01*
X16238422Y10597775D01*
X16234077Y10592950D01*
X16234072Y10592945D01*
X16116106Y10461931D01*
X16116101Y10461925D01*
X16111760Y10457103D01*
X16108515Y10451483D01*
X16108511Y10451477D01*
X16020362Y10298798D01*
X16020359Y10298793D01*
X16017114Y10293171D01*
X16015108Y10286999D01*
X16015106Y10286993D01*
X15960626Y10119323D01*
X15960624Y10119314D01*
X15958619Y10113143D01*
X15957941Y10106693D01*
X15957939Y10106683D01*
X15940284Y9938697D01*
X15938833Y9924887D01*
X13941066Y9924887D01*
X13868426Y10050703D01*
X13741764Y10191375D01*
X13736506Y10195195D01*
X13736504Y10195197D01*
X13593881Y10298818D01*
X13593880Y10298819D01*
X13588623Y10302638D01*
X13579830Y10306553D01*
X13421638Y10376986D01*
X13421633Y10376988D01*
X13415696Y10379631D01*
X13409337Y10380983D01*
X13409333Y10380984D01*
X13236901Y10417635D01*
X13236898Y10417636D01*
X13230539Y10418987D01*
X13041247Y10418987D01*
X13034888Y10417636D01*
X13034884Y10417635D01*
X12862452Y10380984D01*
X12862445Y10380982D01*
X12856090Y10379631D01*
X12850155Y10376989D01*
X12850147Y10376986D01*
X12689100Y10305282D01*
X12689095Y10305280D01*
X12683163Y10302638D01*
X12677909Y10298822D01*
X12677904Y10298818D01*
X12535281Y10195197D01*
X12535274Y10195192D01*
X12530022Y10191375D01*
X12525677Y10186550D01*
X12525672Y10186545D01*
X12407706Y10055531D01*
X12407701Y10055525D01*
X12403360Y10050703D01*
X12400115Y10045083D01*
X12400111Y10045077D01*
X12311962Y9892398D01*
X12311959Y9892393D01*
X12308714Y9886771D01*
X12306708Y9880599D01*
X12306706Y9880593D01*
X12252226Y9712923D01*
X12252224Y9712914D01*
X12250219Y9706743D01*
X12249541Y9700293D01*
X12249539Y9700283D01*
X12235088Y9562782D01*
X12230433Y9518487D01*
X9960093Y9518487D01*
X9960093Y11806280D01*
X9961402Y11824251D01*
X9961890Y11827591D01*
X9964882Y11848010D01*
X9960564Y11897354D01*
X9960093Y11908160D01*
X9960093Y11910086D01*
X9960093Y11913696D01*
X9956491Y11944509D01*
X9956127Y11948072D01*
X9955312Y11957387D01*
X20256833Y11957387D01*
X20257512Y11950927D01*
X20275939Y11775592D01*
X20275940Y11775584D01*
X20276619Y11769131D01*
X20278624Y11762959D01*
X20278626Y11762952D01*
X20326370Y11616013D01*
X20335114Y11589103D01*
X20338361Y11583479D01*
X20338362Y11583477D01*
X20424092Y11434987D01*
X20429760Y11425171D01*
X20434104Y11420346D01*
X20434106Y11420344D01*
X20533423Y11310042D01*
X20556422Y11284499D01*
X20561680Y11280679D01*
X20561681Y11280678D01*
X20570410Y11274336D01*
X20709563Y11173236D01*
X20882490Y11096243D01*
X21067647Y11056887D01*
X21250436Y11056887D01*
X21256939Y11056887D01*
X21442096Y11096243D01*
X21615023Y11173236D01*
X21768164Y11284499D01*
X21894826Y11425171D01*
X21989472Y11589103D01*
X22047967Y11769131D01*
X22067753Y11957387D01*
X22057127Y12058487D01*
X26454433Y12058487D01*
X26455112Y12052027D01*
X26473539Y11876692D01*
X26473540Y11876684D01*
X26474219Y11870231D01*
X26476224Y11864059D01*
X26476226Y11864052D01*
X26530706Y11696382D01*
X26532714Y11690203D01*
X26535961Y11684579D01*
X26535962Y11684577D01*
X26621158Y11537012D01*
X26627360Y11526271D01*
X26631704Y11521446D01*
X26631706Y11521444D01*
X26746662Y11393773D01*
X26754022Y11385599D01*
X26759280Y11381779D01*
X26759281Y11381778D01*
X26784538Y11363428D01*
X26907163Y11274336D01*
X27080090Y11197343D01*
X27265247Y11157987D01*
X27448036Y11157987D01*
X27454539Y11157987D01*
X27639696Y11197343D01*
X27812623Y11274336D01*
X27965764Y11385599D01*
X28002163Y11426025D01*
X28049873Y11458816D01*
X28107273Y11466373D01*
X28161847Y11447047D01*
X28201699Y11405052D01*
X28274961Y11278157D01*
X28278360Y11272271D01*
X28282704Y11267446D01*
X28282706Y11267444D01*
X28405022Y11131599D01*
X28403763Y11130467D01*
X28424786Y11102556D01*
X28437025Y11056857D01*
X28431257Y11009900D01*
X28381226Y10855923D01*
X28381224Y10855914D01*
X28379219Y10849743D01*
X28378541Y10843293D01*
X28378539Y10843283D01*
X28364029Y10705218D01*
X28359433Y10661487D01*
X28360112Y10655027D01*
X28378539Y10479692D01*
X28378540Y10479684D01*
X28379219Y10473231D01*
X28381224Y10467059D01*
X28381226Y10467052D01*
X28433234Y10306991D01*
X28437714Y10293203D01*
X28440961Y10287579D01*
X28440962Y10287577D01*
X28522156Y10146944D01*
X28532360Y10129271D01*
X28536704Y10124446D01*
X28536706Y10124444D01*
X28651058Y9997444D01*
X28659022Y9988599D01*
X28812163Y9877336D01*
X28985090Y9800343D01*
X29170247Y9760987D01*
X29353036Y9760987D01*
X29359539Y9760987D01*
X29432667Y9776531D01*
X29496762Y9773172D01*
X29550594Y9738214D01*
X29579735Y9681023D01*
X29576376Y9616923D01*
X29524226Y9456423D01*
X29524224Y9456414D01*
X29522219Y9450243D01*
X29521540Y9443786D01*
X29521540Y9443784D01*
X29517170Y9402204D01*
X29494167Y9342281D01*
X29444284Y9301886D01*
X29380888Y9291845D01*
X29320964Y9314848D01*
X29221461Y9387141D01*
X29221460Y9387142D01*
X29216203Y9390961D01*
X29210265Y9393605D01*
X29049218Y9465309D01*
X29049213Y9465311D01*
X29043276Y9467954D01*
X29036917Y9469306D01*
X29036913Y9469307D01*
X28864481Y9505958D01*
X28864478Y9505959D01*
X28858119Y9507310D01*
X28668827Y9507310D01*
X28662468Y9505959D01*
X28662464Y9505958D01*
X28490032Y9469307D01*
X28490025Y9469305D01*
X28483670Y9467954D01*
X28477735Y9465312D01*
X28477727Y9465309D01*
X28316680Y9393605D01*
X28316675Y9393603D01*
X28310743Y9390961D01*
X28305489Y9387145D01*
X28305484Y9387141D01*
X28162861Y9283520D01*
X28162854Y9283515D01*
X28157602Y9279698D01*
X28153257Y9274873D01*
X28153252Y9274868D01*
X28035286Y9143854D01*
X28035281Y9143848D01*
X28030940Y9139026D01*
X28027695Y9133406D01*
X28027691Y9133400D01*
X27939542Y8980721D01*
X27939539Y8980716D01*
X27936294Y8975094D01*
X27934288Y8968922D01*
X27934286Y8968916D01*
X27879806Y8801246D01*
X27879804Y8801237D01*
X27877799Y8795066D01*
X27877121Y8788616D01*
X27877119Y8788606D01*
X27862724Y8651638D01*
X27858013Y8606810D01*
X27858692Y8600350D01*
X27877119Y8425015D01*
X27877120Y8425007D01*
X27877799Y8418554D01*
X27879804Y8412382D01*
X27879806Y8412375D01*
X27934286Y8244705D01*
X27936294Y8238526D01*
X27939541Y8232902D01*
X27939542Y8232900D01*
X28000136Y8127947D01*
X28030940Y8074594D01*
X28035284Y8069769D01*
X28035286Y8069767D01*
X28148794Y7943704D01*
X28157602Y7933922D01*
X28310743Y7822659D01*
X28483670Y7745666D01*
X28668827Y7706310D01*
X28675330Y7706310D01*
X28781272Y7706310D01*
X28843272Y7689697D01*
X28888659Y7644311D01*
X28905272Y7582311D01*
X28888660Y7520311D01*
X28883976Y7512198D01*
X28869514Y7487149D01*
X28867508Y7480977D01*
X28867506Y7480971D01*
X28813026Y7313301D01*
X28813024Y7313292D01*
X28811019Y7307121D01*
X28810341Y7300671D01*
X28810339Y7300661D01*
X28798791Y7190778D01*
X28791233Y7118865D01*
X28791912Y7112405D01*
X28810339Y6937070D01*
X28810340Y6937062D01*
X28811019Y6930609D01*
X28813024Y6924437D01*
X28813026Y6924430D01*
X28850583Y6808844D01*
X28869514Y6750581D01*
X28872761Y6744957D01*
X28872762Y6744955D01*
X28957902Y6597487D01*
X28964160Y6586649D01*
X28968504Y6581824D01*
X28968506Y6581822D01*
X29060574Y6479571D01*
X29090822Y6445977D01*
X29096080Y6442157D01*
X29096081Y6442156D01*
X29132506Y6415692D01*
X29243963Y6334714D01*
X29399816Y6265323D01*
X29404085Y6263422D01*
X29416890Y6257721D01*
X29602047Y6218365D01*
X29784836Y6218365D01*
X29791339Y6218365D01*
X29976496Y6257721D01*
X30149423Y6334714D01*
X30302564Y6445977D01*
X30429226Y6586649D01*
X30510862Y6728047D01*
X33664473Y6728047D01*
X33665152Y6721587D01*
X33683579Y6546252D01*
X33683580Y6546244D01*
X33684259Y6539791D01*
X33686264Y6533619D01*
X33686266Y6533612D01*
X33732728Y6390619D01*
X33742754Y6359763D01*
X33746001Y6354139D01*
X33746002Y6354137D01*
X33818132Y6229203D01*
X33837400Y6195831D01*
X33841744Y6191006D01*
X33841746Y6191004D01*
X33954957Y6065271D01*
X33964062Y6055159D01*
X34117203Y5943896D01*
X34290130Y5866903D01*
X34475287Y5827547D01*
X34658076Y5827547D01*
X34664579Y5827547D01*
X34849736Y5866903D01*
X35022663Y5943896D01*
X35175804Y6055159D01*
X35302466Y6195831D01*
X35397112Y6359763D01*
X35455607Y6539791D01*
X35461671Y6597487D01*
X39408433Y6597487D01*
X39409112Y6591027D01*
X39427539Y6415692D01*
X39427540Y6415684D01*
X39428219Y6409231D01*
X39430224Y6403059D01*
X39430226Y6403052D01*
X39476588Y6260367D01*
X39486714Y6229203D01*
X39489961Y6223579D01*
X39489962Y6223577D01*
X39560599Y6101229D01*
X39581360Y6065271D01*
X39585704Y6060446D01*
X39585706Y6060444D01*
X39693852Y5940336D01*
X39708022Y5924599D01*
X39713280Y5920779D01*
X39713281Y5920778D01*
X39735784Y5904429D01*
X39861163Y5813336D01*
X40034090Y5736343D01*
X40219247Y5696987D01*
X40402036Y5696987D01*
X40408539Y5696987D01*
X40593696Y5736343D01*
X40766623Y5813336D01*
X40919764Y5924599D01*
X41046426Y6065271D01*
X41141072Y6229203D01*
X41199567Y6409231D01*
X41219353Y6597487D01*
X41199567Y6785743D01*
X41141072Y6965771D01*
X41079592Y7072258D01*
X41063189Y7127049D01*
X41073121Y7183373D01*
X41107275Y7229249D01*
X41158385Y7254916D01*
X41215576Y7254916D01*
X41242698Y7248487D01*
X41369749Y7248487D01*
X41373348Y7248487D01*
X41503104Y7263653D01*
X41666977Y7323298D01*
X41812677Y7419127D01*
X41932351Y7545974D01*
X42019546Y7697000D01*
X42022739Y7707663D01*
X42030225Y7732671D01*
X42036990Y7755271D01*
X42073022Y7812049D01*
X42133395Y7841671D01*
X42200352Y7835421D01*
X42254200Y7795138D01*
X42279102Y7732671D01*
X42279884Y7725235D01*
X42284719Y7679231D01*
X42286724Y7673059D01*
X42286726Y7673052D01*
X42339289Y7511282D01*
X42343214Y7499203D01*
X42346461Y7493579D01*
X42346462Y7493577D01*
X42434609Y7340901D01*
X42437860Y7335271D01*
X42442204Y7330446D01*
X42442206Y7330444D01*
X42547116Y7213930D01*
X42564522Y7194599D01*
X42717663Y7083336D01*
X42890590Y7006343D01*
X43075747Y6966987D01*
X43258536Y6966987D01*
X43265039Y6966987D01*
X43450196Y7006343D01*
X43623123Y7083336D01*
X43776264Y7194599D01*
X43902926Y7335271D01*
X43997572Y7499203D01*
X44056067Y7679231D01*
X44075853Y7867487D01*
X44063885Y7981362D01*
X44056746Y8049283D01*
X44056745Y8049284D01*
X44056067Y8055743D01*
X43997572Y8235771D01*
X43902926Y8399703D01*
X43885952Y8418554D01*
X43780613Y8535545D01*
X43780612Y8535546D01*
X43776264Y8540375D01*
X43771006Y8544195D01*
X43771004Y8544197D01*
X43628381Y8647818D01*
X43628380Y8647819D01*
X43623123Y8651638D01*
X43617185Y8654282D01*
X43456138Y8725986D01*
X43456133Y8725988D01*
X43450196Y8728631D01*
X43443837Y8729983D01*
X43443833Y8729984D01*
X43271401Y8766635D01*
X43271398Y8766636D01*
X43265039Y8767987D01*
X43075747Y8767987D01*
X43069388Y8766636D01*
X43069384Y8766635D01*
X42896952Y8729984D01*
X42896945Y8729982D01*
X42890590Y8728631D01*
X42884655Y8725989D01*
X42884647Y8725986D01*
X42723600Y8654282D01*
X42723595Y8654280D01*
X42717663Y8651638D01*
X42712409Y8647822D01*
X42712404Y8647818D01*
X42569781Y8544197D01*
X42569774Y8544192D01*
X42564522Y8540375D01*
X42560177Y8535550D01*
X42560172Y8535545D01*
X42442206Y8404531D01*
X42442201Y8404525D01*
X42437860Y8399703D01*
X42434615Y8394083D01*
X42434611Y8394077D01*
X42346462Y8241398D01*
X42346459Y8241393D01*
X42343214Y8235771D01*
X42341209Y8229602D01*
X42341207Y8229596D01*
X42303497Y8113536D01*
X42267892Y8059128D01*
X42209650Y8030216D01*
X42144786Y8034753D01*
X42091135Y8071489D01*
X42063450Y8130323D01*
X42063185Y8131825D01*
X42049419Y8209899D01*
X41980346Y8370026D01*
X41876208Y8509909D01*
X41870681Y8514546D01*
X41870679Y8514549D01*
X41768424Y8600350D01*
X41742618Y8622004D01*
X41691218Y8647818D01*
X41593227Y8697031D01*
X41593224Y8697032D01*
X41586777Y8700270D01*
X41579752Y8701935D01*
X41424115Y8738822D01*
X41424111Y8738823D01*
X41417088Y8740487D01*
X41286438Y8740487D01*
X41282873Y8740071D01*
X41282867Y8740070D01*
X41163849Y8726159D01*
X41163846Y8726159D01*
X41156682Y8725321D01*
X41149903Y8722854D01*
X41149900Y8722853D01*
X40999594Y8668146D01*
X40999590Y8668145D01*
X40992809Y8665676D01*
X40986779Y8661711D01*
X40986773Y8661707D01*
X40853145Y8573818D01*
X40853139Y8573814D01*
X40847109Y8569847D01*
X40842156Y8564598D01*
X40842151Y8564593D01*
X40732392Y8448255D01*
X40732388Y8448251D01*
X40727435Y8443000D01*
X40723825Y8436750D01*
X40723823Y8436745D01*
X40643850Y8298228D01*
X40643847Y8298223D01*
X40640240Y8291974D01*
X40638170Y8285062D01*
X40638169Y8285058D01*
X40592295Y8131825D01*
X40590225Y8124910D01*
X40589805Y8117705D01*
X40589805Y8117703D01*
X40580504Y7958026D01*
X40580504Y7958018D01*
X40580085Y7950816D01*
X40581338Y7943705D01*
X40581339Y7943704D01*
X40609112Y7786187D01*
X40609114Y7786179D01*
X40610367Y7779075D01*
X40669209Y7642666D01*
X40678143Y7576295D01*
X40651261Y7514958D01*
X40596403Y7476545D01*
X40529570Y7472262D01*
X40414904Y7496635D01*
X40414895Y7496636D01*
X40408539Y7497987D01*
X40219247Y7497987D01*
X40212888Y7496636D01*
X40212884Y7496635D01*
X40040452Y7459984D01*
X40040445Y7459982D01*
X40034090Y7458631D01*
X40028155Y7455989D01*
X40028147Y7455986D01*
X39867100Y7384282D01*
X39867095Y7384280D01*
X39861163Y7381638D01*
X39855909Y7377822D01*
X39855904Y7377818D01*
X39713281Y7274197D01*
X39713274Y7274192D01*
X39708022Y7270375D01*
X39703677Y7265550D01*
X39703672Y7265545D01*
X39585706Y7134531D01*
X39585701Y7134525D01*
X39581360Y7129703D01*
X39578115Y7124083D01*
X39578111Y7124077D01*
X39489962Y6971398D01*
X39489959Y6971393D01*
X39486714Y6965771D01*
X39484708Y6959599D01*
X39484706Y6959593D01*
X39430226Y6791923D01*
X39430224Y6791914D01*
X39428219Y6785743D01*
X39427541Y6779293D01*
X39427539Y6779283D01*
X39418193Y6690354D01*
X39408433Y6597487D01*
X35461671Y6597487D01*
X35475393Y6728047D01*
X35455607Y6916303D01*
X35397112Y7096331D01*
X35302466Y7260263D01*
X35291315Y7272647D01*
X35180153Y7396105D01*
X35180152Y7396106D01*
X35175804Y7400935D01*
X35170546Y7404755D01*
X35170544Y7404757D01*
X35027921Y7508378D01*
X35027920Y7508379D01*
X35022663Y7512198D01*
X35016464Y7514958D01*
X34855678Y7586546D01*
X34855673Y7586548D01*
X34849736Y7589191D01*
X34843377Y7590543D01*
X34843373Y7590544D01*
X34670941Y7627195D01*
X34670938Y7627196D01*
X34664579Y7628547D01*
X34475287Y7628547D01*
X34468928Y7627196D01*
X34468924Y7627195D01*
X34296492Y7590544D01*
X34296485Y7590542D01*
X34290130Y7589191D01*
X34284195Y7586549D01*
X34284187Y7586546D01*
X34123140Y7514842D01*
X34123135Y7514840D01*
X34117203Y7512198D01*
X34111949Y7508382D01*
X34111944Y7508378D01*
X33969321Y7404757D01*
X33969314Y7404752D01*
X33964062Y7400935D01*
X33959717Y7396110D01*
X33959712Y7396105D01*
X33841746Y7265091D01*
X33841741Y7265085D01*
X33837400Y7260263D01*
X33834155Y7254643D01*
X33834151Y7254637D01*
X33746002Y7101958D01*
X33745999Y7101953D01*
X33742754Y7096331D01*
X33740748Y7090159D01*
X33740746Y7090153D01*
X33686266Y6922483D01*
X33686264Y6922474D01*
X33684259Y6916303D01*
X33683581Y6909853D01*
X33683579Y6909843D01*
X33671186Y6791923D01*
X33664473Y6728047D01*
X30510862Y6728047D01*
X30523872Y6750581D01*
X30582367Y6930609D01*
X30602153Y7118865D01*
X30582367Y7307121D01*
X30523872Y7487149D01*
X30429226Y7651081D01*
X30402172Y7681127D01*
X30306913Y7786923D01*
X30306912Y7786924D01*
X30302564Y7791753D01*
X30297306Y7795573D01*
X30297304Y7795575D01*
X30154681Y7899196D01*
X30154680Y7899197D01*
X30149423Y7903016D01*
X30143485Y7905660D01*
X29982438Y7977364D01*
X29982433Y7977366D01*
X29976496Y7980009D01*
X29970137Y7981361D01*
X29970133Y7981362D01*
X29797701Y8018013D01*
X29797698Y8018014D01*
X29791339Y8019365D01*
X29678894Y8019365D01*
X29616894Y8035978D01*
X29571507Y8081364D01*
X29554894Y8143364D01*
X29571506Y8205364D01*
X29574124Y8209899D01*
X29590652Y8238526D01*
X29649147Y8418554D01*
X29654196Y8466594D01*
X29677197Y8526516D01*
X29727079Y8566911D01*
X29790477Y8576953D01*
X29850400Y8553951D01*
X29955163Y8477836D01*
X30128090Y8400843D01*
X30313247Y8361487D01*
X30496036Y8361487D01*
X30502539Y8361487D01*
X30687696Y8400843D01*
X30860623Y8477836D01*
X31013764Y8589099D01*
X31140426Y8729771D01*
X31235072Y8893703D01*
X31293567Y9073731D01*
X31313353Y9261987D01*
X31293567Y9450243D01*
X31235072Y9630271D01*
X31140426Y9794203D01*
X31065572Y9877336D01*
X31018113Y9930045D01*
X31018112Y9930046D01*
X31013764Y9934875D01*
X31008506Y9938695D01*
X31008504Y9938697D01*
X30865881Y10042318D01*
X30865880Y10042319D01*
X30860623Y10046138D01*
X30850370Y10050703D01*
X30693638Y10120486D01*
X30693633Y10120488D01*
X30687696Y10123131D01*
X30681337Y10124483D01*
X30681333Y10124484D01*
X30508901Y10161135D01*
X30508898Y10161136D01*
X30502539Y10162487D01*
X30313247Y10162487D01*
X30306891Y10161137D01*
X30306881Y10161135D01*
X30240120Y10146944D01*
X30176021Y10150303D01*
X30122190Y10185262D01*
X30093050Y10242453D01*
X30096408Y10306551D01*
X30150567Y10473231D01*
X30170353Y10661487D01*
X30150567Y10849743D01*
X30092072Y11029771D01*
X29997426Y11193703D01*
X29972062Y11221872D01*
X29870764Y11334375D01*
X29872020Y11335507D01*
X29850995Y11363428D01*
X29838760Y11409124D01*
X29844527Y11456071D01*
X29887904Y11589568D01*
X35090433Y11589568D01*
X35091112Y11583108D01*
X35109539Y11407773D01*
X35109540Y11407765D01*
X35110219Y11401312D01*
X35112224Y11395140D01*
X35112226Y11395133D01*
X35154621Y11264656D01*
X35168714Y11221284D01*
X35171961Y11215660D01*
X35171962Y11215658D01*
X35239378Y11098889D01*
X35263360Y11057352D01*
X35267704Y11052527D01*
X35267706Y11052525D01*
X35337463Y10975052D01*
X35390022Y10916680D01*
X35395280Y10912860D01*
X35395281Y10912859D01*
X35437122Y10882460D01*
X35543163Y10805417D01*
X35716090Y10728424D01*
X35901247Y10689068D01*
X36084036Y10689068D01*
X36090539Y10689068D01*
X36275696Y10728424D01*
X36448623Y10805417D01*
X36601764Y10916680D01*
X36728426Y11057352D01*
X36823072Y11221284D01*
X36881567Y11401312D01*
X36901353Y11589568D01*
X36881567Y11777824D01*
X36823072Y11957852D01*
X36728426Y12121784D01*
X36708622Y12143778D01*
X36606113Y12257626D01*
X36606112Y12257627D01*
X36601764Y12262456D01*
X36596506Y12266276D01*
X36596504Y12266278D01*
X36453881Y12369899D01*
X36453880Y12369900D01*
X36448623Y12373719D01*
X36387734Y12400829D01*
X36281638Y12448067D01*
X36281633Y12448069D01*
X36275696Y12450712D01*
X36269337Y12452064D01*
X36269333Y12452065D01*
X36096901Y12488716D01*
X36096898Y12488717D01*
X36090539Y12490068D01*
X35901247Y12490068D01*
X35894888Y12488717D01*
X35894884Y12488716D01*
X35722452Y12452065D01*
X35722445Y12452063D01*
X35716090Y12450712D01*
X35710155Y12448070D01*
X35710147Y12448067D01*
X35549100Y12376363D01*
X35549095Y12376361D01*
X35543163Y12373719D01*
X35537909Y12369903D01*
X35537904Y12369899D01*
X35395281Y12266278D01*
X35395274Y12266273D01*
X35390022Y12262456D01*
X35385677Y12257631D01*
X35385672Y12257626D01*
X35267706Y12126612D01*
X35267701Y12126606D01*
X35263360Y12121784D01*
X35260115Y12116164D01*
X35260111Y12116158D01*
X35171962Y11963479D01*
X35171959Y11963474D01*
X35168714Y11957852D01*
X35166708Y11951680D01*
X35166706Y11951674D01*
X35112226Y11784004D01*
X35112224Y11783995D01*
X35110219Y11777824D01*
X35109541Y11771374D01*
X35109539Y11771364D01*
X35093914Y11622692D01*
X35090433Y11589568D01*
X29887904Y11589568D01*
X29896567Y11616231D01*
X29916353Y11804487D01*
X29901262Y11948072D01*
X29897246Y11986283D01*
X29897245Y11986284D01*
X29896567Y11992743D01*
X29838072Y12172771D01*
X29743426Y12336703D01*
X29716110Y12367040D01*
X29621113Y12472545D01*
X29621110Y12472548D01*
X29616764Y12477375D01*
X29611506Y12481195D01*
X29611504Y12481197D01*
X29468881Y12584818D01*
X29468880Y12584819D01*
X29463623Y12588638D01*
X29450237Y12594598D01*
X29296638Y12662986D01*
X29296633Y12662988D01*
X29290696Y12665631D01*
X29284337Y12666983D01*
X29284333Y12666984D01*
X29111901Y12703635D01*
X29111898Y12703636D01*
X29105539Y12704987D01*
X28916247Y12704987D01*
X28909888Y12703636D01*
X28909884Y12703635D01*
X28737452Y12666984D01*
X28737445Y12666982D01*
X28731090Y12665631D01*
X28725155Y12662989D01*
X28725147Y12662986D01*
X28564100Y12591282D01*
X28564095Y12591280D01*
X28558163Y12588638D01*
X28552909Y12584822D01*
X28552904Y12584818D01*
X28410281Y12481197D01*
X28410274Y12481192D01*
X28405022Y12477375D01*
X28387921Y12458382D01*
X28368622Y12436949D01*
X28320909Y12404159D01*
X28263510Y12396602D01*
X28208937Y12415928D01*
X28169086Y12457923D01*
X28160642Y12472548D01*
X28092426Y12590703D01*
X28083607Y12600497D01*
X27970113Y12726545D01*
X27970112Y12726546D01*
X27965764Y12731375D01*
X27960506Y12735195D01*
X27960504Y12735197D01*
X27843112Y12820487D01*
X37757433Y12820487D01*
X37758112Y12814027D01*
X37776539Y12638692D01*
X37776540Y12638684D01*
X37777219Y12632231D01*
X37779224Y12626059D01*
X37779226Y12626052D01*
X37823562Y12489603D01*
X37835714Y12452203D01*
X37838961Y12446579D01*
X37838962Y12446577D01*
X37898768Y12342989D01*
X37930360Y12288271D01*
X37934704Y12283446D01*
X37934706Y12283444D01*
X37992206Y12219584D01*
X38057022Y12147599D01*
X38210163Y12036336D01*
X38240599Y12022785D01*
X38250910Y12018194D01*
X38296840Y11982950D01*
X38321764Y11930696D01*
X38320249Y11872822D01*
X38292624Y11821943D01*
X38202464Y11721810D01*
X38184360Y11701703D01*
X38181115Y11696083D01*
X38181111Y11696077D01*
X38092962Y11543398D01*
X38092959Y11543393D01*
X38089714Y11537771D01*
X38087708Y11531599D01*
X38087706Y11531593D01*
X38033226Y11363923D01*
X38033224Y11363914D01*
X38031219Y11357743D01*
X38030541Y11351293D01*
X38030539Y11351283D01*
X38014361Y11197343D01*
X38011433Y11169487D01*
X38012112Y11163027D01*
X38030539Y10987692D01*
X38030540Y10987684D01*
X38031219Y10981231D01*
X38033224Y10975059D01*
X38033226Y10975052D01*
X38077360Y10839223D01*
X38089714Y10801203D01*
X38092961Y10795579D01*
X38092962Y10795577D01*
X38174108Y10655027D01*
X38184360Y10637271D01*
X38188704Y10632446D01*
X38188706Y10632444D01*
X38303420Y10505042D01*
X38311022Y10496599D01*
X38316280Y10492779D01*
X38316281Y10492778D01*
X38343185Y10473231D01*
X38464163Y10385336D01*
X38637090Y10308343D01*
X38822247Y10268987D01*
X39005036Y10268987D01*
X39011539Y10268987D01*
X39196696Y10308343D01*
X39369623Y10385336D01*
X39522764Y10496599D01*
X39556879Y10534487D01*
X42710433Y10534487D01*
X42711112Y10528027D01*
X42729539Y10352692D01*
X42729540Y10352684D01*
X42730219Y10346231D01*
X42732224Y10340059D01*
X42732226Y10340052D01*
X42779293Y10195197D01*
X42788714Y10166203D01*
X42791961Y10160579D01*
X42791962Y10160577D01*
X42815108Y10120486D01*
X42883360Y10002271D01*
X43010022Y9861599D01*
X43163163Y9750336D01*
X43336090Y9673343D01*
X43521247Y9633987D01*
X43704036Y9633987D01*
X43710539Y9633987D01*
X43895696Y9673343D01*
X44068623Y9750336D01*
X44221764Y9861599D01*
X44348426Y10002271D01*
X44443072Y10166203D01*
X44501567Y10346231D01*
X44521353Y10534487D01*
X44501567Y10722743D01*
X44443072Y10902771D01*
X44348426Y11066703D01*
X44337401Y11078947D01*
X44226113Y11202545D01*
X44226112Y11202546D01*
X44221764Y11207375D01*
X44216506Y11211195D01*
X44216504Y11211197D01*
X44073881Y11314818D01*
X44073880Y11314819D01*
X44068623Y11318638D01*
X44033278Y11334375D01*
X43901638Y11392986D01*
X43901633Y11392988D01*
X43895696Y11395631D01*
X43889337Y11396983D01*
X43889333Y11396984D01*
X43716901Y11433635D01*
X43716898Y11433636D01*
X43710539Y11434987D01*
X43521247Y11434987D01*
X43514888Y11433636D01*
X43514884Y11433635D01*
X43342452Y11396984D01*
X43342445Y11396982D01*
X43336090Y11395631D01*
X43330155Y11392989D01*
X43330147Y11392986D01*
X43169100Y11321282D01*
X43169095Y11321280D01*
X43163163Y11318638D01*
X43157909Y11314822D01*
X43157904Y11314818D01*
X43015281Y11211197D01*
X43015274Y11211192D01*
X43010022Y11207375D01*
X43005677Y11202550D01*
X43005672Y11202545D01*
X42887706Y11071531D01*
X42887701Y11071525D01*
X42883360Y11066703D01*
X42880115Y11061083D01*
X42880111Y11061077D01*
X42791962Y10908398D01*
X42791959Y10908393D01*
X42788714Y10902771D01*
X42786708Y10896599D01*
X42786706Y10896593D01*
X42732226Y10728923D01*
X42732224Y10728914D01*
X42730219Y10722743D01*
X42729541Y10716293D01*
X42729539Y10716283D01*
X42716577Y10592945D01*
X42710433Y10534487D01*
X39556879Y10534487D01*
X39649426Y10637271D01*
X39744072Y10801203D01*
X39802567Y10981231D01*
X39822353Y11169487D01*
X39807580Y11310042D01*
X39803246Y11351283D01*
X39803245Y11351284D01*
X39802567Y11357743D01*
X39744072Y11537771D01*
X39649426Y11701703D01*
X39624126Y11729801D01*
X39527113Y11837545D01*
X39527112Y11837546D01*
X39522764Y11842375D01*
X39517506Y11846195D01*
X39517504Y11846197D01*
X39374881Y11949818D01*
X39374880Y11949819D01*
X39369623Y11953638D01*
X39361203Y11957387D01*
X39328874Y11971781D01*
X39282944Y12007026D01*
X39258020Y12059280D01*
X39259536Y12117155D01*
X39287160Y12168031D01*
X39395426Y12288271D01*
X39490072Y12452203D01*
X39524730Y12558870D01*
X39561856Y12614607D01*
X39622551Y12642910D01*
X39689113Y12635522D01*
X39742124Y12594599D01*
X39768578Y12559065D01*
X39774103Y12554429D01*
X39774106Y12554426D01*
X39804886Y12528599D01*
X39902168Y12446970D01*
X40058009Y12368704D01*
X40227698Y12328487D01*
X40354749Y12328487D01*
X40358348Y12328487D01*
X40488104Y12343653D01*
X40651977Y12403298D01*
X40797677Y12499127D01*
X40917351Y12625974D01*
X41004546Y12777000D01*
X41054561Y12944064D01*
X41059614Y13030816D01*
X41595085Y13030816D01*
X41596338Y13023705D01*
X41596339Y13023704D01*
X41624112Y12866187D01*
X41624114Y12866179D01*
X41625367Y12859075D01*
X41628224Y12852450D01*
X41628226Y12852446D01*
X41691580Y12705577D01*
X41694440Y12698948D01*
X41698748Y12693161D01*
X41698750Y12693158D01*
X41749160Y12625445D01*
X41798578Y12559065D01*
X41804103Y12554429D01*
X41804106Y12554426D01*
X41834886Y12528599D01*
X41932168Y12446970D01*
X42088009Y12368704D01*
X42257698Y12328487D01*
X42384749Y12328487D01*
X42388348Y12328487D01*
X42518104Y12343653D01*
X42681977Y12403298D01*
X42827677Y12499127D01*
X42947351Y12625974D01*
X43034546Y12777000D01*
X43084561Y12944064D01*
X43094701Y13118158D01*
X43064419Y13289899D01*
X42995346Y13450026D01*
X42891208Y13589909D01*
X42885681Y13594546D01*
X42885679Y13594549D01*
X42784988Y13679038D01*
X42757618Y13702004D01*
X42745076Y13708303D01*
X42608227Y13777031D01*
X42608224Y13777032D01*
X42601777Y13780270D01*
X42594752Y13781935D01*
X42439115Y13818822D01*
X42439111Y13818823D01*
X42432088Y13820487D01*
X42301438Y13820487D01*
X42297873Y13820071D01*
X42297867Y13820070D01*
X42178849Y13806159D01*
X42178846Y13806159D01*
X42171682Y13805321D01*
X42164903Y13802854D01*
X42164900Y13802853D01*
X42014594Y13748146D01*
X42014590Y13748145D01*
X42007809Y13745676D01*
X42001779Y13741711D01*
X42001773Y13741707D01*
X41868145Y13653818D01*
X41868139Y13653814D01*
X41862109Y13649847D01*
X41857156Y13644598D01*
X41857151Y13644593D01*
X41747392Y13528255D01*
X41747388Y13528251D01*
X41742435Y13523000D01*
X41738825Y13516750D01*
X41738823Y13516745D01*
X41658850Y13378228D01*
X41658847Y13378223D01*
X41655240Y13371974D01*
X41653170Y13365062D01*
X41653169Y13365058D01*
X41614175Y13234805D01*
X41605225Y13204910D01*
X41604805Y13197705D01*
X41604805Y13197703D01*
X41595504Y13038026D01*
X41595504Y13038018D01*
X41595085Y13030816D01*
X41059614Y13030816D01*
X41064701Y13118158D01*
X41034419Y13289899D01*
X40965346Y13450026D01*
X40861208Y13589909D01*
X40855681Y13594546D01*
X40855679Y13594549D01*
X40754988Y13679038D01*
X40727618Y13702004D01*
X40715076Y13708303D01*
X40578227Y13777031D01*
X40578224Y13777032D01*
X40571777Y13780270D01*
X40564752Y13781935D01*
X40409115Y13818822D01*
X40409111Y13818823D01*
X40402088Y13820487D01*
X40271438Y13820487D01*
X40267873Y13820071D01*
X40267867Y13820070D01*
X40148849Y13806159D01*
X40148846Y13806159D01*
X40141682Y13805321D01*
X40134903Y13802854D01*
X40134900Y13802853D01*
X39984594Y13748146D01*
X39984590Y13748145D01*
X39977809Y13745676D01*
X39971779Y13741711D01*
X39971773Y13741707D01*
X39838145Y13653818D01*
X39838139Y13653814D01*
X39832109Y13649847D01*
X39827156Y13644598D01*
X39827151Y13644593D01*
X39717392Y13528255D01*
X39717388Y13528251D01*
X39712435Y13523000D01*
X39708825Y13516750D01*
X39708823Y13516745D01*
X39628851Y13378230D01*
X39628848Y13378224D01*
X39625240Y13371974D01*
X39623169Y13365059D01*
X39620521Y13358918D01*
X39577784Y13306457D01*
X39513869Y13284244D01*
X39447809Y13298891D01*
X39403137Y13342285D01*
X39402495Y13341818D01*
X39399803Y13345524D01*
X39399275Y13346036D01*
X39395426Y13352703D01*
X39384301Y13365058D01*
X39273113Y13488545D01*
X39273112Y13488546D01*
X39268764Y13493375D01*
X39263506Y13497195D01*
X39263504Y13497197D01*
X39120881Y13600818D01*
X39120880Y13600819D01*
X39115623Y13604638D01*
X39109685Y13607282D01*
X38948638Y13678986D01*
X38948633Y13678988D01*
X38942696Y13681631D01*
X38936337Y13682983D01*
X38936333Y13682984D01*
X38763901Y13719635D01*
X38763898Y13719636D01*
X38757539Y13720987D01*
X38568247Y13720987D01*
X38561888Y13719636D01*
X38561884Y13719635D01*
X38389452Y13682984D01*
X38389445Y13682982D01*
X38383090Y13681631D01*
X38377155Y13678989D01*
X38377147Y13678986D01*
X38216100Y13607282D01*
X38216095Y13607280D01*
X38210163Y13604638D01*
X38204909Y13600822D01*
X38204904Y13600818D01*
X38062281Y13497197D01*
X38062274Y13497192D01*
X38057022Y13493375D01*
X38052677Y13488550D01*
X38052672Y13488545D01*
X37934706Y13357531D01*
X37934701Y13357525D01*
X37930360Y13352703D01*
X37927116Y13347084D01*
X37927111Y13347077D01*
X37838962Y13194398D01*
X37838959Y13194393D01*
X37835714Y13188771D01*
X37833708Y13182599D01*
X37833706Y13182593D01*
X37779226Y13014923D01*
X37779224Y13014914D01*
X37777219Y13008743D01*
X37776541Y13002293D01*
X37776539Y13002283D01*
X37769694Y12937150D01*
X37757433Y12820487D01*
X27843112Y12820487D01*
X27817881Y12838818D01*
X27817880Y12838819D01*
X27812623Y12842638D01*
X27806685Y12845282D01*
X27645638Y12916986D01*
X27645633Y12916988D01*
X27639696Y12919631D01*
X27633337Y12920983D01*
X27633333Y12920984D01*
X27460901Y12957635D01*
X27460898Y12957636D01*
X27454539Y12958987D01*
X27265247Y12958987D01*
X27258888Y12957636D01*
X27258884Y12957635D01*
X27086452Y12920984D01*
X27086445Y12920982D01*
X27080090Y12919631D01*
X27074155Y12916989D01*
X27074147Y12916986D01*
X26913100Y12845282D01*
X26913095Y12845280D01*
X26907163Y12842638D01*
X26901909Y12838822D01*
X26901904Y12838818D01*
X26759281Y12735197D01*
X26759274Y12735192D01*
X26754022Y12731375D01*
X26749677Y12726550D01*
X26749672Y12726545D01*
X26631706Y12595531D01*
X26631701Y12595525D01*
X26627360Y12590703D01*
X26624115Y12585083D01*
X26624111Y12585077D01*
X26535962Y12432398D01*
X26535959Y12432393D01*
X26532714Y12426771D01*
X26530708Y12420599D01*
X26530706Y12420593D01*
X26476226Y12252923D01*
X26476224Y12252914D01*
X26474219Y12246743D01*
X26473541Y12240293D01*
X26473539Y12240283D01*
X26460599Y12117155D01*
X26454433Y12058487D01*
X22057127Y12058487D01*
X22047967Y12145643D01*
X21989472Y12325671D01*
X21894826Y12489603D01*
X21832458Y12558869D01*
X21772513Y12625445D01*
X21772512Y12625446D01*
X21768164Y12630275D01*
X21762906Y12634095D01*
X21762904Y12634097D01*
X21620281Y12737718D01*
X21620280Y12737719D01*
X21615023Y12741538D01*
X21609085Y12744182D01*
X21448038Y12815886D01*
X21448033Y12815888D01*
X21442096Y12818531D01*
X21435737Y12819883D01*
X21435733Y12819884D01*
X21263301Y12856535D01*
X21263298Y12856536D01*
X21256939Y12857887D01*
X21067647Y12857887D01*
X21061288Y12856536D01*
X21061284Y12856535D01*
X20888852Y12819884D01*
X20888845Y12819882D01*
X20882490Y12818531D01*
X20876555Y12815889D01*
X20876547Y12815886D01*
X20715500Y12744182D01*
X20715495Y12744180D01*
X20709563Y12741538D01*
X20704309Y12737722D01*
X20704304Y12737718D01*
X20561681Y12634097D01*
X20561674Y12634092D01*
X20556422Y12630275D01*
X20552077Y12625450D01*
X20552072Y12625445D01*
X20434106Y12494431D01*
X20434101Y12494425D01*
X20429760Y12489603D01*
X20426515Y12483983D01*
X20426511Y12483977D01*
X20338362Y12331298D01*
X20338359Y12331293D01*
X20335114Y12325671D01*
X20333108Y12319499D01*
X20333106Y12319493D01*
X20278626Y12151823D01*
X20278624Y12151814D01*
X20276619Y12145643D01*
X20275941Y12139193D01*
X20275939Y12139183D01*
X20262050Y12007026D01*
X20256833Y11957387D01*
X9955312Y11957387D01*
X9949591Y12022785D01*
X9947317Y12029647D01*
X9946620Y12033023D01*
X9946563Y12033373D01*
X9946468Y12033710D01*
X9945672Y12037067D01*
X9944834Y12044242D01*
X9942363Y12051031D01*
X9940698Y12058057D01*
X9942151Y12058402D01*
X9936993Y12087649D01*
X9936993Y12641766D01*
X9953606Y12703766D01*
X9961654Y12717705D01*
X10013672Y12807803D01*
X10072167Y12987831D01*
X10091953Y13176087D01*
X10076717Y13321048D01*
X10072846Y13357883D01*
X10072845Y13357884D01*
X10072167Y13364343D01*
X10013672Y13544371D01*
X9919026Y13708303D01*
X9901221Y13728077D01*
X9796713Y13844145D01*
X9796712Y13844146D01*
X9792364Y13848975D01*
X9787106Y13852795D01*
X9787104Y13852797D01*
X9644481Y13956418D01*
X9644480Y13956419D01*
X9639223Y13960238D01*
X9633285Y13962882D01*
X9526659Y14010356D01*
X10690494Y14010356D01*
X10691173Y14003896D01*
X10709600Y13828561D01*
X10709601Y13828553D01*
X10710280Y13822100D01*
X10712285Y13815928D01*
X10712287Y13815921D01*
X10766767Y13648251D01*
X10768775Y13642072D01*
X10772022Y13636448D01*
X10772023Y13636446D01*
X10857413Y13488545D01*
X10863421Y13478140D01*
X10867765Y13473315D01*
X10867767Y13473313D01*
X10982829Y13345524D01*
X10990083Y13337468D01*
X11143224Y13226205D01*
X11316151Y13149212D01*
X11501308Y13109856D01*
X11684097Y13109856D01*
X11690600Y13109856D01*
X11875757Y13149212D01*
X12048684Y13226205D01*
X12201825Y13337468D01*
X12219288Y13356864D01*
X12261000Y13387171D01*
X12311437Y13397892D01*
X12361870Y13387172D01*
X12510385Y13321048D01*
X12516740Y13319698D01*
X12516744Y13319696D01*
X12525773Y13317777D01*
X12582967Y13288638D01*
X12617928Y13234805D01*
X12627641Y13204910D01*
X12654419Y13122498D01*
X12657666Y13116874D01*
X12657667Y13116872D01*
X12745814Y12964196D01*
X12749065Y12958566D01*
X12753409Y12953741D01*
X12753411Y12953739D01*
X12869156Y12825192D01*
X12875727Y12817894D01*
X12880985Y12814074D01*
X12880986Y12814073D01*
X12932013Y12777000D01*
X13028868Y12706631D01*
X13201795Y12629638D01*
X13386952Y12590282D01*
X13569741Y12590282D01*
X13576244Y12590282D01*
X13761401Y12629638D01*
X13934328Y12706631D01*
X14087469Y12817894D01*
X14214131Y12958566D01*
X14300658Y13108437D01*
X14343809Y13152502D01*
X14402851Y13170328D01*
X14463179Y13157506D01*
X14509867Y13117207D01*
X14531366Y13059400D01*
X14533613Y13038026D01*
X14536219Y13013231D01*
X14538224Y13007059D01*
X14538226Y13007052D01*
X14590789Y12845282D01*
X14594714Y12833203D01*
X14597961Y12827579D01*
X14597962Y12827577D01*
X14686057Y12674991D01*
X14689360Y12669271D01*
X14693704Y12664446D01*
X14693706Y12664444D01*
X14805844Y12539903D01*
X14816022Y12528599D01*
X14821280Y12524779D01*
X14821281Y12524778D01*
X14886526Y12477375D01*
X14969163Y12417336D01*
X15142090Y12340343D01*
X15327247Y12300987D01*
X15510036Y12300987D01*
X15516539Y12300987D01*
X15701696Y12340343D01*
X15874623Y12417336D01*
X16027764Y12528599D01*
X16154426Y12669271D01*
X16249072Y12833203D01*
X16307567Y13013231D01*
X16327353Y13201487D01*
X16312553Y13342299D01*
X16308246Y13383283D01*
X16308245Y13383284D01*
X16307567Y13389743D01*
X16249072Y13569771D01*
X16154426Y13733703D01*
X16143645Y13745676D01*
X16032113Y13869545D01*
X16032112Y13869546D01*
X16027764Y13874375D01*
X16022506Y13878195D01*
X16022504Y13878197D01*
X15879881Y13981818D01*
X15879880Y13981819D01*
X15874623Y13985638D01*
X15868685Y13988282D01*
X15707638Y14059986D01*
X15707633Y14059988D01*
X15701696Y14062631D01*
X15695337Y14063983D01*
X15695333Y14063984D01*
X15522901Y14100635D01*
X15522898Y14100636D01*
X15516539Y14101987D01*
X15327247Y14101987D01*
X15320888Y14100636D01*
X15320884Y14100635D01*
X15148452Y14063984D01*
X15148445Y14063982D01*
X15142090Y14062631D01*
X15136155Y14059989D01*
X15136147Y14059986D01*
X14975100Y13988282D01*
X14975095Y13988280D01*
X14969163Y13985638D01*
X14963909Y13981822D01*
X14963904Y13981818D01*
X14821281Y13878197D01*
X14821274Y13878192D01*
X14816022Y13874375D01*
X14811677Y13869550D01*
X14811672Y13869545D01*
X14693706Y13738531D01*
X14693701Y13738525D01*
X14689360Y13733703D01*
X14686115Y13728083D01*
X14686111Y13728077D01*
X14602832Y13583833D01*
X14559680Y13539768D01*
X14500637Y13521942D01*
X14440310Y13534765D01*
X14393622Y13575065D01*
X14372124Y13632872D01*
X14367951Y13672578D01*
X14367950Y13672579D01*
X14367272Y13679038D01*
X14308777Y13859066D01*
X14214131Y14022998D01*
X14167096Y14075235D01*
X14091818Y14158840D01*
X14091817Y14158841D01*
X14087469Y14163670D01*
X14082211Y14167490D01*
X14082209Y14167492D01*
X14048357Y14192087D01*
X19393233Y14192087D01*
X19393912Y14185627D01*
X19412339Y14010292D01*
X19412340Y14010284D01*
X19413019Y14003831D01*
X19415024Y13997659D01*
X19415026Y13997652D01*
X19462093Y13852797D01*
X19471514Y13823803D01*
X19474761Y13818179D01*
X19474762Y13818177D01*
X19558823Y13672578D01*
X19566160Y13659871D01*
X19570504Y13655046D01*
X19570506Y13655044D01*
X19675720Y13538193D01*
X19692822Y13519199D01*
X19698080Y13515379D01*
X19698081Y13515378D01*
X19723105Y13497197D01*
X19845963Y13407936D01*
X20018890Y13330943D01*
X20204047Y13291587D01*
X20386836Y13291587D01*
X20393339Y13291587D01*
X20578496Y13330943D01*
X20751423Y13407936D01*
X20904564Y13519199D01*
X21031226Y13659871D01*
X21125872Y13823803D01*
X21184367Y14003831D01*
X21204153Y14192087D01*
X21187354Y14351926D01*
X21185046Y14373883D01*
X21185045Y14373884D01*
X21184367Y14380343D01*
X21125872Y14560371D01*
X21031226Y14724303D01*
X20971453Y14790687D01*
X20908913Y14860145D01*
X20908912Y14860146D01*
X20904564Y14864975D01*
X20899306Y14868795D01*
X20899304Y14868797D01*
X20756681Y14972418D01*
X20756680Y14972419D01*
X20751423Y14976238D01*
X20745485Y14978882D01*
X20584438Y15050586D01*
X20584433Y15050588D01*
X20578496Y15053231D01*
X20572137Y15054583D01*
X20572133Y15054584D01*
X20399701Y15091235D01*
X20399698Y15091236D01*
X20393339Y15092587D01*
X20204047Y15092587D01*
X20197688Y15091236D01*
X20197684Y15091235D01*
X20025252Y15054584D01*
X20025245Y15054582D01*
X20018890Y15053231D01*
X20012955Y15050589D01*
X20012947Y15050586D01*
X19851900Y14978882D01*
X19851895Y14978880D01*
X19845963Y14976238D01*
X19840709Y14972422D01*
X19840704Y14972418D01*
X19698081Y14868797D01*
X19698074Y14868792D01*
X19692822Y14864975D01*
X19688477Y14860150D01*
X19688472Y14860145D01*
X19570506Y14729131D01*
X19570501Y14729125D01*
X19566160Y14724303D01*
X19562915Y14718683D01*
X19562911Y14718677D01*
X19474762Y14565998D01*
X19474759Y14565993D01*
X19471514Y14560371D01*
X19469508Y14554199D01*
X19469506Y14554193D01*
X19415026Y14386523D01*
X19415024Y14386514D01*
X19413019Y14380343D01*
X19412341Y14373893D01*
X19412339Y14373883D01*
X19394655Y14205623D01*
X19393233Y14192087D01*
X14048357Y14192087D01*
X13939586Y14271113D01*
X13939585Y14271114D01*
X13934328Y14274933D01*
X13890684Y14294365D01*
X13767343Y14349281D01*
X13767338Y14349283D01*
X13761401Y14351926D01*
X13755039Y14353279D01*
X13755037Y14353279D01*
X13746008Y14355198D01*
X13688816Y14384338D01*
X13653858Y14438168D01*
X13617367Y14550476D01*
X13522721Y14714408D01*
X13513811Y14724303D01*
X13400408Y14850250D01*
X13400407Y14850251D01*
X13396059Y14855080D01*
X13390800Y14858901D01*
X13390799Y14858902D01*
X13248176Y14962523D01*
X13248175Y14962524D01*
X13242918Y14966343D01*
X13232290Y14971075D01*
X13075933Y15040691D01*
X13075928Y15040693D01*
X13069991Y15043336D01*
X13063632Y15044688D01*
X13063628Y15044689D01*
X12891196Y15081340D01*
X12891193Y15081341D01*
X12884834Y15082692D01*
X12695542Y15082692D01*
X12689183Y15081341D01*
X12689179Y15081340D01*
X12516747Y15044689D01*
X12516740Y15044687D01*
X12510385Y15043336D01*
X12504450Y15040694D01*
X12504442Y15040691D01*
X12343395Y14968987D01*
X12343390Y14968985D01*
X12337458Y14966343D01*
X12332204Y14962527D01*
X12332199Y14962523D01*
X12189576Y14858901D01*
X12184317Y14855080D01*
X12179968Y14850251D01*
X12179969Y14850251D01*
X12166849Y14835681D01*
X12125135Y14805377D01*
X12074701Y14794658D01*
X12024268Y14805378D01*
X11995392Y14818235D01*
X11875757Y14871500D01*
X11869398Y14872852D01*
X11869394Y14872853D01*
X11696962Y14909504D01*
X11696959Y14909505D01*
X11690600Y14910856D01*
X11501308Y14910856D01*
X11494949Y14909505D01*
X11494945Y14909504D01*
X11322513Y14872853D01*
X11322506Y14872851D01*
X11316151Y14871500D01*
X11310216Y14868858D01*
X11310208Y14868855D01*
X11149161Y14797151D01*
X11149156Y14797149D01*
X11143224Y14794507D01*
X11137970Y14790691D01*
X11137965Y14790687D01*
X10995342Y14687066D01*
X10995335Y14687061D01*
X10990083Y14683244D01*
X10985738Y14678419D01*
X10985733Y14678414D01*
X10867767Y14547400D01*
X10867762Y14547394D01*
X10863421Y14542572D01*
X10860176Y14536952D01*
X10860172Y14536946D01*
X10772023Y14384267D01*
X10772020Y14384262D01*
X10768775Y14378640D01*
X10766769Y14372468D01*
X10766767Y14372462D01*
X10712287Y14204792D01*
X10712285Y14204783D01*
X10710280Y14198612D01*
X10709602Y14192162D01*
X10709600Y14192152D01*
X10699982Y14100635D01*
X10690494Y14010356D01*
X9526659Y14010356D01*
X9472238Y14034586D01*
X9472233Y14034588D01*
X9466296Y14037231D01*
X9459937Y14038583D01*
X9459933Y14038584D01*
X9287501Y14075235D01*
X9287498Y14075236D01*
X9281139Y14076587D01*
X9091847Y14076587D01*
X9085488Y14075236D01*
X9085484Y14075235D01*
X8913052Y14038584D01*
X8913045Y14038582D01*
X8906690Y14037231D01*
X8900755Y14034589D01*
X8900747Y14034586D01*
X8739700Y13962882D01*
X8739695Y13962880D01*
X8733763Y13960238D01*
X8728509Y13956422D01*
X8728504Y13956418D01*
X8585881Y13852797D01*
X8585874Y13852792D01*
X8580622Y13848975D01*
X8576277Y13844150D01*
X8576272Y13844145D01*
X8458306Y13713131D01*
X8458301Y13713125D01*
X8453960Y13708303D01*
X8450715Y13702683D01*
X8450711Y13702677D01*
X8362562Y13549998D01*
X8362559Y13549993D01*
X8359314Y13544371D01*
X8357308Y13538199D01*
X8357306Y13538193D01*
X8302826Y13370523D01*
X8302824Y13370514D01*
X8300819Y13364343D01*
X8300141Y13357893D01*
X8300139Y13357883D01*
X8282455Y13189623D01*
X8281033Y13176087D01*
X8281712Y13169627D01*
X8300139Y12994292D01*
X8300140Y12994284D01*
X8300819Y12987831D01*
X8302824Y12981659D01*
X8302826Y12981652D01*
X8357306Y12813982D01*
X8359314Y12807803D01*
X8362561Y12802179D01*
X8362562Y12802177D01*
X8377098Y12777000D01*
X8409259Y12721295D01*
X8419380Y12703766D01*
X8435993Y12641766D01*
X8435993Y11956794D01*
X8434684Y11938823D01*
X8431204Y11915064D01*
X8431833Y11907873D01*
X8431833Y11907866D01*
X8435521Y11865718D01*
X8435993Y11854911D01*
X8435993Y11852017D01*
X8423205Y11797173D01*
X8387479Y11753641D01*
X8336183Y11730399D01*
X8279898Y11732243D01*
X8230233Y11758790D01*
X8227206Y11761445D01*
X8224335Y11764316D01*
X8221119Y11766784D01*
X8221112Y11766790D01*
X8126092Y11839702D01*
X8126089Y11839704D01*
X8119643Y11844650D01*
X8112134Y11847761D01*
X8112133Y11847761D01*
X8001482Y11893594D01*
X8001477Y11893596D01*
X7997727Y11895149D01*
X7993806Y11896200D01*
X7993802Y11896201D01*
X7939647Y11910712D01*
X7939641Y11910714D01*
X7935727Y11911762D01*
X7931712Y11912291D01*
X7931700Y11912293D01*
X7808912Y11928458D01*
X7808910Y11928459D01*
X7804893Y11928987D01*
X7800840Y11928987D01*
X7190626Y11928987D01*
X7132411Y11943502D01*
X7087825Y11983647D01*
X7067305Y12040026D01*
X7066755Y12045255D01*
X7050918Y12195943D01*
X6992423Y12375971D01*
X6897777Y12539903D01*
X6884700Y12554426D01*
X6775464Y12675745D01*
X6775463Y12675746D01*
X6771115Y12680575D01*
X6765857Y12684395D01*
X6765855Y12684397D01*
X6623232Y12788018D01*
X6623231Y12788019D01*
X6617974Y12791838D01*
X6612036Y12794482D01*
X6450989Y12866186D01*
X6450984Y12866188D01*
X6445047Y12868831D01*
X6438688Y12870183D01*
X6438684Y12870184D01*
X6266252Y12906835D01*
X6266249Y12906836D01*
X6259890Y12908187D01*
X6070598Y12908187D01*
X6064239Y12906836D01*
X6064235Y12906835D01*
X5891803Y12870184D01*
X5891796Y12870182D01*
X5885441Y12868831D01*
X5879506Y12866189D01*
X5879498Y12866186D01*
X5718451Y12794482D01*
X5718446Y12794480D01*
X5712514Y12791838D01*
X5707260Y12788022D01*
X5707255Y12788018D01*
X5564632Y12684397D01*
X5564625Y12684392D01*
X5559373Y12680575D01*
X5555028Y12675750D01*
X5555023Y12675745D01*
X5437057Y12544731D01*
X5437052Y12544725D01*
X5432711Y12539903D01*
X5429466Y12534283D01*
X5429462Y12534277D01*
X5341313Y12381598D01*
X5341310Y12381593D01*
X5338065Y12375971D01*
X5336059Y12369799D01*
X5336057Y12369793D01*
X5281577Y12202123D01*
X5281575Y12202114D01*
X5279570Y12195943D01*
X5278892Y12189493D01*
X5278890Y12189483D01*
X5265123Y12058487D01*
X5263733Y12045255D01*
X5263183Y12040026D01*
X5242663Y11983647D01*
X5198077Y11943502D01*
X5139862Y11928987D01*
X4496893Y11928987D01*
X4492876Y11928459D01*
X4492873Y11928458D01*
X4370085Y11912293D01*
X4370070Y11912291D01*
X4366059Y11911762D01*
X4362147Y11910714D01*
X4362138Y11910712D01*
X4307983Y11896201D01*
X4307975Y11896199D01*
X4304059Y11895149D01*
X4300313Y11893598D01*
X4300303Y11893594D01*
X4189652Y11847761D01*
X4189647Y11847759D01*
X4182143Y11844650D01*
X4175699Y11839707D01*
X4175693Y11839702D01*
X4080682Y11766796D01*
X4080675Y11766791D01*
X4077451Y11764316D01*
X4074578Y11761444D01*
X4074570Y11761436D01*
X4034944Y11721810D01*
X4034936Y11721802D01*
X4032064Y11718929D01*
X4029589Y11715705D01*
X4029584Y11715698D01*
X3953093Y11616013D01*
X3909562Y11580288D01*
X3854718Y11567500D01*
X3827342Y11567500D01*
X3823158Y11566925D01*
X3823144Y11566924D01*
X3723485Y11553226D01*
X3723479Y11553225D01*
X3715080Y11552070D01*
X3707299Y11548691D01*
X3707298Y11548690D01*
X3584062Y11495161D01*
X3584057Y11495159D01*
X3576280Y11491780D01*
X3569702Y11486429D01*
X3569698Y11486426D01*
X3465470Y11401630D01*
X3465468Y11401629D01*
X3458892Y11396278D01*
X3454003Y11389353D01*
X3454002Y11389351D01*
X3401391Y11314818D01*
X3371623Y11272647D01*
X3368785Y11264663D01*
X3368782Y11264656D01*
X3323786Y11138049D01*
X3323784Y11138045D01*
X3320946Y11130056D01*
X3320367Y11121597D01*
X3320367Y11121595D01*
X3311197Y10987543D01*
X3311197Y10987537D01*
X3310619Y10979079D01*
X3312344Y10970774D01*
X3312345Y10970772D01*
X3339681Y10839223D01*
X3339682Y10839220D01*
X3341408Y10830915D01*
X3345309Y10823386D01*
X3345310Y10823384D01*
X3359719Y10795577D01*
X3411029Y10696553D01*
X3416816Y10690357D01*
X3416818Y10690354D01*
X3508529Y10592156D01*
X3508531Y10592155D01*
X3514320Y10585956D01*
X3521566Y10581550D01*
X3521568Y10581548D01*
X3588334Y10540947D01*
X3643618Y10507328D01*
X3776849Y10469999D01*
X3823817Y10444979D01*
X3855973Y10402575D01*
X3867393Y10350597D01*
X3867393Y7681127D01*
X3853491Y7624079D01*
X3814901Y7579822D01*
X3760277Y7558283D01*
X3753843Y7557398D01*
X3723485Y7553226D01*
X3723479Y7553225D01*
X3715080Y7552070D01*
X3707299Y7548691D01*
X3707298Y7548690D01*
X3584062Y7495161D01*
X3584057Y7495159D01*
X3576280Y7491780D01*
X3569702Y7486429D01*
X3569698Y7486426D01*
X3465470Y7401630D01*
X3465468Y7401629D01*
X3458892Y7396278D01*
X3454003Y7389353D01*
X3454002Y7389351D01*
X3381863Y7287153D01*
X3371623Y7272647D01*
X3368785Y7264663D01*
X3368782Y7264656D01*
X3323786Y7138049D01*
X3323784Y7138045D01*
X3320946Y7130056D01*
X3320367Y7121597D01*
X3320367Y7121595D01*
X3311197Y6987543D01*
X3311197Y6987537D01*
X3310619Y6979079D01*
X3312344Y6970774D01*
X3312345Y6970772D01*
X3339681Y6839223D01*
X3339682Y6839220D01*
X3341408Y6830915D01*
X3411029Y6696553D01*
X3416816Y6690357D01*
X3416818Y6690354D01*
X3508529Y6592156D01*
X3508531Y6592155D01*
X3514320Y6585956D01*
X3521566Y6581550D01*
X3521568Y6581548D01*
X3636374Y6511733D01*
X3643618Y6507328D01*
X3776849Y6469999D01*
X3823817Y6444979D01*
X3855973Y6402575D01*
X3867393Y6350597D01*
X3867393Y4308487D01*
X3867921Y4304470D01*
X3867922Y4304468D01*
X3884087Y4181680D01*
X3884089Y4181668D01*
X3884618Y4177653D01*
X3885666Y4173739D01*
X3885668Y4173733D01*
X3900150Y4119686D01*
X3901231Y4115653D01*
X3902784Y4111903D01*
X3902786Y4111898D01*
X3948619Y4001247D01*
X3951730Y3993737D01*
X3956676Y3987291D01*
X3956678Y3987288D01*
X3971016Y3968603D01*
X4032064Y3889045D01*
X4077451Y3843658D01*
X4182143Y3763324D01*
X4304059Y3712825D01*
X4366059Y3696212D01*
X4496893Y3678987D01*
X7054704Y3678987D01*
X7110999Y3665472D01*
X7155022Y3627872D01*
X7177177Y3574385D01*
X7172635Y3516669D01*
X7142385Y3467306D01*
X6443969Y2768892D01*
X6408693Y2744191D01*
X6367097Y2733045D01*
X6246982Y2722535D01*
X6246977Y2722535D01*
X6241592Y2722063D01*
X6236371Y2720665D01*
X6236365Y2720663D01*
X6018569Y2662306D01*
X6018557Y2662302D01*
X6013337Y2660903D01*
X6008432Y2658617D01*
X6008427Y2658614D01*
X5804081Y2563325D01*
X5804077Y2563323D01*
X5799171Y2561035D01*
X5794738Y2557932D01*
X5794731Y2557927D01*
X5610034Y2428601D01*
X5610029Y2428598D01*
X5605599Y2425495D01*
X5601775Y2421672D01*
X5601769Y2421666D01*
X5442334Y2262231D01*
X5442328Y2262225D01*
X5438505Y2258401D01*
X5435402Y2253971D01*
X5435399Y2253966D01*
X5308575Y2072841D01*
X5264257Y2033975D01*
X5207000Y2019964D01*
X5149743Y2033975D01*
X5105425Y2072841D01*
X5094327Y2088690D01*
X4975495Y2258401D01*
X4808401Y2425495D01*
X4803970Y2428598D01*
X4803966Y2428601D01*
X4619259Y2557934D01*
X4619257Y2557936D01*
X4614830Y2561035D01*
X4609933Y2563319D01*
X4609927Y2563322D01*
X4405572Y2658614D01*
X4405570Y2658615D01*
X4400663Y2660903D01*
X4395438Y2662303D01*
X4395430Y2662306D01*
X4177634Y2720663D01*
X4177630Y2720664D01*
X4172408Y2722063D01*
X4167020Y2722535D01*
X4167017Y2722535D01*
X3942395Y2742187D01*
X3937000Y2742659D01*
X3931605Y2742187D01*
X3706982Y2722535D01*
X3706977Y2722535D01*
X3701592Y2722063D01*
X3696371Y2720665D01*
X3696365Y2720663D01*
X3478569Y2662306D01*
X3478557Y2662302D01*
X3473337Y2660903D01*
X3468432Y2658617D01*
X3468427Y2658614D01*
X3264081Y2563325D01*
X3264077Y2563323D01*
X3259171Y2561035D01*
X3254738Y2557932D01*
X3254731Y2557927D01*
X3070034Y2428601D01*
X3070029Y2428598D01*
X3065599Y2425495D01*
X3061775Y2421672D01*
X3061769Y2421666D01*
X2902334Y2262231D01*
X2902328Y2262225D01*
X2898505Y2258401D01*
X2895402Y2253971D01*
X2895399Y2253966D01*
X2766073Y2069269D01*
X2766068Y2069262D01*
X2762965Y2064829D01*
X2760677Y2059923D01*
X2760675Y2059919D01*
X2665386Y1855573D01*
X2665383Y1855568D01*
X2663097Y1850663D01*
X2661698Y1845443D01*
X2661694Y1845431D01*
X2603337Y1627635D01*
X2603335Y1627629D01*
X2601937Y1622408D01*
X2581341Y1387000D01*
X2601937Y1151592D01*
X2603336Y1146370D01*
X2603337Y1146366D01*
X2661694Y928570D01*
X2661697Y928562D01*
X2663097Y923337D01*
X2665385Y918430D01*
X2665386Y918428D01*
X2760678Y714073D01*
X2760681Y714067D01*
X2762965Y709170D01*
X2766064Y704743D01*
X2766066Y704741D01*
X2895399Y520034D01*
X2895402Y520030D01*
X2898505Y515599D01*
X3065599Y348505D01*
X3070031Y345402D01*
X3070033Y345400D01*
X3240447Y226075D01*
X3280773Y178858D01*
X3293153Y118010D01*
X3274481Y58790D01*
X3229439Y16047D01*
X3169323Y500D01*
X124500Y500D01*
X62500Y17113D01*
X17113Y62500D01*
X500Y124500D01*
X500Y3676487D01*
X1181433Y3676487D01*
X1182112Y3670027D01*
X1200539Y3494692D01*
X1200540Y3494684D01*
X1201219Y3488231D01*
X1203224Y3482059D01*
X1203226Y3482052D01*
X1253791Y3326432D01*
X1259714Y3308203D01*
X1262961Y3302579D01*
X1262962Y3302577D01*
X1350419Y3151096D01*
X1354360Y3144271D01*
X1481022Y3003599D01*
X1634163Y2892336D01*
X1807090Y2815343D01*
X1992247Y2775987D01*
X2175036Y2775987D01*
X2181539Y2775987D01*
X2366696Y2815343D01*
X2539623Y2892336D01*
X2692764Y3003599D01*
X2819426Y3144271D01*
X2914072Y3308203D01*
X2972567Y3488231D01*
X2992353Y3676487D01*
X2972567Y3864743D01*
X2914072Y4044771D01*
X2819426Y4208703D01*
X2743370Y4293171D01*
X2697113Y4344545D01*
X2697112Y4344546D01*
X2692764Y4349375D01*
X2687506Y4353195D01*
X2687504Y4353197D01*
X2544881Y4456818D01*
X2544880Y4456819D01*
X2539623Y4460638D01*
X2533685Y4463282D01*
X2372638Y4534986D01*
X2372633Y4534988D01*
X2366696Y4537631D01*
X2360337Y4538983D01*
X2360333Y4538984D01*
X2187901Y4575635D01*
X2187898Y4575636D01*
X2181539Y4576987D01*
X1992247Y4576987D01*
X1985888Y4575636D01*
X1985884Y4575635D01*
X1813452Y4538984D01*
X1813445Y4538982D01*
X1807090Y4537631D01*
X1801155Y4534989D01*
X1801147Y4534986D01*
X1640100Y4463282D01*
X1640095Y4463280D01*
X1634163Y4460638D01*
X1628909Y4456822D01*
X1628904Y4456818D01*
X1486281Y4353197D01*
X1486274Y4353192D01*
X1481022Y4349375D01*
X1476677Y4344550D01*
X1476672Y4344545D01*
X1358706Y4213531D01*
X1358701Y4213525D01*
X1354360Y4208703D01*
X1351115Y4203083D01*
X1351111Y4203077D01*
X1262962Y4050398D01*
X1262959Y4050393D01*
X1259714Y4044771D01*
X1257708Y4038599D01*
X1257706Y4038593D01*
X1203226Y3870923D01*
X1203224Y3870914D01*
X1201219Y3864743D01*
X1200541Y3858293D01*
X1200539Y3858283D01*
X1185416Y3714381D01*
X1181433Y3676487D01*
X500Y3676487D01*
X500Y5780254D01*
X18435Y5844489D01*
X67051Y5890143D01*
X132286Y5904009D01*
X195269Y5882076D01*
X237779Y5830690D01*
X284078Y5726701D01*
X287897Y5721445D01*
X287898Y5721443D01*
X380168Y5594444D01*
X398431Y5569308D01*
X403260Y5564960D01*
X403261Y5564959D01*
X501485Y5476517D01*
X543008Y5439130D01*
X711492Y5341856D01*
X896518Y5281738D01*
X1041496Y5266500D01*
X1985262Y5266500D01*
X1988504Y5266500D01*
X2133482Y5281738D01*
X2318508Y5341856D01*
X2486992Y5439130D01*
X2631569Y5569308D01*
X2745922Y5726701D01*
X2825051Y5904429D01*
X2865500Y6094726D01*
X2865500Y6289274D01*
X2825051Y6479571D01*
X2745922Y6657299D01*
X2682236Y6744955D01*
X2635390Y6809433D01*
X2635389Y6809434D01*
X2631569Y6814692D01*
X2538470Y6898519D01*
X2491819Y6940524D01*
X2491817Y6940526D01*
X2486992Y6944870D01*
X2450790Y6965771D01*
X2324134Y7038896D01*
X2324132Y7038897D01*
X2318508Y7042144D01*
X2312331Y7044151D01*
X2312329Y7044152D01*
X2139663Y7100254D01*
X2139660Y7100255D01*
X2133482Y7102262D01*
X2127027Y7102941D01*
X2127020Y7102942D01*
X1991724Y7117162D01*
X1991715Y7117163D01*
X1988504Y7117500D01*
X1041496Y7117500D01*
X1038285Y7117163D01*
X1038275Y7117162D01*
X902979Y7102942D01*
X902970Y7102941D01*
X896518Y7102262D01*
X890341Y7100256D01*
X890336Y7100254D01*
X717670Y7044152D01*
X717664Y7044150D01*
X711492Y7042144D01*
X705870Y7038899D01*
X705865Y7038896D01*
X548634Y6948119D01*
X548628Y6948115D01*
X543008Y6944870D01*
X538186Y6940529D01*
X538180Y6940524D01*
X403261Y6819042D01*
X403256Y6819037D01*
X398431Y6814692D01*
X394614Y6809440D01*
X394609Y6809433D01*
X287898Y6662558D01*
X287894Y6662552D01*
X284078Y6657299D01*
X281435Y6651365D01*
X281435Y6651363D01*
X237780Y6553311D01*
X195269Y6501924D01*
X132286Y6479991D01*
X67051Y6493857D01*
X18435Y6539511D01*
X500Y6603746D01*
X500Y11413648D01*
X19268Y11479240D01*
X69891Y11524976D01*
X137045Y11537012D01*
X200401Y11511704D01*
X240781Y11456714D01*
X249328Y11433635D01*
X262114Y11399113D01*
X265440Y11393777D01*
X265442Y11393773D01*
X341534Y11271693D01*
X369748Y11226429D01*
X433521Y11159340D01*
X490984Y11098889D01*
X509941Y11078947D01*
X676951Y10962705D01*
X863942Y10882460D01*
X1063259Y10841500D01*
X1912600Y10841500D01*
X1915742Y10841500D01*
X2067438Y10856926D01*
X2261588Y10917841D01*
X2439502Y11016591D01*
X2593895Y11149134D01*
X2718448Y11310042D01*
X2808060Y11492729D01*
X2859063Y11689715D01*
X2869369Y11892936D01*
X2838556Y12094071D01*
X2767886Y12284887D01*
X2686208Y12415928D01*
X2663578Y12452235D01*
X2663577Y12452236D01*
X2660252Y12457571D01*
X2533700Y12590703D01*
X2524390Y12600497D01*
X2524389Y12600498D01*
X2520059Y12605053D01*
X2353049Y12721295D01*
X2347275Y12723773D01*
X2171836Y12799061D01*
X2171831Y12799063D01*
X2166058Y12801540D01*
X2105071Y12814073D01*
X1972899Y12841235D01*
X1972894Y12841236D01*
X1966741Y12842500D01*
X1114258Y12842500D01*
X1111147Y12842184D01*
X1111134Y12842183D01*
X968814Y12827710D01*
X968811Y12827710D01*
X962562Y12827074D01*
X956564Y12825193D01*
X956563Y12825192D01*
X774415Y12768043D01*
X774410Y12768041D01*
X768412Y12766159D01*
X762916Y12763109D01*
X762910Y12763106D01*
X595997Y12670462D01*
X595991Y12670458D01*
X590498Y12667409D01*
X585733Y12663320D01*
X585728Y12663315D01*
X440873Y12538960D01*
X440868Y12538956D01*
X436105Y12534866D01*
X432262Y12529902D01*
X432255Y12529894D01*
X317466Y12381598D01*
X311552Y12373958D01*
X308784Y12368317D01*
X308780Y12368309D01*
X235828Y12219584D01*
X192211Y12170312D01*
X129525Y12150295D01*
X65424Y12165170D01*
X17960Y12210748D01*
X500Y12274193D01*
X500Y17909500D01*
X17113Y17971500D01*
X62500Y18016887D01*
X124500Y18033500D01*
X3199982Y18033500D01*
X3261982Y18016887D01*
G37*
%TD.AperFunction*%
%TD*%
%TA.AperFunction,Conductor*%
%TO.N,VBUS*%
G36*
X5474746Y11412767D02*
G01*
X5516458Y11382460D01*
X5559373Y11334799D01*
X5712514Y11223536D01*
X5885441Y11146543D01*
X6070598Y11107187D01*
X6253387Y11107187D01*
X6259890Y11107187D01*
X6445047Y11146543D01*
X6617974Y11223536D01*
X6771115Y11334799D01*
X6814029Y11382460D01*
X6855742Y11412767D01*
X6906178Y11423487D01*
X7804893Y11423487D01*
X7866893Y11406874D01*
X7912280Y11361487D01*
X7928893Y11299487D01*
X7928893Y10381825D01*
X7915378Y10325530D01*
X7877778Y10281507D01*
X7758981Y10195197D01*
X7758974Y10195192D01*
X7753722Y10191375D01*
X7749377Y10186550D01*
X7749372Y10186545D01*
X7631406Y10055531D01*
X7631401Y10055525D01*
X7627060Y10050703D01*
X7623815Y10045083D01*
X7623811Y10045077D01*
X7535662Y9892398D01*
X7535659Y9892393D01*
X7532414Y9886771D01*
X7530408Y9880599D01*
X7530406Y9880593D01*
X7475926Y9712923D01*
X7475924Y9712914D01*
X7473919Y9706743D01*
X7473241Y9700293D01*
X7473239Y9700283D01*
X7455555Y9532023D01*
X7454133Y9518487D01*
X7454812Y9512027D01*
X7473239Y9336692D01*
X7473240Y9336684D01*
X7473919Y9330231D01*
X7475924Y9324059D01*
X7475926Y9324052D01*
X7511293Y9215206D01*
X7532414Y9150203D01*
X7535661Y9144579D01*
X7535662Y9144577D01*
X7595256Y9041356D01*
X7627060Y8986271D01*
X7753722Y8845599D01*
X7758980Y8841779D01*
X7758981Y8841778D01*
X7877778Y8755467D01*
X7915378Y8711444D01*
X7928893Y8655149D01*
X7928893Y6427771D01*
X7914378Y6369556D01*
X7874233Y6324970D01*
X7817854Y6304450D01*
X7815351Y6304187D01*
X7808847Y6304187D01*
X7802487Y6302836D01*
X7802485Y6302835D01*
X7630052Y6266184D01*
X7630045Y6266182D01*
X7623690Y6264831D01*
X7617755Y6262189D01*
X7617747Y6262186D01*
X7456700Y6190482D01*
X7456695Y6190480D01*
X7450763Y6187838D01*
X7445509Y6184022D01*
X7445504Y6184018D01*
X7302881Y6080397D01*
X7302874Y6080392D01*
X7297622Y6076575D01*
X7293277Y6071750D01*
X7293272Y6071745D01*
X7175306Y5940731D01*
X7175301Y5940725D01*
X7170960Y5935903D01*
X7167715Y5930283D01*
X7167711Y5930277D01*
X7079562Y5777598D01*
X7079559Y5777593D01*
X7076314Y5771971D01*
X7074308Y5765799D01*
X7074306Y5765793D01*
X7019826Y5598123D01*
X7019824Y5598114D01*
X7017819Y5591943D01*
X7017141Y5585493D01*
X7017139Y5585483D01*
X6999455Y5417223D01*
X6998033Y5403687D01*
X6998712Y5397227D01*
X7017139Y5221892D01*
X7017140Y5221884D01*
X7017819Y5215431D01*
X7019824Y5209259D01*
X7019826Y5209252D01*
X7074306Y5041582D01*
X7076314Y5035403D01*
X7170960Y4871471D01*
X7297622Y4730799D01*
X7450763Y4619536D01*
X7623690Y4542543D01*
X7808847Y4503187D01*
X7815353Y4503187D01*
X7817854Y4502924D01*
X7874233Y4482404D01*
X7914378Y4437818D01*
X7928893Y4379603D01*
X7928893Y4308487D01*
X7912280Y4246487D01*
X7866893Y4201100D01*
X7804893Y4184487D01*
X4496893Y4184487D01*
X4434893Y4201100D01*
X4389506Y4246487D01*
X4372893Y4308487D01*
X4372893Y6780818D01*
X4380053Y6822343D01*
X4389116Y6847844D01*
X4409054Y6903944D01*
X4419381Y7054921D01*
X4388592Y7203085D01*
X4384689Y7210618D01*
X4381849Y7218609D01*
X4383697Y7219266D01*
X4372893Y7263601D01*
X4372893Y7384887D01*
X5067633Y7384887D01*
X5068312Y7378427D01*
X5086739Y7203092D01*
X5086740Y7203084D01*
X5087419Y7196631D01*
X5089424Y7190459D01*
X5089426Y7190452D01*
X5136213Y7046459D01*
X5145914Y7016603D01*
X5149161Y7010979D01*
X5149162Y7010977D01*
X5210957Y6903944D01*
X5240560Y6852671D01*
X5244904Y6847846D01*
X5244906Y6847844D01*
X5305257Y6780818D01*
X5367222Y6711999D01*
X5520363Y6600736D01*
X5693290Y6523743D01*
X5878447Y6484387D01*
X6061236Y6484387D01*
X6067739Y6484387D01*
X6252896Y6523743D01*
X6425823Y6600736D01*
X6578964Y6711999D01*
X6705626Y6852671D01*
X6800272Y7016603D01*
X6858767Y7196631D01*
X6878553Y7384887D01*
X6858767Y7573143D01*
X6800272Y7753171D01*
X6705626Y7917103D01*
X6674783Y7951357D01*
X6644817Y8012796D01*
X6651962Y8080781D01*
X6694047Y8134646D01*
X6756764Y8180212D01*
X6883426Y8320884D01*
X6978072Y8484816D01*
X7036567Y8664844D01*
X7056353Y8853100D01*
X7036567Y9041356D01*
X6978072Y9221384D01*
X6944229Y9280001D01*
X6927617Y9342000D01*
X6944230Y9404001D01*
X6974821Y9456986D01*
X6978072Y9462616D01*
X7036567Y9642644D01*
X7056353Y9830900D01*
X7036567Y10019156D01*
X6978072Y10199184D01*
X6883426Y10363116D01*
X6756764Y10503788D01*
X6751506Y10507608D01*
X6751504Y10507610D01*
X6608881Y10611231D01*
X6608880Y10611232D01*
X6603623Y10615051D01*
X6552704Y10637722D01*
X6436638Y10689399D01*
X6436633Y10689401D01*
X6430696Y10692044D01*
X6424337Y10693396D01*
X6424333Y10693397D01*
X6251901Y10730048D01*
X6251898Y10730049D01*
X6245539Y10731400D01*
X6056247Y10731400D01*
X6049888Y10730049D01*
X6049884Y10730048D01*
X5877452Y10693397D01*
X5877445Y10693395D01*
X5871090Y10692044D01*
X5865155Y10689402D01*
X5865147Y10689399D01*
X5704100Y10617695D01*
X5704095Y10617693D01*
X5698163Y10615051D01*
X5692909Y10611235D01*
X5692904Y10611231D01*
X5550281Y10507610D01*
X5550274Y10507605D01*
X5545022Y10503788D01*
X5540677Y10498963D01*
X5540672Y10498958D01*
X5422706Y10367944D01*
X5422701Y10367938D01*
X5418360Y10363116D01*
X5415115Y10357496D01*
X5415111Y10357490D01*
X5326962Y10204811D01*
X5326959Y10204806D01*
X5323714Y10199184D01*
X5321708Y10193012D01*
X5321706Y10193006D01*
X5267226Y10025336D01*
X5267224Y10025327D01*
X5265219Y10019156D01*
X5264541Y10012706D01*
X5264539Y10012696D01*
X5251305Y9886771D01*
X5245433Y9830900D01*
X5246112Y9824440D01*
X5264539Y9649105D01*
X5264540Y9649097D01*
X5265219Y9642644D01*
X5267224Y9636472D01*
X5267226Y9636465D01*
X5303461Y9524947D01*
X5323714Y9462616D01*
X5326961Y9456992D01*
X5326964Y9456986D01*
X5357555Y9404000D01*
X5374168Y9342002D01*
X5357556Y9280003D01*
X5326963Y9227013D01*
X5326960Y9227007D01*
X5323714Y9221384D01*
X5321708Y9215212D01*
X5321706Y9215206D01*
X5267226Y9047536D01*
X5267224Y9047527D01*
X5265219Y9041356D01*
X5264541Y9034906D01*
X5264539Y9034896D01*
X5246855Y8866636D01*
X5245433Y8853100D01*
X5246112Y8846640D01*
X5264539Y8671305D01*
X5264540Y8671297D01*
X5265219Y8664844D01*
X5267224Y8658672D01*
X5267226Y8658665D01*
X5321706Y8490995D01*
X5323714Y8484816D01*
X5418360Y8320884D01*
X5422706Y8316057D01*
X5422707Y8316056D01*
X5449201Y8286632D01*
X5479168Y8225192D01*
X5472023Y8157209D01*
X5429938Y8103342D01*
X5372483Y8061598D01*
X5372479Y8061595D01*
X5367222Y8057775D01*
X5362877Y8052950D01*
X5362872Y8052945D01*
X5244906Y7921931D01*
X5244901Y7921925D01*
X5240560Y7917103D01*
X5237315Y7911483D01*
X5237311Y7911477D01*
X5149162Y7758798D01*
X5149159Y7758793D01*
X5145914Y7753171D01*
X5143908Y7746999D01*
X5143906Y7746993D01*
X5089426Y7579323D01*
X5089424Y7579314D01*
X5087419Y7573143D01*
X5086741Y7566693D01*
X5086739Y7566683D01*
X5074271Y7448044D01*
X5067633Y7384887D01*
X4372893Y7384887D01*
X4372893Y10780818D01*
X4380053Y10822343D01*
X4406213Y10895951D01*
X4409054Y10903944D01*
X4419381Y11054921D01*
X4388592Y11203085D01*
X4384689Y11210618D01*
X4381849Y11218609D01*
X4383697Y11219266D01*
X4372893Y11263601D01*
X4372893Y11299487D01*
X4389506Y11361487D01*
X4434893Y11406874D01*
X4496893Y11423487D01*
X5424310Y11423487D01*
X5474746Y11412767D01*
G37*
%TD.AperFunction*%
%TD*%
M02*
