%TF.GenerationSoftware,KiCad,Pcbnew,7.0.2-0*%
%TF.CreationDate,2023-05-15T20:56:50-04:00*%
%TF.ProjectId,mini_arduino_clone,6d696e69-5f61-4726-9475-696e6f5f636c,A*%
%TF.SameCoordinates,Original*%
%TF.FileFunction,Other,Comment*%
%FSLAX46Y46*%
G04 Gerber Fmt 4.6, Leading zero omitted, Abs format (unit mm)*
G04 Created by KiCad (PCBNEW 7.0.2-0) date 2023-05-15 20:56:50*
%MOMM*%
%LPD*%
G01*
G04 APERTURE LIST*
%ADD10C,0.150000*%
%ADD11C,0.080000*%
%ADD12C,0.050000*%
G04 APERTURE END LIST*
D10*
X18399643Y21966534D02*
X18399643Y21299867D01*
X18161548Y22347486D02*
X17923453Y21633201D01*
X17923453Y21633201D02*
X18542500Y21633201D01*
X19399643Y22299867D02*
X18923453Y22299867D01*
X18923453Y22299867D02*
X18875834Y21823677D01*
X18875834Y21823677D02*
X18923453Y21871296D01*
X18923453Y21871296D02*
X19018691Y21918915D01*
X19018691Y21918915D02*
X19256786Y21918915D01*
X19256786Y21918915D02*
X19352024Y21871296D01*
X19352024Y21871296D02*
X19399643Y21823677D01*
X19399643Y21823677D02*
X19447262Y21728439D01*
X19447262Y21728439D02*
X19447262Y21490344D01*
X19447262Y21490344D02*
X19399643Y21395106D01*
X19399643Y21395106D02*
X19352024Y21347486D01*
X19352024Y21347486D02*
X19256786Y21299867D01*
X19256786Y21299867D02*
X19018691Y21299867D01*
X19018691Y21299867D02*
X18923453Y21347486D01*
X18923453Y21347486D02*
X18875834Y21395106D01*
X19875834Y21395106D02*
X19923453Y21347486D01*
X19923453Y21347486D02*
X19875834Y21299867D01*
X19875834Y21299867D02*
X19828215Y21347486D01*
X19828215Y21347486D02*
X19875834Y21395106D01*
X19875834Y21395106D02*
X19875834Y21299867D01*
X20542500Y22299867D02*
X20637738Y22299867D01*
X20637738Y22299867D02*
X20732976Y22252248D01*
X20732976Y22252248D02*
X20780595Y22204629D01*
X20780595Y22204629D02*
X20828214Y22109391D01*
X20828214Y22109391D02*
X20875833Y21918915D01*
X20875833Y21918915D02*
X20875833Y21680820D01*
X20875833Y21680820D02*
X20828214Y21490344D01*
X20828214Y21490344D02*
X20780595Y21395106D01*
X20780595Y21395106D02*
X20732976Y21347486D01*
X20732976Y21347486D02*
X20637738Y21299867D01*
X20637738Y21299867D02*
X20542500Y21299867D01*
X20542500Y21299867D02*
X20447262Y21347486D01*
X20447262Y21347486D02*
X20399643Y21395106D01*
X20399643Y21395106D02*
X20352024Y21490344D01*
X20352024Y21490344D02*
X20304405Y21680820D01*
X20304405Y21680820D02*
X20304405Y21918915D01*
X20304405Y21918915D02*
X20352024Y22109391D01*
X20352024Y22109391D02*
X20399643Y22204629D01*
X20399643Y22204629D02*
X20447262Y22252248D01*
X20447262Y22252248D02*
X20542500Y22299867D01*
X21447262Y21871296D02*
X21352024Y21918915D01*
X21352024Y21918915D02*
X21304405Y21966534D01*
X21304405Y21966534D02*
X21256786Y22061772D01*
X21256786Y22061772D02*
X21256786Y22109391D01*
X21256786Y22109391D02*
X21304405Y22204629D01*
X21304405Y22204629D02*
X21352024Y22252248D01*
X21352024Y22252248D02*
X21447262Y22299867D01*
X21447262Y22299867D02*
X21637738Y22299867D01*
X21637738Y22299867D02*
X21732976Y22252248D01*
X21732976Y22252248D02*
X21780595Y22204629D01*
X21780595Y22204629D02*
X21828214Y22109391D01*
X21828214Y22109391D02*
X21828214Y22061772D01*
X21828214Y22061772D02*
X21780595Y21966534D01*
X21780595Y21966534D02*
X21732976Y21918915D01*
X21732976Y21918915D02*
X21637738Y21871296D01*
X21637738Y21871296D02*
X21447262Y21871296D01*
X21447262Y21871296D02*
X21352024Y21823677D01*
X21352024Y21823677D02*
X21304405Y21776058D01*
X21304405Y21776058D02*
X21256786Y21680820D01*
X21256786Y21680820D02*
X21256786Y21490344D01*
X21256786Y21490344D02*
X21304405Y21395106D01*
X21304405Y21395106D02*
X21352024Y21347486D01*
X21352024Y21347486D02*
X21447262Y21299867D01*
X21447262Y21299867D02*
X21637738Y21299867D01*
X21637738Y21299867D02*
X21732976Y21347486D01*
X21732976Y21347486D02*
X21780595Y21395106D01*
X21780595Y21395106D02*
X21828214Y21490344D01*
X21828214Y21490344D02*
X21828214Y21680820D01*
X21828214Y21680820D02*
X21780595Y21776058D01*
X21780595Y21776058D02*
X21732976Y21823677D01*
X21732976Y21823677D02*
X21637738Y21871296D01*
X22732976Y22299867D02*
X22256786Y22299867D01*
X22256786Y22299867D02*
X22209167Y21823677D01*
X22209167Y21823677D02*
X22256786Y21871296D01*
X22256786Y21871296D02*
X22352024Y21918915D01*
X22352024Y21918915D02*
X22590119Y21918915D01*
X22590119Y21918915D02*
X22685357Y21871296D01*
X22685357Y21871296D02*
X22732976Y21823677D01*
X22732976Y21823677D02*
X22780595Y21728439D01*
X22780595Y21728439D02*
X22780595Y21490344D01*
X22780595Y21490344D02*
X22732976Y21395106D01*
X22732976Y21395106D02*
X22685357Y21347486D01*
X22685357Y21347486D02*
X22590119Y21299867D01*
X22590119Y21299867D02*
X22352024Y21299867D01*
X22352024Y21299867D02*
X22256786Y21347486D01*
X22256786Y21347486D02*
X22209167Y21395106D01*
X23399643Y22299867D02*
X23494881Y22299867D01*
X23494881Y22299867D02*
X23590119Y22252248D01*
X23590119Y22252248D02*
X23637738Y22204629D01*
X23637738Y22204629D02*
X23685357Y22109391D01*
X23685357Y22109391D02*
X23732976Y21918915D01*
X23732976Y21918915D02*
X23732976Y21680820D01*
X23732976Y21680820D02*
X23685357Y21490344D01*
X23685357Y21490344D02*
X23637738Y21395106D01*
X23637738Y21395106D02*
X23590119Y21347486D01*
X23590119Y21347486D02*
X23494881Y21299867D01*
X23494881Y21299867D02*
X23399643Y21299867D01*
X23399643Y21299867D02*
X23304405Y21347486D01*
X23304405Y21347486D02*
X23256786Y21395106D01*
X23256786Y21395106D02*
X23209167Y21490344D01*
X23209167Y21490344D02*
X23161548Y21680820D01*
X23161548Y21680820D02*
X23161548Y21918915D01*
X23161548Y21918915D02*
X23209167Y22109391D01*
X23209167Y22109391D02*
X23256786Y22204629D01*
X23256786Y22204629D02*
X23304405Y22252248D01*
X23304405Y22252248D02*
X23399643Y22299867D01*
X24923453Y21299867D02*
X24923453Y21966534D01*
X24923453Y21871296D02*
X24971072Y21918915D01*
X24971072Y21918915D02*
X25066310Y21966534D01*
X25066310Y21966534D02*
X25209167Y21966534D01*
X25209167Y21966534D02*
X25304405Y21918915D01*
X25304405Y21918915D02*
X25352024Y21823677D01*
X25352024Y21823677D02*
X25352024Y21299867D01*
X25352024Y21823677D02*
X25399643Y21918915D01*
X25399643Y21918915D02*
X25494881Y21966534D01*
X25494881Y21966534D02*
X25637738Y21966534D01*
X25637738Y21966534D02*
X25732977Y21918915D01*
X25732977Y21918915D02*
X25780596Y21823677D01*
X25780596Y21823677D02*
X25780596Y21299867D01*
X26256786Y21299867D02*
X26256786Y21966534D01*
X26256786Y21871296D02*
X26304405Y21918915D01*
X26304405Y21918915D02*
X26399643Y21966534D01*
X26399643Y21966534D02*
X26542500Y21966534D01*
X26542500Y21966534D02*
X26637738Y21918915D01*
X26637738Y21918915D02*
X26685357Y21823677D01*
X26685357Y21823677D02*
X26685357Y21299867D01*
X26685357Y21823677D02*
X26732976Y21918915D01*
X26732976Y21918915D02*
X26828214Y21966534D01*
X26828214Y21966534D02*
X26971071Y21966534D01*
X26971071Y21966534D02*
X27066310Y21918915D01*
X27066310Y21918915D02*
X27113929Y21823677D01*
X27113929Y21823677D02*
X27113929Y21299867D01*
X45085000Y18534000D02*
X45085000Y21198906D01*
X0Y18534000D02*
X0Y21198906D01*
X45085000Y20612486D02*
X0Y20612486D01*
X45085000Y20612486D02*
X0Y20612486D01*
X45085000Y20612486D02*
X43958496Y20026065D01*
X45085000Y20612486D02*
X43958496Y21198907D01*
X0Y20612486D02*
X1126504Y21198907D01*
X0Y20612486D02*
X1126504Y20026065D01*
X48274512Y4969382D02*
X48274512Y4397954D01*
X48274512Y4683668D02*
X47274512Y4683668D01*
X47274512Y4683668D02*
X47417369Y4588430D01*
X47417369Y4588430D02*
X47512607Y4493192D01*
X47512607Y4493192D02*
X47560226Y4397954D01*
X47703083Y5540811D02*
X47655464Y5445573D01*
X47655464Y5445573D02*
X47607845Y5397954D01*
X47607845Y5397954D02*
X47512607Y5350335D01*
X47512607Y5350335D02*
X47464988Y5350335D01*
X47464988Y5350335D02*
X47369750Y5397954D01*
X47369750Y5397954D02*
X47322131Y5445573D01*
X47322131Y5445573D02*
X47274512Y5540811D01*
X47274512Y5540811D02*
X47274512Y5731287D01*
X47274512Y5731287D02*
X47322131Y5826525D01*
X47322131Y5826525D02*
X47369750Y5874144D01*
X47369750Y5874144D02*
X47464988Y5921763D01*
X47464988Y5921763D02*
X47512607Y5921763D01*
X47512607Y5921763D02*
X47607845Y5874144D01*
X47607845Y5874144D02*
X47655464Y5826525D01*
X47655464Y5826525D02*
X47703083Y5731287D01*
X47703083Y5731287D02*
X47703083Y5540811D01*
X47703083Y5540811D02*
X47750702Y5445573D01*
X47750702Y5445573D02*
X47798321Y5397954D01*
X47798321Y5397954D02*
X47893559Y5350335D01*
X47893559Y5350335D02*
X48084035Y5350335D01*
X48084035Y5350335D02*
X48179273Y5397954D01*
X48179273Y5397954D02*
X48226893Y5445573D01*
X48226893Y5445573D02*
X48274512Y5540811D01*
X48274512Y5540811D02*
X48274512Y5731287D01*
X48274512Y5731287D02*
X48226893Y5826525D01*
X48226893Y5826525D02*
X48179273Y5874144D01*
X48179273Y5874144D02*
X48084035Y5921763D01*
X48084035Y5921763D02*
X47893559Y5921763D01*
X47893559Y5921763D02*
X47798321Y5874144D01*
X47798321Y5874144D02*
X47750702Y5826525D01*
X47750702Y5826525D02*
X47703083Y5731287D01*
X48179273Y6350335D02*
X48226893Y6397954D01*
X48226893Y6397954D02*
X48274512Y6350335D01*
X48274512Y6350335D02*
X48226893Y6302716D01*
X48226893Y6302716D02*
X48179273Y6350335D01*
X48179273Y6350335D02*
X48274512Y6350335D01*
X47274512Y7017001D02*
X47274512Y7112239D01*
X47274512Y7112239D02*
X47322131Y7207477D01*
X47322131Y7207477D02*
X47369750Y7255096D01*
X47369750Y7255096D02*
X47464988Y7302715D01*
X47464988Y7302715D02*
X47655464Y7350334D01*
X47655464Y7350334D02*
X47893559Y7350334D01*
X47893559Y7350334D02*
X48084035Y7302715D01*
X48084035Y7302715D02*
X48179273Y7255096D01*
X48179273Y7255096D02*
X48226893Y7207477D01*
X48226893Y7207477D02*
X48274512Y7112239D01*
X48274512Y7112239D02*
X48274512Y7017001D01*
X48274512Y7017001D02*
X48226893Y6921763D01*
X48226893Y6921763D02*
X48179273Y6874144D01*
X48179273Y6874144D02*
X48084035Y6826525D01*
X48084035Y6826525D02*
X47893559Y6778906D01*
X47893559Y6778906D02*
X47655464Y6778906D01*
X47655464Y6778906D02*
X47464988Y6826525D01*
X47464988Y6826525D02*
X47369750Y6874144D01*
X47369750Y6874144D02*
X47322131Y6921763D01*
X47322131Y6921763D02*
X47274512Y7017001D01*
X47274512Y7683668D02*
X47274512Y8302715D01*
X47274512Y8302715D02*
X47655464Y7969382D01*
X47655464Y7969382D02*
X47655464Y8112239D01*
X47655464Y8112239D02*
X47703083Y8207477D01*
X47703083Y8207477D02*
X47750702Y8255096D01*
X47750702Y8255096D02*
X47845940Y8302715D01*
X47845940Y8302715D02*
X48084035Y8302715D01*
X48084035Y8302715D02*
X48179273Y8255096D01*
X48179273Y8255096D02*
X48226893Y8207477D01*
X48226893Y8207477D02*
X48274512Y8112239D01*
X48274512Y8112239D02*
X48274512Y7826525D01*
X48274512Y7826525D02*
X48226893Y7731287D01*
X48226893Y7731287D02*
X48179273Y7683668D01*
X47607845Y9159858D02*
X48274512Y9159858D01*
X47226893Y8921763D02*
X47941178Y8683668D01*
X47941178Y8683668D02*
X47941178Y9302715D01*
X47274512Y9874144D02*
X47274512Y9969382D01*
X47274512Y9969382D02*
X47322131Y10064620D01*
X47322131Y10064620D02*
X47369750Y10112239D01*
X47369750Y10112239D02*
X47464988Y10159858D01*
X47464988Y10159858D02*
X47655464Y10207477D01*
X47655464Y10207477D02*
X47893559Y10207477D01*
X47893559Y10207477D02*
X48084035Y10159858D01*
X48084035Y10159858D02*
X48179273Y10112239D01*
X48179273Y10112239D02*
X48226893Y10064620D01*
X48226893Y10064620D02*
X48274512Y9969382D01*
X48274512Y9969382D02*
X48274512Y9874144D01*
X48274512Y9874144D02*
X48226893Y9778906D01*
X48226893Y9778906D02*
X48179273Y9731287D01*
X48179273Y9731287D02*
X48084035Y9683668D01*
X48084035Y9683668D02*
X47893559Y9636049D01*
X47893559Y9636049D02*
X47655464Y9636049D01*
X47655464Y9636049D02*
X47464988Y9683668D01*
X47464988Y9683668D02*
X47369750Y9731287D01*
X47369750Y9731287D02*
X47322131Y9778906D01*
X47322131Y9778906D02*
X47274512Y9874144D01*
X48274512Y11397954D02*
X47607845Y11397954D01*
X47703083Y11397954D02*
X47655464Y11445573D01*
X47655464Y11445573D02*
X47607845Y11540811D01*
X47607845Y11540811D02*
X47607845Y11683668D01*
X47607845Y11683668D02*
X47655464Y11778906D01*
X47655464Y11778906D02*
X47750702Y11826525D01*
X47750702Y11826525D02*
X48274512Y11826525D01*
X47750702Y11826525D02*
X47655464Y11874144D01*
X47655464Y11874144D02*
X47607845Y11969382D01*
X47607845Y11969382D02*
X47607845Y12112239D01*
X47607845Y12112239D02*
X47655464Y12207478D01*
X47655464Y12207478D02*
X47750702Y12255097D01*
X47750702Y12255097D02*
X48274512Y12255097D01*
X48274512Y12731287D02*
X47607845Y12731287D01*
X47703083Y12731287D02*
X47655464Y12778906D01*
X47655464Y12778906D02*
X47607845Y12874144D01*
X47607845Y12874144D02*
X47607845Y13017001D01*
X47607845Y13017001D02*
X47655464Y13112239D01*
X47655464Y13112239D02*
X47750702Y13159858D01*
X47750702Y13159858D02*
X48274512Y13159858D01*
X47750702Y13159858D02*
X47655464Y13207477D01*
X47655464Y13207477D02*
X47607845Y13302715D01*
X47607845Y13302715D02*
X47607845Y13445572D01*
X47607845Y13445572D02*
X47655464Y13540811D01*
X47655464Y13540811D02*
X47750702Y13588430D01*
X47750702Y13588430D02*
X48274512Y13588430D01*
X45585000Y18034000D02*
X49548313Y18034000D01*
X45585000Y0D02*
X49548313Y0D01*
X48961893Y18034000D02*
X48961893Y0D01*
X48961893Y18034000D02*
X48961893Y0D01*
X48961893Y18034000D02*
X49548314Y16907496D01*
X48961893Y18034000D02*
X48375472Y16907496D01*
X48961893Y0D02*
X48375472Y1126504D01*
X48961893Y0D02*
X49548314Y1126504D01*
D11*
%TO.C,J102*%
X41561202Y8986868D02*
X41061202Y8986868D01*
X41561202Y9272582D02*
X41275488Y9058297D01*
X41061202Y9272582D02*
X41346916Y8986868D01*
X41299297Y9486868D02*
X41299297Y9653535D01*
X41561202Y9724963D02*
X41561202Y9486868D01*
X41561202Y9486868D02*
X41061202Y9486868D01*
X41061202Y9486868D02*
X41061202Y9724963D01*
X41299297Y9939249D02*
X41299297Y10105916D01*
X41561202Y10177344D02*
X41561202Y9939249D01*
X41561202Y9939249D02*
X41061202Y9939249D01*
X41061202Y9939249D02*
X41061202Y10177344D01*
X41561202Y10391630D02*
X41061202Y10391630D01*
X41061202Y10391630D02*
X41061202Y10582106D01*
X41061202Y10582106D02*
X41085012Y10629725D01*
X41085012Y10629725D02*
X41108821Y10653535D01*
X41108821Y10653535D02*
X41156440Y10677344D01*
X41156440Y10677344D02*
X41227869Y10677344D01*
X41227869Y10677344D02*
X41275488Y10653535D01*
X41275488Y10653535D02*
X41299297Y10629725D01*
X41299297Y10629725D02*
X41323107Y10582106D01*
X41323107Y10582106D02*
X41323107Y10391630D01*
X41061202Y10986868D02*
X41061202Y11082106D01*
X41061202Y11082106D02*
X41085012Y11129725D01*
X41085012Y11129725D02*
X41132631Y11177344D01*
X41132631Y11177344D02*
X41227869Y11201154D01*
X41227869Y11201154D02*
X41394535Y11201154D01*
X41394535Y11201154D02*
X41489773Y11177344D01*
X41489773Y11177344D02*
X41537393Y11129725D01*
X41537393Y11129725D02*
X41561202Y11082106D01*
X41561202Y11082106D02*
X41561202Y10986868D01*
X41561202Y10986868D02*
X41537393Y10939249D01*
X41537393Y10939249D02*
X41489773Y10891630D01*
X41489773Y10891630D02*
X41394535Y10867821D01*
X41394535Y10867821D02*
X41227869Y10867821D01*
X41227869Y10867821D02*
X41132631Y10891630D01*
X41132631Y10891630D02*
X41085012Y10939249D01*
X41085012Y10939249D02*
X41061202Y10986868D01*
X41061202Y11415440D02*
X41465964Y11415440D01*
X41465964Y11415440D02*
X41513583Y11439250D01*
X41513583Y11439250D02*
X41537393Y11463059D01*
X41537393Y11463059D02*
X41561202Y11510678D01*
X41561202Y11510678D02*
X41561202Y11605916D01*
X41561202Y11605916D02*
X41537393Y11653535D01*
X41537393Y11653535D02*
X41513583Y11677345D01*
X41513583Y11677345D02*
X41465964Y11701154D01*
X41465964Y11701154D02*
X41061202Y11701154D01*
X41061202Y11867822D02*
X41061202Y12153536D01*
X41561202Y12010679D02*
X41061202Y12010679D01*
D12*
X42103678Y14520915D02*
X41903678Y14520915D01*
X41803678Y14520915D02*
X41817964Y14506629D01*
X41817964Y14506629D02*
X41832250Y14520915D01*
X41832250Y14520915D02*
X41817964Y14535201D01*
X41817964Y14535201D02*
X41803678Y14520915D01*
X41803678Y14520915D02*
X41832250Y14520915D01*
X41903678Y14663772D02*
X42103678Y14663772D01*
X41932250Y14663772D02*
X41917964Y14678058D01*
X41917964Y14678058D02*
X41903678Y14706629D01*
X41903678Y14706629D02*
X41903678Y14749486D01*
X41903678Y14749486D02*
X41917964Y14778058D01*
X41917964Y14778058D02*
X41946535Y14792343D01*
X41946535Y14792343D02*
X42103678Y14792343D01*
X42103678Y15163772D02*
X41803678Y15163772D01*
X41989393Y15192343D02*
X42103678Y15278058D01*
X41903678Y15278058D02*
X42017964Y15163772D01*
X42089393Y15520915D02*
X42103678Y15492343D01*
X42103678Y15492343D02*
X42103678Y15435200D01*
X42103678Y15435200D02*
X42089393Y15406629D01*
X42089393Y15406629D02*
X42060821Y15392343D01*
X42060821Y15392343D02*
X41946535Y15392343D01*
X41946535Y15392343D02*
X41917964Y15406629D01*
X41917964Y15406629D02*
X41903678Y15435200D01*
X41903678Y15435200D02*
X41903678Y15492343D01*
X41903678Y15492343D02*
X41917964Y15520915D01*
X41917964Y15520915D02*
X41946535Y15535200D01*
X41946535Y15535200D02*
X41975107Y15535200D01*
X41975107Y15535200D02*
X42003678Y15392343D01*
X42089393Y15778058D02*
X42103678Y15749486D01*
X42103678Y15749486D02*
X42103678Y15692343D01*
X42103678Y15692343D02*
X42089393Y15663772D01*
X42089393Y15663772D02*
X42060821Y15649486D01*
X42060821Y15649486D02*
X41946535Y15649486D01*
X41946535Y15649486D02*
X41917964Y15663772D01*
X41917964Y15663772D02*
X41903678Y15692343D01*
X41903678Y15692343D02*
X41903678Y15749486D01*
X41903678Y15749486D02*
X41917964Y15778058D01*
X41917964Y15778058D02*
X41946535Y15792343D01*
X41946535Y15792343D02*
X41975107Y15792343D01*
X41975107Y15792343D02*
X42003678Y15649486D01*
X41903678Y15920915D02*
X42203678Y15920915D01*
X41917964Y15920915D02*
X41903678Y15949486D01*
X41903678Y15949486D02*
X41903678Y16006629D01*
X41903678Y16006629D02*
X41917964Y16035201D01*
X41917964Y16035201D02*
X41932250Y16049486D01*
X41932250Y16049486D02*
X41960821Y16063772D01*
X41960821Y16063772D02*
X42046535Y16063772D01*
X42046535Y16063772D02*
X42075107Y16049486D01*
X42075107Y16049486D02*
X42089393Y16035201D01*
X42089393Y16035201D02*
X42103678Y16006629D01*
X42103678Y16006629D02*
X42103678Y15949486D01*
X42103678Y15949486D02*
X42089393Y15920915D01*
X42103678Y16235201D02*
X42089393Y16206630D01*
X42089393Y16206630D02*
X42075107Y16192344D01*
X42075107Y16192344D02*
X42046535Y16178058D01*
X42046535Y16178058D02*
X41960821Y16178058D01*
X41960821Y16178058D02*
X41932250Y16192344D01*
X41932250Y16192344D02*
X41917964Y16206630D01*
X41917964Y16206630D02*
X41903678Y16235201D01*
X41903678Y16235201D02*
X41903678Y16278058D01*
X41903678Y16278058D02*
X41917964Y16306630D01*
X41917964Y16306630D02*
X41932250Y16320915D01*
X41932250Y16320915D02*
X41960821Y16335201D01*
X41960821Y16335201D02*
X42046535Y16335201D01*
X42046535Y16335201D02*
X42075107Y16320915D01*
X42075107Y16320915D02*
X42089393Y16306630D01*
X42089393Y16306630D02*
X42103678Y16278058D01*
X42103678Y16278058D02*
X42103678Y16235201D01*
X41903678Y16592344D02*
X42103678Y16592344D01*
X41903678Y16463773D02*
X42060821Y16463773D01*
X42060821Y16463773D02*
X42089393Y16478059D01*
X42089393Y16478059D02*
X42103678Y16506630D01*
X42103678Y16506630D02*
X42103678Y16549487D01*
X42103678Y16549487D02*
X42089393Y16578059D01*
X42089393Y16578059D02*
X42075107Y16592344D01*
X41903678Y16692345D02*
X41903678Y16806631D01*
X41803678Y16735202D02*
X42060821Y16735202D01*
X42060821Y16735202D02*
X42089393Y16749488D01*
X42089393Y16749488D02*
X42103678Y16778059D01*
X42103678Y16778059D02*
X42103678Y16806631D01*
X42103678Y17263773D02*
X41946535Y17263773D01*
X41946535Y17263773D02*
X41917964Y17249488D01*
X41917964Y17249488D02*
X41903678Y17220916D01*
X41903678Y17220916D02*
X41903678Y17163773D01*
X41903678Y17163773D02*
X41917964Y17135202D01*
X42089393Y17263773D02*
X42103678Y17235202D01*
X42103678Y17235202D02*
X42103678Y17163773D01*
X42103678Y17163773D02*
X42089393Y17135202D01*
X42089393Y17135202D02*
X42060821Y17120916D01*
X42060821Y17120916D02*
X42032250Y17120916D01*
X42032250Y17120916D02*
X42003678Y17135202D01*
X42003678Y17135202D02*
X41989393Y17163773D01*
X41989393Y17163773D02*
X41989393Y17235202D01*
X41989393Y17235202D02*
X41975107Y17263773D01*
X42103678Y17406631D02*
X41903678Y17406631D01*
X41960821Y17406631D02*
X41932250Y17420917D01*
X41932250Y17420917D02*
X41917964Y17435202D01*
X41917964Y17435202D02*
X41903678Y17463774D01*
X41903678Y17463774D02*
X41903678Y17492345D01*
X42089393Y17706631D02*
X42103678Y17678059D01*
X42103678Y17678059D02*
X42103678Y17620916D01*
X42103678Y17620916D02*
X42089393Y17592345D01*
X42089393Y17592345D02*
X42060821Y17578059D01*
X42060821Y17578059D02*
X41946535Y17578059D01*
X41946535Y17578059D02*
X41917964Y17592345D01*
X41917964Y17592345D02*
X41903678Y17620916D01*
X41903678Y17620916D02*
X41903678Y17678059D01*
X41903678Y17678059D02*
X41917964Y17706631D01*
X41917964Y17706631D02*
X41946535Y17720916D01*
X41946535Y17720916D02*
X41975107Y17720916D01*
X41975107Y17720916D02*
X42003678Y17578059D01*
X42103678Y17978059D02*
X41946535Y17978059D01*
X41946535Y17978059D02*
X41917964Y17963774D01*
X41917964Y17963774D02*
X41903678Y17935202D01*
X41903678Y17935202D02*
X41903678Y17878059D01*
X41903678Y17878059D02*
X41917964Y17849488D01*
X42089393Y17978059D02*
X42103678Y17949488D01*
X42103678Y17949488D02*
X42103678Y17878059D01*
X42103678Y17878059D02*
X42089393Y17849488D01*
X42089393Y17849488D02*
X42060821Y17835202D01*
X42060821Y17835202D02*
X42032250Y17835202D01*
X42032250Y17835202D02*
X42003678Y17849488D01*
X42003678Y17849488D02*
X41989393Y17878059D01*
X41989393Y17878059D02*
X41989393Y17949488D01*
X41989393Y17949488D02*
X41975107Y17978059D01*
X41468678Y14328059D02*
X41168678Y14328059D01*
X41168678Y14328059D02*
X41468678Y14499488D01*
X41468678Y14499488D02*
X41168678Y14499488D01*
X41468678Y14685202D02*
X41454393Y14656631D01*
X41454393Y14656631D02*
X41440107Y14642345D01*
X41440107Y14642345D02*
X41411535Y14628059D01*
X41411535Y14628059D02*
X41325821Y14628059D01*
X41325821Y14628059D02*
X41297250Y14642345D01*
X41297250Y14642345D02*
X41282964Y14656631D01*
X41282964Y14656631D02*
X41268678Y14685202D01*
X41268678Y14685202D02*
X41268678Y14728059D01*
X41268678Y14728059D02*
X41282964Y14756631D01*
X41282964Y14756631D02*
X41297250Y14770916D01*
X41297250Y14770916D02*
X41325821Y14785202D01*
X41325821Y14785202D02*
X41411535Y14785202D01*
X41411535Y14785202D02*
X41440107Y14770916D01*
X41440107Y14770916D02*
X41454393Y14756631D01*
X41454393Y14756631D02*
X41468678Y14728059D01*
X41468678Y14728059D02*
X41468678Y14685202D01*
X41268678Y15099488D02*
X41268678Y15213774D01*
X41168678Y15142345D02*
X41425821Y15142345D01*
X41425821Y15142345D02*
X41454393Y15156631D01*
X41454393Y15156631D02*
X41468678Y15185202D01*
X41468678Y15185202D02*
X41468678Y15213774D01*
X41468678Y15313774D02*
X41268678Y15313774D01*
X41325821Y15313774D02*
X41297250Y15328060D01*
X41297250Y15328060D02*
X41282964Y15342345D01*
X41282964Y15342345D02*
X41268678Y15370917D01*
X41268678Y15370917D02*
X41268678Y15399488D01*
X41468678Y15628059D02*
X41311535Y15628059D01*
X41311535Y15628059D02*
X41282964Y15613774D01*
X41282964Y15613774D02*
X41268678Y15585202D01*
X41268678Y15585202D02*
X41268678Y15528059D01*
X41268678Y15528059D02*
X41282964Y15499488D01*
X41454393Y15628059D02*
X41468678Y15599488D01*
X41468678Y15599488D02*
X41468678Y15528059D01*
X41468678Y15528059D02*
X41454393Y15499488D01*
X41454393Y15499488D02*
X41425821Y15485202D01*
X41425821Y15485202D02*
X41397250Y15485202D01*
X41397250Y15485202D02*
X41368678Y15499488D01*
X41368678Y15499488D02*
X41354393Y15528059D01*
X41354393Y15528059D02*
X41354393Y15599488D01*
X41354393Y15599488D02*
X41340107Y15628059D01*
X41454393Y15899488D02*
X41468678Y15870917D01*
X41468678Y15870917D02*
X41468678Y15813774D01*
X41468678Y15813774D02*
X41454393Y15785203D01*
X41454393Y15785203D02*
X41440107Y15770917D01*
X41440107Y15770917D02*
X41411535Y15756631D01*
X41411535Y15756631D02*
X41325821Y15756631D01*
X41325821Y15756631D02*
X41297250Y15770917D01*
X41297250Y15770917D02*
X41282964Y15785203D01*
X41282964Y15785203D02*
X41268678Y15813774D01*
X41268678Y15813774D02*
X41268678Y15870917D01*
X41268678Y15870917D02*
X41282964Y15899488D01*
X41468678Y16028060D02*
X41168678Y16028060D01*
X41354393Y16056631D02*
X41468678Y16142346D01*
X41268678Y16142346D02*
X41382964Y16028060D01*
X41454393Y16256631D02*
X41468678Y16285203D01*
X41468678Y16285203D02*
X41468678Y16342346D01*
X41468678Y16342346D02*
X41454393Y16370917D01*
X41454393Y16370917D02*
X41425821Y16385203D01*
X41425821Y16385203D02*
X41411535Y16385203D01*
X41411535Y16385203D02*
X41382964Y16370917D01*
X41382964Y16370917D02*
X41368678Y16342346D01*
X41368678Y16342346D02*
X41368678Y16299488D01*
X41368678Y16299488D02*
X41354393Y16270917D01*
X41354393Y16270917D02*
X41325821Y16256631D01*
X41325821Y16256631D02*
X41311535Y16256631D01*
X41311535Y16256631D02*
X41282964Y16270917D01*
X41282964Y16270917D02*
X41268678Y16299488D01*
X41268678Y16299488D02*
X41268678Y16342346D01*
X41268678Y16342346D02*
X41282964Y16370917D01*
X41468678Y16785202D02*
X41454393Y16756631D01*
X41454393Y16756631D02*
X41440107Y16742345D01*
X41440107Y16742345D02*
X41411535Y16728059D01*
X41411535Y16728059D02*
X41325821Y16728059D01*
X41325821Y16728059D02*
X41297250Y16742345D01*
X41297250Y16742345D02*
X41282964Y16756631D01*
X41282964Y16756631D02*
X41268678Y16785202D01*
X41268678Y16785202D02*
X41268678Y16828059D01*
X41268678Y16828059D02*
X41282964Y16856631D01*
X41282964Y16856631D02*
X41297250Y16870916D01*
X41297250Y16870916D02*
X41325821Y16885202D01*
X41325821Y16885202D02*
X41411535Y16885202D01*
X41411535Y16885202D02*
X41440107Y16870916D01*
X41440107Y16870916D02*
X41454393Y16856631D01*
X41454393Y16856631D02*
X41468678Y16828059D01*
X41468678Y16828059D02*
X41468678Y16785202D01*
X41468678Y17013774D02*
X41268678Y17013774D01*
X41325821Y17013774D02*
X41297250Y17028060D01*
X41297250Y17028060D02*
X41282964Y17042345D01*
X41282964Y17042345D02*
X41268678Y17070917D01*
X41268678Y17070917D02*
X41268678Y17099488D01*
X41268678Y17399488D02*
X41468678Y17470916D01*
X41468678Y17470916D02*
X41268678Y17542345D01*
X41468678Y17656630D02*
X41268678Y17656630D01*
X41168678Y17656630D02*
X41182964Y17642344D01*
X41182964Y17642344D02*
X41197250Y17656630D01*
X41197250Y17656630D02*
X41182964Y17670916D01*
X41182964Y17670916D02*
X41168678Y17656630D01*
X41168678Y17656630D02*
X41197250Y17656630D01*
X41468678Y17928058D02*
X41311535Y17928058D01*
X41311535Y17928058D02*
X41282964Y17913773D01*
X41282964Y17913773D02*
X41268678Y17885201D01*
X41268678Y17885201D02*
X41268678Y17828058D01*
X41268678Y17828058D02*
X41282964Y17799487D01*
X41454393Y17928058D02*
X41468678Y17899487D01*
X41468678Y17899487D02*
X41468678Y17828058D01*
X41468678Y17828058D02*
X41454393Y17799487D01*
X41454393Y17799487D02*
X41425821Y17785201D01*
X41425821Y17785201D02*
X41397250Y17785201D01*
X41397250Y17785201D02*
X41368678Y17799487D01*
X41368678Y17799487D02*
X41354393Y17828058D01*
X41354393Y17828058D02*
X41354393Y17899487D01*
X41354393Y17899487D02*
X41340107Y17928058D01*
X41454393Y18056630D02*
X41468678Y18085202D01*
X41468678Y18085202D02*
X41468678Y18142345D01*
X41468678Y18142345D02*
X41454393Y18170916D01*
X41454393Y18170916D02*
X41425821Y18185202D01*
X41425821Y18185202D02*
X41411535Y18185202D01*
X41411535Y18185202D02*
X41382964Y18170916D01*
X41382964Y18170916D02*
X41368678Y18142345D01*
X41368678Y18142345D02*
X41368678Y18099487D01*
X41368678Y18099487D02*
X41354393Y18070916D01*
X41354393Y18070916D02*
X41325821Y18056630D01*
X41325821Y18056630D02*
X41311535Y18056630D01*
X41311535Y18056630D02*
X41282964Y18070916D01*
X41282964Y18070916D02*
X41268678Y18099487D01*
X41268678Y18099487D02*
X41268678Y18142345D01*
X41268678Y18142345D02*
X41282964Y18170916D01*
%TD*%
M02*
