M48
; DRILL file {KiCad 7.0.2-0} date 2023 May 15, Monday 20:56:50
; FORMAT={-:-/ absolute / inch / decimal}
; #@! TF.CreationDate,2023-05-15T20:56:50-04:00
; #@! TF.GenerationSoftware,Kicad,Pcbnew,7.0.2-0
; #@! TF.FileFunction,Plated,1,4,PTH
FMAT,2
INCH
; #@! TA.AperFunction,Plated,PTH,ViaDrill
T1C0.0157
; #@! TA.AperFunction,Plated,PTH,ComponentDrill
T2C0.0197
; #@! TA.AperFunction,Plated,PTH,ComponentDrill
T3C0.0394
%
G90
G05
T1
X0.0522Y0.6747
X0.0522Y0.1447
X0.2352Y0.2907
X0.2372Y0.4297
X0.2372Y0.2347
X0.2422Y0.387
X0.2422Y0.3485
X0.2427Y0.4727
X0.3112Y0.2127
X0.3291Y0.3747
X0.3617Y0.5187
X0.3672Y0.2147
X0.4122Y0.2597
X0.4565Y0.5516
X0.5036Y0.5584
X0.5172Y0.3747
X0.5308Y0.5311
X0.5422Y0.2347
X0.5422Y0.2047
X0.6072Y0.5197
X0.6512Y0.1827
X0.6632Y0.3907
X0.7122Y0.5447
X0.7472Y0.2687
X0.7992Y0.5587
X0.8054Y0.2647
X0.8199Y0.1465
X0.8332Y0.4708
X0.8336Y0.2373
X0.8336Y0.1897
X0.9587Y0.1647
X0.9796Y0.1312
X0.9922Y0.5797
X0.9922Y0.3197
X1.016Y0.2843
X1.0499Y0.3283
X1.0572Y0.3747
X1.0772Y0.4747
X1.1324Y0.3389
X1.1422Y0.4647
X1.1522Y0.4197
X1.1692Y0.2803
X1.1972Y0.3646
X1.2002Y0.5878
X1.2072Y0.3147
X1.3492Y0.1167
X1.361Y0.2649
X1.3952Y0.1707
X1.4172Y0.4563
X1.5222Y0.5047
X1.5322Y0.4397
X1.5372Y0.3547
X1.5872Y0.2597
X1.6672Y0.1097
X1.6996Y0.3097
X1.7172Y0.4147
X1.7292Y0.6427
X1.7292Y0.0647
T3
X0.155Y0.6546
X0.155Y0.0546
X0.255Y0.6546
X0.255Y0.0546
X0.355Y0.6546
X0.355Y0.0546
X0.455Y0.6546
X0.455Y0.0546
X0.555Y0.6546
X0.555Y0.0546
X0.655Y0.6546
X0.655Y0.0546
X0.755Y0.6546
X0.755Y0.0546
X0.855Y0.6546
X0.855Y0.0546
X0.955Y0.6546
X0.955Y0.0546
X1.055Y0.6546
X1.055Y0.0546
X1.155Y0.6546
X1.155Y0.0546
X1.255Y0.6546
X1.255Y0.0546
X1.355Y0.6546
X1.355Y0.0546
X1.455Y0.6546
X1.455Y0.0546
X1.555Y0.6546
X1.555Y0.0546
T2
G00X0.0734Y0.4662
M15
G01X0.0459Y0.4662
M16
G05
G00X0.0734Y0.2438
M15
G01X0.0459Y0.2438
M16
G05
T0
M30
