%TF.GenerationSoftware,KiCad,Pcbnew,(7.0.0-0)*%
%TF.CreationDate,2023-03-26T13:07:46-04:00*%
%TF.ProjectId,mini_arduino_clone,6d696e69-5f61-4726-9475-696e6f5f636c,rev?*%
%TF.SameCoordinates,Original*%
%TF.FileFunction,Legend,Bot*%
%TF.FilePolarity,Positive*%
%FSLAX46Y46*%
G04 Gerber Fmt 4.6, Leading zero omitted, Abs format (unit mm)*
G04 Created by KiCad (PCBNEW (7.0.0-0)) date 2023-03-26 13:07:46*
%MOMM*%
%LPD*%
G01*
G04 APERTURE LIST*
%ADD10C,0.120000*%
%ADD11C,0.600000*%
%ADD12O,1.700000X1.000000*%
%ADD13O,1.700000X0.850000*%
%ADD14C,0.991000*%
%ADD15R,1.700000X1.700000*%
%ADD16O,1.700000X1.700000*%
%ADD17C,0.800000*%
G04 APERTURE END LIST*
D10*
%TO.C,J103*%
X2607000Y15297000D02*
X2607000Y17957000D01*
X38227000Y15297000D02*
X2607000Y15297000D01*
X38227000Y15297000D02*
X38227000Y17957000D01*
X39497000Y15297000D02*
X40827000Y15297000D01*
X40827000Y15297000D02*
X40827000Y16627000D01*
X38227000Y17957000D02*
X2607000Y17957000D01*
%TO.C,J104*%
X2607000Y57000D02*
X2607000Y2717000D01*
X38227000Y57000D02*
X2607000Y57000D01*
X38227000Y57000D02*
X38227000Y2717000D01*
X39497000Y57000D02*
X40827000Y57000D01*
X40827000Y57000D02*
X40827000Y1387000D01*
X38227000Y2717000D02*
X2607000Y2717000D01*
%TD*%
%LPC*%
D11*
%TO.C,J101*%
X3865000Y11017000D03*
X3865000Y7017000D03*
D12*
X1514999Y11841999D03*
D13*
X1514999Y6191999D03*
%TD*%
D14*
%TO.C,J102*%
X41329893Y7994487D03*
X40314893Y13074487D03*
X42344893Y13074487D03*
%TD*%
D15*
%TO.C,J103*%
X39496999Y16626999D03*
D16*
X36956999Y16626999D03*
X34416999Y16626999D03*
X31876999Y16626999D03*
X29336999Y16626999D03*
X26796999Y16626999D03*
X24256999Y16626999D03*
X21716999Y16626999D03*
X19176999Y16626999D03*
X16636999Y16626999D03*
X14096999Y16626999D03*
X11556999Y16626999D03*
X9016999Y16626999D03*
X6476999Y16626999D03*
X3936999Y16626999D03*
%TD*%
D15*
%TO.C,J104*%
X39496999Y1386999D03*
D16*
X36956999Y1386999D03*
X34416999Y1386999D03*
X31876999Y1386999D03*
X29336999Y1386999D03*
X26796999Y1386999D03*
X24256999Y1386999D03*
X21716999Y1386999D03*
X19176999Y1386999D03*
X16636999Y1386999D03*
X14096999Y1386999D03*
X11556999Y1386999D03*
X9016999Y1386999D03*
X6476999Y1386999D03*
X3936999Y1386999D03*
%TD*%
D17*
X20628893Y3676487D03*
X2086893Y3676487D03*
X7903493Y5403687D03*
X21162293Y11957387D03*
X16539493Y4641687D03*
X43920693Y1644487D03*
X20298693Y14192087D03*
X13135893Y9518487D03*
X29696693Y7118865D03*
X35995893Y11589568D03*
X10468893Y6597487D03*
X34569933Y6728047D03*
X40313893Y6597487D03*
X43920693Y16325687D03*
X5973093Y7384887D03*
X35437093Y4336887D03*
X34268693Y2965287D03*
X38662893Y12820487D03*
X6165244Y12007687D03*
X6023893Y10915487D03*
X6023893Y5962487D03*
X30661893Y7994487D03*
X1324893Y17138487D03*
X25200893Y14725487D03*
X39043893Y9010487D03*
X18088893Y13836487D03*
X13770893Y5962487D03*
X13770893Y5200487D03*
X42345893Y2787487D03*
X8359593Y9518487D03*
X15421893Y13201487D03*
X26666994Y8339403D03*
X11595954Y14010356D03*
X20628893Y4819487D03*
X9325893Y5454487D03*
X9186493Y13176087D03*
X6150893Y8853100D03*
X13481598Y13490782D03*
X12790188Y14182192D03*
X6150893Y9830900D03*
X43170393Y7867487D03*
X27359893Y12058487D03*
X43615893Y10534487D03*
X31119771Y14294365D03*
X29264893Y10661487D03*
X38916893Y11169487D03*
X26851893Y9518487D03*
X28763473Y8606810D03*
X30407893Y9261987D03*
X29010893Y11804487D03*
X25200893Y8121487D03*
X25806813Y7220390D03*
X21173993Y6028513D03*
X20456621Y6724487D03*
X24350993Y4184487D03*
X16844293Y9924887D03*
X18977893Y6826087D03*
X24882710Y3332892D03*
M02*
