%TF.GenerationSoftware,KiCad,Pcbnew,7.0.5-0*%
%TF.CreationDate,2023-06-02T14:28:35-04:00*%
%TF.ProjectId,mini_arduino_clone,6d696e69-5f61-4726-9475-696e6f5f636c,A*%
%TF.SameCoordinates,Original*%
%TF.FileFunction,Copper,L4,Bot*%
%TF.FilePolarity,Positive*%
%FSLAX46Y46*%
G04 Gerber Fmt 4.6, Leading zero omitted, Abs format (unit mm)*
G04 Created by KiCad (PCBNEW 7.0.5-0) date 2023-06-02 14:28:35*
%MOMM*%
%LPD*%
G01*
G04 APERTURE LIST*
%TA.AperFunction,ComponentPad*%
%ADD10O,1.700000X1.000000*%
%TD*%
%TA.AperFunction,ComponentPad*%
%ADD11O,1.700000X0.850000*%
%TD*%
%TA.AperFunction,ComponentPad*%
%ADD12R,1.700000X1.700000*%
%TD*%
%TA.AperFunction,ComponentPad*%
%ADD13O,1.700000X1.700000*%
%TD*%
%TA.AperFunction,ViaPad*%
%ADD14C,0.800000*%
%TD*%
%TA.AperFunction,Conductor*%
%ADD15C,0.200000*%
%TD*%
%TA.AperFunction,Conductor*%
%ADD16C,0.246888*%
%TD*%
G04 APERTURE END LIST*
D10*
%TO.P,J101,6,Shield*%
%TO.N,unconnected-(J101-Shield-Pad6)*%
X1515000Y11842000D03*
D11*
X1515000Y6192000D03*
%TD*%
D12*
%TO.P,J103,1,Pin_1*%
%TO.N,/D5*%
X39497000Y16627000D03*
D13*
%TO.P,J103,2,Pin_2*%
%TO.N,/D6*%
X36957000Y16627000D03*
%TO.P,J103,3,Pin_3*%
%TO.N,/D7*%
X34417000Y16627000D03*
%TO.P,J103,4,Pin_4*%
%TO.N,/D8*%
X31877000Y16627000D03*
%TO.P,J103,5,Pin_5*%
%TO.N,/D9*%
X29337000Y16627000D03*
%TO.P,J103,6,Pin_6*%
%TO.N,/D10*%
X26797000Y16627000D03*
%TO.P,J103,7,Pin_7*%
%TO.N,/D11{slash}MOSI*%
X24257000Y16627000D03*
%TO.P,J103,8,Pin_8*%
%TO.N,/D12{slash}MISO*%
X21717000Y16627000D03*
%TO.P,J103,9,Pin_9*%
%TO.N,/D4*%
X19177000Y16627000D03*
%TO.P,J103,10,Pin_10*%
%TO.N,/D3*%
X16637000Y16627000D03*
%TO.P,J103,11,Pin_11*%
%TO.N,/D2*%
X14097000Y16627000D03*
%TO.P,J103,12,Pin_12*%
%TO.N,GND*%
X11557000Y16627000D03*
%TO.P,J103,13,Pin_13*%
%TO.N,/~{RESET}*%
X9017000Y16627000D03*
%TO.P,J103,14,Pin_14*%
%TO.N,/D0{slash}RX*%
X6477000Y16627000D03*
%TO.P,J103,15,Pin_15*%
%TO.N,/D1{slash}TX*%
X3937000Y16627000D03*
%TD*%
D12*
%TO.P,J104,1,Pin_1*%
%TO.N,/D13{slash}SCK*%
X39497000Y1387000D03*
D13*
%TO.P,J104,2,Pin_2*%
%TO.N,GND*%
X36957000Y1387000D03*
%TO.P,J104,3,Pin_3*%
%TO.N,/~{RESET}*%
X34417000Y1387000D03*
%TO.P,J104,4,Pin_4*%
%TO.N,+5V*%
X31877000Y1387000D03*
%TO.P,J104,5,Pin_5*%
%TO.N,/A7*%
X29337000Y1387000D03*
%TO.P,J104,6,Pin_6*%
%TO.N,/A6*%
X26797000Y1387000D03*
%TO.P,J104,7,Pin_7*%
%TO.N,/A5{slash}SCL*%
X24257000Y1387000D03*
%TO.P,J104,8,Pin_8*%
%TO.N,/A4{slash}~{SDA}*%
X21717000Y1387000D03*
%TO.P,J104,9,Pin_9*%
%TO.N,/A3*%
X19177000Y1387000D03*
%TO.P,J104,10,Pin_10*%
%TO.N,/A2*%
X16637000Y1387000D03*
%TO.P,J104,11,Pin_11*%
%TO.N,/A1*%
X14097000Y1387000D03*
%TO.P,J104,12,Pin_12*%
%TO.N,/A0*%
X11557000Y1387000D03*
%TO.P,J104,13,Pin_13*%
%TO.N,GND*%
X9017000Y1387000D03*
%TO.P,J104,14,Pin_14*%
%TO.N,+3V3*%
X6477000Y1387000D03*
%TO.P,J104,15,Pin_15*%
%TO.N,VBUS*%
X3937000Y1387000D03*
%TD*%
D14*
%TO.N,GND*%
X39932893Y4438487D03*
%TO.N,/~{RESET}*%
X42599893Y7232487D03*
%TO.N,+5V*%
X43615893Y4565487D03*
%TO.N,GND*%
X20826150Y3719987D03*
X1324893Y3676487D03*
X7903493Y5403687D03*
X21162293Y11957387D03*
X16539493Y4641687D03*
X35614893Y9707987D03*
X20298693Y14192087D03*
X13135893Y9518487D03*
X29696693Y7118865D03*
X36249893Y12185487D03*
X10214893Y6724487D03*
X43234893Y2152487D03*
X43361893Y15995487D03*
X5973093Y7384887D03*
X35233893Y3549487D03*
X34268693Y2965287D03*
X39170893Y12820487D03*
X6165244Y12007687D03*
%TO.N,VBUS*%
X6023893Y10915487D03*
X6023893Y5962487D03*
%TO.N,+5V*%
X30661893Y7994487D03*
X1324893Y17138487D03*
X25435125Y14451719D03*
X39297893Y9707987D03*
X18088893Y13836487D03*
X13770893Y5962487D03*
X13770893Y5200487D03*
%TO.N,/~{RESET}*%
X8359593Y9518487D03*
X15421893Y13201487D03*
X26666994Y8339403D03*
X11595954Y14010356D03*
%TO.N,+3V3*%
X21173993Y4819487D03*
%TO.N,/USB_UART/VBUS*%
X9325893Y5454487D03*
X9186493Y13176087D03*
%TO.N,/D_P*%
X6150893Y8853100D03*
X13481598Y13490782D03*
%TO.N,/D_N*%
X12790188Y14182192D03*
X6150893Y9830900D03*
%TO.N,/D12{slash}MISO*%
X43139143Y9106237D03*
X27359893Y12058487D03*
%TO.N,/D13{slash}SCK*%
X43248271Y10928865D03*
X30661893Y14598487D03*
%TO.N,/D11{slash}MOSI*%
X29264893Y10661487D03*
X38916893Y11169487D03*
%TO.N,/D2*%
X26851893Y9518487D03*
%TO.N,/D3*%
X28763473Y8606810D03*
%TO.N,/D4*%
X30407893Y9261987D03*
%TO.N,/D10*%
X29010893Y11804487D03*
%TO.N,/A7*%
X25073893Y8219709D03*
%TO.N,/A6*%
X25806813Y7220390D03*
%TO.N,/A1*%
X21173993Y6028513D03*
%TO.N,/A0*%
X20456621Y6724487D03*
%TO.N,/D0{slash}RX*%
X24350993Y4184487D03*
X16844293Y9924887D03*
%TO.N,/D1{slash}TX*%
X18977893Y6826087D03*
X24882710Y3332892D03*
%TD*%
D15*
%TO.N,/~{RESET}*%
X11595954Y14010356D02*
X11595954Y13947548D01*
X11595954Y13947548D02*
X8359593Y10711187D01*
X8359593Y10711187D02*
X8359593Y9518487D01*
%TO.N,/A7*%
X26506813Y7510340D02*
X26506813Y4021567D01*
X25073893Y8219709D02*
X25797444Y8219709D01*
X25797444Y8219709D02*
X26506813Y7510340D01*
X29141380Y1387000D02*
X29337000Y1387000D01*
X26506813Y4021567D02*
X29141380Y1387000D01*
%TO.N,/D13{slash}SCK*%
X37900893Y11931487D02*
X42245649Y11931487D01*
X32312893Y12947487D02*
X36884893Y12947487D01*
X30661893Y14598487D02*
X32312893Y12947487D01*
X36884893Y12947487D02*
X37900893Y11931487D01*
X42245649Y11931487D02*
X43248271Y10928865D01*
%TO.N,/D12{slash}MISO*%
X43139143Y9106237D02*
X41837893Y10407487D01*
X29645893Y9772487D02*
X29163943Y9772487D01*
X41837893Y10407487D02*
X30280893Y10407487D01*
X30280893Y10407487D02*
X29645893Y9772487D01*
X29163943Y9772487D02*
X27359893Y11576537D01*
X27359893Y11576537D02*
X27359893Y12058487D01*
%TO.N,/~{RESET}*%
X42599893Y7232487D02*
X42599893Y5581487D01*
X35944487Y2914487D02*
X34417000Y1387000D01*
X42599893Y5581487D02*
X39932893Y2914487D01*
X39932893Y2914487D02*
X35944487Y2914487D01*
%TO.N,/D13{slash}SCK*%
X43248271Y10928865D02*
X43869893Y10307243D01*
X43869893Y10307243D02*
X43869893Y5962487D01*
X39497000Y1589594D02*
X39497000Y1387000D01*
X43869893Y5962487D02*
X39497000Y1589594D01*
%TO.N,/D11{slash}MOSI*%
X38916893Y11169487D02*
X38662893Y11423487D01*
X38662893Y11423487D02*
X30026893Y11423487D01*
X30026893Y11423487D02*
X29264893Y10661487D01*
%TO.N,/~{RESET}*%
X34130624Y1387000D02*
X34417000Y1387000D01*
X16520979Y13201487D02*
X15421893Y13201487D01*
X26666994Y8339403D02*
X26087188Y8919209D01*
X20803257Y8919209D02*
X16520979Y13201487D01*
X27178221Y8339403D02*
X34130624Y1387000D01*
X26666994Y8339403D02*
X27178221Y8339403D01*
X26087188Y8919209D02*
X20803257Y8919209D01*
D16*
%TO.N,/D_P*%
X13090487Y13490782D02*
X13080653Y13480948D01*
X10529252Y9941144D02*
X10529251Y9941144D01*
X7001424Y9129656D02*
X6427449Y9129656D01*
X10213252Y8708551D02*
X10213254Y8708549D01*
X13481598Y13490782D02*
X13090487Y13490782D01*
X13080653Y13480948D02*
X12689544Y13480948D01*
X10028345Y9810055D02*
X10213252Y9625148D01*
X9413849Y7909143D02*
X8221937Y7909143D01*
X11570237Y10065531D02*
X11445848Y9941144D01*
X12689544Y13480948D02*
X11570237Y12361641D01*
X11570237Y12361641D02*
X11570237Y10065531D01*
X10028345Y9810056D02*
X10028345Y9810055D01*
X10213254Y8708549D02*
X9413849Y7909143D01*
X8221937Y7909143D02*
X7001424Y9129656D01*
X10213253Y8708551D02*
X10213252Y8708551D01*
X6427449Y9129656D02*
X6150893Y8853100D01*
X10529251Y9941144D02*
X10344343Y10126052D01*
X10529253Y9941145D02*
G75*
G03*
X11445847Y9941145I458297J458298D01*
G01*
X10213215Y8708589D02*
G75*
G03*
X10213252Y9625148I-458222J458298D01*
G01*
X10344343Y10126052D02*
G75*
G03*
X10028345Y10126052I-157999J-158000D01*
G01*
X10028313Y10126084D02*
G75*
G03*
X10028346Y9810057I157980J-157997D01*
G01*
%TO.N,/D_N*%
X9728046Y9509754D02*
X9912953Y9324847D01*
X11145549Y12537553D02*
X11145549Y10241443D01*
X9912953Y9008849D02*
X9912954Y9008849D01*
X9728046Y9509755D02*
X9728046Y9509754D01*
X9912954Y9008849D02*
X9237937Y8333831D01*
X9237937Y8333831D02*
X8397849Y8333831D01*
X10829551Y10241443D02*
X10644643Y10426351D01*
X12790188Y14182192D02*
X11145549Y12537553D01*
X8397849Y8333831D02*
X7177336Y9554344D01*
X6427449Y9554344D02*
X6150893Y9830900D01*
X9728046Y10426352D02*
X9728046Y10426351D01*
X7177336Y9554344D02*
X6427449Y9554344D01*
X10644692Y10426400D02*
G75*
G03*
X9728046Y10426352I-458299J-458313D01*
G01*
X10829551Y10241443D02*
G75*
G03*
X11145549Y10241443I157999J158000D01*
G01*
X9912914Y9008888D02*
G75*
G03*
X9912953Y9324847I-157921J157999D01*
G01*
X9728013Y10426384D02*
G75*
G03*
X9728047Y9509756I458380J-458297D01*
G01*
D15*
%TO.N,/D12{slash}MISO*%
X27359893Y12058487D02*
X25581893Y12058487D01*
X21717000Y15923380D02*
X21717000Y16627000D01*
X25581893Y12058487D02*
X21717000Y15923380D01*
%TO.N,/D11{slash}MOSI*%
X29264893Y10661487D02*
X29163943Y10661487D01*
X28310893Y13139487D02*
X24823380Y16627000D01*
X24823380Y16627000D02*
X24257000Y16627000D01*
X29163943Y10661487D02*
X28310893Y11514537D01*
X28310893Y11514537D02*
X28310893Y13139487D01*
%TO.N,/D2*%
X26851893Y9518487D02*
X21205513Y9518487D01*
X21205513Y9518487D02*
X14097000Y16627000D01*
%TO.N,/D3*%
X21655443Y12656887D02*
X20607113Y12656887D01*
X26708796Y10661487D02*
X23650843Y10661487D01*
X28763473Y8606810D02*
X26708796Y10661487D01*
X20607113Y12656887D02*
X16637000Y16627000D01*
X23650843Y10661487D02*
X21655443Y12656887D01*
%TO.N,/D4*%
X26974013Y11296487D02*
X24507513Y11296487D01*
X24507513Y11296487D02*
X19177000Y16627000D01*
X30407893Y9261987D02*
X29008513Y9261987D01*
X29008513Y9261987D02*
X26974013Y11296487D01*
%TO.N,/D10*%
X29518893Y13963487D02*
X26855380Y16627000D01*
X26855380Y16627000D02*
X26797000Y16627000D01*
X29518893Y12312487D02*
X29518893Y13963487D01*
X29010893Y11804487D02*
X29518893Y12312487D01*
%TO.N,/A6*%
X25708893Y7122470D02*
X25708893Y2475107D01*
X25708893Y2475107D02*
X26797000Y1387000D01*
X25806813Y7220390D02*
X25708893Y7122470D01*
%TO.N,/A1*%
X20580619Y6028513D02*
X17771393Y3219287D01*
X14504006Y1387000D02*
X14097000Y1387000D01*
X17771393Y3219287D02*
X16336293Y3219287D01*
X16336293Y3219287D02*
X14504006Y1387000D01*
X21173993Y6028513D02*
X20580619Y6028513D01*
%TO.N,/A0*%
X17561021Y3828887D02*
X13998887Y3828887D01*
X13998887Y3828887D02*
X11557000Y1387000D01*
X20456621Y6724487D02*
X17561021Y3828887D01*
%TO.N,/D0{slash}RX*%
X14659893Y14039687D02*
X13288293Y15411287D01*
X16844293Y9924887D02*
X14659893Y12109287D01*
X13288293Y15411287D02*
X7692713Y15411287D01*
X24350993Y4184487D02*
X23168893Y4184487D01*
X23168893Y4184487D02*
X22273993Y5079387D01*
X22273993Y5079387D02*
X22273993Y6484149D01*
X22273993Y6484149D02*
X18833255Y9924887D01*
X18833255Y9924887D02*
X16844293Y9924887D01*
X7692713Y15411287D02*
X6477000Y16627000D01*
X14659893Y12109287D02*
X14659893Y14039687D01*
%TO.N,/D1{slash}TX*%
X14181598Y11597632D02*
X14181598Y13806782D01*
X24882710Y3332892D02*
X23385488Y3332892D01*
X18977893Y6826087D02*
X18953143Y6826087D01*
X5660713Y14903287D02*
X3937000Y16627000D01*
X23385488Y3332892D02*
X21873993Y4844387D01*
X21873993Y4844387D02*
X21873993Y6318463D01*
X13085093Y14903287D02*
X5660713Y14903287D01*
X20578969Y7613487D02*
X19765293Y7613487D01*
X21873993Y6318463D02*
X20578969Y7613487D01*
X14181598Y13806782D02*
X13085093Y14903287D01*
X19765293Y7613487D02*
X18977893Y6826087D01*
X18953143Y6826087D02*
X14181598Y11597632D01*
%TD*%
%TA.AperFunction,Conductor*%
%TO.N,GND*%
G36*
X710157Y18013815D02*
G01*
X755912Y17961011D01*
X765856Y17891853D01*
X736831Y17828297D01*
X723525Y17816085D01*
X723851Y17815723D01*
X719022Y17811376D01*
X592359Y17670702D01*
X497714Y17506772D01*
X497711Y17506765D01*
X439220Y17326747D01*
X439219Y17326743D01*
X419433Y17138487D01*
X439219Y16950231D01*
X439220Y16950228D01*
X497711Y16770210D01*
X497714Y16770203D01*
X592360Y16606271D01*
X638425Y16555111D01*
X719022Y16465599D01*
X872158Y16354339D01*
X872163Y16354336D01*
X1045085Y16277345D01*
X1045090Y16277343D01*
X1230247Y16237987D01*
X1230248Y16237987D01*
X1419537Y16237987D01*
X1419539Y16237987D01*
X1604696Y16277343D01*
X1777623Y16354336D01*
X1930764Y16465599D01*
X2057426Y16606271D01*
X2152072Y16770203D01*
X2210567Y16950231D01*
X2230353Y17138487D01*
X2210567Y17326743D01*
X2152072Y17506771D01*
X2057426Y17670703D01*
X1930764Y17811375D01*
X1930763Y17811376D01*
X1925935Y17815723D01*
X1927444Y17817400D01*
X1891113Y17864521D01*
X1885140Y17934135D01*
X1917751Y17995927D01*
X1978592Y18030280D01*
X2006668Y18033500D01*
X3199038Y18033500D01*
X3266077Y18013815D01*
X3311832Y17961011D01*
X3321776Y17891853D01*
X3292751Y17828297D01*
X3263564Y17804199D01*
X3263605Y17804140D01*
X3262869Y17803625D01*
X3261037Y17802112D01*
X3259166Y17801032D01*
X3065597Y17665495D01*
X2898505Y17498403D01*
X2762965Y17304831D01*
X2762964Y17304829D01*
X2663098Y17090665D01*
X2663094Y17090656D01*
X2601938Y16862414D01*
X2601936Y16862404D01*
X2581341Y16627001D01*
X2581341Y16627000D01*
X2601936Y16391597D01*
X2601938Y16391587D01*
X2663094Y16163345D01*
X2663096Y16163341D01*
X2663097Y16163337D01*
X2733766Y16011787D01*
X2762965Y15949170D01*
X2762967Y15949166D01*
X2867129Y15800408D01*
X2898505Y15755599D01*
X3065599Y15588505D01*
X3162384Y15520735D01*
X3259165Y15452968D01*
X3259167Y15452967D01*
X3259170Y15452965D01*
X3473337Y15353097D01*
X3701592Y15291937D01*
X3878034Y15276500D01*
X3936999Y15271341D01*
X3937000Y15271341D01*
X3937001Y15271341D01*
X3995966Y15276500D01*
X4172408Y15291937D01*
X4300757Y15326328D01*
X4370606Y15324665D01*
X4420531Y15294234D01*
X5205382Y14509383D01*
X5210733Y14503282D01*
X5232431Y14475005D01*
X5330182Y14399998D01*
X5357870Y14378752D01*
X5357871Y14378752D01*
X5357872Y14378751D01*
X5503951Y14318243D01*
X5582332Y14307925D01*
X5660712Y14297605D01*
X5660713Y14297605D01*
X5696042Y14302257D01*
X5704141Y14302787D01*
X8976254Y14302787D01*
X9043293Y14283102D01*
X9089048Y14230298D01*
X9098992Y14161140D01*
X9069967Y14097584D01*
X9011189Y14059810D01*
X9002035Y14057497D01*
X8906690Y14037232D01*
X8906685Y14037230D01*
X8733763Y13960239D01*
X8733758Y13960236D01*
X8580622Y13848976D01*
X8453959Y13708302D01*
X8359314Y13544372D01*
X8359311Y13544365D01*
X8300820Y13364347D01*
X8300819Y13364343D01*
X8281033Y13176087D01*
X8300819Y12987831D01*
X8300820Y12987828D01*
X8359311Y12807810D01*
X8359314Y12807803D01*
X8453960Y12643871D01*
X8568618Y12516531D01*
X8580622Y12503199D01*
X8733758Y12391939D01*
X8733763Y12391936D01*
X8885390Y12324426D01*
X8938627Y12279176D01*
X8958948Y12212327D01*
X8939902Y12145103D01*
X8922635Y12123466D01*
X7965689Y11166519D01*
X7959587Y11161168D01*
X7931313Y11139472D01*
X7903897Y11103743D01*
X7839897Y11020336D01*
X7837025Y11016593D01*
X7835056Y11014027D01*
X7774549Y10867950D01*
X7774548Y10867948D01*
X7753911Y10711189D01*
X7753911Y10711188D01*
X7758562Y10675861D01*
X7759093Y10667759D01*
X7759093Y10244940D01*
X7739408Y10177901D01*
X7727242Y10161967D01*
X7674710Y10103625D01*
X7615224Y10066977D01*
X7545367Y10068308D01*
X7506563Y10088617D01*
X7497474Y10095667D01*
X7497467Y10095671D01*
X7454822Y10114126D01*
X7449577Y10116695D01*
X7430452Y10127209D01*
X7408851Y10139083D01*
X7408848Y10139084D01*
X7389514Y10144049D01*
X7371113Y10150349D01*
X7352796Y10158275D01*
X7352791Y10158276D01*
X7306892Y10165546D01*
X7301177Y10166730D01*
X7281424Y10171801D01*
X7256160Y10178288D01*
X7256158Y10178288D01*
X7236200Y10178288D01*
X7216802Y10179815D01*
X7206437Y10181457D01*
X7197091Y10182937D01*
X7197090Y10182938D01*
X7150818Y10178563D01*
X7144980Y10178288D01*
X7061728Y10178288D01*
X6994689Y10197973D01*
X6954341Y10240288D01*
X6915683Y10307245D01*
X6883426Y10363116D01*
X6865278Y10383271D01*
X6859236Y10389982D01*
X6829006Y10452974D01*
X6837632Y10522309D01*
X6843992Y10534942D01*
X6851072Y10547203D01*
X6909567Y10727231D01*
X6929353Y10915487D01*
X6909567Y11103743D01*
X6851072Y11283771D01*
X6756426Y11447703D01*
X6629764Y11588375D01*
X6627625Y11589929D01*
X6476627Y11699636D01*
X6476622Y11699639D01*
X6303700Y11776630D01*
X6303695Y11776632D01*
X6135960Y11812284D01*
X6118539Y11815987D01*
X5929247Y11815987D01*
X5911826Y11812284D01*
X5744090Y11776632D01*
X5744085Y11776630D01*
X5571163Y11699639D01*
X5571158Y11699636D01*
X5418022Y11588376D01*
X5291359Y11447702D01*
X5196714Y11283772D01*
X5196711Y11283765D01*
X5138220Y11103747D01*
X5138219Y11103743D01*
X5118433Y10915487D01*
X5138219Y10727231D01*
X5138220Y10727228D01*
X5196711Y10547210D01*
X5196714Y10547203D01*
X5291360Y10383271D01*
X5309508Y10363116D01*
X5315548Y10356408D01*
X5345778Y10293417D01*
X5337154Y10224081D01*
X5330787Y10211437D01*
X5323714Y10199187D01*
X5265220Y10019160D01*
X5265219Y10019156D01*
X5245433Y9830900D01*
X5265219Y9642644D01*
X5265220Y9642641D01*
X5323711Y9462623D01*
X5323713Y9462619D01*
X5323714Y9462616D01*
X5330858Y9450243D01*
X5357556Y9404000D01*
X5374028Y9336100D01*
X5357556Y9280003D01*
X5323714Y9221387D01*
X5323713Y9221383D01*
X5275738Y9073731D01*
X5265219Y9041356D01*
X5245433Y8853100D01*
X5265219Y8664844D01*
X5265220Y8664841D01*
X5323711Y8484823D01*
X5323714Y8484816D01*
X5418360Y8320884D01*
X5528674Y8198368D01*
X5545022Y8180212D01*
X5698158Y8068952D01*
X5698163Y8068949D01*
X5871085Y7991958D01*
X5871090Y7991956D01*
X6056247Y7952600D01*
X6056248Y7952600D01*
X6245537Y7952600D01*
X6245539Y7952600D01*
X6430696Y7991956D01*
X6603623Y8068949D01*
X6756764Y8180212D01*
X6817019Y8247133D01*
X6876504Y8283780D01*
X6946361Y8282451D01*
X6996849Y8251841D01*
X7722353Y7526337D01*
X7732163Y7514093D01*
X7732386Y7514276D01*
X7737356Y7508268D01*
X7737358Y7508266D01*
X7737359Y7508265D01*
X7758133Y7488757D01*
X7786968Y7461679D01*
X7788368Y7460322D01*
X7808492Y7440197D01*
X7808496Y7440194D01*
X7808499Y7440191D01*
X7813957Y7435958D01*
X7818397Y7432166D01*
X7852277Y7400350D01*
X7869771Y7390733D01*
X7886027Y7380054D01*
X7901799Y7367820D01*
X7944458Y7349360D01*
X7949679Y7346803D01*
X7990422Y7324404D01*
X8009760Y7319439D01*
X8028160Y7313139D01*
X8046478Y7305212D01*
X8092397Y7297940D01*
X8098091Y7296760D01*
X8143115Y7285199D01*
X8163073Y7285199D01*
X8182470Y7283673D01*
X8202181Y7280551D01*
X8202182Y7280550D01*
X8202182Y7280551D01*
X8202183Y7280550D01*
X8228439Y7283032D01*
X8248455Y7284924D01*
X8254293Y7285199D01*
X9331278Y7285199D01*
X9346876Y7283478D01*
X9346904Y7283765D01*
X9354657Y7283033D01*
X9354665Y7283031D01*
X9397776Y7284386D01*
X9422680Y7285168D01*
X9424628Y7285199D01*
X9453105Y7285199D01*
X9453105Y7285200D01*
X9459946Y7286064D01*
X9465778Y7286524D01*
X9512231Y7287983D01*
X9531392Y7293551D01*
X9550449Y7297497D01*
X9570251Y7299998D01*
X9613465Y7317109D01*
X9618986Y7318998D01*
X9627938Y7321599D01*
X9663616Y7331964D01*
X9680799Y7342127D01*
X9698271Y7350685D01*
X9704304Y7353075D01*
X9716825Y7358031D01*
X9754440Y7385361D01*
X9759304Y7388556D01*
X9799309Y7412213D01*
X9813421Y7426326D01*
X9828209Y7438957D01*
X9844363Y7450692D01*
X9873998Y7486517D01*
X9877912Y7490818D01*
X10604458Y8217365D01*
X10622435Y8232236D01*
X10629155Y8236802D01*
X10629160Y8236809D01*
X10635014Y8241967D01*
X10635205Y8241750D01*
X10638279Y8244546D01*
X10638079Y8244759D01*
X10643762Y8250098D01*
X10643767Y8250100D01*
X10673392Y8285913D01*
X10677302Y8290209D01*
X10682207Y8295112D01*
X10682210Y8295117D01*
X10682985Y8295891D01*
X10684113Y8297096D01*
X10725171Y8338145D01*
X10842876Y8500127D01*
X10933791Y8678528D01*
X10995676Y8868956D01*
X11021206Y9030098D01*
X11051139Y9093231D01*
X11110453Y9130160D01*
X11124274Y9133166D01*
X11285428Y9158690D01*
X11285431Y9158691D01*
X11285432Y9158691D01*
X11475854Y9220563D01*
X11475854Y9220564D01*
X11475857Y9220564D01*
X11654262Y9311466D01*
X11816251Y9429157D01*
X11861614Y9474521D01*
X11887042Y9499949D01*
X11887043Y9499948D01*
X11940614Y9553519D01*
X11940614Y9553521D01*
X11953040Y9565948D01*
X11965289Y9575758D01*
X11965105Y9575981D01*
X11971113Y9580951D01*
X12017421Y9630265D01*
X12017730Y9630595D01*
X12019033Y9631939D01*
X12039186Y9652090D01*
X12043432Y9657566D01*
X12047208Y9661986D01*
X12079030Y9695871D01*
X12088646Y9713364D01*
X12099319Y9729613D01*
X12111558Y9745389D01*
X12130017Y9788049D01*
X12132581Y9793283D01*
X12154976Y9834016D01*
X12159939Y9853346D01*
X12166237Y9871746D01*
X12174167Y9890067D01*
X12181438Y9935975D01*
X12182623Y9941700D01*
X12194181Y9986709D01*
X12194181Y10006661D01*
X12195708Y10026062D01*
X12198830Y10045771D01*
X12194456Y10092047D01*
X12194181Y10097884D01*
X12194181Y12051834D01*
X12213866Y12118873D01*
X12230500Y12139515D01*
X12513936Y12422951D01*
X12820043Y12729059D01*
X12881364Y12762542D01*
X12951055Y12757558D01*
X12980607Y12741694D01*
X13028863Y12706634D01*
X13028868Y12706631D01*
X13201790Y12629640D01*
X13201795Y12629638D01*
X13386952Y12590282D01*
X13386953Y12590282D01*
X13457098Y12590282D01*
X13524137Y12570597D01*
X13569892Y12517793D01*
X13581098Y12466282D01*
X13581098Y11641061D01*
X13580567Y11632959D01*
X13575916Y11597633D01*
X13575916Y11597631D01*
X13577135Y11588375D01*
X13593483Y11464196D01*
X13595654Y11447703D01*
X13596554Y11440872D01*
X13596554Y11440870D01*
X13632122Y11355000D01*
X13657062Y11294791D01*
X13753316Y11169350D01*
X13781593Y11147652D01*
X13787683Y11142312D01*
X15969849Y8960146D01*
X18037686Y6892309D01*
X18071171Y6830986D01*
X18073326Y6817590D01*
X18092219Y6637831D01*
X18092220Y6637828D01*
X18150711Y6457810D01*
X18150714Y6457803D01*
X18245360Y6293871D01*
X18295094Y6238636D01*
X18372022Y6153199D01*
X18525158Y6041939D01*
X18525163Y6041936D01*
X18636885Y5992193D01*
X18690122Y5946943D01*
X18710443Y5880093D01*
X18691397Y5812870D01*
X18674130Y5791233D01*
X17348605Y4465706D01*
X17287282Y4432221D01*
X17260924Y4429387D01*
X14566842Y4429387D01*
X14499803Y4449072D01*
X14454048Y4501876D01*
X14444104Y4571034D01*
X14473129Y4634590D01*
X14474634Y4636296D01*
X14503426Y4668271D01*
X14598072Y4832203D01*
X14656567Y5012231D01*
X14676353Y5200487D01*
X14656567Y5388743D01*
X14606389Y5543172D01*
X14604395Y5613009D01*
X14606380Y5619776D01*
X14656567Y5774231D01*
X14676353Y5962487D01*
X14656567Y6150743D01*
X14598072Y6330771D01*
X14503426Y6494703D01*
X14376764Y6635375D01*
X14373534Y6637722D01*
X14223627Y6746636D01*
X14223622Y6746639D01*
X14050700Y6823630D01*
X14050695Y6823632D01*
X13904894Y6854622D01*
X13865539Y6862987D01*
X13676247Y6862987D01*
X13643790Y6856089D01*
X13491090Y6823632D01*
X13491085Y6823630D01*
X13318163Y6746639D01*
X13318158Y6746636D01*
X13165022Y6635376D01*
X13038359Y6494702D01*
X12943714Y6330772D01*
X12943711Y6330765D01*
X12913777Y6238636D01*
X12885219Y6150743D01*
X12865433Y5962487D01*
X12885219Y5774231D01*
X12885220Y5774228D01*
X12935395Y5619806D01*
X12937390Y5549965D01*
X12935395Y5543170D01*
X12898713Y5430273D01*
X12885219Y5388743D01*
X12865433Y5200487D01*
X12885219Y5012231D01*
X12885220Y5012228D01*
X12943711Y4832210D01*
X12943714Y4832203D01*
X13038360Y4668271D01*
X13141262Y4553987D01*
X13165022Y4527599D01*
X13318158Y4416339D01*
X13318159Y4416339D01*
X13318163Y4416336D01*
X13443217Y4360658D01*
X13496454Y4315408D01*
X13516775Y4248559D01*
X13497730Y4181335D01*
X13480462Y4159698D01*
X12040530Y2719767D01*
X11979207Y2686282D01*
X11920756Y2687673D01*
X11792413Y2722062D01*
X11792403Y2722064D01*
X11557001Y2742659D01*
X11556999Y2742659D01*
X11321596Y2722064D01*
X11321586Y2722062D01*
X11093344Y2660906D01*
X11093335Y2660902D01*
X10879171Y2561036D01*
X10879169Y2561035D01*
X10685597Y2425495D01*
X10518508Y2258406D01*
X10388269Y2072405D01*
X10333692Y2028781D01*
X10264193Y2021588D01*
X10201839Y2053110D01*
X10185119Y2072406D01*
X10055113Y2258074D01*
X10055108Y2258080D01*
X9888082Y2425106D01*
X9694578Y2560601D01*
X9480492Y2660430D01*
X9480486Y2660433D01*
X9267000Y2717636D01*
X9267000Y1822502D01*
X9159315Y1871680D01*
X9052763Y1887000D01*
X8981237Y1887000D01*
X8874685Y1871680D01*
X8767000Y1822502D01*
X8767000Y2717636D01*
X8766999Y2717636D01*
X8553513Y2660433D01*
X8553507Y2660430D01*
X8339422Y2560601D01*
X8339420Y2560600D01*
X8145926Y2425114D01*
X8145920Y2425109D01*
X7978891Y2258080D01*
X7978890Y2258078D01*
X7848880Y2072405D01*
X7794303Y2028781D01*
X7724804Y2021588D01*
X7662450Y2053110D01*
X7645730Y2072406D01*
X7515494Y2258403D01*
X7348402Y2425494D01*
X7348395Y2425499D01*
X7154834Y2561033D01*
X7154830Y2561035D01*
X7109373Y2582232D01*
X6940663Y2660903D01*
X6940659Y2660904D01*
X6940655Y2660906D01*
X6712413Y2722062D01*
X6712403Y2722064D01*
X6477001Y2742659D01*
X6476999Y2742659D01*
X6241596Y2722064D01*
X6241586Y2722062D01*
X6013344Y2660906D01*
X6013335Y2660902D01*
X5799171Y2561036D01*
X5799169Y2561035D01*
X5605597Y2425495D01*
X5438505Y2258403D01*
X5308575Y2072842D01*
X5253998Y2029217D01*
X5184500Y2022023D01*
X5122145Y2053546D01*
X5105425Y2072842D01*
X4975494Y2258403D01*
X4808402Y2425494D01*
X4808395Y2425499D01*
X4614834Y2561033D01*
X4614830Y2561035D01*
X4569373Y2582232D01*
X4400663Y2660903D01*
X4400659Y2660904D01*
X4400655Y2660906D01*
X4172413Y2722062D01*
X4172403Y2722064D01*
X3937001Y2742659D01*
X3936999Y2742659D01*
X3701596Y2722064D01*
X3701586Y2722062D01*
X3473344Y2660906D01*
X3473335Y2660902D01*
X3259171Y2561036D01*
X3259169Y2561035D01*
X3065597Y2425495D01*
X2898505Y2258403D01*
X2762965Y2064831D01*
X2762964Y2064829D01*
X2663098Y1850665D01*
X2663094Y1850656D01*
X2601938Y1622414D01*
X2601936Y1622404D01*
X2581341Y1387001D01*
X2581341Y1387000D01*
X2601936Y1151597D01*
X2601938Y1151587D01*
X2663094Y923345D01*
X2663096Y923341D01*
X2663097Y923337D01*
X2742801Y752412D01*
X2762965Y709170D01*
X2762967Y709166D01*
X2871281Y554479D01*
X2898504Y515600D01*
X2898506Y515598D01*
X3065597Y348507D01*
X3065603Y348502D01*
X3240447Y226075D01*
X3284072Y171498D01*
X3291266Y102000D01*
X3259743Y39645D01*
X3199513Y4231D01*
X3169324Y500D01*
X124500Y500D01*
X57461Y20185D01*
X11706Y72989D01*
X500Y124500D01*
X500Y5780254D01*
X20185Y5847293D01*
X72989Y5893048D01*
X142147Y5902992D01*
X205703Y5873967D01*
X237780Y5830689D01*
X284076Y5726703D01*
X332796Y5659646D01*
X398431Y5569308D01*
X398432Y5569307D01*
X398433Y5569306D01*
X398435Y5569303D01*
X464259Y5510036D01*
X543008Y5439130D01*
X630274Y5388747D01*
X711488Y5341858D01*
X711489Y5341857D01*
X711491Y5341857D01*
X711492Y5341856D01*
X896518Y5281738D01*
X1041496Y5266500D01*
X1041501Y5266500D01*
X1988499Y5266500D01*
X1988504Y5266500D01*
X2133482Y5281738D01*
X2318508Y5341856D01*
X2486992Y5439130D01*
X2602540Y5543170D01*
X2631564Y5569303D01*
X2631564Y5569305D01*
X2631569Y5569308D01*
X2745922Y5726701D01*
X2825051Y5904429D01*
X2837392Y5962487D01*
X5118433Y5962487D01*
X5138219Y5774231D01*
X5138220Y5774228D01*
X5196711Y5594210D01*
X5196714Y5594203D01*
X5291360Y5430271D01*
X5383336Y5328122D01*
X5418022Y5289599D01*
X5571158Y5178339D01*
X5571163Y5178336D01*
X5744085Y5101345D01*
X5744090Y5101343D01*
X5929247Y5061987D01*
X5929248Y5061987D01*
X6118537Y5061987D01*
X6118539Y5061987D01*
X6303696Y5101343D01*
X6476623Y5178336D01*
X6629764Y5289599D01*
X6756426Y5430271D01*
X6770407Y5454487D01*
X8420433Y5454487D01*
X8440219Y5266231D01*
X8440220Y5266228D01*
X8498711Y5086210D01*
X8498714Y5086203D01*
X8593360Y4922271D01*
X8699247Y4804672D01*
X8720022Y4781599D01*
X8873158Y4670339D01*
X8873163Y4670336D01*
X9046085Y4593345D01*
X9046090Y4593343D01*
X9231247Y4553987D01*
X9231248Y4553987D01*
X9420537Y4553987D01*
X9420539Y4553987D01*
X9605696Y4593343D01*
X9778623Y4670336D01*
X9931764Y4781599D01*
X10058426Y4922271D01*
X10153072Y5086203D01*
X10211567Y5266231D01*
X10231353Y5454487D01*
X10211567Y5642743D01*
X10153072Y5822771D01*
X10058426Y5986703D01*
X9931764Y6127375D01*
X9899601Y6150743D01*
X9778627Y6238636D01*
X9778622Y6238639D01*
X9605700Y6315630D01*
X9605695Y6315632D01*
X9459893Y6346622D01*
X9420539Y6354987D01*
X9231247Y6354987D01*
X9198790Y6348089D01*
X9046090Y6315632D01*
X9046085Y6315630D01*
X8873163Y6238639D01*
X8873158Y6238636D01*
X8720022Y6127376D01*
X8593359Y5986702D01*
X8498714Y5822772D01*
X8498711Y5822765D01*
X8440220Y5642747D01*
X8440219Y5642743D01*
X8420433Y5454487D01*
X6770407Y5454487D01*
X6851072Y5594203D01*
X6909567Y5774231D01*
X6929353Y5962487D01*
X6909567Y6150743D01*
X6851072Y6330771D01*
X6756426Y6494703D01*
X6629764Y6635375D01*
X6626534Y6637722D01*
X6476627Y6746636D01*
X6476622Y6746639D01*
X6303700Y6823630D01*
X6303695Y6823632D01*
X6157893Y6854622D01*
X6118539Y6862987D01*
X5929247Y6862987D01*
X5896790Y6856089D01*
X5744090Y6823632D01*
X5744085Y6823630D01*
X5571163Y6746639D01*
X5571158Y6746636D01*
X5418022Y6635376D01*
X5291359Y6494702D01*
X5196714Y6330772D01*
X5196711Y6330765D01*
X5166777Y6238636D01*
X5138219Y6150743D01*
X5118433Y5962487D01*
X2837392Y5962487D01*
X2865500Y6094726D01*
X2865500Y6289274D01*
X2825051Y6479571D01*
X2755683Y6635376D01*
X2745923Y6657298D01*
X2714699Y6700273D01*
X2631569Y6814692D01*
X2631566Y6814695D01*
X2631564Y6814698D01*
X2498923Y6934127D01*
X2486992Y6944870D01*
X2427740Y6979079D01*
X3310619Y6979079D01*
X3341405Y6830922D01*
X3341407Y6830917D01*
X3341408Y6830915D01*
X3411029Y6696553D01*
X3411031Y6696551D01*
X3411032Y6696549D01*
X3514318Y6585957D01*
X3514320Y6585956D01*
X3643618Y6507328D01*
X3789335Y6466500D01*
X3789336Y6466500D01*
X3902659Y6466500D01*
X3930723Y6470358D01*
X4014920Y6481930D01*
X4124854Y6529682D01*
X4153716Y6542218D01*
X4153716Y6542219D01*
X4153720Y6542220D01*
X4271108Y6637722D01*
X4358377Y6761353D01*
X4381384Y6826087D01*
X4409053Y6903940D01*
X4409053Y6903942D01*
X4409054Y6903944D01*
X4419381Y7054921D01*
X4411263Y7093987D01*
X4388594Y7203079D01*
X4388592Y7203082D01*
X4388592Y7203085D01*
X4318971Y7337447D01*
X4318967Y7337451D01*
X4318967Y7337452D01*
X4215681Y7448044D01*
X4113487Y7510189D01*
X4086382Y7526672D01*
X3940665Y7567500D01*
X3827342Y7567500D01*
X3827341Y7567500D01*
X3715082Y7552071D01*
X3715079Y7552070D01*
X3576283Y7491783D01*
X3458889Y7396276D01*
X3371623Y7272648D01*
X3371621Y7272645D01*
X3320946Y7130061D01*
X3320946Y7130058D01*
X3310619Y6979082D01*
X3310619Y6979079D01*
X2427740Y6979079D01*
X2427735Y6979082D01*
X2318511Y7042143D01*
X2318510Y7042144D01*
X2133483Y7102262D01*
X2109318Y7104802D01*
X1988504Y7117500D01*
X1041496Y7117500D01*
X937940Y7106616D01*
X896516Y7102262D01*
X711489Y7042144D01*
X711488Y7042143D01*
X543009Y6944871D01*
X398435Y6814698D01*
X398433Y6814695D01*
X284076Y6657298D01*
X237780Y6553312D01*
X192530Y6500075D01*
X125681Y6479753D01*
X58457Y6498798D01*
X12201Y6551164D01*
X500Y6603747D01*
X500Y11413649D01*
X20185Y11480688D01*
X72989Y11526443D01*
X142147Y11536387D01*
X205703Y11507362D01*
X240780Y11456717D01*
X262114Y11399113D01*
X304577Y11330987D01*
X369745Y11226433D01*
X369749Y11226428D01*
X508487Y11080476D01*
X509941Y11078947D01*
X634097Y10992532D01*
X676949Y10962706D01*
X676950Y10962706D01*
X676951Y10962705D01*
X863942Y10882460D01*
X1063259Y10841500D01*
X1915743Y10841500D01*
X2067439Y10856926D01*
X2261579Y10917838D01*
X2261580Y10917839D01*
X2261588Y10917841D01*
X2371918Y10979079D01*
X3310619Y10979079D01*
X3341405Y10830922D01*
X3341407Y10830917D01*
X3341408Y10830915D01*
X3411029Y10696553D01*
X3411031Y10696551D01*
X3411032Y10696549D01*
X3514318Y10585957D01*
X3514320Y10585956D01*
X3643618Y10507328D01*
X3789335Y10466500D01*
X3789336Y10466500D01*
X3902659Y10466500D01*
X3930723Y10470358D01*
X4014920Y10481930D01*
X4137006Y10534960D01*
X4153716Y10542218D01*
X4153716Y10542219D01*
X4153720Y10542220D01*
X4271108Y10637722D01*
X4358377Y10761353D01*
X4381135Y10825387D01*
X4409053Y10903940D01*
X4409053Y10903942D01*
X4409054Y10903944D01*
X4419381Y11054921D01*
X4403768Y11130056D01*
X4388594Y11203079D01*
X4388592Y11203082D01*
X4388592Y11203085D01*
X4318971Y11337447D01*
X4318967Y11337451D01*
X4318967Y11337452D01*
X4215681Y11448044D01*
X4118136Y11507362D01*
X4086382Y11526672D01*
X3940665Y11567500D01*
X3827342Y11567500D01*
X3827341Y11567500D01*
X3715082Y11552071D01*
X3715079Y11552070D01*
X3576283Y11491783D01*
X3458889Y11396276D01*
X3371623Y11272648D01*
X3371621Y11272645D01*
X3320946Y11130061D01*
X3320946Y11130058D01*
X3310619Y10979082D01*
X3310619Y10979079D01*
X2371918Y10979079D01*
X2439502Y11016591D01*
X2593895Y11149134D01*
X2718448Y11310042D01*
X2808060Y11492729D01*
X2859063Y11689715D01*
X2869369Y11892936D01*
X2838556Y12094071D01*
X2767886Y12284887D01*
X2660252Y12457571D01*
X2520059Y12605053D01*
X2390389Y12695306D01*
X2353050Y12721295D01*
X2166056Y12801541D01*
X1966741Y12842500D01*
X1114258Y12842500D01*
X1114257Y12842500D01*
X962560Y12827075D01*
X768420Y12766163D01*
X768405Y12766156D01*
X590500Y12667411D01*
X590495Y12667408D01*
X436106Y12534868D01*
X436104Y12534866D01*
X311554Y12373963D01*
X311553Y12373960D01*
X311552Y12373959D01*
X311552Y12373958D01*
X257117Y12262983D01*
X235828Y12219583D01*
X188631Y12168064D01*
X121073Y12150239D01*
X54603Y12171769D01*
X10325Y12225817D01*
X500Y12274192D01*
X500Y17909500D01*
X20185Y17976539D01*
X72989Y18022294D01*
X124500Y18033500D01*
X643118Y18033500D01*
X710157Y18013815D01*
G37*
%TD.AperFunction*%
%TA.AperFunction,Conductor*%
G36*
X45027539Y18013815D02*
G01*
X45073294Y17961011D01*
X45084500Y17909500D01*
X45084500Y124500D01*
X45064815Y57461D01*
X45012011Y11706D01*
X44960500Y500D01*
X40818303Y500D01*
X40751264Y20185D01*
X40705509Y72989D01*
X40695565Y142147D01*
X40719037Y198811D01*
X40790793Y294665D01*
X40790792Y294665D01*
X40790796Y294669D01*
X40841091Y429517D01*
X40847500Y489127D01*
X40847499Y2039499D01*
X40867184Y2106537D01*
X40883813Y2127174D01*
X42746689Y3990050D01*
X42808010Y4023533D01*
X42877702Y4018549D01*
X42926518Y3985339D01*
X43010022Y3892599D01*
X43163158Y3781339D01*
X43163163Y3781336D01*
X43336085Y3704345D01*
X43336090Y3704343D01*
X43521247Y3664987D01*
X43521248Y3664987D01*
X43710537Y3664987D01*
X43710539Y3664987D01*
X43895696Y3704343D01*
X44068623Y3781336D01*
X44221764Y3892599D01*
X44348426Y4033271D01*
X44443072Y4197203D01*
X44501567Y4377231D01*
X44521353Y4565487D01*
X44501567Y4753743D01*
X44443072Y4933771D01*
X44348426Y5097703D01*
X44255879Y5200487D01*
X44221769Y5238371D01*
X44221762Y5238377D01*
X44207887Y5248458D01*
X44165223Y5303789D01*
X44159245Y5373402D01*
X44191853Y5435197D01*
X44193021Y5436381D01*
X44263815Y5507176D01*
X44269892Y5512504D01*
X44298175Y5534205D01*
X44394429Y5659646D01*
X44454937Y5805725D01*
X44462119Y5860277D01*
X44475576Y5962487D01*
X44470924Y5997822D01*
X44470393Y6005924D01*
X44470393Y10263815D01*
X44470924Y10271917D01*
X44475575Y10307244D01*
X44475575Y10307245D01*
X44454937Y10464004D01*
X44454935Y10464009D01*
X44453903Y10466500D01*
X44394429Y10610084D01*
X44350468Y10667375D01*
X44298175Y10735525D01*
X44291549Y10740609D01*
X44269900Y10757221D01*
X44263804Y10762567D01*
X44190049Y10836323D01*
X44156565Y10897646D01*
X44153731Y10924003D01*
X44153731Y10928863D01*
X44148453Y10979082D01*
X44133945Y11117121D01*
X44075450Y11297149D01*
X43980804Y11461081D01*
X43854142Y11601753D01*
X43854141Y11601754D01*
X43701005Y11713014D01*
X43701000Y11713017D01*
X43528078Y11790008D01*
X43528073Y11790010D01*
X43382272Y11821000D01*
X43342917Y11829365D01*
X43342916Y11829365D01*
X43248368Y11829365D01*
X43181329Y11849050D01*
X43160687Y11865684D01*
X42700977Y12325394D01*
X42695623Y12331499D01*
X42673935Y12359765D01*
X42673932Y12359767D01*
X42673931Y12359769D01*
X42548490Y12456023D01*
X42402411Y12516531D01*
X42382100Y12519205D01*
X42382099Y12519206D01*
X42245650Y12537169D01*
X42245649Y12537169D01*
X42210319Y12532518D01*
X42202221Y12531987D01*
X38200990Y12531987D01*
X38133951Y12551672D01*
X38113309Y12568306D01*
X37340221Y13341394D01*
X37334867Y13347499D01*
X37313179Y13375765D01*
X37313176Y13375767D01*
X37313175Y13375769D01*
X37187734Y13472023D01*
X37041655Y13532531D01*
X37041653Y13532532D01*
X36993917Y13538816D01*
X39565085Y13538816D01*
X39594275Y13373265D01*
X39595367Y13367075D01*
X39664440Y13206948D01*
X39768578Y13067065D01*
X39768579Y13067064D01*
X39768581Y13067062D01*
X39863006Y12987831D01*
X39902168Y12954970D01*
X40058009Y12876704D01*
X40227698Y12836487D01*
X40227700Y12836487D01*
X40358341Y12836487D01*
X40358348Y12836487D01*
X40488104Y12851653D01*
X40651977Y12911298D01*
X40797677Y13007127D01*
X40917351Y13133974D01*
X41004546Y13285000D01*
X41054561Y13452064D01*
X41059614Y13538816D01*
X41595085Y13538816D01*
X41624275Y13373265D01*
X41625367Y13367075D01*
X41694440Y13206948D01*
X41798578Y13067065D01*
X41798579Y13067064D01*
X41798581Y13067062D01*
X41893006Y12987831D01*
X41932168Y12954970D01*
X42088009Y12876704D01*
X42257698Y12836487D01*
X42257700Y12836487D01*
X42388341Y12836487D01*
X42388348Y12836487D01*
X42518104Y12851653D01*
X42681977Y12911298D01*
X42827677Y13007127D01*
X42947351Y13133974D01*
X43034546Y13285000D01*
X43084561Y13452064D01*
X43094701Y13626158D01*
X43064419Y13797899D01*
X42995346Y13958026D01*
X42891208Y14097909D01*
X42891205Y14097911D01*
X42891204Y14097913D01*
X42757618Y14210004D01*
X42757616Y14210005D01*
X42601780Y14288269D01*
X42601778Y14288270D01*
X42601777Y14288270D01*
X42432088Y14328487D01*
X42301438Y14328487D01*
X42200516Y14316692D01*
X42171680Y14313321D01*
X42171678Y14313320D01*
X42007810Y14253677D01*
X42007806Y14253675D01*
X41862111Y14157850D01*
X41862110Y14157849D01*
X41742436Y14031002D01*
X41742432Y14030997D01*
X41655240Y13879976D01*
X41605226Y13712914D01*
X41605224Y13712906D01*
X41595085Y13538817D01*
X41595085Y13538816D01*
X41059614Y13538816D01*
X41064701Y13626158D01*
X41034419Y13797899D01*
X40965346Y13958026D01*
X40861208Y14097909D01*
X40861205Y14097911D01*
X40861204Y14097913D01*
X40727618Y14210004D01*
X40727616Y14210005D01*
X40571780Y14288269D01*
X40571778Y14288270D01*
X40571777Y14288270D01*
X40402088Y14328487D01*
X40271438Y14328487D01*
X40170516Y14316692D01*
X40141680Y14313321D01*
X40141678Y14313320D01*
X39977810Y14253677D01*
X39977806Y14253675D01*
X39832111Y14157850D01*
X39832110Y14157849D01*
X39712436Y14031002D01*
X39712432Y14030997D01*
X39625240Y13879976D01*
X39575226Y13712914D01*
X39575224Y13712906D01*
X39565085Y13538817D01*
X39565085Y13538816D01*
X36993917Y13538816D01*
X36966487Y13542427D01*
X36884894Y13553169D01*
X36884893Y13553169D01*
X36849563Y13548518D01*
X36841465Y13547987D01*
X32612990Y13547987D01*
X32545951Y13567672D01*
X32525309Y13584306D01*
X31603672Y14505943D01*
X31570187Y14567266D01*
X31567353Y14593624D01*
X31567353Y14598485D01*
X31567353Y14598487D01*
X31547567Y14786743D01*
X31489072Y14966771D01*
X31399238Y15122369D01*
X31391177Y15136331D01*
X31392465Y15137075D01*
X31371559Y15195661D01*
X31387381Y15263716D01*
X31437484Y15312413D01*
X31505962Y15326292D01*
X31527449Y15322521D01*
X31557015Y15314599D01*
X31641592Y15291937D01*
X31818034Y15276500D01*
X31876999Y15271341D01*
X31877000Y15271341D01*
X31877001Y15271341D01*
X31935966Y15276500D01*
X32112408Y15291937D01*
X32340663Y15353097D01*
X32554830Y15452965D01*
X32748401Y15588505D01*
X32915495Y15755599D01*
X33045426Y15941159D01*
X33100002Y15984783D01*
X33169500Y15991977D01*
X33231855Y15960454D01*
X33248575Y15941158D01*
X33378500Y15755605D01*
X33378505Y15755599D01*
X33545599Y15588505D01*
X33642384Y15520736D01*
X33739165Y15452968D01*
X33739167Y15452967D01*
X33739170Y15452965D01*
X33953337Y15353097D01*
X34181592Y15291937D01*
X34358034Y15276500D01*
X34416999Y15271341D01*
X34417000Y15271341D01*
X34417001Y15271341D01*
X34475966Y15276500D01*
X34652408Y15291937D01*
X34880663Y15353097D01*
X35094830Y15452965D01*
X35288401Y15588505D01*
X35455495Y15755599D01*
X35585426Y15941159D01*
X35640002Y15984783D01*
X35709500Y15991977D01*
X35771855Y15960454D01*
X35788575Y15941158D01*
X35918500Y15755605D01*
X35918505Y15755599D01*
X36085599Y15588505D01*
X36182384Y15520736D01*
X36279165Y15452968D01*
X36279167Y15452967D01*
X36279170Y15452965D01*
X36493337Y15353097D01*
X36721592Y15291937D01*
X36898034Y15276500D01*
X36956999Y15271341D01*
X36957000Y15271341D01*
X36957001Y15271341D01*
X37015966Y15276500D01*
X37192408Y15291937D01*
X37420663Y15353097D01*
X37634830Y15452965D01*
X37828401Y15588505D01*
X37950329Y15710434D01*
X38011648Y15743916D01*
X38081340Y15738932D01*
X38137274Y15697061D01*
X38154189Y15666083D01*
X38203202Y15534672D01*
X38203206Y15534665D01*
X38289452Y15419456D01*
X38289455Y15419453D01*
X38404664Y15333207D01*
X38404671Y15333203D01*
X38539517Y15282909D01*
X38539516Y15282909D01*
X38546444Y15282165D01*
X38599127Y15276500D01*
X40394872Y15276501D01*
X40454483Y15282909D01*
X40589331Y15333204D01*
X40704546Y15419454D01*
X40790796Y15534669D01*
X40841091Y15669517D01*
X40847500Y15729127D01*
X40847499Y17524872D01*
X40841091Y17584483D01*
X40839810Y17587917D01*
X40790797Y17719329D01*
X40790793Y17719336D01*
X40704065Y17835189D01*
X40679647Y17900653D01*
X40694498Y17968926D01*
X40743903Y18018332D01*
X40803331Y18033500D01*
X44960500Y18033500D01*
X45027539Y18013815D01*
G37*
%TD.AperFunction*%
%TA.AperFunction,Conductor*%
G36*
X20213532Y4709679D02*
G01*
X20269465Y4667807D01*
X20288129Y4631815D01*
X20346811Y4451210D01*
X20346814Y4451203D01*
X20441460Y4287271D01*
X20556328Y4159698D01*
X20568122Y4146599D01*
X20721258Y4035339D01*
X20721263Y4035336D01*
X20894185Y3958345D01*
X20894190Y3958343D01*
X21079347Y3918987D01*
X21079348Y3918987D01*
X21268637Y3918987D01*
X21268639Y3918987D01*
X21453796Y3958343D01*
X21626723Y4035336D01*
X21660985Y4060230D01*
X21726790Y4083710D01*
X21794844Y4067886D01*
X21821552Y4047593D01*
X22930157Y2938988D01*
X22935508Y2932887D01*
X22957206Y2904610D01*
X23064210Y2822504D01*
X23064211Y2822502D01*
X23078357Y2811648D01*
X23082647Y2808356D01*
X23082649Y2808356D01*
X23082651Y2808354D01*
X23124536Y2791005D01*
X23228726Y2747848D01*
X23385488Y2727210D01*
X23413884Y2730949D01*
X23482917Y2720184D01*
X23535173Y2673805D01*
X23554060Y2606537D01*
X23533581Y2539736D01*
X23501193Y2506435D01*
X23385594Y2425492D01*
X23218505Y2258403D01*
X23088575Y2072842D01*
X23033998Y2029217D01*
X22964500Y2022023D01*
X22902145Y2053546D01*
X22885425Y2072842D01*
X22755494Y2258403D01*
X22588402Y2425494D01*
X22588395Y2425499D01*
X22394834Y2561033D01*
X22394830Y2561035D01*
X22349373Y2582232D01*
X22180663Y2660903D01*
X22180659Y2660904D01*
X22180655Y2660906D01*
X21952413Y2722062D01*
X21952403Y2722064D01*
X21717001Y2742659D01*
X21716999Y2742659D01*
X21481596Y2722064D01*
X21481586Y2722062D01*
X21253344Y2660906D01*
X21253335Y2660902D01*
X21039171Y2561036D01*
X21039169Y2561035D01*
X20845597Y2425495D01*
X20678508Y2258406D01*
X20548574Y2072840D01*
X20493997Y2029216D01*
X20424498Y2022023D01*
X20362144Y2053545D01*
X20345429Y2072836D01*
X20215495Y2258401D01*
X20215493Y2258404D01*
X20048402Y2425494D01*
X20048395Y2425499D01*
X19854834Y2561033D01*
X19854830Y2561035D01*
X19809373Y2582232D01*
X19640663Y2660903D01*
X19640659Y2660904D01*
X19640655Y2660906D01*
X19412413Y2722062D01*
X19412403Y2722064D01*
X19177001Y2742659D01*
X19176999Y2742659D01*
X18941596Y2722064D01*
X18941586Y2722062D01*
X18713344Y2660906D01*
X18713335Y2660902D01*
X18499171Y2561036D01*
X18499169Y2561035D01*
X18305597Y2425495D01*
X18138505Y2258403D01*
X18008575Y2072842D01*
X17953998Y2029217D01*
X17884500Y2022023D01*
X17822145Y2053546D01*
X17805425Y2072842D01*
X17675496Y2258400D01*
X17619909Y2313987D01*
X17526788Y2407108D01*
X17493305Y2468429D01*
X17498289Y2538120D01*
X17540160Y2594054D01*
X17605625Y2618471D01*
X17614471Y2618787D01*
X17727965Y2618787D01*
X17736063Y2618257D01*
X17771393Y2613605D01*
X17771394Y2613605D01*
X17823646Y2620485D01*
X17928155Y2634243D01*
X18074234Y2694751D01*
X18109828Y2722063D01*
X18199675Y2791005D01*
X18221376Y2819288D01*
X18226704Y2825365D01*
X20082519Y4681180D01*
X20143840Y4714663D01*
X20213532Y4709679D01*
G37*
%TD.AperFunction*%
%TA.AperFunction,Conductor*%
G36*
X38337417Y9787302D02*
G01*
X38383172Y9734498D01*
X38393697Y9695953D01*
X38412219Y9519731D01*
X38412220Y9519728D01*
X38470711Y9339710D01*
X38470714Y9339703D01*
X38565360Y9175771D01*
X38657240Y9073728D01*
X38692022Y9035099D01*
X38845158Y8923839D01*
X38845163Y8923836D01*
X39018085Y8846845D01*
X39018090Y8846843D01*
X39203247Y8807487D01*
X39203248Y8807487D01*
X39392537Y8807487D01*
X39392539Y8807487D01*
X39577696Y8846843D01*
X39750623Y8923836D01*
X39903764Y9035099D01*
X40030426Y9175771D01*
X40125072Y9339703D01*
X40183567Y9519731D01*
X40202087Y9695951D01*
X40228671Y9760563D01*
X40285969Y9800548D01*
X40325408Y9806987D01*
X41537796Y9806987D01*
X41604835Y9787302D01*
X41625477Y9770668D01*
X42197364Y9198781D01*
X42230849Y9137458D01*
X42233683Y9111100D01*
X42233683Y9106240D01*
X42233683Y9106237D01*
X42253469Y8917981D01*
X42253470Y8917978D01*
X42311961Y8737960D01*
X42311964Y8737953D01*
X42406610Y8574021D01*
X42533272Y8433349D01*
X42553636Y8418554D01*
X42637938Y8357305D01*
X42680603Y8301975D01*
X42686582Y8232362D01*
X42653976Y8170567D01*
X42593137Y8136209D01*
X42565052Y8132987D01*
X42505247Y8132987D01*
X42472790Y8126089D01*
X42320090Y8093632D01*
X42177651Y8030213D01*
X42108401Y8020929D01*
X42045125Y8050557D01*
X42007912Y8109692D01*
X42008577Y8179559D01*
X42016730Y8198349D01*
X42016685Y8198368D01*
X42019541Y8204993D01*
X42019546Y8205000D01*
X42069561Y8372064D01*
X42079701Y8546158D01*
X42049419Y8717899D01*
X41980346Y8878026D01*
X41876208Y9017909D01*
X41876205Y9017911D01*
X41876204Y9017913D01*
X41742618Y9130004D01*
X41742616Y9130005D01*
X41586780Y9208269D01*
X41586778Y9208270D01*
X41586777Y9208270D01*
X41417088Y9248487D01*
X41286438Y9248487D01*
X41185516Y9236692D01*
X41156680Y9233321D01*
X41156678Y9233320D01*
X40992810Y9173677D01*
X40992806Y9173675D01*
X40847111Y9077850D01*
X40847110Y9077849D01*
X40727436Y8951002D01*
X40727432Y8950997D01*
X40640240Y8799976D01*
X40590226Y8632914D01*
X40590224Y8632906D01*
X40580085Y8458817D01*
X40580085Y8458816D01*
X40609811Y8290223D01*
X40610367Y8287075D01*
X40655370Y8182747D01*
X40674383Y8138670D01*
X40679440Y8126948D01*
X40783578Y7987065D01*
X40783579Y7987064D01*
X40783581Y7987062D01*
X40880933Y7905375D01*
X40917168Y7874970D01*
X41073009Y7796704D01*
X41242698Y7756487D01*
X41242700Y7756487D01*
X41373341Y7756487D01*
X41373348Y7756487D01*
X41503104Y7771653D01*
X41649209Y7824832D01*
X41718936Y7829262D01*
X41779992Y7795292D01*
X41812989Y7733705D01*
X41807452Y7664056D01*
X41799006Y7646310D01*
X41772713Y7600769D01*
X41772711Y7600765D01*
X41718580Y7434166D01*
X41714219Y7420743D01*
X41694433Y7232487D01*
X41714219Y7044231D01*
X41714220Y7044228D01*
X41772711Y6864210D01*
X41772714Y6864203D01*
X41867360Y6700271D01*
X41967543Y6589007D01*
X41997773Y6526016D01*
X41999393Y6506035D01*
X41999393Y5881585D01*
X41979708Y5814546D01*
X41963074Y5793904D01*
X39720477Y3551306D01*
X39659154Y3517821D01*
X39632796Y3514987D01*
X35987915Y3514987D01*
X35979816Y3515518D01*
X35944487Y3520169D01*
X35905126Y3514987D01*
X35787726Y3499532D01*
X35787724Y3499531D01*
X35641647Y3439024D01*
X35516201Y3342766D01*
X35494511Y3314497D01*
X35489158Y3308393D01*
X34900530Y2719767D01*
X34839207Y2686282D01*
X34780756Y2687673D01*
X34652413Y2722062D01*
X34652403Y2722064D01*
X34417001Y2742659D01*
X34416999Y2742659D01*
X34181596Y2722064D01*
X34181586Y2722062D01*
X33953344Y2660906D01*
X33953339Y2660904D01*
X33863316Y2618926D01*
X33794238Y2608435D01*
X33730454Y2636956D01*
X33723231Y2643628D01*
X28856670Y7510189D01*
X28823185Y7571512D01*
X28828169Y7641204D01*
X28870041Y7697137D01*
X28918564Y7719158D01*
X29043276Y7745666D01*
X29043280Y7745668D01*
X29043281Y7745668D01*
X29154736Y7795292D01*
X29216203Y7822659D01*
X29369344Y7933922D01*
X29496006Y8074594D01*
X29533001Y8138673D01*
X29583565Y8186887D01*
X29652172Y8200111D01*
X29717037Y8174144D01*
X29757566Y8117231D01*
X29763708Y8063712D01*
X29758092Y8010271D01*
X29756433Y7994487D01*
X29776219Y7806231D01*
X29776220Y7806228D01*
X29834711Y7626210D01*
X29834714Y7626203D01*
X29929360Y7462271D01*
X30053495Y7324405D01*
X30056022Y7321599D01*
X30209158Y7210339D01*
X30209163Y7210336D01*
X30382085Y7133345D01*
X30382090Y7133343D01*
X30567247Y7093987D01*
X30567248Y7093987D01*
X30756537Y7093987D01*
X30756539Y7093987D01*
X30941696Y7133343D01*
X31114623Y7210336D01*
X31267764Y7321599D01*
X31394426Y7462271D01*
X31489072Y7626203D01*
X31547567Y7806231D01*
X31567353Y7994487D01*
X31547567Y8182743D01*
X31489072Y8362771D01*
X31394426Y8526703D01*
X31267764Y8667375D01*
X31243003Y8685365D01*
X31200337Y8740695D01*
X31194358Y8810308D01*
X31208499Y8847680D01*
X31235072Y8893703D01*
X31293567Y9073731D01*
X31313353Y9261987D01*
X31293567Y9450243D01*
X31235072Y9630271D01*
X31235069Y9630277D01*
X31234059Y9632545D01*
X31233866Y9633984D01*
X31233064Y9636452D01*
X31233515Y9636599D01*
X31224771Y9701795D01*
X31254396Y9765073D01*
X31313529Y9802289D01*
X31347336Y9806987D01*
X38270378Y9806987D01*
X38337417Y9787302D01*
G37*
%TD.AperFunction*%
%TA.AperFunction,Conductor*%
G36*
X19030469Y13383056D02*
G01*
X19041500Y13373265D01*
X20151782Y12262983D01*
X20157133Y12256882D01*
X20178831Y12228605D01*
X20292634Y12141281D01*
X20304272Y12132351D01*
X20450351Y12071843D01*
X20528732Y12061525D01*
X20607112Y12051205D01*
X20607113Y12051205D01*
X20642442Y12055857D01*
X20650541Y12056387D01*
X21355346Y12056387D01*
X21422385Y12036702D01*
X21443027Y12020068D01*
X23132427Y10330668D01*
X23165912Y10269345D01*
X23160928Y10199653D01*
X23119056Y10143720D01*
X23053592Y10119303D01*
X23044746Y10118987D01*
X21505611Y10118987D01*
X21438572Y10138672D01*
X21417930Y10155306D01*
X20036849Y11536387D01*
X18632280Y12940955D01*
X18598796Y13002277D01*
X18603780Y13071969D01*
X18645652Y13127902D01*
X18647009Y13128904D01*
X18694764Y13163599D01*
X18821426Y13304271D01*
X18846432Y13347584D01*
X18896997Y13395799D01*
X18965604Y13409023D01*
X19030469Y13383056D01*
G37*
%TD.AperFunction*%
%TA.AperFunction,Conductor*%
G36*
X30293825Y13776642D02*
G01*
X30382090Y13737343D01*
X30567247Y13697987D01*
X30661796Y13697987D01*
X30728835Y13678302D01*
X30749477Y13661668D01*
X31857562Y12553583D01*
X31862915Y12547480D01*
X31877406Y12528594D01*
X31884611Y12519205D01*
X31966951Y12456024D01*
X31987229Y12440464D01*
X31987230Y12440463D01*
X32010052Y12422951D01*
X32010056Y12422949D01*
X32064015Y12400599D01*
X32156131Y12362443D01*
X32292252Y12344522D01*
X32312892Y12341804D01*
X32312893Y12341804D01*
X32348227Y12346457D01*
X32356327Y12346987D01*
X36584796Y12346987D01*
X36651835Y12327302D01*
X36672477Y12310668D01*
X36747477Y12235668D01*
X36780962Y12174345D01*
X36775978Y12104653D01*
X36734106Y12048720D01*
X36668642Y12024303D01*
X36659796Y12023987D01*
X30227988Y12023987D01*
X30160949Y12043672D01*
X30115194Y12096476D01*
X30105049Y12164172D01*
X30124575Y12312486D01*
X30124575Y12312488D01*
X30119924Y12347814D01*
X30119393Y12355916D01*
X30119393Y13663361D01*
X30139078Y13730400D01*
X30191882Y13776155D01*
X30261040Y13786099D01*
X30293825Y13776642D01*
G37*
%TD.AperFunction*%
%TA.AperFunction,Conductor*%
G36*
X19610606Y15324665D02*
G01*
X19660531Y15294234D01*
X21485697Y13469068D01*
X21519182Y13407745D01*
X21514198Y13338053D01*
X21472326Y13282120D01*
X21406862Y13257703D01*
X21398016Y13257387D01*
X20907210Y13257387D01*
X20840171Y13277072D01*
X20819529Y13293706D01*
X19050666Y15062569D01*
X19017181Y15123892D01*
X19022165Y15193584D01*
X19064037Y15249517D01*
X19129501Y15273934D01*
X19149144Y15273779D01*
X19177000Y15271341D01*
X19412408Y15291937D01*
X19540757Y15326328D01*
X19610606Y15324665D01*
G37*
%TD.AperFunction*%
%TD*%
M02*
