%TF.GenerationSoftware,KiCad,Pcbnew,7.0.2-0*%
%TF.CreationDate,2023-05-15T20:56:50-04:00*%
%TF.ProjectId,mini_arduino_clone,6d696e69-5f61-4726-9475-696e6f5f636c,A*%
%TF.SameCoordinates,Original*%
%TF.FileFunction,Copper,L2,Inr*%
%TF.FilePolarity,Positive*%
%FSLAX46Y46*%
G04 Gerber Fmt 4.6, Leading zero omitted, Abs format (unit mm)*
G04 Created by KiCad (PCBNEW 7.0.2-0) date 2023-05-15 20:56:50*
%MOMM*%
%LPD*%
G01*
G04 APERTURE LIST*
%TA.AperFunction,ComponentPad*%
%ADD10O,1.700000X1.000000*%
%TD*%
%TA.AperFunction,ComponentPad*%
%ADD11O,1.700000X0.850000*%
%TD*%
%TA.AperFunction,ComponentPad*%
%ADD12R,1.700000X1.700000*%
%TD*%
%TA.AperFunction,ComponentPad*%
%ADD13O,1.700000X1.700000*%
%TD*%
%TA.AperFunction,ViaPad*%
%ADD14C,0.800000*%
%TD*%
%TA.AperFunction,Conductor*%
%ADD15C,1.000000*%
%TD*%
%TA.AperFunction,Conductor*%
%ADD16C,0.500000*%
%TD*%
G04 APERTURE END LIST*
D10*
%TO.N,unconnected-(J101-Shield-Pad6)*%
%TO.C,J101*%
X1515000Y11842000D03*
D11*
X1515000Y6192000D03*
%TD*%
D12*
%TO.N,/D5*%
%TO.C,J103*%
X39497000Y16627000D03*
D13*
%TO.N,/D6*%
X36957000Y16627000D03*
%TO.N,/D7*%
X34417000Y16627000D03*
%TO.N,/D8*%
X31877000Y16627000D03*
%TO.N,/D9*%
X29337000Y16627000D03*
%TO.N,/D10*%
X26797000Y16627000D03*
%TO.N,/D11{slash}MOSI*%
X24257000Y16627000D03*
%TO.N,/D12{slash}MISO*%
X21717000Y16627000D03*
%TO.N,/D4*%
X19177000Y16627000D03*
%TO.N,/D3*%
X16637000Y16627000D03*
%TO.N,/D2*%
X14097000Y16627000D03*
%TO.N,GND*%
X11557000Y16627000D03*
%TO.N,/~{RESET}*%
X9017000Y16627000D03*
%TO.N,/D0{slash}RX*%
X6477000Y16627000D03*
%TO.N,/D1{slash}TX*%
X3937000Y16627000D03*
%TD*%
D12*
%TO.N,/D13{slash}SCK*%
%TO.C,J104*%
X39497000Y1387000D03*
D13*
%TO.N,GND*%
X36957000Y1387000D03*
%TO.N,/~{RESET}*%
X34417000Y1387000D03*
%TO.N,+5V*%
X31877000Y1387000D03*
%TO.N,/A7*%
X29337000Y1387000D03*
%TO.N,/A6*%
X26797000Y1387000D03*
%TO.N,/A5{slash}SCL*%
X24257000Y1387000D03*
%TO.N,/A4{slash}~{SDA}*%
X21717000Y1387000D03*
%TO.N,/A3*%
X19177000Y1387000D03*
%TO.N,/A2*%
X16637000Y1387000D03*
%TO.N,/A1*%
X14097000Y1387000D03*
%TO.N,/A0*%
X11557000Y1387000D03*
%TO.N,GND*%
X9017000Y1387000D03*
%TO.N,+3V3*%
X6477000Y1387000D03*
%TO.N,VBUS*%
X3937000Y1387000D03*
%TD*%
D14*
%TO.N,GND*%
X20826150Y3719987D03*
X1324893Y3676487D03*
X7903493Y5403687D03*
X21162293Y11957387D03*
X16539493Y4641687D03*
X43920693Y1644487D03*
X20298693Y14192087D03*
X13135893Y9518487D03*
X29696693Y7118865D03*
X35995893Y11589568D03*
X10468893Y6597487D03*
X34569933Y6728047D03*
X40313893Y6597487D03*
X43920693Y16325687D03*
X5973093Y7384887D03*
X35437093Y4336887D03*
X34268693Y2965287D03*
X38662893Y12820487D03*
X6165244Y12007687D03*
%TO.N,VBUS*%
X6023893Y10915487D03*
X6023893Y5962487D03*
%TO.N,+5V*%
X30661893Y7994487D03*
X1324893Y17138487D03*
X25200893Y14725487D03*
X39043893Y9010487D03*
X18088893Y13836487D03*
X13770893Y5962487D03*
X13770893Y5200487D03*
X42345893Y2787487D03*
%TO.N,/~{RESET}*%
X8359593Y9518487D03*
X15421893Y13201487D03*
X26666994Y8339403D03*
X11595954Y14010356D03*
%TO.N,+3V3*%
X21173993Y4819487D03*
%TO.N,/USB_UART/VBUS*%
X9325893Y5454487D03*
X9186493Y13176087D03*
%TO.N,/D_P*%
X6150893Y8853100D03*
X13481598Y13490782D03*
%TO.N,/D_N*%
X12790188Y14182192D03*
X6150893Y9830900D03*
%TO.N,/D12{slash}MISO*%
X43170393Y7867487D03*
X27359893Y12058487D03*
%TO.N,/D13{slash}SCK*%
X43615893Y10534487D03*
X30484771Y14929365D03*
%TO.N,/D11{slash}MOSI*%
X29264893Y10661487D03*
X38916893Y11169487D03*
%TO.N,/D2*%
X26851893Y9518487D03*
%TO.N,/D3*%
X28763473Y8606810D03*
%TO.N,/D4*%
X30407893Y9261987D03*
%TO.N,/D10*%
X29010893Y11804487D03*
%TO.N,/A7*%
X25200893Y8121487D03*
%TO.N,/A6*%
X25806813Y7220390D03*
%TO.N,/A1*%
X21173993Y6028513D03*
%TO.N,/A0*%
X20456621Y6724487D03*
%TO.N,/D0{slash}RX*%
X24350993Y4184487D03*
X16844293Y9924887D03*
%TO.N,/D1{slash}TX*%
X18977893Y6826087D03*
X24882710Y3332892D03*
%TD*%
D15*
%TO.N,+3V3*%
X21173993Y4819487D02*
X20216258Y4819487D01*
X20216258Y4819487D02*
X18819258Y3422487D01*
X18819258Y3422487D02*
X8512487Y3422487D01*
X8512487Y3422487D02*
X6477000Y1387000D01*
D16*
%TO.N,/USB_UART/VBUS*%
X9209593Y5570787D02*
X9325893Y5454487D01*
X9186493Y11893087D02*
X9209593Y11869987D01*
X9209593Y11869987D02*
X9209593Y5570787D01*
X9186493Y13176087D02*
X9186493Y11893087D01*
%TD*%
%TA.AperFunction,Conductor*%
%TO.N,+5V*%
G36*
X3265406Y18013815D02*
G01*
X3311161Y17961011D01*
X3321105Y17891853D01*
X3292080Y17828297D01*
X3266724Y17809161D01*
X3268057Y17807257D01*
X3065598Y17665495D01*
X2898505Y17498402D01*
X2762965Y17304830D01*
X2663097Y17090664D01*
X2601936Y16862408D01*
X2581340Y16627000D01*
X2601936Y16391593D01*
X2619596Y16325687D01*
X2663097Y16163337D01*
X2762965Y15949170D01*
X2898505Y15755599D01*
X3065599Y15588505D01*
X3259170Y15452965D01*
X3473337Y15353097D01*
X3701592Y15291937D01*
X3936999Y15271341D01*
X3936999Y15271342D01*
X3937000Y15271341D01*
X4172408Y15291937D01*
X4400663Y15353097D01*
X4614830Y15452965D01*
X4808401Y15588505D01*
X4975495Y15755599D01*
X5105426Y15941161D01*
X5160002Y15984784D01*
X5229500Y15991978D01*
X5291855Y15960455D01*
X5308571Y15941163D01*
X5438505Y15755599D01*
X5605599Y15588505D01*
X5799170Y15452965D01*
X6013337Y15353097D01*
X6241592Y15291937D01*
X6477000Y15271341D01*
X6712408Y15291937D01*
X6940663Y15353097D01*
X7154830Y15452965D01*
X7348401Y15588505D01*
X7515495Y15755599D01*
X7645426Y15941161D01*
X7700002Y15984784D01*
X7769500Y15991978D01*
X7831855Y15960455D01*
X7848571Y15941163D01*
X7978505Y15755599D01*
X8145599Y15588505D01*
X8339170Y15452965D01*
X8553337Y15353097D01*
X8781592Y15291937D01*
X9016999Y15271341D01*
X9016999Y15271342D01*
X9017000Y15271341D01*
X9252408Y15291937D01*
X9480663Y15353097D01*
X9694830Y15452965D01*
X9888401Y15588505D01*
X10055495Y15755599D01*
X10185426Y15941161D01*
X10240002Y15984784D01*
X10309500Y15991978D01*
X10371855Y15960455D01*
X10388571Y15941163D01*
X10518505Y15755599D01*
X10685599Y15588505D01*
X10879170Y15452965D01*
X11093337Y15353097D01*
X11321592Y15291937D01*
X11557000Y15271341D01*
X11792408Y15291937D01*
X12020663Y15353097D01*
X12234830Y15452965D01*
X12428401Y15588505D01*
X12595495Y15755599D01*
X12725426Y15941161D01*
X12780002Y15984784D01*
X12849500Y15991978D01*
X12911855Y15960455D01*
X12928571Y15941163D01*
X13058505Y15755599D01*
X13225599Y15588505D01*
X13419170Y15452965D01*
X13633337Y15353097D01*
X13861592Y15291937D01*
X14097000Y15271341D01*
X14332408Y15291937D01*
X14560663Y15353097D01*
X14774830Y15452965D01*
X14968401Y15588505D01*
X15135495Y15755599D01*
X15265426Y15941161D01*
X15320002Y15984784D01*
X15389500Y15991978D01*
X15451855Y15960455D01*
X15468571Y15941163D01*
X15598505Y15755599D01*
X15765599Y15588505D01*
X15959170Y15452965D01*
X16173337Y15353097D01*
X16401591Y15291937D01*
X16401592Y15291937D01*
X16636999Y15271341D01*
X16636999Y15271342D01*
X16637000Y15271341D01*
X16872408Y15291937D01*
X17100663Y15353097D01*
X17314830Y15452965D01*
X17508401Y15588505D01*
X17675495Y15755599D01*
X17805426Y15941161D01*
X17860002Y15984783D01*
X17929501Y15991976D01*
X17991855Y15960454D01*
X18008571Y15941163D01*
X18138505Y15755599D01*
X18305599Y15588505D01*
X18499170Y15452965D01*
X18713337Y15353097D01*
X18941592Y15291937D01*
X19177000Y15271341D01*
X19412408Y15291937D01*
X19640663Y15353097D01*
X19854830Y15452965D01*
X20048401Y15588505D01*
X20215495Y15755599D01*
X20345426Y15941161D01*
X20400002Y15984784D01*
X20469500Y15991978D01*
X20531855Y15960455D01*
X20548571Y15941163D01*
X20678505Y15755599D01*
X20845599Y15588505D01*
X21039170Y15452965D01*
X21253337Y15353097D01*
X21481592Y15291937D01*
X21716999Y15271341D01*
X21716999Y15271342D01*
X21717000Y15271341D01*
X21952408Y15291937D01*
X22180663Y15353097D01*
X22394830Y15452965D01*
X22588401Y15588505D01*
X22755495Y15755599D01*
X22885426Y15941161D01*
X22940002Y15984784D01*
X23009500Y15991978D01*
X23071855Y15960455D01*
X23088571Y15941163D01*
X23218505Y15755599D01*
X23385599Y15588505D01*
X23579170Y15452965D01*
X23793337Y15353097D01*
X24021592Y15291937D01*
X24257000Y15271341D01*
X24492408Y15291937D01*
X24720663Y15353097D01*
X24934830Y15452965D01*
X25128401Y15588505D01*
X25295495Y15755599D01*
X25425426Y15941161D01*
X25480002Y15984784D01*
X25549500Y15991978D01*
X25611855Y15960455D01*
X25628571Y15941163D01*
X25758505Y15755599D01*
X25925599Y15588505D01*
X26119170Y15452965D01*
X26333337Y15353097D01*
X26561592Y15291937D01*
X26796999Y15271341D01*
X26796999Y15271342D01*
X26797000Y15271341D01*
X27032408Y15291937D01*
X27260663Y15353097D01*
X27474830Y15452965D01*
X27668401Y15588505D01*
X27835495Y15755599D01*
X27965426Y15941161D01*
X28020002Y15984783D01*
X28089501Y15991976D01*
X28151855Y15960454D01*
X28168571Y15941163D01*
X28298505Y15755599D01*
X28465599Y15588505D01*
X28659170Y15452965D01*
X28873337Y15353097D01*
X29101592Y15291937D01*
X29336999Y15271341D01*
X29336999Y15271342D01*
X29337000Y15271341D01*
X29383136Y15275378D01*
X29471542Y15283112D01*
X29540042Y15269346D01*
X29590225Y15220731D01*
X29606159Y15152702D01*
X29600283Y15121271D01*
X29599097Y15117624D01*
X29583197Y14966343D01*
X29579311Y14929365D01*
X29587118Y14855082D01*
X29599097Y14741108D01*
X29657591Y14561081D01*
X29752237Y14397149D01*
X29878900Y14256476D01*
X30032040Y14145214D01*
X30204968Y14068221D01*
X30390123Y14028865D01*
X30390125Y14028865D01*
X30579419Y14028865D01*
X30702854Y14055103D01*
X30764574Y14068221D01*
X30937501Y14145214D01*
X30962906Y14163672D01*
X31090641Y14256476D01*
X31217304Y14397149D01*
X31311950Y14561081D01*
X31361769Y14714408D01*
X31370445Y14741109D01*
X31390231Y14929365D01*
X31370445Y15117621D01*
X31353119Y15170942D01*
X31351125Y15240782D01*
X31387205Y15300615D01*
X31449906Y15331443D01*
X31503141Y15329035D01*
X31641592Y15291937D01*
X31877000Y15271341D01*
X32112408Y15291937D01*
X32340663Y15353097D01*
X32554830Y15452965D01*
X32748401Y15588505D01*
X32915495Y15755599D01*
X33045426Y15941161D01*
X33100002Y15984784D01*
X33169500Y15991978D01*
X33231855Y15960455D01*
X33248571Y15941163D01*
X33378505Y15755599D01*
X33545599Y15588505D01*
X33739170Y15452965D01*
X33953337Y15353097D01*
X34181592Y15291937D01*
X34416999Y15271341D01*
X34416999Y15271342D01*
X34417000Y15271341D01*
X34652408Y15291937D01*
X34880663Y15353097D01*
X35094830Y15452965D01*
X35288401Y15588505D01*
X35455495Y15755599D01*
X35585426Y15941161D01*
X35640002Y15984784D01*
X35709500Y15991978D01*
X35771855Y15960455D01*
X35788571Y15941163D01*
X35918505Y15755599D01*
X36085599Y15588505D01*
X36279170Y15452965D01*
X36493337Y15353097D01*
X36721592Y15291937D01*
X36957000Y15271341D01*
X37192408Y15291937D01*
X37420663Y15353097D01*
X37634830Y15452965D01*
X37828401Y15588505D01*
X37950329Y15710434D01*
X38011648Y15743916D01*
X38081340Y15738932D01*
X38137274Y15697061D01*
X38154189Y15666084D01*
X38180291Y15596102D01*
X38203204Y15534669D01*
X38289454Y15419454D01*
X38404669Y15333204D01*
X38539517Y15282909D01*
X38599127Y15276500D01*
X40394872Y15276501D01*
X40454483Y15282909D01*
X40589331Y15333204D01*
X40704546Y15419454D01*
X40790796Y15534669D01*
X40841091Y15669517D01*
X40847500Y15729127D01*
X40847500Y16325688D01*
X43015233Y16325688D01*
X43035019Y16137430D01*
X43093513Y15957403D01*
X43188159Y15793471D01*
X43314822Y15652798D01*
X43467962Y15541536D01*
X43640890Y15464543D01*
X43826045Y15425187D01*
X43826047Y15425187D01*
X44015341Y15425187D01*
X44146025Y15452965D01*
X44200496Y15464543D01*
X44373423Y15541536D01*
X44526564Y15652799D01*
X44653226Y15793471D01*
X44747872Y15957403D01*
X44806367Y16137431D01*
X44826153Y16325687D01*
X44806367Y16513943D01*
X44747872Y16693971D01*
X44747872Y16693972D01*
X44653226Y16857904D01*
X44526563Y16998577D01*
X44373423Y17109839D01*
X44200495Y17186832D01*
X44015341Y17226187D01*
X44015339Y17226187D01*
X43826047Y17226187D01*
X43826045Y17226187D01*
X43640890Y17186832D01*
X43467962Y17109839D01*
X43314822Y16998577D01*
X43188159Y16857904D01*
X43093513Y16693972D01*
X43035019Y16513945D01*
X43015233Y16325688D01*
X40847500Y16325688D01*
X40847499Y17524872D01*
X40841091Y17584483D01*
X40790796Y17719331D01*
X40704546Y17834546D01*
X40704065Y17835189D01*
X40679648Y17900654D01*
X40694500Y17968927D01*
X40743905Y18018332D01*
X40803332Y18033500D01*
X44960500Y18033500D01*
X45027539Y18013815D01*
X45073294Y17961011D01*
X45084500Y17909500D01*
X45084500Y124500D01*
X45064815Y57461D01*
X45012011Y11706D01*
X44960500Y500D01*
X40818303Y500D01*
X40751264Y20185D01*
X40705509Y72989D01*
X40695565Y142147D01*
X40719035Y198810D01*
X40790796Y294669D01*
X40841091Y429517D01*
X40847500Y489127D01*
X40847499Y1644488D01*
X43015233Y1644488D01*
X43035019Y1456230D01*
X43093513Y1276203D01*
X43188159Y1112271D01*
X43314822Y971598D01*
X43467962Y860336D01*
X43640890Y783343D01*
X43826045Y743987D01*
X43826047Y743987D01*
X44015341Y743987D01*
X44138776Y770225D01*
X44200496Y783343D01*
X44373423Y860336D01*
X44526564Y971599D01*
X44653226Y1112271D01*
X44747872Y1276203D01*
X44806367Y1456231D01*
X44826153Y1644487D01*
X44806367Y1832743D01*
X44747872Y2012771D01*
X44747872Y2012772D01*
X44653226Y2176704D01*
X44526563Y2317377D01*
X44373423Y2428639D01*
X44200495Y2505632D01*
X44015341Y2544987D01*
X44015339Y2544987D01*
X43826047Y2544987D01*
X43826045Y2544987D01*
X43640890Y2505632D01*
X43467962Y2428639D01*
X43314822Y2317377D01*
X43188159Y2176704D01*
X43093513Y2012772D01*
X43035019Y1832745D01*
X43015233Y1644488D01*
X40847499Y1644488D01*
X40847499Y2284872D01*
X40841091Y2344483D01*
X40790796Y2479331D01*
X40704546Y2594546D01*
X40589331Y2680796D01*
X40454483Y2731091D01*
X40414340Y2735407D01*
X40398166Y2737146D01*
X40398165Y2737147D01*
X40394873Y2737500D01*
X40391550Y2737500D01*
X38602439Y2737500D01*
X38602420Y2737500D01*
X38599128Y2737499D01*
X38595848Y2737147D01*
X38595840Y2737146D01*
X38539515Y2731091D01*
X38404669Y2680796D01*
X38289454Y2594546D01*
X38203204Y2479331D01*
X38154189Y2347917D01*
X38112317Y2291984D01*
X38046852Y2267567D01*
X37978580Y2282419D01*
X37950326Y2303570D01*
X37828404Y2425492D01*
X37828401Y2425495D01*
X37634830Y2561035D01*
X37420663Y2660903D01*
X37359502Y2677291D01*
X37192407Y2722064D01*
X36957000Y2742660D01*
X36721592Y2722064D01*
X36493336Y2660903D01*
X36279170Y2561035D01*
X36085598Y2425495D01*
X35918505Y2258402D01*
X35788575Y2072841D01*
X35733998Y2029216D01*
X35664500Y2022022D01*
X35602145Y2053545D01*
X35585425Y2072841D01*
X35512700Y2176703D01*
X35455495Y2258401D01*
X35288401Y2425495D01*
X35288400Y2425496D01*
X35161319Y2514480D01*
X35117694Y2569057D01*
X35110502Y2638555D01*
X35114512Y2654372D01*
X35116634Y2660903D01*
X35154367Y2777031D01*
X35174153Y2965287D01*
X35154367Y3153543D01*
X35108063Y3296052D01*
X35106068Y3365893D01*
X35142149Y3425726D01*
X35204850Y3456554D01*
X35251773Y3455661D01*
X35299444Y3445528D01*
X35342446Y3436387D01*
X35342447Y3436387D01*
X35531741Y3436387D01*
X35655177Y3462625D01*
X35716896Y3475743D01*
X35889823Y3552736D01*
X35889822Y3552737D01*
X36042963Y3663998D01*
X36169626Y3804671D01*
X36264272Y3968603D01*
X36274624Y4000464D01*
X36322767Y4148631D01*
X36342553Y4336887D01*
X36322767Y4525143D01*
X36264272Y4705171D01*
X36264272Y4705172D01*
X36169626Y4869104D01*
X36042963Y5009777D01*
X35889823Y5121039D01*
X35716895Y5198032D01*
X35531741Y5237387D01*
X35531739Y5237387D01*
X35342447Y5237387D01*
X35342445Y5237387D01*
X35157290Y5198032D01*
X34984362Y5121039D01*
X34831222Y5009777D01*
X34704559Y4869104D01*
X34609913Y4705172D01*
X34551419Y4525145D01*
X34531633Y4336887D01*
X34551419Y4148628D01*
X34597722Y4006122D01*
X34599717Y3936281D01*
X34563636Y3876449D01*
X34500935Y3845621D01*
X34454010Y3846515D01*
X34363341Y3865787D01*
X34363339Y3865787D01*
X34174047Y3865787D01*
X34174045Y3865787D01*
X33988890Y3826432D01*
X33815962Y3749439D01*
X33662822Y3638177D01*
X33536159Y3497504D01*
X33441513Y3333572D01*
X33383019Y3153545D01*
X33363233Y2965288D01*
X33383019Y2777030D01*
X33441513Y2597003D01*
X33494813Y2504686D01*
X33511286Y2436786D01*
X33488434Y2370759D01*
X33475108Y2355005D01*
X33378502Y2258399D01*
X33248269Y2072405D01*
X33193692Y2028780D01*
X33124194Y2021586D01*
X33061839Y2053109D01*
X33045119Y2072405D01*
X32915109Y2258079D01*
X32748081Y2425107D01*
X32554576Y2560601D01*
X32340492Y2660431D01*
X32127000Y2717636D01*
X32127000Y1822502D01*
X32019315Y1871680D01*
X31912763Y1887000D01*
X31841237Y1887000D01*
X31734685Y1871680D01*
X31626999Y1822502D01*
X31627000Y2717636D01*
X31626999Y2717636D01*
X31413507Y2660431D01*
X31199421Y2560600D01*
X31005921Y2425110D01*
X30838893Y2258082D01*
X30708880Y2072404D01*
X30654303Y2028780D01*
X30584804Y2021587D01*
X30522450Y2053109D01*
X30505730Y2072405D01*
X30375495Y2258401D01*
X30208401Y2425495D01*
X30014830Y2561035D01*
X29800663Y2660903D01*
X29739501Y2677291D01*
X29572407Y2722064D01*
X29336999Y2742660D01*
X29101592Y2722064D01*
X28873336Y2660903D01*
X28659170Y2561035D01*
X28465598Y2425495D01*
X28298505Y2258402D01*
X28168575Y2072841D01*
X28113998Y2029216D01*
X28044500Y2022022D01*
X27982145Y2053545D01*
X27965425Y2072841D01*
X27892700Y2176703D01*
X27835495Y2258401D01*
X27668401Y2425495D01*
X27474830Y2561035D01*
X27260663Y2660903D01*
X27199501Y2677291D01*
X27032407Y2722064D01*
X26796999Y2742660D01*
X26561592Y2722064D01*
X26333336Y2660903D01*
X26119170Y2561035D01*
X25925598Y2425495D01*
X25758505Y2258402D01*
X25628575Y2072841D01*
X25573998Y2029216D01*
X25504500Y2022022D01*
X25442145Y2053545D01*
X25425425Y2072841D01*
X25352700Y2176703D01*
X25295495Y2258401D01*
X25234482Y2319414D01*
X25200997Y2380737D01*
X25205981Y2450429D01*
X25247853Y2506362D01*
X25271726Y2520374D01*
X25297919Y2532036D01*
X25335441Y2548741D01*
X25488580Y2660003D01*
X25578524Y2759895D01*
X25615243Y2800676D01*
X25709889Y2964608D01*
X25768384Y3144636D01*
X25788170Y3332892D01*
X25768384Y3521148D01*
X25710446Y3699463D01*
X25709889Y3701177D01*
X25615243Y3865109D01*
X25497179Y3996231D01*
X25488581Y4005780D01*
X25488110Y4006122D01*
X25335440Y4117043D01*
X25325410Y4121509D01*
X25272174Y4166761D01*
X25252528Y4221824D01*
X25236667Y4372743D01*
X25204996Y4470216D01*
X25178172Y4552772D01*
X25083526Y4716704D01*
X24956863Y4857377D01*
X24803723Y4968639D01*
X24630795Y5045632D01*
X24445641Y5084987D01*
X24445639Y5084987D01*
X24256347Y5084987D01*
X24256345Y5084987D01*
X24071190Y5045632D01*
X23898262Y4968639D01*
X23745122Y4857377D01*
X23618459Y4716704D01*
X23523813Y4552772D01*
X23465319Y4372745D01*
X23445533Y4184487D01*
X23465319Y3996230D01*
X23523813Y3816203D01*
X23618459Y3652271D01*
X23745122Y3511598D01*
X23865377Y3424229D01*
X23898263Y3400336D01*
X23908186Y3395918D01*
X23908287Y3395873D01*
X23961525Y3350624D01*
X23981174Y3295555D01*
X23997036Y3144635D01*
X24055530Y2964609D01*
X24091456Y2902383D01*
X24107928Y2834483D01*
X24085075Y2768456D01*
X24030153Y2725266D01*
X24016162Y2720609D01*
X23793335Y2660903D01*
X23579170Y2561035D01*
X23385598Y2425495D01*
X23218508Y2258405D01*
X23088574Y2072840D01*
X23033997Y2029215D01*
X22964498Y2022023D01*
X22902144Y2053545D01*
X22885429Y2072836D01*
X22755495Y2258401D01*
X22588401Y2425495D01*
X22394830Y2561035D01*
X22180663Y2660903D01*
X22119501Y2677291D01*
X21952407Y2722064D01*
X21717000Y2742660D01*
X21481592Y2722064D01*
X21288529Y2670333D01*
X21223767Y2671875D01*
X21176987Y2625537D01*
X21170485Y2622269D01*
X21039168Y2561034D01*
X20845598Y2425495D01*
X20678505Y2258402D01*
X20548575Y2072841D01*
X20493998Y2029216D01*
X20424500Y2022022D01*
X20362145Y2053545D01*
X20345425Y2072841D01*
X20272700Y2176703D01*
X20215495Y2258401D01*
X20048401Y2425495D01*
X19854830Y2561035D01*
X19777697Y2597003D01*
X19686540Y2639511D01*
X19634101Y2685684D01*
X19614949Y2752877D01*
X19635165Y2819759D01*
X19651259Y2839569D01*
X19956611Y3144921D01*
X20017932Y3178404D01*
X20087624Y3173420D01*
X20136439Y3140211D01*
X20220279Y3047099D01*
X20373419Y2935836D01*
X20546347Y2858843D01*
X20731502Y2819487D01*
X20731504Y2819487D01*
X20920797Y2819487D01*
X20991347Y2834483D01*
X21092299Y2855941D01*
X21151393Y2851432D01*
X21191898Y2895989D01*
X21206001Y2903388D01*
X21278882Y2935837D01*
X21432020Y3047098D01*
X21558683Y3187771D01*
X21653329Y3351703D01*
X21711824Y3531731D01*
X21731610Y3719987D01*
X21713381Y3893421D01*
X21725950Y3962146D01*
X21755928Y4000460D01*
X21902888Y4126621D01*
X22027441Y4287529D01*
X22117053Y4470216D01*
X22168056Y4667202D01*
X22178362Y4870423D01*
X22178201Y4871471D01*
X22147549Y5071559D01*
X22076879Y5262374D01*
X21962575Y5445760D01*
X21964450Y5446930D01*
X21940158Y5494235D01*
X21946910Y5563778D01*
X21954568Y5579510D01*
X22001172Y5660229D01*
X22059667Y5840257D01*
X22079453Y6028513D01*
X22059667Y6216769D01*
X22013205Y6359763D01*
X22001172Y6396798D01*
X21906526Y6560730D01*
X21779863Y6701403D01*
X21626723Y6812665D01*
X21453795Y6889658D01*
X21412107Y6898519D01*
X21350625Y6931711D01*
X21319957Y6981491D01*
X21283800Y7092772D01*
X21189154Y7256704D01*
X21062491Y7397377D01*
X20909351Y7508639D01*
X20736423Y7585632D01*
X20551269Y7624987D01*
X20551267Y7624987D01*
X20361975Y7624987D01*
X20361973Y7624987D01*
X20176818Y7585632D01*
X20003890Y7508639D01*
X19840206Y7389715D01*
X19838530Y7392021D01*
X19795644Y7365607D01*
X19725788Y7366947D01*
X19670847Y7402260D01*
X19583763Y7498977D01*
X19430623Y7610239D01*
X19257695Y7687232D01*
X19072541Y7726587D01*
X19072539Y7726587D01*
X18883247Y7726587D01*
X18883245Y7726587D01*
X18698090Y7687232D01*
X18525162Y7610239D01*
X18372022Y7498977D01*
X18245359Y7358304D01*
X18150713Y7194372D01*
X18092219Y7014345D01*
X18072433Y6826087D01*
X18092219Y6637830D01*
X18150713Y6457803D01*
X18245359Y6293871D01*
X18372022Y6153198D01*
X18525162Y6041936D01*
X18698090Y5964943D01*
X18883245Y5925587D01*
X18883247Y5925587D01*
X19072541Y5925587D01*
X19195976Y5951825D01*
X19257696Y5964943D01*
X19430623Y6041936D01*
X19462741Y6065271D01*
X19594308Y6160859D01*
X19595984Y6158552D01*
X19638842Y6184961D01*
X19708700Y6183637D01*
X19763666Y6148315D01*
X19850750Y6051598D01*
X19936021Y5989646D01*
X19978687Y5934317D01*
X19984666Y5864703D01*
X19952061Y5802908D01*
X19909131Y5774174D01*
X19884826Y5764466D01*
X19875956Y5761308D01*
X19819668Y5743646D01*
X19793067Y5728882D01*
X19778897Y5722152D01*
X19750643Y5710865D01*
X19701379Y5678400D01*
X19693328Y5673523D01*
X19641756Y5644897D01*
X19618672Y5625080D01*
X19606145Y5615634D01*
X19580739Y5598889D01*
X19539033Y5557184D01*
X19532126Y5550783D01*
X19487361Y5512352D01*
X19468738Y5488294D01*
X19458366Y5476518D01*
X18441157Y4459306D01*
X18379834Y4425821D01*
X18353476Y4422987D01*
X17559683Y4422987D01*
X17492644Y4442672D01*
X17446889Y4495476D01*
X17436362Y4559948D01*
X17444953Y4641687D01*
X17425167Y4829943D01*
X17366672Y5009971D01*
X17366672Y5009972D01*
X17272026Y5173904D01*
X17145363Y5314577D01*
X16992223Y5425839D01*
X16819295Y5502832D01*
X16634141Y5542187D01*
X16634139Y5542187D01*
X16444847Y5542187D01*
X16444845Y5542187D01*
X16259690Y5502832D01*
X16086762Y5425839D01*
X15933622Y5314577D01*
X15806959Y5173904D01*
X15712313Y5009972D01*
X15653819Y4829945D01*
X15634033Y4641687D01*
X15642624Y4559948D01*
X15630054Y4491218D01*
X15582322Y4440195D01*
X15519303Y4422987D01*
X9806444Y4422987D01*
X9739405Y4442672D01*
X9693650Y4495476D01*
X9683706Y4564634D01*
X9712731Y4628190D01*
X9756008Y4660266D01*
X9778623Y4670336D01*
X9931763Y4781598D01*
X9955275Y4807710D01*
X10058426Y4922271D01*
X10153072Y5086203D01*
X10211567Y5266231D01*
X10231353Y5454487D01*
X10219857Y5563862D01*
X10232426Y5632589D01*
X10280158Y5683613D01*
X10347899Y5700731D01*
X10368956Y5698112D01*
X10374247Y5696987D01*
X10374249Y5696987D01*
X10563541Y5696987D01*
X10703329Y5726700D01*
X10748696Y5736343D01*
X10921623Y5813336D01*
X10930777Y5819987D01*
X11074763Y5924598D01*
X11201426Y6065271D01*
X11296072Y6229203D01*
X11325538Y6319890D01*
X11354567Y6409231D01*
X11374353Y6597487D01*
X11354567Y6785743D01*
X11317924Y6898519D01*
X11296072Y6965772D01*
X11201426Y7129704D01*
X11074763Y7270377D01*
X10921623Y7381639D01*
X10748695Y7458632D01*
X10563541Y7497987D01*
X10563539Y7497987D01*
X10374247Y7497987D01*
X10374245Y7497987D01*
X10189091Y7458633D01*
X10134528Y7434339D01*
X10065278Y7425055D01*
X10002001Y7454684D01*
X9964788Y7513819D01*
X9960093Y7547619D01*
X9960093Y8121487D01*
X24295433Y8121487D01*
X24315219Y7933230D01*
X24373713Y7753203D01*
X24468359Y7589271D01*
X24595022Y7448598D01*
X24748160Y7337337D01*
X24830576Y7300643D01*
X24883814Y7255392D01*
X24903462Y7200325D01*
X24921139Y7032133D01*
X24979633Y6852106D01*
X25074279Y6688174D01*
X25200942Y6547501D01*
X25354082Y6436239D01*
X25527010Y6359246D01*
X25712165Y6319890D01*
X25712167Y6319890D01*
X25901461Y6319890D01*
X26045930Y6350598D01*
X26086616Y6359246D01*
X26259543Y6436239D01*
X26319435Y6479753D01*
X26412683Y6547501D01*
X26424595Y6560730D01*
X26539346Y6688174D01*
X26633992Y6852106D01*
X26692487Y7032134D01*
X26712273Y7220390D01*
X26702557Y7312829D01*
X26715126Y7381555D01*
X26762858Y7432579D01*
X26800097Y7447077D01*
X26946797Y7478259D01*
X27119724Y7555252D01*
X27272864Y7666514D01*
X27284315Y7679231D01*
X27399527Y7807187D01*
X27494173Y7971119D01*
X27552668Y8151147D01*
X27572454Y8339403D01*
X27552668Y8527659D01*
X27494173Y8707687D01*
X27494173Y8707688D01*
X27476479Y8738335D01*
X27460006Y8806236D01*
X27482859Y8872262D01*
X27491717Y8883308D01*
X27511824Y8905638D01*
X27584426Y8986271D01*
X27679072Y9150203D01*
X27737567Y9330231D01*
X27757353Y9518487D01*
X27737567Y9706743D01*
X27679072Y9886771D01*
X27679072Y9886772D01*
X27584426Y10050704D01*
X27457763Y10191377D01*
X27304623Y10302639D01*
X27131695Y10379632D01*
X26946541Y10418987D01*
X26946539Y10418987D01*
X26757247Y10418987D01*
X26757245Y10418987D01*
X26572090Y10379632D01*
X26399162Y10302639D01*
X26246022Y10191377D01*
X26119359Y10050704D01*
X26024713Y9886772D01*
X25966219Y9706745D01*
X25946433Y9518487D01*
X25966219Y9330230D01*
X26024712Y9150206D01*
X26024714Y9150203D01*
X26042408Y9119556D01*
X26058881Y9051657D01*
X26036029Y8985630D01*
X26027171Y8974584D01*
X25934459Y8871618D01*
X25934161Y8871101D01*
X25932981Y8869977D01*
X25925740Y8861934D01*
X25925125Y8862487D01*
X25883591Y8822888D01*
X25814983Y8809669D01*
X25753891Y8832789D01*
X25713776Y8861934D01*
X25653623Y8905638D01*
X25653622Y8905639D01*
X25653620Y8905640D01*
X25480695Y8982632D01*
X25295541Y9021987D01*
X25295539Y9021987D01*
X25106247Y9021987D01*
X25106245Y9021987D01*
X24921090Y8982632D01*
X24748162Y8905639D01*
X24595022Y8794377D01*
X24468359Y8653704D01*
X24373713Y8489772D01*
X24315219Y8309745D01*
X24295433Y8121487D01*
X9960093Y8121487D01*
X9960093Y9518488D01*
X12230433Y9518488D01*
X12250219Y9330230D01*
X12308713Y9150203D01*
X12403359Y8986271D01*
X12530022Y8845598D01*
X12683162Y8734336D01*
X12856090Y8657343D01*
X13041245Y8617987D01*
X13041247Y8617987D01*
X13230541Y8617987D01*
X13353976Y8644225D01*
X13415696Y8657343D01*
X13588623Y8734336D01*
X13672214Y8795068D01*
X13741763Y8845598D01*
X13765193Y8871619D01*
X13868426Y8986271D01*
X13963072Y9150203D01*
X14021567Y9330231D01*
X14041353Y9518487D01*
X14021567Y9706743D01*
X13963072Y9886771D01*
X13963072Y9886772D01*
X13941066Y9924888D01*
X15938833Y9924888D01*
X15958619Y9736630D01*
X16017113Y9556603D01*
X16111759Y9392671D01*
X16238422Y9251998D01*
X16391562Y9140736D01*
X16564490Y9063743D01*
X16749645Y9024387D01*
X16749647Y9024387D01*
X16938941Y9024387D01*
X17067235Y9051657D01*
X17124096Y9063743D01*
X17297023Y9140736D01*
X17450164Y9251999D01*
X17576826Y9392671D01*
X17671472Y9556603D01*
X17729967Y9736631D01*
X17749753Y9924887D01*
X17729967Y10113143D01*
X17671472Y10293171D01*
X17671472Y10293172D01*
X17576826Y10457104D01*
X17450163Y10597777D01*
X17297023Y10709039D01*
X17124095Y10786032D01*
X16938941Y10825387D01*
X16938939Y10825387D01*
X16749647Y10825387D01*
X16749645Y10825387D01*
X16564490Y10786032D01*
X16391562Y10709039D01*
X16238422Y10597777D01*
X16111759Y10457104D01*
X16017113Y10293172D01*
X15958619Y10113145D01*
X15938833Y9924888D01*
X13941066Y9924888D01*
X13868426Y10050704D01*
X13741763Y10191377D01*
X13588623Y10302639D01*
X13415695Y10379632D01*
X13230541Y10418987D01*
X13230539Y10418987D01*
X13041247Y10418987D01*
X13041245Y10418987D01*
X12856090Y10379632D01*
X12683162Y10302639D01*
X12530022Y10191377D01*
X12403359Y10050704D01*
X12308713Y9886772D01*
X12250219Y9706745D01*
X12230433Y9518488D01*
X9960093Y9518488D01*
X9960093Y11806282D01*
X9961402Y11824252D01*
X9962105Y11829055D01*
X9964882Y11848010D01*
X9960564Y11897354D01*
X9960093Y11908160D01*
X9960093Y11910086D01*
X9960093Y11913696D01*
X9956491Y11944509D01*
X9956127Y11948072D01*
X9955312Y11957387D01*
X20256833Y11957387D01*
X20276619Y11769130D01*
X20335113Y11589103D01*
X20429759Y11425171D01*
X20556422Y11284498D01*
X20709562Y11173236D01*
X20882490Y11096243D01*
X21067645Y11056887D01*
X21067647Y11056887D01*
X21256941Y11056887D01*
X21388143Y11084775D01*
X21442096Y11096243D01*
X21615023Y11173236D01*
X21648204Y11197343D01*
X21768163Y11284498D01*
X21894826Y11425171D01*
X21989472Y11589103D01*
X22022163Y11689715D01*
X22047967Y11769131D01*
X22067753Y11957387D01*
X22057127Y12058487D01*
X26454433Y12058487D01*
X26474219Y11870230D01*
X26532713Y11690203D01*
X26627359Y11526271D01*
X26754022Y11385598D01*
X26907162Y11274336D01*
X27080090Y11197343D01*
X27265245Y11157987D01*
X27265247Y11157987D01*
X27454541Y11157987D01*
X27577976Y11184225D01*
X27639696Y11197343D01*
X27812623Y11274336D01*
X27965764Y11385599D01*
X28002163Y11426025D01*
X28061647Y11462672D01*
X28131504Y11461343D01*
X28189553Y11422457D01*
X28201699Y11405052D01*
X28278359Y11272271D01*
X28405453Y11131120D01*
X28435683Y11068129D01*
X28431234Y11009830D01*
X28379219Y10849745D01*
X28359433Y10661487D01*
X28379219Y10473230D01*
X28437713Y10293203D01*
X28532359Y10129271D01*
X28659022Y9988598D01*
X28812162Y9877336D01*
X28985090Y9800343D01*
X29170245Y9760987D01*
X29170247Y9760987D01*
X29359540Y9760987D01*
X29432664Y9776530D01*
X29502331Y9771214D01*
X29558065Y9729077D01*
X29582170Y9663497D01*
X29576376Y9616922D01*
X29522219Y9450245D01*
X29517170Y9402204D01*
X29490585Y9337590D01*
X29433287Y9297606D01*
X29363468Y9294946D01*
X29320964Y9314849D01*
X29216203Y9390962D01*
X29043275Y9467955D01*
X28858121Y9507310D01*
X28858119Y9507310D01*
X28668827Y9507310D01*
X28668825Y9507310D01*
X28483670Y9467955D01*
X28310742Y9390962D01*
X28157602Y9279700D01*
X28030939Y9139027D01*
X27936293Y8975095D01*
X27877799Y8795068D01*
X27862724Y8651638D01*
X27858013Y8606810D01*
X27859875Y8589098D01*
X27877799Y8418553D01*
X27936293Y8238526D01*
X28030939Y8074594D01*
X28157602Y7933921D01*
X28310742Y7822659D01*
X28483670Y7745666D01*
X28668825Y7706310D01*
X28781272Y7706310D01*
X28848311Y7686625D01*
X28894066Y7633821D01*
X28904010Y7564663D01*
X28888659Y7520310D01*
X28869513Y7487150D01*
X28811019Y7307123D01*
X28791233Y7118865D01*
X28811019Y6930608D01*
X28869513Y6750581D01*
X28964159Y6586649D01*
X29090822Y6445976D01*
X29243962Y6334714D01*
X29416890Y6257721D01*
X29602045Y6218365D01*
X29602047Y6218365D01*
X29791341Y6218365D01*
X29914776Y6244603D01*
X29976496Y6257721D01*
X30149423Y6334714D01*
X30251986Y6409230D01*
X30302563Y6445976D01*
X30429226Y6586649D01*
X30510862Y6728047D01*
X33664473Y6728047D01*
X33684259Y6539790D01*
X33742753Y6359763D01*
X33837399Y6195831D01*
X33964062Y6055158D01*
X34117202Y5943896D01*
X34290130Y5866903D01*
X34475285Y5827547D01*
X34475287Y5827547D01*
X34664581Y5827547D01*
X34832987Y5863343D01*
X34849736Y5866903D01*
X35022663Y5943896D01*
X35175804Y6055159D01*
X35302466Y6195831D01*
X35397112Y6359763D01*
X35455607Y6539791D01*
X35461671Y6597487D01*
X39408433Y6597487D01*
X39428219Y6409230D01*
X39486713Y6229203D01*
X39581359Y6065271D01*
X39708022Y5924598D01*
X39861162Y5813336D01*
X40034090Y5736343D01*
X40219245Y5696987D01*
X40219247Y5696987D01*
X40408541Y5696987D01*
X40548329Y5726700D01*
X40593696Y5736343D01*
X40766623Y5813336D01*
X40775777Y5819987D01*
X40919763Y5924598D01*
X41046426Y6065271D01*
X41141072Y6229203D01*
X41170538Y6319890D01*
X41199567Y6409231D01*
X41219353Y6597487D01*
X41199567Y6785743D01*
X41162924Y6898519D01*
X41141072Y6965772D01*
X41079592Y7072258D01*
X41063119Y7140158D01*
X41085972Y7206185D01*
X41140893Y7249376D01*
X41210446Y7256017D01*
X41215567Y7254918D01*
X41228317Y7251896D01*
X41242697Y7248487D01*
X41242698Y7248487D01*
X41369749Y7248487D01*
X41373348Y7248487D01*
X41503104Y7263653D01*
X41666977Y7323298D01*
X41812677Y7419127D01*
X41932351Y7545974D01*
X42019546Y7697000D01*
X42036991Y7755274D01*
X42075073Y7813849D01*
X42138781Y7842539D01*
X42207886Y7832231D01*
X42260448Y7786199D01*
X42279102Y7732673D01*
X42284719Y7679230D01*
X42343213Y7499203D01*
X42437859Y7335271D01*
X42564522Y7194598D01*
X42717662Y7083336D01*
X42890590Y7006343D01*
X43075745Y6966987D01*
X43075747Y6966987D01*
X43265041Y6966987D01*
X43388477Y6993225D01*
X43450196Y7006343D01*
X43623123Y7083336D01*
X43701332Y7140158D01*
X43776263Y7194598D01*
X43902926Y7335271D01*
X43997572Y7499203D01*
X44013303Y7547619D01*
X44056067Y7679231D01*
X44075853Y7867487D01*
X44056067Y8055743D01*
X44025725Y8149124D01*
X43997572Y8235772D01*
X43902926Y8399704D01*
X43776263Y8540377D01*
X43623123Y8651639D01*
X43450195Y8728632D01*
X43265041Y8767987D01*
X43265039Y8767987D01*
X43075747Y8767987D01*
X43075745Y8767987D01*
X42890590Y8728632D01*
X42717662Y8651639D01*
X42564522Y8540377D01*
X42437859Y8399704D01*
X42343213Y8235772D01*
X42303497Y8113537D01*
X42264059Y8055861D01*
X42199701Y8028663D01*
X42130854Y8040578D01*
X42079379Y8087822D01*
X42063450Y8130323D01*
X42049419Y8209899D01*
X41980346Y8370026D01*
X41876208Y8509909D01*
X41742618Y8622004D01*
X41586777Y8700270D01*
X41417088Y8740487D01*
X41286438Y8740487D01*
X41282871Y8740071D01*
X41282869Y8740070D01*
X41156679Y8725321D01*
X40992809Y8665677D01*
X40847108Y8569847D01*
X40727435Y8443001D01*
X40640240Y8291975D01*
X40640240Y8291974D01*
X40598080Y8151146D01*
X40590225Y8124909D01*
X40580084Y7950816D01*
X40610366Y7779077D01*
X40669209Y7642666D01*
X40677687Y7573313D01*
X40647324Y7510385D01*
X40587760Y7473863D01*
X40529569Y7472262D01*
X40408541Y7497987D01*
X40408539Y7497987D01*
X40219247Y7497987D01*
X40219245Y7497987D01*
X40034090Y7458632D01*
X39861162Y7381639D01*
X39708022Y7270377D01*
X39581359Y7129704D01*
X39486713Y6965772D01*
X39428219Y6785745D01*
X39408433Y6597487D01*
X35461671Y6597487D01*
X35475393Y6728047D01*
X35455607Y6916303D01*
X35404934Y7072258D01*
X35397112Y7096332D01*
X35302466Y7260264D01*
X35175803Y7400937D01*
X35022663Y7512199D01*
X34849735Y7589192D01*
X34664581Y7628547D01*
X34664579Y7628547D01*
X34475287Y7628547D01*
X34475285Y7628547D01*
X34290130Y7589192D01*
X34117202Y7512199D01*
X33964062Y7400937D01*
X33837399Y7260264D01*
X33742753Y7096332D01*
X33684259Y6916305D01*
X33664473Y6728047D01*
X30510862Y6728047D01*
X30523872Y6750581D01*
X30535297Y6785743D01*
X30582367Y6930609D01*
X30602153Y7118865D01*
X30582367Y7307121D01*
X30545974Y7419127D01*
X30523872Y7487150D01*
X30429226Y7651082D01*
X30302563Y7791755D01*
X30149423Y7903017D01*
X29976495Y7980010D01*
X29791341Y8019365D01*
X29791339Y8019365D01*
X29678894Y8019365D01*
X29611855Y8039050D01*
X29566100Y8091854D01*
X29556156Y8161012D01*
X29571507Y8205365D01*
X29590652Y8238526D01*
X29613792Y8309743D01*
X29649147Y8418554D01*
X29654196Y8466595D01*
X29680779Y8531207D01*
X29738076Y8571192D01*
X29807895Y8573852D01*
X29850401Y8553949D01*
X29955162Y8477836D01*
X30128090Y8400843D01*
X30313245Y8361487D01*
X30313247Y8361487D01*
X30502541Y8361487D01*
X30625977Y8387725D01*
X30687696Y8400843D01*
X30860623Y8477836D01*
X30877052Y8489772D01*
X31013763Y8589098D01*
X31070075Y8651638D01*
X31140426Y8729771D01*
X31235072Y8893703D01*
X31293567Y9073731D01*
X31313353Y9261987D01*
X31293567Y9450243D01*
X31259008Y9556603D01*
X31235072Y9630272D01*
X31140426Y9794204D01*
X31013763Y9934877D01*
X30860623Y10046139D01*
X30687695Y10123132D01*
X30502541Y10162487D01*
X30502539Y10162487D01*
X30313247Y10162487D01*
X30291163Y10157793D01*
X30240120Y10146944D01*
X30170453Y10152261D01*
X30114719Y10194399D01*
X30090615Y10259979D01*
X30096408Y10306550D01*
X30150567Y10473231D01*
X30170353Y10661487D01*
X30150567Y10849743D01*
X30107844Y10981231D01*
X30092072Y11029772D01*
X29997426Y11193704D01*
X29870332Y11334855D01*
X29840102Y11397846D01*
X29844550Y11456143D01*
X29887903Y11589568D01*
X35090433Y11589568D01*
X35110219Y11401311D01*
X35168713Y11221284D01*
X35263359Y11057352D01*
X35390022Y10916679D01*
X35543162Y10805417D01*
X35716090Y10728424D01*
X35901245Y10689068D01*
X35901247Y10689068D01*
X36090541Y10689068D01*
X36213977Y10715306D01*
X36275696Y10728424D01*
X36448623Y10805417D01*
X36448622Y10805418D01*
X36601763Y10916679D01*
X36691725Y11016591D01*
X36728426Y11057352D01*
X36823072Y11221284D01*
X36881567Y11401312D01*
X36901353Y11589568D01*
X36881567Y11777824D01*
X36844164Y11892938D01*
X36823072Y11957853D01*
X36728426Y12121785D01*
X36601763Y12262458D01*
X36448623Y12373720D01*
X36275695Y12450713D01*
X36090541Y12490068D01*
X36090539Y12490068D01*
X35901247Y12490068D01*
X35901245Y12490068D01*
X35716090Y12450713D01*
X35543162Y12373720D01*
X35390022Y12262458D01*
X35263359Y12121785D01*
X35168713Y11957853D01*
X35110219Y11777826D01*
X35090433Y11589568D01*
X29887903Y11589568D01*
X29896567Y11616231D01*
X29916353Y11804487D01*
X29896567Y11992743D01*
X29854639Y12121784D01*
X29838072Y12172772D01*
X29743426Y12336704D01*
X29616763Y12477377D01*
X29463623Y12588639D01*
X29290695Y12665632D01*
X29105541Y12704987D01*
X29105539Y12704987D01*
X28916247Y12704987D01*
X28916245Y12704987D01*
X28731090Y12665632D01*
X28558162Y12588639D01*
X28405021Y12477376D01*
X28368621Y12436950D01*
X28309134Y12400303D01*
X28239277Y12401634D01*
X28181230Y12440522D01*
X28169086Y12457924D01*
X28092426Y12590704D01*
X27965763Y12731377D01*
X27843113Y12820487D01*
X37757433Y12820487D01*
X37777219Y12632230D01*
X37835713Y12452203D01*
X37930359Y12288271D01*
X38057022Y12147598D01*
X38210161Y12036337D01*
X38210162Y12036337D01*
X38210163Y12036336D01*
X38237771Y12024044D01*
X38250908Y12018195D01*
X38304146Y11972946D01*
X38324468Y11906097D01*
X38305424Y11838873D01*
X38292624Y11821943D01*
X38184359Y11701704D01*
X38089713Y11537772D01*
X38031219Y11357745D01*
X38011433Y11169487D01*
X38031219Y10981230D01*
X38089713Y10801203D01*
X38184359Y10637271D01*
X38311022Y10496598D01*
X38464162Y10385336D01*
X38637090Y10308343D01*
X38822245Y10268987D01*
X38822247Y10268987D01*
X39011541Y10268987D01*
X39134977Y10295225D01*
X39196696Y10308343D01*
X39369623Y10385336D01*
X39481336Y10466500D01*
X39522763Y10496598D01*
X39556879Y10534487D01*
X42710433Y10534487D01*
X42714415Y10496599D01*
X42730219Y10346230D01*
X42788713Y10166203D01*
X42883359Y10002271D01*
X43010022Y9861598D01*
X43163162Y9750336D01*
X43336090Y9673343D01*
X43521245Y9633987D01*
X43521247Y9633987D01*
X43710541Y9633987D01*
X43849374Y9663497D01*
X43895696Y9673343D01*
X44068623Y9750336D01*
X44129001Y9794203D01*
X44221763Y9861598D01*
X44348426Y10002271D01*
X44443072Y10166203D01*
X44451251Y10191375D01*
X44501567Y10346231D01*
X44521353Y10534487D01*
X44501567Y10722743D01*
X44457968Y10856927D01*
X44443072Y10902772D01*
X44348426Y11066704D01*
X44221763Y11207377D01*
X44068623Y11318639D01*
X43895695Y11395632D01*
X43710541Y11434987D01*
X43710539Y11434987D01*
X43521247Y11434987D01*
X43521245Y11434987D01*
X43336090Y11395632D01*
X43163162Y11318639D01*
X43010022Y11207377D01*
X42883359Y11066704D01*
X42788713Y10902772D01*
X42730219Y10722745D01*
X42727466Y10696553D01*
X42710433Y10534487D01*
X39556879Y10534487D01*
X39556880Y10534488D01*
X39649426Y10637271D01*
X39744072Y10801203D01*
X39802567Y10981231D01*
X39822353Y11169487D01*
X39802567Y11357743D01*
X39762620Y11480687D01*
X39744072Y11537772D01*
X39649426Y11701704D01*
X39522763Y11842377D01*
X39369623Y11953639D01*
X39328876Y11971781D01*
X39275639Y12017031D01*
X39255318Y12083880D01*
X39274363Y12151104D01*
X39287157Y12168027D01*
X39395426Y12288271D01*
X39417020Y12325672D01*
X39490072Y12452203D01*
X39524730Y12558869D01*
X39564167Y12616544D01*
X39628526Y12643743D01*
X39697372Y12631829D01*
X39742125Y12594598D01*
X39768576Y12559067D01*
X39768577Y12559066D01*
X39768578Y12559065D01*
X39902168Y12446970D01*
X40058009Y12368704D01*
X40227698Y12328487D01*
X40227700Y12328487D01*
X40354749Y12328487D01*
X40358348Y12328487D01*
X40488104Y12343653D01*
X40651977Y12403298D01*
X40797677Y12499127D01*
X40917351Y12625974D01*
X41004546Y12777000D01*
X41054561Y12944064D01*
X41059614Y13030816D01*
X41595084Y13030816D01*
X41625366Y12859077D01*
X41694440Y12698948D01*
X41798576Y12559067D01*
X41798577Y12559066D01*
X41798578Y12559065D01*
X41932168Y12446970D01*
X42088009Y12368704D01*
X42257698Y12328487D01*
X42257700Y12328487D01*
X42384749Y12328487D01*
X42388348Y12328487D01*
X42518104Y12343653D01*
X42681977Y12403298D01*
X42827677Y12499127D01*
X42947351Y12625974D01*
X43034546Y12777000D01*
X43084561Y12944064D01*
X43094701Y13118158D01*
X43089225Y13149212D01*
X43075650Y13226205D01*
X43064419Y13289899D01*
X42995346Y13450026D01*
X42941019Y13523001D01*
X42891209Y13589908D01*
X42891208Y13589909D01*
X42757618Y13702004D01*
X42601777Y13780270D01*
X42432088Y13820487D01*
X42301438Y13820487D01*
X42297871Y13820071D01*
X42297869Y13820070D01*
X42171679Y13805321D01*
X42007809Y13745677D01*
X41862108Y13649847D01*
X41742435Y13523001D01*
X41655240Y13371975D01*
X41605225Y13204909D01*
X41595084Y13030816D01*
X41059614Y13030816D01*
X41064701Y13118158D01*
X41059225Y13149212D01*
X41045650Y13226205D01*
X41034419Y13289899D01*
X40965346Y13450026D01*
X40911019Y13523001D01*
X40861209Y13589908D01*
X40861208Y13589909D01*
X40727618Y13702004D01*
X40571777Y13780270D01*
X40402088Y13820487D01*
X40271438Y13820487D01*
X40267871Y13820071D01*
X40267869Y13820070D01*
X40141679Y13805321D01*
X39977809Y13745677D01*
X39832108Y13649847D01*
X39712435Y13523001D01*
X39617993Y13359422D01*
X39617182Y13359890D01*
X39587322Y13313965D01*
X39523612Y13285280D01*
X39454508Y13295592D01*
X39401948Y13341628D01*
X39399233Y13346110D01*
X39395426Y13352704D01*
X39268763Y13493377D01*
X39115623Y13604639D01*
X38942695Y13681632D01*
X38757541Y13720987D01*
X38757539Y13720987D01*
X38568247Y13720987D01*
X38568245Y13720987D01*
X38383090Y13681632D01*
X38210162Y13604639D01*
X38057022Y13493377D01*
X37930359Y13352704D01*
X37835713Y13188772D01*
X37777219Y13008745D01*
X37757433Y12820487D01*
X27843113Y12820487D01*
X27812623Y12842639D01*
X27639695Y12919632D01*
X27454541Y12958987D01*
X27454539Y12958987D01*
X27265247Y12958987D01*
X27265245Y12958987D01*
X27080090Y12919632D01*
X26907162Y12842639D01*
X26754022Y12731377D01*
X26627359Y12590704D01*
X26532713Y12426772D01*
X26474219Y12246745D01*
X26454433Y12058487D01*
X22057127Y12058487D01*
X22047967Y12145643D01*
X22001623Y12288274D01*
X21989472Y12325672D01*
X21894826Y12489604D01*
X21768163Y12630277D01*
X21615023Y12741539D01*
X21442095Y12818532D01*
X21256941Y12857887D01*
X21256939Y12857887D01*
X21067647Y12857887D01*
X21067645Y12857887D01*
X20882490Y12818532D01*
X20709562Y12741539D01*
X20556422Y12630277D01*
X20429759Y12489604D01*
X20335113Y12325672D01*
X20276619Y12145645D01*
X20256833Y11957387D01*
X9955312Y11957387D01*
X9955271Y11957852D01*
X9949591Y12022785D01*
X9949481Y12024044D01*
X9945265Y12043060D01*
X9944470Y12045245D01*
X9936993Y12087651D01*
X9936993Y12641766D01*
X9953606Y12703766D01*
X9963727Y12721295D01*
X10013672Y12807803D01*
X10072167Y12987831D01*
X10091953Y13176087D01*
X10072167Y13364343D01*
X10021851Y13519199D01*
X10013672Y13544372D01*
X9919026Y13708304D01*
X9792363Y13848977D01*
X9639223Y13960239D01*
X9526659Y14010356D01*
X10690494Y14010356D01*
X10710280Y13822099D01*
X10768774Y13642072D01*
X10863420Y13478140D01*
X10990083Y13337467D01*
X11143223Y13226205D01*
X11316151Y13149212D01*
X11501306Y13109856D01*
X11501308Y13109856D01*
X11690602Y13109856D01*
X11850803Y13143908D01*
X11875757Y13149212D01*
X12048684Y13226205D01*
X12201825Y13337468D01*
X12219289Y13356865D01*
X12278770Y13393512D01*
X12348627Y13392184D01*
X12361867Y13387174D01*
X12396005Y13371974D01*
X12510382Y13321049D01*
X12510383Y13321049D01*
X12510385Y13321048D01*
X12525776Y13317777D01*
X12587258Y13284585D01*
X12617928Y13234804D01*
X12654418Y13122498D01*
X12749064Y12958566D01*
X12875727Y12817893D01*
X13028867Y12706631D01*
X13201795Y12629638D01*
X13386950Y12590282D01*
X13386952Y12590282D01*
X13576246Y12590282D01*
X13699798Y12616544D01*
X13761401Y12629638D01*
X13934328Y12706631D01*
X14051606Y12791838D01*
X14087468Y12817893D01*
X14088043Y12818531D01*
X14214131Y12958566D01*
X14245692Y13013231D01*
X14300659Y13108437D01*
X14351226Y13156652D01*
X14419833Y13169876D01*
X14484697Y13143908D01*
X14525226Y13086994D01*
X14531367Y13059399D01*
X14536219Y13013230D01*
X14594713Y12833203D01*
X14689359Y12669271D01*
X14816022Y12528598D01*
X14969162Y12417336D01*
X15142090Y12340343D01*
X15327245Y12300987D01*
X15327247Y12300987D01*
X15516541Y12300987D01*
X15647884Y12328905D01*
X15701696Y12340343D01*
X15874623Y12417336D01*
X15887611Y12426772D01*
X16027763Y12528598D01*
X16081824Y12588638D01*
X16154426Y12669271D01*
X16249072Y12833203D01*
X16307567Y13013231D01*
X16327353Y13201487D01*
X16307567Y13389743D01*
X16265504Y13519199D01*
X16249072Y13569772D01*
X16154426Y13733704D01*
X16027763Y13874377D01*
X15874623Y13985639D01*
X15701695Y14062632D01*
X15516541Y14101987D01*
X15516539Y14101987D01*
X15327247Y14101987D01*
X15327245Y14101987D01*
X15142090Y14062632D01*
X14969162Y13985639D01*
X14816022Y13874377D01*
X14689359Y13733703D01*
X14602831Y13583833D01*
X14552264Y13535617D01*
X14483656Y13522395D01*
X14418792Y13548363D01*
X14378264Y13605277D01*
X14372124Y13632865D01*
X14367272Y13679038D01*
X14321312Y13820487D01*
X14308777Y13859067D01*
X14214131Y14022999D01*
X14087468Y14163672D01*
X14048358Y14192087D01*
X19393233Y14192087D01*
X19396220Y14163670D01*
X19413019Y14003830D01*
X19471513Y13823803D01*
X19566159Y13659871D01*
X19692822Y13519198D01*
X19845962Y13407936D01*
X20018890Y13330943D01*
X20204045Y13291587D01*
X20204047Y13291587D01*
X20393341Y13291587D01*
X20531948Y13321049D01*
X20578496Y13330943D01*
X20751423Y13407936D01*
X20904564Y13519199D01*
X21031226Y13659871D01*
X21125872Y13823803D01*
X21184367Y14003831D01*
X21204153Y14192087D01*
X21184367Y14380343D01*
X21154025Y14473724D01*
X21125872Y14560372D01*
X21031226Y14724304D01*
X20904563Y14864977D01*
X20751423Y14976239D01*
X20578495Y15053232D01*
X20393341Y15092587D01*
X20393339Y15092587D01*
X20204047Y15092587D01*
X20204045Y15092587D01*
X20018890Y15053232D01*
X19845962Y14976239D01*
X19692822Y14864977D01*
X19566159Y14724304D01*
X19471513Y14560372D01*
X19413019Y14380345D01*
X19413018Y14380343D01*
X19413019Y14380343D01*
X19393233Y14192087D01*
X14048358Y14192087D01*
X13934328Y14274934D01*
X13761401Y14351927D01*
X13746006Y14355199D01*
X13684524Y14388392D01*
X13653857Y14438171D01*
X13617367Y14550477D01*
X13522721Y14714409D01*
X13396058Y14855082D01*
X13242918Y14966344D01*
X13069990Y15043337D01*
X12884836Y15082692D01*
X12884834Y15082692D01*
X12695542Y15082692D01*
X12695540Y15082692D01*
X12510385Y15043337D01*
X12337457Y14966344D01*
X12184316Y14855080D01*
X12166851Y14835684D01*
X12107363Y14799037D01*
X12037507Y14800368D01*
X12024267Y14805379D01*
X11875756Y14871501D01*
X11690602Y14910856D01*
X11690600Y14910856D01*
X11501308Y14910856D01*
X11501306Y14910856D01*
X11316151Y14871501D01*
X11143223Y14794508D01*
X10990083Y14683246D01*
X10863420Y14542573D01*
X10768774Y14378641D01*
X10710280Y14198614D01*
X10690494Y14010356D01*
X9526659Y14010356D01*
X9466295Y14037232D01*
X9281141Y14076587D01*
X9281139Y14076587D01*
X9091847Y14076587D01*
X9091845Y14076587D01*
X8906690Y14037232D01*
X8733762Y13960239D01*
X8580622Y13848977D01*
X8453959Y13708304D01*
X8359313Y13544372D01*
X8300819Y13364345D01*
X8281033Y13176087D01*
X8300819Y12987830D01*
X8359313Y12807803D01*
X8419380Y12703766D01*
X8435993Y12641766D01*
X8435993Y11956793D01*
X8434684Y11938823D01*
X8433243Y11928987D01*
X8431204Y11915064D01*
X8431639Y11910086D01*
X8435521Y11865719D01*
X8435993Y11854912D01*
X8435993Y11849378D01*
X8435809Y11855698D01*
X8420071Y11787717D01*
X8370012Y11738973D01*
X8301547Y11725032D01*
X8236414Y11750318D01*
X8230835Y11754875D01*
X8145228Y11829055D01*
X8014353Y11888825D01*
X7949006Y11908013D01*
X7949004Y11908014D01*
X7947313Y11908510D01*
X7947309Y11908511D01*
X7944183Y11908961D01*
X7944170Y11908963D01*
X7804893Y11928987D01*
X7190626Y11928987D01*
X7123587Y11948672D01*
X7077832Y12001476D01*
X7067305Y12040025D01*
X7066862Y12044242D01*
X7050918Y12195943D01*
X7005182Y12336704D01*
X6992423Y12375972D01*
X6897777Y12539904D01*
X6771114Y12680577D01*
X6617974Y12791839D01*
X6445046Y12868832D01*
X6259892Y12908187D01*
X6259890Y12908187D01*
X6070598Y12908187D01*
X6070596Y12908187D01*
X5885441Y12868832D01*
X5712513Y12791839D01*
X5559373Y12680577D01*
X5432710Y12539904D01*
X5338064Y12375972D01*
X5279570Y12195945D01*
X5274489Y12147599D01*
X5263732Y12045245D01*
X5263183Y12040025D01*
X5236598Y11975411D01*
X5179301Y11935426D01*
X5139862Y11928987D01*
X4496893Y11928987D01*
X4493599Y11928633D01*
X4493583Y11928632D01*
X4392747Y11917790D01*
X4392744Y11917790D01*
X4389437Y11917434D01*
X4386202Y11916731D01*
X4386188Y11916728D01*
X4341170Y11906934D01*
X4341165Y11906933D01*
X4337926Y11906228D01*
X4334786Y11905184D01*
X4334768Y11905178D01*
X4235389Y11872102D01*
X4114351Y11794314D01*
X4061542Y11748554D01*
X3955651Y11626350D01*
X3955612Y11626384D01*
X3921642Y11587182D01*
X3854607Y11567500D01*
X3827342Y11567500D01*
X3823158Y11566925D01*
X3823144Y11566924D01*
X3715079Y11552070D01*
X3576280Y11491781D01*
X3458892Y11396279D01*
X3371621Y11272646D01*
X3320946Y11130058D01*
X3310618Y10979078D01*
X3341407Y10830917D01*
X3341407Y10830916D01*
X3341408Y10830915D01*
X3411029Y10696553D01*
X3418020Y10689068D01*
X3514321Y10585955D01*
X3598955Y10534488D01*
X3643618Y10507328D01*
X3776849Y10469999D01*
X3836090Y10432958D01*
X3865902Y10369768D01*
X3867393Y10350598D01*
X3867393Y7681128D01*
X3847708Y7614089D01*
X3794904Y7568334D01*
X3760279Y7558283D01*
X3715079Y7552070D01*
X3576280Y7491781D01*
X3458892Y7396279D01*
X3371621Y7272646D01*
X3320946Y7130058D01*
X3310618Y6979078D01*
X3341407Y6830917D01*
X3341407Y6830916D01*
X3341408Y6830915D01*
X3411029Y6696553D01*
X3447690Y6657299D01*
X3514321Y6585955D01*
X3643616Y6507329D01*
X3643618Y6507328D01*
X3776849Y6469999D01*
X3836090Y6432958D01*
X3865902Y6369768D01*
X3867393Y6350599D01*
X3867393Y4308487D01*
X3867747Y4305193D01*
X3867748Y4305178D01*
X3869646Y4287530D01*
X3878946Y4201031D01*
X3879650Y4197794D01*
X3879652Y4197783D01*
X3882545Y4184487D01*
X3890152Y4149520D01*
X3891198Y4146377D01*
X3891202Y4146363D01*
X3924278Y4046984D01*
X4002066Y3925946D01*
X4002068Y3925944D01*
X4047823Y3873140D01*
X4156557Y3778920D01*
X4287434Y3719149D01*
X4354473Y3699464D01*
X4354477Y3699463D01*
X4496893Y3678987D01*
X7054704Y3678987D01*
X7121743Y3659302D01*
X7167498Y3606498D01*
X7177442Y3537340D01*
X7148417Y3473784D01*
X7142385Y3467306D01*
X6443969Y2768892D01*
X6382646Y2735407D01*
X6367097Y2733045D01*
X6241592Y2722064D01*
X6013336Y2660903D01*
X5799170Y2561035D01*
X5605598Y2425495D01*
X5438505Y2258402D01*
X5308575Y2072841D01*
X5253998Y2029216D01*
X5184500Y2022022D01*
X5122145Y2053545D01*
X5105425Y2072841D01*
X5032700Y2176703D01*
X4975495Y2258401D01*
X4808401Y2425495D01*
X4614830Y2561035D01*
X4400663Y2660903D01*
X4339502Y2677291D01*
X4172407Y2722064D01*
X3936999Y2742660D01*
X3701592Y2722064D01*
X3473336Y2660903D01*
X3259170Y2561035D01*
X3065598Y2425495D01*
X2898505Y2258402D01*
X2762965Y2064830D01*
X2663097Y1850664D01*
X2601936Y1622408D01*
X2581340Y1387000D01*
X2601936Y1151593D01*
X2627496Y1056202D01*
X2663097Y923337D01*
X2762965Y709170D01*
X2898505Y515599D01*
X3065599Y348505D01*
X3240449Y226074D01*
X3284072Y171498D01*
X3291265Y101999D01*
X3259743Y39645D01*
X3199513Y4231D01*
X3169324Y500D01*
X124500Y500D01*
X57461Y20185D01*
X11706Y72989D01*
X500Y124500D01*
X500Y3676487D01*
X419433Y3676487D01*
X439219Y3488230D01*
X497713Y3308203D01*
X592359Y3144271D01*
X719022Y3003598D01*
X872162Y2892336D01*
X1045090Y2815343D01*
X1230245Y2775987D01*
X1230247Y2775987D01*
X1419541Y2775987D01*
X1542976Y2802225D01*
X1604696Y2815343D01*
X1777623Y2892336D01*
X1837497Y2935837D01*
X1930763Y3003598D01*
X2057426Y3144271D01*
X2152072Y3308203D01*
X2160315Y3333572D01*
X2210567Y3488231D01*
X2230353Y3676487D01*
X2210567Y3864743D01*
X2152072Y4044771D01*
X2152072Y4044772D01*
X2057426Y4208704D01*
X1930763Y4349377D01*
X1777623Y4460639D01*
X1604695Y4537632D01*
X1419541Y4576987D01*
X1419539Y4576987D01*
X1230247Y4576987D01*
X1230245Y4576987D01*
X1045090Y4537632D01*
X872162Y4460639D01*
X719022Y4349377D01*
X592359Y4208704D01*
X497713Y4044772D01*
X439219Y3864745D01*
X419433Y3676487D01*
X500Y3676487D01*
X500Y5780254D01*
X20185Y5847293D01*
X72989Y5893048D01*
X142147Y5902992D01*
X205703Y5873967D01*
X237780Y5830689D01*
X284078Y5726700D01*
X398429Y5569309D01*
X543007Y5439130D01*
X711492Y5341856D01*
X896514Y5281739D01*
X896515Y5281739D01*
X896518Y5281738D01*
X1041496Y5266500D01*
X1044738Y5266500D01*
X1985262Y5266500D01*
X1988504Y5266500D01*
X2133482Y5281738D01*
X2318508Y5341856D01*
X2486992Y5439130D01*
X2631569Y5569308D01*
X2677546Y5632589D01*
X2725150Y5698111D01*
X2745922Y5726701D01*
X2825051Y5904429D01*
X2829339Y5924599D01*
X2865500Y6094725D01*
X2865500Y6289276D01*
X2825052Y6479569D01*
X2745921Y6657301D01*
X2631570Y6814692D01*
X2486992Y6944871D01*
X2318507Y7042145D01*
X2133485Y7102262D01*
X1991724Y7117162D01*
X1991715Y7117163D01*
X1988504Y7117500D01*
X1041496Y7117500D01*
X1038285Y7117163D01*
X1038275Y7117162D01*
X896514Y7102262D01*
X711492Y7042145D01*
X543007Y6944871D01*
X398429Y6814692D01*
X284078Y6657301D01*
X237780Y6553312D01*
X192529Y6500074D01*
X125680Y6479753D01*
X58457Y6498798D01*
X12201Y6551164D01*
X500Y6603747D01*
X500Y11413648D01*
X20185Y11480687D01*
X72989Y11526442D01*
X142147Y11536386D01*
X205703Y11507361D01*
X240781Y11456714D01*
X262113Y11399114D01*
X369745Y11226432D01*
X369748Y11226429D01*
X509941Y11078947D01*
X676951Y10962705D01*
X863942Y10882460D01*
X1063259Y10841500D01*
X1063261Y10841500D01*
X1912600Y10841500D01*
X1915742Y10841500D01*
X2067438Y10856926D01*
X2261588Y10917841D01*
X2439502Y11016591D01*
X2593895Y11149134D01*
X2718448Y11310042D01*
X2808060Y11492729D01*
X2859063Y11689715D01*
X2869369Y11892936D01*
X2868692Y11897353D01*
X2838556Y12094072D01*
X2767886Y12284887D01*
X2660254Y12457569D01*
X2629361Y12490068D01*
X2520059Y12605053D01*
X2353049Y12721295D01*
X2166058Y12801540D01*
X1966741Y12842500D01*
X1114258Y12842500D01*
X1111147Y12842184D01*
X1111134Y12842183D01*
X962559Y12827074D01*
X768412Y12766159D01*
X590500Y12667411D01*
X547245Y12630277D01*
X441973Y12539903D01*
X436104Y12534865D01*
X311551Y12373958D01*
X235828Y12219584D01*
X188631Y12168065D01*
X121073Y12150240D01*
X54604Y12171770D01*
X10325Y12225818D01*
X500Y12274193D01*
X500Y17909500D01*
X20185Y17976539D01*
X72989Y18022294D01*
X124500Y18033500D01*
X3198367Y18033500D01*
X3265406Y18013815D01*
G37*
%TD.AperFunction*%
%TD*%
%TA.AperFunction,Conductor*%
%TO.N,VBUS*%
G36*
X5491349Y11403802D02*
G01*
X5516458Y11382461D01*
X5556989Y11337447D01*
X5559374Y11334798D01*
X5712513Y11223536D01*
X5885441Y11146543D01*
X6070596Y11107187D01*
X6070598Y11107187D01*
X6259892Y11107187D01*
X6383328Y11133425D01*
X6445047Y11146543D01*
X6617974Y11223536D01*
X6771115Y11334799D01*
X6814028Y11382460D01*
X6873514Y11419108D01*
X6906178Y11423487D01*
X7804893Y11423487D01*
X7871932Y11403802D01*
X7917687Y11350998D01*
X7928893Y11299487D01*
X7928893Y10381826D01*
X7909208Y10314787D01*
X7877779Y10281508D01*
X7753720Y10191375D01*
X7627059Y10050704D01*
X7532413Y9886772D01*
X7473919Y9706745D01*
X7454133Y9518487D01*
X7473919Y9330230D01*
X7532413Y9150203D01*
X7627059Y8986271D01*
X7753722Y8845598D01*
X7877778Y8755467D01*
X7920444Y8700138D01*
X7928893Y8655149D01*
X7928893Y6428187D01*
X7909208Y6361148D01*
X7856404Y6315393D01*
X7821407Y6307780D01*
X7821595Y6306897D01*
X7623690Y6264832D01*
X7450762Y6187839D01*
X7297622Y6076577D01*
X7170959Y5935904D01*
X7076313Y5771972D01*
X7017819Y5591945D01*
X6998033Y5403687D01*
X7017819Y5215430D01*
X7076313Y5035403D01*
X7170959Y4871471D01*
X7297622Y4730798D01*
X7450762Y4619536D01*
X7623690Y4542543D01*
X7821595Y4500477D01*
X7821155Y4498412D01*
X7871932Y4483502D01*
X7917687Y4430698D01*
X7928893Y4379187D01*
X7928893Y4308487D01*
X7909208Y4241448D01*
X7856404Y4195693D01*
X7804893Y4184487D01*
X4496893Y4184487D01*
X4429854Y4204172D01*
X4384099Y4256976D01*
X4372893Y4308487D01*
X4372893Y6780818D01*
X4380053Y6822344D01*
X4390832Y6852671D01*
X4409054Y6903944D01*
X4419381Y7054921D01*
X4389933Y7196630D01*
X4388592Y7203086D01*
X4386795Y7206554D01*
X4372893Y7263601D01*
X4372893Y7384888D01*
X5067633Y7384888D01*
X5087419Y7196630D01*
X5145913Y7016603D01*
X5240559Y6852671D01*
X5367222Y6711998D01*
X5520362Y6600736D01*
X5693290Y6523743D01*
X5878445Y6484387D01*
X5878447Y6484387D01*
X6067741Y6484387D01*
X6191176Y6510625D01*
X6252896Y6523743D01*
X6425823Y6600736D01*
X6476730Y6637722D01*
X6578963Y6711998D01*
X6705626Y6852671D01*
X6800272Y7016603D01*
X6837135Y7130056D01*
X6858767Y7196631D01*
X6878553Y7384887D01*
X6858767Y7573143D01*
X6800272Y7753171D01*
X6800272Y7753172D01*
X6705626Y7917104D01*
X6674784Y7951357D01*
X6644554Y8014348D01*
X6653179Y8083683D01*
X6694047Y8134646D01*
X6756764Y8180212D01*
X6883426Y8320884D01*
X6978072Y8484816D01*
X7036567Y8664844D01*
X7056353Y8853100D01*
X7036567Y9041356D01*
X6978072Y9221384D01*
X6944229Y9280002D01*
X6927757Y9347900D01*
X6944230Y9404001D01*
X6978072Y9462616D01*
X7036567Y9642644D01*
X7056353Y9830900D01*
X7036567Y10019156D01*
X7006225Y10112537D01*
X6978072Y10199185D01*
X6883426Y10363117D01*
X6756763Y10503790D01*
X6603623Y10615052D01*
X6430695Y10692045D01*
X6245541Y10731400D01*
X6245539Y10731400D01*
X6056247Y10731400D01*
X6056245Y10731400D01*
X5871090Y10692045D01*
X5698162Y10615052D01*
X5545022Y10503790D01*
X5418359Y10363117D01*
X5323713Y10199185D01*
X5265219Y10019158D01*
X5245433Y9830900D01*
X5265219Y9642643D01*
X5323713Y9462616D01*
X5357555Y9404001D01*
X5374028Y9336101D01*
X5357556Y9280002D01*
X5323713Y9221384D01*
X5265219Y9041358D01*
X5265218Y9041356D01*
X5265219Y9041356D01*
X5245433Y8853100D01*
X5255325Y8758973D01*
X5265219Y8664843D01*
X5323713Y8484816D01*
X5418359Y8320884D01*
X5449201Y8286631D01*
X5479431Y8223640D01*
X5470806Y8154304D01*
X5429937Y8103342D01*
X5367223Y8057778D01*
X5240559Y7917104D01*
X5145913Y7753172D01*
X5087419Y7573145D01*
X5067633Y7384888D01*
X4372893Y7384888D01*
X4372893Y10780818D01*
X4380053Y10822344D01*
X4409054Y10903944D01*
X4419381Y11054923D01*
X4388592Y11203086D01*
X4386795Y11206554D01*
X4372893Y11263601D01*
X4372893Y11299487D01*
X4392578Y11366526D01*
X4445382Y11412281D01*
X4496893Y11423487D01*
X5424310Y11423487D01*
X5491349Y11403802D01*
G37*
%TD.AperFunction*%
%TD*%
M02*
