%TF.GenerationSoftware,KiCad,Pcbnew,7.0.2-0*%
%TF.CreationDate,2023-05-15T20:56:50-04:00*%
%TF.ProjectId,mini_arduino_clone,6d696e69-5f61-4726-9475-696e6f5f636c,A*%
%TF.SameCoordinates,Original*%
%TF.FileFunction,Copper,L4,Bot*%
%TF.FilePolarity,Positive*%
%FSLAX46Y46*%
G04 Gerber Fmt 4.6, Leading zero omitted, Abs format (unit mm)*
G04 Created by KiCad (PCBNEW 7.0.2-0) date 2023-05-15 20:56:50*
%MOMM*%
%LPD*%
G01*
G04 APERTURE LIST*
%TA.AperFunction,ComponentPad*%
%ADD10O,1.700000X1.000000*%
%TD*%
%TA.AperFunction,ComponentPad*%
%ADD11O,1.700000X0.850000*%
%TD*%
%TA.AperFunction,ComponentPad*%
%ADD12R,1.700000X1.700000*%
%TD*%
%TA.AperFunction,ComponentPad*%
%ADD13O,1.700000X1.700000*%
%TD*%
%TA.AperFunction,ViaPad*%
%ADD14C,0.800000*%
%TD*%
%TA.AperFunction,Conductor*%
%ADD15C,0.200000*%
%TD*%
%TA.AperFunction,Conductor*%
%ADD16C,0.246888*%
%TD*%
G04 APERTURE END LIST*
D10*
%TO.P,J101,6,Shield*%
%TO.N,unconnected-(J101-Shield-Pad6)*%
X1515000Y11842000D03*
D11*
X1515000Y6192000D03*
%TD*%
D12*
%TO.P,J103,1,Pin_1*%
%TO.N,/D5*%
X39497000Y16627000D03*
D13*
%TO.P,J103,2,Pin_2*%
%TO.N,/D6*%
X36957000Y16627000D03*
%TO.P,J103,3,Pin_3*%
%TO.N,/D7*%
X34417000Y16627000D03*
%TO.P,J103,4,Pin_4*%
%TO.N,/D8*%
X31877000Y16627000D03*
%TO.P,J103,5,Pin_5*%
%TO.N,/D9*%
X29337000Y16627000D03*
%TO.P,J103,6,Pin_6*%
%TO.N,/D10*%
X26797000Y16627000D03*
%TO.P,J103,7,Pin_7*%
%TO.N,/D11{slash}MOSI*%
X24257000Y16627000D03*
%TO.P,J103,8,Pin_8*%
%TO.N,/D12{slash}MISO*%
X21717000Y16627000D03*
%TO.P,J103,9,Pin_9*%
%TO.N,/D4*%
X19177000Y16627000D03*
%TO.P,J103,10,Pin_10*%
%TO.N,/D3*%
X16637000Y16627000D03*
%TO.P,J103,11,Pin_11*%
%TO.N,/D2*%
X14097000Y16627000D03*
%TO.P,J103,12,Pin_12*%
%TO.N,GND*%
X11557000Y16627000D03*
%TO.P,J103,13,Pin_13*%
%TO.N,/~{RESET}*%
X9017000Y16627000D03*
%TO.P,J103,14,Pin_14*%
%TO.N,/D0{slash}RX*%
X6477000Y16627000D03*
%TO.P,J103,15,Pin_15*%
%TO.N,/D1{slash}TX*%
X3937000Y16627000D03*
%TD*%
D12*
%TO.P,J104,1,Pin_1*%
%TO.N,/D13{slash}SCK*%
X39497000Y1387000D03*
D13*
%TO.P,J104,2,Pin_2*%
%TO.N,GND*%
X36957000Y1387000D03*
%TO.P,J104,3,Pin_3*%
%TO.N,/~{RESET}*%
X34417000Y1387000D03*
%TO.P,J104,4,Pin_4*%
%TO.N,+5V*%
X31877000Y1387000D03*
%TO.P,J104,5,Pin_5*%
%TO.N,/A7*%
X29337000Y1387000D03*
%TO.P,J104,6,Pin_6*%
%TO.N,/A6*%
X26797000Y1387000D03*
%TO.P,J104,7,Pin_7*%
%TO.N,/A5{slash}SCL*%
X24257000Y1387000D03*
%TO.P,J104,8,Pin_8*%
%TO.N,/A4{slash}~{SDA}*%
X21717000Y1387000D03*
%TO.P,J104,9,Pin_9*%
%TO.N,/A3*%
X19177000Y1387000D03*
%TO.P,J104,10,Pin_10*%
%TO.N,/A2*%
X16637000Y1387000D03*
%TO.P,J104,11,Pin_11*%
%TO.N,/A1*%
X14097000Y1387000D03*
%TO.P,J104,12,Pin_12*%
%TO.N,/A0*%
X11557000Y1387000D03*
%TO.P,J104,13,Pin_13*%
%TO.N,GND*%
X9017000Y1387000D03*
%TO.P,J104,14,Pin_14*%
%TO.N,+3V3*%
X6477000Y1387000D03*
%TO.P,J104,15,Pin_15*%
%TO.N,VBUS*%
X3937000Y1387000D03*
%TD*%
D14*
%TO.N,GND*%
X20826150Y3719987D03*
X1324893Y3676487D03*
X7903493Y5403687D03*
X21162293Y11957387D03*
X16539493Y4641687D03*
X43920693Y1644487D03*
X20298693Y14192087D03*
X13135893Y9518487D03*
X29696693Y7118865D03*
X35995893Y11589568D03*
X10468893Y6597487D03*
X34569933Y6728047D03*
X40313893Y6597487D03*
X43920693Y16325687D03*
X5973093Y7384887D03*
X35437093Y4336887D03*
X34268693Y2965287D03*
X38662893Y12820487D03*
X6165244Y12007687D03*
%TO.N,VBUS*%
X6023893Y10915487D03*
X6023893Y5962487D03*
%TO.N,+5V*%
X30661893Y7994487D03*
X1324893Y17138487D03*
X25200893Y14725487D03*
X39043893Y9010487D03*
X18088893Y13836487D03*
X13770893Y5962487D03*
X13770893Y5200487D03*
X42345893Y2787487D03*
%TO.N,/~{RESET}*%
X8359593Y9518487D03*
X15421893Y13201487D03*
X26666994Y8339403D03*
X11595954Y14010356D03*
%TO.N,+3V3*%
X21173993Y4819487D03*
%TO.N,/USB_UART/VBUS*%
X9325893Y5454487D03*
X9186493Y13176087D03*
%TO.N,/D_P*%
X6150893Y8853100D03*
X13481598Y13490782D03*
%TO.N,/D_N*%
X12790188Y14182192D03*
X6150893Y9830900D03*
%TO.N,/D12{slash}MISO*%
X43170393Y7867487D03*
X27359893Y12058487D03*
%TO.N,/D13{slash}SCK*%
X43615893Y10534487D03*
X30484771Y14929365D03*
%TO.N,/D11{slash}MOSI*%
X29264893Y10661487D03*
X38916893Y11169487D03*
%TO.N,/D2*%
X26851893Y9518487D03*
%TO.N,/D3*%
X28763473Y8606810D03*
%TO.N,/D4*%
X30407893Y9261987D03*
%TO.N,/D10*%
X29010893Y11804487D03*
%TO.N,/A7*%
X25200893Y8121487D03*
%TO.N,/A6*%
X25806813Y7220390D03*
%TO.N,/A1*%
X21173993Y6028513D03*
%TO.N,/A0*%
X20456621Y6724487D03*
%TO.N,/D0{slash}RX*%
X24350993Y4184487D03*
X16844293Y9924887D03*
%TO.N,/D1{slash}TX*%
X18977893Y6826087D03*
X24882710Y3332892D03*
%TD*%
D15*
%TO.N,/A1*%
X21173993Y6028513D02*
X20580619Y6028513D01*
X14504006Y1387000D02*
X14097000Y1387000D01*
X20580619Y6028513D02*
X17771393Y3219287D01*
X17771393Y3219287D02*
X16336293Y3219287D01*
X16336293Y3219287D02*
X14504006Y1387000D01*
%TO.N,/D13{slash}SCK*%
X30484771Y14929365D02*
X32466649Y12947487D01*
X32466649Y12947487D02*
X36884893Y12947487D01*
X36884893Y12947487D02*
X37773893Y12058487D01*
X37773893Y12058487D02*
X42091893Y12058487D01*
X42091893Y12058487D02*
X43615893Y10534487D01*
%TO.N,/~{RESET}*%
X8359593Y11041387D02*
X8359593Y9518487D01*
X34130624Y1387000D02*
X34417000Y1387000D01*
X16520979Y13201487D02*
X15421893Y13201487D01*
X26666994Y8339403D02*
X26087188Y8919209D01*
X11328562Y14010356D02*
X8359593Y11041387D01*
X20803257Y8919209D02*
X16520979Y13201487D01*
X27178221Y8339403D02*
X34130624Y1387000D01*
X26666994Y8339403D02*
X27178221Y8339403D01*
X11595954Y14010356D02*
X11328562Y14010356D01*
X26087188Y8919209D02*
X20803257Y8919209D01*
D16*
%TO.N,/D_P*%
X13090487Y13490782D02*
X13080653Y13480948D01*
X10529252Y9941144D02*
X10529251Y9941144D01*
X7001424Y9129656D02*
X6427449Y9129656D01*
X10213252Y8708551D02*
X10213254Y8708549D01*
X13481598Y13490782D02*
X13090487Y13490782D01*
X13080653Y13480948D02*
X12689544Y13480948D01*
X10028345Y9810055D02*
X10213252Y9625148D01*
X9413849Y7909143D02*
X8221937Y7909143D01*
X11570237Y10065531D02*
X11445848Y9941144D01*
X12689544Y13480948D02*
X11570237Y12361641D01*
X11570237Y12361641D02*
X11570237Y10065531D01*
X10028345Y9810056D02*
X10028345Y9810055D01*
X10213254Y8708549D02*
X9413849Y7909143D01*
X8221937Y7909143D02*
X7001424Y9129656D01*
X10213253Y8708551D02*
X10213252Y8708551D01*
X6427449Y9129656D02*
X6150893Y8853100D01*
X10529251Y9941144D02*
X10344343Y10126052D01*
X10529253Y9941145D02*
G75*
G03*
X11445847Y9941145I458297J458298D01*
G01*
X10213215Y8708589D02*
G75*
G03*
X10213252Y9625148I-458222J458298D01*
G01*
X10344343Y10126052D02*
G75*
G03*
X10028345Y10126052I-157999J-158000D01*
G01*
X10028313Y10126084D02*
G75*
G03*
X10028346Y9810057I157980J-157997D01*
G01*
%TO.N,/D_N*%
X9728046Y9509754D02*
X9912953Y9324847D01*
X11145549Y12537553D02*
X11145549Y10241443D01*
X9912953Y9008849D02*
X9912954Y9008849D01*
X9728046Y9509755D02*
X9728046Y9509754D01*
X9912954Y9008849D02*
X9237937Y8333831D01*
X9237937Y8333831D02*
X8397849Y8333831D01*
X10829551Y10241443D02*
X10644643Y10426351D01*
X12790188Y14182192D02*
X11145549Y12537553D01*
X8397849Y8333831D02*
X7177336Y9554344D01*
X6427449Y9554344D02*
X6150893Y9830900D01*
X9728046Y10426352D02*
X9728046Y10426351D01*
X7177336Y9554344D02*
X6427449Y9554344D01*
X10644692Y10426400D02*
G75*
G03*
X9728046Y10426352I-458299J-458313D01*
G01*
X10829551Y10241443D02*
G75*
G03*
X11145549Y10241443I157999J158000D01*
G01*
X9912914Y9008888D02*
G75*
G03*
X9912953Y9324847I-157921J157999D01*
G01*
X9728013Y10426384D02*
G75*
G03*
X9728047Y9509756I458380J-458297D01*
G01*
D15*
%TO.N,/D12{slash}MISO*%
X27359893Y11576537D02*
X27359893Y12058487D01*
X27359893Y12058487D02*
X25581893Y12058487D01*
X21717000Y15923380D02*
X21717000Y16627000D01*
X28974943Y9961487D02*
X27359893Y11576537D01*
X43170393Y9328987D02*
X42537893Y9961487D01*
X43170393Y7867487D02*
X43170393Y9328987D01*
X42537893Y9961487D02*
X28974943Y9961487D01*
X25581893Y12058487D02*
X21717000Y15923380D01*
%TO.N,/D13{slash}SCK*%
X43869893Y10280487D02*
X43869893Y5962487D01*
X43615893Y10534487D02*
X43869893Y10280487D01*
X43869893Y5962487D02*
X39497000Y1589594D01*
X39497000Y1589594D02*
X39497000Y1387000D01*
%TO.N,/D11{slash}MOSI*%
X29264893Y10661487D02*
X29163943Y10661487D01*
X28310893Y13139487D02*
X24823380Y16627000D01*
X38916893Y11169487D02*
X38408893Y10661487D01*
X24823380Y16627000D02*
X24257000Y16627000D01*
X29163943Y10661487D02*
X28310893Y11514537D01*
X28310893Y11514537D02*
X28310893Y13139487D01*
X38408893Y10661487D02*
X29264893Y10661487D01*
%TO.N,/D2*%
X26851893Y9518487D02*
X21205513Y9518487D01*
X21205513Y9518487D02*
X14097000Y16627000D01*
%TO.N,/D3*%
X21655443Y12656887D02*
X20607113Y12656887D01*
X26708796Y10661487D02*
X23650843Y10661487D01*
X28763473Y8606810D02*
X26708796Y10661487D01*
X20607113Y12656887D02*
X16637000Y16627000D01*
X23650843Y10661487D02*
X21655443Y12656887D01*
%TO.N,/D4*%
X26974013Y11296487D02*
X24507513Y11296487D01*
X24507513Y11296487D02*
X19177000Y16627000D01*
X30407893Y9261987D02*
X29008513Y9261987D01*
X29008513Y9261987D02*
X26974013Y11296487D01*
%TO.N,/D10*%
X29518893Y13963487D02*
X26855380Y16627000D01*
X26855380Y16627000D02*
X26797000Y16627000D01*
X29518893Y12312487D02*
X29518893Y13963487D01*
X29010893Y11804487D02*
X29518893Y12312487D01*
%TO.N,/A7*%
X29141380Y1387000D02*
X29337000Y1387000D01*
X25895666Y8121487D02*
X26506813Y7510340D01*
X25200893Y8121487D02*
X25895666Y8121487D01*
X26506813Y7510340D02*
X26506813Y4021567D01*
X26506813Y4021567D02*
X29141380Y1387000D01*
%TO.N,/A6*%
X25708893Y7122470D02*
X25708893Y2475107D01*
X25708893Y2475107D02*
X26797000Y1387000D01*
X25806813Y7220390D02*
X25708893Y7122470D01*
%TO.N,/A0*%
X17561021Y3828887D02*
X13998887Y3828887D01*
X13998887Y3828887D02*
X11557000Y1387000D01*
X20456621Y6724487D02*
X17561021Y3828887D01*
%TO.N,/D0{slash}RX*%
X14659893Y14039687D02*
X13288293Y15411287D01*
X16844293Y9924887D02*
X14659893Y12109287D01*
X13288293Y15411287D02*
X7692713Y15411287D01*
X24350993Y4184487D02*
X23168893Y4184487D01*
X23168893Y4184487D02*
X22273993Y5079387D01*
X22273993Y5079387D02*
X22273993Y6484149D01*
X22273993Y6484149D02*
X18833255Y9924887D01*
X18833255Y9924887D02*
X16844293Y9924887D01*
X7692713Y15411287D02*
X6477000Y16627000D01*
X14659893Y12109287D02*
X14659893Y14039687D01*
%TO.N,/D1{slash}TX*%
X14181598Y11597632D02*
X14181598Y13806782D01*
X24882710Y3332892D02*
X23385488Y3332892D01*
X18977893Y6826087D02*
X18953143Y6826087D01*
X5660713Y14903287D02*
X3937000Y16627000D01*
X23385488Y3332892D02*
X21873993Y4844387D01*
X21873993Y4844387D02*
X21873993Y6318463D01*
X13085093Y14903287D02*
X5660713Y14903287D01*
X20578969Y7613487D02*
X19765293Y7613487D01*
X21873993Y6318463D02*
X20578969Y7613487D01*
X14181598Y13806782D02*
X13085093Y14903287D01*
X19765293Y7613487D02*
X18977893Y6826087D01*
X18953143Y6826087D02*
X14181598Y11597632D01*
%TD*%
%TA.AperFunction,Conductor*%
%TO.N,GND*%
G36*
X710157Y18013815D02*
G01*
X755912Y17961011D01*
X765856Y17891853D01*
X736831Y17828297D01*
X722014Y17814700D01*
X592359Y17670704D01*
X497713Y17506772D01*
X439219Y17326745D01*
X419433Y17138487D01*
X439219Y16950230D01*
X497713Y16770203D01*
X592359Y16606271D01*
X719022Y16465598D01*
X872162Y16354336D01*
X1045090Y16277343D01*
X1230245Y16237987D01*
X1230247Y16237987D01*
X1419541Y16237987D01*
X1542977Y16264225D01*
X1604696Y16277343D01*
X1777623Y16354336D01*
X1930764Y16465599D01*
X2057426Y16606271D01*
X2152072Y16770203D01*
X2210567Y16950231D01*
X2230353Y17138487D01*
X2210567Y17326743D01*
X2180225Y17420124D01*
X2152072Y17506772D01*
X2057426Y17670704D01*
X1922043Y17821061D01*
X1923565Y17822433D01*
X1891118Y17864510D01*
X1885137Y17934123D01*
X1917742Y17995918D01*
X1978580Y18030277D01*
X2006668Y18033500D01*
X3198367Y18033500D01*
X3265406Y18013815D01*
X3311161Y17961011D01*
X3321105Y17891853D01*
X3292080Y17828297D01*
X3266724Y17809161D01*
X3268057Y17807257D01*
X3065598Y17665495D01*
X2898505Y17498402D01*
X2762965Y17304830D01*
X2663097Y17090664D01*
X2601936Y16862408D01*
X2581340Y16627000D01*
X2601936Y16391593D01*
X2643095Y16237987D01*
X2663097Y16163337D01*
X2762965Y15949170D01*
X2898505Y15755599D01*
X3065599Y15588505D01*
X3259170Y15452965D01*
X3473337Y15353097D01*
X3701592Y15291937D01*
X3936999Y15271341D01*
X3936999Y15271342D01*
X3937000Y15271341D01*
X4172408Y15291937D01*
X4300756Y15326328D01*
X4370606Y15324665D01*
X4420531Y15294234D01*
X5202512Y14512253D01*
X5213207Y14500058D01*
X5232430Y14475005D01*
X5327149Y14402325D01*
X5333895Y14397149D01*
X5357872Y14378751D01*
X5503951Y14318243D01*
X5629411Y14301726D01*
X5660712Y14297605D01*
X5660712Y14297606D01*
X5660713Y14297605D01*
X5692015Y14301727D01*
X5708200Y14302787D01*
X8976252Y14302787D01*
X9043291Y14283102D01*
X9089046Y14230298D01*
X9098990Y14161140D01*
X9069965Y14097584D01*
X9011187Y14059810D01*
X9002033Y14057497D01*
X8906689Y14037232D01*
X8733762Y13960239D01*
X8580622Y13848977D01*
X8453959Y13708304D01*
X8359313Y13544372D01*
X8300819Y13364345D01*
X8281033Y13176087D01*
X8300819Y12987830D01*
X8359313Y12807803D01*
X8453959Y12643871D01*
X8580622Y12503198D01*
X8689945Y12423771D01*
X8732611Y12368441D01*
X8738590Y12298828D01*
X8705985Y12237033D01*
X8704741Y12235772D01*
X7968558Y11499589D01*
X7956367Y11488897D01*
X7931311Y11469670D01*
X7874995Y11396278D01*
X7835056Y11344229D01*
X7774549Y11198150D01*
X7753910Y11041388D01*
X7758032Y11010086D01*
X7759093Y10993900D01*
X7759093Y10244940D01*
X7739408Y10177901D01*
X7727242Y10161967D01*
X7674710Y10103625D01*
X7615224Y10066977D01*
X7545367Y10068308D01*
X7506563Y10088617D01*
X7497474Y10095667D01*
X7497473Y10095668D01*
X7470173Y10107482D01*
X7457499Y10112967D01*
X7447015Y10118103D01*
X7408852Y10139083D01*
X7389516Y10144048D01*
X7371112Y10150350D01*
X7352796Y10158276D01*
X7309778Y10165089D01*
X7298343Y10167457D01*
X7256158Y10178288D01*
X7236200Y10178288D01*
X7216801Y10179815D01*
X7197091Y10182937D01*
X7197090Y10182937D01*
X7164064Y10179815D01*
X7153728Y10178838D01*
X7142059Y10178288D01*
X7061728Y10178288D01*
X6994689Y10197973D01*
X6954341Y10240288D01*
X6883428Y10363114D01*
X6865278Y10383271D01*
X6859235Y10389983D01*
X6829006Y10452973D01*
X6837631Y10522308D01*
X6843992Y10534942D01*
X6851072Y10547203D01*
X6909567Y10727231D01*
X6929353Y10915487D01*
X6909567Y11103743D01*
X6854687Y11272646D01*
X6851072Y11283772D01*
X6756426Y11447704D01*
X6629763Y11588377D01*
X6476623Y11699639D01*
X6303695Y11776632D01*
X6118541Y11815987D01*
X6118539Y11815987D01*
X5929247Y11815987D01*
X5929245Y11815987D01*
X5744090Y11776632D01*
X5571162Y11699639D01*
X5418022Y11588377D01*
X5291359Y11447704D01*
X5196713Y11283772D01*
X5138219Y11103745D01*
X5118433Y10915487D01*
X5138219Y10727230D01*
X5196713Y10547203D01*
X5291357Y10383274D01*
X5315549Y10356407D01*
X5345779Y10293415D01*
X5337154Y10224080D01*
X5330786Y10211434D01*
X5323713Y10199185D01*
X5265219Y10019158D01*
X5245433Y9830900D01*
X5265219Y9642643D01*
X5323713Y9462616D01*
X5357555Y9404001D01*
X5374028Y9336101D01*
X5357556Y9280002D01*
X5323713Y9221384D01*
X5265219Y9041358D01*
X5249700Y8893703D01*
X5245433Y8853100D01*
X5249931Y8810307D01*
X5265219Y8664843D01*
X5323713Y8484816D01*
X5418359Y8320884D01*
X5545022Y8180211D01*
X5698162Y8068949D01*
X5871090Y7991956D01*
X6056245Y7952600D01*
X6056247Y7952600D01*
X6245541Y7952600D01*
X6368977Y7978838D01*
X6430696Y7991956D01*
X6603623Y8068949D01*
X6756764Y8180212D01*
X6817019Y8247133D01*
X6876504Y8283780D01*
X6946361Y8282451D01*
X6996849Y8251841D01*
X7722352Y7526338D01*
X7735230Y7510264D01*
X7786259Y7462345D01*
X7789056Y7459634D01*
X7808499Y7440191D01*
X7811646Y7437750D01*
X7820528Y7430165D01*
X7852277Y7400350D01*
X7869771Y7390733D01*
X7886018Y7380061D01*
X7901799Y7367820D01*
X7941774Y7350522D01*
X7952241Y7345394D01*
X7990422Y7324404D01*
X8009757Y7319440D01*
X8028165Y7313137D01*
X8046475Y7305213D01*
X8046476Y7305213D01*
X8046478Y7305212D01*
X8089501Y7298399D01*
X8100920Y7296034D01*
X8143115Y7285199D01*
X8163073Y7285199D01*
X8182471Y7283673D01*
X8202183Y7280550D01*
X8245544Y7284649D01*
X8257214Y7285199D01*
X9331275Y7285199D01*
X9351744Y7282940D01*
X9354661Y7283032D01*
X9354665Y7283031D01*
X9421707Y7285139D01*
X9425602Y7285199D01*
X9449205Y7285199D01*
X9453104Y7285199D01*
X9457051Y7285698D01*
X9468701Y7286616D01*
X9512231Y7287983D01*
X9531390Y7293550D01*
X9550444Y7297497D01*
X9570251Y7299998D01*
X9610757Y7316036D01*
X9621780Y7319810D01*
X9663616Y7331964D01*
X9680794Y7342124D01*
X9698270Y7350685D01*
X9716825Y7358031D01*
X9752084Y7383650D01*
X9761798Y7390031D01*
X9799309Y7412213D01*
X9813422Y7426327D01*
X9828210Y7438958D01*
X9844363Y7450692D01*
X9872127Y7484255D01*
X9879979Y7492885D01*
X10604457Y8217364D01*
X10622436Y8232237D01*
X10629155Y8236802D01*
X10629156Y8236804D01*
X10631575Y8238447D01*
X10641895Y8247838D01*
X10643765Y8250099D01*
X10643767Y8250100D01*
X10671514Y8283643D01*
X10679380Y8292287D01*
X10682207Y8295112D01*
X10682382Y8295339D01*
X10682764Y8295746D01*
X10725171Y8338145D01*
X10842876Y8500127D01*
X10933791Y8678528D01*
X10995676Y8868956D01*
X11018100Y9010488D01*
X11021207Y9030098D01*
X11051139Y9093231D01*
X11110453Y9130160D01*
X11124278Y9133167D01*
X11173457Y9140956D01*
X11285425Y9158689D01*
X11290232Y9160251D01*
X11475857Y9220564D01*
X11654262Y9311466D01*
X11816251Y9429157D01*
X11816255Y9429161D01*
X11850723Y9463629D01*
X11887042Y9499949D01*
X11887043Y9499948D01*
X11940614Y9553519D01*
X11940614Y9553521D01*
X11953040Y9565948D01*
X11969118Y9578827D01*
X11971113Y9580953D01*
X11971115Y9580953D01*
X12017043Y9629863D01*
X12019691Y9632597D01*
X12039186Y9652090D01*
X12041617Y9655225D01*
X12049213Y9664122D01*
X12079030Y9695871D01*
X12088649Y9713370D01*
X12099322Y9729616D01*
X12111558Y9745389D01*
X12128860Y9785375D01*
X12133985Y9795836D01*
X12154976Y9834016D01*
X12159938Y9853344D01*
X12166241Y9871753D01*
X12174167Y9890067D01*
X12180980Y9933092D01*
X12183347Y9944518D01*
X12194181Y9986709D01*
X12194181Y10006662D01*
X12195708Y10026062D01*
X12196225Y10029328D01*
X12198830Y10045771D01*
X12194731Y10089138D01*
X12194181Y10100806D01*
X12194181Y12051834D01*
X12213866Y12118873D01*
X12230500Y12139515D01*
X12514756Y12423771D01*
X12820043Y12729059D01*
X12881364Y12762542D01*
X12951055Y12757558D01*
X12980607Y12741694D01*
X13028868Y12706631D01*
X13201795Y12629638D01*
X13386950Y12590282D01*
X13457098Y12590282D01*
X13524137Y12570597D01*
X13569892Y12517793D01*
X13581098Y12466282D01*
X13581098Y11645121D01*
X13580037Y11628936D01*
X13575915Y11597633D01*
X13592763Y11469669D01*
X13596554Y11440869D01*
X13657062Y11294791D01*
X13753314Y11169351D01*
X13778366Y11150129D01*
X13790562Y11139433D01*
X18037686Y6892309D01*
X18071171Y6830986D01*
X18073326Y6817590D01*
X18092219Y6637830D01*
X18150713Y6457803D01*
X18245359Y6293871D01*
X18372022Y6153198D01*
X18525158Y6041938D01*
X18562756Y6025199D01*
X18636886Y5992194D01*
X18690122Y5946943D01*
X18710443Y5880094D01*
X18691398Y5812870D01*
X18674130Y5791233D01*
X17348605Y4465706D01*
X17287282Y4432221D01*
X17260924Y4429387D01*
X14566843Y4429387D01*
X14499804Y4449072D01*
X14454049Y4501876D01*
X14444105Y4571034D01*
X14473130Y4634590D01*
X14474693Y4636359D01*
X14503426Y4668271D01*
X14598072Y4832203D01*
X14627771Y4923608D01*
X14656567Y5012231D01*
X14676353Y5200487D01*
X14656567Y5388743D01*
X14606389Y5543172D01*
X14604395Y5613010D01*
X14606383Y5619785D01*
X14656567Y5774231D01*
X14676353Y5962487D01*
X14656567Y6150743D01*
X14610062Y6293871D01*
X14598072Y6330772D01*
X14503426Y6494704D01*
X14376763Y6635377D01*
X14223623Y6746639D01*
X14050695Y6823632D01*
X13865541Y6862987D01*
X13865539Y6862987D01*
X13676247Y6862987D01*
X13676245Y6862987D01*
X13491090Y6823632D01*
X13318162Y6746639D01*
X13165022Y6635377D01*
X13038359Y6494704D01*
X12943713Y6330772D01*
X12885219Y6150745D01*
X12865433Y5962487D01*
X12885219Y5774230D01*
X12935395Y5619805D01*
X12937390Y5549964D01*
X12935395Y5543169D01*
X12885219Y5388745D01*
X12865433Y5200488D01*
X12885219Y5012230D01*
X12943713Y4832203D01*
X13038359Y4668271D01*
X13165022Y4527598D01*
X13318160Y4416337D01*
X13373957Y4391495D01*
X13443216Y4360659D01*
X13496452Y4315409D01*
X13516774Y4248560D01*
X13497729Y4181336D01*
X13480461Y4159698D01*
X12040530Y2719767D01*
X11979207Y2686282D01*
X11920756Y2687673D01*
X11792406Y2722064D01*
X11556999Y2742660D01*
X11321592Y2722064D01*
X11093336Y2660903D01*
X10879170Y2561035D01*
X10685598Y2425495D01*
X10518508Y2258405D01*
X10518507Y2258403D01*
X10518505Y2258401D01*
X10426623Y2127179D01*
X10388269Y2072404D01*
X10333692Y2028780D01*
X10264193Y2021587D01*
X10201839Y2053109D01*
X10185119Y2072405D01*
X10055109Y2258079D01*
X9888081Y2425107D01*
X9694576Y2560601D01*
X9480492Y2660431D01*
X9267000Y2717636D01*
X9267000Y1822502D01*
X9159315Y1871680D01*
X9052763Y1887000D01*
X8981237Y1887000D01*
X8874685Y1871680D01*
X8767000Y1822502D01*
X8767000Y2717636D01*
X8766999Y2717636D01*
X8553507Y2660431D01*
X8339421Y2560600D01*
X8145921Y2425110D01*
X7978893Y2258082D01*
X7848880Y2072404D01*
X7794303Y2028780D01*
X7724804Y2021587D01*
X7662450Y2053109D01*
X7645730Y2072405D01*
X7515495Y2258401D01*
X7348401Y2425495D01*
X7154830Y2561035D01*
X6940663Y2660903D01*
X6879501Y2677291D01*
X6712407Y2722064D01*
X6477000Y2742660D01*
X6241592Y2722064D01*
X6013336Y2660903D01*
X5799170Y2561035D01*
X5605598Y2425495D01*
X5438505Y2258402D01*
X5308575Y2072841D01*
X5253998Y2029216D01*
X5184500Y2022022D01*
X5122145Y2053545D01*
X5105425Y2072841D01*
X5081831Y2106537D01*
X4975495Y2258401D01*
X4808401Y2425495D01*
X4614830Y2561035D01*
X4400663Y2660903D01*
X4339502Y2677291D01*
X4172407Y2722064D01*
X3936999Y2742660D01*
X3701592Y2722064D01*
X3473336Y2660903D01*
X3259170Y2561035D01*
X3065598Y2425495D01*
X2898505Y2258402D01*
X2762965Y2064830D01*
X2663097Y1850664D01*
X2601936Y1622408D01*
X2581340Y1387000D01*
X2601936Y1151593D01*
X2627496Y1056202D01*
X2663097Y923337D01*
X2762965Y709170D01*
X2898505Y515599D01*
X3065599Y348505D01*
X3240449Y226074D01*
X3284072Y171498D01*
X3291265Y101999D01*
X3259743Y39645D01*
X3199513Y4231D01*
X3169324Y500D01*
X124500Y500D01*
X57461Y20185D01*
X11706Y72989D01*
X500Y124500D01*
X500Y5780254D01*
X20185Y5847293D01*
X72989Y5893048D01*
X142147Y5902992D01*
X205703Y5873967D01*
X237780Y5830689D01*
X284078Y5726700D01*
X398429Y5569309D01*
X543007Y5439130D01*
X711492Y5341856D01*
X896514Y5281739D01*
X896515Y5281739D01*
X896518Y5281738D01*
X1041496Y5266500D01*
X1044738Y5266500D01*
X1985262Y5266500D01*
X1988504Y5266500D01*
X2133482Y5281738D01*
X2318508Y5341856D01*
X2486992Y5439130D01*
X2631569Y5569308D01*
X2649657Y5594203D01*
X2745921Y5726700D01*
X2745920Y5726700D01*
X2745922Y5726701D01*
X2825051Y5904429D01*
X2837392Y5962486D01*
X2837392Y5962487D01*
X5118433Y5962487D01*
X5138219Y5774230D01*
X5196713Y5594203D01*
X5291359Y5430271D01*
X5418022Y5289598D01*
X5571162Y5178336D01*
X5744090Y5101343D01*
X5929245Y5061987D01*
X5929247Y5061987D01*
X6118541Y5061987D01*
X6241977Y5088225D01*
X6303696Y5101343D01*
X6476623Y5178336D01*
X6597971Y5266500D01*
X6629763Y5289598D01*
X6676817Y5341856D01*
X6756426Y5430271D01*
X6770407Y5454487D01*
X8420433Y5454487D01*
X8440219Y5266230D01*
X8498713Y5086203D01*
X8593359Y4922271D01*
X8720022Y4781598D01*
X8873162Y4670336D01*
X9046090Y4593343D01*
X9231245Y4553987D01*
X9231247Y4553987D01*
X9420541Y4553987D01*
X9543977Y4580225D01*
X9605696Y4593343D01*
X9778623Y4670336D01*
X9931764Y4781599D01*
X10058426Y4922271D01*
X10153072Y5086203D01*
X10211567Y5266231D01*
X10231353Y5454487D01*
X10211567Y5642743D01*
X10166887Y5780254D01*
X10153072Y5822772D01*
X10058426Y5986704D01*
X9931763Y6127377D01*
X9778623Y6238639D01*
X9605695Y6315632D01*
X9420541Y6354987D01*
X9420539Y6354987D01*
X9231247Y6354987D01*
X9231245Y6354987D01*
X9046090Y6315632D01*
X8873162Y6238639D01*
X8720022Y6127377D01*
X8593359Y5986704D01*
X8498713Y5822772D01*
X8440219Y5642745D01*
X8420433Y5454487D01*
X6770407Y5454487D01*
X6851072Y5594203D01*
X6909567Y5774231D01*
X6929353Y5962487D01*
X6909567Y6150743D01*
X6863062Y6293871D01*
X6851072Y6330772D01*
X6756426Y6494704D01*
X6629763Y6635377D01*
X6476623Y6746639D01*
X6303695Y6823632D01*
X6118541Y6862987D01*
X6118539Y6862987D01*
X5929247Y6862987D01*
X5929245Y6862987D01*
X5744090Y6823632D01*
X5571162Y6746639D01*
X5418022Y6635377D01*
X5291359Y6494704D01*
X5196713Y6330772D01*
X5138219Y6150745D01*
X5118433Y5962487D01*
X2837392Y5962487D01*
X2865500Y6094725D01*
X2865500Y6289276D01*
X2825052Y6479569D01*
X2745921Y6657301D01*
X2631570Y6814692D01*
X2486992Y6944871D01*
X2427743Y6979078D01*
X3310618Y6979078D01*
X3341407Y6830917D01*
X3341407Y6830916D01*
X3341408Y6830915D01*
X3411029Y6696553D01*
X3514320Y6585956D01*
X3514321Y6585955D01*
X3557419Y6559747D01*
X3643618Y6507328D01*
X3789335Y6466500D01*
X3789337Y6466500D01*
X3898421Y6466500D01*
X3902658Y6466500D01*
X4014920Y6481930D01*
X4153720Y6542220D01*
X4271108Y6637722D01*
X4358377Y6761353D01*
X4367489Y6786990D01*
X4380511Y6823632D01*
X4409054Y6903944D01*
X4419381Y7054921D01*
X4413476Y7083336D01*
X4398855Y7153698D01*
X4388592Y7203085D01*
X4318971Y7337447D01*
X4215680Y7448044D01*
X4215679Y7448045D01*
X4215678Y7448046D01*
X4116651Y7508265D01*
X4086382Y7526672D01*
X3940665Y7567500D01*
X3827342Y7567500D01*
X3823158Y7566925D01*
X3823144Y7566924D01*
X3715079Y7552070D01*
X3576280Y7491781D01*
X3458892Y7396279D01*
X3371621Y7272646D01*
X3320946Y7130058D01*
X3310618Y6979078D01*
X2427743Y6979078D01*
X2318507Y7042145D01*
X2133485Y7102262D01*
X1991724Y7117162D01*
X1991715Y7117163D01*
X1988504Y7117500D01*
X1041496Y7117500D01*
X1038285Y7117163D01*
X1038275Y7117162D01*
X896514Y7102262D01*
X711492Y7042145D01*
X543007Y6944871D01*
X398429Y6814692D01*
X284078Y6657301D01*
X237780Y6553312D01*
X192529Y6500074D01*
X125680Y6479753D01*
X58457Y6498798D01*
X12201Y6551164D01*
X500Y6603747D01*
X500Y11413648D01*
X20185Y11480687D01*
X72989Y11526442D01*
X142147Y11536386D01*
X205703Y11507361D01*
X240781Y11456714D01*
X262113Y11399114D01*
X369745Y11226432D01*
X369748Y11226429D01*
X509941Y11078947D01*
X676951Y10962705D01*
X863942Y10882460D01*
X1063259Y10841500D01*
X1063261Y10841500D01*
X1912600Y10841500D01*
X1915742Y10841500D01*
X2067438Y10856926D01*
X2261588Y10917841D01*
X2371916Y10979078D01*
X3310618Y10979078D01*
X3341407Y10830917D01*
X3341407Y10830916D01*
X3341408Y10830915D01*
X3411029Y10696553D01*
X3514320Y10585956D01*
X3514321Y10585955D01*
X3545214Y10567169D01*
X3643618Y10507328D01*
X3789335Y10466500D01*
X3789337Y10466500D01*
X3898421Y10466500D01*
X3902658Y10466500D01*
X4014920Y10481930D01*
X4153720Y10542220D01*
X4271108Y10637722D01*
X4358377Y10761353D01*
X4409054Y10903944D01*
X4419381Y11054921D01*
X4419152Y11056021D01*
X4389618Y11198149D01*
X4388592Y11203085D01*
X4318971Y11337447D01*
X4215680Y11448044D01*
X4215679Y11448045D01*
X4215678Y11448046D01*
X4129341Y11500548D01*
X4086382Y11526672D01*
X3940665Y11567500D01*
X3827342Y11567500D01*
X3823158Y11566925D01*
X3823144Y11566924D01*
X3715079Y11552070D01*
X3576280Y11491781D01*
X3458892Y11396279D01*
X3371621Y11272646D01*
X3320946Y11130058D01*
X3310618Y10979078D01*
X2371916Y10979078D01*
X2439502Y11016591D01*
X2593895Y11149134D01*
X2718448Y11310042D01*
X2808060Y11492729D01*
X2859063Y11689715D01*
X2869369Y11892936D01*
X2868748Y11896987D01*
X2838556Y12094072D01*
X2767886Y12284887D01*
X2660254Y12457569D01*
X2653803Y12464356D01*
X2520059Y12605053D01*
X2353049Y12721295D01*
X2166058Y12801540D01*
X1966741Y12842500D01*
X1114258Y12842500D01*
X1111147Y12842184D01*
X1111134Y12842183D01*
X962559Y12827074D01*
X768412Y12766159D01*
X590500Y12667411D01*
X436104Y12534865D01*
X311551Y12373958D01*
X235828Y12219584D01*
X188631Y12168065D01*
X121073Y12150240D01*
X54604Y12171770D01*
X10325Y12225818D01*
X500Y12274193D01*
X500Y17909500D01*
X20185Y17976539D01*
X72989Y18022294D01*
X124500Y18033500D01*
X643118Y18033500D01*
X710157Y18013815D01*
G37*
%TD.AperFunction*%
%TA.AperFunction,Conductor*%
G36*
X45027539Y18013815D02*
G01*
X45073294Y17961011D01*
X45084500Y17909500D01*
X45084500Y124500D01*
X45064815Y57461D01*
X45012011Y11706D01*
X44960500Y500D01*
X40818303Y500D01*
X40751264Y20185D01*
X40705509Y72989D01*
X40695565Y142147D01*
X40719035Y198810D01*
X40790796Y294669D01*
X40841091Y429517D01*
X40847500Y489127D01*
X40847499Y2039499D01*
X40867184Y2106537D01*
X40883813Y2127174D01*
X41291548Y2534909D01*
X41352869Y2568392D01*
X41422561Y2563408D01*
X41478494Y2521536D01*
X41497158Y2485544D01*
X41518713Y2419203D01*
X41613359Y2255271D01*
X41740022Y2114598D01*
X41893162Y2003336D01*
X42066090Y1926343D01*
X42251245Y1886987D01*
X42251247Y1886987D01*
X42440541Y1886987D01*
X42563976Y1913225D01*
X42625696Y1926343D01*
X42798623Y2003336D01*
X42798623Y2003337D01*
X42951763Y2114598D01*
X43078426Y2255271D01*
X43173072Y2419203D01*
X43186191Y2459578D01*
X43231567Y2599231D01*
X43251353Y2787487D01*
X43231567Y2975743D01*
X43195502Y3086740D01*
X43173072Y3155772D01*
X43078426Y3319704D01*
X42951763Y3460377D01*
X42798625Y3571638D01*
X42676909Y3625829D01*
X42637998Y3643154D01*
X42584761Y3688404D01*
X42564440Y3755253D01*
X42583485Y3822476D01*
X42600749Y3844110D01*
X44260936Y5504297D01*
X44273116Y5514978D01*
X44298175Y5534205D01*
X44394429Y5659646D01*
X44454937Y5805725D01*
X44462119Y5860277D01*
X44475576Y5962487D01*
X44471451Y5993813D01*
X44470392Y6009968D01*
X44470392Y10230651D01*
X44476462Y10268970D01*
X44501566Y10346229D01*
X44501567Y10346231D01*
X44521353Y10534487D01*
X44501567Y10722743D01*
X44456415Y10861706D01*
X44443072Y10902772D01*
X44348426Y11066704D01*
X44221763Y11207377D01*
X44068623Y11318639D01*
X43895695Y11395632D01*
X43710541Y11434987D01*
X43710539Y11434987D01*
X43615991Y11434987D01*
X43548952Y11454672D01*
X43528310Y11471306D01*
X43139577Y11860039D01*
X42737937Y12261678D01*
X42704453Y12323000D01*
X42709437Y12392691D01*
X42751309Y12448625D01*
X42757444Y12452935D01*
X42827677Y12499127D01*
X42947351Y12625974D01*
X43034546Y12777000D01*
X43084561Y12944064D01*
X43094701Y13118158D01*
X43092797Y13128954D01*
X43066681Y13277072D01*
X43064419Y13289899D01*
X42995346Y13450026D01*
X42926557Y13542427D01*
X42891209Y13589908D01*
X42843013Y13630349D01*
X42757618Y13702004D01*
X42601777Y13780270D01*
X42432088Y13820487D01*
X42301438Y13820487D01*
X42297871Y13820071D01*
X42297869Y13820070D01*
X42171679Y13805321D01*
X42007809Y13745677D01*
X41862108Y13649847D01*
X41742435Y13523001D01*
X41655240Y13371975D01*
X41605225Y13204909D01*
X41595084Y13030816D01*
X41625366Y12859077D01*
X41625367Y12859075D01*
X41632457Y12842638D01*
X41637003Y12832101D01*
X41645481Y12762748D01*
X41615118Y12699820D01*
X41555554Y12663298D01*
X41523144Y12658987D01*
X41135776Y12658987D01*
X41068737Y12678672D01*
X41022982Y12731476D01*
X41013038Y12800634D01*
X41016985Y12818550D01*
X41024196Y12842638D01*
X41054561Y12944064D01*
X41064701Y13118158D01*
X41062797Y13128954D01*
X41036681Y13277072D01*
X41034419Y13289899D01*
X40965346Y13450026D01*
X40896557Y13542427D01*
X40861209Y13589908D01*
X40813013Y13630349D01*
X40727618Y13702004D01*
X40571777Y13780270D01*
X40402088Y13820487D01*
X40271438Y13820487D01*
X40267871Y13820071D01*
X40267869Y13820070D01*
X40141679Y13805321D01*
X39977809Y13745677D01*
X39832108Y13649847D01*
X39712435Y13523001D01*
X39625240Y13371975D01*
X39575225Y13204909D01*
X39565084Y13030816D01*
X39595366Y12859077D01*
X39595367Y12859075D01*
X39602457Y12842638D01*
X39607003Y12832101D01*
X39615481Y12762748D01*
X39585118Y12699820D01*
X39525554Y12663298D01*
X39493144Y12658987D01*
X38073990Y12658987D01*
X38006951Y12678672D01*
X37986309Y12695306D01*
X37343092Y13338523D01*
X37332396Y13350719D01*
X37313174Y13375771D01*
X37187733Y13472024D01*
X37041655Y13532531D01*
X36966487Y13542427D01*
X36884893Y13553170D01*
X36857056Y13549505D01*
X36853590Y13549048D01*
X36837406Y13547987D01*
X32766746Y13547987D01*
X32699707Y13567672D01*
X32679065Y13584306D01*
X31426705Y14836666D01*
X31393220Y14897989D01*
X31392208Y14916468D01*
X31391593Y14916403D01*
X31390231Y14929365D01*
X31370445Y15117621D01*
X31353119Y15170942D01*
X31351125Y15240782D01*
X31387205Y15300615D01*
X31449906Y15331443D01*
X31503141Y15329035D01*
X31641592Y15291937D01*
X31877000Y15271341D01*
X32112408Y15291937D01*
X32340663Y15353097D01*
X32554830Y15452965D01*
X32748401Y15588505D01*
X32915495Y15755599D01*
X33045426Y15941161D01*
X33100002Y15984784D01*
X33169500Y15991978D01*
X33231855Y15960455D01*
X33248571Y15941163D01*
X33378505Y15755599D01*
X33545599Y15588505D01*
X33739170Y15452965D01*
X33953337Y15353097D01*
X34181592Y15291937D01*
X34416999Y15271341D01*
X34416999Y15271342D01*
X34417000Y15271341D01*
X34652408Y15291937D01*
X34880663Y15353097D01*
X35094830Y15452965D01*
X35288401Y15588505D01*
X35455495Y15755599D01*
X35585426Y15941161D01*
X35640002Y15984784D01*
X35709500Y15991978D01*
X35771855Y15960455D01*
X35788571Y15941163D01*
X35918505Y15755599D01*
X36085599Y15588505D01*
X36279170Y15452965D01*
X36493337Y15353097D01*
X36721592Y15291937D01*
X36957000Y15271341D01*
X37192408Y15291937D01*
X37420663Y15353097D01*
X37634830Y15452965D01*
X37828401Y15588505D01*
X37950329Y15710434D01*
X38011648Y15743916D01*
X38081340Y15738932D01*
X38137274Y15697061D01*
X38154189Y15666084D01*
X38203204Y15534669D01*
X38289454Y15419454D01*
X38404669Y15333204D01*
X38539517Y15282909D01*
X38599127Y15276500D01*
X40394872Y15276501D01*
X40454483Y15282909D01*
X40589331Y15333204D01*
X40704546Y15419454D01*
X40790796Y15534669D01*
X40841091Y15669517D01*
X40847500Y15729127D01*
X40847499Y17524872D01*
X40841091Y17584483D01*
X40790796Y17719331D01*
X40704546Y17834546D01*
X40704065Y17835189D01*
X40679648Y17900654D01*
X40694500Y17968927D01*
X40743905Y18018332D01*
X40803332Y18033500D01*
X44960500Y18033500D01*
X45027539Y18013815D01*
G37*
%TD.AperFunction*%
%TA.AperFunction,Conductor*%
G36*
X38107303Y9341302D02*
G01*
X38153058Y9288498D01*
X38163002Y9219340D01*
X38158225Y9198800D01*
X38138433Y9010488D01*
X38158219Y8822230D01*
X38216713Y8642203D01*
X38311359Y8478271D01*
X38438022Y8337598D01*
X38591162Y8226336D01*
X38764090Y8149343D01*
X38949245Y8109987D01*
X38949247Y8109987D01*
X39138541Y8109987D01*
X39273478Y8138669D01*
X39323696Y8149343D01*
X39496623Y8226336D01*
X39513401Y8238526D01*
X39649763Y8337598D01*
X39660048Y8349020D01*
X39776426Y8478271D01*
X39871072Y8642203D01*
X39929567Y8822231D01*
X39949353Y9010487D01*
X39929567Y9198743D01*
X39929565Y9198747D01*
X39928204Y9211705D01*
X39929215Y9211812D01*
X39927597Y9268513D01*
X39963679Y9328345D01*
X40026380Y9359171D01*
X40047522Y9360987D01*
X42237796Y9360987D01*
X42304835Y9341302D01*
X42325477Y9324668D01*
X42533574Y9116571D01*
X42567059Y9055248D01*
X42569893Y9028890D01*
X42569893Y8593940D01*
X42550208Y8526901D01*
X42538043Y8510968D01*
X42437859Y8399704D01*
X42343213Y8235772D01*
X42303497Y8113537D01*
X42264059Y8055861D01*
X42199701Y8028663D01*
X42130854Y8040578D01*
X42079379Y8087822D01*
X42063450Y8130323D01*
X42062092Y8138024D01*
X42049419Y8209899D01*
X41980346Y8370026D01*
X41926019Y8443001D01*
X41876209Y8509908D01*
X41874946Y8510968D01*
X41742618Y8622004D01*
X41586777Y8700270D01*
X41417088Y8740487D01*
X41286438Y8740487D01*
X41282871Y8740071D01*
X41282869Y8740070D01*
X41156679Y8725321D01*
X40992809Y8665677D01*
X40847108Y8569847D01*
X40727435Y8443001D01*
X40640240Y8291975D01*
X40620384Y8225650D01*
X40607540Y8182745D01*
X40590225Y8124909D01*
X40580084Y7950816D01*
X40610366Y7779077D01*
X40679440Y7618948D01*
X40783576Y7479067D01*
X40783577Y7479066D01*
X40783578Y7479065D01*
X40917168Y7366970D01*
X41073009Y7288704D01*
X41242698Y7248487D01*
X41242700Y7248487D01*
X41369749Y7248487D01*
X41373348Y7248487D01*
X41503104Y7263653D01*
X41666977Y7323298D01*
X41812677Y7419127D01*
X41932351Y7545974D01*
X42019546Y7697000D01*
X42036991Y7755274D01*
X42075073Y7813849D01*
X42138781Y7842539D01*
X42207886Y7832231D01*
X42260448Y7786199D01*
X42279102Y7732673D01*
X42284719Y7679230D01*
X42343213Y7499203D01*
X42437859Y7335271D01*
X42564522Y7194598D01*
X42717662Y7083336D01*
X42890590Y7006343D01*
X43075745Y6966987D01*
X43145393Y6966987D01*
X43212432Y6947302D01*
X43258187Y6894498D01*
X43269393Y6842987D01*
X43269393Y6262585D01*
X43249708Y6195546D01*
X43233074Y6174904D01*
X39831988Y2773819D01*
X39770665Y2740334D01*
X39744307Y2737500D01*
X38602439Y2737500D01*
X38602420Y2737500D01*
X38599128Y2737499D01*
X38595848Y2737147D01*
X38595840Y2737146D01*
X38539515Y2731091D01*
X38404669Y2680796D01*
X38289454Y2594546D01*
X38203204Y2479331D01*
X38153997Y2347401D01*
X38112125Y2291468D01*
X38046661Y2267051D01*
X37978388Y2281903D01*
X37950134Y2303054D01*
X37828081Y2425107D01*
X37634576Y2560601D01*
X37420492Y2660431D01*
X37207000Y2717636D01*
X37207000Y1822502D01*
X37099315Y1871680D01*
X36992763Y1887000D01*
X36921237Y1887000D01*
X36814685Y1871680D01*
X36707000Y1822502D01*
X36707000Y2717636D01*
X36706999Y2717636D01*
X36493507Y2660431D01*
X36279421Y2560600D01*
X36085921Y2425110D01*
X35918893Y2258082D01*
X35788880Y2072404D01*
X35734303Y2028780D01*
X35664804Y2021587D01*
X35602450Y2053109D01*
X35585730Y2072405D01*
X35455495Y2258401D01*
X35288401Y2425495D01*
X35094830Y2561035D01*
X34880663Y2660903D01*
X34819502Y2677291D01*
X34652407Y2722064D01*
X34417000Y2742660D01*
X34181592Y2722064D01*
X33953339Y2660904D01*
X33863316Y2618926D01*
X33794238Y2608435D01*
X33730454Y2636956D01*
X33723231Y2643628D01*
X28856671Y7510188D01*
X28823186Y7571511D01*
X28828170Y7641203D01*
X28870042Y7697136D01*
X28918571Y7719159D01*
X28996963Y7735823D01*
X29043276Y7745666D01*
X29216203Y7822659D01*
X29369344Y7933922D01*
X29496006Y8074594D01*
X29533000Y8138671D01*
X29583565Y8186886D01*
X29652172Y8200110D01*
X29717037Y8174143D01*
X29757567Y8117229D01*
X29763708Y8063711D01*
X29756433Y7994489D01*
X29756433Y7994487D01*
X29762799Y7933921D01*
X29776219Y7806230D01*
X29834713Y7626203D01*
X29929359Y7462271D01*
X30056022Y7321598D01*
X30209162Y7210336D01*
X30382090Y7133343D01*
X30567245Y7093987D01*
X30567247Y7093987D01*
X30756541Y7093987D01*
X30879976Y7120225D01*
X30941696Y7133343D01*
X31114623Y7210336D01*
X31214554Y7282940D01*
X31267763Y7321598D01*
X31270291Y7324405D01*
X31394426Y7462271D01*
X31489072Y7626203D01*
X31547567Y7806231D01*
X31567353Y7994487D01*
X31547567Y8182743D01*
X31513319Y8288147D01*
X31489072Y8362772D01*
X31394426Y8526704D01*
X31267764Y8667375D01*
X31243004Y8685364D01*
X31200337Y8740694D01*
X31194357Y8810307D01*
X31208499Y8847680D01*
X31235072Y8893703D01*
X31293567Y9073731D01*
X31312087Y9249951D01*
X31338671Y9314563D01*
X31395969Y9354548D01*
X31435408Y9360987D01*
X38040264Y9360987D01*
X38107303Y9341302D01*
G37*
%TD.AperFunction*%
%TA.AperFunction,Conductor*%
G36*
X20213532Y4709679D02*
G01*
X20269465Y4667807D01*
X20288129Y4631815D01*
X20346813Y4451203D01*
X20441459Y4287271D01*
X20568122Y4146598D01*
X20721262Y4035336D01*
X20894190Y3958343D01*
X21079345Y3918987D01*
X21079347Y3918987D01*
X21268641Y3918987D01*
X21392077Y3945225D01*
X21453796Y3958343D01*
X21626723Y4035336D01*
X21660987Y4060231D01*
X21726791Y4083710D01*
X21794845Y4067885D01*
X21821552Y4047593D01*
X22927287Y2941858D01*
X22937982Y2929663D01*
X22957205Y2904610D01*
X23056718Y2828252D01*
X23064212Y2822502D01*
X23082647Y2808356D01*
X23228726Y2747848D01*
X23385488Y2727210D01*
X23413885Y2730949D01*
X23482918Y2720184D01*
X23535175Y2673805D01*
X23554061Y2606536D01*
X23533581Y2539735D01*
X23501194Y2506436D01*
X23428330Y2455415D01*
X23385595Y2425492D01*
X23218508Y2258405D01*
X23218507Y2258403D01*
X23218505Y2258401D01*
X23170405Y2189709D01*
X23088574Y2072840D01*
X23033997Y2029215D01*
X22964498Y2022023D01*
X22902144Y2053545D01*
X22885429Y2072836D01*
X22755495Y2258401D01*
X22588401Y2425495D01*
X22394830Y2561035D01*
X22180663Y2660903D01*
X22119501Y2677291D01*
X21952407Y2722064D01*
X21717000Y2742660D01*
X21481592Y2722064D01*
X21253336Y2660903D01*
X21039170Y2561035D01*
X20845598Y2425495D01*
X20678505Y2258402D01*
X20548575Y2072841D01*
X20493998Y2029216D01*
X20424500Y2022022D01*
X20362145Y2053545D01*
X20345425Y2072841D01*
X20321831Y2106537D01*
X20215495Y2258401D01*
X20048401Y2425495D01*
X19854830Y2561035D01*
X19640663Y2660903D01*
X19579501Y2677291D01*
X19412407Y2722064D01*
X19177000Y2742660D01*
X18941592Y2722064D01*
X18713336Y2660903D01*
X18499170Y2561035D01*
X18305598Y2425495D01*
X18138505Y2258402D01*
X18008575Y2072841D01*
X17953998Y2029216D01*
X17884500Y2022022D01*
X17822145Y2053545D01*
X17805425Y2072841D01*
X17781831Y2106537D01*
X17675495Y2258401D01*
X17526790Y2407107D01*
X17493305Y2468429D01*
X17498289Y2538121D01*
X17540161Y2594054D01*
X17605625Y2618471D01*
X17614471Y2618787D01*
X17723906Y2618787D01*
X17740090Y2617727D01*
X17771393Y2613605D01*
X17928155Y2634243D01*
X18074234Y2694751D01*
X18109828Y2722063D01*
X18199675Y2791005D01*
X18218902Y2816064D01*
X18229583Y2828244D01*
X20082519Y4681180D01*
X20143840Y4714663D01*
X20213532Y4709679D01*
G37*
%TD.AperFunction*%
%TA.AperFunction,Conductor*%
G36*
X19030469Y13383056D02*
G01*
X19041500Y13373265D01*
X20148912Y12265853D01*
X20159607Y12253658D01*
X20178830Y12228605D01*
X20252900Y12171770D01*
X20292634Y12141281D01*
X20304272Y12132351D01*
X20450351Y12071843D01*
X20586474Y12053923D01*
X20607112Y12051205D01*
X20607112Y12051206D01*
X20607113Y12051205D01*
X20638415Y12055327D01*
X20654600Y12056387D01*
X21355346Y12056387D01*
X21422385Y12036702D01*
X21443027Y12020068D01*
X23132427Y10330668D01*
X23165912Y10269345D01*
X23160928Y10199653D01*
X23119056Y10143720D01*
X23053592Y10119303D01*
X23044746Y10118987D01*
X21505611Y10118987D01*
X21438572Y10138672D01*
X21417930Y10155306D01*
X20036850Y11536386D01*
X18632280Y12940955D01*
X18598796Y13002277D01*
X18603780Y13071969D01*
X18645652Y13127902D01*
X18647009Y13128904D01*
X18694764Y13163599D01*
X18821426Y13304271D01*
X18846432Y13347584D01*
X18896997Y13395799D01*
X18965604Y13409023D01*
X19030469Y13383056D01*
G37*
%TD.AperFunction*%
%TA.AperFunction,Conductor*%
G36*
X30390123Y14028865D02*
G01*
X30390125Y14028865D01*
X30484674Y14028865D01*
X30551713Y14009180D01*
X30572355Y13992546D01*
X32008448Y12556453D01*
X32019143Y12544258D01*
X32038366Y12519205D01*
X32064529Y12499130D01*
X32132506Y12446970D01*
X32163808Y12422951D01*
X32309887Y12362443D01*
X32435347Y12345926D01*
X32466648Y12341805D01*
X32466648Y12341806D01*
X32466649Y12341805D01*
X32497951Y12345927D01*
X32514136Y12346987D01*
X36584796Y12346987D01*
X36651835Y12327302D01*
X36672477Y12310668D01*
X37315692Y11667453D01*
X37326387Y11655258D01*
X37345610Y11630205D01*
X37400125Y11588375D01*
X37447439Y11552070D01*
X37471052Y11533951D01*
X37535246Y11507361D01*
X37551694Y11500548D01*
X37606097Y11456707D01*
X37628162Y11390413D01*
X37610883Y11322714D01*
X37559746Y11275103D01*
X37504241Y11261987D01*
X29991152Y11261987D01*
X29924113Y11281672D01*
X29899004Y11303013D01*
X29870334Y11334853D01*
X29840103Y11397844D01*
X29844550Y11456143D01*
X29896567Y11616231D01*
X29916353Y11804487D01*
X29916352Y11804492D01*
X29917513Y11815534D01*
X29942459Y11878061D01*
X29947171Y11884203D01*
X29947175Y11884205D01*
X29994393Y11945740D01*
X30043429Y12009646D01*
X30103937Y12155725D01*
X30124575Y12312487D01*
X30120454Y12343791D01*
X30119393Y12359976D01*
X30119393Y13916000D01*
X30120452Y13932173D01*
X30122667Y13948999D01*
X30150931Y14012892D01*
X30209255Y14051365D01*
X30271387Y14054103D01*
X30390123Y14028865D01*
G37*
%TD.AperFunction*%
%TA.AperFunction,Conductor*%
G36*
X19610606Y15324665D02*
G01*
X19660531Y15294234D01*
X21485697Y13469068D01*
X21519182Y13407745D01*
X21514198Y13338053D01*
X21472326Y13282120D01*
X21406862Y13257703D01*
X21398016Y13257387D01*
X20907210Y13257387D01*
X20840171Y13277072D01*
X20819529Y13293706D01*
X19050667Y15062568D01*
X19017182Y15123891D01*
X19022166Y15193583D01*
X19064038Y15249516D01*
X19129502Y15273933D01*
X19149157Y15273777D01*
X19177000Y15271341D01*
X19177000Y15271342D01*
X19177001Y15271341D01*
X19240024Y15276855D01*
X19412408Y15291937D01*
X19540756Y15326328D01*
X19610606Y15324665D01*
G37*
%TD.AperFunction*%
%TD*%
M02*
