%TF.GenerationSoftware,KiCad,Pcbnew,(7.0.0-0)*%
%TF.CreationDate,2023-03-26T13:07:46-04:00*%
%TF.ProjectId,mini_arduino_clone,6d696e69-5f61-4726-9475-696e6f5f636c,rev?*%
%TF.SameCoordinates,Original*%
%TF.FileFunction,Other,Comment*%
%FSLAX46Y46*%
G04 Gerber Fmt 4.6, Leading zero omitted, Abs format (unit mm)*
G04 Created by KiCad (PCBNEW (7.0.0-0)) date 2023-03-26 13:07:46*
%MOMM*%
%LPD*%
G01*
G04 APERTURE LIST*
%ADD10C,0.080000*%
%ADD11C,0.050000*%
G04 APERTURE END LIST*
D10*
%TO.C,J102*%
X41513583Y8986868D02*
X41013583Y8986868D01*
X41513583Y9272582D02*
X41227869Y9058297D01*
X41013583Y9272582D02*
X41299297Y8986868D01*
X41251678Y9486868D02*
X41251678Y9653535D01*
X41513583Y9724963D02*
X41513583Y9486868D01*
X41513583Y9486868D02*
X41013583Y9486868D01*
X41013583Y9486868D02*
X41013583Y9724963D01*
X41251678Y9939249D02*
X41251678Y10105916D01*
X41513583Y10177344D02*
X41513583Y9939249D01*
X41513583Y9939249D02*
X41013583Y9939249D01*
X41013583Y9939249D02*
X41013583Y10177344D01*
X41513583Y10391630D02*
X41013583Y10391630D01*
X41013583Y10391630D02*
X41013583Y10582106D01*
X41013583Y10582106D02*
X41037393Y10629725D01*
X41037393Y10629725D02*
X41061202Y10653535D01*
X41061202Y10653535D02*
X41108821Y10677344D01*
X41108821Y10677344D02*
X41180250Y10677344D01*
X41180250Y10677344D02*
X41227869Y10653535D01*
X41227869Y10653535D02*
X41251678Y10629725D01*
X41251678Y10629725D02*
X41275488Y10582106D01*
X41275488Y10582106D02*
X41275488Y10391630D01*
X41013583Y10986868D02*
X41013583Y11082106D01*
X41013583Y11082106D02*
X41037393Y11129725D01*
X41037393Y11129725D02*
X41085012Y11177344D01*
X41085012Y11177344D02*
X41180250Y11201154D01*
X41180250Y11201154D02*
X41346916Y11201154D01*
X41346916Y11201154D02*
X41442154Y11177344D01*
X41442154Y11177344D02*
X41489773Y11129725D01*
X41489773Y11129725D02*
X41513583Y11082106D01*
X41513583Y11082106D02*
X41513583Y10986868D01*
X41513583Y10986868D02*
X41489773Y10939249D01*
X41489773Y10939249D02*
X41442154Y10891630D01*
X41442154Y10891630D02*
X41346916Y10867821D01*
X41346916Y10867821D02*
X41180250Y10867821D01*
X41180250Y10867821D02*
X41085012Y10891630D01*
X41085012Y10891630D02*
X41037393Y10939249D01*
X41037393Y10939249D02*
X41013583Y10986868D01*
X41013583Y11415440D02*
X41418345Y11415440D01*
X41418345Y11415440D02*
X41465964Y11439250D01*
X41465964Y11439250D02*
X41489773Y11463059D01*
X41489773Y11463059D02*
X41513583Y11510678D01*
X41513583Y11510678D02*
X41513583Y11605916D01*
X41513583Y11605916D02*
X41489773Y11653535D01*
X41489773Y11653535D02*
X41465964Y11677345D01*
X41465964Y11677345D02*
X41418345Y11701154D01*
X41418345Y11701154D02*
X41013583Y11701154D01*
X41013583Y11867822D02*
X41013583Y12153536D01*
X41513583Y12010679D02*
X41013583Y12010679D01*
D11*
X42075107Y14569486D02*
X41875107Y14569486D01*
X41775107Y14569486D02*
X41789393Y14555200D01*
X41789393Y14555200D02*
X41803678Y14569486D01*
X41803678Y14569486D02*
X41789393Y14583772D01*
X41789393Y14583772D02*
X41775107Y14569486D01*
X41775107Y14569486D02*
X41803678Y14569486D01*
X41875107Y14712343D02*
X42075107Y14712343D01*
X41903678Y14712343D02*
X41889393Y14726629D01*
X41889393Y14726629D02*
X41875107Y14755200D01*
X41875107Y14755200D02*
X41875107Y14798057D01*
X41875107Y14798057D02*
X41889393Y14826629D01*
X41889393Y14826629D02*
X41917964Y14840914D01*
X41917964Y14840914D02*
X42075107Y14840914D01*
X42075107Y15163772D02*
X41775107Y15163772D01*
X41960821Y15192343D02*
X42075107Y15278058D01*
X41875107Y15278058D02*
X41989393Y15163772D01*
X42060821Y15520915D02*
X42075107Y15492343D01*
X42075107Y15492343D02*
X42075107Y15435200D01*
X42075107Y15435200D02*
X42060821Y15406629D01*
X42060821Y15406629D02*
X42032250Y15392343D01*
X42032250Y15392343D02*
X41917964Y15392343D01*
X41917964Y15392343D02*
X41889393Y15406629D01*
X41889393Y15406629D02*
X41875107Y15435200D01*
X41875107Y15435200D02*
X41875107Y15492343D01*
X41875107Y15492343D02*
X41889393Y15520915D01*
X41889393Y15520915D02*
X41917964Y15535200D01*
X41917964Y15535200D02*
X41946535Y15535200D01*
X41946535Y15535200D02*
X41975107Y15392343D01*
X42060821Y15778058D02*
X42075107Y15749486D01*
X42075107Y15749486D02*
X42075107Y15692343D01*
X42075107Y15692343D02*
X42060821Y15663772D01*
X42060821Y15663772D02*
X42032250Y15649486D01*
X42032250Y15649486D02*
X41917964Y15649486D01*
X41917964Y15649486D02*
X41889393Y15663772D01*
X41889393Y15663772D02*
X41875107Y15692343D01*
X41875107Y15692343D02*
X41875107Y15749486D01*
X41875107Y15749486D02*
X41889393Y15778058D01*
X41889393Y15778058D02*
X41917964Y15792343D01*
X41917964Y15792343D02*
X41946535Y15792343D01*
X41946535Y15792343D02*
X41975107Y15649486D01*
X41875107Y15920915D02*
X42175107Y15920915D01*
X41889393Y15920915D02*
X41875107Y15949486D01*
X41875107Y15949486D02*
X41875107Y16006629D01*
X41875107Y16006629D02*
X41889393Y16035201D01*
X41889393Y16035201D02*
X41903678Y16049486D01*
X41903678Y16049486D02*
X41932250Y16063772D01*
X41932250Y16063772D02*
X42017964Y16063772D01*
X42017964Y16063772D02*
X42046535Y16049486D01*
X42046535Y16049486D02*
X42060821Y16035201D01*
X42060821Y16035201D02*
X42075107Y16006629D01*
X42075107Y16006629D02*
X42075107Y15949486D01*
X42075107Y15949486D02*
X42060821Y15920915D01*
X42075107Y16235201D02*
X42060821Y16206630D01*
X42060821Y16206630D02*
X42046535Y16192344D01*
X42046535Y16192344D02*
X42017964Y16178058D01*
X42017964Y16178058D02*
X41932250Y16178058D01*
X41932250Y16178058D02*
X41903678Y16192344D01*
X41903678Y16192344D02*
X41889393Y16206630D01*
X41889393Y16206630D02*
X41875107Y16235201D01*
X41875107Y16235201D02*
X41875107Y16278058D01*
X41875107Y16278058D02*
X41889393Y16306630D01*
X41889393Y16306630D02*
X41903678Y16320915D01*
X41903678Y16320915D02*
X41932250Y16335201D01*
X41932250Y16335201D02*
X42017964Y16335201D01*
X42017964Y16335201D02*
X42046535Y16320915D01*
X42046535Y16320915D02*
X42060821Y16306630D01*
X42060821Y16306630D02*
X42075107Y16278058D01*
X42075107Y16278058D02*
X42075107Y16235201D01*
X41875107Y16592344D02*
X42075107Y16592344D01*
X41875107Y16463773D02*
X42032250Y16463773D01*
X42032250Y16463773D02*
X42060821Y16478059D01*
X42060821Y16478059D02*
X42075107Y16506630D01*
X42075107Y16506630D02*
X42075107Y16549487D01*
X42075107Y16549487D02*
X42060821Y16578059D01*
X42060821Y16578059D02*
X42046535Y16592344D01*
X41875107Y16692345D02*
X41875107Y16806631D01*
X41775107Y16735202D02*
X42032250Y16735202D01*
X42032250Y16735202D02*
X42060821Y16749488D01*
X42060821Y16749488D02*
X42075107Y16778059D01*
X42075107Y16778059D02*
X42075107Y16806631D01*
X42075107Y17215202D02*
X41917964Y17215202D01*
X41917964Y17215202D02*
X41889393Y17200917D01*
X41889393Y17200917D02*
X41875107Y17172345D01*
X41875107Y17172345D02*
X41875107Y17115202D01*
X41875107Y17115202D02*
X41889393Y17086631D01*
X42060821Y17215202D02*
X42075107Y17186631D01*
X42075107Y17186631D02*
X42075107Y17115202D01*
X42075107Y17115202D02*
X42060821Y17086631D01*
X42060821Y17086631D02*
X42032250Y17072345D01*
X42032250Y17072345D02*
X42003678Y17072345D01*
X42003678Y17072345D02*
X41975107Y17086631D01*
X41975107Y17086631D02*
X41960821Y17115202D01*
X41960821Y17115202D02*
X41960821Y17186631D01*
X41960821Y17186631D02*
X41946535Y17215202D01*
X42075107Y17358060D02*
X41875107Y17358060D01*
X41932250Y17358060D02*
X41903678Y17372346D01*
X41903678Y17372346D02*
X41889393Y17386631D01*
X41889393Y17386631D02*
X41875107Y17415203D01*
X41875107Y17415203D02*
X41875107Y17443774D01*
X42060821Y17658060D02*
X42075107Y17629488D01*
X42075107Y17629488D02*
X42075107Y17572345D01*
X42075107Y17572345D02*
X42060821Y17543774D01*
X42060821Y17543774D02*
X42032250Y17529488D01*
X42032250Y17529488D02*
X41917964Y17529488D01*
X41917964Y17529488D02*
X41889393Y17543774D01*
X41889393Y17543774D02*
X41875107Y17572345D01*
X41875107Y17572345D02*
X41875107Y17629488D01*
X41875107Y17629488D02*
X41889393Y17658060D01*
X41889393Y17658060D02*
X41917964Y17672345D01*
X41917964Y17672345D02*
X41946535Y17672345D01*
X41946535Y17672345D02*
X41975107Y17529488D01*
X42075107Y17929488D02*
X41917964Y17929488D01*
X41917964Y17929488D02*
X41889393Y17915203D01*
X41889393Y17915203D02*
X41875107Y17886631D01*
X41875107Y17886631D02*
X41875107Y17829488D01*
X41875107Y17829488D02*
X41889393Y17800917D01*
X42060821Y17929488D02*
X42075107Y17900917D01*
X42075107Y17900917D02*
X42075107Y17829488D01*
X42075107Y17829488D02*
X42060821Y17800917D01*
X42060821Y17800917D02*
X42032250Y17786631D01*
X42032250Y17786631D02*
X42003678Y17786631D01*
X42003678Y17786631D02*
X41975107Y17800917D01*
X41975107Y17800917D02*
X41960821Y17829488D01*
X41960821Y17829488D02*
X41960821Y17900917D01*
X41960821Y17900917D02*
X41946535Y17929488D01*
X41440107Y14400916D02*
X41140107Y14400916D01*
X41140107Y14400916D02*
X41440107Y14572345D01*
X41440107Y14572345D02*
X41140107Y14572345D01*
X41440107Y14758059D02*
X41425821Y14729488D01*
X41425821Y14729488D02*
X41411535Y14715202D01*
X41411535Y14715202D02*
X41382964Y14700916D01*
X41382964Y14700916D02*
X41297250Y14700916D01*
X41297250Y14700916D02*
X41268678Y14715202D01*
X41268678Y14715202D02*
X41254393Y14729488D01*
X41254393Y14729488D02*
X41240107Y14758059D01*
X41240107Y14758059D02*
X41240107Y14800916D01*
X41240107Y14800916D02*
X41254393Y14829488D01*
X41254393Y14829488D02*
X41268678Y14843773D01*
X41268678Y14843773D02*
X41297250Y14858059D01*
X41297250Y14858059D02*
X41382964Y14858059D01*
X41382964Y14858059D02*
X41411535Y14843773D01*
X41411535Y14843773D02*
X41425821Y14829488D01*
X41425821Y14829488D02*
X41440107Y14800916D01*
X41440107Y14800916D02*
X41440107Y14758059D01*
X41240107Y15123774D02*
X41240107Y15238060D01*
X41140107Y15166631D02*
X41397250Y15166631D01*
X41397250Y15166631D02*
X41425821Y15180917D01*
X41425821Y15180917D02*
X41440107Y15209488D01*
X41440107Y15209488D02*
X41440107Y15238060D01*
X41440107Y15338060D02*
X41240107Y15338060D01*
X41297250Y15338060D02*
X41268678Y15352346D01*
X41268678Y15352346D02*
X41254393Y15366631D01*
X41254393Y15366631D02*
X41240107Y15395203D01*
X41240107Y15395203D02*
X41240107Y15423774D01*
X41440107Y15652345D02*
X41282964Y15652345D01*
X41282964Y15652345D02*
X41254393Y15638060D01*
X41254393Y15638060D02*
X41240107Y15609488D01*
X41240107Y15609488D02*
X41240107Y15552345D01*
X41240107Y15552345D02*
X41254393Y15523774D01*
X41425821Y15652345D02*
X41440107Y15623774D01*
X41440107Y15623774D02*
X41440107Y15552345D01*
X41440107Y15552345D02*
X41425821Y15523774D01*
X41425821Y15523774D02*
X41397250Y15509488D01*
X41397250Y15509488D02*
X41368678Y15509488D01*
X41368678Y15509488D02*
X41340107Y15523774D01*
X41340107Y15523774D02*
X41325821Y15552345D01*
X41325821Y15552345D02*
X41325821Y15623774D01*
X41325821Y15623774D02*
X41311535Y15652345D01*
X41425821Y15923774D02*
X41440107Y15895203D01*
X41440107Y15895203D02*
X41440107Y15838060D01*
X41440107Y15838060D02*
X41425821Y15809489D01*
X41425821Y15809489D02*
X41411535Y15795203D01*
X41411535Y15795203D02*
X41382964Y15780917D01*
X41382964Y15780917D02*
X41297250Y15780917D01*
X41297250Y15780917D02*
X41268678Y15795203D01*
X41268678Y15795203D02*
X41254393Y15809489D01*
X41254393Y15809489D02*
X41240107Y15838060D01*
X41240107Y15838060D02*
X41240107Y15895203D01*
X41240107Y15895203D02*
X41254393Y15923774D01*
X41440107Y16052346D02*
X41140107Y16052346D01*
X41325821Y16080917D02*
X41440107Y16166632D01*
X41240107Y16166632D02*
X41354393Y16052346D01*
X41425821Y16280917D02*
X41440107Y16309489D01*
X41440107Y16309489D02*
X41440107Y16366632D01*
X41440107Y16366632D02*
X41425821Y16395203D01*
X41425821Y16395203D02*
X41397250Y16409489D01*
X41397250Y16409489D02*
X41382964Y16409489D01*
X41382964Y16409489D02*
X41354393Y16395203D01*
X41354393Y16395203D02*
X41340107Y16366632D01*
X41340107Y16366632D02*
X41340107Y16323774D01*
X41340107Y16323774D02*
X41325821Y16295203D01*
X41325821Y16295203D02*
X41297250Y16280917D01*
X41297250Y16280917D02*
X41282964Y16280917D01*
X41282964Y16280917D02*
X41254393Y16295203D01*
X41254393Y16295203D02*
X41240107Y16323774D01*
X41240107Y16323774D02*
X41240107Y16366632D01*
X41240107Y16366632D02*
X41254393Y16395203D01*
X41440107Y16760917D02*
X41425821Y16732346D01*
X41425821Y16732346D02*
X41411535Y16718060D01*
X41411535Y16718060D02*
X41382964Y16703774D01*
X41382964Y16703774D02*
X41297250Y16703774D01*
X41297250Y16703774D02*
X41268678Y16718060D01*
X41268678Y16718060D02*
X41254393Y16732346D01*
X41254393Y16732346D02*
X41240107Y16760917D01*
X41240107Y16760917D02*
X41240107Y16803774D01*
X41240107Y16803774D02*
X41254393Y16832346D01*
X41254393Y16832346D02*
X41268678Y16846631D01*
X41268678Y16846631D02*
X41297250Y16860917D01*
X41297250Y16860917D02*
X41382964Y16860917D01*
X41382964Y16860917D02*
X41411535Y16846631D01*
X41411535Y16846631D02*
X41425821Y16832346D01*
X41425821Y16832346D02*
X41440107Y16803774D01*
X41440107Y16803774D02*
X41440107Y16760917D01*
X41440107Y16989489D02*
X41240107Y16989489D01*
X41297250Y16989489D02*
X41268678Y17003775D01*
X41268678Y17003775D02*
X41254393Y17018060D01*
X41254393Y17018060D02*
X41240107Y17046632D01*
X41240107Y17046632D02*
X41240107Y17075203D01*
X41240107Y17326632D02*
X41440107Y17398060D01*
X41440107Y17398060D02*
X41240107Y17469489D01*
X41440107Y17583774D02*
X41240107Y17583774D01*
X41140107Y17583774D02*
X41154393Y17569488D01*
X41154393Y17569488D02*
X41168678Y17583774D01*
X41168678Y17583774D02*
X41154393Y17598060D01*
X41154393Y17598060D02*
X41140107Y17583774D01*
X41140107Y17583774D02*
X41168678Y17583774D01*
X41440107Y17855202D02*
X41282964Y17855202D01*
X41282964Y17855202D02*
X41254393Y17840917D01*
X41254393Y17840917D02*
X41240107Y17812345D01*
X41240107Y17812345D02*
X41240107Y17755202D01*
X41240107Y17755202D02*
X41254393Y17726631D01*
X41425821Y17855202D02*
X41440107Y17826631D01*
X41440107Y17826631D02*
X41440107Y17755202D01*
X41440107Y17755202D02*
X41425821Y17726631D01*
X41425821Y17726631D02*
X41397250Y17712345D01*
X41397250Y17712345D02*
X41368678Y17712345D01*
X41368678Y17712345D02*
X41340107Y17726631D01*
X41340107Y17726631D02*
X41325821Y17755202D01*
X41325821Y17755202D02*
X41325821Y17826631D01*
X41325821Y17826631D02*
X41311535Y17855202D01*
X41425821Y17983774D02*
X41440107Y18012346D01*
X41440107Y18012346D02*
X41440107Y18069489D01*
X41440107Y18069489D02*
X41425821Y18098060D01*
X41425821Y18098060D02*
X41397250Y18112346D01*
X41397250Y18112346D02*
X41382964Y18112346D01*
X41382964Y18112346D02*
X41354393Y18098060D01*
X41354393Y18098060D02*
X41340107Y18069489D01*
X41340107Y18069489D02*
X41340107Y18026631D01*
X41340107Y18026631D02*
X41325821Y17998060D01*
X41325821Y17998060D02*
X41297250Y17983774D01*
X41297250Y17983774D02*
X41282964Y17983774D01*
X41282964Y17983774D02*
X41254393Y17998060D01*
X41254393Y17998060D02*
X41240107Y18026631D01*
X41240107Y18026631D02*
X41240107Y18069489D01*
X41240107Y18069489D02*
X41254393Y18098060D01*
%TD*%
M02*
