%TF.GenerationSoftware,KiCad,Pcbnew,7.0.5-0*%
%TF.CreationDate,2023-06-02T14:28:35-04:00*%
%TF.ProjectId,mini_arduino_clone,6d696e69-5f61-4726-9475-696e6f5f636c,A*%
%TF.SameCoordinates,Original*%
%TF.FileFunction,Copper,L3,Inr*%
%TF.FilePolarity,Positive*%
%FSLAX46Y46*%
G04 Gerber Fmt 4.6, Leading zero omitted, Abs format (unit mm)*
G04 Created by KiCad (PCBNEW 7.0.5-0) date 2023-06-02 14:28:35*
%MOMM*%
%LPD*%
G01*
G04 APERTURE LIST*
%TA.AperFunction,ComponentPad*%
%ADD10O,1.700000X1.000000*%
%TD*%
%TA.AperFunction,ComponentPad*%
%ADD11O,1.700000X0.850000*%
%TD*%
%TA.AperFunction,ComponentPad*%
%ADD12R,1.700000X1.700000*%
%TD*%
%TA.AperFunction,ComponentPad*%
%ADD13O,1.700000X1.700000*%
%TD*%
%TA.AperFunction,ViaPad*%
%ADD14C,0.800000*%
%TD*%
%TA.AperFunction,Conductor*%
%ADD15C,0.500000*%
%TD*%
G04 APERTURE END LIST*
D10*
%TO.N,unconnected-(J101-Shield-Pad6)*%
%TO.C,J101*%
X1515000Y11842000D03*
D11*
X1515000Y6192000D03*
%TD*%
D12*
%TO.N,/D5*%
%TO.C,J103*%
X39497000Y16627000D03*
D13*
%TO.N,/D6*%
X36957000Y16627000D03*
%TO.N,/D7*%
X34417000Y16627000D03*
%TO.N,/D8*%
X31877000Y16627000D03*
%TO.N,/D9*%
X29337000Y16627000D03*
%TO.N,/D10*%
X26797000Y16627000D03*
%TO.N,/D11{slash}MOSI*%
X24257000Y16627000D03*
%TO.N,/D12{slash}MISO*%
X21717000Y16627000D03*
%TO.N,/D4*%
X19177000Y16627000D03*
%TO.N,/D3*%
X16637000Y16627000D03*
%TO.N,/D2*%
X14097000Y16627000D03*
%TO.N,GND*%
X11557000Y16627000D03*
%TO.N,/~{RESET}*%
X9017000Y16627000D03*
%TO.N,/D0{slash}RX*%
X6477000Y16627000D03*
%TO.N,/D1{slash}TX*%
X3937000Y16627000D03*
%TD*%
D12*
%TO.N,/D13{slash}SCK*%
%TO.C,J104*%
X39497000Y1387000D03*
D13*
%TO.N,GND*%
X36957000Y1387000D03*
%TO.N,/~{RESET}*%
X34417000Y1387000D03*
%TO.N,+5V*%
X31877000Y1387000D03*
%TO.N,/A7*%
X29337000Y1387000D03*
%TO.N,/A6*%
X26797000Y1387000D03*
%TO.N,/A5{slash}SCL*%
X24257000Y1387000D03*
%TO.N,/A4{slash}~{SDA}*%
X21717000Y1387000D03*
%TO.N,/A3*%
X19177000Y1387000D03*
%TO.N,/A2*%
X16637000Y1387000D03*
%TO.N,/A1*%
X14097000Y1387000D03*
%TO.N,/A0*%
X11557000Y1387000D03*
%TO.N,GND*%
X9017000Y1387000D03*
%TO.N,+3V3*%
X6477000Y1387000D03*
%TO.N,VBUS*%
X3937000Y1387000D03*
%TD*%
D14*
%TO.N,GND*%
X39932893Y4438487D03*
%TO.N,/~{RESET}*%
X42599893Y7232487D03*
%TO.N,+5V*%
X43615893Y4565487D03*
%TO.N,GND*%
X20826150Y3719987D03*
X1324893Y3676487D03*
X7903493Y5403687D03*
X21162293Y11957387D03*
X16539493Y4641687D03*
X35614893Y9707987D03*
X20298693Y14192087D03*
X13135893Y9518487D03*
X29696693Y7118865D03*
X36249893Y12185487D03*
X10214893Y6724487D03*
X43234893Y2152487D03*
X43361893Y15995487D03*
X5973093Y7384887D03*
X35233893Y3549487D03*
X34268693Y2965287D03*
X39170893Y12820487D03*
X6165244Y12007687D03*
%TO.N,VBUS*%
X6023893Y10915487D03*
X6023893Y5962487D03*
%TO.N,+5V*%
X30661893Y7994487D03*
X1324893Y17138487D03*
X25435125Y14451719D03*
X39297893Y9707987D03*
X18088893Y13836487D03*
X13770893Y5962487D03*
X13770893Y5200487D03*
%TO.N,/~{RESET}*%
X8359593Y9518487D03*
X15421893Y13201487D03*
X26666994Y8339403D03*
X11595954Y14010356D03*
%TO.N,+3V3*%
X21173993Y4819487D03*
%TO.N,/USB_UART/VBUS*%
X9325893Y5454487D03*
X9186493Y13176087D03*
%TO.N,/D_P*%
X6150893Y8853100D03*
X13481598Y13490782D03*
%TO.N,/D_N*%
X12790188Y14182192D03*
X6150893Y9830900D03*
%TO.N,/D12{slash}MISO*%
X43139143Y9106237D03*
X27359893Y12058487D03*
%TO.N,/D13{slash}SCK*%
X43248271Y10928865D03*
X30661893Y14598487D03*
%TO.N,/D11{slash}MOSI*%
X29264893Y10661487D03*
X38916893Y11169487D03*
%TO.N,/D2*%
X26851893Y9518487D03*
%TO.N,/D3*%
X28763473Y8606810D03*
%TO.N,/D4*%
X30407893Y9261987D03*
%TO.N,/D10*%
X29010893Y11804487D03*
%TO.N,/A7*%
X25073893Y8219709D03*
%TO.N,/A6*%
X25806813Y7220390D03*
%TO.N,/A1*%
X21173993Y6028513D03*
%TO.N,/A0*%
X20456621Y6724487D03*
%TO.N,/D0{slash}RX*%
X24350993Y4184487D03*
X16844293Y9924887D03*
%TO.N,/D1{slash}TX*%
X18977893Y6826087D03*
X24882710Y3332892D03*
%TD*%
D15*
%TO.N,GND*%
X8106693Y14395287D02*
X7674893Y13963487D01*
X11557000Y16627000D02*
X12569513Y15614487D01*
X9325287Y14395287D02*
X8106693Y14395287D01*
X11557000Y16627000D02*
X9325287Y14395287D01*
X12569513Y15614487D02*
X12754893Y15614487D01*
%TD*%
%TA.AperFunction,Conductor*%
%TO.N,GND*%
G36*
X710157Y18013815D02*
G01*
X755912Y17961011D01*
X765856Y17891853D01*
X736831Y17828297D01*
X723525Y17816085D01*
X723851Y17815723D01*
X719022Y17811376D01*
X592359Y17670702D01*
X497714Y17506772D01*
X497711Y17506765D01*
X439220Y17326747D01*
X439219Y17326743D01*
X419433Y17138487D01*
X439219Y16950231D01*
X439220Y16950228D01*
X497711Y16770210D01*
X497714Y16770203D01*
X592360Y16606271D01*
X638425Y16555111D01*
X719022Y16465599D01*
X872158Y16354339D01*
X872163Y16354336D01*
X1045085Y16277345D01*
X1045090Y16277343D01*
X1230247Y16237987D01*
X1230248Y16237987D01*
X1419537Y16237987D01*
X1419539Y16237987D01*
X1604696Y16277343D01*
X1777623Y16354336D01*
X1930764Y16465599D01*
X2057426Y16606271D01*
X2152072Y16770203D01*
X2210567Y16950231D01*
X2230353Y17138487D01*
X2210567Y17326743D01*
X2152072Y17506771D01*
X2057426Y17670703D01*
X1930764Y17811375D01*
X1930763Y17811376D01*
X1925935Y17815723D01*
X1927444Y17817400D01*
X1891113Y17864521D01*
X1885140Y17934135D01*
X1917751Y17995927D01*
X1978592Y18030280D01*
X2006668Y18033500D01*
X3199038Y18033500D01*
X3266077Y18013815D01*
X3311832Y17961011D01*
X3321776Y17891853D01*
X3292751Y17828297D01*
X3263564Y17804199D01*
X3263605Y17804140D01*
X3262869Y17803625D01*
X3261037Y17802112D01*
X3259166Y17801032D01*
X3065597Y17665495D01*
X2898505Y17498403D01*
X2762965Y17304831D01*
X2762964Y17304829D01*
X2663098Y17090665D01*
X2663094Y17090656D01*
X2601938Y16862414D01*
X2601936Y16862404D01*
X2581341Y16627001D01*
X2581341Y16627000D01*
X2601936Y16391597D01*
X2601938Y16391587D01*
X2663094Y16163345D01*
X2663096Y16163341D01*
X2663097Y16163337D01*
X2742801Y15992412D01*
X2762965Y15949170D01*
X2762967Y15949166D01*
X2871281Y15794479D01*
X2898505Y15755599D01*
X3065599Y15588505D01*
X3143734Y15533794D01*
X3259165Y15452968D01*
X3259167Y15452967D01*
X3259170Y15452965D01*
X3473337Y15353097D01*
X3473343Y15353096D01*
X3473344Y15353095D01*
X3490870Y15348399D01*
X3701592Y15291937D01*
X3878034Y15276500D01*
X3936999Y15271341D01*
X3937000Y15271341D01*
X3937001Y15271341D01*
X3995966Y15276500D01*
X4172408Y15291937D01*
X4400663Y15353097D01*
X4614830Y15452965D01*
X4808401Y15588505D01*
X4975495Y15755599D01*
X5105424Y15941158D01*
X5160002Y15984783D01*
X5229500Y15991977D01*
X5291855Y15960454D01*
X5308575Y15941158D01*
X5438500Y15755605D01*
X5438505Y15755599D01*
X5605599Y15588505D01*
X5683734Y15533794D01*
X5799165Y15452968D01*
X5799167Y15452967D01*
X5799170Y15452965D01*
X6013337Y15353097D01*
X6013343Y15353096D01*
X6013344Y15353095D01*
X6030870Y15348399D01*
X6241592Y15291937D01*
X6418034Y15276500D01*
X6476999Y15271341D01*
X6477000Y15271341D01*
X6477001Y15271341D01*
X6535966Y15276500D01*
X6712408Y15291937D01*
X6940663Y15353097D01*
X7154830Y15452965D01*
X7348401Y15588505D01*
X7515495Y15755599D01*
X7645424Y15941158D01*
X7700002Y15984783D01*
X7769500Y15991977D01*
X7831855Y15960454D01*
X7848575Y15941158D01*
X7978500Y15755605D01*
X7978505Y15755599D01*
X8145599Y15588505D01*
X8223734Y15533794D01*
X8339165Y15452968D01*
X8339167Y15452967D01*
X8339170Y15452965D01*
X8553337Y15353097D01*
X8553343Y15353096D01*
X8553344Y15353095D01*
X8570870Y15348399D01*
X8781592Y15291937D01*
X8958034Y15276500D01*
X9016999Y15271341D01*
X9017000Y15271341D01*
X9017001Y15271341D01*
X9075966Y15276500D01*
X9252408Y15291937D01*
X9480663Y15353097D01*
X9694830Y15452965D01*
X9888401Y15588505D01*
X10055495Y15755599D01*
X10185730Y15941595D01*
X10240307Y15985219D01*
X10309805Y15992413D01*
X10372160Y15960890D01*
X10388879Y15941595D01*
X10518890Y15755922D01*
X10685917Y15588895D01*
X10879421Y15453400D01*
X11093507Y15353571D01*
X11093516Y15353567D01*
X11307000Y15296366D01*
X11307000Y16191499D01*
X11414685Y16142320D01*
X11521237Y16127000D01*
X11592763Y16127000D01*
X11699315Y16142320D01*
X11807000Y16191499D01*
X11807000Y15296367D01*
X12020483Y15353567D01*
X12020492Y15353571D01*
X12234578Y15453400D01*
X12428082Y15588895D01*
X12595105Y15755918D01*
X12725119Y15941595D01*
X12779696Y15985219D01*
X12849195Y15992412D01*
X12911549Y15960890D01*
X12928269Y15941595D01*
X13058505Y15755599D01*
X13225599Y15588505D01*
X13303734Y15533794D01*
X13419165Y15452968D01*
X13419167Y15452967D01*
X13419170Y15452965D01*
X13633337Y15353097D01*
X13633343Y15353096D01*
X13633344Y15353095D01*
X13650870Y15348399D01*
X13861592Y15291937D01*
X14038034Y15276500D01*
X14096999Y15271341D01*
X14097000Y15271341D01*
X14097001Y15271341D01*
X14155966Y15276500D01*
X14332408Y15291937D01*
X14560663Y15353097D01*
X14774830Y15452965D01*
X14968401Y15588505D01*
X15135495Y15755599D01*
X15265424Y15941158D01*
X15320002Y15984783D01*
X15389500Y15991977D01*
X15451855Y15960454D01*
X15468575Y15941158D01*
X15598500Y15755605D01*
X15598505Y15755599D01*
X15765599Y15588505D01*
X15843734Y15533794D01*
X15959165Y15452968D01*
X15959167Y15452967D01*
X15959170Y15452965D01*
X16173337Y15353097D01*
X16173343Y15353096D01*
X16173344Y15353095D01*
X16190870Y15348399D01*
X16401592Y15291937D01*
X16578034Y15276500D01*
X16636999Y15271341D01*
X16637000Y15271341D01*
X16637001Y15271341D01*
X16695966Y15276500D01*
X16872408Y15291937D01*
X17100663Y15353097D01*
X17314830Y15452965D01*
X17508401Y15588505D01*
X17675495Y15755599D01*
X17805424Y15941158D01*
X17860002Y15984783D01*
X17929500Y15991977D01*
X17991855Y15960454D01*
X18008575Y15941158D01*
X18138500Y15755605D01*
X18138505Y15755599D01*
X18305599Y15588505D01*
X18383734Y15533794D01*
X18499165Y15452968D01*
X18499167Y15452967D01*
X18499170Y15452965D01*
X18713337Y15353097D01*
X18713343Y15353096D01*
X18713344Y15353095D01*
X18730870Y15348399D01*
X18941592Y15291937D01*
X19118034Y15276500D01*
X19176999Y15271341D01*
X19177000Y15271341D01*
X19177001Y15271341D01*
X19235966Y15276500D01*
X19412408Y15291937D01*
X19640663Y15353097D01*
X19854830Y15452965D01*
X20048401Y15588505D01*
X20215495Y15755599D01*
X20345424Y15941158D01*
X20400002Y15984783D01*
X20469500Y15991977D01*
X20531855Y15960454D01*
X20548575Y15941158D01*
X20678500Y15755605D01*
X20678505Y15755599D01*
X20845599Y15588505D01*
X20923734Y15533794D01*
X21039165Y15452968D01*
X21039167Y15452967D01*
X21039170Y15452965D01*
X21253337Y15353097D01*
X21253343Y15353096D01*
X21253344Y15353095D01*
X21270870Y15348399D01*
X21481592Y15291937D01*
X21658034Y15276500D01*
X21716999Y15271341D01*
X21717000Y15271341D01*
X21717001Y15271341D01*
X21775966Y15276500D01*
X21952408Y15291937D01*
X22180663Y15353097D01*
X22394830Y15452965D01*
X22588401Y15588505D01*
X22755495Y15755599D01*
X22885424Y15941158D01*
X22940002Y15984783D01*
X23009500Y15991977D01*
X23071855Y15960454D01*
X23088575Y15941158D01*
X23218500Y15755605D01*
X23218505Y15755599D01*
X23385599Y15588505D01*
X23463734Y15533794D01*
X23579165Y15452968D01*
X23579167Y15452967D01*
X23579170Y15452965D01*
X23793337Y15353097D01*
X23793343Y15353096D01*
X23793344Y15353095D01*
X23810870Y15348399D01*
X24021592Y15291937D01*
X24198034Y15276500D01*
X24256999Y15271341D01*
X24257000Y15271341D01*
X24257001Y15271341D01*
X24315966Y15276500D01*
X24492408Y15291937D01*
X24720663Y15353097D01*
X24734715Y15359650D01*
X24803788Y15370145D01*
X24867573Y15341629D01*
X24905816Y15283155D01*
X24906375Y15213287D01*
X24869071Y15154209D01*
X24860010Y15146954D01*
X24829255Y15124609D01*
X24829254Y15124608D01*
X24702591Y14983934D01*
X24607946Y14820004D01*
X24607943Y14819997D01*
X24568184Y14697630D01*
X24549451Y14639975D01*
X24529665Y14451719D01*
X24549451Y14263463D01*
X24549452Y14263460D01*
X24607943Y14083442D01*
X24607946Y14083435D01*
X24702592Y13919503D01*
X24797285Y13814336D01*
X24829254Y13778831D01*
X24982390Y13667571D01*
X24982395Y13667568D01*
X25155317Y13590577D01*
X25155322Y13590575D01*
X25340479Y13551219D01*
X25340480Y13551219D01*
X25529769Y13551219D01*
X25529771Y13551219D01*
X25714928Y13590575D01*
X25887855Y13667568D01*
X26040996Y13778831D01*
X26167658Y13919503D01*
X26262304Y14083435D01*
X26320799Y14263463D01*
X26340585Y14451719D01*
X26320799Y14639975D01*
X26262304Y14820003D01*
X26167658Y14983935D01*
X26040996Y15124607D01*
X26040995Y15124608D01*
X25887859Y15235868D01*
X25887854Y15235871D01*
X25714932Y15312862D01*
X25714927Y15312864D01*
X25569125Y15343854D01*
X25529771Y15352219D01*
X25340479Y15352219D01*
X25290657Y15341629D01*
X25148965Y15311512D01*
X25148444Y15313960D01*
X25089831Y15312302D01*
X25030009Y15348399D01*
X24999198Y15411108D01*
X25007182Y15480520D01*
X25050264Y15533793D01*
X25128401Y15588505D01*
X25295495Y15755599D01*
X25425424Y15941158D01*
X25480002Y15984783D01*
X25549500Y15991977D01*
X25611855Y15960454D01*
X25628575Y15941158D01*
X25758500Y15755605D01*
X25758505Y15755599D01*
X25925599Y15588505D01*
X26003734Y15533794D01*
X26119165Y15452968D01*
X26119167Y15452967D01*
X26119170Y15452965D01*
X26333337Y15353097D01*
X26333343Y15353096D01*
X26333344Y15353095D01*
X26350870Y15348399D01*
X26561592Y15291937D01*
X26738034Y15276500D01*
X26796999Y15271341D01*
X26797000Y15271341D01*
X26797001Y15271341D01*
X26855966Y15276500D01*
X27032408Y15291937D01*
X27260663Y15353097D01*
X27474830Y15452965D01*
X27668401Y15588505D01*
X27835495Y15755599D01*
X27965424Y15941158D01*
X28020002Y15984783D01*
X28089500Y15991977D01*
X28151855Y15960454D01*
X28168575Y15941158D01*
X28298500Y15755605D01*
X28298505Y15755599D01*
X28465599Y15588505D01*
X28543734Y15533794D01*
X28659165Y15452968D01*
X28659167Y15452967D01*
X28659170Y15452965D01*
X28873337Y15353097D01*
X28873343Y15353096D01*
X28873344Y15353095D01*
X28890870Y15348399D01*
X29101592Y15291937D01*
X29278034Y15276500D01*
X29336999Y15271341D01*
X29337000Y15271341D01*
X29337001Y15271341D01*
X29395966Y15276500D01*
X29572408Y15291937D01*
X29800663Y15353097D01*
X29815294Y15359920D01*
X29884372Y15370413D01*
X29948156Y15341894D01*
X29986397Y15283418D01*
X29986952Y15213551D01*
X29959851Y15164567D01*
X29929359Y15130703D01*
X29834714Y14966772D01*
X29834711Y14966765D01*
X29778741Y14794505D01*
X29776219Y14786743D01*
X29756433Y14598487D01*
X29776219Y14410231D01*
X29776220Y14410228D01*
X29834711Y14230210D01*
X29834714Y14230203D01*
X29929360Y14066271D01*
X30056022Y13925600D01*
X30056022Y13925599D01*
X30209158Y13814339D01*
X30209163Y13814336D01*
X30382085Y13737345D01*
X30382090Y13737343D01*
X30567247Y13697987D01*
X30567248Y13697987D01*
X30756537Y13697987D01*
X30756539Y13697987D01*
X30941696Y13737343D01*
X31114623Y13814336D01*
X31267764Y13925599D01*
X31394426Y14066271D01*
X31489072Y14230203D01*
X31547567Y14410231D01*
X31567353Y14598487D01*
X31547567Y14786743D01*
X31489072Y14966771D01*
X31397945Y15124608D01*
X31391177Y15136331D01*
X31392465Y15137075D01*
X31371559Y15195661D01*
X31387381Y15263716D01*
X31437484Y15312413D01*
X31505962Y15326292D01*
X31527449Y15322521D01*
X31559400Y15313960D01*
X31641592Y15291937D01*
X31818034Y15276500D01*
X31876999Y15271341D01*
X31877000Y15271341D01*
X31877001Y15271341D01*
X31935966Y15276500D01*
X32112408Y15291937D01*
X32340663Y15353097D01*
X32554830Y15452965D01*
X32748401Y15588505D01*
X32915495Y15755599D01*
X33045424Y15941158D01*
X33100002Y15984783D01*
X33169500Y15991977D01*
X33231855Y15960454D01*
X33248575Y15941158D01*
X33378500Y15755605D01*
X33378505Y15755599D01*
X33545599Y15588505D01*
X33623734Y15533794D01*
X33739165Y15452968D01*
X33739167Y15452967D01*
X33739170Y15452965D01*
X33953337Y15353097D01*
X33953343Y15353096D01*
X33953344Y15353095D01*
X33970870Y15348399D01*
X34181592Y15291937D01*
X34358034Y15276500D01*
X34416999Y15271341D01*
X34417000Y15271341D01*
X34417001Y15271341D01*
X34475966Y15276500D01*
X34652408Y15291937D01*
X34880663Y15353097D01*
X35094830Y15452965D01*
X35288401Y15588505D01*
X35455495Y15755599D01*
X35585424Y15941158D01*
X35640002Y15984783D01*
X35709500Y15991977D01*
X35771855Y15960454D01*
X35788575Y15941158D01*
X35918500Y15755605D01*
X35918505Y15755599D01*
X36085599Y15588505D01*
X36163734Y15533794D01*
X36279165Y15452968D01*
X36279167Y15452967D01*
X36279170Y15452965D01*
X36493337Y15353097D01*
X36493343Y15353096D01*
X36493344Y15353095D01*
X36510870Y15348399D01*
X36721592Y15291937D01*
X36898034Y15276500D01*
X36956999Y15271341D01*
X36957000Y15271341D01*
X36957001Y15271341D01*
X37015966Y15276500D01*
X37192408Y15291937D01*
X37420663Y15353097D01*
X37634830Y15452965D01*
X37828401Y15588505D01*
X37950329Y15710434D01*
X38011648Y15743916D01*
X38081340Y15738932D01*
X38137274Y15697061D01*
X38154189Y15666083D01*
X38203202Y15534672D01*
X38203206Y15534665D01*
X38289452Y15419456D01*
X38289455Y15419453D01*
X38404664Y15333207D01*
X38404671Y15333203D01*
X38539517Y15282909D01*
X38539516Y15282909D01*
X38546444Y15282165D01*
X38599127Y15276500D01*
X40394872Y15276501D01*
X40454483Y15282909D01*
X40589331Y15333204D01*
X40704546Y15419454D01*
X40790796Y15534669D01*
X40841091Y15669517D01*
X40847500Y15729127D01*
X40847499Y17524872D01*
X40841091Y17584483D01*
X40839810Y17587917D01*
X40790797Y17719329D01*
X40790793Y17719336D01*
X40704065Y17835189D01*
X40679647Y17900653D01*
X40694498Y17968926D01*
X40743903Y18018332D01*
X40803331Y18033500D01*
X44960500Y18033500D01*
X45027539Y18013815D01*
X45073294Y17961011D01*
X45084500Y17909500D01*
X45084500Y124500D01*
X45064815Y57461D01*
X45012011Y11706D01*
X44960500Y500D01*
X40818303Y500D01*
X40751264Y20185D01*
X40705509Y72989D01*
X40695565Y142147D01*
X40719037Y198811D01*
X40790793Y294665D01*
X40790792Y294665D01*
X40790796Y294669D01*
X40841091Y429517D01*
X40847500Y489127D01*
X40847499Y2284872D01*
X40841091Y2344483D01*
X40840002Y2347402D01*
X40790797Y2479329D01*
X40790793Y2479336D01*
X40704547Y2594545D01*
X40704544Y2594548D01*
X40589335Y2680794D01*
X40589328Y2680798D01*
X40454482Y2731092D01*
X40454483Y2731092D01*
X40394883Y2737499D01*
X40394881Y2737500D01*
X40394873Y2737500D01*
X40394864Y2737500D01*
X38599129Y2737500D01*
X38599123Y2737499D01*
X38539516Y2731092D01*
X38404671Y2680798D01*
X38404664Y2680794D01*
X38289455Y2594548D01*
X38289452Y2594545D01*
X38203206Y2479336D01*
X38203202Y2479329D01*
X38153997Y2347402D01*
X38112126Y2291468D01*
X38046661Y2267051D01*
X37978388Y2281903D01*
X37950134Y2303054D01*
X37828082Y2425106D01*
X37634578Y2560601D01*
X37420492Y2660430D01*
X37420486Y2660433D01*
X37207000Y2717636D01*
X37207000Y1822502D01*
X37099315Y1871680D01*
X36992763Y1887000D01*
X36921237Y1887000D01*
X36814685Y1871680D01*
X36707000Y1822502D01*
X36707000Y2717636D01*
X36706999Y2717636D01*
X36493513Y2660433D01*
X36493507Y2660430D01*
X36279422Y2560601D01*
X36279420Y2560600D01*
X36085926Y2425114D01*
X36085920Y2425109D01*
X35918891Y2258080D01*
X35918890Y2258078D01*
X35788880Y2072405D01*
X35734303Y2028781D01*
X35664804Y2021588D01*
X35602450Y2053110D01*
X35585730Y2072406D01*
X35455494Y2258403D01*
X35288402Y2425494D01*
X35288395Y2425499D01*
X35094834Y2561033D01*
X35094830Y2561035D01*
X35094829Y2561036D01*
X34880663Y2660903D01*
X34880659Y2660904D01*
X34880655Y2660906D01*
X34652413Y2722062D01*
X34652403Y2722064D01*
X34417001Y2742659D01*
X34416999Y2742659D01*
X34181596Y2722064D01*
X34181586Y2722062D01*
X33953344Y2660906D01*
X33953335Y2660902D01*
X33739171Y2561036D01*
X33739169Y2561035D01*
X33545597Y2425495D01*
X33378505Y2258403D01*
X33248575Y2072842D01*
X33193998Y2029217D01*
X33124500Y2022023D01*
X33062145Y2053546D01*
X33045425Y2072842D01*
X32915494Y2258403D01*
X32748402Y2425494D01*
X32748395Y2425499D01*
X32554834Y2561033D01*
X32554830Y2561035D01*
X32554830Y2561036D01*
X32340663Y2660903D01*
X32340659Y2660904D01*
X32340655Y2660906D01*
X32112413Y2722062D01*
X32112403Y2722064D01*
X31877001Y2742659D01*
X31876999Y2742659D01*
X31641596Y2722064D01*
X31641586Y2722062D01*
X31413344Y2660906D01*
X31413335Y2660902D01*
X31199171Y2561036D01*
X31199169Y2561035D01*
X31005597Y2425495D01*
X30838508Y2258406D01*
X30708574Y2072840D01*
X30653997Y2029216D01*
X30584498Y2022023D01*
X30522144Y2053545D01*
X30505429Y2072836D01*
X30375495Y2258401D01*
X30375493Y2258404D01*
X30208402Y2425494D01*
X30208395Y2425499D01*
X30014834Y2561033D01*
X30014830Y2561035D01*
X30014829Y2561036D01*
X29800663Y2660903D01*
X29800659Y2660904D01*
X29800655Y2660906D01*
X29572413Y2722062D01*
X29572403Y2722064D01*
X29337001Y2742659D01*
X29336999Y2742659D01*
X29101596Y2722064D01*
X29101586Y2722062D01*
X28873344Y2660906D01*
X28873335Y2660902D01*
X28659171Y2561036D01*
X28659169Y2561035D01*
X28465597Y2425495D01*
X28298505Y2258403D01*
X28168575Y2072842D01*
X28113998Y2029217D01*
X28044500Y2022023D01*
X27982145Y2053546D01*
X27965425Y2072842D01*
X27835494Y2258403D01*
X27668402Y2425494D01*
X27668395Y2425499D01*
X27474834Y2561033D01*
X27474830Y2561035D01*
X27474829Y2561036D01*
X27260663Y2660903D01*
X27260659Y2660904D01*
X27260655Y2660906D01*
X27032413Y2722062D01*
X27032403Y2722064D01*
X26797001Y2742659D01*
X26796999Y2742659D01*
X26561596Y2722064D01*
X26561586Y2722062D01*
X26333344Y2660906D01*
X26333335Y2660902D01*
X26119171Y2561036D01*
X26119169Y2561035D01*
X25925597Y2425495D01*
X25758508Y2258406D01*
X25628574Y2072840D01*
X25573997Y2029216D01*
X25504498Y2022023D01*
X25442144Y2053545D01*
X25425429Y2072836D01*
X25295495Y2258401D01*
X25234480Y2319416D01*
X25200997Y2380736D01*
X25205981Y2450428D01*
X25247852Y2506362D01*
X25271727Y2520374D01*
X25335440Y2548741D01*
X25488581Y2660004D01*
X25615243Y2800676D01*
X25709889Y2964608D01*
X25768384Y3144636D01*
X25788170Y3332892D01*
X25768384Y3521148D01*
X25709889Y3701176D01*
X25615243Y3865108D01*
X25488581Y4005780D01*
X25447900Y4035336D01*
X25335443Y4117041D01*
X25335442Y4117042D01*
X25335440Y4117043D01*
X25325410Y4121509D01*
X25272175Y4166760D01*
X25252528Y4221824D01*
X25236667Y4372743D01*
X25178172Y4552771D01*
X25170830Y4565487D01*
X42710433Y4565487D01*
X42730219Y4377231D01*
X42730220Y4377228D01*
X42788711Y4197210D01*
X42788714Y4197203D01*
X42883360Y4033271D01*
X42916714Y3996228D01*
X43010022Y3892599D01*
X43163158Y3781339D01*
X43163163Y3781336D01*
X43336085Y3704345D01*
X43336090Y3704343D01*
X43521247Y3664987D01*
X43521248Y3664987D01*
X43710537Y3664987D01*
X43710539Y3664987D01*
X43895696Y3704343D01*
X44068623Y3781336D01*
X44221764Y3892599D01*
X44348426Y4033271D01*
X44443072Y4197203D01*
X44501567Y4377231D01*
X44521353Y4565487D01*
X44501567Y4753743D01*
X44443072Y4933771D01*
X44348426Y5097703D01*
X44221764Y5238375D01*
X44221763Y5238376D01*
X44068627Y5349636D01*
X44068622Y5349639D01*
X43895700Y5426630D01*
X43895695Y5426632D01*
X43749894Y5457622D01*
X43710539Y5465987D01*
X43521247Y5465987D01*
X43488790Y5459089D01*
X43336090Y5426632D01*
X43336085Y5426630D01*
X43163163Y5349639D01*
X43163158Y5349636D01*
X43010022Y5238376D01*
X42883359Y5097702D01*
X42788714Y4933772D01*
X42788711Y4933765D01*
X42739270Y4781599D01*
X42730219Y4753743D01*
X42710433Y4565487D01*
X25170830Y4565487D01*
X25083526Y4716703D01*
X24956864Y4857375D01*
X24956863Y4857376D01*
X24803727Y4968636D01*
X24803722Y4968639D01*
X24630800Y5045630D01*
X24630795Y5045632D01*
X24484993Y5076622D01*
X24445639Y5084987D01*
X24256347Y5084987D01*
X24223890Y5078089D01*
X24071190Y5045632D01*
X24071185Y5045630D01*
X23898263Y4968639D01*
X23898258Y4968636D01*
X23745122Y4857376D01*
X23618459Y4716702D01*
X23523814Y4552772D01*
X23523811Y4552765D01*
X23490812Y4451203D01*
X23465319Y4372743D01*
X23445533Y4184487D01*
X23465319Y3996231D01*
X23465320Y3996228D01*
X23523811Y3816210D01*
X23523814Y3816203D01*
X23618460Y3652271D01*
X23736520Y3521152D01*
X23745122Y3511599D01*
X23898258Y3400339D01*
X23898260Y3400338D01*
X23898263Y3400336D01*
X23908290Y3395872D01*
X23961526Y3350621D01*
X23981174Y3295555D01*
X23997036Y3144636D01*
X23997037Y3144633D01*
X24055528Y2964615D01*
X24055531Y2964608D01*
X24091456Y2902384D01*
X24107929Y2834483D01*
X24085076Y2768457D01*
X24030155Y2725266D01*
X24016162Y2720609D01*
X23793344Y2660906D01*
X23793335Y2660902D01*
X23579171Y2561036D01*
X23579169Y2561035D01*
X23385597Y2425495D01*
X23218505Y2258403D01*
X23088575Y2072842D01*
X23033998Y2029217D01*
X22964500Y2022023D01*
X22902145Y2053546D01*
X22885425Y2072842D01*
X22755494Y2258403D01*
X22588402Y2425494D01*
X22588395Y2425499D01*
X22394834Y2561033D01*
X22394830Y2561035D01*
X22394830Y2561036D01*
X22180663Y2660903D01*
X22180659Y2660904D01*
X22180655Y2660906D01*
X21952413Y2722062D01*
X21952403Y2722064D01*
X21717001Y2742659D01*
X21716999Y2742659D01*
X21481596Y2722064D01*
X21481586Y2722062D01*
X21253344Y2660906D01*
X21253335Y2660902D01*
X21039171Y2561036D01*
X21039169Y2561035D01*
X20845597Y2425495D01*
X20678508Y2258406D01*
X20548574Y2072840D01*
X20493997Y2029216D01*
X20424498Y2022023D01*
X20362144Y2053545D01*
X20345429Y2072836D01*
X20215495Y2258401D01*
X20215493Y2258404D01*
X20048402Y2425494D01*
X20048395Y2425499D01*
X19854834Y2561033D01*
X19854830Y2561035D01*
X19854829Y2561036D01*
X19640663Y2660903D01*
X19640659Y2660904D01*
X19640655Y2660906D01*
X19412413Y2722062D01*
X19412403Y2722064D01*
X19177001Y2742659D01*
X19176999Y2742659D01*
X18941596Y2722064D01*
X18941586Y2722062D01*
X18713344Y2660906D01*
X18713335Y2660902D01*
X18499171Y2561036D01*
X18499169Y2561035D01*
X18305597Y2425495D01*
X18138505Y2258403D01*
X18008575Y2072842D01*
X17953998Y2029217D01*
X17884500Y2022023D01*
X17822145Y2053546D01*
X17805425Y2072842D01*
X17675494Y2258403D01*
X17508402Y2425494D01*
X17508395Y2425499D01*
X17314834Y2561033D01*
X17314830Y2561035D01*
X17314829Y2561036D01*
X17100663Y2660903D01*
X17100659Y2660904D01*
X17100655Y2660906D01*
X16872413Y2722062D01*
X16872403Y2722064D01*
X16637001Y2742659D01*
X16636999Y2742659D01*
X16401596Y2722064D01*
X16401586Y2722062D01*
X16173344Y2660906D01*
X16173335Y2660902D01*
X15959171Y2561036D01*
X15959169Y2561035D01*
X15765597Y2425495D01*
X15598505Y2258403D01*
X15468575Y2072842D01*
X15413998Y2029217D01*
X15344500Y2022023D01*
X15282145Y2053546D01*
X15265425Y2072842D01*
X15135494Y2258403D01*
X14968402Y2425494D01*
X14968395Y2425499D01*
X14774834Y2561033D01*
X14774830Y2561035D01*
X14774829Y2561036D01*
X14560663Y2660903D01*
X14560659Y2660904D01*
X14560655Y2660906D01*
X14332413Y2722062D01*
X14332403Y2722064D01*
X14097001Y2742659D01*
X14096999Y2742659D01*
X13861596Y2722064D01*
X13861586Y2722062D01*
X13633344Y2660906D01*
X13633335Y2660902D01*
X13419171Y2561036D01*
X13419169Y2561035D01*
X13225597Y2425495D01*
X13058505Y2258403D01*
X12928575Y2072842D01*
X12873998Y2029217D01*
X12804500Y2022023D01*
X12742145Y2053546D01*
X12725425Y2072842D01*
X12595494Y2258403D01*
X12428402Y2425494D01*
X12428395Y2425499D01*
X12234834Y2561033D01*
X12234830Y2561035D01*
X12234829Y2561036D01*
X12020663Y2660903D01*
X12020659Y2660904D01*
X12020655Y2660906D01*
X11792413Y2722062D01*
X11792403Y2722064D01*
X11557001Y2742659D01*
X11556999Y2742659D01*
X11321596Y2722064D01*
X11321586Y2722062D01*
X11093344Y2660906D01*
X11093335Y2660902D01*
X10879171Y2561036D01*
X10879169Y2561035D01*
X10685597Y2425495D01*
X10518508Y2258406D01*
X10388269Y2072405D01*
X10333692Y2028781D01*
X10264193Y2021588D01*
X10201839Y2053110D01*
X10185119Y2072406D01*
X10055113Y2258074D01*
X10055108Y2258080D01*
X9888082Y2425106D01*
X9694578Y2560601D01*
X9480492Y2660430D01*
X9480486Y2660433D01*
X9267000Y2717636D01*
X9267000Y1822502D01*
X9159315Y1871680D01*
X9052763Y1887000D01*
X8981237Y1887000D01*
X8874685Y1871680D01*
X8767000Y1822502D01*
X8767000Y2717636D01*
X8766999Y2717636D01*
X8553513Y2660433D01*
X8553507Y2660430D01*
X8339422Y2560601D01*
X8339420Y2560600D01*
X8145926Y2425114D01*
X8145920Y2425109D01*
X7978891Y2258080D01*
X7978890Y2258078D01*
X7848880Y2072405D01*
X7794303Y2028781D01*
X7724804Y2021588D01*
X7662450Y2053110D01*
X7645730Y2072406D01*
X7515494Y2258403D01*
X7348402Y2425494D01*
X7348395Y2425499D01*
X7154834Y2561033D01*
X7154830Y2561035D01*
X7154828Y2561036D01*
X6940663Y2660903D01*
X6940659Y2660904D01*
X6940655Y2660906D01*
X6712413Y2722062D01*
X6712403Y2722064D01*
X6477001Y2742659D01*
X6476999Y2742659D01*
X6241596Y2722064D01*
X6241586Y2722062D01*
X6013344Y2660906D01*
X6013335Y2660902D01*
X5799171Y2561036D01*
X5799169Y2561035D01*
X5605597Y2425495D01*
X5438505Y2258403D01*
X5308575Y2072842D01*
X5253998Y2029217D01*
X5184500Y2022023D01*
X5122145Y2053546D01*
X5105425Y2072842D01*
X4975494Y2258403D01*
X4808402Y2425494D01*
X4808395Y2425499D01*
X4614834Y2561033D01*
X4614830Y2561035D01*
X4614828Y2561036D01*
X4400663Y2660903D01*
X4400659Y2660904D01*
X4400655Y2660906D01*
X4172413Y2722062D01*
X4172403Y2722064D01*
X3937001Y2742659D01*
X3936999Y2742659D01*
X3701596Y2722064D01*
X3701586Y2722062D01*
X3473344Y2660906D01*
X3473335Y2660902D01*
X3259171Y2561036D01*
X3259169Y2561035D01*
X3065597Y2425495D01*
X2898505Y2258403D01*
X2762965Y2064831D01*
X2762964Y2064829D01*
X2663098Y1850665D01*
X2663094Y1850656D01*
X2601938Y1622414D01*
X2601936Y1622404D01*
X2581341Y1387001D01*
X2581341Y1387000D01*
X2601936Y1151597D01*
X2601938Y1151587D01*
X2663094Y923345D01*
X2663096Y923341D01*
X2663097Y923337D01*
X2742801Y752412D01*
X2762965Y709170D01*
X2762967Y709166D01*
X2871281Y554479D01*
X2898504Y515600D01*
X2898506Y515598D01*
X3065597Y348507D01*
X3065603Y348502D01*
X3240447Y226075D01*
X3284072Y171498D01*
X3291266Y102000D01*
X3259743Y39645D01*
X3199513Y4231D01*
X3169324Y500D01*
X124500Y500D01*
X57461Y20185D01*
X11706Y72989D01*
X500Y124500D01*
X500Y5780254D01*
X20185Y5847293D01*
X72989Y5893048D01*
X142147Y5902992D01*
X205703Y5873967D01*
X237780Y5830689D01*
X284076Y5726703D01*
X332368Y5660236D01*
X398431Y5569308D01*
X398432Y5569307D01*
X398433Y5569306D01*
X398435Y5569303D01*
X479518Y5496297D01*
X543008Y5439130D01*
X581498Y5416908D01*
X711488Y5341858D01*
X711489Y5341857D01*
X711491Y5341857D01*
X711492Y5341856D01*
X896518Y5281738D01*
X1041496Y5266500D01*
X1041501Y5266500D01*
X1988499Y5266500D01*
X1988504Y5266500D01*
X2133482Y5281738D01*
X2318508Y5341856D01*
X2486992Y5439130D01*
X2602540Y5543170D01*
X2631564Y5569303D01*
X2631564Y5569305D01*
X2631569Y5569308D01*
X2745922Y5726701D01*
X2825051Y5904429D01*
X2837392Y5962487D01*
X5118433Y5962487D01*
X5138219Y5774231D01*
X5138220Y5774228D01*
X5196711Y5594210D01*
X5196714Y5594203D01*
X5291360Y5430271D01*
X5418021Y5289600D01*
X5418022Y5289599D01*
X5571158Y5178339D01*
X5571163Y5178336D01*
X5744085Y5101345D01*
X5744090Y5101343D01*
X5929247Y5061987D01*
X5929248Y5061987D01*
X6118537Y5061987D01*
X6118539Y5061987D01*
X6303696Y5101343D01*
X6476623Y5178336D01*
X6629764Y5289599D01*
X6756426Y5430271D01*
X6770407Y5454487D01*
X8420433Y5454487D01*
X8440219Y5266231D01*
X8440220Y5266228D01*
X8498711Y5086210D01*
X8498714Y5086203D01*
X8593360Y4922271D01*
X8720021Y4781600D01*
X8720022Y4781599D01*
X8873158Y4670339D01*
X8873163Y4670336D01*
X9046085Y4593345D01*
X9046090Y4593343D01*
X9231247Y4553987D01*
X9231248Y4553987D01*
X9420537Y4553987D01*
X9420539Y4553987D01*
X9605696Y4593343D01*
X9778623Y4670336D01*
X9931764Y4781599D01*
X10058426Y4922271D01*
X10153072Y5086203D01*
X10190205Y5200487D01*
X12865433Y5200487D01*
X12885219Y5012231D01*
X12885220Y5012228D01*
X12943711Y4832210D01*
X12943714Y4832203D01*
X13038360Y4668271D01*
X13165021Y4527599D01*
X13165022Y4527599D01*
X13318158Y4416339D01*
X13318163Y4416336D01*
X13491085Y4339345D01*
X13491090Y4339343D01*
X13676247Y4299987D01*
X13676248Y4299987D01*
X13865537Y4299987D01*
X13865539Y4299987D01*
X14050696Y4339343D01*
X14223623Y4416336D01*
X14376764Y4527599D01*
X14503426Y4668271D01*
X14598072Y4832203D01*
X14656567Y5012231D01*
X14676353Y5200487D01*
X14656567Y5388743D01*
X14606389Y5543172D01*
X14604395Y5613009D01*
X14606380Y5619776D01*
X14656567Y5774231D01*
X14676353Y5962487D01*
X14656567Y6150743D01*
X14598072Y6330771D01*
X14503426Y6494703D01*
X14376764Y6635375D01*
X14373534Y6637722D01*
X14223627Y6746636D01*
X14223622Y6746639D01*
X14050700Y6823630D01*
X14050695Y6823632D01*
X14039145Y6826087D01*
X18072433Y6826087D01*
X18092219Y6637831D01*
X18092220Y6637828D01*
X18150711Y6457810D01*
X18150714Y6457803D01*
X18245360Y6293871D01*
X18340932Y6187728D01*
X18372022Y6153199D01*
X18525158Y6041939D01*
X18525163Y6041936D01*
X18698085Y5964945D01*
X18698090Y5964943D01*
X18883247Y5925587D01*
X18883248Y5925587D01*
X19072537Y5925587D01*
X19072539Y5925587D01*
X19257696Y5964943D01*
X19430623Y6041936D01*
X19583764Y6153199D01*
X19583768Y6153204D01*
X19588536Y6157496D01*
X19651527Y6187728D01*
X19720862Y6179105D01*
X19763661Y6148321D01*
X19850750Y6051599D01*
X20003886Y5940339D01*
X20003891Y5940336D01*
X20176813Y5863345D01*
X20176818Y5863343D01*
X20218506Y5854483D01*
X20279986Y5821292D01*
X20310656Y5771511D01*
X20346811Y5660235D01*
X20346814Y5660229D01*
X20444709Y5490669D01*
X20443500Y5489972D01*
X20464511Y5431071D01*
X20448681Y5363019D01*
X20441893Y5352455D01*
X20346814Y5187772D01*
X20346811Y5187765D01*
X20300629Y5045630D01*
X20288319Y5007743D01*
X20268533Y4819487D01*
X20288319Y4631231D01*
X20288320Y4631228D01*
X20346811Y4451210D01*
X20346814Y4451203D01*
X20441460Y4287271D01*
X20549969Y4166760D01*
X20568122Y4146599D01*
X20721258Y4035339D01*
X20721263Y4035336D01*
X20894185Y3958345D01*
X20894190Y3958343D01*
X21079347Y3918987D01*
X21079348Y3918987D01*
X21268637Y3918987D01*
X21268639Y3918987D01*
X21453796Y3958343D01*
X21626723Y4035336D01*
X21779864Y4146599D01*
X21906526Y4287271D01*
X22001172Y4451203D01*
X22059667Y4631231D01*
X22079453Y4819487D01*
X22059667Y5007743D01*
X22001172Y5187771D01*
X21912210Y5341858D01*
X21903277Y5357331D01*
X21904488Y5358031D01*
X21883474Y5416908D01*
X21899292Y5484963D01*
X21906086Y5495536D01*
X21906524Y5496296D01*
X21906526Y5496297D01*
X22001172Y5660229D01*
X22059667Y5840257D01*
X22079453Y6028513D01*
X22059667Y6216769D01*
X22001172Y6396797D01*
X21906526Y6560729D01*
X21779864Y6701401D01*
X21779863Y6701402D01*
X21626727Y6812662D01*
X21626722Y6812665D01*
X21453800Y6889656D01*
X21453796Y6889657D01*
X21412106Y6898519D01*
X21350624Y6931712D01*
X21319957Y6981491D01*
X21300250Y7042144D01*
X21283800Y7092771D01*
X21189154Y7256703D01*
X21062492Y7397375D01*
X21030329Y7420743D01*
X20909355Y7508636D01*
X20909350Y7508639D01*
X20736428Y7585630D01*
X20736423Y7585632D01*
X20590621Y7616622D01*
X20551267Y7624987D01*
X20361975Y7624987D01*
X20329518Y7618089D01*
X20176818Y7585632D01*
X20176813Y7585630D01*
X20003891Y7508639D01*
X20003886Y7508636D01*
X19850746Y7397374D01*
X19845967Y7393070D01*
X19782974Y7362845D01*
X19713639Y7371475D01*
X19670852Y7402254D01*
X19654204Y7420743D01*
X19583764Y7498975D01*
X19545644Y7526671D01*
X19430627Y7610236D01*
X19430622Y7610239D01*
X19257700Y7687230D01*
X19257695Y7687232D01*
X19111894Y7718222D01*
X19072539Y7726587D01*
X18883247Y7726587D01*
X18850790Y7719689D01*
X18698090Y7687232D01*
X18698085Y7687230D01*
X18525163Y7610239D01*
X18525158Y7610236D01*
X18372022Y7498976D01*
X18245359Y7358302D01*
X18150714Y7194372D01*
X18150711Y7194365D01*
X18092220Y7014347D01*
X18092219Y7014343D01*
X18072433Y6826087D01*
X14039145Y6826087D01*
X13904894Y6854622D01*
X13865539Y6862987D01*
X13676247Y6862987D01*
X13643790Y6856089D01*
X13491090Y6823632D01*
X13491085Y6823630D01*
X13318163Y6746639D01*
X13318158Y6746636D01*
X13165022Y6635376D01*
X13038359Y6494702D01*
X12943714Y6330772D01*
X12943711Y6330765D01*
X12906672Y6216769D01*
X12885219Y6150743D01*
X12865433Y5962487D01*
X12885219Y5774231D01*
X12885220Y5774228D01*
X12935395Y5619806D01*
X12937390Y5549965D01*
X12935395Y5543170D01*
X12894370Y5416908D01*
X12885219Y5388743D01*
X12865433Y5200487D01*
X10190205Y5200487D01*
X10211567Y5266231D01*
X10231353Y5454487D01*
X10211567Y5642743D01*
X10153072Y5822771D01*
X10058426Y5986703D01*
X9931764Y6127375D01*
X9931763Y6127376D01*
X9778627Y6238636D01*
X9778622Y6238639D01*
X9605700Y6315630D01*
X9605695Y6315632D01*
X9459893Y6346622D01*
X9420539Y6354987D01*
X9231247Y6354987D01*
X9198790Y6348089D01*
X9046090Y6315632D01*
X9046085Y6315630D01*
X8873163Y6238639D01*
X8873158Y6238636D01*
X8720022Y6127376D01*
X8593359Y5986702D01*
X8498714Y5822772D01*
X8498711Y5822765D01*
X8440220Y5642747D01*
X8440219Y5642743D01*
X8420433Y5454487D01*
X6770407Y5454487D01*
X6851072Y5594203D01*
X6909567Y5774231D01*
X6929353Y5962487D01*
X6909567Y6150743D01*
X6851072Y6330771D01*
X6756426Y6494703D01*
X6629764Y6635375D01*
X6626534Y6637722D01*
X6476627Y6746636D01*
X6476622Y6746639D01*
X6303700Y6823630D01*
X6303695Y6823632D01*
X6157893Y6854622D01*
X6118539Y6862987D01*
X5929247Y6862987D01*
X5896790Y6856089D01*
X5744090Y6823632D01*
X5744085Y6823630D01*
X5571163Y6746639D01*
X5571158Y6746636D01*
X5418022Y6635376D01*
X5291359Y6494702D01*
X5196714Y6330772D01*
X5196711Y6330765D01*
X5159672Y6216769D01*
X5138219Y6150743D01*
X5118433Y5962487D01*
X2837392Y5962487D01*
X2865500Y6094726D01*
X2865500Y6289274D01*
X2825051Y6479571D01*
X2755683Y6635376D01*
X2745923Y6657298D01*
X2713879Y6701402D01*
X2631569Y6814692D01*
X2631566Y6814695D01*
X2631564Y6814698D01*
X2532445Y6903944D01*
X2486992Y6944870D01*
X2427740Y6979079D01*
X3310619Y6979079D01*
X3341405Y6830922D01*
X3341407Y6830917D01*
X3341408Y6830915D01*
X3411029Y6696553D01*
X3411031Y6696551D01*
X3411032Y6696549D01*
X3514318Y6585957D01*
X3514320Y6585956D01*
X3643618Y6507328D01*
X3789335Y6466500D01*
X3789336Y6466500D01*
X3902659Y6466500D01*
X3930723Y6470358D01*
X4014920Y6481930D01*
X4124854Y6529682D01*
X4153716Y6542218D01*
X4153716Y6542219D01*
X4153720Y6542220D01*
X4271108Y6637722D01*
X4358377Y6761353D01*
X4381384Y6826087D01*
X4409053Y6903940D01*
X4409053Y6903942D01*
X4409054Y6903944D01*
X4419381Y7054921D01*
X4411263Y7093987D01*
X4388594Y7203079D01*
X4388592Y7203082D01*
X4388592Y7203085D01*
X4318971Y7337447D01*
X4318967Y7337451D01*
X4318967Y7337452D01*
X4215681Y7448044D01*
X4116041Y7508636D01*
X4086382Y7526672D01*
X3940665Y7567500D01*
X3827342Y7567500D01*
X3827341Y7567500D01*
X3715082Y7552071D01*
X3715079Y7552070D01*
X3576283Y7491783D01*
X3458889Y7396276D01*
X3371623Y7272648D01*
X3371621Y7272645D01*
X3320946Y7130061D01*
X3320946Y7130058D01*
X3310619Y6979082D01*
X3310619Y6979079D01*
X2427740Y6979079D01*
X2427735Y6979082D01*
X2318511Y7042143D01*
X2318510Y7042144D01*
X2133483Y7102262D01*
X2109318Y7104802D01*
X1988504Y7117500D01*
X1041496Y7117500D01*
X937940Y7106616D01*
X896516Y7102262D01*
X711489Y7042144D01*
X711488Y7042143D01*
X543009Y6944871D01*
X398435Y6814698D01*
X398433Y6814695D01*
X284076Y6657298D01*
X237780Y6553312D01*
X192530Y6500075D01*
X125681Y6479753D01*
X58457Y6498798D01*
X12201Y6551164D01*
X500Y6603747D01*
X500Y11413649D01*
X20185Y11480688D01*
X72989Y11526443D01*
X142147Y11536387D01*
X205703Y11507362D01*
X240780Y11456717D01*
X262114Y11399113D01*
X302166Y11334855D01*
X369745Y11226433D01*
X369749Y11226428D01*
X460346Y11131120D01*
X509941Y11078947D01*
X638344Y10989576D01*
X676949Y10962706D01*
X676950Y10962706D01*
X676951Y10962705D01*
X863942Y10882460D01*
X1063259Y10841500D01*
X1915743Y10841500D01*
X2067439Y10856926D01*
X2261579Y10917838D01*
X2261580Y10917839D01*
X2261588Y10917841D01*
X2371918Y10979079D01*
X3310619Y10979079D01*
X3341405Y10830922D01*
X3341407Y10830917D01*
X3341408Y10830915D01*
X3411029Y10696553D01*
X3411031Y10696551D01*
X3411032Y10696549D01*
X3514318Y10585957D01*
X3514320Y10585956D01*
X3643618Y10507328D01*
X3789335Y10466500D01*
X3789336Y10466500D01*
X3902659Y10466500D01*
X3930723Y10470358D01*
X4014920Y10481930D01*
X4137006Y10534960D01*
X4153716Y10542218D01*
X4153716Y10542219D01*
X4153720Y10542220D01*
X4271108Y10637722D01*
X4358377Y10761353D01*
X4381135Y10825387D01*
X4409053Y10903940D01*
X4409053Y10903942D01*
X4409054Y10903944D01*
X4409844Y10915487D01*
X5118433Y10915487D01*
X5138219Y10727231D01*
X5138220Y10727228D01*
X5196711Y10547210D01*
X5196714Y10547203D01*
X5291360Y10383271D01*
X5309508Y10363116D01*
X5315548Y10356408D01*
X5345778Y10293417D01*
X5337154Y10224081D01*
X5330787Y10211437D01*
X5323714Y10199187D01*
X5275469Y10050703D01*
X5265219Y10019156D01*
X5245433Y9830900D01*
X5265219Y9642644D01*
X5265220Y9642641D01*
X5323711Y9462623D01*
X5323712Y9462621D01*
X5323714Y9462616D01*
X5330858Y9450243D01*
X5357556Y9404000D01*
X5374028Y9336100D01*
X5357556Y9280003D01*
X5323714Y9221387D01*
X5323713Y9221383D01*
X5272493Y9063743D01*
X5265219Y9041356D01*
X5245433Y8853100D01*
X5265219Y8664844D01*
X5265220Y8664841D01*
X5323711Y8484823D01*
X5323714Y8484816D01*
X5418360Y8320884D01*
X5492516Y8238526D01*
X5545022Y8180212D01*
X5698158Y8068952D01*
X5698163Y8068949D01*
X5871085Y7991958D01*
X5871090Y7991956D01*
X6056247Y7952600D01*
X6056248Y7952600D01*
X6245537Y7952600D01*
X6245539Y7952600D01*
X6430696Y7991956D01*
X6603623Y8068949D01*
X6756764Y8180212D01*
X6792327Y8219709D01*
X24168433Y8219709D01*
X24188219Y8031453D01*
X24188220Y8031450D01*
X24246711Y7851432D01*
X24246714Y7851425D01*
X24341360Y7687493D01*
X24460428Y7555255D01*
X24468022Y7546821D01*
X24621158Y7435561D01*
X24621163Y7435558D01*
X24794084Y7358567D01*
X24794086Y7358567D01*
X24794090Y7358565D01*
X24804004Y7356458D01*
X24865484Y7323267D01*
X24899262Y7262105D01*
X24901276Y7226888D01*
X24901353Y7226888D01*
X24901353Y7225550D01*
X24901544Y7222210D01*
X24901353Y7220390D01*
X24921139Y7032134D01*
X24921140Y7032131D01*
X24979631Y6852113D01*
X24979634Y6852106D01*
X25074280Y6688174D01*
X25121820Y6635376D01*
X25200942Y6547502D01*
X25354078Y6436242D01*
X25354083Y6436239D01*
X25527005Y6359248D01*
X25527010Y6359246D01*
X25712167Y6319890D01*
X25712168Y6319890D01*
X25901457Y6319890D01*
X25901459Y6319890D01*
X26086616Y6359246D01*
X26259543Y6436239D01*
X26412684Y6547502D01*
X26539346Y6688174D01*
X26633992Y6852106D01*
X26692487Y7032134D01*
X26712273Y7220390D01*
X26702557Y7312829D01*
X26715126Y7381556D01*
X26762858Y7432580D01*
X26800089Y7447076D01*
X26946797Y7478259D01*
X26946801Y7478261D01*
X26946802Y7478261D01*
X27015024Y7508636D01*
X27119724Y7555252D01*
X27272865Y7666515D01*
X27399527Y7807187D01*
X27494173Y7971119D01*
X27552668Y8151147D01*
X27572454Y8339403D01*
X27552668Y8527659D01*
X27494173Y8707687D01*
X27476477Y8738336D01*
X27460005Y8806235D01*
X27482858Y8872262D01*
X27491704Y8883294D01*
X27584426Y8986271D01*
X27679072Y9150203D01*
X27737567Y9330231D01*
X27757353Y9518487D01*
X27737567Y9706743D01*
X27679072Y9886771D01*
X27584426Y10050703D01*
X27457764Y10191375D01*
X27457763Y10191376D01*
X27304627Y10302636D01*
X27304622Y10302639D01*
X27131700Y10379630D01*
X27131695Y10379632D01*
X26985893Y10410622D01*
X26946539Y10418987D01*
X26757247Y10418987D01*
X26724790Y10412089D01*
X26572090Y10379632D01*
X26572085Y10379630D01*
X26399163Y10302639D01*
X26399158Y10302636D01*
X26246022Y10191376D01*
X26119359Y10050702D01*
X26024714Y9886772D01*
X26024711Y9886765D01*
X25966623Y9707987D01*
X25966219Y9706743D01*
X25946433Y9518487D01*
X25966219Y9330231D01*
X25966220Y9330228D01*
X26024711Y9150210D01*
X26024714Y9150203D01*
X26042408Y9119556D01*
X26058881Y9051657D01*
X26036029Y8985630D01*
X26027171Y8974585D01*
X25934461Y8871620D01*
X25927666Y8859850D01*
X25877097Y8811636D01*
X25808490Y8798415D01*
X25743626Y8824384D01*
X25728130Y8838881D01*
X25709249Y8859850D01*
X25679764Y8892597D01*
X25644826Y8917981D01*
X25526627Y9003858D01*
X25526622Y9003861D01*
X25353700Y9080852D01*
X25353695Y9080854D01*
X25171606Y9119557D01*
X25168539Y9120209D01*
X24979247Y9120209D01*
X24976180Y9119557D01*
X24794090Y9080854D01*
X24794085Y9080852D01*
X24621163Y9003861D01*
X24621158Y9003858D01*
X24468022Y8892598D01*
X24341359Y8751924D01*
X24246714Y8587994D01*
X24246711Y8587987D01*
X24188220Y8407969D01*
X24188219Y8407965D01*
X24168433Y8219709D01*
X6792327Y8219709D01*
X6883426Y8320884D01*
X6978072Y8484816D01*
X7036567Y8664844D01*
X7056353Y8853100D01*
X7036567Y9041356D01*
X6978072Y9221384D01*
X6944227Y9280004D01*
X6927756Y9347899D01*
X6944227Y9403996D01*
X6978072Y9462616D01*
X6996226Y9518487D01*
X7454133Y9518487D01*
X7473919Y9330231D01*
X7473920Y9330228D01*
X7532411Y9150210D01*
X7532414Y9150203D01*
X7627060Y8986271D01*
X7740890Y8859850D01*
X7753722Y8845599D01*
X7906858Y8734339D01*
X7906863Y8734336D01*
X8079785Y8657345D01*
X8079790Y8657343D01*
X8264947Y8617987D01*
X8264948Y8617987D01*
X8454237Y8617987D01*
X8454239Y8617987D01*
X8639396Y8657343D01*
X8812323Y8734336D01*
X8965464Y8845599D01*
X9092126Y8986271D01*
X9186772Y9150203D01*
X9245267Y9330231D01*
X9265053Y9518487D01*
X9245267Y9706743D01*
X9186772Y9886771D01*
X9164766Y9924887D01*
X15938833Y9924887D01*
X15958619Y9736631D01*
X15958620Y9736628D01*
X16017111Y9556610D01*
X16017114Y9556603D01*
X16111760Y9392671D01*
X16197358Y9297605D01*
X16238422Y9251999D01*
X16391558Y9140739D01*
X16391563Y9140736D01*
X16564485Y9063745D01*
X16564490Y9063743D01*
X16749647Y9024387D01*
X16749648Y9024387D01*
X16938937Y9024387D01*
X16938939Y9024387D01*
X17124096Y9063743D01*
X17297023Y9140736D01*
X17450164Y9251999D01*
X17576826Y9392671D01*
X17671472Y9556603D01*
X17729967Y9736631D01*
X17749753Y9924887D01*
X17729967Y10113143D01*
X17671472Y10293171D01*
X17576826Y10457103D01*
X17450164Y10597775D01*
X17450163Y10597776D01*
X17297027Y10709036D01*
X17297022Y10709039D01*
X17124100Y10786030D01*
X17124095Y10786032D01*
X16978293Y10817022D01*
X16938939Y10825387D01*
X16749647Y10825387D01*
X16717190Y10818489D01*
X16564490Y10786032D01*
X16564485Y10786030D01*
X16391563Y10709039D01*
X16391558Y10709036D01*
X16238422Y10597776D01*
X16111759Y10457102D01*
X16017114Y10293172D01*
X16017111Y10293165D01*
X15961864Y10123131D01*
X15958619Y10113143D01*
X15938833Y9924887D01*
X9164766Y9924887D01*
X9092126Y10050703D01*
X8965464Y10191375D01*
X8965463Y10191376D01*
X8812327Y10302636D01*
X8812322Y10302639D01*
X8639400Y10379630D01*
X8639395Y10379632D01*
X8493593Y10410622D01*
X8454239Y10418987D01*
X8264947Y10418987D01*
X8232490Y10412089D01*
X8079790Y10379632D01*
X8079785Y10379630D01*
X7906863Y10302639D01*
X7906858Y10302636D01*
X7753722Y10191376D01*
X7627059Y10050702D01*
X7532414Y9886772D01*
X7532411Y9886765D01*
X7474323Y9707987D01*
X7473919Y9706743D01*
X7454133Y9518487D01*
X6996226Y9518487D01*
X7036567Y9642644D01*
X7056353Y9830900D01*
X7036567Y10019156D01*
X6978072Y10199184D01*
X6883426Y10363116D01*
X6867435Y10380876D01*
X6859236Y10389982D01*
X6829006Y10452974D01*
X6837632Y10522309D01*
X6843992Y10534942D01*
X6851072Y10547203D01*
X6909567Y10727231D01*
X6929353Y10915487D01*
X6909567Y11103743D01*
X6851072Y11283771D01*
X6756426Y11447703D01*
X6629764Y11588375D01*
X6611351Y11601753D01*
X6476627Y11699636D01*
X6476622Y11699639D01*
X6303700Y11776630D01*
X6303695Y11776632D01*
X6157893Y11807622D01*
X6118539Y11815987D01*
X5929247Y11815987D01*
X5896790Y11809089D01*
X5744090Y11776632D01*
X5744085Y11776630D01*
X5571163Y11699639D01*
X5571158Y11699636D01*
X5418022Y11588376D01*
X5291359Y11447702D01*
X5196714Y11283772D01*
X5196711Y11283765D01*
X5138220Y11103747D01*
X5138219Y11103743D01*
X5118433Y10915487D01*
X4409844Y10915487D01*
X4419381Y11054921D01*
X4403768Y11130056D01*
X4388594Y11203079D01*
X4388592Y11203082D01*
X4388592Y11203085D01*
X4318971Y11337447D01*
X4318967Y11337451D01*
X4318967Y11337452D01*
X4215681Y11448044D01*
X4087041Y11526271D01*
X4086382Y11526672D01*
X3940665Y11567500D01*
X3827342Y11567500D01*
X3827341Y11567500D01*
X3715082Y11552071D01*
X3715079Y11552070D01*
X3576283Y11491783D01*
X3458889Y11396276D01*
X3371623Y11272648D01*
X3371621Y11272645D01*
X3320946Y11130061D01*
X3320946Y11130058D01*
X3310619Y10979082D01*
X3310619Y10979079D01*
X2371918Y10979079D01*
X2439502Y11016591D01*
X2593895Y11149134D01*
X2718448Y11310042D01*
X2808060Y11492729D01*
X2859063Y11689715D01*
X2869369Y11892936D01*
X2844007Y12058487D01*
X26454433Y12058487D01*
X26474219Y11870231D01*
X26474220Y11870228D01*
X26532711Y11690210D01*
X26532714Y11690203D01*
X26627360Y11526271D01*
X26741853Y11399114D01*
X26754022Y11385599D01*
X26907158Y11274339D01*
X26907163Y11274336D01*
X27080085Y11197345D01*
X27080090Y11197343D01*
X27265247Y11157987D01*
X27265248Y11157987D01*
X27454537Y11157987D01*
X27454539Y11157987D01*
X27639696Y11197343D01*
X27812623Y11274336D01*
X27965764Y11385599D01*
X28002163Y11426025D01*
X28061648Y11462672D01*
X28131505Y11461343D01*
X28189553Y11422457D01*
X28201699Y11405052D01*
X28278360Y11272271D01*
X28340656Y11203085D01*
X28405453Y11131120D01*
X28435683Y11068129D01*
X28431234Y11009830D01*
X28389849Y10882460D01*
X28379219Y10849743D01*
X28359433Y10661487D01*
X28379219Y10473231D01*
X28379220Y10473228D01*
X28437711Y10293210D01*
X28437714Y10293203D01*
X28532360Y10129271D01*
X28659022Y9988599D01*
X28812158Y9877339D01*
X28812163Y9877336D01*
X28985085Y9800345D01*
X28985090Y9800343D01*
X29170247Y9760987D01*
X29170248Y9760987D01*
X29359537Y9760987D01*
X29359539Y9760987D01*
X29432666Y9776531D01*
X29502330Y9771215D01*
X29558064Y9729079D01*
X29582170Y9663499D01*
X29576376Y9616923D01*
X29526241Y9462621D01*
X29522219Y9450243D01*
X29517359Y9404001D01*
X29517170Y9402203D01*
X29490584Y9337589D01*
X29433287Y9297605D01*
X29363467Y9294946D01*
X29320965Y9314847D01*
X29216203Y9390961D01*
X29216202Y9390962D01*
X29043280Y9467953D01*
X29043275Y9467955D01*
X28897473Y9498945D01*
X28858119Y9507310D01*
X28668827Y9507310D01*
X28636370Y9500412D01*
X28483670Y9467955D01*
X28483665Y9467953D01*
X28310743Y9390962D01*
X28310738Y9390959D01*
X28157602Y9279699D01*
X28030939Y9139025D01*
X27936294Y8975095D01*
X27936291Y8975088D01*
X27878887Y8798415D01*
X27877799Y8795066D01*
X27858013Y8606810D01*
X27877799Y8418554D01*
X27877800Y8418551D01*
X27936291Y8238533D01*
X27936294Y8238526D01*
X28030940Y8074594D01*
X28124103Y7971126D01*
X28157602Y7933922D01*
X28310738Y7822662D01*
X28310743Y7822659D01*
X28483665Y7745668D01*
X28483670Y7745666D01*
X28668827Y7706310D01*
X28668828Y7706310D01*
X28858117Y7706310D01*
X28858119Y7706310D01*
X29043276Y7745666D01*
X29216203Y7822659D01*
X29369344Y7933922D01*
X29496006Y8074594D01*
X29533001Y8138673D01*
X29583565Y8186887D01*
X29652172Y8200111D01*
X29717037Y8174144D01*
X29757566Y8117231D01*
X29763708Y8063712D01*
X29759212Y8020929D01*
X29756433Y7994487D01*
X29776219Y7806231D01*
X29776220Y7806228D01*
X29834711Y7626210D01*
X29834714Y7626203D01*
X29929360Y7462271D01*
X30041752Y7337447D01*
X30056022Y7321599D01*
X30209158Y7210339D01*
X30209163Y7210336D01*
X30382085Y7133345D01*
X30382090Y7133343D01*
X30567247Y7093987D01*
X30567248Y7093987D01*
X30756537Y7093987D01*
X30756539Y7093987D01*
X30941696Y7133343D01*
X31114623Y7210336D01*
X31267764Y7321599D01*
X31394426Y7462271D01*
X31489072Y7626203D01*
X31547567Y7806231D01*
X31567353Y7994487D01*
X31547567Y8182743D01*
X31489072Y8362771D01*
X31433621Y8458816D01*
X40580085Y8458816D01*
X40607739Y8301975D01*
X40610367Y8287075D01*
X40655370Y8182747D01*
X40674383Y8138670D01*
X40679440Y8126948D01*
X40783578Y7987065D01*
X40783579Y7987064D01*
X40783581Y7987062D01*
X40880933Y7905375D01*
X40917168Y7874970D01*
X41073009Y7796704D01*
X41242698Y7756487D01*
X41242700Y7756487D01*
X41373341Y7756487D01*
X41373348Y7756487D01*
X41503104Y7771653D01*
X41649209Y7824832D01*
X41718936Y7829262D01*
X41779992Y7795292D01*
X41812989Y7733705D01*
X41807452Y7664056D01*
X41799006Y7646310D01*
X41772713Y7600769D01*
X41772711Y7600765D01*
X41718065Y7432580D01*
X41714219Y7420743D01*
X41694433Y7232487D01*
X41714219Y7044231D01*
X41714220Y7044228D01*
X41772711Y6864210D01*
X41772714Y6864203D01*
X41867360Y6700271D01*
X41923677Y6637725D01*
X41994022Y6559599D01*
X42147158Y6448339D01*
X42147163Y6448336D01*
X42320085Y6371345D01*
X42320090Y6371343D01*
X42505247Y6331987D01*
X42505248Y6331987D01*
X42694537Y6331987D01*
X42694539Y6331987D01*
X42879696Y6371343D01*
X43052623Y6448336D01*
X43205764Y6559599D01*
X43332426Y6700271D01*
X43427072Y6864203D01*
X43485567Y7044231D01*
X43505353Y7232487D01*
X43485567Y7420743D01*
X43427072Y7600771D01*
X43332426Y7764703D01*
X43205764Y7905375D01*
X43101098Y7981419D01*
X43058433Y8036749D01*
X43052454Y8106362D01*
X43085060Y8168157D01*
X43145899Y8202515D01*
X43173984Y8205737D01*
X43233787Y8205737D01*
X43233789Y8205737D01*
X43418946Y8245093D01*
X43591873Y8322086D01*
X43745014Y8433349D01*
X43871676Y8574021D01*
X43966322Y8737953D01*
X44024817Y8917981D01*
X44044603Y9106237D01*
X44024817Y9294493D01*
X43966322Y9474521D01*
X43871676Y9638453D01*
X43745014Y9779125D01*
X43745013Y9779126D01*
X43590050Y9891713D01*
X43547384Y9947043D01*
X43541405Y10016656D01*
X43574011Y10078451D01*
X43612499Y10105310D01*
X43701001Y10144714D01*
X43854142Y10255977D01*
X43980804Y10396649D01*
X44075450Y10560581D01*
X44133945Y10740609D01*
X44153731Y10928865D01*
X44133945Y11117121D01*
X44075450Y11297149D01*
X43980804Y11461081D01*
X43854142Y11601753D01*
X43854141Y11601754D01*
X43701005Y11713014D01*
X43701000Y11713017D01*
X43528078Y11790008D01*
X43528073Y11790010D01*
X43382272Y11821000D01*
X43342917Y11829365D01*
X43153625Y11829365D01*
X43121168Y11822467D01*
X42968468Y11790010D01*
X42968463Y11790008D01*
X42795541Y11713017D01*
X42795536Y11713014D01*
X42642400Y11601754D01*
X42515737Y11461080D01*
X42421092Y11297150D01*
X42421089Y11297143D01*
X42366800Y11130056D01*
X42362597Y11117121D01*
X42342811Y10928865D01*
X42362597Y10740609D01*
X42362598Y10740606D01*
X42421089Y10560588D01*
X42421092Y10560581D01*
X42515738Y10396649D01*
X42608910Y10293171D01*
X42642400Y10255977D01*
X42797363Y10143390D01*
X42840029Y10088060D01*
X42846008Y10018447D01*
X42813402Y9956652D01*
X42774915Y9929793D01*
X42686410Y9890387D01*
X42686408Y9890386D01*
X42533272Y9779126D01*
X42406609Y9638452D01*
X42311964Y9474522D01*
X42311961Y9474515D01*
X42254480Y9297605D01*
X42253469Y9294493D01*
X42233683Y9106237D01*
X42253469Y8917981D01*
X42253470Y8917978D01*
X42311961Y8737960D01*
X42311964Y8737953D01*
X42406610Y8574021D01*
X42533272Y8433349D01*
X42617617Y8372069D01*
X42637938Y8357305D01*
X42680603Y8301975D01*
X42686582Y8232362D01*
X42653976Y8170567D01*
X42593137Y8136209D01*
X42565052Y8132987D01*
X42505247Y8132987D01*
X42472790Y8126089D01*
X42320090Y8093632D01*
X42177651Y8030213D01*
X42108401Y8020929D01*
X42045125Y8050557D01*
X42007912Y8109692D01*
X42008577Y8179559D01*
X42016730Y8198349D01*
X42016685Y8198368D01*
X42019541Y8204993D01*
X42019546Y8205000D01*
X42069561Y8372064D01*
X42079701Y8546158D01*
X42049419Y8717899D01*
X41980346Y8878026D01*
X41876208Y9017909D01*
X41876205Y9017911D01*
X41876204Y9017913D01*
X41742618Y9130004D01*
X41742616Y9130005D01*
X41586780Y9208269D01*
X41586778Y9208270D01*
X41586777Y9208270D01*
X41417088Y9248487D01*
X41286438Y9248487D01*
X41185516Y9236692D01*
X41156680Y9233321D01*
X41156678Y9233320D01*
X40992810Y9173677D01*
X40992806Y9173675D01*
X40847111Y9077850D01*
X40847110Y9077849D01*
X40727436Y8951002D01*
X40727432Y8950997D01*
X40640240Y8799976D01*
X40590226Y8632914D01*
X40590224Y8632906D01*
X40580085Y8458817D01*
X40580085Y8458816D01*
X31433621Y8458816D01*
X31394426Y8526703D01*
X31267764Y8667375D01*
X31243003Y8685365D01*
X31200337Y8740695D01*
X31194358Y8810308D01*
X31208499Y8847680D01*
X31235072Y8893703D01*
X31293567Y9073731D01*
X31313353Y9261987D01*
X31293567Y9450243D01*
X31235072Y9630271D01*
X31140426Y9794203D01*
X31013764Y9934875D01*
X31013763Y9934876D01*
X30860627Y10046136D01*
X30860622Y10046139D01*
X30687700Y10123130D01*
X30687695Y10123132D01*
X30541893Y10154122D01*
X30502539Y10162487D01*
X30313247Y10162487D01*
X30313245Y10162487D01*
X30240120Y10146944D01*
X30170453Y10152260D01*
X30114720Y10194398D01*
X30090615Y10259978D01*
X30096408Y10306550D01*
X30150567Y10473231D01*
X30170353Y10661487D01*
X30150567Y10849743D01*
X30092072Y11029771D01*
X30011407Y11169487D01*
X38011433Y11169487D01*
X38031219Y10981231D01*
X38031220Y10981228D01*
X38089711Y10801210D01*
X38089714Y10801203D01*
X38184360Y10637271D01*
X38276482Y10534960D01*
X38311022Y10496599D01*
X38464158Y10385339D01*
X38464159Y10385339D01*
X38464163Y10385336D01*
X38485514Y10375830D01*
X38538751Y10330582D01*
X38559073Y10263733D01*
X38542467Y10200552D01*
X38470713Y10076269D01*
X38470711Y10076265D01*
X38424771Y9934875D01*
X38412219Y9896243D01*
X38392433Y9707987D01*
X38412219Y9519731D01*
X38412220Y9519728D01*
X38470711Y9339710D01*
X38470714Y9339703D01*
X38565360Y9175771D01*
X38657240Y9073728D01*
X38692022Y9035099D01*
X38845158Y8923839D01*
X38845163Y8923836D01*
X39018085Y8846845D01*
X39018090Y8846843D01*
X39203247Y8807487D01*
X39203248Y8807487D01*
X39392537Y8807487D01*
X39392539Y8807487D01*
X39577696Y8846843D01*
X39750623Y8923836D01*
X39903764Y9035099D01*
X40030426Y9175771D01*
X40125072Y9339703D01*
X40183567Y9519731D01*
X40203353Y9707987D01*
X40183567Y9896243D01*
X40125072Y10076271D01*
X40030426Y10240203D01*
X39903764Y10380875D01*
X39903763Y10380876D01*
X39750626Y10492137D01*
X39729268Y10501646D01*
X39676032Y10546898D01*
X39655712Y10613747D01*
X39672317Y10676922D01*
X39744072Y10801203D01*
X39802567Y10981231D01*
X39822353Y11169487D01*
X39802567Y11357743D01*
X39744072Y11537771D01*
X39649426Y11701703D01*
X39522764Y11842375D01*
X39522763Y11842376D01*
X39369627Y11953636D01*
X39369622Y11953639D01*
X39196700Y12030630D01*
X39196695Y12030632D01*
X39050893Y12061622D01*
X39011539Y12069987D01*
X38822247Y12069987D01*
X38789790Y12063089D01*
X38637090Y12030632D01*
X38637085Y12030630D01*
X38464163Y11953639D01*
X38464158Y11953636D01*
X38311022Y11842376D01*
X38184359Y11701702D01*
X38089714Y11537772D01*
X38089711Y11537765D01*
X38031220Y11357747D01*
X38031219Y11357743D01*
X38011433Y11169487D01*
X30011407Y11169487D01*
X29997426Y11193703D01*
X29870764Y11334375D01*
X29870332Y11334855D01*
X29840102Y11397846D01*
X29844550Y11456143D01*
X29896567Y11616231D01*
X29916353Y11804487D01*
X29896567Y11992743D01*
X29838072Y12172771D01*
X29743426Y12336703D01*
X29616764Y12477375D01*
X29616763Y12477376D01*
X29463627Y12588636D01*
X29463622Y12588639D01*
X29290700Y12665630D01*
X29290695Y12665632D01*
X29144894Y12696622D01*
X29105539Y12704987D01*
X28916247Y12704987D01*
X28883790Y12698089D01*
X28731090Y12665632D01*
X28731085Y12665630D01*
X28558163Y12588639D01*
X28558158Y12588636D01*
X28405022Y12477376D01*
X28405021Y12477375D01*
X28368622Y12436950D01*
X28309135Y12400302D01*
X28239278Y12401633D01*
X28181230Y12440520D01*
X28169086Y12457924D01*
X28092429Y12590699D01*
X28092427Y12590702D01*
X27965763Y12731376D01*
X27812627Y12842636D01*
X27812622Y12842639D01*
X27639700Y12919630D01*
X27639695Y12919632D01*
X27493894Y12950622D01*
X27454539Y12958987D01*
X27265247Y12958987D01*
X27232790Y12952089D01*
X27080090Y12919632D01*
X27080085Y12919630D01*
X26907163Y12842639D01*
X26907158Y12842636D01*
X26754022Y12731376D01*
X26627359Y12590702D01*
X26532714Y12426772D01*
X26532711Y12426765D01*
X26474220Y12246747D01*
X26474219Y12246743D01*
X26454433Y12058487D01*
X2844007Y12058487D01*
X2838556Y12094071D01*
X2767886Y12284887D01*
X2660252Y12457571D01*
X2520059Y12605053D01*
X2421587Y12673591D01*
X2353050Y12721295D01*
X2166056Y12801541D01*
X1966741Y12842500D01*
X1114258Y12842500D01*
X1114257Y12842500D01*
X962560Y12827075D01*
X768420Y12766163D01*
X768405Y12766156D01*
X590500Y12667411D01*
X590495Y12667408D01*
X436106Y12534868D01*
X436104Y12534866D01*
X311554Y12373963D01*
X311553Y12373960D01*
X311552Y12373959D01*
X311552Y12373958D01*
X249151Y12246743D01*
X235828Y12219583D01*
X188631Y12168064D01*
X121073Y12150239D01*
X54603Y12171769D01*
X10325Y12225817D01*
X500Y12274192D01*
X500Y13176087D01*
X8281033Y13176087D01*
X8300819Y12987831D01*
X8300820Y12987828D01*
X8359311Y12807810D01*
X8359314Y12807803D01*
X8453960Y12643871D01*
X8503694Y12588636D01*
X8580622Y12503199D01*
X8733758Y12391939D01*
X8733763Y12391936D01*
X8906685Y12314945D01*
X8906690Y12314943D01*
X9091847Y12275587D01*
X9091848Y12275587D01*
X9281137Y12275587D01*
X9281139Y12275587D01*
X9466296Y12314943D01*
X9639223Y12391936D01*
X9792364Y12503199D01*
X9919026Y12643871D01*
X10013672Y12807803D01*
X10072167Y12987831D01*
X10091953Y13176087D01*
X10072167Y13364343D01*
X10013672Y13544371D01*
X9919026Y13708303D01*
X9792364Y13848975D01*
X9792363Y13848976D01*
X9639227Y13960236D01*
X9639222Y13960239D01*
X9526659Y14010356D01*
X10690494Y14010356D01*
X10710280Y13822100D01*
X10710281Y13822097D01*
X10768772Y13642079D01*
X10768775Y13642072D01*
X10863421Y13478140D01*
X10945331Y13387170D01*
X10990083Y13337468D01*
X11143219Y13226208D01*
X11143224Y13226205D01*
X11316146Y13149214D01*
X11316151Y13149212D01*
X11501308Y13109856D01*
X11501309Y13109856D01*
X11690598Y13109856D01*
X11690600Y13109856D01*
X11875757Y13149212D01*
X12048684Y13226205D01*
X12201825Y13337468D01*
X12219287Y13356863D01*
X12278770Y13393511D01*
X12348627Y13392183D01*
X12361873Y13387170D01*
X12510379Y13321050D01*
X12510382Y13321050D01*
X12510385Y13321048D01*
X12525774Y13317777D01*
X12587256Y13284588D01*
X12617928Y13234805D01*
X12654416Y13122504D01*
X12654419Y13122498D01*
X12749065Y12958566D01*
X12853447Y12842638D01*
X12875727Y12817894D01*
X13028863Y12706634D01*
X13028868Y12706631D01*
X13201790Y12629640D01*
X13201795Y12629638D01*
X13386952Y12590282D01*
X13386953Y12590282D01*
X13576242Y12590282D01*
X13576244Y12590282D01*
X13761401Y12629638D01*
X13934328Y12706631D01*
X14087469Y12817894D01*
X14214131Y12958566D01*
X14300661Y13108442D01*
X14351225Y13156654D01*
X14419832Y13169878D01*
X14484697Y13143910D01*
X14525226Y13086996D01*
X14531365Y13059406D01*
X14536219Y13013231D01*
X14536220Y13013228D01*
X14594711Y12833210D01*
X14594714Y12833203D01*
X14689360Y12669271D01*
X14810377Y12534868D01*
X14816022Y12528599D01*
X14969158Y12417339D01*
X14969163Y12417336D01*
X15142085Y12340345D01*
X15142090Y12340343D01*
X15327247Y12300987D01*
X15327248Y12300987D01*
X15516537Y12300987D01*
X15516539Y12300987D01*
X15701696Y12340343D01*
X15874623Y12417336D01*
X16027764Y12528599D01*
X16154426Y12669271D01*
X16249072Y12833203D01*
X16307567Y13013231D01*
X16327353Y13201487D01*
X16307567Y13389743D01*
X16249072Y13569771D01*
X16154426Y13733703D01*
X16061879Y13836487D01*
X17183433Y13836487D01*
X17203219Y13648231D01*
X17203220Y13648228D01*
X17261711Y13468210D01*
X17261714Y13468203D01*
X17356360Y13304271D01*
X17471777Y13176088D01*
X17483022Y13163599D01*
X17636158Y13052339D01*
X17636163Y13052336D01*
X17809085Y12975345D01*
X17809090Y12975343D01*
X17994247Y12935987D01*
X17994248Y12935987D01*
X18183537Y12935987D01*
X18183539Y12935987D01*
X18368696Y12975343D01*
X18541623Y13052336D01*
X18694764Y13163599D01*
X18821426Y13304271D01*
X18916072Y13468203D01*
X18939016Y13538816D01*
X39565085Y13538816D01*
X39591823Y13387170D01*
X39595367Y13367075D01*
X39664440Y13206948D01*
X39768578Y13067065D01*
X39768579Y13067064D01*
X39768581Y13067062D01*
X39840011Y13007126D01*
X39902168Y12954970D01*
X40058009Y12876704D01*
X40227698Y12836487D01*
X40227700Y12836487D01*
X40358341Y12836487D01*
X40358348Y12836487D01*
X40488104Y12851653D01*
X40651977Y12911298D01*
X40797677Y13007127D01*
X40917351Y13133974D01*
X41004546Y13285000D01*
X41054561Y13452064D01*
X41059614Y13538816D01*
X41595085Y13538816D01*
X41621823Y13387170D01*
X41625367Y13367075D01*
X41694440Y13206948D01*
X41798578Y13067065D01*
X41798579Y13067064D01*
X41798581Y13067062D01*
X41870011Y13007126D01*
X41932168Y12954970D01*
X42088009Y12876704D01*
X42257698Y12836487D01*
X42257700Y12836487D01*
X42388341Y12836487D01*
X42388348Y12836487D01*
X42518104Y12851653D01*
X42681977Y12911298D01*
X42827677Y13007127D01*
X42947351Y13133974D01*
X43034546Y13285000D01*
X43084561Y13452064D01*
X43094701Y13626158D01*
X43064419Y13797899D01*
X42995346Y13958026D01*
X42891208Y14097909D01*
X42891205Y14097911D01*
X42891204Y14097913D01*
X42757618Y14210004D01*
X42757616Y14210005D01*
X42601780Y14288269D01*
X42601778Y14288270D01*
X42601777Y14288270D01*
X42432088Y14328487D01*
X42301438Y14328487D01*
X42200516Y14316692D01*
X42171680Y14313321D01*
X42171678Y14313320D01*
X42007810Y14253677D01*
X42007806Y14253675D01*
X41862111Y14157850D01*
X41862110Y14157849D01*
X41742436Y14031002D01*
X41742432Y14030997D01*
X41655240Y13879976D01*
X41605226Y13712914D01*
X41605224Y13712906D01*
X41595085Y13538817D01*
X41595085Y13538816D01*
X41059614Y13538816D01*
X41064701Y13626158D01*
X41034419Y13797899D01*
X40965346Y13958026D01*
X40861208Y14097909D01*
X40861205Y14097911D01*
X40861204Y14097913D01*
X40727618Y14210004D01*
X40727616Y14210005D01*
X40571780Y14288269D01*
X40571778Y14288270D01*
X40571777Y14288270D01*
X40402088Y14328487D01*
X40271438Y14328487D01*
X40170516Y14316692D01*
X40141680Y14313321D01*
X40141678Y14313320D01*
X39977810Y14253677D01*
X39977806Y14253675D01*
X39832111Y14157850D01*
X39832110Y14157849D01*
X39712436Y14031002D01*
X39712432Y14030997D01*
X39625240Y13879976D01*
X39575226Y13712914D01*
X39575224Y13712906D01*
X39565085Y13538817D01*
X39565085Y13538816D01*
X18939016Y13538816D01*
X18974567Y13648231D01*
X18994353Y13836487D01*
X18974567Y14024743D01*
X18916072Y14204771D01*
X18821426Y14368703D01*
X18694764Y14509375D01*
X18694763Y14509376D01*
X18541627Y14620636D01*
X18541622Y14620639D01*
X18368700Y14697630D01*
X18368695Y14697632D01*
X18222894Y14728622D01*
X18183539Y14736987D01*
X17994247Y14736987D01*
X17961790Y14730089D01*
X17809090Y14697632D01*
X17809085Y14697630D01*
X17636163Y14620639D01*
X17636158Y14620636D01*
X17483022Y14509376D01*
X17356359Y14368702D01*
X17261714Y14204772D01*
X17261711Y14204765D01*
X17205252Y14031000D01*
X17203219Y14024743D01*
X17183433Y13836487D01*
X16061879Y13836487D01*
X16027764Y13874375D01*
X16020055Y13879976D01*
X15874627Y13985636D01*
X15874622Y13985639D01*
X15701700Y14062630D01*
X15701695Y14062632D01*
X15535734Y14097907D01*
X15516539Y14101987D01*
X15327247Y14101987D01*
X15308052Y14097907D01*
X15142090Y14062632D01*
X15142085Y14062630D01*
X14969163Y13985639D01*
X14969158Y13985636D01*
X14816022Y13874376D01*
X14689358Y13733702D01*
X14602831Y13583831D01*
X14552264Y13535615D01*
X14483657Y13522392D01*
X14418792Y13548360D01*
X14378264Y13605275D01*
X14372125Y13632861D01*
X14367272Y13679038D01*
X14308777Y13859066D01*
X14214131Y14022998D01*
X14087469Y14163670D01*
X14087468Y14163671D01*
X13934332Y14274931D01*
X13934327Y14274934D01*
X13761405Y14351925D01*
X13761406Y14351925D01*
X13746003Y14355199D01*
X13684522Y14388394D01*
X13653857Y14438171D01*
X13617369Y14550471D01*
X13617366Y14550477D01*
X13522721Y14714408D01*
X13396059Y14855080D01*
X13396058Y14855081D01*
X13242922Y14966341D01*
X13242917Y14966344D01*
X13069995Y15043335D01*
X13069990Y15043337D01*
X12924189Y15074327D01*
X12884834Y15082692D01*
X12695542Y15082692D01*
X12663085Y15075794D01*
X12510385Y15043337D01*
X12510380Y15043335D01*
X12337458Y14966344D01*
X12337453Y14966341D01*
X12184323Y14855086D01*
X12184318Y14855082D01*
X12166850Y14835682D01*
X12107362Y14799036D01*
X12037505Y14800369D01*
X12024267Y14805379D01*
X11875761Y14871499D01*
X11875756Y14871501D01*
X11729955Y14902491D01*
X11690600Y14910856D01*
X11501308Y14910856D01*
X11468851Y14903958D01*
X11316151Y14871501D01*
X11316146Y14871499D01*
X11143224Y14794508D01*
X11143219Y14794505D01*
X10990083Y14683245D01*
X10863420Y14542571D01*
X10768775Y14378641D01*
X10768772Y14378634D01*
X10712281Y14204771D01*
X10710280Y14198612D01*
X10690494Y14010356D01*
X9526659Y14010356D01*
X9466300Y14037230D01*
X9466295Y14037232D01*
X9320494Y14068222D01*
X9281139Y14076587D01*
X9091847Y14076587D01*
X9059390Y14069689D01*
X8906690Y14037232D01*
X8906685Y14037230D01*
X8733763Y13960239D01*
X8733758Y13960236D01*
X8580622Y13848976D01*
X8453959Y13708302D01*
X8359314Y13544372D01*
X8359311Y13544365D01*
X8300820Y13364347D01*
X8300819Y13364343D01*
X8281033Y13176087D01*
X500Y13176087D01*
X500Y17909500D01*
X20185Y17976539D01*
X72989Y18022294D01*
X124500Y18033500D01*
X643118Y18033500D01*
X710157Y18013815D01*
G37*
%TD.AperFunction*%
%TD*%
M02*
