%TF.GenerationSoftware,KiCad,Pcbnew,(7.0.0-0)*%
%TF.CreationDate,2023-03-26T13:07:46-04:00*%
%TF.ProjectId,mini_arduino_clone,6d696e69-5f61-4726-9475-696e6f5f636c,rev?*%
%TF.SameCoordinates,Original*%
%TF.FileFunction,Copper,L3,Inr*%
%TF.FilePolarity,Positive*%
%FSLAX46Y46*%
G04 Gerber Fmt 4.6, Leading zero omitted, Abs format (unit mm)*
G04 Created by KiCad (PCBNEW (7.0.0-0)) date 2023-03-26 13:07:46*
%MOMM*%
%LPD*%
G01*
G04 APERTURE LIST*
%TA.AperFunction,ComponentPad*%
%ADD10O,1.700000X1.000000*%
%TD*%
%TA.AperFunction,ComponentPad*%
%ADD11O,1.700000X0.850000*%
%TD*%
%TA.AperFunction,ComponentPad*%
%ADD12R,1.700000X1.700000*%
%TD*%
%TA.AperFunction,ComponentPad*%
%ADD13O,1.700000X1.700000*%
%TD*%
%TA.AperFunction,ViaPad*%
%ADD14C,0.800000*%
%TD*%
%TA.AperFunction,Conductor*%
%ADD15C,0.500000*%
%TD*%
G04 APERTURE END LIST*
D10*
%TO.N,unconnected-(J101-Shield-Pad6)*%
%TO.C,J101*%
X1514999Y11841999D03*
D11*
X1514999Y6191999D03*
%TD*%
D12*
%TO.N,/D5*%
%TO.C,J103*%
X39496999Y16626999D03*
D13*
%TO.N,/D6*%
X36956999Y16626999D03*
%TO.N,/D7*%
X34416999Y16626999D03*
%TO.N,/D8*%
X31876999Y16626999D03*
%TO.N,/D9*%
X29336999Y16626999D03*
%TO.N,/D10*%
X26796999Y16626999D03*
%TO.N,/D11{slash}MOSI*%
X24256999Y16626999D03*
%TO.N,/D12{slash}MISO*%
X21716999Y16626999D03*
%TO.N,/D4*%
X19176999Y16626999D03*
%TO.N,/D3*%
X16636999Y16626999D03*
%TO.N,/D2*%
X14096999Y16626999D03*
%TO.N,GND*%
X11556999Y16626999D03*
%TO.N,/~{RESET}*%
X9016999Y16626999D03*
%TO.N,/D0{slash}RX*%
X6476999Y16626999D03*
%TO.N,/D1{slash}TX*%
X3936999Y16626999D03*
%TD*%
D12*
%TO.N,/D13{slash}SCK*%
%TO.C,J104*%
X39496999Y1386999D03*
D13*
%TO.N,GND*%
X36956999Y1386999D03*
%TO.N,/~{RESET}*%
X34416999Y1386999D03*
%TO.N,+5V*%
X31876999Y1386999D03*
%TO.N,/A7*%
X29336999Y1386999D03*
%TO.N,/A6*%
X26796999Y1386999D03*
%TO.N,/A5{slash}SCL*%
X24256999Y1386999D03*
%TO.N,/A4{slash}~{SDA}*%
X21716999Y1386999D03*
%TO.N,/A3*%
X19176999Y1386999D03*
%TO.N,/A2*%
X16636999Y1386999D03*
%TO.N,/A1*%
X14096999Y1386999D03*
%TO.N,/A0*%
X11556999Y1386999D03*
%TO.N,GND*%
X9016999Y1386999D03*
%TO.N,+3V3*%
X6476999Y1386999D03*
%TO.N,VBUS*%
X3936999Y1386999D03*
%TD*%
D14*
%TO.N,GND*%
X20628893Y3676487D03*
X2086893Y3676487D03*
X7903493Y5403687D03*
X21162293Y11957387D03*
X16539493Y4641687D03*
X43920693Y1644487D03*
X20298693Y14192087D03*
X13135893Y9518487D03*
X29696693Y7118865D03*
X35995893Y11589568D03*
X10468893Y6597487D03*
X34569933Y6728047D03*
X40313893Y6597487D03*
X43920693Y16325687D03*
X5973093Y7384887D03*
X35437093Y4336887D03*
X34268693Y2965287D03*
X38662893Y12820487D03*
X6165244Y12007687D03*
%TO.N,VBUS*%
X6023893Y10915487D03*
X6023893Y5962487D03*
%TO.N,+5V*%
X30661893Y7994487D03*
X1324893Y17138487D03*
X25200893Y14725487D03*
X39043893Y9010487D03*
X18088893Y13836487D03*
X13770893Y5962487D03*
X13770893Y5200487D03*
X42345893Y2787487D03*
%TO.N,/~{RESET}*%
X8359593Y9518487D03*
X15421893Y13201487D03*
X26666994Y8339403D03*
X11595954Y14010356D03*
%TO.N,+3V3*%
X20628893Y4819487D03*
%TO.N,/USB_UART/VBUS*%
X9325893Y5454487D03*
X9186493Y13176087D03*
%TO.N,/D_P*%
X6150893Y8853100D03*
X13481598Y13490782D03*
%TO.N,/D_N*%
X12790188Y14182192D03*
X6150893Y9830900D03*
%TO.N,/D12{slash}MISO*%
X43170393Y7867487D03*
X27359893Y12058487D03*
%TO.N,/D13{slash}SCK*%
X43615893Y10534487D03*
X31119771Y14294365D03*
%TO.N,/D11{slash}MOSI*%
X29264893Y10661487D03*
X38916893Y11169487D03*
%TO.N,/D2*%
X26851893Y9518487D03*
%TO.N,/D3*%
X28763473Y8606810D03*
%TO.N,/D4*%
X30407893Y9261987D03*
%TO.N,/D10*%
X29010893Y11804487D03*
%TO.N,/A7*%
X25200893Y8121487D03*
%TO.N,/A6*%
X25806813Y7220390D03*
%TO.N,/A1*%
X21173993Y6028513D03*
%TO.N,/A0*%
X20456621Y6724487D03*
%TO.N,/D0{slash}RX*%
X24350993Y4184487D03*
X16844293Y9924887D03*
%TO.N,/D1{slash}TX*%
X18977893Y6826087D03*
X24882710Y3332892D03*
%TD*%
D15*
%TO.N,GND*%
X8106693Y14395287D02*
X7674893Y13963487D01*
X11557000Y16627000D02*
X12569513Y15614487D01*
X9325287Y14395287D02*
X8106693Y14395287D01*
X11557000Y16627000D02*
X9325287Y14395287D01*
X12569513Y15614487D02*
X12754893Y15614487D01*
%TD*%
%TA.AperFunction,Conductor*%
%TO.N,GND*%
G36*
X701150Y18019389D02*
G01*
X745523Y17980269D01*
X766723Y17925042D01*
X759924Y17866277D01*
X726673Y17817350D01*
X724277Y17815194D01*
X719022Y17811375D01*
X714677Y17806551D01*
X714673Y17806546D01*
X596706Y17675531D01*
X596701Y17675525D01*
X592360Y17670703D01*
X589115Y17665083D01*
X589111Y17665077D01*
X500962Y17512398D01*
X500959Y17512393D01*
X497714Y17506771D01*
X495708Y17500599D01*
X495706Y17500593D01*
X441226Y17332923D01*
X441224Y17332914D01*
X439219Y17326743D01*
X438541Y17320293D01*
X438539Y17320283D01*
X420855Y17152023D01*
X419433Y17138487D01*
X420112Y17132027D01*
X438539Y16956692D01*
X438540Y16956684D01*
X439219Y16950231D01*
X441224Y16944059D01*
X441226Y16944052D01*
X483158Y16815000D01*
X497714Y16770203D01*
X592360Y16606271D01*
X719022Y16465599D01*
X872163Y16354336D01*
X1045090Y16277343D01*
X1230247Y16237987D01*
X1413036Y16237987D01*
X1419539Y16237987D01*
X1604696Y16277343D01*
X1777623Y16354336D01*
X1930764Y16465599D01*
X2057426Y16606271D01*
X2152072Y16770203D01*
X2210567Y16950231D01*
X2230353Y17138487D01*
X2210567Y17326743D01*
X2152072Y17506771D01*
X2057426Y17670703D01*
X1930764Y17811375D01*
X1925507Y17815195D01*
X1923113Y17817350D01*
X1889862Y17866277D01*
X1883063Y17925042D01*
X1904263Y17980269D01*
X1948636Y18019389D01*
X2006085Y18033500D01*
X3199982Y18033500D01*
X3261982Y18016887D01*
X3307369Y17971500D01*
X3323982Y17909500D01*
X3307369Y17847499D01*
X3262418Y17802550D01*
X3259171Y17801035D01*
X3254741Y17797934D01*
X3254732Y17797928D01*
X3070034Y17668601D01*
X3070029Y17668598D01*
X3065599Y17665495D01*
X3061775Y17661672D01*
X3061769Y17661666D01*
X2902334Y17502231D01*
X2902328Y17502225D01*
X2898505Y17498401D01*
X2895402Y17493971D01*
X2895399Y17493966D01*
X2766073Y17309269D01*
X2766068Y17309262D01*
X2762965Y17304829D01*
X2760677Y17299923D01*
X2760675Y17299919D01*
X2665386Y17095573D01*
X2665383Y17095568D01*
X2663097Y17090663D01*
X2661698Y17085443D01*
X2661694Y17085431D01*
X2603337Y16867635D01*
X2603335Y16867629D01*
X2601937Y16862408D01*
X2601465Y16857023D01*
X2601465Y16857018D01*
X2592365Y16753000D01*
X2581341Y16627000D01*
X2601937Y16391592D01*
X2603336Y16386370D01*
X2603337Y16386366D01*
X2661694Y16168570D01*
X2661697Y16168562D01*
X2663097Y16163337D01*
X2665385Y16158430D01*
X2665386Y16158428D01*
X2760678Y15954073D01*
X2760681Y15954067D01*
X2762965Y15949170D01*
X2766064Y15944743D01*
X2766066Y15944741D01*
X2895399Y15760034D01*
X2895402Y15760030D01*
X2898505Y15755599D01*
X3065599Y15588505D01*
X3070031Y15585402D01*
X3070033Y15585400D01*
X3158617Y15523373D01*
X3259170Y15452965D01*
X3473337Y15353097D01*
X3701592Y15291937D01*
X3937000Y15271341D01*
X4172408Y15291937D01*
X4400663Y15353097D01*
X4614830Y15452965D01*
X4808401Y15588505D01*
X4975495Y15755599D01*
X5003959Y15796249D01*
X5105425Y15941158D01*
X5149743Y15980024D01*
X5207000Y15994035D01*
X5264257Y15980024D01*
X5308575Y15941158D01*
X5435395Y15760039D01*
X5435401Y15760032D01*
X5438505Y15755599D01*
X5605599Y15588505D01*
X5610031Y15585402D01*
X5610033Y15585400D01*
X5698617Y15523373D01*
X5799170Y15452965D01*
X6013337Y15353097D01*
X6241592Y15291937D01*
X6477000Y15271341D01*
X6712408Y15291937D01*
X6940663Y15353097D01*
X7154830Y15452965D01*
X7348401Y15588505D01*
X7515495Y15755599D01*
X7543959Y15796249D01*
X7645425Y15941158D01*
X7689743Y15980024D01*
X7747000Y15994035D01*
X7804257Y15980024D01*
X7848575Y15941158D01*
X7975395Y15760039D01*
X7975401Y15760032D01*
X7978505Y15755599D01*
X8145599Y15588505D01*
X8150031Y15585402D01*
X8150033Y15585400D01*
X8238617Y15523373D01*
X8339170Y15452965D01*
X8553337Y15353097D01*
X8781592Y15291937D01*
X9017000Y15271341D01*
X9252408Y15291937D01*
X9480663Y15353097D01*
X9694830Y15452965D01*
X9888401Y15588505D01*
X10055495Y15755599D01*
X10185730Y15941595D01*
X10230048Y15980460D01*
X10287305Y15994471D01*
X10344562Y15980460D01*
X10388880Y15941595D01*
X10515784Y15760357D01*
X10522721Y15752091D01*
X10682090Y15592722D01*
X10690356Y15585785D01*
X10874991Y15456502D01*
X10884323Y15451114D01*
X11088602Y15355857D01*
X11098736Y15352169D01*
X11293219Y15300057D01*
X11304448Y15299689D01*
X11307000Y15310631D01*
X11307000Y16753000D01*
X11323613Y16815000D01*
X11369000Y16860387D01*
X11431000Y16877000D01*
X11683000Y16877000D01*
X11745000Y16860387D01*
X11790387Y16815000D01*
X11807000Y16753000D01*
X11807000Y15310631D01*
X11809551Y15299689D01*
X11820780Y15300057D01*
X12015263Y15352169D01*
X12025397Y15355857D01*
X12229676Y15451114D01*
X12239008Y15456502D01*
X12423643Y15585785D01*
X12431909Y15592722D01*
X12591278Y15752091D01*
X12598219Y15760362D01*
X12725119Y15941594D01*
X12769437Y15980460D01*
X12826694Y15994471D01*
X12883951Y15980460D01*
X12928269Y15941595D01*
X13055399Y15760034D01*
X13055402Y15760030D01*
X13058505Y15755599D01*
X13225599Y15588505D01*
X13230031Y15585402D01*
X13230033Y15585400D01*
X13318617Y15523373D01*
X13419170Y15452965D01*
X13633337Y15353097D01*
X13861592Y15291937D01*
X14097000Y15271341D01*
X14332408Y15291937D01*
X14560663Y15353097D01*
X14774830Y15452965D01*
X14968401Y15588505D01*
X15135495Y15755599D01*
X15163959Y15796249D01*
X15265425Y15941158D01*
X15309743Y15980024D01*
X15367000Y15994035D01*
X15424257Y15980024D01*
X15468575Y15941158D01*
X15595395Y15760039D01*
X15595401Y15760032D01*
X15598505Y15755599D01*
X15765599Y15588505D01*
X15770031Y15585402D01*
X15770033Y15585400D01*
X15858617Y15523373D01*
X15959170Y15452965D01*
X16173337Y15353097D01*
X16401592Y15291937D01*
X16637000Y15271341D01*
X16872408Y15291937D01*
X17100663Y15353097D01*
X17314830Y15452965D01*
X17508401Y15588505D01*
X17675495Y15755599D01*
X17703959Y15796249D01*
X17805425Y15941158D01*
X17849743Y15980024D01*
X17907000Y15994035D01*
X17964257Y15980024D01*
X18008575Y15941158D01*
X18135395Y15760039D01*
X18135401Y15760032D01*
X18138505Y15755599D01*
X18305599Y15588505D01*
X18310031Y15585402D01*
X18310033Y15585400D01*
X18398617Y15523373D01*
X18499170Y15452965D01*
X18713337Y15353097D01*
X18941592Y15291937D01*
X19177000Y15271341D01*
X19412408Y15291937D01*
X19640663Y15353097D01*
X19854830Y15452965D01*
X20048401Y15588505D01*
X20215495Y15755599D01*
X20243959Y15796249D01*
X20345425Y15941158D01*
X20389743Y15980024D01*
X20447000Y15994035D01*
X20504257Y15980024D01*
X20548575Y15941158D01*
X20675395Y15760039D01*
X20675401Y15760032D01*
X20678505Y15755599D01*
X20845599Y15588505D01*
X20850031Y15585402D01*
X20850033Y15585400D01*
X20938617Y15523373D01*
X21039170Y15452965D01*
X21253337Y15353097D01*
X21481592Y15291937D01*
X21717000Y15271341D01*
X21952408Y15291937D01*
X22180663Y15353097D01*
X22394830Y15452965D01*
X22588401Y15588505D01*
X22755495Y15755599D01*
X22783959Y15796249D01*
X22885425Y15941158D01*
X22929743Y15980024D01*
X22987000Y15994035D01*
X23044257Y15980024D01*
X23088575Y15941158D01*
X23215395Y15760039D01*
X23215401Y15760032D01*
X23218505Y15755599D01*
X23385599Y15588505D01*
X23390031Y15585402D01*
X23390033Y15585400D01*
X23478617Y15523373D01*
X23579170Y15452965D01*
X23793337Y15353097D01*
X24021592Y15291937D01*
X24257000Y15271341D01*
X24262395Y15271813D01*
X24262784Y15271813D01*
X24321952Y15256786D01*
X24366780Y15215348D01*
X24386402Y15157541D01*
X24376176Y15098037D01*
X24373714Y15093771D01*
X24371707Y15087593D01*
X24371705Y15087589D01*
X24317226Y14919923D01*
X24317224Y14919914D01*
X24315219Y14913743D01*
X24314541Y14907293D01*
X24314539Y14907283D01*
X24298944Y14758890D01*
X24295433Y14725487D01*
X24296112Y14719027D01*
X24314539Y14543692D01*
X24314540Y14543684D01*
X24315219Y14537231D01*
X24317224Y14531059D01*
X24317226Y14531052D01*
X24368756Y14372462D01*
X24373714Y14357203D01*
X24376961Y14351579D01*
X24376962Y14351577D01*
X24458471Y14210398D01*
X24468360Y14193271D01*
X24472704Y14188446D01*
X24472706Y14188444D01*
X24495013Y14163670D01*
X24595022Y14052599D01*
X24600280Y14048779D01*
X24600281Y14048778D01*
X24629119Y14027826D01*
X24748163Y13941336D01*
X24921090Y13864343D01*
X25106247Y13824987D01*
X25289036Y13824987D01*
X25295539Y13824987D01*
X25480696Y13864343D01*
X25653623Y13941336D01*
X25806764Y14052599D01*
X25933426Y14193271D01*
X26028072Y14357203D01*
X26086567Y14537231D01*
X26106353Y14725487D01*
X26086567Y14913743D01*
X26028072Y15093771D01*
X25933426Y15257703D01*
X25916500Y15276501D01*
X25868980Y15329278D01*
X25840901Y15381902D01*
X25840641Y15441548D01*
X25868260Y15494415D01*
X25917367Y15528271D01*
X25976600Y15535281D01*
X26032254Y15513824D01*
X26114732Y15456072D01*
X26114736Y15456070D01*
X26119170Y15452965D01*
X26333337Y15353097D01*
X26561592Y15291937D01*
X26797000Y15271341D01*
X27032408Y15291937D01*
X27260663Y15353097D01*
X27474830Y15452965D01*
X27668401Y15588505D01*
X27835495Y15755599D01*
X27863959Y15796249D01*
X27965425Y15941158D01*
X28009743Y15980024D01*
X28067000Y15994035D01*
X28124257Y15980024D01*
X28168575Y15941158D01*
X28295395Y15760039D01*
X28295401Y15760032D01*
X28298505Y15755599D01*
X28465599Y15588505D01*
X28470031Y15585402D01*
X28470033Y15585400D01*
X28558617Y15523373D01*
X28659170Y15452965D01*
X28873337Y15353097D01*
X29101592Y15291937D01*
X29337000Y15271341D01*
X29572408Y15291937D01*
X29800663Y15353097D01*
X30014830Y15452965D01*
X30208401Y15588505D01*
X30375495Y15755599D01*
X30403959Y15796249D01*
X30505425Y15941158D01*
X30549743Y15980024D01*
X30607000Y15994035D01*
X30664257Y15980024D01*
X30708575Y15941158D01*
X30835395Y15760039D01*
X30835401Y15760032D01*
X30838505Y15755599D01*
X31005599Y15588505D01*
X31010031Y15585402D01*
X31010033Y15585400D01*
X31098617Y15523373D01*
X31199170Y15452965D01*
X31204070Y15450680D01*
X31204072Y15450679D01*
X31245744Y15431247D01*
X31296140Y15388205D01*
X31317169Y15325354D01*
X31302824Y15260650D01*
X31257204Y15212576D01*
X31193339Y15194865D01*
X31025125Y15194865D01*
X31018766Y15193514D01*
X31018762Y15193513D01*
X30846330Y15156862D01*
X30846323Y15156860D01*
X30839968Y15155509D01*
X30834033Y15152867D01*
X30834025Y15152864D01*
X30672978Y15081160D01*
X30672973Y15081158D01*
X30667041Y15078516D01*
X30661787Y15074700D01*
X30661782Y15074696D01*
X30519159Y14971075D01*
X30519152Y14971070D01*
X30513900Y14967253D01*
X30509555Y14962428D01*
X30509550Y14962423D01*
X30391584Y14831409D01*
X30391579Y14831403D01*
X30387238Y14826581D01*
X30383993Y14820961D01*
X30383989Y14820955D01*
X30295840Y14668276D01*
X30295837Y14668271D01*
X30292592Y14662649D01*
X30290586Y14656477D01*
X30290584Y14656471D01*
X30236104Y14488801D01*
X30236102Y14488792D01*
X30234097Y14482621D01*
X30233419Y14476171D01*
X30233417Y14476161D01*
X30220324Y14351577D01*
X30214311Y14294365D01*
X30214990Y14287905D01*
X30233417Y14112570D01*
X30233418Y14112562D01*
X30234097Y14106109D01*
X30236102Y14099937D01*
X30236104Y14099930D01*
X30287635Y13941336D01*
X30292592Y13926081D01*
X30295839Y13920457D01*
X30295840Y13920455D01*
X30375814Y13781935D01*
X30387238Y13762149D01*
X30391582Y13757324D01*
X30391584Y13757322D01*
X30493086Y13644593D01*
X30513900Y13621477D01*
X30667041Y13510214D01*
X30839968Y13433221D01*
X31025125Y13393865D01*
X31207914Y13393865D01*
X31214417Y13393865D01*
X31399574Y13433221D01*
X31572501Y13510214D01*
X31725642Y13621477D01*
X31852304Y13762149D01*
X31946950Y13926081D01*
X32005445Y14106109D01*
X32025231Y14294365D01*
X32005445Y14482621D01*
X31946950Y14662649D01*
X31852304Y14826581D01*
X31830991Y14850251D01*
X31729991Y14962423D01*
X31729990Y14962424D01*
X31725642Y14967253D01*
X31720384Y14971073D01*
X31720382Y14971075D01*
X31590813Y15065212D01*
X31550595Y15114700D01*
X31540290Y15177631D01*
X31562622Y15237361D01*
X31611686Y15278095D01*
X31674503Y15289058D01*
X31877000Y15271341D01*
X32112408Y15291937D01*
X32340663Y15353097D01*
X32554830Y15452965D01*
X32748401Y15588505D01*
X32915495Y15755599D01*
X32943959Y15796249D01*
X33045425Y15941158D01*
X33089743Y15980024D01*
X33147000Y15994035D01*
X33204257Y15980024D01*
X33248575Y15941158D01*
X33375395Y15760039D01*
X33375401Y15760032D01*
X33378505Y15755599D01*
X33545599Y15588505D01*
X33550031Y15585402D01*
X33550033Y15585400D01*
X33638617Y15523373D01*
X33739170Y15452965D01*
X33953337Y15353097D01*
X34181592Y15291937D01*
X34417000Y15271341D01*
X34652408Y15291937D01*
X34880663Y15353097D01*
X35094830Y15452965D01*
X35288401Y15588505D01*
X35455495Y15755599D01*
X35483959Y15796249D01*
X35585425Y15941158D01*
X35629743Y15980024D01*
X35687000Y15994035D01*
X35744257Y15980024D01*
X35788575Y15941158D01*
X35915395Y15760039D01*
X35915401Y15760032D01*
X35918505Y15755599D01*
X36085599Y15588505D01*
X36090031Y15585402D01*
X36090033Y15585400D01*
X36178617Y15523373D01*
X36279170Y15452965D01*
X36493337Y15353097D01*
X36721592Y15291937D01*
X36957000Y15271341D01*
X37192408Y15291937D01*
X37420663Y15353097D01*
X37634830Y15452965D01*
X37828401Y15588505D01*
X37950329Y15710434D01*
X38003072Y15741727D01*
X38064365Y15743916D01*
X38119210Y15716463D01*
X38154189Y15666084D01*
X38177106Y15604641D01*
X38203204Y15534669D01*
X38208518Y15527570D01*
X38208519Y15527569D01*
X38264367Y15452965D01*
X38289454Y15419454D01*
X38404669Y15333204D01*
X38539517Y15282909D01*
X38599127Y15276500D01*
X40394872Y15276501D01*
X40454483Y15282909D01*
X40589331Y15333204D01*
X40704546Y15419454D01*
X40790796Y15534669D01*
X40841091Y15669517D01*
X40847500Y15729127D01*
X40847499Y17524872D01*
X40841091Y17584483D01*
X40790796Y17719331D01*
X40704546Y17834546D01*
X40706701Y17836160D01*
X40685239Y17871182D01*
X40680697Y17928898D01*
X40702852Y17982385D01*
X40746875Y18019985D01*
X40803170Y18033500D01*
X44960500Y18033500D01*
X45022500Y18016887D01*
X45067887Y17971500D01*
X45084500Y17909500D01*
X45084500Y124500D01*
X45067887Y62500D01*
X45022500Y17113D01*
X44960500Y500D01*
X40818304Y500D01*
X40753137Y19005D01*
X40707420Y68996D01*
X40694798Y135553D01*
X40719037Y198811D01*
X40736776Y222509D01*
X40790796Y294669D01*
X40841091Y429517D01*
X40847500Y489127D01*
X40847499Y2284872D01*
X40841091Y2344483D01*
X40790796Y2479331D01*
X40704546Y2594546D01*
X40617105Y2660004D01*
X40596431Y2675481D01*
X40596430Y2675482D01*
X40589331Y2680796D01*
X40482442Y2720663D01*
X40461752Y2728380D01*
X40461750Y2728381D01*
X40454483Y2731091D01*
X40446770Y2731921D01*
X40446767Y2731921D01*
X40398180Y2737145D01*
X40398169Y2737146D01*
X40394873Y2737500D01*
X40391550Y2737500D01*
X38602439Y2737500D01*
X38602420Y2737500D01*
X38599128Y2737499D01*
X38595850Y2737147D01*
X38595838Y2737146D01*
X38547231Y2731921D01*
X38547225Y2731920D01*
X38539517Y2731091D01*
X38532252Y2728382D01*
X38532246Y2728380D01*
X38412980Y2683896D01*
X38412978Y2683896D01*
X38404669Y2680796D01*
X38397572Y2675484D01*
X38397568Y2675481D01*
X38296550Y2599859D01*
X38296546Y2599856D01*
X38289454Y2594546D01*
X38284144Y2587454D01*
X38284141Y2587450D01*
X38208519Y2486432D01*
X38208516Y2486428D01*
X38203204Y2479331D01*
X38200104Y2471022D01*
X38200105Y2471022D01*
X38153997Y2347401D01*
X38119018Y2297022D01*
X38064173Y2269569D01*
X38002880Y2271758D01*
X37950134Y2303054D01*
X37831909Y2421279D01*
X37823643Y2428216D01*
X37639008Y2557499D01*
X37629676Y2562887D01*
X37425397Y2658144D01*
X37415263Y2661832D01*
X37220780Y2713944D01*
X37209551Y2714312D01*
X37207000Y2703369D01*
X37207000Y1261000D01*
X37190387Y1199000D01*
X37145000Y1153613D01*
X37083000Y1137000D01*
X36831000Y1137000D01*
X36769000Y1153613D01*
X36723613Y1199000D01*
X36707000Y1261000D01*
X36707000Y2703369D01*
X36704448Y2714312D01*
X36693219Y2713944D01*
X36498736Y2661832D01*
X36488602Y2658144D01*
X36284332Y2562890D01*
X36274982Y2557492D01*
X36090357Y2428216D01*
X36082092Y2421281D01*
X35922719Y2261908D01*
X35915788Y2253648D01*
X35788880Y2072404D01*
X35744562Y2033539D01*
X35687305Y2019528D01*
X35630048Y2033539D01*
X35585730Y2072405D01*
X35552803Y2119430D01*
X35455495Y2258401D01*
X35288401Y2425495D01*
X35283970Y2428598D01*
X35283966Y2428601D01*
X35099259Y2557934D01*
X35099257Y2557936D01*
X35094830Y2561035D01*
X35089933Y2563319D01*
X35089927Y2563322D01*
X34885572Y2658614D01*
X34885570Y2658615D01*
X34880663Y2660903D01*
X34875438Y2662303D01*
X34875430Y2662306D01*
X34657634Y2720663D01*
X34657630Y2720664D01*
X34652408Y2722063D01*
X34647020Y2722535D01*
X34647017Y2722535D01*
X34422395Y2742187D01*
X34417000Y2742659D01*
X34411605Y2742187D01*
X34186982Y2722535D01*
X34186977Y2722535D01*
X34181592Y2722063D01*
X34176371Y2720665D01*
X34176365Y2720663D01*
X33958569Y2662306D01*
X33958557Y2662302D01*
X33953337Y2660903D01*
X33948432Y2658617D01*
X33948427Y2658614D01*
X33744081Y2563325D01*
X33744077Y2563323D01*
X33739171Y2561035D01*
X33734738Y2557932D01*
X33734731Y2557927D01*
X33550034Y2428601D01*
X33550029Y2428598D01*
X33545599Y2425495D01*
X33541775Y2421672D01*
X33541769Y2421666D01*
X33382334Y2262231D01*
X33382328Y2262225D01*
X33378505Y2258401D01*
X33375402Y2253971D01*
X33375399Y2253966D01*
X33248575Y2072841D01*
X33204257Y2033975D01*
X33147000Y2019964D01*
X33089743Y2033975D01*
X33045425Y2072841D01*
X33012803Y2119430D01*
X32915495Y2258401D01*
X32748401Y2425495D01*
X32743970Y2428598D01*
X32743966Y2428601D01*
X32559259Y2557934D01*
X32559257Y2557936D01*
X32554830Y2561035D01*
X32549933Y2563319D01*
X32549927Y2563322D01*
X32345572Y2658614D01*
X32345570Y2658615D01*
X32340663Y2660903D01*
X32335438Y2662303D01*
X32335430Y2662306D01*
X32117634Y2720663D01*
X32117630Y2720664D01*
X32112408Y2722063D01*
X32107020Y2722535D01*
X32107017Y2722535D01*
X31882395Y2742187D01*
X31877000Y2742659D01*
X31871605Y2742187D01*
X31646982Y2722535D01*
X31646977Y2722535D01*
X31641592Y2722063D01*
X31636371Y2720665D01*
X31636365Y2720663D01*
X31418569Y2662306D01*
X31418557Y2662302D01*
X31413337Y2660903D01*
X31408432Y2658617D01*
X31408427Y2658614D01*
X31204081Y2563325D01*
X31204077Y2563323D01*
X31199171Y2561035D01*
X31194738Y2557932D01*
X31194731Y2557927D01*
X31010034Y2428601D01*
X31010029Y2428598D01*
X31005599Y2425495D01*
X31001775Y2421672D01*
X31001769Y2421666D01*
X30842334Y2262231D01*
X30842328Y2262225D01*
X30838505Y2258401D01*
X30835402Y2253971D01*
X30835399Y2253966D01*
X30708575Y2072841D01*
X30664257Y2033975D01*
X30607000Y2019964D01*
X30549743Y2033975D01*
X30505425Y2072841D01*
X30472803Y2119430D01*
X30375495Y2258401D01*
X30208401Y2425495D01*
X30203970Y2428598D01*
X30203966Y2428601D01*
X30019259Y2557934D01*
X30019257Y2557936D01*
X30014830Y2561035D01*
X30009933Y2563319D01*
X30009927Y2563322D01*
X29805572Y2658614D01*
X29805570Y2658615D01*
X29800663Y2660903D01*
X29795438Y2662303D01*
X29795430Y2662306D01*
X29577634Y2720663D01*
X29577630Y2720664D01*
X29572408Y2722063D01*
X29567020Y2722535D01*
X29567017Y2722535D01*
X29342395Y2742187D01*
X29337000Y2742659D01*
X29331605Y2742187D01*
X29106982Y2722535D01*
X29106977Y2722535D01*
X29101592Y2722063D01*
X29096371Y2720665D01*
X29096365Y2720663D01*
X28878569Y2662306D01*
X28878557Y2662302D01*
X28873337Y2660903D01*
X28868432Y2658617D01*
X28868427Y2658614D01*
X28664081Y2563325D01*
X28664077Y2563323D01*
X28659171Y2561035D01*
X28654738Y2557932D01*
X28654731Y2557927D01*
X28470034Y2428601D01*
X28470029Y2428598D01*
X28465599Y2425495D01*
X28461775Y2421672D01*
X28461769Y2421666D01*
X28302334Y2262231D01*
X28302328Y2262225D01*
X28298505Y2258401D01*
X28295402Y2253971D01*
X28295399Y2253966D01*
X28168575Y2072841D01*
X28124257Y2033975D01*
X28067000Y2019964D01*
X28009743Y2033975D01*
X27965425Y2072841D01*
X27932803Y2119430D01*
X27835495Y2258401D01*
X27668401Y2425495D01*
X27663970Y2428598D01*
X27663966Y2428601D01*
X27479259Y2557934D01*
X27479257Y2557936D01*
X27474830Y2561035D01*
X27469933Y2563319D01*
X27469927Y2563322D01*
X27265572Y2658614D01*
X27265570Y2658615D01*
X27260663Y2660903D01*
X27255438Y2662303D01*
X27255430Y2662306D01*
X27037634Y2720663D01*
X27037630Y2720664D01*
X27032408Y2722063D01*
X27027020Y2722535D01*
X27027017Y2722535D01*
X26802395Y2742187D01*
X26797000Y2742659D01*
X26791605Y2742187D01*
X26566982Y2722535D01*
X26566977Y2722535D01*
X26561592Y2722063D01*
X26556371Y2720665D01*
X26556365Y2720663D01*
X26338569Y2662306D01*
X26338557Y2662302D01*
X26333337Y2660903D01*
X26328432Y2658617D01*
X26328427Y2658614D01*
X26124081Y2563325D01*
X26124077Y2563323D01*
X26119171Y2561035D01*
X26114738Y2557932D01*
X26114731Y2557927D01*
X25930034Y2428601D01*
X25930029Y2428598D01*
X25925599Y2425495D01*
X25921775Y2421672D01*
X25921769Y2421666D01*
X25762334Y2262231D01*
X25762328Y2262225D01*
X25758505Y2258401D01*
X25755402Y2253971D01*
X25755399Y2253966D01*
X25628575Y2072841D01*
X25584257Y2033975D01*
X25527000Y2019964D01*
X25469743Y2033975D01*
X25425425Y2072841D01*
X25392803Y2119430D01*
X25295495Y2258401D01*
X25234482Y2319414D01*
X25203741Y2370324D01*
X25200239Y2429692D01*
X25224784Y2483863D01*
X25271723Y2520373D01*
X25335440Y2548741D01*
X25488581Y2660004D01*
X25603368Y2787487D01*
X41440433Y2787487D01*
X41441112Y2781027D01*
X41459539Y2605692D01*
X41459540Y2605684D01*
X41460219Y2599231D01*
X41462224Y2593059D01*
X41462226Y2593052D01*
X41516706Y2425382D01*
X41518714Y2419203D01*
X41521961Y2413579D01*
X41521962Y2413577D01*
X41609341Y2262231D01*
X41613360Y2255271D01*
X41740022Y2114599D01*
X41893163Y2003336D01*
X42066090Y1926343D01*
X42251247Y1886987D01*
X42434036Y1886987D01*
X42440539Y1886987D01*
X42625696Y1926343D01*
X42798623Y2003336D01*
X42951764Y2114599D01*
X43078426Y2255271D01*
X43173072Y2419203D01*
X43231567Y2599231D01*
X43251353Y2787487D01*
X43231567Y2975743D01*
X43173072Y3155771D01*
X43078426Y3319703D01*
X43038787Y3363726D01*
X42956113Y3455545D01*
X42956112Y3455546D01*
X42951764Y3460375D01*
X42946506Y3464195D01*
X42946504Y3464197D01*
X42803881Y3567818D01*
X42803880Y3567819D01*
X42798623Y3571638D01*
X42792685Y3574282D01*
X42631638Y3645986D01*
X42631633Y3645988D01*
X42625696Y3648631D01*
X42619337Y3649983D01*
X42619333Y3649984D01*
X42446901Y3686635D01*
X42446898Y3686636D01*
X42440539Y3687987D01*
X42251247Y3687987D01*
X42244888Y3686636D01*
X42244884Y3686635D01*
X42072452Y3649984D01*
X42072445Y3649982D01*
X42066090Y3648631D01*
X42060155Y3645989D01*
X42060147Y3645986D01*
X41899100Y3574282D01*
X41899095Y3574280D01*
X41893163Y3571638D01*
X41887909Y3567822D01*
X41887904Y3567818D01*
X41745281Y3464197D01*
X41745274Y3464192D01*
X41740022Y3460375D01*
X41735677Y3455550D01*
X41735672Y3455545D01*
X41617706Y3324531D01*
X41617701Y3324525D01*
X41613360Y3319703D01*
X41610115Y3314083D01*
X41610111Y3314077D01*
X41521962Y3161398D01*
X41521959Y3161393D01*
X41518714Y3155771D01*
X41516708Y3149599D01*
X41516706Y3149593D01*
X41462226Y2981923D01*
X41462224Y2981914D01*
X41460219Y2975743D01*
X41459541Y2969293D01*
X41459539Y2969283D01*
X41446845Y2848494D01*
X41440433Y2787487D01*
X25603368Y2787487D01*
X25615243Y2800676D01*
X25709889Y2964608D01*
X25768384Y3144636D01*
X25788170Y3332892D01*
X25768384Y3521148D01*
X25709889Y3701176D01*
X25615243Y3865108D01*
X25488581Y4005780D01*
X25483323Y4009600D01*
X25483321Y4009602D01*
X25340698Y4113223D01*
X25340697Y4113224D01*
X25335440Y4117043D01*
X25325406Y4121511D01*
X25275529Y4161905D01*
X25252528Y4221824D01*
X25236667Y4372743D01*
X25178172Y4552771D01*
X25083526Y4716703D01*
X24956864Y4857375D01*
X24951606Y4861195D01*
X24951604Y4861197D01*
X24808981Y4964818D01*
X24808980Y4964819D01*
X24803723Y4968638D01*
X24797785Y4971282D01*
X24636738Y5042986D01*
X24636733Y5042988D01*
X24630796Y5045631D01*
X24624437Y5046983D01*
X24624433Y5046984D01*
X24452001Y5083635D01*
X24451998Y5083636D01*
X24445639Y5084987D01*
X24256347Y5084987D01*
X24249988Y5083636D01*
X24249984Y5083635D01*
X24077552Y5046984D01*
X24077545Y5046982D01*
X24071190Y5045631D01*
X24065255Y5042989D01*
X24065247Y5042986D01*
X23904200Y4971282D01*
X23904195Y4971280D01*
X23898263Y4968638D01*
X23893009Y4964822D01*
X23893004Y4964818D01*
X23750381Y4861197D01*
X23750374Y4861192D01*
X23745122Y4857375D01*
X23740777Y4852550D01*
X23740772Y4852545D01*
X23622806Y4721531D01*
X23622801Y4721525D01*
X23618460Y4716703D01*
X23615215Y4711083D01*
X23615211Y4711077D01*
X23527062Y4558398D01*
X23527059Y4558393D01*
X23523814Y4552771D01*
X23521808Y4546599D01*
X23521806Y4546593D01*
X23467326Y4378923D01*
X23467324Y4378914D01*
X23465319Y4372743D01*
X23464641Y4366293D01*
X23464639Y4366283D01*
X23455828Y4282444D01*
X23445533Y4184487D01*
X23446212Y4178027D01*
X23464639Y4002692D01*
X23464640Y4002684D01*
X23465319Y3996231D01*
X23467324Y3990059D01*
X23467326Y3990052D01*
X23521806Y3822382D01*
X23523814Y3816203D01*
X23527061Y3810579D01*
X23527062Y3810577D01*
X23593791Y3694998D01*
X23618460Y3652271D01*
X23622804Y3647446D01*
X23622806Y3647444D01*
X23736524Y3521148D01*
X23745122Y3511599D01*
X23750380Y3507779D01*
X23750381Y3507778D01*
X23815626Y3460375D01*
X23898263Y3400336D01*
X23905233Y3397233D01*
X23908290Y3395871D01*
X23958172Y3355477D01*
X23981174Y3295554D01*
X23997036Y3144636D01*
X23999041Y3138464D01*
X23999043Y3138457D01*
X24049905Y2981923D01*
X24055531Y2964608D01*
X24058778Y2958984D01*
X24058779Y2958982D01*
X24091456Y2902384D01*
X24107804Y2848494D01*
X24098630Y2792931D01*
X24065828Y2747156D01*
X24016163Y2720609D01*
X23798567Y2662305D01*
X23798560Y2662303D01*
X23793337Y2660903D01*
X23788432Y2658617D01*
X23788427Y2658614D01*
X23584081Y2563325D01*
X23584077Y2563323D01*
X23579171Y2561035D01*
X23574738Y2557932D01*
X23574731Y2557927D01*
X23390034Y2428601D01*
X23390029Y2428598D01*
X23385599Y2425495D01*
X23381775Y2421672D01*
X23381769Y2421666D01*
X23222334Y2262231D01*
X23222328Y2262225D01*
X23218505Y2258401D01*
X23215402Y2253971D01*
X23215399Y2253966D01*
X23088575Y2072841D01*
X23044257Y2033975D01*
X22987000Y2019964D01*
X22929743Y2033975D01*
X22885425Y2072841D01*
X22852803Y2119430D01*
X22755495Y2258401D01*
X22588401Y2425495D01*
X22583970Y2428598D01*
X22583966Y2428601D01*
X22399259Y2557934D01*
X22399257Y2557936D01*
X22394830Y2561035D01*
X22389933Y2563319D01*
X22389927Y2563322D01*
X22185572Y2658614D01*
X22185570Y2658615D01*
X22180663Y2660903D01*
X22175438Y2662303D01*
X22175430Y2662306D01*
X21957634Y2720663D01*
X21957630Y2720664D01*
X21952408Y2722063D01*
X21947020Y2722535D01*
X21947017Y2722535D01*
X21722395Y2742187D01*
X21717000Y2742659D01*
X21711605Y2742187D01*
X21486982Y2722535D01*
X21486977Y2722535D01*
X21481592Y2722063D01*
X21476371Y2720665D01*
X21476365Y2720663D01*
X21258569Y2662306D01*
X21258557Y2662302D01*
X21253337Y2660903D01*
X21248432Y2658617D01*
X21248427Y2658614D01*
X21044081Y2563325D01*
X21044077Y2563323D01*
X21039171Y2561035D01*
X21034738Y2557932D01*
X21034731Y2557927D01*
X20850034Y2428601D01*
X20850029Y2428598D01*
X20845599Y2425495D01*
X20841775Y2421672D01*
X20841769Y2421666D01*
X20682334Y2262231D01*
X20682328Y2262225D01*
X20678505Y2258401D01*
X20675402Y2253971D01*
X20675399Y2253966D01*
X20548575Y2072841D01*
X20504257Y2033975D01*
X20447000Y2019964D01*
X20389743Y2033975D01*
X20345425Y2072841D01*
X20312803Y2119430D01*
X20215495Y2258401D01*
X20048401Y2425495D01*
X20043970Y2428598D01*
X20043966Y2428601D01*
X19859259Y2557934D01*
X19859257Y2557936D01*
X19854830Y2561035D01*
X19849933Y2563319D01*
X19849927Y2563322D01*
X19645572Y2658614D01*
X19645570Y2658615D01*
X19640663Y2660903D01*
X19635438Y2662303D01*
X19635430Y2662306D01*
X19417634Y2720663D01*
X19417630Y2720664D01*
X19412408Y2722063D01*
X19407020Y2722535D01*
X19407017Y2722535D01*
X19182395Y2742187D01*
X19177000Y2742659D01*
X19171605Y2742187D01*
X18946982Y2722535D01*
X18946977Y2722535D01*
X18941592Y2722063D01*
X18936371Y2720665D01*
X18936365Y2720663D01*
X18718569Y2662306D01*
X18718557Y2662302D01*
X18713337Y2660903D01*
X18708432Y2658617D01*
X18708427Y2658614D01*
X18504081Y2563325D01*
X18504077Y2563323D01*
X18499171Y2561035D01*
X18494738Y2557932D01*
X18494731Y2557927D01*
X18310034Y2428601D01*
X18310029Y2428598D01*
X18305599Y2425495D01*
X18301775Y2421672D01*
X18301769Y2421666D01*
X18142334Y2262231D01*
X18142328Y2262225D01*
X18138505Y2258401D01*
X18135402Y2253971D01*
X18135399Y2253966D01*
X18008575Y2072841D01*
X17964257Y2033975D01*
X17907000Y2019964D01*
X17849743Y2033975D01*
X17805425Y2072841D01*
X17772803Y2119430D01*
X17675495Y2258401D01*
X17508401Y2425495D01*
X17503970Y2428598D01*
X17503966Y2428601D01*
X17319259Y2557934D01*
X17319257Y2557936D01*
X17314830Y2561035D01*
X17309933Y2563319D01*
X17309927Y2563322D01*
X17105572Y2658614D01*
X17105570Y2658615D01*
X17100663Y2660903D01*
X17095438Y2662303D01*
X17095430Y2662306D01*
X16877634Y2720663D01*
X16877630Y2720664D01*
X16872408Y2722063D01*
X16867020Y2722535D01*
X16867017Y2722535D01*
X16642395Y2742187D01*
X16637000Y2742659D01*
X16631605Y2742187D01*
X16406982Y2722535D01*
X16406977Y2722535D01*
X16401592Y2722063D01*
X16396371Y2720665D01*
X16396365Y2720663D01*
X16178569Y2662306D01*
X16178557Y2662302D01*
X16173337Y2660903D01*
X16168432Y2658617D01*
X16168427Y2658614D01*
X15964081Y2563325D01*
X15964077Y2563323D01*
X15959171Y2561035D01*
X15954738Y2557932D01*
X15954731Y2557927D01*
X15770034Y2428601D01*
X15770029Y2428598D01*
X15765599Y2425495D01*
X15761775Y2421672D01*
X15761769Y2421666D01*
X15602334Y2262231D01*
X15602328Y2262225D01*
X15598505Y2258401D01*
X15595402Y2253971D01*
X15595399Y2253966D01*
X15468575Y2072841D01*
X15424257Y2033975D01*
X15367000Y2019964D01*
X15309743Y2033975D01*
X15265425Y2072841D01*
X15232803Y2119430D01*
X15135495Y2258401D01*
X14968401Y2425495D01*
X14963970Y2428598D01*
X14963966Y2428601D01*
X14779259Y2557934D01*
X14779257Y2557936D01*
X14774830Y2561035D01*
X14769933Y2563319D01*
X14769927Y2563322D01*
X14565572Y2658614D01*
X14565570Y2658615D01*
X14560663Y2660903D01*
X14555438Y2662303D01*
X14555430Y2662306D01*
X14337634Y2720663D01*
X14337630Y2720664D01*
X14332408Y2722063D01*
X14327020Y2722535D01*
X14327017Y2722535D01*
X14102395Y2742187D01*
X14097000Y2742659D01*
X14091605Y2742187D01*
X13866982Y2722535D01*
X13866977Y2722535D01*
X13861592Y2722063D01*
X13856371Y2720665D01*
X13856365Y2720663D01*
X13638569Y2662306D01*
X13638557Y2662302D01*
X13633337Y2660903D01*
X13628432Y2658617D01*
X13628427Y2658614D01*
X13424081Y2563325D01*
X13424077Y2563323D01*
X13419171Y2561035D01*
X13414738Y2557932D01*
X13414731Y2557927D01*
X13230034Y2428601D01*
X13230029Y2428598D01*
X13225599Y2425495D01*
X13221775Y2421672D01*
X13221769Y2421666D01*
X13062334Y2262231D01*
X13062328Y2262225D01*
X13058505Y2258401D01*
X13055402Y2253971D01*
X13055399Y2253966D01*
X12928575Y2072841D01*
X12884257Y2033975D01*
X12827000Y2019964D01*
X12769743Y2033975D01*
X12725425Y2072841D01*
X12692803Y2119430D01*
X12595495Y2258401D01*
X12428401Y2425495D01*
X12423970Y2428598D01*
X12423966Y2428601D01*
X12239259Y2557934D01*
X12239257Y2557936D01*
X12234830Y2561035D01*
X12229933Y2563319D01*
X12229927Y2563322D01*
X12025572Y2658614D01*
X12025570Y2658615D01*
X12020663Y2660903D01*
X12015438Y2662303D01*
X12015430Y2662306D01*
X11797634Y2720663D01*
X11797630Y2720664D01*
X11792408Y2722063D01*
X11787020Y2722535D01*
X11787017Y2722535D01*
X11562395Y2742187D01*
X11557000Y2742659D01*
X11551605Y2742187D01*
X11326982Y2722535D01*
X11326977Y2722535D01*
X11321592Y2722063D01*
X11316371Y2720665D01*
X11316365Y2720663D01*
X11098569Y2662306D01*
X11098557Y2662302D01*
X11093337Y2660903D01*
X11088432Y2658617D01*
X11088427Y2658614D01*
X10884081Y2563325D01*
X10884077Y2563323D01*
X10879171Y2561035D01*
X10874738Y2557932D01*
X10874731Y2557927D01*
X10690034Y2428601D01*
X10690029Y2428598D01*
X10685599Y2425495D01*
X10681775Y2421672D01*
X10681769Y2421666D01*
X10522334Y2262231D01*
X10522328Y2262225D01*
X10518505Y2258401D01*
X10515403Y2253972D01*
X10515403Y2253971D01*
X10388269Y2072404D01*
X10343951Y2033539D01*
X10286694Y2019528D01*
X10229437Y2033539D01*
X10185119Y2072405D01*
X10058215Y2253643D01*
X10051280Y2261908D01*
X9891909Y2421279D01*
X9883643Y2428216D01*
X9699008Y2557499D01*
X9689676Y2562887D01*
X9485397Y2658144D01*
X9475263Y2661832D01*
X9280780Y2713944D01*
X9269551Y2714312D01*
X9267000Y2703369D01*
X9267000Y1261000D01*
X9250387Y1199000D01*
X9205000Y1153613D01*
X9143000Y1137000D01*
X8891000Y1137000D01*
X8829000Y1153613D01*
X8783613Y1199000D01*
X8767000Y1261000D01*
X8767000Y2703369D01*
X8764448Y2714312D01*
X8753219Y2713944D01*
X8558736Y2661832D01*
X8548602Y2658144D01*
X8344332Y2562890D01*
X8334982Y2557492D01*
X8150357Y2428216D01*
X8142092Y2421281D01*
X7982719Y2261908D01*
X7975788Y2253648D01*
X7848880Y2072404D01*
X7804562Y2033539D01*
X7747305Y2019528D01*
X7690048Y2033539D01*
X7645730Y2072405D01*
X7612803Y2119430D01*
X7515495Y2258401D01*
X7348401Y2425495D01*
X7343970Y2428598D01*
X7343966Y2428601D01*
X7159259Y2557934D01*
X7159257Y2557936D01*
X7154830Y2561035D01*
X7149933Y2563319D01*
X7149927Y2563322D01*
X6945572Y2658614D01*
X6945570Y2658615D01*
X6940663Y2660903D01*
X6935438Y2662303D01*
X6935430Y2662306D01*
X6717634Y2720663D01*
X6717630Y2720664D01*
X6712408Y2722063D01*
X6707020Y2722535D01*
X6707017Y2722535D01*
X6482395Y2742187D01*
X6477000Y2742659D01*
X6471605Y2742187D01*
X6246982Y2722535D01*
X6246977Y2722535D01*
X6241592Y2722063D01*
X6236371Y2720665D01*
X6236365Y2720663D01*
X6018569Y2662306D01*
X6018557Y2662302D01*
X6013337Y2660903D01*
X6008432Y2658617D01*
X6008427Y2658614D01*
X5804081Y2563325D01*
X5804077Y2563323D01*
X5799171Y2561035D01*
X5794738Y2557932D01*
X5794731Y2557927D01*
X5610034Y2428601D01*
X5610029Y2428598D01*
X5605599Y2425495D01*
X5601775Y2421672D01*
X5601769Y2421666D01*
X5442334Y2262231D01*
X5442328Y2262225D01*
X5438505Y2258401D01*
X5435402Y2253971D01*
X5435399Y2253966D01*
X5308575Y2072841D01*
X5264257Y2033975D01*
X5207000Y2019964D01*
X5149743Y2033975D01*
X5105425Y2072841D01*
X5072803Y2119430D01*
X4975495Y2258401D01*
X4808401Y2425495D01*
X4803970Y2428598D01*
X4803966Y2428601D01*
X4619259Y2557934D01*
X4619257Y2557936D01*
X4614830Y2561035D01*
X4609933Y2563319D01*
X4609927Y2563322D01*
X4405572Y2658614D01*
X4405570Y2658615D01*
X4400663Y2660903D01*
X4395438Y2662303D01*
X4395430Y2662306D01*
X4177634Y2720663D01*
X4177630Y2720664D01*
X4172408Y2722063D01*
X4167020Y2722535D01*
X4167017Y2722535D01*
X3942395Y2742187D01*
X3937000Y2742659D01*
X3931605Y2742187D01*
X3706982Y2722535D01*
X3706977Y2722535D01*
X3701592Y2722063D01*
X3696371Y2720665D01*
X3696365Y2720663D01*
X3478569Y2662306D01*
X3478557Y2662302D01*
X3473337Y2660903D01*
X3468432Y2658617D01*
X3468427Y2658614D01*
X3264081Y2563325D01*
X3264077Y2563323D01*
X3259171Y2561035D01*
X3254738Y2557932D01*
X3254731Y2557927D01*
X3070034Y2428601D01*
X3070029Y2428598D01*
X3065599Y2425495D01*
X3061775Y2421672D01*
X3061769Y2421666D01*
X2902334Y2262231D01*
X2902328Y2262225D01*
X2898505Y2258401D01*
X2895402Y2253971D01*
X2895399Y2253966D01*
X2766073Y2069269D01*
X2766068Y2069262D01*
X2762965Y2064829D01*
X2760677Y2059923D01*
X2760675Y2059919D01*
X2665386Y1855573D01*
X2665383Y1855568D01*
X2663097Y1850663D01*
X2661698Y1845443D01*
X2661694Y1845431D01*
X2603337Y1627635D01*
X2603335Y1627629D01*
X2601937Y1622408D01*
X2581341Y1387000D01*
X2601937Y1151592D01*
X2603336Y1146370D01*
X2603337Y1146366D01*
X2661694Y928570D01*
X2661697Y928562D01*
X2663097Y923337D01*
X2665385Y918430D01*
X2665386Y918428D01*
X2760678Y714073D01*
X2760681Y714067D01*
X2762965Y709170D01*
X2766064Y704743D01*
X2766066Y704741D01*
X2895399Y520034D01*
X2895402Y520030D01*
X2898505Y515599D01*
X3065599Y348505D01*
X3070031Y345402D01*
X3070033Y345400D01*
X3240447Y226075D01*
X3280773Y178858D01*
X3293153Y118010D01*
X3274481Y58790D01*
X3229439Y16047D01*
X3169323Y500D01*
X124500Y500D01*
X62500Y17113D01*
X17113Y62500D01*
X500Y124500D01*
X500Y5780254D01*
X18435Y5844489D01*
X67051Y5890143D01*
X132286Y5904009D01*
X195269Y5882076D01*
X237779Y5830690D01*
X284078Y5726701D01*
X287897Y5721445D01*
X287898Y5721443D01*
X389581Y5581488D01*
X398431Y5569308D01*
X403260Y5564960D01*
X403261Y5564959D01*
X483873Y5492375D01*
X543008Y5439130D01*
X711492Y5341856D01*
X896518Y5281738D01*
X1041496Y5266500D01*
X1985262Y5266500D01*
X1988504Y5266500D01*
X2133482Y5281738D01*
X2318508Y5341856D01*
X2486992Y5439130D01*
X2631569Y5569308D01*
X2745922Y5726701D01*
X2825051Y5904429D01*
X2837392Y5962487D01*
X5118433Y5962487D01*
X5119112Y5956027D01*
X5137539Y5780692D01*
X5137540Y5780684D01*
X5138219Y5774231D01*
X5140224Y5768059D01*
X5140226Y5768052D01*
X5178934Y5648923D01*
X5196714Y5594203D01*
X5199961Y5588579D01*
X5199962Y5588577D01*
X5283735Y5443477D01*
X5291360Y5430271D01*
X5295704Y5425446D01*
X5295706Y5425444D01*
X5413672Y5294430D01*
X5418022Y5289599D01*
X5423280Y5285779D01*
X5423281Y5285778D01*
X5449815Y5266500D01*
X5571163Y5178336D01*
X5744090Y5101343D01*
X5929247Y5061987D01*
X6112036Y5061987D01*
X6118539Y5061987D01*
X6303696Y5101343D01*
X6476623Y5178336D01*
X6629764Y5289599D01*
X6756426Y5430271D01*
X6770407Y5454487D01*
X8420433Y5454487D01*
X8421112Y5448027D01*
X8439539Y5272692D01*
X8439540Y5272684D01*
X8440219Y5266231D01*
X8442224Y5260059D01*
X8442226Y5260052D01*
X8494234Y5099991D01*
X8498714Y5086203D01*
X8501961Y5080579D01*
X8501962Y5080577D01*
X8568795Y4964818D01*
X8593360Y4922271D01*
X8597704Y4917446D01*
X8597706Y4917444D01*
X8680091Y4825947D01*
X8720022Y4781599D01*
X8873163Y4670336D01*
X9046090Y4593343D01*
X9231247Y4553987D01*
X9414036Y4553987D01*
X9420539Y4553987D01*
X9605696Y4593343D01*
X9778623Y4670336D01*
X9931764Y4781599D01*
X10058426Y4922271D01*
X10153072Y5086203D01*
X10190205Y5200487D01*
X12865433Y5200487D01*
X12866112Y5194027D01*
X12884539Y5018692D01*
X12884540Y5018684D01*
X12885219Y5012231D01*
X12887224Y5006059D01*
X12887226Y5006052D01*
X12916017Y4917444D01*
X12943714Y4832203D01*
X12946961Y4826579D01*
X12946962Y4826577D01*
X13034961Y4674157D01*
X13038360Y4668271D01*
X13042704Y4663446D01*
X13042706Y4663444D01*
X13107043Y4591991D01*
X13165022Y4527599D01*
X13318163Y4416336D01*
X13491090Y4339343D01*
X13676247Y4299987D01*
X13859036Y4299987D01*
X13865539Y4299987D01*
X14050696Y4339343D01*
X14223623Y4416336D01*
X14376764Y4527599D01*
X14503426Y4668271D01*
X14598072Y4832203D01*
X14656567Y5012231D01*
X14676353Y5200487D01*
X14656567Y5388743D01*
X14606389Y5543174D01*
X14600321Y5581487D01*
X14606389Y5619801D01*
X14656567Y5774231D01*
X14676353Y5962487D01*
X14656567Y6150743D01*
X14598072Y6330771D01*
X14503426Y6494703D01*
X14492058Y6507328D01*
X14381113Y6630545D01*
X14381112Y6630546D01*
X14376764Y6635375D01*
X14371506Y6639195D01*
X14371504Y6639197D01*
X14228881Y6742818D01*
X14228880Y6742819D01*
X14223623Y6746638D01*
X14217685Y6749282D01*
X14056638Y6820986D01*
X14056633Y6820988D01*
X14050696Y6823631D01*
X14044337Y6824983D01*
X14044333Y6824984D01*
X14039144Y6826087D01*
X18072433Y6826087D01*
X18073112Y6819627D01*
X18091539Y6644292D01*
X18091540Y6644284D01*
X18092219Y6637831D01*
X18094224Y6631659D01*
X18094226Y6631652D01*
X18147888Y6466500D01*
X18150714Y6457803D01*
X18153961Y6452179D01*
X18153962Y6452177D01*
X18232015Y6316984D01*
X18245360Y6293871D01*
X18249704Y6289046D01*
X18249706Y6289044D01*
X18314783Y6216769D01*
X18372022Y6153199D01*
X18525163Y6041936D01*
X18698090Y5964943D01*
X18883247Y5925587D01*
X19066036Y5925587D01*
X19072539Y5925587D01*
X19257696Y5964943D01*
X19430623Y6041936D01*
X19583764Y6153199D01*
X19588093Y6158008D01*
X19645272Y6187144D01*
X19709373Y6183785D01*
X19763206Y6148826D01*
X19846400Y6056430D01*
X19850750Y6051599D01*
X20003891Y5940336D01*
X20176818Y5863343D01*
X20197898Y5858863D01*
X20253139Y5831443D01*
X20288340Y5780799D01*
X20294788Y5719462D01*
X20270890Y5662605D01*
X20222556Y5624295D01*
X20182102Y5606283D01*
X20182096Y5606280D01*
X20176163Y5603638D01*
X20170909Y5599822D01*
X20170904Y5599818D01*
X20028281Y5496197D01*
X20028274Y5496192D01*
X20023022Y5492375D01*
X20018677Y5487550D01*
X20018672Y5487545D01*
X19900706Y5356531D01*
X19900701Y5356525D01*
X19896360Y5351703D01*
X19893115Y5346083D01*
X19893111Y5346077D01*
X19804962Y5193398D01*
X19804959Y5193393D01*
X19801714Y5187771D01*
X19799708Y5181599D01*
X19799706Y5181593D01*
X19745226Y5013923D01*
X19745225Y5013916D01*
X19743219Y5007743D01*
X19742541Y5001293D01*
X19742539Y5001283D01*
X19733728Y4917444D01*
X19723433Y4819487D01*
X19724112Y4813027D01*
X19742539Y4637692D01*
X19742540Y4637684D01*
X19743219Y4631231D01*
X19745224Y4625059D01*
X19745226Y4625052D01*
X19799706Y4457382D01*
X19801714Y4451203D01*
X19804961Y4445579D01*
X19804962Y4445577D01*
X19864768Y4341989D01*
X19896360Y4287271D01*
X19900704Y4282446D01*
X19900706Y4282444D01*
X20018672Y4151430D01*
X20023022Y4146599D01*
X20028280Y4142779D01*
X20028281Y4142778D01*
X20068960Y4113223D01*
X20176163Y4035336D01*
X20349090Y3958343D01*
X20534247Y3918987D01*
X20717036Y3918987D01*
X20723539Y3918987D01*
X20908696Y3958343D01*
X21081623Y4035336D01*
X21234764Y4146599D01*
X21361426Y4287271D01*
X21456072Y4451203D01*
X21514567Y4631231D01*
X21534353Y4819487D01*
X21514567Y5007743D01*
X21496076Y5064650D01*
X21491892Y5124498D01*
X21516295Y5179308D01*
X21563574Y5216246D01*
X21620782Y5241717D01*
X21620781Y5241717D01*
X21626723Y5244362D01*
X21779864Y5355625D01*
X21906526Y5496297D01*
X22001172Y5660229D01*
X22059667Y5840257D01*
X22079453Y6028513D01*
X22059667Y6216769D01*
X22001172Y6396797D01*
X21906526Y6560729D01*
X21887780Y6581548D01*
X21784213Y6696571D01*
X21784212Y6696572D01*
X21779864Y6701401D01*
X21774606Y6705221D01*
X21774604Y6705223D01*
X21631981Y6808844D01*
X21631980Y6808845D01*
X21626723Y6812664D01*
X21612398Y6819042D01*
X21459738Y6887012D01*
X21459733Y6887014D01*
X21453796Y6889657D01*
X21447437Y6891009D01*
X21447436Y6891009D01*
X21412105Y6898519D01*
X21354915Y6927660D01*
X21319957Y6981491D01*
X21301305Y7038896D01*
X21283800Y7092771D01*
X21189154Y7256703D01*
X21161838Y7287040D01*
X21066841Y7392545D01*
X21066840Y7392546D01*
X21062492Y7397375D01*
X21057233Y7401196D01*
X21057232Y7401197D01*
X20914609Y7504818D01*
X20914608Y7504819D01*
X20909351Y7508638D01*
X20878738Y7522268D01*
X20742366Y7582986D01*
X20742361Y7582988D01*
X20736424Y7585631D01*
X20730065Y7586983D01*
X20730061Y7586984D01*
X20557629Y7623635D01*
X20557626Y7623636D01*
X20551267Y7624987D01*
X20361975Y7624987D01*
X20355616Y7623636D01*
X20355612Y7623635D01*
X20183180Y7586984D01*
X20183173Y7586982D01*
X20176818Y7585631D01*
X20170883Y7582989D01*
X20170875Y7582986D01*
X20009828Y7511282D01*
X20009823Y7511280D01*
X20003891Y7508638D01*
X19998637Y7504822D01*
X19998632Y7504818D01*
X19856008Y7401196D01*
X19856003Y7401192D01*
X19850750Y7397375D01*
X19846418Y7392564D01*
X19789235Y7363430D01*
X19725137Y7366790D01*
X19671307Y7401749D01*
X19588113Y7494145D01*
X19588112Y7494146D01*
X19583764Y7498975D01*
X19578506Y7502795D01*
X19578504Y7502797D01*
X19435881Y7606418D01*
X19435880Y7606419D01*
X19430623Y7610238D01*
X19424065Y7613158D01*
X19263638Y7684586D01*
X19263633Y7684588D01*
X19257696Y7687231D01*
X19251337Y7688583D01*
X19251333Y7688584D01*
X19078901Y7725235D01*
X19078898Y7725236D01*
X19072539Y7726587D01*
X18883247Y7726587D01*
X18876888Y7725236D01*
X18876884Y7725235D01*
X18704452Y7688584D01*
X18704445Y7688582D01*
X18698090Y7687231D01*
X18692155Y7684589D01*
X18692147Y7684586D01*
X18531100Y7612882D01*
X18531095Y7612880D01*
X18525163Y7610238D01*
X18519909Y7606422D01*
X18519904Y7606418D01*
X18377281Y7502797D01*
X18377274Y7502792D01*
X18372022Y7498975D01*
X18367677Y7494150D01*
X18367672Y7494145D01*
X18249706Y7363131D01*
X18249701Y7363125D01*
X18245360Y7358303D01*
X18242115Y7352683D01*
X18242111Y7352677D01*
X18153962Y7199998D01*
X18153959Y7199993D01*
X18150714Y7194371D01*
X18148708Y7188199D01*
X18148706Y7188193D01*
X18094226Y7020523D01*
X18094224Y7020514D01*
X18092219Y7014343D01*
X18091541Y7007893D01*
X18091539Y7007883D01*
X18079776Y6895952D01*
X18072433Y6826087D01*
X14039144Y6826087D01*
X13871901Y6861635D01*
X13871898Y6861636D01*
X13865539Y6862987D01*
X13676247Y6862987D01*
X13669888Y6861636D01*
X13669884Y6861635D01*
X13497452Y6824984D01*
X13497445Y6824982D01*
X13491090Y6823631D01*
X13485155Y6820989D01*
X13485147Y6820986D01*
X13324100Y6749282D01*
X13324095Y6749280D01*
X13318163Y6746638D01*
X13312909Y6742822D01*
X13312904Y6742818D01*
X13170281Y6639197D01*
X13170274Y6639192D01*
X13165022Y6635375D01*
X13160677Y6630550D01*
X13160672Y6630545D01*
X13042706Y6499531D01*
X13042701Y6499525D01*
X13038360Y6494703D01*
X13035115Y6489083D01*
X13035111Y6489077D01*
X12946962Y6336398D01*
X12946959Y6336393D01*
X12943714Y6330771D01*
X12941708Y6324599D01*
X12941706Y6324593D01*
X12887226Y6156923D01*
X12887224Y6156914D01*
X12885219Y6150743D01*
X12884541Y6144293D01*
X12884539Y6144283D01*
X12867978Y5986703D01*
X12865433Y5962487D01*
X12866112Y5956027D01*
X12884539Y5780692D01*
X12884540Y5780684D01*
X12885219Y5774231D01*
X12887224Y5768059D01*
X12887226Y5768052D01*
X12935395Y5619806D01*
X12941464Y5581488D01*
X12935395Y5543170D01*
X12887226Y5394923D01*
X12887224Y5394914D01*
X12885219Y5388743D01*
X12884541Y5382293D01*
X12884539Y5382283D01*
X12871693Y5260052D01*
X12865433Y5200487D01*
X10190205Y5200487D01*
X10211567Y5266231D01*
X10231353Y5454487D01*
X10216669Y5594203D01*
X10212246Y5636283D01*
X10212245Y5636284D01*
X10211567Y5642743D01*
X10153072Y5822771D01*
X10058426Y5986703D01*
X9931764Y6127375D01*
X9926506Y6131195D01*
X9926504Y6131197D01*
X9783881Y6234818D01*
X9783880Y6234819D01*
X9778623Y6238638D01*
X9772685Y6241282D01*
X9611638Y6312986D01*
X9611633Y6312988D01*
X9605696Y6315631D01*
X9599337Y6316983D01*
X9599333Y6316984D01*
X9426901Y6353635D01*
X9426898Y6353636D01*
X9420539Y6354987D01*
X9231247Y6354987D01*
X9224888Y6353636D01*
X9224884Y6353635D01*
X9052452Y6316984D01*
X9052445Y6316982D01*
X9046090Y6315631D01*
X9040155Y6312989D01*
X9040147Y6312986D01*
X8879100Y6241282D01*
X8879095Y6241280D01*
X8873163Y6238638D01*
X8867909Y6234822D01*
X8867904Y6234818D01*
X8725281Y6131197D01*
X8725274Y6131192D01*
X8720022Y6127375D01*
X8715677Y6122550D01*
X8715672Y6122545D01*
X8597706Y5991531D01*
X8597701Y5991525D01*
X8593360Y5986703D01*
X8590115Y5981083D01*
X8590111Y5981077D01*
X8501962Y5828398D01*
X8501959Y5828393D01*
X8498714Y5822771D01*
X8496708Y5816599D01*
X8496706Y5816593D01*
X8442226Y5648923D01*
X8442224Y5648914D01*
X8440219Y5642743D01*
X8439541Y5636293D01*
X8439539Y5636283D01*
X8424827Y5496297D01*
X8420433Y5454487D01*
X6770407Y5454487D01*
X6851072Y5594203D01*
X6909567Y5774231D01*
X6929353Y5962487D01*
X6909567Y6150743D01*
X6851072Y6330771D01*
X6756426Y6494703D01*
X6745058Y6507328D01*
X6634113Y6630545D01*
X6634112Y6630546D01*
X6629764Y6635375D01*
X6624506Y6639195D01*
X6624504Y6639197D01*
X6481881Y6742818D01*
X6481880Y6742819D01*
X6476623Y6746638D01*
X6470685Y6749282D01*
X6309638Y6820986D01*
X6309633Y6820988D01*
X6303696Y6823631D01*
X6297337Y6824983D01*
X6297333Y6824984D01*
X6124901Y6861635D01*
X6124898Y6861636D01*
X6118539Y6862987D01*
X5929247Y6862987D01*
X5922888Y6861636D01*
X5922884Y6861635D01*
X5750452Y6824984D01*
X5750445Y6824982D01*
X5744090Y6823631D01*
X5738155Y6820989D01*
X5738147Y6820986D01*
X5577100Y6749282D01*
X5577095Y6749280D01*
X5571163Y6746638D01*
X5565909Y6742822D01*
X5565904Y6742818D01*
X5423281Y6639197D01*
X5423274Y6639192D01*
X5418022Y6635375D01*
X5413677Y6630550D01*
X5413672Y6630545D01*
X5295706Y6499531D01*
X5295701Y6499525D01*
X5291360Y6494703D01*
X5288115Y6489083D01*
X5288111Y6489077D01*
X5199962Y6336398D01*
X5199959Y6336393D01*
X5196714Y6330771D01*
X5194708Y6324599D01*
X5194706Y6324593D01*
X5140226Y6156923D01*
X5140224Y6156914D01*
X5138219Y6150743D01*
X5137541Y6144293D01*
X5137539Y6144283D01*
X5120978Y5986703D01*
X5118433Y5962487D01*
X2837392Y5962487D01*
X2865500Y6094726D01*
X2865500Y6289274D01*
X2825051Y6479571D01*
X2745922Y6657299D01*
X2631569Y6814692D01*
X2486992Y6944870D01*
X2448684Y6966987D01*
X2427740Y6979079D01*
X3310619Y6979079D01*
X3312344Y6970774D01*
X3312345Y6970772D01*
X3339681Y6839223D01*
X3339682Y6839220D01*
X3341408Y6830915D01*
X3411029Y6696553D01*
X3416816Y6690357D01*
X3416818Y6690354D01*
X3508529Y6592156D01*
X3508531Y6592155D01*
X3514320Y6585956D01*
X3521566Y6581550D01*
X3521568Y6581548D01*
X3636374Y6511733D01*
X3643618Y6507328D01*
X3789335Y6466500D01*
X3898421Y6466500D01*
X3902658Y6466500D01*
X4014920Y6481930D01*
X4153720Y6542220D01*
X4271108Y6637722D01*
X4358377Y6761353D01*
X4409054Y6903944D01*
X4419381Y7054921D01*
X4388592Y7203085D01*
X4318971Y7337447D01*
X4313181Y7343647D01*
X4221470Y7441845D01*
X4221467Y7441847D01*
X4215680Y7448044D01*
X4208434Y7452450D01*
X4208431Y7452453D01*
X4093625Y7522268D01*
X4093621Y7522270D01*
X4086382Y7526672D01*
X4078220Y7528959D01*
X3948829Y7565213D01*
X3948825Y7565214D01*
X3940665Y7567500D01*
X3827342Y7567500D01*
X3823158Y7566925D01*
X3823144Y7566924D01*
X3723485Y7553226D01*
X3723479Y7553225D01*
X3715080Y7552070D01*
X3707299Y7548691D01*
X3707298Y7548690D01*
X3584062Y7495161D01*
X3584057Y7495159D01*
X3576280Y7491780D01*
X3569702Y7486429D01*
X3569698Y7486426D01*
X3465470Y7401630D01*
X3465468Y7401629D01*
X3458892Y7396278D01*
X3454003Y7389353D01*
X3454002Y7389351D01*
X3381783Y7287040D01*
X3371623Y7272647D01*
X3368785Y7264663D01*
X3368782Y7264656D01*
X3323786Y7138049D01*
X3323784Y7138045D01*
X3320946Y7130056D01*
X3320367Y7121597D01*
X3320367Y7121595D01*
X3311197Y6987543D01*
X3311197Y6987537D01*
X3310619Y6979079D01*
X2427740Y6979079D01*
X2324134Y7038896D01*
X2324132Y7038897D01*
X2318508Y7042144D01*
X2312331Y7044151D01*
X2312329Y7044152D01*
X2139663Y7100254D01*
X2139660Y7100255D01*
X2133482Y7102262D01*
X2127027Y7102941D01*
X2127020Y7102942D01*
X1991724Y7117162D01*
X1991715Y7117163D01*
X1988504Y7117500D01*
X1041496Y7117500D01*
X1038285Y7117163D01*
X1038275Y7117162D01*
X902979Y7102942D01*
X902970Y7102941D01*
X896518Y7102262D01*
X890341Y7100256D01*
X890336Y7100254D01*
X717670Y7044152D01*
X717664Y7044150D01*
X711492Y7042144D01*
X705870Y7038899D01*
X705865Y7038896D01*
X548634Y6948119D01*
X548628Y6948115D01*
X543008Y6944870D01*
X538186Y6940529D01*
X538180Y6940524D01*
X403261Y6819042D01*
X403256Y6819037D01*
X398431Y6814692D01*
X394614Y6809440D01*
X394609Y6809433D01*
X287898Y6662558D01*
X287894Y6662552D01*
X284078Y6657299D01*
X281435Y6651365D01*
X281435Y6651363D01*
X237780Y6553311D01*
X195269Y6501924D01*
X132286Y6479991D01*
X67051Y6493857D01*
X18435Y6539511D01*
X500Y6603746D01*
X500Y11413648D01*
X19268Y11479240D01*
X69891Y11524976D01*
X137045Y11537012D01*
X200401Y11511704D01*
X240781Y11456714D01*
X249328Y11433635D01*
X262114Y11399113D01*
X265440Y11393777D01*
X265442Y11393773D01*
X341534Y11271693D01*
X369748Y11226429D01*
X509941Y11078947D01*
X676951Y10962705D01*
X863942Y10882460D01*
X1063259Y10841500D01*
X1912600Y10841500D01*
X1915742Y10841500D01*
X2067438Y10856926D01*
X2261588Y10917841D01*
X2371918Y10979079D01*
X3310619Y10979079D01*
X3312344Y10970774D01*
X3312345Y10970772D01*
X3339681Y10839223D01*
X3339682Y10839220D01*
X3341408Y10830915D01*
X3345309Y10823386D01*
X3345310Y10823384D01*
X3359719Y10795577D01*
X3411029Y10696553D01*
X3416816Y10690357D01*
X3416818Y10690354D01*
X3508529Y10592156D01*
X3508531Y10592155D01*
X3514320Y10585956D01*
X3521566Y10581550D01*
X3521568Y10581548D01*
X3598182Y10534958D01*
X3643618Y10507328D01*
X3789335Y10466500D01*
X3898421Y10466500D01*
X3902658Y10466500D01*
X4014920Y10481930D01*
X4153720Y10542220D01*
X4271108Y10637722D01*
X4358377Y10761353D01*
X4409054Y10903944D01*
X4409844Y10915487D01*
X5118433Y10915487D01*
X5119112Y10909027D01*
X5137539Y10733692D01*
X5137540Y10733684D01*
X5138219Y10727231D01*
X5140224Y10721059D01*
X5140226Y10721052D01*
X5194706Y10553382D01*
X5196714Y10547203D01*
X5199961Y10541579D01*
X5199962Y10541577D01*
X5223141Y10501430D01*
X5291360Y10383271D01*
X5295702Y10378448D01*
X5295710Y10378438D01*
X5315548Y10356407D01*
X5341329Y10311756D01*
X5346720Y10260479D01*
X5330790Y10211441D01*
X5326965Y10204816D01*
X5326962Y10204812D01*
X5323714Y10199184D01*
X5321707Y10193010D01*
X5321704Y10193001D01*
X5267226Y10025336D01*
X5267224Y10025327D01*
X5265219Y10019156D01*
X5264541Y10012706D01*
X5264539Y10012696D01*
X5248258Y9857778D01*
X5245433Y9830900D01*
X5246112Y9824440D01*
X5264539Y9649105D01*
X5264540Y9649097D01*
X5265219Y9642644D01*
X5267224Y9636472D01*
X5267226Y9636465D01*
X5296123Y9547531D01*
X5323714Y9462616D01*
X5326961Y9456992D01*
X5326964Y9456986D01*
X5357555Y9404000D01*
X5374168Y9342002D01*
X5357556Y9280003D01*
X5326963Y9227013D01*
X5326960Y9227007D01*
X5323714Y9221384D01*
X5321708Y9215212D01*
X5321706Y9215206D01*
X5267226Y9047536D01*
X5267224Y9047527D01*
X5265219Y9041356D01*
X5264541Y9034906D01*
X5264539Y9034896D01*
X5250955Y8905638D01*
X5245433Y8853100D01*
X5246112Y8846640D01*
X5264539Y8671305D01*
X5264540Y8671297D01*
X5265219Y8664844D01*
X5267224Y8658672D01*
X5267226Y8658665D01*
X5321706Y8490995D01*
X5323714Y8484816D01*
X5326961Y8479192D01*
X5326962Y8479190D01*
X5411397Y8332943D01*
X5418360Y8320884D01*
X5422704Y8316059D01*
X5422706Y8316057D01*
X5540412Y8185332D01*
X5545022Y8180212D01*
X5698163Y8068949D01*
X5871090Y7991956D01*
X6056247Y7952600D01*
X6239036Y7952600D01*
X6245539Y7952600D01*
X6430696Y7991956D01*
X6603623Y8068949D01*
X6675936Y8121487D01*
X24295433Y8121487D01*
X24296112Y8115027D01*
X24314539Y7939692D01*
X24314540Y7939684D01*
X24315219Y7933231D01*
X24317224Y7927059D01*
X24317226Y7927052D01*
X24371706Y7759382D01*
X24373714Y7753203D01*
X24376961Y7747579D01*
X24376962Y7747577D01*
X24456254Y7610238D01*
X24468360Y7589271D01*
X24472704Y7584446D01*
X24472706Y7584444D01*
X24587058Y7457444D01*
X24595022Y7448599D01*
X24600280Y7444779D01*
X24600281Y7444778D01*
X24660267Y7401196D01*
X24748163Y7337336D01*
X24803213Y7312826D01*
X24830576Y7300643D01*
X24880458Y7260249D01*
X24903461Y7200326D01*
X24916035Y7080693D01*
X24921139Y7032134D01*
X24923144Y7025962D01*
X24923146Y7025955D01*
X24976538Y6861635D01*
X24979634Y6852106D01*
X24982881Y6846482D01*
X24982882Y6846480D01*
X24996216Y6823384D01*
X25074280Y6688174D01*
X25078624Y6683349D01*
X25078626Y6683347D01*
X25196592Y6552333D01*
X25200942Y6547502D01*
X25354083Y6436239D01*
X25527010Y6359246D01*
X25712167Y6319890D01*
X25894956Y6319890D01*
X25901459Y6319890D01*
X26086616Y6359246D01*
X26259543Y6436239D01*
X26412684Y6547502D01*
X26539346Y6688174D01*
X26633992Y6852106D01*
X26692487Y7032134D01*
X26712273Y7220390D01*
X26702557Y7312830D01*
X26710907Y7372239D01*
X26746173Y7420778D01*
X26800095Y7447077D01*
X26946797Y7478259D01*
X27119724Y7555252D01*
X27272865Y7666515D01*
X27399527Y7807187D01*
X27494173Y7971119D01*
X27552668Y8151147D01*
X27572454Y8339403D01*
X27552668Y8527659D01*
X27494173Y8707687D01*
X27476476Y8738338D01*
X27460544Y8787373D01*
X27465934Y8838654D01*
X27491713Y8883304D01*
X27584426Y8986271D01*
X27679072Y9150203D01*
X27737567Y9330231D01*
X27757353Y9518487D01*
X27743625Y9649105D01*
X27738246Y9700283D01*
X27738245Y9700284D01*
X27737567Y9706743D01*
X27679072Y9886771D01*
X27584426Y10050703D01*
X27457764Y10191375D01*
X27452506Y10195195D01*
X27452504Y10195197D01*
X27309881Y10298818D01*
X27309880Y10298819D01*
X27304623Y10302638D01*
X27295830Y10306553D01*
X27137638Y10376986D01*
X27137633Y10376988D01*
X27131696Y10379631D01*
X27125337Y10380983D01*
X27125333Y10380984D01*
X26952901Y10417635D01*
X26952898Y10417636D01*
X26946539Y10418987D01*
X26757247Y10418987D01*
X26750888Y10417636D01*
X26750884Y10417635D01*
X26578452Y10380984D01*
X26578445Y10380982D01*
X26572090Y10379631D01*
X26566155Y10376989D01*
X26566147Y10376986D01*
X26405100Y10305282D01*
X26405095Y10305280D01*
X26399163Y10302638D01*
X26393909Y10298822D01*
X26393904Y10298818D01*
X26251281Y10195197D01*
X26251274Y10195192D01*
X26246022Y10191375D01*
X26241677Y10186550D01*
X26241672Y10186545D01*
X26123706Y10055531D01*
X26123701Y10055525D01*
X26119360Y10050703D01*
X26116115Y10045083D01*
X26116111Y10045077D01*
X26027962Y9892398D01*
X26027959Y9892393D01*
X26024714Y9886771D01*
X26022708Y9880599D01*
X26022706Y9880593D01*
X25968226Y9712923D01*
X25968224Y9712914D01*
X25966219Y9706743D01*
X25965541Y9700293D01*
X25965539Y9700283D01*
X25948978Y9542703D01*
X25946433Y9518487D01*
X25947112Y9512027D01*
X25965539Y9336692D01*
X25965540Y9336684D01*
X25966219Y9330231D01*
X25968224Y9324059D01*
X25968226Y9324052D01*
X26003593Y9215206D01*
X26024714Y9150203D01*
X26027961Y9144579D01*
X26027962Y9144577D01*
X26042408Y9119556D01*
X26058342Y9070517D01*
X26052952Y9019238D01*
X26027171Y8974584D01*
X25949280Y8888077D01*
X25934461Y8871619D01*
X25931212Y8865993D01*
X25927392Y8860734D01*
X25925166Y8862351D01*
X25884842Y8823542D01*
X25818043Y8809415D01*
X25753892Y8832789D01*
X25658881Y8901818D01*
X25658880Y8901819D01*
X25653623Y8905638D01*
X25647685Y8908282D01*
X25486638Y8979986D01*
X25486633Y8979988D01*
X25480696Y8982631D01*
X25474337Y8983983D01*
X25474333Y8983984D01*
X25301901Y9020635D01*
X25301898Y9020636D01*
X25295539Y9021987D01*
X25106247Y9021987D01*
X25099888Y9020636D01*
X25099884Y9020635D01*
X24927452Y8983984D01*
X24927445Y8983982D01*
X24921090Y8982631D01*
X24915155Y8979989D01*
X24915147Y8979986D01*
X24754100Y8908282D01*
X24754095Y8908280D01*
X24748163Y8905638D01*
X24742909Y8901822D01*
X24742904Y8901818D01*
X24600281Y8798197D01*
X24600274Y8798192D01*
X24595022Y8794375D01*
X24590677Y8789550D01*
X24590672Y8789545D01*
X24472706Y8658531D01*
X24472701Y8658525D01*
X24468360Y8653703D01*
X24465115Y8648083D01*
X24465111Y8648077D01*
X24376962Y8495398D01*
X24376959Y8495393D01*
X24373714Y8489771D01*
X24371708Y8483599D01*
X24371706Y8483593D01*
X24317226Y8315923D01*
X24317224Y8315914D01*
X24315219Y8309743D01*
X24314541Y8303293D01*
X24314539Y8303283D01*
X24302143Y8185332D01*
X24295433Y8121487D01*
X6675936Y8121487D01*
X6756764Y8180212D01*
X6883426Y8320884D01*
X6978072Y8484816D01*
X7036567Y8664844D01*
X7056353Y8853100D01*
X7038603Y9021987D01*
X7037246Y9034896D01*
X7037245Y9034897D01*
X7036567Y9041356D01*
X6978072Y9221384D01*
X6944229Y9280001D01*
X6927617Y9342000D01*
X6944230Y9404001D01*
X6978072Y9462616D01*
X6996226Y9518487D01*
X7454133Y9518487D01*
X7454812Y9512027D01*
X7473239Y9336692D01*
X7473240Y9336684D01*
X7473919Y9330231D01*
X7475924Y9324059D01*
X7475926Y9324052D01*
X7511293Y9215206D01*
X7532414Y9150203D01*
X7535661Y9144579D01*
X7535662Y9144577D01*
X7616808Y9004027D01*
X7627060Y8986271D01*
X7631404Y8981446D01*
X7631406Y8981444D01*
X7725946Y8876447D01*
X7753722Y8845599D01*
X7758980Y8841779D01*
X7758981Y8841778D01*
X7823275Y8795066D01*
X7906863Y8734336D01*
X8079790Y8657343D01*
X8264947Y8617987D01*
X8447736Y8617987D01*
X8454239Y8617987D01*
X8639396Y8657343D01*
X8812323Y8734336D01*
X8965464Y8845599D01*
X9092126Y8986271D01*
X9186772Y9150203D01*
X9245267Y9330231D01*
X9265053Y9518487D01*
X9251325Y9649105D01*
X9245946Y9700283D01*
X9245945Y9700284D01*
X9245267Y9706743D01*
X9186772Y9886771D01*
X9164766Y9924887D01*
X15938833Y9924887D01*
X15939512Y9918427D01*
X15957939Y9743092D01*
X15957940Y9743084D01*
X15958619Y9736631D01*
X15960624Y9730459D01*
X15960626Y9730452D01*
X16015106Y9562782D01*
X16017114Y9556603D01*
X16020361Y9550979D01*
X16020362Y9550977D01*
X16105218Y9404001D01*
X16111760Y9392671D01*
X16116104Y9387846D01*
X16116106Y9387844D01*
X16223612Y9268447D01*
X16238422Y9251999D01*
X16391563Y9140736D01*
X16564490Y9063743D01*
X16749647Y9024387D01*
X16932436Y9024387D01*
X16938939Y9024387D01*
X17124096Y9063743D01*
X17297023Y9140736D01*
X17450164Y9251999D01*
X17576826Y9392671D01*
X17671472Y9556603D01*
X17729967Y9736631D01*
X17749753Y9924887D01*
X17729967Y10113143D01*
X17671472Y10293171D01*
X17576826Y10457103D01*
X17567845Y10467077D01*
X17454513Y10592945D01*
X17454512Y10592946D01*
X17450164Y10597775D01*
X17444906Y10601595D01*
X17444904Y10601597D01*
X17302281Y10705218D01*
X17302280Y10705219D01*
X17297023Y10709038D01*
X17280751Y10716283D01*
X17130038Y10783386D01*
X17130033Y10783388D01*
X17124096Y10786031D01*
X17117737Y10787383D01*
X17117733Y10787384D01*
X16945301Y10824035D01*
X16945298Y10824036D01*
X16938939Y10825387D01*
X16749647Y10825387D01*
X16743288Y10824036D01*
X16743284Y10824035D01*
X16570852Y10787384D01*
X16570845Y10787382D01*
X16564490Y10786031D01*
X16558555Y10783389D01*
X16558547Y10783386D01*
X16397500Y10711682D01*
X16397495Y10711680D01*
X16391563Y10709038D01*
X16386309Y10705222D01*
X16386304Y10705218D01*
X16243681Y10601597D01*
X16243674Y10601592D01*
X16238422Y10597775D01*
X16234077Y10592950D01*
X16234072Y10592945D01*
X16116106Y10461931D01*
X16116101Y10461925D01*
X16111760Y10457103D01*
X16108515Y10451483D01*
X16108511Y10451477D01*
X16020362Y10298798D01*
X16020359Y10298793D01*
X16017114Y10293171D01*
X16015108Y10286999D01*
X16015106Y10286993D01*
X15960626Y10119323D01*
X15960624Y10119314D01*
X15958619Y10113143D01*
X15957941Y10106693D01*
X15957939Y10106683D01*
X15940284Y9938697D01*
X15938833Y9924887D01*
X9164766Y9924887D01*
X9092126Y10050703D01*
X8965464Y10191375D01*
X8960206Y10195195D01*
X8960204Y10195197D01*
X8817581Y10298818D01*
X8817580Y10298819D01*
X8812323Y10302638D01*
X8803530Y10306553D01*
X8645338Y10376986D01*
X8645333Y10376988D01*
X8639396Y10379631D01*
X8633037Y10380983D01*
X8633033Y10380984D01*
X8460601Y10417635D01*
X8460598Y10417636D01*
X8454239Y10418987D01*
X8264947Y10418987D01*
X8258588Y10417636D01*
X8258584Y10417635D01*
X8086152Y10380984D01*
X8086145Y10380982D01*
X8079790Y10379631D01*
X8073855Y10376989D01*
X8073847Y10376986D01*
X7912800Y10305282D01*
X7912795Y10305280D01*
X7906863Y10302638D01*
X7901609Y10298822D01*
X7901604Y10298818D01*
X7758981Y10195197D01*
X7758974Y10195192D01*
X7753722Y10191375D01*
X7749377Y10186550D01*
X7749372Y10186545D01*
X7631406Y10055531D01*
X7631401Y10055525D01*
X7627060Y10050703D01*
X7623815Y10045083D01*
X7623811Y10045077D01*
X7535662Y9892398D01*
X7535659Y9892393D01*
X7532414Y9886771D01*
X7530408Y9880599D01*
X7530406Y9880593D01*
X7475926Y9712923D01*
X7475924Y9712914D01*
X7473919Y9706743D01*
X7473241Y9700293D01*
X7473239Y9700283D01*
X7456678Y9542703D01*
X7454133Y9518487D01*
X6996226Y9518487D01*
X7036567Y9642644D01*
X7056353Y9830900D01*
X7036567Y10019156D01*
X6978072Y10199184D01*
X6883426Y10363116D01*
X6879079Y10367944D01*
X6859236Y10389982D01*
X6833455Y10434638D01*
X6828067Y10485919D01*
X6844002Y10534958D01*
X6851072Y10547203D01*
X6909567Y10727231D01*
X6929353Y10915487D01*
X6909567Y11103743D01*
X6851072Y11283771D01*
X6756426Y11447703D01*
X6748312Y11456714D01*
X6634113Y11583545D01*
X6634112Y11583546D01*
X6629764Y11588375D01*
X6624506Y11592195D01*
X6624504Y11592197D01*
X6481881Y11695818D01*
X6481880Y11695819D01*
X6476623Y11699638D01*
X6470685Y11702282D01*
X6309638Y11773986D01*
X6309633Y11773988D01*
X6303696Y11776631D01*
X6297337Y11777983D01*
X6297333Y11777984D01*
X6124901Y11814635D01*
X6124898Y11814636D01*
X6118539Y11815987D01*
X5929247Y11815987D01*
X5922888Y11814636D01*
X5922884Y11814635D01*
X5750452Y11777984D01*
X5750445Y11777982D01*
X5744090Y11776631D01*
X5738155Y11773989D01*
X5738147Y11773986D01*
X5577100Y11702282D01*
X5577095Y11702280D01*
X5571163Y11699638D01*
X5565909Y11695822D01*
X5565904Y11695818D01*
X5423281Y11592197D01*
X5423274Y11592192D01*
X5418022Y11588375D01*
X5413677Y11583550D01*
X5413672Y11583545D01*
X5295706Y11452531D01*
X5295701Y11452525D01*
X5291360Y11447703D01*
X5288115Y11442083D01*
X5288111Y11442077D01*
X5199962Y11289398D01*
X5199959Y11289393D01*
X5196714Y11283771D01*
X5194708Y11277599D01*
X5194706Y11277593D01*
X5140226Y11109923D01*
X5140224Y11109914D01*
X5138219Y11103743D01*
X5137541Y11097293D01*
X5137539Y11097283D01*
X5123135Y10960228D01*
X5118433Y10915487D01*
X4409844Y10915487D01*
X4419381Y11054921D01*
X4388592Y11203085D01*
X4318971Y11337447D01*
X4300016Y11357743D01*
X4221470Y11441845D01*
X4221467Y11441847D01*
X4215680Y11448044D01*
X4208434Y11452450D01*
X4208431Y11452453D01*
X4093625Y11522268D01*
X4093621Y11522270D01*
X4086382Y11526672D01*
X4068819Y11531593D01*
X3948829Y11565213D01*
X3948825Y11565214D01*
X3940665Y11567500D01*
X3827342Y11567500D01*
X3823158Y11566925D01*
X3823144Y11566924D01*
X3723485Y11553226D01*
X3723479Y11553225D01*
X3715080Y11552070D01*
X3707299Y11548691D01*
X3707298Y11548690D01*
X3584062Y11495161D01*
X3584057Y11495159D01*
X3576280Y11491780D01*
X3569702Y11486429D01*
X3569698Y11486426D01*
X3465470Y11401630D01*
X3465468Y11401629D01*
X3458892Y11396278D01*
X3454003Y11389353D01*
X3454002Y11389351D01*
X3401391Y11314818D01*
X3371623Y11272647D01*
X3368785Y11264663D01*
X3368782Y11264656D01*
X3323786Y11138049D01*
X3323784Y11138045D01*
X3320946Y11130056D01*
X3320367Y11121597D01*
X3320367Y11121595D01*
X3311197Y10987543D01*
X3311197Y10987537D01*
X3310619Y10979079D01*
X2371918Y10979079D01*
X2439502Y11016591D01*
X2593895Y11149134D01*
X2718448Y11310042D01*
X2808060Y11492729D01*
X2859063Y11689715D01*
X2869369Y11892936D01*
X2844007Y12058487D01*
X26454433Y12058487D01*
X26455112Y12052027D01*
X26473539Y11876692D01*
X26473540Y11876684D01*
X26474219Y11870231D01*
X26476224Y11864059D01*
X26476226Y11864052D01*
X26528789Y11702282D01*
X26532714Y11690203D01*
X26535961Y11684579D01*
X26535962Y11684577D01*
X26621158Y11537012D01*
X26627360Y11526271D01*
X26631704Y11521446D01*
X26631706Y11521444D01*
X26744989Y11395631D01*
X26754022Y11385599D01*
X26759280Y11381779D01*
X26759281Y11381778D01*
X26784538Y11363428D01*
X26907163Y11274336D01*
X27080090Y11197343D01*
X27265247Y11157987D01*
X27448036Y11157987D01*
X27454539Y11157987D01*
X27639696Y11197343D01*
X27812623Y11274336D01*
X27965764Y11385599D01*
X28002163Y11426025D01*
X28049873Y11458816D01*
X28107273Y11466373D01*
X28161847Y11447047D01*
X28201699Y11405052D01*
X28274961Y11278157D01*
X28278360Y11272271D01*
X28282704Y11267446D01*
X28282706Y11267444D01*
X28405022Y11131599D01*
X28403763Y11130467D01*
X28424786Y11102556D01*
X28437025Y11056857D01*
X28431257Y11009900D01*
X28381226Y10855923D01*
X28381224Y10855914D01*
X28379219Y10849743D01*
X28378541Y10843293D01*
X28378539Y10843283D01*
X28364029Y10705218D01*
X28359433Y10661487D01*
X28360112Y10655027D01*
X28378539Y10479692D01*
X28378540Y10479684D01*
X28379219Y10473231D01*
X28381224Y10467059D01*
X28381226Y10467052D01*
X28433234Y10306991D01*
X28437714Y10293203D01*
X28440961Y10287579D01*
X28440962Y10287577D01*
X28522156Y10146944D01*
X28532360Y10129271D01*
X28536704Y10124446D01*
X28536706Y10124444D01*
X28651058Y9997444D01*
X28659022Y9988599D01*
X28812163Y9877336D01*
X28985090Y9800343D01*
X29170247Y9760987D01*
X29353036Y9760987D01*
X29359539Y9760987D01*
X29432667Y9776531D01*
X29496762Y9773172D01*
X29550594Y9738214D01*
X29579735Y9681023D01*
X29576376Y9616923D01*
X29524226Y9456423D01*
X29524224Y9456414D01*
X29522219Y9450243D01*
X29521540Y9443786D01*
X29521540Y9443784D01*
X29517170Y9402204D01*
X29494167Y9342281D01*
X29444284Y9301886D01*
X29380888Y9291845D01*
X29320964Y9314848D01*
X29221461Y9387141D01*
X29221460Y9387142D01*
X29216203Y9390961D01*
X29210265Y9393605D01*
X29049218Y9465309D01*
X29049213Y9465311D01*
X29043276Y9467954D01*
X29036917Y9469306D01*
X29036913Y9469307D01*
X28864481Y9505958D01*
X28864478Y9505959D01*
X28858119Y9507310D01*
X28668827Y9507310D01*
X28662468Y9505959D01*
X28662464Y9505958D01*
X28490032Y9469307D01*
X28490025Y9469305D01*
X28483670Y9467954D01*
X28477735Y9465312D01*
X28477727Y9465309D01*
X28316680Y9393605D01*
X28316675Y9393603D01*
X28310743Y9390961D01*
X28305489Y9387145D01*
X28305484Y9387141D01*
X28162861Y9283520D01*
X28162854Y9283515D01*
X28157602Y9279698D01*
X28153257Y9274873D01*
X28153252Y9274868D01*
X28035286Y9143854D01*
X28035281Y9143848D01*
X28030940Y9139026D01*
X28027695Y9133406D01*
X28027691Y9133400D01*
X27939542Y8980721D01*
X27939539Y8980716D01*
X27936294Y8975094D01*
X27934288Y8968922D01*
X27934286Y8968916D01*
X27879806Y8801246D01*
X27879804Y8801237D01*
X27877799Y8795066D01*
X27877121Y8788616D01*
X27877119Y8788606D01*
X27859950Y8625243D01*
X27858013Y8606810D01*
X27858692Y8600350D01*
X27877119Y8425015D01*
X27877120Y8425007D01*
X27877799Y8418554D01*
X27879804Y8412382D01*
X27879806Y8412375D01*
X27934286Y8244705D01*
X27936294Y8238526D01*
X27939541Y8232902D01*
X27939542Y8232900D01*
X28009724Y8111340D01*
X28030940Y8074594D01*
X28035284Y8069769D01*
X28035286Y8069767D01*
X28148794Y7943704D01*
X28157602Y7933922D01*
X28310743Y7822659D01*
X28483670Y7745666D01*
X28668827Y7706310D01*
X28851616Y7706310D01*
X28858119Y7706310D01*
X29043276Y7745666D01*
X29216203Y7822659D01*
X29369344Y7933922D01*
X29496006Y8074594D01*
X29533001Y8138673D01*
X29580648Y8185332D01*
X29645578Y8200562D01*
X29709007Y8179954D01*
X29752585Y8129469D01*
X29763708Y8063711D01*
X29760665Y8034753D01*
X29756433Y7994487D01*
X29757112Y7988027D01*
X29775539Y7812692D01*
X29775540Y7812684D01*
X29776219Y7806231D01*
X29778224Y7800059D01*
X29778226Y7800052D01*
X29822857Y7662694D01*
X29834714Y7626203D01*
X29837961Y7620579D01*
X29837962Y7620577D01*
X29918601Y7480905D01*
X29929360Y7462271D01*
X29933704Y7457446D01*
X29933706Y7457444D01*
X30051672Y7326430D01*
X30056022Y7321599D01*
X30061280Y7317779D01*
X30061281Y7317778D01*
X30096839Y7291944D01*
X30209163Y7210336D01*
X30382090Y7133343D01*
X30567247Y7093987D01*
X30750036Y7093987D01*
X30756539Y7093987D01*
X30941696Y7133343D01*
X31114623Y7210336D01*
X31267764Y7321599D01*
X31394426Y7462271D01*
X31489072Y7626203D01*
X31547567Y7806231D01*
X31562763Y7950816D01*
X40580085Y7950816D01*
X40581338Y7943705D01*
X40581339Y7943704D01*
X40609112Y7786187D01*
X40609114Y7786179D01*
X40610367Y7779075D01*
X40613224Y7772450D01*
X40613226Y7772446D01*
X40673645Y7632382D01*
X40679440Y7618948D01*
X40683748Y7613161D01*
X40683750Y7613158D01*
X40737678Y7540720D01*
X40783578Y7479065D01*
X40789103Y7474429D01*
X40789106Y7474426D01*
X40824440Y7444778D01*
X40917168Y7366970D01*
X41073009Y7288704D01*
X41242698Y7248487D01*
X41369749Y7248487D01*
X41373348Y7248487D01*
X41503104Y7263653D01*
X41666977Y7323298D01*
X41812677Y7419127D01*
X41932351Y7545974D01*
X42019546Y7697000D01*
X42022739Y7707663D01*
X42030225Y7732671D01*
X42036990Y7755271D01*
X42073022Y7812049D01*
X42133395Y7841671D01*
X42200352Y7835421D01*
X42254200Y7795138D01*
X42279102Y7732671D01*
X42279884Y7725235D01*
X42284719Y7679231D01*
X42286724Y7673059D01*
X42286726Y7673052D01*
X42339289Y7511282D01*
X42343214Y7499203D01*
X42346461Y7493579D01*
X42346462Y7493577D01*
X42434461Y7341157D01*
X42437860Y7335271D01*
X42442204Y7330446D01*
X42442206Y7330444D01*
X42546912Y7214157D01*
X42564522Y7194599D01*
X42717663Y7083336D01*
X42890590Y7006343D01*
X43075747Y6966987D01*
X43258536Y6966987D01*
X43265039Y6966987D01*
X43450196Y7006343D01*
X43623123Y7083336D01*
X43776264Y7194599D01*
X43902926Y7335271D01*
X43997572Y7499203D01*
X44056067Y7679231D01*
X44075853Y7867487D01*
X44056067Y8055743D01*
X43997572Y8235771D01*
X43902926Y8399703D01*
X43885952Y8418554D01*
X43780613Y8535545D01*
X43780612Y8535546D01*
X43776264Y8540375D01*
X43771006Y8544195D01*
X43771004Y8544197D01*
X43628381Y8647818D01*
X43628380Y8647819D01*
X43623123Y8651638D01*
X43617185Y8654282D01*
X43456138Y8725986D01*
X43456133Y8725988D01*
X43450196Y8728631D01*
X43443837Y8729983D01*
X43443833Y8729984D01*
X43271401Y8766635D01*
X43271398Y8766636D01*
X43265039Y8767987D01*
X43075747Y8767987D01*
X43069388Y8766636D01*
X43069384Y8766635D01*
X42896952Y8729984D01*
X42896945Y8729982D01*
X42890590Y8728631D01*
X42884655Y8725989D01*
X42884647Y8725986D01*
X42723600Y8654282D01*
X42723595Y8654280D01*
X42717663Y8651638D01*
X42712409Y8647822D01*
X42712404Y8647818D01*
X42569781Y8544197D01*
X42569774Y8544192D01*
X42564522Y8540375D01*
X42560177Y8535550D01*
X42560172Y8535545D01*
X42442206Y8404531D01*
X42442201Y8404525D01*
X42437860Y8399703D01*
X42434615Y8394083D01*
X42434611Y8394077D01*
X42346462Y8241398D01*
X42346459Y8241393D01*
X42343214Y8235771D01*
X42341209Y8229602D01*
X42341207Y8229596D01*
X42303497Y8113536D01*
X42267892Y8059128D01*
X42209650Y8030216D01*
X42144786Y8034753D01*
X42091135Y8071489D01*
X42063450Y8130323D01*
X42055327Y8176391D01*
X42049419Y8209899D01*
X41980346Y8370026D01*
X41876208Y8509909D01*
X41870681Y8514546D01*
X41870679Y8514549D01*
X41768424Y8600350D01*
X41742618Y8622004D01*
X41713601Y8636577D01*
X41593227Y8697031D01*
X41593224Y8697032D01*
X41586777Y8700270D01*
X41579752Y8701935D01*
X41424115Y8738822D01*
X41424111Y8738823D01*
X41417088Y8740487D01*
X41286438Y8740487D01*
X41282873Y8740071D01*
X41282867Y8740070D01*
X41163849Y8726159D01*
X41163846Y8726159D01*
X41156682Y8725321D01*
X41149903Y8722854D01*
X41149900Y8722853D01*
X40999594Y8668146D01*
X40999590Y8668145D01*
X40992809Y8665676D01*
X40986779Y8661711D01*
X40986773Y8661707D01*
X40853145Y8573818D01*
X40853139Y8573814D01*
X40847109Y8569847D01*
X40842156Y8564598D01*
X40842151Y8564593D01*
X40732392Y8448255D01*
X40732388Y8448251D01*
X40727435Y8443000D01*
X40723825Y8436750D01*
X40723823Y8436745D01*
X40643850Y8298228D01*
X40643847Y8298223D01*
X40640240Y8291974D01*
X40638170Y8285062D01*
X40638169Y8285058D01*
X40597135Y8147991D01*
X40590225Y8124910D01*
X40589805Y8117705D01*
X40589805Y8117703D01*
X40580504Y7958026D01*
X40580504Y7958018D01*
X40580085Y7950816D01*
X31562763Y7950816D01*
X31567353Y7994487D01*
X31551537Y8144968D01*
X31548246Y8176283D01*
X31548245Y8176284D01*
X31547567Y8182743D01*
X31489072Y8362771D01*
X31394426Y8526703D01*
X31312792Y8617366D01*
X31272113Y8662545D01*
X31272112Y8662546D01*
X31267764Y8667375D01*
X31243000Y8685367D01*
X31204437Y8731327D01*
X31191965Y8790013D01*
X31208503Y8847685D01*
X31210088Y8850430D01*
X31235072Y8893703D01*
X31273018Y9010487D01*
X38138433Y9010487D01*
X38139112Y9004027D01*
X38157539Y8828692D01*
X38157540Y8828684D01*
X38158219Y8822231D01*
X38160224Y8816059D01*
X38160226Y8816052D01*
X38212234Y8655991D01*
X38216714Y8642203D01*
X38219961Y8636579D01*
X38219962Y8636577D01*
X38301471Y8495398D01*
X38311360Y8478271D01*
X38315704Y8473446D01*
X38315706Y8473444D01*
X38410290Y8368398D01*
X38438022Y8337599D01*
X38443280Y8333779D01*
X38443281Y8333778D01*
X38476363Y8309743D01*
X38591163Y8226336D01*
X38764090Y8149343D01*
X38949247Y8109987D01*
X39132036Y8109987D01*
X39138539Y8109987D01*
X39323696Y8149343D01*
X39496623Y8226336D01*
X39649764Y8337599D01*
X39776426Y8478271D01*
X39871072Y8642203D01*
X39929567Y8822231D01*
X39949353Y9010487D01*
X39929567Y9198743D01*
X39871072Y9378771D01*
X39776426Y9542703D01*
X39763910Y9556603D01*
X39654113Y9678545D01*
X39654112Y9678546D01*
X39649764Y9683375D01*
X39644506Y9687195D01*
X39644504Y9687197D01*
X39501881Y9790818D01*
X39501880Y9790819D01*
X39496623Y9794638D01*
X39490685Y9797282D01*
X39329638Y9868986D01*
X39329633Y9868988D01*
X39323696Y9871631D01*
X39317337Y9872983D01*
X39317333Y9872984D01*
X39144901Y9909635D01*
X39144898Y9909636D01*
X39138539Y9910987D01*
X38949247Y9910987D01*
X38942888Y9909636D01*
X38942884Y9909635D01*
X38770452Y9872984D01*
X38770445Y9872982D01*
X38764090Y9871631D01*
X38758155Y9868989D01*
X38758147Y9868986D01*
X38597100Y9797282D01*
X38597095Y9797280D01*
X38591163Y9794638D01*
X38585909Y9790822D01*
X38585904Y9790818D01*
X38443281Y9687197D01*
X38443274Y9687192D01*
X38438022Y9683375D01*
X38433677Y9678550D01*
X38433672Y9678545D01*
X38315706Y9547531D01*
X38315701Y9547525D01*
X38311360Y9542703D01*
X38308115Y9537083D01*
X38308111Y9537077D01*
X38219962Y9384398D01*
X38219959Y9384393D01*
X38216714Y9378771D01*
X38214708Y9372599D01*
X38214706Y9372593D01*
X38160226Y9204923D01*
X38160224Y9204914D01*
X38158219Y9198743D01*
X38157541Y9192293D01*
X38157539Y9192283D01*
X38144308Y9066389D01*
X38138433Y9010487D01*
X31273018Y9010487D01*
X31293567Y9073731D01*
X31313353Y9261987D01*
X31293567Y9450243D01*
X31235072Y9630271D01*
X31140426Y9794203D01*
X31113200Y9824440D01*
X31018113Y9930045D01*
X31018112Y9930046D01*
X31013764Y9934875D01*
X31008506Y9938695D01*
X31008504Y9938697D01*
X30865881Y10042318D01*
X30865880Y10042319D01*
X30860623Y10046138D01*
X30850370Y10050703D01*
X30693638Y10120486D01*
X30693633Y10120488D01*
X30687696Y10123131D01*
X30681337Y10124483D01*
X30681333Y10124484D01*
X30508901Y10161135D01*
X30508898Y10161136D01*
X30502539Y10162487D01*
X30313247Y10162487D01*
X30306891Y10161137D01*
X30306881Y10161135D01*
X30240120Y10146944D01*
X30176021Y10150303D01*
X30122190Y10185262D01*
X30093050Y10242453D01*
X30096408Y10306551D01*
X30150567Y10473231D01*
X30170353Y10661487D01*
X30150567Y10849743D01*
X30092072Y11029771D01*
X30011407Y11169487D01*
X38011433Y11169487D01*
X38012112Y11163027D01*
X38030539Y10987692D01*
X38030540Y10987684D01*
X38031219Y10981231D01*
X38033224Y10975059D01*
X38033226Y10975052D01*
X38077360Y10839223D01*
X38089714Y10801203D01*
X38092961Y10795579D01*
X38092962Y10795577D01*
X38180099Y10644650D01*
X38184360Y10637271D01*
X38188704Y10632446D01*
X38188706Y10632444D01*
X38303420Y10505042D01*
X38311022Y10496599D01*
X38316280Y10492779D01*
X38316281Y10492778D01*
X38343185Y10473231D01*
X38464163Y10385336D01*
X38637090Y10308343D01*
X38822247Y10268987D01*
X39005036Y10268987D01*
X39011539Y10268987D01*
X39196696Y10308343D01*
X39369623Y10385336D01*
X39522764Y10496599D01*
X39556879Y10534487D01*
X42710433Y10534487D01*
X42711112Y10528027D01*
X42729539Y10352692D01*
X42729540Y10352684D01*
X42730219Y10346231D01*
X42732224Y10340059D01*
X42732226Y10340052D01*
X42780535Y10191375D01*
X42788714Y10166203D01*
X42791961Y10160579D01*
X42791962Y10160577D01*
X42815108Y10120486D01*
X42883360Y10002271D01*
X43010022Y9861599D01*
X43163163Y9750336D01*
X43336090Y9673343D01*
X43521247Y9633987D01*
X43704036Y9633987D01*
X43710539Y9633987D01*
X43895696Y9673343D01*
X44068623Y9750336D01*
X44221764Y9861599D01*
X44348426Y10002271D01*
X44443072Y10166203D01*
X44501567Y10346231D01*
X44521353Y10534487D01*
X44501567Y10722743D01*
X44443072Y10902771D01*
X44348426Y11066703D01*
X44337401Y11078947D01*
X44226113Y11202545D01*
X44226112Y11202546D01*
X44221764Y11207375D01*
X44216506Y11211195D01*
X44216504Y11211197D01*
X44073881Y11314818D01*
X44073880Y11314819D01*
X44068623Y11318638D01*
X44062685Y11321282D01*
X43901638Y11392986D01*
X43901633Y11392988D01*
X43895696Y11395631D01*
X43889337Y11396983D01*
X43889333Y11396984D01*
X43716901Y11433635D01*
X43716898Y11433636D01*
X43710539Y11434987D01*
X43521247Y11434987D01*
X43514888Y11433636D01*
X43514884Y11433635D01*
X43342452Y11396984D01*
X43342445Y11396982D01*
X43336090Y11395631D01*
X43330155Y11392989D01*
X43330147Y11392986D01*
X43169100Y11321282D01*
X43169095Y11321280D01*
X43163163Y11318638D01*
X43157909Y11314822D01*
X43157904Y11314818D01*
X43015281Y11211197D01*
X43015274Y11211192D01*
X43010022Y11207375D01*
X43005677Y11202550D01*
X43005672Y11202545D01*
X42887706Y11071531D01*
X42887701Y11071525D01*
X42883360Y11066703D01*
X42880115Y11061083D01*
X42880111Y11061077D01*
X42791962Y10908398D01*
X42791959Y10908393D01*
X42788714Y10902771D01*
X42786708Y10896599D01*
X42786706Y10896593D01*
X42732226Y10728923D01*
X42732224Y10728914D01*
X42730219Y10722743D01*
X42729541Y10716293D01*
X42729539Y10716283D01*
X42716577Y10592945D01*
X42710433Y10534487D01*
X39556879Y10534487D01*
X39649426Y10637271D01*
X39744072Y10801203D01*
X39802567Y10981231D01*
X39822353Y11169487D01*
X39807580Y11310042D01*
X39803246Y11351283D01*
X39803245Y11351284D01*
X39802567Y11357743D01*
X39744072Y11537771D01*
X39649426Y11701703D01*
X39522764Y11842375D01*
X39517506Y11846195D01*
X39517504Y11846197D01*
X39374881Y11949818D01*
X39374880Y11949819D01*
X39369623Y11953638D01*
X39363685Y11956282D01*
X39202638Y12027986D01*
X39202633Y12027988D01*
X39196696Y12030631D01*
X39190337Y12031983D01*
X39190333Y12031984D01*
X39017901Y12068635D01*
X39017898Y12068636D01*
X39011539Y12069987D01*
X38822247Y12069987D01*
X38815888Y12068636D01*
X38815884Y12068635D01*
X38643452Y12031984D01*
X38643445Y12031982D01*
X38637090Y12030631D01*
X38631155Y12027989D01*
X38631147Y12027986D01*
X38470100Y11956282D01*
X38470095Y11956280D01*
X38464163Y11953638D01*
X38458909Y11949822D01*
X38458904Y11949818D01*
X38316281Y11846197D01*
X38316274Y11846192D01*
X38311022Y11842375D01*
X38306677Y11837550D01*
X38306672Y11837545D01*
X38188706Y11706531D01*
X38188701Y11706525D01*
X38184360Y11701703D01*
X38181115Y11696083D01*
X38181111Y11696077D01*
X38092962Y11543398D01*
X38092959Y11543393D01*
X38089714Y11537771D01*
X38087708Y11531599D01*
X38087706Y11531593D01*
X38033226Y11363923D01*
X38033224Y11363914D01*
X38031219Y11357743D01*
X38030541Y11351293D01*
X38030539Y11351283D01*
X38014361Y11197343D01*
X38011433Y11169487D01*
X30011407Y11169487D01*
X29997426Y11193703D01*
X29988978Y11203085D01*
X29870764Y11334375D01*
X29872020Y11335507D01*
X29850995Y11363428D01*
X29838760Y11409124D01*
X29844527Y11456071D01*
X29896567Y11616231D01*
X29916353Y11804487D01*
X29906403Y11899155D01*
X29897246Y11986283D01*
X29897245Y11986284D01*
X29896567Y11992743D01*
X29838072Y12172771D01*
X29743426Y12336703D01*
X29716110Y12367040D01*
X29621113Y12472545D01*
X29621110Y12472548D01*
X29616764Y12477375D01*
X29611506Y12481195D01*
X29611504Y12481197D01*
X29468881Y12584818D01*
X29468880Y12584819D01*
X29463623Y12588638D01*
X29456892Y12591635D01*
X29296638Y12662986D01*
X29296633Y12662988D01*
X29290696Y12665631D01*
X29284337Y12666983D01*
X29284333Y12666984D01*
X29111901Y12703635D01*
X29111898Y12703636D01*
X29105539Y12704987D01*
X28916247Y12704987D01*
X28909888Y12703636D01*
X28909884Y12703635D01*
X28737452Y12666984D01*
X28737445Y12666982D01*
X28731090Y12665631D01*
X28725155Y12662989D01*
X28725147Y12662986D01*
X28564100Y12591282D01*
X28564095Y12591280D01*
X28558163Y12588638D01*
X28552909Y12584822D01*
X28552904Y12584818D01*
X28410281Y12481197D01*
X28410274Y12481192D01*
X28405022Y12477375D01*
X28387507Y12457923D01*
X28368622Y12436949D01*
X28320909Y12404159D01*
X28263510Y12396602D01*
X28208937Y12415928D01*
X28169086Y12457923D01*
X28160642Y12472548D01*
X28092426Y12590703D01*
X28083607Y12600497D01*
X27970113Y12726545D01*
X27970112Y12726546D01*
X27965764Y12731375D01*
X27960506Y12735195D01*
X27960504Y12735197D01*
X27817881Y12838818D01*
X27817880Y12838819D01*
X27812623Y12842638D01*
X27806685Y12845282D01*
X27645638Y12916986D01*
X27645633Y12916988D01*
X27639696Y12919631D01*
X27633337Y12920983D01*
X27633333Y12920984D01*
X27460901Y12957635D01*
X27460898Y12957636D01*
X27454539Y12958987D01*
X27265247Y12958987D01*
X27258888Y12957636D01*
X27258884Y12957635D01*
X27086452Y12920984D01*
X27086445Y12920982D01*
X27080090Y12919631D01*
X27074155Y12916989D01*
X27074147Y12916986D01*
X26913100Y12845282D01*
X26913095Y12845280D01*
X26907163Y12842638D01*
X26901909Y12838822D01*
X26901904Y12838818D01*
X26759281Y12735197D01*
X26759274Y12735192D01*
X26754022Y12731375D01*
X26749677Y12726550D01*
X26749672Y12726545D01*
X26631706Y12595531D01*
X26631701Y12595525D01*
X26627360Y12590703D01*
X26624115Y12585083D01*
X26624111Y12585077D01*
X26535962Y12432398D01*
X26535959Y12432393D01*
X26532714Y12426771D01*
X26530708Y12420599D01*
X26530706Y12420593D01*
X26476226Y12252923D01*
X26476224Y12252914D01*
X26474219Y12246743D01*
X26473541Y12240293D01*
X26473539Y12240283D01*
X26464082Y12150295D01*
X26454433Y12058487D01*
X2844007Y12058487D01*
X2838556Y12094071D01*
X2767886Y12284887D01*
X2686208Y12415928D01*
X2663578Y12452235D01*
X2663577Y12452236D01*
X2660252Y12457571D01*
X2533700Y12590703D01*
X2524390Y12600497D01*
X2524389Y12600498D01*
X2520059Y12605053D01*
X2353049Y12721295D01*
X2347275Y12723773D01*
X2171836Y12799061D01*
X2171831Y12799063D01*
X2166058Y12801540D01*
X2105071Y12814073D01*
X1972899Y12841235D01*
X1972894Y12841236D01*
X1966741Y12842500D01*
X1114258Y12842500D01*
X1111147Y12842184D01*
X1111134Y12842183D01*
X968814Y12827710D01*
X968811Y12827710D01*
X962562Y12827074D01*
X956564Y12825193D01*
X956563Y12825192D01*
X774415Y12768043D01*
X774410Y12768041D01*
X768412Y12766159D01*
X762916Y12763109D01*
X762910Y12763106D01*
X595997Y12670462D01*
X595991Y12670458D01*
X590498Y12667409D01*
X585733Y12663320D01*
X585728Y12663315D01*
X440873Y12538960D01*
X440868Y12538956D01*
X436105Y12534866D01*
X432262Y12529902D01*
X432255Y12529894D01*
X325468Y12391936D01*
X311552Y12373958D01*
X308784Y12368317D01*
X308780Y12368309D01*
X235828Y12219584D01*
X192211Y12170312D01*
X129525Y12150295D01*
X65424Y12165170D01*
X17960Y12210748D01*
X500Y12274193D01*
X500Y13176087D01*
X8281033Y13176087D01*
X8281712Y13169627D01*
X8300139Y12994292D01*
X8300140Y12994284D01*
X8300819Y12987831D01*
X8302824Y12981659D01*
X8302826Y12981652D01*
X8357306Y12813982D01*
X8359314Y12807803D01*
X8362561Y12802179D01*
X8362562Y12802177D01*
X8440615Y12666984D01*
X8453960Y12643871D01*
X8458304Y12639046D01*
X8458306Y12639044D01*
X8557752Y12528599D01*
X8580622Y12503199D01*
X8585880Y12499379D01*
X8585881Y12499378D01*
X8591691Y12495157D01*
X8733763Y12391936D01*
X8906690Y12314943D01*
X9091847Y12275587D01*
X9274636Y12275587D01*
X9281139Y12275587D01*
X9466296Y12314943D01*
X9639223Y12391936D01*
X9792364Y12503199D01*
X9919026Y12643871D01*
X10013672Y12807803D01*
X10072167Y12987831D01*
X10091953Y13176087D01*
X10076717Y13321048D01*
X10072846Y13357883D01*
X10072845Y13357884D01*
X10072167Y13364343D01*
X10013672Y13544371D01*
X9919026Y13708303D01*
X9901221Y13728077D01*
X9796713Y13844145D01*
X9796712Y13844146D01*
X9792364Y13848975D01*
X9787106Y13852795D01*
X9787104Y13852797D01*
X9644481Y13956418D01*
X9644480Y13956419D01*
X9639223Y13960238D01*
X9633285Y13962882D01*
X9526659Y14010356D01*
X10690494Y14010356D01*
X10691173Y14003896D01*
X10709600Y13828561D01*
X10709601Y13828553D01*
X10710280Y13822100D01*
X10712285Y13815928D01*
X10712287Y13815921D01*
X10766767Y13648251D01*
X10768775Y13642072D01*
X10772022Y13636448D01*
X10772023Y13636446D01*
X10830728Y13534765D01*
X10863421Y13478140D01*
X10867765Y13473315D01*
X10867767Y13473313D01*
X10971701Y13357883D01*
X10990083Y13337468D01*
X11143224Y13226205D01*
X11316151Y13149212D01*
X11501308Y13109856D01*
X11684097Y13109856D01*
X11690600Y13109856D01*
X11875757Y13149212D01*
X12048684Y13226205D01*
X12201825Y13337468D01*
X12219288Y13356864D01*
X12261000Y13387171D01*
X12311437Y13397892D01*
X12361870Y13387172D01*
X12510385Y13321048D01*
X12516740Y13319698D01*
X12516744Y13319696D01*
X12525773Y13317777D01*
X12582967Y13288638D01*
X12617928Y13234805D01*
X12627641Y13204910D01*
X12654419Y13122498D01*
X12657666Y13116874D01*
X12657667Y13116872D01*
X12745814Y12964196D01*
X12749065Y12958566D01*
X12753409Y12953741D01*
X12753411Y12953739D01*
X12867008Y12827577D01*
X12875727Y12817894D01*
X12880985Y12814074D01*
X12880986Y12814073D01*
X12932013Y12777000D01*
X13028868Y12706631D01*
X13201795Y12629638D01*
X13386952Y12590282D01*
X13569741Y12590282D01*
X13576244Y12590282D01*
X13761401Y12629638D01*
X13934328Y12706631D01*
X14087469Y12817894D01*
X14214131Y12958566D01*
X14300658Y13108437D01*
X14343809Y13152502D01*
X14402851Y13170328D01*
X14463179Y13157506D01*
X14509867Y13117207D01*
X14531366Y13059400D01*
X14533613Y13038026D01*
X14536219Y13013231D01*
X14538224Y13007059D01*
X14538226Y13007052D01*
X14590789Y12845282D01*
X14594714Y12833203D01*
X14597961Y12827579D01*
X14597962Y12827577D01*
X14661396Y12717705D01*
X14689360Y12669271D01*
X14693704Y12664446D01*
X14693706Y12664444D01*
X14755756Y12595531D01*
X14816022Y12528599D01*
X14821280Y12524779D01*
X14821281Y12524778D01*
X14886526Y12477375D01*
X14969163Y12417336D01*
X15142090Y12340343D01*
X15327247Y12300987D01*
X15510036Y12300987D01*
X15516539Y12300987D01*
X15701696Y12340343D01*
X15874623Y12417336D01*
X16027764Y12528599D01*
X16154426Y12669271D01*
X16249072Y12833203D01*
X16307567Y13013231D01*
X16327353Y13201487D01*
X16307567Y13389743D01*
X16249072Y13569771D01*
X16154426Y13733703D01*
X16143645Y13745676D01*
X16061879Y13836487D01*
X17183433Y13836487D01*
X17184112Y13830027D01*
X17202539Y13654692D01*
X17202540Y13654684D01*
X17203219Y13648231D01*
X17205224Y13642059D01*
X17205226Y13642052D01*
X17256657Y13483767D01*
X17261714Y13468203D01*
X17264961Y13462579D01*
X17264962Y13462577D01*
X17334404Y13342299D01*
X17356360Y13304271D01*
X17360704Y13299446D01*
X17360706Y13299444D01*
X17454724Y13195027D01*
X17483022Y13163599D01*
X17636163Y13052336D01*
X17809090Y12975343D01*
X17994247Y12935987D01*
X18177036Y12935987D01*
X18183539Y12935987D01*
X18368696Y12975343D01*
X18493289Y13030816D01*
X39565085Y13030816D01*
X39566338Y13023705D01*
X39566339Y13023704D01*
X39594112Y12866187D01*
X39594114Y12866179D01*
X39595367Y12859075D01*
X39598224Y12852450D01*
X39598226Y12852446D01*
X39661580Y12705577D01*
X39664440Y12698948D01*
X39668748Y12693161D01*
X39668750Y12693158D01*
X39722678Y12620720D01*
X39768578Y12559065D01*
X39774103Y12554429D01*
X39774106Y12554426D01*
X39804886Y12528599D01*
X39902168Y12446970D01*
X40058009Y12368704D01*
X40227698Y12328487D01*
X40354749Y12328487D01*
X40358348Y12328487D01*
X40488104Y12343653D01*
X40651977Y12403298D01*
X40797677Y12499127D01*
X40917351Y12625974D01*
X41004546Y12777000D01*
X41054561Y12944064D01*
X41059614Y13030816D01*
X41595085Y13030816D01*
X41596338Y13023705D01*
X41596339Y13023704D01*
X41624112Y12866187D01*
X41624114Y12866179D01*
X41625367Y12859075D01*
X41628224Y12852450D01*
X41628226Y12852446D01*
X41691580Y12705577D01*
X41694440Y12698948D01*
X41698748Y12693161D01*
X41698750Y12693158D01*
X41752678Y12620720D01*
X41798578Y12559065D01*
X41804103Y12554429D01*
X41804106Y12554426D01*
X41834886Y12528599D01*
X41932168Y12446970D01*
X42088009Y12368704D01*
X42257698Y12328487D01*
X42384749Y12328487D01*
X42388348Y12328487D01*
X42518104Y12343653D01*
X42681977Y12403298D01*
X42827677Y12499127D01*
X42947351Y12625974D01*
X43034546Y12777000D01*
X43084561Y12944064D01*
X43094701Y13118158D01*
X43064419Y13289899D01*
X42995346Y13450026D01*
X42891208Y13589909D01*
X42885681Y13594546D01*
X42885679Y13594549D01*
X42763145Y13697366D01*
X42757618Y13702004D01*
X42745076Y13708303D01*
X42608227Y13777031D01*
X42608224Y13777032D01*
X42601777Y13780270D01*
X42594752Y13781935D01*
X42439115Y13818822D01*
X42439111Y13818823D01*
X42432088Y13820487D01*
X42301438Y13820487D01*
X42297873Y13820071D01*
X42297867Y13820070D01*
X42178849Y13806159D01*
X42178846Y13806159D01*
X42171682Y13805321D01*
X42164903Y13802854D01*
X42164900Y13802853D01*
X42014594Y13748146D01*
X42014590Y13748145D01*
X42007809Y13745676D01*
X42001779Y13741711D01*
X42001773Y13741707D01*
X41868145Y13653818D01*
X41868139Y13653814D01*
X41862109Y13649847D01*
X41857156Y13644598D01*
X41857151Y13644593D01*
X41747392Y13528255D01*
X41747388Y13528251D01*
X41742435Y13523000D01*
X41738825Y13516750D01*
X41738823Y13516745D01*
X41658850Y13378228D01*
X41658847Y13378223D01*
X41655240Y13371974D01*
X41653170Y13365062D01*
X41653169Y13365058D01*
X41614175Y13234805D01*
X41605225Y13204910D01*
X41604805Y13197705D01*
X41604805Y13197703D01*
X41595504Y13038026D01*
X41595504Y13038018D01*
X41595085Y13030816D01*
X41059614Y13030816D01*
X41064701Y13118158D01*
X41034419Y13289899D01*
X40965346Y13450026D01*
X40861208Y13589909D01*
X40855681Y13594546D01*
X40855679Y13594549D01*
X40733145Y13697366D01*
X40727618Y13702004D01*
X40715076Y13708303D01*
X40578227Y13777031D01*
X40578224Y13777032D01*
X40571777Y13780270D01*
X40564752Y13781935D01*
X40409115Y13818822D01*
X40409111Y13818823D01*
X40402088Y13820487D01*
X40271438Y13820487D01*
X40267873Y13820071D01*
X40267867Y13820070D01*
X40148849Y13806159D01*
X40148846Y13806159D01*
X40141682Y13805321D01*
X40134903Y13802854D01*
X40134900Y13802853D01*
X39984594Y13748146D01*
X39984590Y13748145D01*
X39977809Y13745676D01*
X39971779Y13741711D01*
X39971773Y13741707D01*
X39838145Y13653818D01*
X39838139Y13653814D01*
X39832109Y13649847D01*
X39827156Y13644598D01*
X39827151Y13644593D01*
X39717392Y13528255D01*
X39717388Y13528251D01*
X39712435Y13523000D01*
X39708825Y13516750D01*
X39708823Y13516745D01*
X39628850Y13378228D01*
X39628847Y13378223D01*
X39625240Y13371974D01*
X39623170Y13365062D01*
X39623169Y13365058D01*
X39584175Y13234805D01*
X39575225Y13204910D01*
X39574805Y13197705D01*
X39574805Y13197703D01*
X39565504Y13038026D01*
X39565504Y13038018D01*
X39565085Y13030816D01*
X18493289Y13030816D01*
X18541623Y13052336D01*
X18694764Y13163599D01*
X18821426Y13304271D01*
X18916072Y13468203D01*
X18974567Y13648231D01*
X18994353Y13836487D01*
X18981069Y13962882D01*
X18975246Y14018283D01*
X18975245Y14018284D01*
X18974567Y14024743D01*
X18916072Y14204771D01*
X18821426Y14368703D01*
X18758877Y14438170D01*
X18699113Y14504545D01*
X18699112Y14504546D01*
X18694764Y14509375D01*
X18689506Y14513195D01*
X18689504Y14513197D01*
X18546881Y14616818D01*
X18546880Y14616819D01*
X18541623Y14620638D01*
X18535685Y14623282D01*
X18374638Y14694986D01*
X18374633Y14694988D01*
X18368696Y14697631D01*
X18362337Y14698983D01*
X18362333Y14698984D01*
X18189901Y14735635D01*
X18189898Y14735636D01*
X18183539Y14736987D01*
X17994247Y14736987D01*
X17987888Y14735636D01*
X17987884Y14735635D01*
X17815452Y14698984D01*
X17815445Y14698982D01*
X17809090Y14697631D01*
X17803155Y14694989D01*
X17803147Y14694986D01*
X17642100Y14623282D01*
X17642095Y14623280D01*
X17636163Y14620638D01*
X17630909Y14616822D01*
X17630904Y14616818D01*
X17488281Y14513197D01*
X17488274Y14513192D01*
X17483022Y14509375D01*
X17478677Y14504550D01*
X17478672Y14504545D01*
X17360706Y14373531D01*
X17360701Y14373525D01*
X17356360Y14368703D01*
X17353115Y14363083D01*
X17353111Y14363077D01*
X17264962Y14210398D01*
X17264959Y14210393D01*
X17261714Y14204771D01*
X17259708Y14198599D01*
X17259706Y14198593D01*
X17205226Y14030923D01*
X17205224Y14030914D01*
X17203219Y14024743D01*
X17202541Y14018293D01*
X17202539Y14018283D01*
X17192849Y13926081D01*
X17183433Y13836487D01*
X16061879Y13836487D01*
X16032113Y13869545D01*
X16032112Y13869546D01*
X16027764Y13874375D01*
X16022506Y13878195D01*
X16022504Y13878197D01*
X15879881Y13981818D01*
X15879880Y13981819D01*
X15874623Y13985638D01*
X15868685Y13988282D01*
X15707638Y14059986D01*
X15707633Y14059988D01*
X15701696Y14062631D01*
X15695337Y14063983D01*
X15695333Y14063984D01*
X15522901Y14100635D01*
X15522898Y14100636D01*
X15516539Y14101987D01*
X15327247Y14101987D01*
X15320888Y14100636D01*
X15320884Y14100635D01*
X15148452Y14063984D01*
X15148445Y14063982D01*
X15142090Y14062631D01*
X15136155Y14059989D01*
X15136147Y14059986D01*
X14975100Y13988282D01*
X14975095Y13988280D01*
X14969163Y13985638D01*
X14963909Y13981822D01*
X14963904Y13981818D01*
X14821281Y13878197D01*
X14821274Y13878192D01*
X14816022Y13874375D01*
X14811677Y13869550D01*
X14811672Y13869545D01*
X14693706Y13738531D01*
X14693701Y13738525D01*
X14689360Y13733703D01*
X14686115Y13728083D01*
X14686111Y13728077D01*
X14602832Y13583833D01*
X14559680Y13539768D01*
X14500637Y13521942D01*
X14440310Y13534765D01*
X14393622Y13575065D01*
X14372124Y13632872D01*
X14367951Y13672578D01*
X14367950Y13672579D01*
X14367272Y13679038D01*
X14308777Y13859066D01*
X14214131Y14022998D01*
X14167096Y14075235D01*
X14091818Y14158840D01*
X14091817Y14158841D01*
X14087469Y14163670D01*
X14082211Y14167490D01*
X14082209Y14167492D01*
X13939586Y14271113D01*
X13939585Y14271114D01*
X13934328Y14274933D01*
X13890684Y14294365D01*
X13767343Y14349281D01*
X13767338Y14349283D01*
X13761401Y14351926D01*
X13755039Y14353279D01*
X13755037Y14353279D01*
X13746008Y14355198D01*
X13688816Y14384338D01*
X13653858Y14438168D01*
X13617367Y14550476D01*
X13522721Y14714408D01*
X13512745Y14725487D01*
X13400408Y14850250D01*
X13400407Y14850251D01*
X13396059Y14855080D01*
X13390800Y14858901D01*
X13390799Y14858902D01*
X13248176Y14962523D01*
X13248175Y14962524D01*
X13242918Y14966343D01*
X13232290Y14971075D01*
X13075933Y15040691D01*
X13075928Y15040693D01*
X13069991Y15043336D01*
X13063632Y15044688D01*
X13063628Y15044689D01*
X12891196Y15081340D01*
X12891193Y15081341D01*
X12884834Y15082692D01*
X12695542Y15082692D01*
X12689183Y15081341D01*
X12689179Y15081340D01*
X12516747Y15044689D01*
X12516740Y15044687D01*
X12510385Y15043336D01*
X12504450Y15040694D01*
X12504442Y15040691D01*
X12343395Y14968987D01*
X12343390Y14968985D01*
X12337458Y14966343D01*
X12332204Y14962527D01*
X12332199Y14962523D01*
X12189576Y14858901D01*
X12184317Y14855080D01*
X12179968Y14850251D01*
X12179969Y14850251D01*
X12166849Y14835681D01*
X12125135Y14805377D01*
X12074701Y14794658D01*
X12024268Y14805378D01*
X11995392Y14818235D01*
X11875757Y14871500D01*
X11869398Y14872852D01*
X11869394Y14872853D01*
X11696962Y14909504D01*
X11696959Y14909505D01*
X11690600Y14910856D01*
X11501308Y14910856D01*
X11494949Y14909505D01*
X11494945Y14909504D01*
X11322513Y14872853D01*
X11322506Y14872851D01*
X11316151Y14871500D01*
X11310216Y14868858D01*
X11310208Y14868855D01*
X11149161Y14797151D01*
X11149156Y14797149D01*
X11143224Y14794507D01*
X11137970Y14790691D01*
X11137965Y14790687D01*
X10995342Y14687066D01*
X10995335Y14687061D01*
X10990083Y14683244D01*
X10985738Y14678419D01*
X10985733Y14678414D01*
X10867767Y14547400D01*
X10867762Y14547394D01*
X10863421Y14542572D01*
X10860176Y14536952D01*
X10860172Y14536946D01*
X10772023Y14384267D01*
X10772020Y14384262D01*
X10768775Y14378640D01*
X10766769Y14372468D01*
X10766767Y14372462D01*
X10712287Y14204792D01*
X10712285Y14204783D01*
X10710280Y14198612D01*
X10709602Y14192162D01*
X10709600Y14192152D01*
X10694934Y14052599D01*
X10690494Y14010356D01*
X9526659Y14010356D01*
X9472238Y14034586D01*
X9472233Y14034588D01*
X9466296Y14037231D01*
X9459937Y14038583D01*
X9459933Y14038584D01*
X9287501Y14075235D01*
X9287498Y14075236D01*
X9281139Y14076587D01*
X9091847Y14076587D01*
X9085488Y14075236D01*
X9085484Y14075235D01*
X8913052Y14038584D01*
X8913045Y14038582D01*
X8906690Y14037231D01*
X8900755Y14034589D01*
X8900747Y14034586D01*
X8739700Y13962882D01*
X8739695Y13962880D01*
X8733763Y13960238D01*
X8728509Y13956422D01*
X8728504Y13956418D01*
X8585881Y13852797D01*
X8585874Y13852792D01*
X8580622Y13848975D01*
X8576277Y13844150D01*
X8576272Y13844145D01*
X8458306Y13713131D01*
X8458301Y13713125D01*
X8453960Y13708303D01*
X8450715Y13702683D01*
X8450711Y13702677D01*
X8362562Y13549998D01*
X8362559Y13549993D01*
X8359314Y13544371D01*
X8357308Y13538199D01*
X8357306Y13538193D01*
X8302826Y13370523D01*
X8302824Y13370514D01*
X8300819Y13364343D01*
X8300141Y13357893D01*
X8300139Y13357883D01*
X8284062Y13204910D01*
X8281033Y13176087D01*
X500Y13176087D01*
X500Y17909500D01*
X17113Y17971500D01*
X62500Y18016887D01*
X124500Y18033500D01*
X643701Y18033500D01*
X701150Y18019389D01*
G37*
%TD.AperFunction*%
%TD*%
M02*
