%TF.GenerationSoftware,KiCad,Pcbnew,(7.0.0-0)*%
%TF.CreationDate,2023-03-26T13:07:46-04:00*%
%TF.ProjectId,mini_arduino_clone,6d696e69-5f61-4726-9475-696e6f5f636c,rev?*%
%TF.SameCoordinates,Original*%
%TF.FileFunction,Copper,L1,Top*%
%TF.FilePolarity,Positive*%
%FSLAX46Y46*%
G04 Gerber Fmt 4.6, Leading zero omitted, Abs format (unit mm)*
G04 Created by KiCad (PCBNEW (7.0.0-0)) date 2023-03-26 13:07:46*
%MOMM*%
%LPD*%
G01*
G04 APERTURE LIST*
G04 Aperture macros list*
%AMRoundRect*
0 Rectangle with rounded corners*
0 $1 Rounding radius*
0 $2 $3 $4 $5 $6 $7 $8 $9 X,Y pos of 4 corners*
0 Add a 4 corners polygon primitive as box body*
4,1,4,$2,$3,$4,$5,$6,$7,$8,$9,$2,$3,0*
0 Add four circle primitives for the rounded corners*
1,1,$1+$1,$2,$3*
1,1,$1+$1,$4,$5*
1,1,$1+$1,$6,$7*
1,1,$1+$1,$8,$9*
0 Add four rect primitives between the rounded corners*
20,1,$1+$1,$2,$3,$4,$5,0*
20,1,$1+$1,$4,$5,$6,$7,0*
20,1,$1+$1,$6,$7,$8,$9,0*
20,1,$1+$1,$8,$9,$2,$3,0*%
%AMRotRect*
0 Rectangle, with rotation*
0 The origin of the aperture is its center*
0 $1 length*
0 $2 width*
0 $3 Rotation angle, in degrees counterclockwise*
0 Add horizontal line*
21,1,$1,$2,0,0,$3*%
%AMFreePoly0*
4,1,9,1.050000,0.350000,0.550000,0.000000,0.550000,-0.400000,0.800000,-0.650000,0.800000,-0.800000,-1.050000,-0.800000,-1.050000,0.800000,1.050000,0.800000,1.050000,0.350000,1.050000,0.350000,$1*%
%AMFreePoly1*
4,1,9,1.050000,-0.800000,-0.800000,-0.800000,-0.800000,-0.650000,-0.550000,-0.400000,-0.550000,0.000000,-1.050000,0.350000,-1.050000,0.800000,1.050000,0.800000,1.050000,-0.800000,1.050000,-0.800000,$1*%
G04 Aperture macros list end*
%TA.AperFunction,SMDPad,CuDef*%
%ADD10RotRect,1.600000X0.550000X135.000000*%
%TD*%
%TA.AperFunction,SMDPad,CuDef*%
%ADD11RotRect,1.600000X0.550000X225.000000*%
%TD*%
%TA.AperFunction,SMDPad,CuDef*%
%ADD12RoundRect,0.225000X0.335876X0.017678X0.017678X0.335876X-0.335876X-0.017678X-0.017678X-0.335876X0*%
%TD*%
%TA.AperFunction,SMDPad,CuDef*%
%ADD13RoundRect,0.225000X0.225000X0.250000X-0.225000X0.250000X-0.225000X-0.250000X0.225000X-0.250000X0*%
%TD*%
%TA.AperFunction,SMDPad,CuDef*%
%ADD14RoundRect,0.218750X0.256250X-0.218750X0.256250X0.218750X-0.256250X0.218750X-0.256250X-0.218750X0*%
%TD*%
%TA.AperFunction,SMDPad,CuDef*%
%ADD15RoundRect,0.225000X-0.017678X0.335876X-0.335876X0.017678X0.017678X-0.335876X0.335876X-0.017678X0*%
%TD*%
%TA.AperFunction,SMDPad,CuDef*%
%ADD16R,1.350000X0.400000*%
%TD*%
%TA.AperFunction,SMDPad,CuDef*%
%ADD17FreePoly0,270.000000*%
%TD*%
%TA.AperFunction,ComponentPad*%
%ADD18O,1.700000X1.000000*%
%TD*%
%TA.AperFunction,SMDPad,CuDef*%
%ADD19R,1.900000X1.900000*%
%TD*%
%TA.AperFunction,ComponentPad*%
%ADD20O,1.700000X0.850000*%
%TD*%
%TA.AperFunction,SMDPad,CuDef*%
%ADD21FreePoly1,270.000000*%
%TD*%
%TA.AperFunction,SMDPad,CuDef*%
%ADD22RoundRect,0.225000X-0.335876X-0.017678X-0.017678X-0.335876X0.335876X0.017678X0.017678X0.335876X0*%
%TD*%
%TA.AperFunction,SMDPad,CuDef*%
%ADD23RoundRect,0.250000X-0.250000X0.250000X-0.250000X-0.250000X0.250000X-0.250000X0.250000X0.250000X0*%
%TD*%
%TA.AperFunction,SMDPad,CuDef*%
%ADD24RoundRect,0.137500X-0.137500X0.712500X-0.137500X-0.712500X0.137500X-0.712500X0.137500X0.712500X0*%
%TD*%
%TA.AperFunction,SMDPad,CuDef*%
%ADD25RoundRect,0.225000X-0.225000X-0.250000X0.225000X-0.250000X0.225000X0.250000X-0.225000X0.250000X0*%
%TD*%
%TA.AperFunction,SMDPad,CuDef*%
%ADD26RoundRect,0.062500X-0.062500X0.337500X-0.062500X-0.337500X0.062500X-0.337500X0.062500X0.337500X0*%
%TD*%
%TA.AperFunction,SMDPad,CuDef*%
%ADD27RoundRect,0.062500X-0.337500X0.062500X-0.337500X-0.062500X0.337500X-0.062500X0.337500X0.062500X0*%
%TD*%
%TA.AperFunction,SMDPad,CuDef*%
%ADD28R,3.350000X3.350000*%
%TD*%
%TA.AperFunction,SMDPad,CuDef*%
%ADD29RoundRect,0.225000X-0.250000X0.225000X-0.250000X-0.225000X0.250000X-0.225000X0.250000X0.225000X0*%
%TD*%
%TA.AperFunction,SMDPad,CuDef*%
%ADD30RoundRect,0.200000X-0.275000X0.200000X-0.275000X-0.200000X0.275000X-0.200000X0.275000X0.200000X0*%
%TD*%
%TA.AperFunction,SMDPad,CuDef*%
%ADD31RotRect,1.400000X1.200000X315.000000*%
%TD*%
%TA.AperFunction,SMDPad,CuDef*%
%ADD32R,2.000000X1.100000*%
%TD*%
%TA.AperFunction,SMDPad,CuDef*%
%ADD33R,0.800000X0.800000*%
%TD*%
%TA.AperFunction,SMDPad,CuDef*%
%ADD34RoundRect,0.150000X-0.512500X-0.150000X0.512500X-0.150000X0.512500X0.150000X-0.512500X0.150000X0*%
%TD*%
%TA.AperFunction,SMDPad,CuDef*%
%ADD35C,0.787000*%
%TD*%
%TA.AperFunction,SMDPad,CuDef*%
%ADD36RoundRect,0.250000X-0.375000X-0.625000X0.375000X-0.625000X0.375000X0.625000X-0.375000X0.625000X0*%
%TD*%
%TA.AperFunction,SMDPad,CuDef*%
%ADD37RoundRect,0.225000X0.017678X-0.335876X0.335876X-0.017678X-0.017678X0.335876X-0.335876X0.017678X0*%
%TD*%
%TA.AperFunction,SMDPad,CuDef*%
%ADD38RoundRect,0.200000X0.200000X0.275000X-0.200000X0.275000X-0.200000X-0.275000X0.200000X-0.275000X0*%
%TD*%
%TA.AperFunction,SMDPad,CuDef*%
%ADD39RoundRect,0.218750X0.218750X0.256250X-0.218750X0.256250X-0.218750X-0.256250X0.218750X-0.256250X0*%
%TD*%
%TA.AperFunction,ComponentPad*%
%ADD40R,1.700000X1.700000*%
%TD*%
%TA.AperFunction,ComponentPad*%
%ADD41O,1.700000X1.700000*%
%TD*%
%TA.AperFunction,ViaPad*%
%ADD42C,0.800000*%
%TD*%
%TA.AperFunction,Conductor*%
%ADD43C,0.200000*%
%TD*%
%TA.AperFunction,Conductor*%
%ADD44C,0.500000*%
%TD*%
%TA.AperFunction,Conductor*%
%ADD45C,0.250000*%
%TD*%
%TA.AperFunction,Conductor*%
%ADD46C,0.480000*%
%TD*%
%TA.AperFunction,Conductor*%
%ADD47C,0.400000*%
%TD*%
%TA.AperFunction,Conductor*%
%ADD48C,0.246888*%
%TD*%
G04 APERTURE END LIST*
D10*
%TO.P,U101,1,PD3*%
%TO.N,/D3*%
X29066721Y4031896D03*
%TO.P,U101,2,PD4*%
%TO.N,/D4*%
X29632406Y4597582D03*
%TO.P,U101,3,GND*%
%TO.N,GND*%
X30198092Y5163267D03*
%TO.P,U101,4,VCC*%
%TO.N,+5V*%
X30763777Y5728952D03*
%TO.P,U101,5,GND*%
%TO.N,GND*%
X31329463Y6294638D03*
%TO.P,U101,6,VCC*%
%TO.N,+5V*%
X31895148Y6860323D03*
%TO.P,U101,7,XTAL1/PB6*%
%TO.N,/XTAL1*%
X32460833Y7426009D03*
%TO.P,U101,8,XTAL2/PB7*%
%TO.N,/XTAL2*%
X33026519Y7991694D03*
D11*
%TO.P,U101,9,PD5*%
%TO.N,/D5*%
X33026519Y10042304D03*
%TO.P,U101,10,PD6*%
%TO.N,/D6*%
X32460833Y10607989D03*
%TO.P,U101,11,PD7*%
%TO.N,/D7*%
X31895148Y11173675D03*
%TO.P,U101,12,PB0*%
%TO.N,/D8*%
X31329463Y11739360D03*
%TO.P,U101,13,PB1*%
%TO.N,/D9*%
X30763777Y12305046D03*
%TO.P,U101,14,PB2*%
%TO.N,/D10*%
X30198092Y12870731D03*
%TO.P,U101,15,PB3*%
%TO.N,/D11{slash}MOSI*%
X29632406Y13436416D03*
%TO.P,U101,16,PB4*%
%TO.N,/D12{slash}MISO*%
X29066721Y14002102D03*
D10*
%TO.P,U101,17,PB5*%
%TO.N,/D13{slash}SCK*%
X27016111Y14002102D03*
%TO.P,U101,18,AVCC*%
%TO.N,+5V*%
X26450426Y13436416D03*
%TO.P,U101,19,ADC6*%
%TO.N,/A6*%
X25884740Y12870731D03*
%TO.P,U101,20,AREF*%
%TO.N,/AREF*%
X25319055Y12305046D03*
%TO.P,U101,21,GND*%
%TO.N,GND*%
X24753369Y11739360D03*
%TO.P,U101,22,ADC7*%
%TO.N,/A7*%
X24187684Y11173675D03*
%TO.P,U101,23,PC0*%
%TO.N,/A0*%
X23621999Y10607989D03*
%TO.P,U101,24,PC1*%
%TO.N,/A1*%
X23056313Y10042304D03*
D11*
%TO.P,U101,25,PC2*%
%TO.N,/A2*%
X23056313Y7991694D03*
%TO.P,U101,26,PC3*%
%TO.N,/A3*%
X23621999Y7426009D03*
%TO.P,U101,27,PC4*%
%TO.N,/A4{slash}~{SDA}*%
X24187684Y6860323D03*
%TO.P,U101,28,PC5*%
%TO.N,/A5{slash}SCL*%
X24753369Y6294638D03*
%TO.P,U101,29,~{RESET}/PC6*%
%TO.N,/~{RESET}*%
X25319055Y5728952D03*
%TO.P,U101,30,PD0*%
%TO.N,/D0{slash}RX*%
X25884740Y5163267D03*
%TO.P,U101,31,PD1*%
%TO.N,/D1{slash}TX*%
X26450426Y4597582D03*
%TO.P,U101,32,PD2*%
%TO.N,/D2*%
X27016111Y4031896D03*
%TD*%
D12*
%TO.P,C107,1*%
%TO.N,/XTAL2*%
X37940901Y9732479D03*
%TO.P,C107,2*%
%TO.N,GND*%
X36844885Y10828495D03*
%TD*%
D13*
%TO.P,C102,1*%
%TO.N,VBUS*%
X4893893Y3549487D03*
%TO.P,C102,2*%
%TO.N,GND*%
X3343893Y3549487D03*
%TD*%
D14*
%TO.P,D101,1,K*%
%TO.N,/D0{slash}RX*%
X18088893Y7904987D03*
%TO.P,D101,2,A*%
%TO.N,Net-(D101-A)*%
X18088893Y9479987D03*
%TD*%
D15*
%TO.P,C101,1*%
%TO.N,/AREF*%
X24047101Y13774895D03*
%TO.P,C101,2*%
%TO.N,GND*%
X22951085Y12678879D03*
%TD*%
D16*
%TO.P,J101,1,VBUS*%
%TO.N,VBUS*%
X4189999Y10316999D03*
%TO.P,J101,2,D-*%
%TO.N,/D_N*%
X4189999Y9666999D03*
%TO.P,J101,3,D+*%
%TO.N,/D_P*%
X4189999Y9016999D03*
%TO.P,J101,4,ID*%
%TO.N,unconnected-(J101-ID-Pad4)*%
X4189999Y8366999D03*
%TO.P,J101,5,GND*%
%TO.N,GND*%
X4189999Y7716999D03*
D17*
%TO.P,J101,6,Shield*%
%TO.N,unconnected-(J101-Shield-Pad6)*%
X4065000Y12117000D03*
D18*
X1514999Y11841999D03*
D19*
X1514999Y10216999D03*
X1514999Y7816999D03*
D20*
X1514999Y6191999D03*
D21*
X4065000Y5917000D03*
%TD*%
D22*
%TO.P,C103,1*%
%TO.N,+5V*%
X33161885Y5494495D03*
%TO.P,C103,2*%
%TO.N,GND*%
X34257901Y4398479D03*
%TD*%
D23*
%TO.P,SW101,1,1*%
%TO.N,GND*%
X9059093Y10756487D03*
X9059093Y6756487D03*
%TO.P,SW101,2,2*%
%TO.N,/~{RESET}*%
X7459093Y10756487D03*
X7459093Y6756487D03*
D24*
%TO.P,SW101,3*%
%TO.N,N/C*%
X9634093Y8756487D03*
%TD*%
D25*
%TO.P,C201,1*%
%TO.N,GND*%
X10963893Y5581487D03*
%TO.P,C201,2*%
%TO.N,+5V*%
X12513893Y5581487D03*
%TD*%
D26*
%TO.P,U301,1,~{DCD}*%
%TO.N,unconnected-(U301-~{DCD}-Pad1)*%
X14659893Y12005487D03*
%TO.P,U301,2,~{RI}/CLK*%
%TO.N,unconnected-(U301-~{RI}{slash}CLK-Pad2)*%
X14159893Y12005487D03*
%TO.P,U301,3,GND*%
%TO.N,GND*%
X13659893Y12005487D03*
%TO.P,U301,4,D+*%
%TO.N,/D_P*%
X13159893Y12005487D03*
%TO.P,U301,5,D-*%
%TO.N,/D_N*%
X12659893Y12005487D03*
%TO.P,U301,6,VDD*%
%TO.N,Net-(U301-VDD)*%
X12159893Y12005487D03*
%TO.P,U301,7,VREGIN*%
%TO.N,/USB_UART/VBUS*%
X11659893Y12005487D03*
D27*
%TO.P,U301,8,VBUS*%
X10709893Y11055487D03*
%TO.P,U301,9,~{RST}*%
%TO.N,unconnected-(U301-~{RST}-Pad9)*%
X10709893Y10555487D03*
%TO.P,U301,10,NC*%
%TO.N,unconnected-(U301-NC-Pad10)*%
X10709893Y10055487D03*
%TO.P,U301,11,~{SUSPEND}*%
%TO.N,unconnected-(U301-~{SUSPEND}-Pad11)*%
X10709893Y9555487D03*
%TO.P,U301,12,SUSPEND*%
%TO.N,unconnected-(U301-SUSPEND-Pad12)*%
X10709893Y9055487D03*
%TO.P,U301,13,CHREN*%
%TO.N,unconnected-(U301-CHREN-Pad13)*%
X10709893Y8555487D03*
%TO.P,U301,14,CHR1*%
%TO.N,unconnected-(U301-CHR1-Pad14)*%
X10709893Y8055487D03*
D26*
%TO.P,U301,15,CHR0*%
%TO.N,unconnected-(U301-CHR0-Pad15)*%
X11659893Y7105487D03*
%TO.P,U301,16,~{WAKEUP}/GPIO.3*%
%TO.N,unconnected-(U301-~{WAKEUP}{slash}GPIO.3-Pad16)*%
X12159893Y7105487D03*
%TO.P,U301,17,RS485/GPIO.2*%
%TO.N,unconnected-(U301-RS485{slash}GPIO.2-Pad17)*%
X12659893Y7105487D03*
%TO.P,U301,18,~{RXT}/GPIO.1*%
%TO.N,unconnected-(U301-~{RXT}{slash}GPIO.1-Pad18)*%
X13159893Y7105487D03*
%TO.P,U301,19,~{TXT}/GPIO.0*%
%TO.N,unconnected-(U301-~{TXT}{slash}GPIO.0-Pad19)*%
X13659893Y7105487D03*
%TO.P,U301,20,GPIO.6*%
%TO.N,unconnected-(U301-GPIO.6-Pad20)*%
X14159893Y7105487D03*
%TO.P,U301,21,GPIO.5*%
%TO.N,unconnected-(U301-GPIO.5-Pad21)*%
X14659893Y7105487D03*
D27*
%TO.P,U301,22,GPIO.4*%
%TO.N,unconnected-(U301-GPIO.4-Pad22)*%
X15609893Y8055487D03*
%TO.P,U301,23,~{CTS}*%
%TO.N,unconnected-(U301-~{CTS}-Pad23)*%
X15609893Y8555487D03*
%TO.P,U301,24,~{RTS}*%
%TO.N,unconnected-(U301-~{RTS}-Pad24)*%
X15609893Y9055487D03*
%TO.P,U301,25,RXD*%
%TO.N,/D1{slash}TX*%
X15609893Y9555487D03*
%TO.P,U301,26,TXD*%
%TO.N,/D0{slash}RX*%
X15609893Y10055487D03*
%TO.P,U301,27,~{DSR}*%
%TO.N,unconnected-(U301-~{DSR}-Pad27)*%
X15609893Y10555487D03*
%TO.P,U301,28,~{DTR}*%
%TO.N,/DTR*%
X15609893Y11055487D03*
D28*
%TO.P,U301,29,GND*%
%TO.N,GND*%
X13159892Y9555486D03*
%TD*%
D29*
%TO.P,C303,1*%
%TO.N,Net-(U301-VDD)*%
X6176293Y14713087D03*
%TO.P,C303,2*%
%TO.N,GND*%
X6176293Y13163087D03*
%TD*%
D30*
%TO.P,R106,1*%
%TO.N,+5V*%
X1045493Y16083887D03*
%TO.P,R106,2*%
%TO.N,Net-(D103-A)*%
X1045493Y14433887D03*
%TD*%
D31*
%TO.P,Y101,1,1*%
%TO.N,GND*%
X35633034Y7282263D03*
%TO.P,Y101,2,2*%
%TO.N,/XTAL1*%
X37188669Y5726628D03*
%TO.P,Y101,3,3*%
%TO.N,GND*%
X38390750Y6928709D03*
%TO.P,Y101,4,4*%
%TO.N,/XTAL2*%
X36835115Y8484344D03*
%TD*%
D32*
%TO.P,D1,1,K*%
%TO.N,+5V*%
X12872892Y3676486D03*
D33*
%TO.P,D1,2,A*%
%TO.N,/USB_UART/VBUS*%
X10972892Y3676486D03*
%TD*%
D30*
%TO.P,R104,1*%
%TO.N,+5V*%
X18088893Y12565487D03*
%TO.P,R104,2*%
%TO.N,Net-(D101-A)*%
X18088893Y10915487D03*
%TD*%
D34*
%TO.P,U201,1,VIN*%
%TO.N,+5V*%
X15173393Y5642487D03*
%TO.P,U201,2,GND*%
%TO.N,GND*%
X15173393Y4692487D03*
%TO.P,U201,3,CE*%
%TO.N,+5V*%
X15173393Y3742487D03*
%TO.P,U201,4,NC*%
%TO.N,unconnected-(U201-NC-Pad4)*%
X17448393Y3742487D03*
%TO.P,U201,5,VOUT*%
%TO.N,+3V3*%
X17448393Y5642487D03*
%TD*%
D25*
%TO.P,C108,1*%
%TO.N,/~{RESET}*%
X15027893Y14471487D03*
%TO.P,C108,2*%
%TO.N,/DTR*%
X16577893Y14471487D03*
%TD*%
D15*
%TO.P,C104,1*%
%TO.N,+5V*%
X22700901Y14638495D03*
%TO.P,C104,2*%
%TO.N,GND*%
X21604885Y13542479D03*
%TD*%
D13*
%TO.P,C302,1*%
%TO.N,/USB_UART/VBUS*%
X9186493Y12134687D03*
%TO.P,C302,2*%
%TO.N,GND*%
X7636493Y12134687D03*
%TD*%
%TO.P,C301,1*%
%TO.N,/USB_UART/VBUS*%
X9186493Y14192087D03*
%TO.P,C301,2*%
%TO.N,GND*%
X7636493Y14192087D03*
%TD*%
D14*
%TO.P,D102,1,K*%
%TO.N,/D1{slash}TX*%
X19739893Y7904987D03*
%TO.P,D102,2,A*%
%TO.N,Net-(D102-A)*%
X19739893Y9479987D03*
%TD*%
D35*
%TO.P,J102,1,MISO*%
%TO.N,/D12{slash}MISO*%
X41964893Y9264487D03*
%TO.P,J102,2,VCC*%
%TO.N,+5V*%
X40694893Y9264487D03*
%TO.P,J102,3,SCK*%
%TO.N,/D13{slash}SCK*%
X41964893Y10534487D03*
%TO.P,J102,4,MOSI*%
%TO.N,/D11{slash}MOSI*%
X40694893Y10534487D03*
%TO.P,J102,5,~{RST}*%
%TO.N,/~{RESET}*%
X41964893Y11804487D03*
%TO.P,J102,6,GND*%
%TO.N,GND*%
X40694893Y11804487D03*
%TD*%
D36*
%TO.P,F101,1*%
%TO.N,VBUS*%
X6528893Y3930487D03*
%TO.P,F101,2*%
%TO.N,/USB_UART/VBUS*%
X9328893Y3930487D03*
%TD*%
D37*
%TO.P,C105,1*%
%TO.N,/XTAL1*%
X38495885Y4525479D03*
%TO.P,C105,2*%
%TO.N,GND*%
X39591901Y5621495D03*
%TD*%
D29*
%TO.P,C202,1*%
%TO.N,+3V3*%
X19358893Y5594487D03*
%TO.P,C202,2*%
%TO.N,GND*%
X19358893Y4044487D03*
%TD*%
D30*
%TO.P,R105,1*%
%TO.N,+5V*%
X19739893Y12565487D03*
%TO.P,R105,2*%
%TO.N,Net-(D102-A)*%
X19739893Y10915487D03*
%TD*%
D38*
%TO.P,R103,1*%
%TO.N,+5V*%
X42307293Y4235287D03*
%TO.P,R103,2*%
%TO.N,/~{RESET}*%
X40657293Y4235287D03*
%TD*%
D22*
%TO.P,C106,1*%
%TO.N,+5V*%
X32095085Y4427695D03*
%TO.P,C106,2*%
%TO.N,GND*%
X33191101Y3331679D03*
%TD*%
D39*
%TO.P,D103,1,K*%
%TO.N,GND*%
X4169793Y14496887D03*
%TO.P,D103,2,A*%
%TO.N,Net-(D103-A)*%
X2594793Y14496887D03*
%TD*%
D40*
%TO.P,J103,1,Pin_1*%
%TO.N,/D5*%
X39496999Y16626999D03*
D41*
%TO.P,J103,2,Pin_2*%
%TO.N,/D6*%
X36956999Y16626999D03*
%TO.P,J103,3,Pin_3*%
%TO.N,/D7*%
X34416999Y16626999D03*
%TO.P,J103,4,Pin_4*%
%TO.N,/D8*%
X31876999Y16626999D03*
%TO.P,J103,5,Pin_5*%
%TO.N,/D9*%
X29336999Y16626999D03*
%TO.P,J103,6,Pin_6*%
%TO.N,/D10*%
X26796999Y16626999D03*
%TO.P,J103,7,Pin_7*%
%TO.N,/D11{slash}MOSI*%
X24256999Y16626999D03*
%TO.P,J103,8,Pin_8*%
%TO.N,/D12{slash}MISO*%
X21716999Y16626999D03*
%TO.P,J103,9,Pin_9*%
%TO.N,/D4*%
X19176999Y16626999D03*
%TO.P,J103,10,Pin_10*%
%TO.N,/D3*%
X16636999Y16626999D03*
%TO.P,J103,11,Pin_11*%
%TO.N,/D2*%
X14096999Y16626999D03*
%TO.P,J103,12,Pin_12*%
%TO.N,GND*%
X11556999Y16626999D03*
%TO.P,J103,13,Pin_13*%
%TO.N,/~{RESET}*%
X9016999Y16626999D03*
%TO.P,J103,14,Pin_14*%
%TO.N,/D0{slash}RX*%
X6476999Y16626999D03*
%TO.P,J103,15,Pin_15*%
%TO.N,/D1{slash}TX*%
X3936999Y16626999D03*
%TD*%
D40*
%TO.P,J104,1,Pin_1*%
%TO.N,/D13{slash}SCK*%
X39496999Y1386999D03*
D41*
%TO.P,J104,2,Pin_2*%
%TO.N,GND*%
X36956999Y1386999D03*
%TO.P,J104,3,Pin_3*%
%TO.N,/~{RESET}*%
X34416999Y1386999D03*
%TO.P,J104,4,Pin_4*%
%TO.N,+5V*%
X31876999Y1386999D03*
%TO.P,J104,5,Pin_5*%
%TO.N,/A7*%
X29336999Y1386999D03*
%TO.P,J104,6,Pin_6*%
%TO.N,/A6*%
X26796999Y1386999D03*
%TO.P,J104,7,Pin_7*%
%TO.N,/A5{slash}SCL*%
X24256999Y1386999D03*
%TO.P,J104,8,Pin_8*%
%TO.N,/A4{slash}~{SDA}*%
X21716999Y1386999D03*
%TO.P,J104,9,Pin_9*%
%TO.N,/A3*%
X19176999Y1386999D03*
%TO.P,J104,10,Pin_10*%
%TO.N,/A2*%
X16636999Y1386999D03*
%TO.P,J104,11,Pin_11*%
%TO.N,/A1*%
X14096999Y1386999D03*
%TO.P,J104,12,Pin_12*%
%TO.N,/A0*%
X11556999Y1386999D03*
%TO.P,J104,13,Pin_13*%
%TO.N,GND*%
X9016999Y1386999D03*
%TO.P,J104,14,Pin_14*%
%TO.N,+3V3*%
X6476999Y1386999D03*
%TO.P,J104,15,Pin_15*%
%TO.N,VBUS*%
X3936999Y1386999D03*
%TD*%
D42*
%TO.N,GND*%
X20628893Y3676487D03*
X2086893Y3676487D03*
X7903493Y5403687D03*
X21162293Y11957387D03*
X16539493Y4641687D03*
X43920693Y1644487D03*
X20298693Y14192087D03*
X13135893Y9518487D03*
X29696693Y7118865D03*
X35995893Y11589568D03*
X10468893Y6597487D03*
X34569933Y6728047D03*
X40313893Y6597487D03*
X43920693Y16325687D03*
X5973093Y7384887D03*
X35437093Y4336887D03*
X34268693Y2965287D03*
X38662893Y12820487D03*
X6165244Y12007687D03*
%TO.N,VBUS*%
X6023893Y10915487D03*
X6023893Y5962487D03*
%TO.N,+5V*%
X30661893Y7994487D03*
X1324893Y17138487D03*
X25200893Y14725487D03*
X39043893Y9010487D03*
X18088893Y13836487D03*
X13770893Y5962487D03*
X13770893Y5200487D03*
X42345893Y2787487D03*
%TO.N,/~{RESET}*%
X8359593Y9518487D03*
X15421893Y13201487D03*
X26666994Y8339403D03*
X11595954Y14010356D03*
%TO.N,+3V3*%
X20628893Y4819487D03*
%TO.N,/USB_UART/VBUS*%
X9325893Y5454487D03*
X9186493Y13176087D03*
%TO.N,/D_P*%
X6150893Y8853100D03*
X13481598Y13490782D03*
%TO.N,/D_N*%
X12790188Y14182192D03*
X6150893Y9830900D03*
%TO.N,/D12{slash}MISO*%
X43170393Y7867487D03*
X27359893Y12058487D03*
%TO.N,/D13{slash}SCK*%
X43615893Y10534487D03*
X31119771Y14294365D03*
%TO.N,/D11{slash}MOSI*%
X29264893Y10661487D03*
X38916893Y11169487D03*
%TO.N,/D2*%
X26851893Y9518487D03*
%TO.N,/D3*%
X28763473Y8606810D03*
%TO.N,/D4*%
X30407893Y9261987D03*
%TO.N,/D10*%
X29010893Y11804487D03*
%TO.N,/A7*%
X25200893Y8121487D03*
%TO.N,/A6*%
X25806813Y7220390D03*
%TO.N,/A1*%
X21173993Y6028513D03*
%TO.N,/A0*%
X20456621Y6724487D03*
%TO.N,/D0{slash}RX*%
X24350993Y4184487D03*
X16844293Y9924887D03*
%TO.N,/D1{slash}TX*%
X18977893Y6826087D03*
X24882710Y3332892D03*
%TD*%
D43*
%TO.N,/AREF*%
X24047101Y13774895D02*
X24047101Y13577002D01*
X24047101Y13577002D02*
X25319056Y12305047D01*
%TO.N,GND*%
X7636493Y14192087D02*
X7281493Y14192087D01*
X22951085Y12678879D02*
X22519285Y12678879D01*
D44*
X29553638Y6975810D02*
X29553638Y5807723D01*
X35251150Y7409264D02*
X35506035Y7409264D01*
D43*
X7459093Y12236687D02*
X7561093Y12134687D01*
X13659893Y12005487D02*
X13659893Y10055487D01*
X21365493Y13303087D02*
X21604885Y13542479D01*
D45*
X39464901Y5748495D02*
X39210901Y5494495D01*
D43*
X6176293Y13163087D02*
X4842493Y14496887D01*
D45*
X39464901Y5854560D02*
X39464901Y5748495D01*
D43*
X4842493Y14496887D02*
X4169793Y14496887D01*
X7903493Y5403687D02*
X9059093Y6559287D01*
X23813852Y12678879D02*
X24753370Y11739361D01*
D44*
X39678893Y11804487D02*
X40694893Y11804487D01*
X29553638Y5807723D02*
X30198093Y5163268D01*
D43*
X10963893Y5581487D02*
X10963893Y6102487D01*
D44*
X29696693Y7118865D02*
X29553638Y6975810D01*
D43*
X10963893Y6102487D02*
X10468893Y6597487D01*
X5640980Y7717000D02*
X4190000Y7717000D01*
D45*
X16488693Y4692487D02*
X15173393Y4692487D01*
D43*
X22951085Y12678879D02*
X23813852Y12678879D01*
X21604885Y13542479D02*
X22087485Y13542479D01*
D44*
X38662893Y12820487D02*
X39678893Y11804487D01*
D43*
X6165244Y13047136D02*
X6176293Y13058185D01*
X22087485Y13542479D02*
X22951085Y12678879D01*
X5973093Y7384887D02*
X5640980Y7717000D01*
D45*
X16539493Y4641687D02*
X16488693Y4692487D01*
D44*
X30505238Y7118865D02*
X31329464Y6294639D01*
D43*
X6176293Y13058185D02*
X6176293Y13163087D01*
X9059093Y6559287D02*
X9059093Y6756487D01*
X9059093Y10756487D02*
X7680893Y12134687D01*
D44*
X34569933Y6728047D02*
X35251150Y7409264D01*
D43*
X13659893Y10055487D02*
X13159893Y9555487D01*
X7680893Y12134687D02*
X7636493Y12134687D01*
D45*
X38517751Y6801710D02*
X39464901Y5854560D01*
D44*
X20628893Y3676487D02*
X19726893Y3676487D01*
D43*
X9059093Y6756487D02*
X9059093Y10756487D01*
D44*
X29696693Y7118865D02*
X30505238Y7118865D01*
D43*
X21162793Y11956887D02*
X21162293Y11957387D01*
X7561093Y12134687D02*
X7636493Y12134687D01*
D44*
X19726893Y3676487D02*
X19358893Y4044487D01*
%TO.N,VBUS*%
X4893893Y2292487D02*
X4893893Y3549487D01*
X6147893Y3549487D02*
X6528893Y3930487D01*
X3937000Y1387000D02*
X3988406Y1387000D01*
X4893893Y3549487D02*
X6147893Y3549487D01*
D43*
X6528893Y3930487D02*
X6528893Y5457487D01*
D46*
X5425406Y10317000D02*
X6023893Y10915487D01*
D43*
X6528893Y5457487D02*
X6023893Y5962487D01*
D47*
X4190000Y10317000D02*
X5425406Y10317000D01*
D44*
X3988406Y1387000D02*
X4893893Y2292487D01*
%TO.N,+5V*%
X32065036Y4427695D02*
X30763778Y5728953D01*
D45*
X25200893Y14725487D02*
X25200893Y14685951D01*
D44*
X12938893Y3742487D02*
X12872893Y3676487D01*
D45*
X25200893Y14685951D02*
X26450427Y13436417D01*
D44*
X32095085Y4427695D02*
X32065036Y4427695D01*
X15173393Y3742487D02*
X12938893Y3742487D01*
X31796056Y6860324D02*
X30661893Y7994487D01*
D43*
X1045493Y16859087D02*
X1324893Y17138487D01*
D44*
X31474693Y3807303D02*
X32095085Y4427695D01*
X31877000Y1387000D02*
X31474693Y1789307D01*
X31474693Y1789307D02*
X31474693Y3807303D01*
D43*
X18088893Y13836487D02*
X18088893Y12565487D01*
D44*
X33161885Y5593588D02*
X31895149Y6860324D01*
D43*
X1045493Y16083887D02*
X1045493Y16859087D01*
D45*
X19739893Y12565487D02*
X18088893Y12565487D01*
X24780357Y15106487D02*
X25161357Y14725487D01*
D43*
X42307293Y4235287D02*
X42307293Y2826087D01*
D45*
X23168893Y15106487D02*
X24780357Y15106487D01*
D44*
X33161885Y5494495D02*
X33161885Y5593588D01*
X39043893Y9010487D02*
X40440893Y9010487D01*
X40440893Y9010487D02*
X40694893Y9264487D01*
D45*
X25161357Y14725487D02*
X25200893Y14725487D01*
D43*
X42307293Y2826087D02*
X42345893Y2787487D01*
D45*
X22700901Y14638495D02*
X23168893Y15106487D01*
D44*
X31895149Y6860324D02*
X31796056Y6860324D01*
D43*
%TO.N,/XTAL1*%
X38368885Y4652479D02*
X38262820Y4652479D01*
X38262820Y4652479D02*
X37061670Y5853629D01*
X32500370Y7426010D02*
X34072751Y5853629D01*
X34072751Y5853629D02*
X37061670Y5853629D01*
X32460834Y7426010D02*
X32500370Y7426010D01*
%TO.N,/XTAL2*%
X36340141Y8979320D02*
X34014145Y8979320D01*
X36835116Y8484345D02*
X36340141Y8979320D01*
X34014145Y8979320D02*
X33026520Y7991695D01*
X37829250Y9589662D02*
X36850933Y8611345D01*
X37829250Y9732479D02*
X37829250Y9589662D01*
%TO.N,/~{RESET}*%
X44315893Y10850487D02*
X43361893Y11804487D01*
X11595954Y14010356D02*
X12692085Y15106487D01*
X8055893Y9518487D02*
X7459093Y10115287D01*
X8359593Y7656987D02*
X7459093Y6756487D01*
X42091893Y5454487D02*
X44315893Y7678487D01*
X8359593Y9518487D02*
X8359593Y7656987D01*
X11595954Y14048046D02*
X9017000Y16627000D01*
X43361893Y11804487D02*
X41964893Y11804487D01*
X7459093Y10115287D02*
X7459093Y10756487D01*
X40657293Y5035887D02*
X41075893Y5454487D01*
X39463493Y3041487D02*
X40657293Y4235287D01*
X14392893Y15106487D02*
X15027893Y14471487D01*
X36071487Y3041487D02*
X39463493Y3041487D01*
X15027893Y14471487D02*
X15027893Y13595487D01*
X40657293Y4235287D02*
X40657293Y5035887D01*
X41075893Y5454487D02*
X42091893Y5454487D01*
X8359593Y9518487D02*
X8055893Y9518487D01*
X26666994Y7076891D02*
X25319056Y5728953D01*
X26666994Y8339403D02*
X26666994Y7076891D01*
X44315893Y7678487D02*
X44315893Y10850487D01*
X15027893Y13595487D02*
X15421893Y13201487D01*
X11595954Y14010356D02*
X11595954Y14048046D01*
X34417000Y1387000D02*
X36071487Y3041487D01*
X12692085Y15106487D02*
X14392893Y15106487D01*
%TO.N,/DTR*%
X16577893Y14471487D02*
X16564893Y14458487D01*
X16564893Y14458487D02*
X16564893Y11296487D01*
X16564893Y11296487D02*
X16323893Y11055487D01*
X16323893Y11055487D02*
X15609893Y11055487D01*
D44*
%TO.N,+3V3*%
X19310893Y5642487D02*
X19358893Y5594487D01*
X17448393Y5642487D02*
X19310893Y5642487D01*
X19853893Y5594487D02*
X20628893Y4819487D01*
X19358893Y5594487D02*
X19853893Y5594487D01*
D43*
%TO.N,/USB_UART/VBUS*%
X9859293Y14192087D02*
X11659893Y12391487D01*
D44*
X9582893Y3676487D02*
X9328893Y3930487D01*
X9186493Y13176087D02*
X9186493Y12134687D01*
X10972893Y3676487D02*
X9582893Y3676487D01*
X9186493Y12134687D02*
X9186493Y14192087D01*
D43*
X10696893Y11042487D02*
X10709893Y11055487D01*
X10341893Y11042487D02*
X10696893Y11042487D01*
X11659893Y12391487D02*
X11659893Y12005487D01*
D44*
X9328893Y3930487D02*
X9328893Y5451487D01*
D43*
X9249693Y12134687D02*
X10341893Y11042487D01*
D44*
X9328893Y5451487D02*
X9325893Y5454487D01*
D43*
X9186493Y14192087D02*
X9859293Y14192087D01*
X9186493Y12134687D02*
X9249693Y12134687D01*
D48*
%TO.N,/D_P*%
X13481598Y13490782D02*
X13135893Y13145077D01*
X5315157Y9129656D02*
X5874337Y9129656D01*
X4190000Y9017000D02*
X5202501Y9017000D01*
X5202501Y9017000D02*
X5315157Y9129656D01*
X5874337Y9129656D02*
X6150893Y8853100D01*
X13135893Y13145077D02*
X13135893Y12029487D01*
X13135893Y12029487D02*
X13159893Y12005487D01*
%TO.N,/D_N*%
X12790188Y14182192D02*
X12790188Y13791082D01*
X5315157Y9554344D02*
X5874337Y9554344D01*
X5202501Y9667000D02*
X5315157Y9554344D01*
X12659893Y13660787D02*
X12659893Y12005487D01*
X12790188Y13791082D02*
X12659893Y13660787D01*
X5874337Y9554344D02*
X6150893Y9830900D01*
X4190000Y9667000D02*
X5202501Y9667000D01*
D43*
%TO.N,Net-(D103-A)*%
X2531793Y14433887D02*
X2594793Y14496887D01*
X1045493Y14433887D02*
X2531793Y14433887D01*
%TO.N,unconnected-(J101-Shield-Pad6)*%
X4065000Y5917000D02*
X3790000Y6192000D01*
X3790000Y11842000D02*
X4065000Y12117000D01*
X1515000Y11842000D02*
X3790000Y11842000D01*
X1515000Y6192000D02*
X1515000Y11842000D01*
X3790000Y6192000D02*
X1515000Y6192000D01*
%TO.N,/D12{slash}MISO*%
X27359893Y12058487D02*
X27910893Y12609487D01*
X43170393Y7931987D02*
X41964893Y9137487D01*
X27910893Y12846274D02*
X29066722Y14002103D01*
X41964893Y9137487D02*
X41964893Y9264487D01*
X27910893Y12609487D02*
X27910893Y12846274D01*
X43170393Y7867487D02*
X43170393Y7931987D01*
%TO.N,/D13{slash}SCK*%
X27016112Y14002103D02*
X28491009Y15477000D01*
X29937136Y15477000D02*
X31119771Y14294365D01*
X28491009Y15477000D02*
X29937136Y15477000D01*
X43615893Y10534487D02*
X41964893Y10534487D01*
%TO.N,/D11{slash}MOSI*%
X28310893Y11514537D02*
X28310893Y12114903D01*
X29163943Y10661487D02*
X28310893Y11514537D01*
X29264893Y10661487D02*
X29163943Y10661487D01*
X38916893Y11169487D02*
X40059893Y11169487D01*
X28310893Y12114903D02*
X29632407Y13436417D01*
X40059893Y11169487D02*
X40694893Y10534487D01*
%TO.N,/D2*%
X27510567Y4526352D02*
X27510567Y8859813D01*
X27016112Y4031897D02*
X27510567Y4526352D01*
X27510567Y8859813D02*
X26851893Y9518487D01*
%TO.N,/D3*%
X28763473Y8606810D02*
X28248893Y8092230D01*
X28248893Y4849726D02*
X29066722Y4031897D01*
X28248893Y8092230D02*
X28248893Y4849726D01*
%TO.N,/D4*%
X28705271Y7559365D02*
X28705271Y5524719D01*
X30407893Y9261987D02*
X28705271Y7559365D01*
X28705271Y5524719D02*
X29632407Y4597583D01*
%TO.N,/D5*%
X33026520Y10042305D02*
X33026520Y10156520D01*
X33026520Y10156520D02*
X39497000Y16627000D01*
%TO.N,/D6*%
X32460834Y10607990D02*
X36957000Y15104156D01*
X36957000Y15104156D02*
X36957000Y16627000D01*
%TO.N,/D7*%
X31895149Y11173676D02*
X34417000Y13695527D01*
X34417000Y13695527D02*
X34417000Y16627000D01*
%TO.N,/D8*%
X33100293Y15403707D02*
X31877000Y16627000D01*
X33100293Y13510190D02*
X33100293Y15403707D01*
X31329464Y11739361D02*
X33100293Y13510190D01*
%TO.N,/D9*%
X31931893Y13455487D02*
X31931893Y14471487D01*
X30781453Y12305047D02*
X31931893Y13455487D01*
X29776380Y16627000D02*
X29337000Y16627000D01*
X31931893Y14471487D02*
X29776380Y16627000D01*
X30763778Y12305047D02*
X30781453Y12305047D01*
%TO.N,/D10*%
X29131848Y11804487D02*
X30198093Y12870732D01*
X29010893Y11804487D02*
X29131848Y11804487D01*
%TO.N,/A7*%
X25200893Y10160468D02*
X24187685Y11173676D01*
X25200893Y8121487D02*
X25200893Y10160468D01*
%TO.N,/A6*%
X25806813Y7220390D02*
X25962893Y7376470D01*
X26597893Y12157580D02*
X25884741Y12870732D01*
X25962893Y10280487D02*
X26597893Y10915487D01*
X25962893Y7376470D02*
X25962893Y10280487D01*
X26597893Y10915487D02*
X26597893Y12157580D01*
%TO.N,/A5{slash}SCL*%
X23651493Y3625687D02*
X24257000Y3020180D01*
X23651493Y5192762D02*
X23651493Y3625687D01*
X24753370Y6294639D02*
X23651493Y5192762D01*
X24257000Y3020180D02*
X24257000Y1387000D01*
%TO.N,/A4{slash}~{SDA}*%
X23092693Y5765332D02*
X23092693Y2762693D01*
X24187685Y6860324D02*
X23092693Y5765332D01*
X23092693Y2762693D02*
X21717000Y1387000D01*
%TO.N,/A3*%
X21267406Y2537000D02*
X20327000Y2537000D01*
X23622000Y7426010D02*
X22533893Y6337903D01*
X22533893Y3803487D02*
X21267406Y2537000D01*
X20327000Y2537000D02*
X19177000Y1387000D01*
X22533893Y6337903D02*
X22533893Y3803487D01*
%TO.N,/A2*%
X23056314Y7991695D02*
X21873493Y6808874D01*
X17910487Y2660487D02*
X16637000Y1387000D01*
X21873493Y6808874D02*
X21873493Y3778087D01*
X20161314Y2937000D02*
X19884801Y2660487D01*
X19884801Y2660487D02*
X17910487Y2660487D01*
X21032406Y2937000D02*
X20161314Y2937000D01*
X21873493Y3778087D02*
X21032406Y2937000D01*
%TO.N,/A1*%
X21173993Y6028513D02*
X21173993Y8159984D01*
X21173993Y8159984D02*
X23056314Y10042305D01*
%TO.N,/A0*%
X20756121Y10229915D02*
X22076693Y11550487D01*
X20756121Y7023987D02*
X20756121Y10229915D01*
X23577990Y10607990D02*
X23622000Y10607990D01*
X22635493Y11550487D02*
X23577990Y10607990D01*
X22076693Y11550487D02*
X22635493Y11550487D01*
X20456621Y6724487D02*
X20756121Y7023987D01*
D45*
%TO.N,Net-(D102-A)*%
X19739893Y10915487D02*
X19739893Y9479987D01*
%TO.N,Net-(D101-A)*%
X18088893Y10915487D02*
X18088893Y9479987D01*
D43*
%TO.N,Net-(U301-VDD)*%
X9402093Y15208087D02*
X10094293Y14515887D01*
X6519493Y14713087D02*
X7014493Y15208087D01*
X6176293Y14713087D02*
X6519493Y14713087D01*
X7014493Y15208087D02*
X9402093Y15208087D01*
X10101179Y14515887D02*
X12159893Y12457173D01*
X12159893Y12457173D02*
X12159893Y12005487D01*
X10094293Y14515887D02*
X10101179Y14515887D01*
%TO.N,/D0{slash}RX*%
X15609893Y10055487D02*
X16510493Y10055487D01*
X24905960Y4184487D02*
X25884741Y5163268D01*
X17047493Y9518487D02*
X17047493Y8197687D01*
X17340193Y7904987D02*
X18088893Y7904987D01*
X16641093Y9924887D02*
X16844293Y9924887D01*
X16844293Y9924887D02*
X16844293Y9721687D01*
X17047493Y8197687D02*
X17340193Y7904987D01*
X24350993Y4184487D02*
X24905960Y4184487D01*
X16844293Y9721687D02*
X17047493Y9518487D01*
X16510493Y10055487D02*
X16641093Y9924887D01*
%TO.N,/D1{slash}TX*%
X25185736Y3332892D02*
X26450427Y4597583D01*
X16022545Y9555487D02*
X15609893Y9555487D01*
X19739893Y7334087D02*
X19739893Y7904987D01*
X16641093Y7791287D02*
X16641093Y8936939D01*
X19231893Y6826087D02*
X19739893Y7334087D01*
X18977893Y6826087D02*
X17606293Y6826087D01*
X16641093Y8936939D02*
X16022545Y9555487D01*
X18977893Y6826087D02*
X19231893Y6826087D01*
X17606293Y6826087D02*
X16641093Y7791287D01*
X24882710Y3332892D02*
X25185736Y3332892D01*
%TD*%
%TA.AperFunction,Conductor*%
%TO.N,+5V*%
G36*
X15740893Y6326874D02*
G01*
X15786280Y6281487D01*
X15802893Y6219487D01*
X15802893Y5616987D01*
X15786280Y5554987D01*
X15740893Y5509600D01*
X15678893Y5492987D01*
X14595199Y5492987D01*
X14592779Y5492797D01*
X14592764Y5492796D01*
X14564641Y5490583D01*
X14564632Y5490582D01*
X14558324Y5490085D01*
X14552244Y5488319D01*
X14552235Y5488317D01*
X14407987Y5446408D01*
X14407984Y5446407D01*
X14400495Y5444231D01*
X14393784Y5440263D01*
X14393779Y5440260D01*
X14265744Y5364541D01*
X14265737Y5364537D01*
X14259028Y5360568D01*
X14253513Y5355054D01*
X14253509Y5355050D01*
X14148328Y5249869D01*
X14148324Y5249865D01*
X14145584Y5247125D01*
X14145579Y5247120D01*
X14142812Y5244352D01*
X14142528Y5244636D01*
X14103826Y5213130D01*
X14049277Y5200487D01*
X13897893Y5200487D01*
X13897893Y5184161D01*
X13897893Y3292487D01*
X13881280Y3230487D01*
X13835893Y3185100D01*
X13773893Y3168487D01*
X11997393Y3168487D01*
X11935393Y3185100D01*
X11890006Y3230487D01*
X11873393Y3292487D01*
X11873392Y4121048D01*
X11873392Y4124359D01*
X11866984Y4183970D01*
X11866984Y4183971D01*
X11867617Y4184039D01*
X11865893Y4198835D01*
X11865893Y5048039D01*
X11872187Y5087042D01*
X11877437Y5102885D01*
X11904242Y5183779D01*
X11914393Y5283142D01*
X11914392Y5879831D01*
X11904242Y5979195D01*
X11881098Y6049037D01*
X11876931Y6110902D01*
X11903239Y6167052D01*
X11953444Y6203444D01*
X12014988Y6210978D01*
X12060492Y6204987D01*
X12259293Y6204988D01*
X12369365Y6219478D01*
X12376875Y6222590D01*
X12377797Y6222836D01*
X12441986Y6222837D01*
X12442909Y6222590D01*
X12450421Y6219478D01*
X12560492Y6204987D01*
X12759293Y6204988D01*
X12869365Y6219478D01*
X12876875Y6222590D01*
X12877797Y6222836D01*
X12941986Y6222837D01*
X12942909Y6222590D01*
X12950421Y6219478D01*
X13060492Y6204987D01*
X13259293Y6204988D01*
X13369365Y6219478D01*
X13376875Y6222590D01*
X13377797Y6222836D01*
X13441986Y6222837D01*
X13442909Y6222590D01*
X13450421Y6219478D01*
X13560492Y6204987D01*
X13759293Y6204988D01*
X13869365Y6219478D01*
X13876875Y6222590D01*
X13877797Y6222836D01*
X13941986Y6222837D01*
X13942909Y6222590D01*
X13950421Y6219478D01*
X14060492Y6204987D01*
X14259293Y6204988D01*
X14369365Y6219478D01*
X14376875Y6222590D01*
X14377797Y6222836D01*
X14441986Y6222837D01*
X14442909Y6222590D01*
X14450421Y6219478D01*
X14560492Y6204987D01*
X14759293Y6204988D01*
X14869365Y6219478D01*
X15006322Y6276208D01*
X15060607Y6317863D01*
X15096236Y6336906D01*
X15136094Y6343487D01*
X15678893Y6343487D01*
X15740893Y6326874D01*
G37*
%TD.AperFunction*%
%TD*%
%TA.AperFunction,Conductor*%
%TO.N,GND*%
G36*
X8055893Y11677487D02*
G01*
X8050823Y11677487D01*
X8028427Y11691301D01*
X7861890Y11746486D01*
X7855157Y11747174D01*
X7855152Y11747175D01*
X7762233Y11756668D01*
X7762216Y11756669D01*
X7759102Y11756987D01*
X7755953Y11756987D01*
X7162234Y11756987D01*
X7162214Y11756987D01*
X7159085Y11756986D01*
X7155953Y11756667D01*
X7155951Y11756666D01*
X7063031Y11747175D01*
X7063021Y11747174D01*
X7056296Y11746486D01*
X7049874Y11744359D01*
X7049869Y11744357D01*
X6896614Y11693573D01*
X6896610Y11693572D01*
X6889759Y11691301D01*
X6883618Y11687514D01*
X6883611Y11687510D01*
X6867361Y11677487D01*
X6507112Y11677487D01*
X6481881Y11695818D01*
X6481880Y11695819D01*
X6476623Y11699638D01*
X6470685Y11702282D01*
X6309638Y11773986D01*
X6309633Y11773988D01*
X6303696Y11776631D01*
X6297337Y11777983D01*
X6297333Y11777984D01*
X6124901Y11814635D01*
X6124898Y11814636D01*
X6118539Y11815987D01*
X5929247Y11815987D01*
X5922888Y11814636D01*
X5922884Y11814635D01*
X5750452Y11777984D01*
X5750445Y11777982D01*
X5744090Y11776631D01*
X5738155Y11773989D01*
X5738147Y11773986D01*
X5577100Y11702282D01*
X5577095Y11702280D01*
X5571163Y11699638D01*
X5565909Y11695822D01*
X5565904Y11695818D01*
X5540673Y11677487D01*
X5388893Y11677487D01*
X5388893Y13607887D01*
X7166893Y13607887D01*
X7166893Y14500713D01*
X7188110Y14532471D01*
X7226911Y14571271D01*
X7267140Y14598149D01*
X7314591Y14607587D01*
X8055893Y14607587D01*
X8055893Y11677487D01*
G37*
%TD.AperFunction*%
%TD*%
%TA.AperFunction,Conductor*%
%TO.N,GND*%
G36*
X45016795Y7451980D02*
G01*
X45066227Y7406285D01*
X45084500Y7341495D01*
X45084500Y124500D01*
X45067887Y62500D01*
X45022500Y17113D01*
X44960500Y500D01*
X40818304Y500D01*
X40753137Y19005D01*
X40707420Y68996D01*
X40694798Y135553D01*
X40719037Y198811D01*
X40736776Y222509D01*
X40790796Y294669D01*
X40841091Y429517D01*
X40847500Y489127D01*
X40847499Y2284872D01*
X40841091Y2344483D01*
X40790796Y2479331D01*
X40704546Y2594546D01*
X40695128Y2601596D01*
X40596431Y2675481D01*
X40596430Y2675482D01*
X40589331Y2680796D01*
X40482442Y2720663D01*
X40461752Y2728380D01*
X40461750Y2728381D01*
X40454483Y2731091D01*
X40446770Y2731921D01*
X40446767Y2731921D01*
X40398180Y2737145D01*
X40398169Y2737146D01*
X40394873Y2737500D01*
X40391551Y2737500D01*
X40308102Y2737500D01*
X40251807Y2751015D01*
X40207784Y2788615D01*
X40185629Y2842102D01*
X40190171Y2899818D01*
X40220421Y2949181D01*
X40271530Y3000289D01*
X40494708Y3223468D01*
X40534937Y3250348D01*
X40582390Y3259787D01*
X40911090Y3259787D01*
X40913909Y3259787D01*
X40984489Y3266201D01*
X41146899Y3316809D01*
X41292478Y3404815D01*
X41394612Y3506950D01*
X41450199Y3539043D01*
X41514387Y3539043D01*
X41569974Y3506949D01*
X41599496Y3477427D01*
X41629744Y3428069D01*
X41634290Y3370359D01*
X41613322Y3319725D01*
X41613360Y3319703D01*
X41613195Y3319419D01*
X41613192Y3319413D01*
X41610119Y3314092D01*
X41610117Y3314087D01*
X41521962Y3161398D01*
X41521959Y3161393D01*
X41518714Y3155771D01*
X41516708Y3149599D01*
X41516706Y3149593D01*
X41462226Y2981923D01*
X41462224Y2981914D01*
X41460219Y2975743D01*
X41459541Y2969293D01*
X41459539Y2969283D01*
X41444204Y2823366D01*
X41440433Y2787487D01*
X41441112Y2781027D01*
X41459539Y2605692D01*
X41459540Y2605684D01*
X41460219Y2599231D01*
X41462224Y2593059D01*
X41462226Y2593052D01*
X41516706Y2425382D01*
X41518714Y2419203D01*
X41521961Y2413579D01*
X41521962Y2413577D01*
X41609341Y2262231D01*
X41613360Y2255271D01*
X41740022Y2114599D01*
X41893163Y2003336D01*
X42066090Y1926343D01*
X42251247Y1886987D01*
X42434036Y1886987D01*
X42440539Y1886987D01*
X42625696Y1926343D01*
X42798623Y2003336D01*
X42951764Y2114599D01*
X43078426Y2255271D01*
X43173072Y2419203D01*
X43231567Y2599231D01*
X43251353Y2787487D01*
X43231567Y2975743D01*
X43173072Y3155771D01*
X43078426Y3319703D01*
X43052426Y3348579D01*
X43023753Y3403661D01*
X43025382Y3465737D01*
X43053462Y3513402D01*
X43052835Y3513893D01*
X43056531Y3518612D01*
X43056900Y3519238D01*
X43062765Y3525102D01*
X43150771Y3670681D01*
X43201379Y3833091D01*
X43207793Y3903671D01*
X43207793Y4566903D01*
X43201379Y4637483D01*
X43199352Y4643987D01*
X43181416Y4701547D01*
X43150771Y4799893D01*
X43062765Y4945472D01*
X42942478Y5065759D01*
X42888124Y5098617D01*
X42834813Y5130845D01*
X42794832Y5169636D01*
X42775867Y5222016D01*
X42781746Y5277411D01*
X42811280Y5324641D01*
X44706937Y7220298D01*
X44719115Y7230977D01*
X44744175Y7250205D01*
X44840429Y7375646D01*
X44845939Y7388950D01*
X44887615Y7441814D01*
X44950772Y7465113D01*
X45016795Y7451980D01*
G37*
%TD.AperFunction*%
%TA.AperFunction,Conductor*%
G36*
X195269Y5882076D02*
G01*
X237779Y5830690D01*
X284078Y5726701D01*
X287897Y5721445D01*
X287898Y5721443D01*
X392445Y5577546D01*
X398431Y5569308D01*
X403260Y5564960D01*
X403261Y5564959D01*
X522620Y5457487D01*
X543008Y5439130D01*
X711492Y5341856D01*
X896518Y5281738D01*
X1041496Y5266500D01*
X1985262Y5266500D01*
X1988504Y5266500D01*
X2133482Y5281738D01*
X2318508Y5341856D01*
X2486992Y5439130D01*
X2552383Y5498009D01*
X2602007Y5525289D01*
X2658588Y5527661D01*
X2710323Y5504627D01*
X2746421Y5460992D01*
X2759353Y5405857D01*
X2759353Y4867000D01*
X2759881Y4862983D01*
X2759882Y4862981D01*
X2774677Y4750601D01*
X2776583Y4736129D01*
X2779694Y4728618D01*
X2779695Y4728615D01*
X2790906Y4701549D01*
X2827097Y4614176D01*
X2832043Y4607730D01*
X2832045Y4607727D01*
X2902507Y4515900D01*
X2902510Y4515897D01*
X2907454Y4509454D01*
X3012177Y4429097D01*
X3134129Y4378583D01*
X3265000Y4361353D01*
X3940872Y4361353D01*
X4003651Y4344286D01*
X4049149Y4297785D01*
X4064842Y4234648D01*
X4046411Y4172258D01*
X4006890Y4108184D01*
X4004619Y4101333D01*
X4004618Y4101329D01*
X3957991Y3960616D01*
X3953544Y3947195D01*
X3952856Y3940465D01*
X3952855Y3940458D01*
X3943712Y3850964D01*
X3943711Y3850946D01*
X3943393Y3847832D01*
X3943393Y3844685D01*
X3943393Y3844684D01*
X3943393Y3254293D01*
X3943393Y3254274D01*
X3943394Y3251143D01*
X3943713Y3248011D01*
X3943714Y3248010D01*
X3952855Y3158515D01*
X3952856Y3158507D01*
X3953544Y3151779D01*
X3955672Y3145356D01*
X3955673Y3145353D01*
X3980499Y3070434D01*
X4006890Y2990790D01*
X4010681Y2984644D01*
X4010682Y2984642D01*
X4043594Y2931284D01*
X4062026Y2868892D01*
X4046334Y2805755D01*
X4000835Y2759254D01*
X3939112Y2742475D01*
X3937000Y2742659D01*
X3931605Y2742187D01*
X3706982Y2722535D01*
X3706977Y2722535D01*
X3701592Y2722063D01*
X3696371Y2720665D01*
X3696365Y2720663D01*
X3478569Y2662306D01*
X3478557Y2662302D01*
X3473337Y2660903D01*
X3468432Y2658617D01*
X3468427Y2658614D01*
X3264081Y2563325D01*
X3264077Y2563323D01*
X3259171Y2561035D01*
X3254738Y2557932D01*
X3254731Y2557927D01*
X3070034Y2428601D01*
X3070029Y2428598D01*
X3065599Y2425495D01*
X3061775Y2421672D01*
X3061769Y2421666D01*
X2902334Y2262231D01*
X2902328Y2262225D01*
X2898505Y2258401D01*
X2895402Y2253971D01*
X2895399Y2253966D01*
X2766073Y2069269D01*
X2766068Y2069262D01*
X2762965Y2064829D01*
X2760677Y2059923D01*
X2760675Y2059919D01*
X2665386Y1855573D01*
X2665383Y1855568D01*
X2663097Y1850663D01*
X2661698Y1845443D01*
X2661694Y1845431D01*
X2603337Y1627635D01*
X2603335Y1627629D01*
X2601937Y1622408D01*
X2581341Y1387000D01*
X2601937Y1151592D01*
X2603336Y1146370D01*
X2603337Y1146366D01*
X2661694Y928570D01*
X2661697Y928562D01*
X2663097Y923337D01*
X2665385Y918430D01*
X2665386Y918428D01*
X2760678Y714073D01*
X2760681Y714067D01*
X2762965Y709170D01*
X2766064Y704743D01*
X2766066Y704741D01*
X2895399Y520034D01*
X2895402Y520030D01*
X2898505Y515599D01*
X3065599Y348505D01*
X3070031Y345402D01*
X3070033Y345400D01*
X3240447Y226075D01*
X3280773Y178858D01*
X3293153Y118010D01*
X3274481Y58790D01*
X3229439Y16047D01*
X3169323Y500D01*
X124500Y500D01*
X62500Y17113D01*
X17113Y62500D01*
X500Y124500D01*
X500Y5780254D01*
X18435Y5844489D01*
X67051Y5890143D01*
X132286Y5904009D01*
X195269Y5882076D01*
G37*
%TD.AperFunction*%
%TA.AperFunction,Conductor*%
G36*
X9110542Y7531076D02*
G01*
X9241199Y7453806D01*
X9395995Y7408833D01*
X9432158Y7405987D01*
X9836027Y7405988D01*
X9872191Y7408833D01*
X10026987Y7453806D01*
X10046113Y7465118D01*
X10100477Y7482077D01*
X10156689Y7472948D01*
X10182980Y7462058D01*
X10225421Y7444478D01*
X10335492Y7429987D01*
X10910393Y7429988D01*
X10972393Y7413375D01*
X11017780Y7367988D01*
X11034393Y7305988D01*
X11034393Y6735142D01*
X11034393Y6735127D01*
X11034394Y6731087D01*
X11034922Y6727072D01*
X11034923Y6727065D01*
X11046526Y6638929D01*
X11048884Y6621015D01*
X11051992Y6613512D01*
X11051993Y6613508D01*
X11097606Y6503391D01*
X11105614Y6484058D01*
X11195857Y6366451D01*
X11313464Y6276208D01*
X11317159Y6274678D01*
X11362958Y6227505D01*
X11377570Y6161382D01*
X11372805Y6080837D01*
X11372574Y6076930D01*
X11372835Y6073042D01*
X11372836Y6073026D01*
X11375551Y6032726D01*
X11376741Y6015065D01*
X11377490Y6011241D01*
X11377492Y6011232D01*
X11400505Y5893867D01*
X11401258Y5890029D01*
X11402485Y5886326D01*
X11402489Y5886311D01*
X11402598Y5885984D01*
X11402633Y5885763D01*
X11403485Y5882521D01*
X11403170Y5882439D01*
X11408892Y5846981D01*
X11408892Y5315989D01*
X11402598Y5276986D01*
X11393125Y5248400D01*
X11393120Y5248385D01*
X11392345Y5246044D01*
X11391760Y5243654D01*
X11391755Y5243636D01*
X11373735Y5169997D01*
X11373730Y5169976D01*
X11373143Y5167574D01*
X11372748Y5165129D01*
X11372745Y5165112D01*
X11367966Y5135494D01*
X11366849Y5128571D01*
X11366649Y5126082D01*
X11366649Y5126078D01*
X11360592Y5050530D01*
X11360591Y5050513D01*
X11360393Y5048039D01*
X11360393Y5045546D01*
X11360393Y4700987D01*
X11343780Y4638987D01*
X11298393Y4593600D01*
X11236393Y4576987D01*
X10569282Y4576987D01*
X10510960Y4591559D01*
X10466345Y4631850D01*
X10445924Y4688390D01*
X10444580Y4701547D01*
X10444580Y4701549D01*
X10443892Y4708284D01*
X10388707Y4874821D01*
X10318369Y4988858D01*
X10300395Y5017999D01*
X10300393Y5018002D01*
X10296605Y5024143D01*
X10226783Y5093965D01*
X10193890Y5152700D01*
X10196533Y5219965D01*
X10211567Y5266231D01*
X10231353Y5454487D01*
X10211567Y5642743D01*
X10153072Y5822771D01*
X10058426Y5986703D01*
X9931764Y6127375D01*
X9926506Y6131195D01*
X9926504Y6131197D01*
X9783881Y6234818D01*
X9783880Y6234819D01*
X9778623Y6238638D01*
X9768004Y6243366D01*
X9611638Y6312986D01*
X9611633Y6312988D01*
X9605696Y6315631D01*
X9599337Y6316983D01*
X9599333Y6316984D01*
X9426901Y6353635D01*
X9426898Y6353636D01*
X9420539Y6354987D01*
X9231247Y6354987D01*
X9224888Y6353636D01*
X9224884Y6353635D01*
X9052452Y6316984D01*
X9052445Y6316982D01*
X9046090Y6315631D01*
X9040155Y6312989D01*
X9040147Y6312986D01*
X8879100Y6241282D01*
X8879095Y6241280D01*
X8873163Y6238638D01*
X8867909Y6234822D01*
X8867904Y6234818D01*
X8725281Y6131197D01*
X8725274Y6131192D01*
X8720022Y6127375D01*
X8715677Y6122550D01*
X8715672Y6122545D01*
X8597706Y5991531D01*
X8597701Y5991525D01*
X8593360Y5986703D01*
X8590115Y5981083D01*
X8590111Y5981077D01*
X8501962Y5828398D01*
X8501959Y5828393D01*
X8498714Y5822771D01*
X8496708Y5816599D01*
X8496706Y5816593D01*
X8442226Y5648923D01*
X8442224Y5648914D01*
X8440219Y5642743D01*
X8439541Y5636293D01*
X8439539Y5636283D01*
X8427874Y5525289D01*
X8420433Y5454487D01*
X8421935Y5440195D01*
X8439539Y5272692D01*
X8439540Y5272684D01*
X8440219Y5266231D01*
X8442224Y5260059D01*
X8442226Y5260052D01*
X8456723Y5215437D01*
X8459366Y5148173D01*
X8426475Y5089439D01*
X8366285Y5029248D01*
X8366281Y5029244D01*
X8361181Y5024143D01*
X8357393Y5018003D01*
X8357390Y5017998D01*
X8273845Y4882548D01*
X8269079Y4874821D01*
X8266808Y4867970D01*
X8266807Y4867966D01*
X8223121Y4736129D01*
X8213894Y4708284D01*
X8213206Y4701554D01*
X8213205Y4701547D01*
X8203712Y4608628D01*
X8203711Y4608610D01*
X8203393Y4605496D01*
X8203393Y4602349D01*
X8203393Y4602348D01*
X8203393Y3258628D01*
X8203393Y3258609D01*
X8203394Y3255479D01*
X8203713Y3252347D01*
X8203714Y3252346D01*
X8213205Y3159426D01*
X8213206Y3159418D01*
X8213894Y3152690D01*
X8216022Y3146268D01*
X8216023Y3146264D01*
X8266242Y2994715D01*
X8269079Y2986153D01*
X8282368Y2964608D01*
X8357390Y2842976D01*
X8357393Y2842972D01*
X8361181Y2836831D01*
X8366285Y2831727D01*
X8366286Y2831726D01*
X8417424Y2780588D01*
X8448004Y2730195D01*
X8451859Y2671376D01*
X8428120Y2617423D01*
X8382151Y2580526D01*
X8344330Y2562889D01*
X8334982Y2557492D01*
X8150357Y2428216D01*
X8142092Y2421281D01*
X7982719Y2261908D01*
X7975788Y2253648D01*
X7848880Y2072404D01*
X7804562Y2033539D01*
X7747305Y2019528D01*
X7690048Y2033539D01*
X7645730Y2072405D01*
X7612803Y2119430D01*
X7515495Y2258401D01*
X7348401Y2425495D01*
X7343970Y2428598D01*
X7343966Y2428601D01*
X7296017Y2462175D01*
X7256330Y2508100D01*
X7243193Y2567358D01*
X7259755Y2625751D01*
X7302045Y2669289D01*
X7372549Y2712775D01*
X7496605Y2836831D01*
X7588707Y2986153D01*
X7643892Y3152690D01*
X7654393Y3255478D01*
X7654392Y4605495D01*
X7643892Y4708284D01*
X7588707Y4874821D01*
X7518369Y4988858D01*
X7500395Y5017999D01*
X7500393Y5018002D01*
X7496605Y5024143D01*
X7372549Y5148199D01*
X7366408Y5151987D01*
X7366404Y5151990D01*
X7229373Y5236510D01*
X7223227Y5240301D01*
X7216369Y5242574D01*
X7216364Y5242576D01*
X7214385Y5243232D01*
X7212112Y5244559D01*
X7209826Y5245625D01*
X7209924Y5245837D01*
X7170061Y5269111D01*
X7140015Y5310722D01*
X7129393Y5360936D01*
X7129393Y5410000D01*
X7130454Y5426185D01*
X7133514Y5449428D01*
X7134575Y5457487D01*
X7113937Y5614249D01*
X7113937Y5614250D01*
X7116210Y5614549D01*
X7114835Y5656146D01*
X7138069Y5707456D01*
X7181605Y5743195D01*
X7236455Y5755988D01*
X7759101Y5755988D01*
X7861890Y5766488D01*
X8028427Y5821673D01*
X8177749Y5913775D01*
X8301805Y6037831D01*
X8393907Y6187153D01*
X8449092Y6353690D01*
X8459593Y6456478D01*
X8459592Y6856392D01*
X8469031Y6903844D01*
X8495908Y6944069D01*
X8750637Y7198798D01*
X8762815Y7209477D01*
X8787875Y7228705D01*
X8884129Y7354146D01*
X8932861Y7471797D01*
X8976653Y7526165D01*
X9042878Y7548260D01*
X9110542Y7531076D01*
G37*
%TD.AperFunction*%
%TA.AperFunction,Conductor*%
G36*
X36101919Y5243690D02*
G01*
X36142147Y5216810D01*
X36552649Y4806309D01*
X36939325Y4419633D01*
X36941915Y4417546D01*
X36941916Y4417545D01*
X36979969Y4386879D01*
X36979972Y4386878D01*
X36986008Y4382013D01*
X37116923Y4322225D01*
X37259381Y4301744D01*
X37366871Y4317198D01*
X37417980Y4313859D01*
X37463381Y4290148D01*
X37495326Y4250111D01*
X37546695Y4147826D01*
X37546702Y4147816D01*
X37549736Y4141774D01*
X37612818Y4064336D01*
X37615052Y4062102D01*
X37615053Y4062101D01*
X37823487Y3853668D01*
X37853737Y3804305D01*
X37858279Y3746589D01*
X37836124Y3693102D01*
X37792101Y3655502D01*
X37735806Y3641987D01*
X36118974Y3641987D01*
X36102789Y3643048D01*
X36079546Y3646108D01*
X36071487Y3647169D01*
X36063428Y3646108D01*
X35923194Y3627646D01*
X35922785Y3627593D01*
X35922778Y3627592D01*
X35914725Y3626531D01*
X35907215Y3623421D01*
X35907214Y3623420D01*
X35776153Y3569133D01*
X35776149Y3569132D01*
X35768646Y3566023D01*
X35762201Y3561079D01*
X35762198Y3561076D01*
X35649651Y3474716D01*
X35649647Y3474713D01*
X35643205Y3469769D01*
X35638261Y3463327D01*
X35638258Y3463323D01*
X35623981Y3444716D01*
X35613287Y3432523D01*
X34900530Y2719767D01*
X34844943Y2687673D01*
X34780756Y2687673D01*
X34657634Y2720663D01*
X34657630Y2720664D01*
X34652408Y2722063D01*
X34647020Y2722535D01*
X34647017Y2722535D01*
X34422395Y2742187D01*
X34417000Y2742659D01*
X34411605Y2742187D01*
X34186982Y2722535D01*
X34186977Y2722535D01*
X34181592Y2722063D01*
X34176371Y2720665D01*
X34176365Y2720663D01*
X33958569Y2662306D01*
X33958557Y2662302D01*
X33953337Y2660903D01*
X33948432Y2658617D01*
X33948427Y2658614D01*
X33744081Y2563325D01*
X33744077Y2563323D01*
X33739171Y2561035D01*
X33734738Y2557932D01*
X33734731Y2557927D01*
X33550034Y2428601D01*
X33550029Y2428598D01*
X33545599Y2425495D01*
X33541775Y2421672D01*
X33541769Y2421666D01*
X33382334Y2262231D01*
X33382328Y2262225D01*
X33378505Y2258401D01*
X33375402Y2253971D01*
X33375399Y2253966D01*
X33248575Y2072841D01*
X33204257Y2033975D01*
X33147000Y2019964D01*
X33089743Y2033975D01*
X33045425Y2072841D01*
X33012803Y2119430D01*
X32915495Y2258401D01*
X32748401Y2425495D01*
X32743970Y2428598D01*
X32743966Y2428601D01*
X32559259Y2557934D01*
X32559257Y2557936D01*
X32554830Y2561035D01*
X32549933Y2563319D01*
X32549927Y2563322D01*
X32345572Y2658614D01*
X32345570Y2658615D01*
X32340663Y2660903D01*
X32335436Y2662304D01*
X32335424Y2662308D01*
X32317098Y2667218D01*
X32269487Y2692003D01*
X32236811Y2734588D01*
X32225193Y2786992D01*
X32225193Y3283201D01*
X32237324Y3336692D01*
X32271342Y3379716D01*
X32313716Y3400488D01*
X32313422Y3401297D01*
X32320203Y3403766D01*
X32327232Y3405431D01*
X32478790Y3481546D01*
X32556228Y3544628D01*
X32978150Y3966552D01*
X33041234Y4043990D01*
X33117349Y4195548D01*
X33152722Y4344800D01*
X33185698Y4403882D01*
X33244780Y4436858D01*
X33394032Y4472231D01*
X33545590Y4548346D01*
X33623028Y4611428D01*
X34044950Y5033352D01*
X34108034Y5110790D01*
X34145193Y5184781D01*
X34190907Y5234667D01*
X34256004Y5253129D01*
X36054466Y5253129D01*
X36101919Y5243690D01*
G37*
%TD.AperFunction*%
%TA.AperFunction,Conductor*%
G36*
X16372389Y5135494D02*
G01*
X16406694Y5101668D01*
X16409059Y5103502D01*
X16413839Y5097339D01*
X16417812Y5090622D01*
X16534028Y4974406D01*
X16540742Y4970435D01*
X16540744Y4970434D01*
X16604761Y4932575D01*
X16675495Y4890743D01*
X16833324Y4844889D01*
X16870199Y4841987D01*
X18024142Y4841987D01*
X18026587Y4841987D01*
X18063462Y4844889D01*
X18208624Y4887064D01*
X18243219Y4891987D01*
X18509019Y4891987D01*
X18556472Y4882548D01*
X18596700Y4855668D01*
X18655849Y4796519D01*
X18800196Y4707484D01*
X18961185Y4654138D01*
X19060548Y4643987D01*
X19648982Y4643988D01*
X19699417Y4633268D01*
X19741131Y4602961D01*
X19766913Y4558307D01*
X19795422Y4470567D01*
X19801714Y4451203D01*
X19804961Y4445579D01*
X19804962Y4445577D01*
X19892860Y4293332D01*
X19896360Y4287271D01*
X19900704Y4282446D01*
X19900706Y4282444D01*
X19984793Y4189056D01*
X20023022Y4146599D01*
X20176163Y4035336D01*
X20349090Y3958343D01*
X20534247Y3918987D01*
X20717036Y3918987D01*
X20723539Y3918987D01*
X20874897Y3951159D01*
X20937758Y3948195D01*
X20991069Y3914753D01*
X21021098Y3859447D01*
X21020109Y3796523D01*
X20988359Y3742189D01*
X20819987Y3573817D01*
X20779762Y3546939D01*
X20732309Y3537500D01*
X20208801Y3537500D01*
X20192616Y3538561D01*
X20169373Y3541621D01*
X20161314Y3542682D01*
X20153255Y3541621D01*
X20032900Y3525776D01*
X20022137Y3524359D01*
X20004552Y3522044D01*
X19997047Y3518936D01*
X19997042Y3518934D01*
X19865980Y3464646D01*
X19865976Y3464645D01*
X19858473Y3461536D01*
X19852028Y3456592D01*
X19852025Y3456589D01*
X19739478Y3370229D01*
X19739474Y3370226D01*
X19733032Y3365282D01*
X19728088Y3358840D01*
X19728085Y3358836D01*
X19713808Y3340229D01*
X19703116Y3328038D01*
X19672383Y3297305D01*
X19632158Y3270426D01*
X19584704Y3260987D01*
X18707132Y3260987D01*
X18651706Y3274064D01*
X18607971Y3310535D01*
X18585150Y3362710D01*
X18588055Y3419581D01*
X18608491Y3489918D01*
X18611393Y3526793D01*
X18611393Y3958181D01*
X18608491Y3995056D01*
X18562637Y4152885D01*
X18486591Y4281472D01*
X18482946Y4287636D01*
X18482945Y4287638D01*
X18478974Y4294352D01*
X18362758Y4410568D01*
X18356044Y4414539D01*
X18356041Y4414541D01*
X18228006Y4490260D01*
X18228004Y4490261D01*
X18221291Y4494231D01*
X18185911Y4504510D01*
X18069550Y4538317D01*
X18069543Y4538319D01*
X18063462Y4540085D01*
X18057151Y4540582D01*
X18057144Y4540583D01*
X18029021Y4542796D01*
X18029007Y4542797D01*
X18026587Y4542987D01*
X16870199Y4542987D01*
X16867779Y4542797D01*
X16867764Y4542796D01*
X16839641Y4540583D01*
X16839632Y4540582D01*
X16833324Y4540085D01*
X16827244Y4538319D01*
X16827235Y4538317D01*
X16682987Y4496408D01*
X16682984Y4496407D01*
X16675495Y4494231D01*
X16668784Y4490263D01*
X16668779Y4490260D01*
X16540744Y4414541D01*
X16540737Y4414537D01*
X16534028Y4410568D01*
X16528513Y4405054D01*
X16528509Y4405050D01*
X16423330Y4299871D01*
X16423326Y4299867D01*
X16417812Y4294352D01*
X16413840Y4287637D01*
X16409059Y4281472D01*
X16406716Y4283289D01*
X16372315Y4249438D01*
X16310893Y4233157D01*
X16249471Y4249438D01*
X16215069Y4283289D01*
X16212727Y4281472D01*
X16207946Y4287636D01*
X16203974Y4294352D01*
X16087758Y4410568D01*
X16081044Y4414539D01*
X16081041Y4414541D01*
X15953006Y4490260D01*
X15953004Y4490261D01*
X15946291Y4494231D01*
X15910911Y4504510D01*
X15794550Y4538317D01*
X15794543Y4538319D01*
X15788462Y4540085D01*
X15782151Y4540582D01*
X15782144Y4540583D01*
X15754021Y4542796D01*
X15754007Y4542797D01*
X15751587Y4542987D01*
X14645867Y4542987D01*
X14583867Y4559600D01*
X14538480Y4604987D01*
X14521867Y4666987D01*
X14538480Y4728987D01*
X14542604Y4736129D01*
X14567925Y4779988D01*
X14613312Y4825374D01*
X14675312Y4841987D01*
X15749142Y4841987D01*
X15751587Y4841987D01*
X15788462Y4844889D01*
X15946291Y4890743D01*
X16087758Y4974406D01*
X16203974Y5090622D01*
X16207947Y5097341D01*
X16212727Y5103502D01*
X16215091Y5101668D01*
X16249397Y5135494D01*
X16310893Y5151818D01*
X16372389Y5135494D01*
G37*
%TD.AperFunction*%
%TA.AperFunction,Conductor*%
G36*
X38437697Y8337153D02*
G01*
X38438022Y8337599D01*
X38591163Y8226336D01*
X38764090Y8149343D01*
X38949247Y8109987D01*
X39132036Y8109987D01*
X39138539Y8109987D01*
X39323696Y8149343D01*
X39496623Y8226336D01*
X39510347Y8236308D01*
X39544911Y8253918D01*
X39583229Y8259987D01*
X40377186Y8259987D01*
X40395157Y8258678D01*
X40399053Y8258108D01*
X40418916Y8255198D01*
X40456124Y8258454D01*
X40511862Y8250499D01*
X40558339Y8218712D01*
X40585968Y8169649D01*
X40588415Y8125016D01*
X40590225Y8124910D01*
X40580504Y7958026D01*
X40580504Y7958018D01*
X40580085Y7950816D01*
X40581338Y7943705D01*
X40581339Y7943704D01*
X40609112Y7786187D01*
X40609114Y7786179D01*
X40610367Y7779075D01*
X40613224Y7772450D01*
X40613226Y7772446D01*
X40676580Y7625577D01*
X40679440Y7618948D01*
X40683748Y7613161D01*
X40683750Y7613158D01*
X40737335Y7541181D01*
X40783578Y7479065D01*
X40789103Y7474429D01*
X40789106Y7474426D01*
X40827972Y7441814D01*
X40917168Y7366970D01*
X41073009Y7288704D01*
X41242698Y7248487D01*
X41369749Y7248487D01*
X41373348Y7248487D01*
X41503104Y7263653D01*
X41666977Y7323298D01*
X41812677Y7419127D01*
X41932351Y7545974D01*
X42019546Y7697000D01*
X42022070Y7705429D01*
X42030225Y7732671D01*
X42036990Y7755271D01*
X42073022Y7812049D01*
X42133395Y7841671D01*
X42200352Y7835421D01*
X42254200Y7795138D01*
X42279102Y7732671D01*
X42282124Y7703920D01*
X42284719Y7679231D01*
X42286724Y7673059D01*
X42286726Y7673052D01*
X42334453Y7526165D01*
X42343214Y7499203D01*
X42346461Y7493579D01*
X42346462Y7493577D01*
X42434266Y7341495D01*
X42437860Y7335271D01*
X42442204Y7330446D01*
X42442206Y7330444D01*
X42560172Y7199430D01*
X42564522Y7194599D01*
X42689311Y7103935D01*
X42724614Y7064207D01*
X42740043Y7013347D01*
X42732761Y6960700D01*
X42704106Y6915937D01*
X41879477Y6091306D01*
X41839249Y6064426D01*
X41791796Y6054987D01*
X41123380Y6054987D01*
X41107195Y6056048D01*
X41083952Y6059108D01*
X41075893Y6060169D01*
X41020565Y6052885D01*
X40941918Y6042531D01*
X40927190Y6040593D01*
X40927182Y6040592D01*
X40919131Y6039531D01*
X40911626Y6036423D01*
X40911621Y6036421D01*
X40780559Y5982133D01*
X40780555Y5982132D01*
X40773052Y5979023D01*
X40766607Y5974079D01*
X40766604Y5974076D01*
X40654057Y5887716D01*
X40654053Y5887713D01*
X40647611Y5882769D01*
X40642667Y5876327D01*
X40642664Y5876323D01*
X40628387Y5857716D01*
X40617693Y5845523D01*
X40266258Y5494089D01*
X40254067Y5483397D01*
X40235458Y5469117D01*
X40235454Y5469114D01*
X40229011Y5464169D01*
X40224067Y5457727D01*
X40224065Y5457724D01*
X40142713Y5351703D01*
X40137704Y5345176D01*
X40137701Y5345173D01*
X40132757Y5338728D01*
X40129648Y5331225D01*
X40129647Y5331221D01*
X40082257Y5216810D01*
X40072249Y5192649D01*
X40071187Y5184590D01*
X40071188Y5184590D01*
X40065828Y5143883D01*
X40050590Y5098617D01*
X40022329Y5065894D01*
X40022108Y5065759D01*
X40016811Y5060463D01*
X40016807Y5060459D01*
X39907124Y4950776D01*
X39907120Y4950772D01*
X39901821Y4945472D01*
X39897944Y4939060D01*
X39897941Y4939055D01*
X39817693Y4806309D01*
X39817691Y4806305D01*
X39813815Y4799893D01*
X39811587Y4792744D01*
X39811582Y4792732D01*
X39774846Y4674840D01*
X39740744Y4620778D01*
X39684246Y4590884D01*
X39620365Y4593101D01*
X39566076Y4626840D01*
X39535803Y4683135D01*
X39518149Y4757626D01*
X39442034Y4909184D01*
X39388903Y4974406D01*
X39380944Y4984177D01*
X39380941Y4984181D01*
X39378952Y4986622D01*
X38957028Y5408544D01*
X38919483Y5439130D01*
X38884837Y5467354D01*
X38884834Y5467356D01*
X38879590Y5471628D01*
X38844858Y5489071D01*
X38734482Y5544504D01*
X38734479Y5544505D01*
X38728032Y5547743D01*
X38721009Y5549408D01*
X38721005Y5549409D01*
X38707695Y5552563D01*
X38658443Y5576703D01*
X38624424Y5619729D01*
X38616132Y5656289D01*
X38613555Y5655918D01*
X38593074Y5798376D01*
X38533286Y5929291D01*
X38495667Y5975974D01*
X37438015Y7033625D01*
X37432576Y7038008D01*
X37397370Y7066380D01*
X37397365Y7066383D01*
X37391332Y7071245D01*
X37384279Y7074466D01*
X37384276Y7074468D01*
X37367365Y7082191D01*
X37320953Y7118915D01*
X37296849Y7172969D01*
X37300545Y7232037D01*
X37331196Y7282663D01*
X38142112Y8093579D01*
X38179732Y8140261D01*
X38239520Y8271177D01*
X38240561Y8278423D01*
X38271823Y8330828D01*
X38325288Y8362035D01*
X38387176Y8363506D01*
X38437697Y8337153D01*
G37*
%TD.AperFunction*%
%TA.AperFunction,Conductor*%
G36*
X35433488Y8359136D02*
G01*
X35479242Y8306333D01*
X35490500Y8281683D01*
X35528119Y8235000D01*
X36585771Y7177349D01*
X36588361Y7175262D01*
X36588362Y7175261D01*
X36626415Y7144595D01*
X36626418Y7144594D01*
X36632454Y7139729D01*
X36639510Y7136507D01*
X36639511Y7136506D01*
X36656417Y7128785D01*
X36702831Y7092061D01*
X36726936Y7038008D01*
X36723241Y6978938D01*
X36692587Y6928310D01*
X36254727Y6490448D01*
X36214499Y6463568D01*
X36167046Y6454129D01*
X34372848Y6454129D01*
X34325395Y6463568D01*
X34285167Y6490448D01*
X33912493Y6863122D01*
X33880399Y6918709D01*
X33880399Y6982897D01*
X33912493Y7038484D01*
X34039722Y7165713D01*
X34174417Y7300408D01*
X34212037Y7347091D01*
X34271825Y7478007D01*
X34292306Y7620464D01*
X34271825Y7762921D01*
X34212037Y7893837D01*
X34174418Y7940520D01*
X34087179Y8027759D01*
X34055085Y8083347D01*
X34055085Y8147534D01*
X34087175Y8203117D01*
X34226563Y8342504D01*
X34266790Y8369381D01*
X34314242Y8378820D01*
X35366449Y8378820D01*
X35433488Y8359136D01*
G37*
%TD.AperFunction*%
%TA.AperFunction,Conductor*%
G36*
X7136891Y9565894D02*
G01*
X7190914Y9534231D01*
X7490893Y9234252D01*
X7521142Y9184891D01*
X7530403Y9156389D01*
X7530406Y9156381D01*
X7532414Y9150203D01*
X7535661Y9144578D01*
X7535663Y9144575D01*
X7596814Y9038659D01*
X7627060Y8986271D01*
X7631404Y8981446D01*
X7631406Y8981444D01*
X7727243Y8875007D01*
X7750857Y8836473D01*
X7759093Y8792035D01*
X7759093Y7957085D01*
X7749654Y7909632D01*
X7722774Y7869403D01*
X7646675Y7793305D01*
X7606447Y7766426D01*
X7558994Y7756987D01*
X7162234Y7756987D01*
X7162214Y7756987D01*
X7159085Y7756986D01*
X7155953Y7756667D01*
X7155951Y7756666D01*
X7063031Y7747175D01*
X7063021Y7747174D01*
X7056296Y7746486D01*
X7049874Y7744359D01*
X7049869Y7744357D01*
X6896614Y7693573D01*
X6896610Y7693572D01*
X6889759Y7691301D01*
X6883615Y7687512D01*
X6883612Y7687510D01*
X6746581Y7602990D01*
X6746573Y7602984D01*
X6740437Y7599199D01*
X6735335Y7594098D01*
X6735331Y7594094D01*
X6621486Y7480249D01*
X6621482Y7480245D01*
X6616381Y7475143D01*
X6612596Y7469007D01*
X6612590Y7468999D01*
X6528761Y7333088D01*
X6524279Y7325821D01*
X6522008Y7318970D01*
X6522007Y7318966D01*
X6471224Y7165713D01*
X6469094Y7159284D01*
X6468406Y7152554D01*
X6468405Y7152547D01*
X6458912Y7059628D01*
X6458911Y7059610D01*
X6458593Y7056496D01*
X6458593Y7053347D01*
X6458593Y6943259D01*
X6445079Y6886966D01*
X6407481Y6842943D01*
X6353996Y6820786D01*
X6303928Y6824725D01*
X6303696Y6823631D01*
X6124901Y6861635D01*
X6124898Y6861636D01*
X6118539Y6862987D01*
X5929247Y6862987D01*
X5922888Y6861636D01*
X5922884Y6861635D01*
X5750452Y6824984D01*
X5750445Y6824982D01*
X5744090Y6823631D01*
X5738155Y6820989D01*
X5738147Y6820986D01*
X5577100Y6749282D01*
X5577095Y6749280D01*
X5571163Y6746638D01*
X5565906Y6742819D01*
X5560278Y6739569D01*
X5559443Y6741016D01*
X5504375Y6720700D01*
X5438351Y6733834D01*
X5388919Y6779529D01*
X5370647Y6844318D01*
X5370647Y6962947D01*
X5370647Y6967000D01*
X5353417Y7097871D01*
X5302903Y7219823D01*
X5222546Y7324546D01*
X5216103Y7329490D01*
X5216100Y7329493D01*
X5124273Y7399955D01*
X5124270Y7399957D01*
X5117824Y7404903D01*
X4999670Y7453844D01*
X4952260Y7488548D01*
X4926148Y7541181D01*
X4927197Y7599927D01*
X4955171Y7651596D01*
X5003789Y7684586D01*
X5107331Y7723204D01*
X5222546Y7809454D01*
X5308796Y7924669D01*
X5359091Y8059517D01*
X5361703Y8083812D01*
X5384801Y8143617D01*
X5434688Y8183894D01*
X5498025Y8193868D01*
X5557876Y8170873D01*
X5698163Y8068949D01*
X5871090Y7991956D01*
X6056247Y7952600D01*
X6239036Y7952600D01*
X6245539Y7952600D01*
X6430696Y7991956D01*
X6603623Y8068949D01*
X6756764Y8180212D01*
X6883426Y8320884D01*
X6978072Y8484816D01*
X7036567Y8664844D01*
X7056353Y8853100D01*
X7036567Y9041356D01*
X6978072Y9221384D01*
X6944229Y9280001D01*
X6927617Y9342000D01*
X6944230Y9404001D01*
X6946309Y9407602D01*
X6978072Y9462616D01*
X6985302Y9484869D01*
X7019061Y9537606D01*
X7074285Y9567124D01*
X7136891Y9565894D01*
G37*
%TD.AperFunction*%
%TA.AperFunction,Conductor*%
G36*
X3163809Y7804697D02*
G01*
X3272669Y7723204D01*
X3407517Y7672909D01*
X3457537Y7667532D01*
X3511963Y7648141D01*
X3551697Y7606188D01*
X3568105Y7550785D01*
X3557626Y7493961D01*
X3522534Y7448056D01*
X3465471Y7401632D01*
X3465464Y7401626D01*
X3458892Y7396278D01*
X3454006Y7389357D01*
X3454001Y7389351D01*
X3373381Y7275138D01*
X3329125Y7236549D01*
X3272077Y7222647D01*
X3265000Y7222647D01*
X3260983Y7222119D01*
X3260980Y7222118D01*
X3142184Y7206478D01*
X3142180Y7206478D01*
X3134129Y7205417D01*
X3126621Y7202308D01*
X3121594Y7200960D01*
X3065309Y7199116D01*
X3014013Y7222358D01*
X2978287Y7265890D01*
X2965499Y7320734D01*
X2965499Y7705429D01*
X2984004Y7770596D01*
X3033995Y7816313D01*
X3100552Y7828935D01*
X3163809Y7804697D01*
G37*
%TD.AperFunction*%
%TA.AperFunction,Conductor*%
G36*
X13735378Y11236125D02*
G01*
X13752895Y11222684D01*
X13813464Y11176208D01*
X13950421Y11119478D01*
X14060492Y11104987D01*
X14259293Y11104988D01*
X14369365Y11119478D01*
X14376875Y11122590D01*
X14377797Y11122836D01*
X14441986Y11122837D01*
X14442909Y11122590D01*
X14450421Y11119478D01*
X14560492Y11104987D01*
X14585391Y11104988D01*
X14647389Y11088378D01*
X14692778Y11042992D01*
X14709393Y10980993D01*
X14709393Y10960144D01*
X14709393Y10960130D01*
X14709394Y10956087D01*
X14709922Y10952072D01*
X14709923Y10952065D01*
X14722822Y10854076D01*
X14722823Y10854073D01*
X14723884Y10846015D01*
X14726994Y10838506D01*
X14727243Y10837578D01*
X14727243Y10773399D01*
X14726992Y10772464D01*
X14723884Y10764959D01*
X14722823Y10756905D01*
X14722823Y10756902D01*
X14709923Y10658910D01*
X14709393Y10654888D01*
X14709393Y10650836D01*
X14709393Y10650835D01*
X14709393Y10460142D01*
X14709393Y10460128D01*
X14709394Y10456087D01*
X14709922Y10452072D01*
X14709923Y10452065D01*
X14722822Y10354076D01*
X14722823Y10354073D01*
X14723884Y10346015D01*
X14726994Y10338506D01*
X14727243Y10337578D01*
X14727243Y10273399D01*
X14726992Y10272464D01*
X14723884Y10264959D01*
X14722823Y10256905D01*
X14722823Y10256902D01*
X14709923Y10158910D01*
X14709393Y10154888D01*
X14709393Y10150836D01*
X14709393Y10150835D01*
X14709393Y9960142D01*
X14709393Y9960128D01*
X14709394Y9956087D01*
X14709922Y9952072D01*
X14709923Y9952065D01*
X14722822Y9854076D01*
X14722823Y9854070D01*
X14723884Y9846015D01*
X14726994Y9838507D01*
X14727243Y9837578D01*
X14727243Y9773399D01*
X14726992Y9772464D01*
X14723884Y9764959D01*
X14722823Y9756905D01*
X14722823Y9756902D01*
X14709923Y9658910D01*
X14709393Y9654888D01*
X14709393Y9650836D01*
X14709393Y9650835D01*
X14709393Y9460142D01*
X14709393Y9460128D01*
X14709394Y9456087D01*
X14709922Y9452072D01*
X14709923Y9452065D01*
X14722822Y9354076D01*
X14722823Y9354070D01*
X14723884Y9346015D01*
X14726994Y9338506D01*
X14727243Y9337578D01*
X14727243Y9273399D01*
X14726992Y9272464D01*
X14723884Y9264959D01*
X14722823Y9256905D01*
X14722823Y9256902D01*
X14709923Y9158910D01*
X14709393Y9154888D01*
X14709393Y9150836D01*
X14709393Y9150835D01*
X14709393Y8960142D01*
X14709393Y8960128D01*
X14709394Y8956087D01*
X14709922Y8952072D01*
X14709923Y8952065D01*
X14722822Y8854076D01*
X14722823Y8854070D01*
X14723884Y8846015D01*
X14726994Y8838507D01*
X14727243Y8837578D01*
X14727243Y8773399D01*
X14726992Y8772464D01*
X14723884Y8764959D01*
X14722823Y8756905D01*
X14722823Y8756902D01*
X14709923Y8658910D01*
X14709393Y8654888D01*
X14709393Y8650836D01*
X14709393Y8650835D01*
X14709393Y8460142D01*
X14709393Y8460128D01*
X14709394Y8456087D01*
X14709922Y8452072D01*
X14709923Y8452065D01*
X14722822Y8354076D01*
X14722823Y8354073D01*
X14723884Y8346015D01*
X14726994Y8338506D01*
X14727243Y8337578D01*
X14727243Y8273399D01*
X14726992Y8272464D01*
X14723884Y8264959D01*
X14722823Y8256905D01*
X14722823Y8256902D01*
X14709923Y8158910D01*
X14709393Y8154888D01*
X14709393Y8150835D01*
X14709393Y8129986D01*
X14692780Y8067986D01*
X14647393Y8022599D01*
X14585393Y8005987D01*
X14560493Y8005986D01*
X14556478Y8005458D01*
X14556470Y8005457D01*
X14458479Y7992557D01*
X14458477Y7992557D01*
X14450421Y7991496D01*
X14442915Y7988388D01*
X14441982Y7988137D01*
X14377803Y7988137D01*
X14376872Y7988387D01*
X14369365Y7991496D01*
X14361311Y7992557D01*
X14361305Y7992558D01*
X14263314Y8005458D01*
X14263310Y8005459D01*
X14259294Y8005987D01*
X14255240Y8005987D01*
X14064547Y8005987D01*
X14064532Y8005987D01*
X14060493Y8005986D01*
X14056478Y8005458D01*
X14056470Y8005457D01*
X13958479Y7992557D01*
X13958477Y7992557D01*
X13950421Y7991496D01*
X13942915Y7988388D01*
X13941982Y7988137D01*
X13877803Y7988137D01*
X13876872Y7988387D01*
X13869365Y7991496D01*
X13861311Y7992557D01*
X13861305Y7992558D01*
X13763314Y8005458D01*
X13763310Y8005459D01*
X13759294Y8005987D01*
X13755240Y8005987D01*
X13564547Y8005987D01*
X13564532Y8005987D01*
X13560493Y8005986D01*
X13556478Y8005458D01*
X13556470Y8005457D01*
X13458479Y7992557D01*
X13458477Y7992557D01*
X13450421Y7991496D01*
X13442915Y7988388D01*
X13441982Y7988137D01*
X13377803Y7988137D01*
X13376872Y7988387D01*
X13369365Y7991496D01*
X13361311Y7992557D01*
X13361305Y7992558D01*
X13263314Y8005458D01*
X13263310Y8005459D01*
X13259294Y8005987D01*
X13255240Y8005987D01*
X13064547Y8005987D01*
X13064532Y8005987D01*
X13060493Y8005986D01*
X13056478Y8005458D01*
X13056470Y8005457D01*
X12958479Y7992557D01*
X12958477Y7992557D01*
X12950421Y7991496D01*
X12942915Y7988388D01*
X12941982Y7988137D01*
X12877803Y7988137D01*
X12876872Y7988387D01*
X12869365Y7991496D01*
X12861311Y7992557D01*
X12861305Y7992558D01*
X12763314Y8005458D01*
X12763310Y8005459D01*
X12759294Y8005987D01*
X12755240Y8005987D01*
X12564547Y8005987D01*
X12564532Y8005987D01*
X12560493Y8005986D01*
X12556478Y8005458D01*
X12556470Y8005457D01*
X12458479Y7992557D01*
X12458477Y7992557D01*
X12450421Y7991496D01*
X12442915Y7988388D01*
X12441982Y7988137D01*
X12377803Y7988137D01*
X12376872Y7988387D01*
X12369365Y7991496D01*
X12361311Y7992557D01*
X12361305Y7992558D01*
X12263314Y8005458D01*
X12263310Y8005459D01*
X12259294Y8005987D01*
X12255240Y8005987D01*
X12064547Y8005987D01*
X12064532Y8005987D01*
X12060493Y8005986D01*
X12056478Y8005458D01*
X12056470Y8005457D01*
X11958479Y7992557D01*
X11958477Y7992557D01*
X11950421Y7991496D01*
X11942915Y7988388D01*
X11941982Y7988137D01*
X11877803Y7988137D01*
X11876872Y7988387D01*
X11869365Y7991496D01*
X11861311Y7992557D01*
X11861305Y7992558D01*
X11763314Y8005458D01*
X11763310Y8005459D01*
X11759294Y8005987D01*
X11755241Y8005987D01*
X11734392Y8005987D01*
X11672392Y8022600D01*
X11627005Y8067987D01*
X11610392Y8129987D01*
X11610392Y8150832D01*
X11610392Y8150835D01*
X11610392Y8154887D01*
X11595902Y8264959D01*
X11592789Y8272473D01*
X11592543Y8273393D01*
X11592544Y8337582D01*
X11592791Y8338507D01*
X11595902Y8346015D01*
X11610393Y8456086D01*
X11610392Y8654887D01*
X11595902Y8764959D01*
X11592791Y8772470D01*
X11592543Y8773395D01*
X11592544Y8837584D01*
X11592790Y8838503D01*
X11595902Y8846015D01*
X11610393Y8956086D01*
X11610392Y9154887D01*
X11595902Y9264959D01*
X11592790Y9272470D01*
X11592543Y9273395D01*
X11592544Y9337584D01*
X11592790Y9338504D01*
X11595902Y9346015D01*
X11610393Y9456086D01*
X11610392Y9654887D01*
X11595902Y9764959D01*
X11592790Y9772470D01*
X11592543Y9773395D01*
X11592544Y9837584D01*
X11592790Y9838504D01*
X11595902Y9846015D01*
X11610393Y9956086D01*
X11610392Y10154887D01*
X11595902Y10264959D01*
X11592789Y10272473D01*
X11592543Y10273393D01*
X11592544Y10337582D01*
X11592791Y10338507D01*
X11595902Y10346015D01*
X11610393Y10456086D01*
X11610392Y10654887D01*
X11595902Y10764959D01*
X11592789Y10772473D01*
X11592543Y10773393D01*
X11592544Y10837582D01*
X11592791Y10838507D01*
X11595902Y10846015D01*
X11610393Y10956086D01*
X11610392Y10980988D01*
X11627006Y11042988D01*
X11672393Y11088375D01*
X11734393Y11104988D01*
X11755238Y11104988D01*
X11759293Y11104988D01*
X11869365Y11119478D01*
X11876875Y11122590D01*
X11877797Y11122836D01*
X11941986Y11122837D01*
X11942909Y11122590D01*
X11950421Y11119478D01*
X12060492Y11104987D01*
X12259293Y11104988D01*
X12369365Y11119478D01*
X12376875Y11122590D01*
X12377797Y11122836D01*
X12441986Y11122837D01*
X12442909Y11122590D01*
X12450421Y11119478D01*
X12560492Y11104987D01*
X12759293Y11104988D01*
X12869365Y11119478D01*
X12876875Y11122590D01*
X12877797Y11122836D01*
X12941986Y11122837D01*
X12942909Y11122590D01*
X12950421Y11119478D01*
X13060492Y11104987D01*
X13259293Y11104988D01*
X13369365Y11119478D01*
X13506322Y11176208D01*
X13584407Y11236126D01*
X13633053Y11258810D01*
X13686730Y11258810D01*
X13735378Y11236125D01*
G37*
%TD.AperFunction*%
%TA.AperFunction,Conductor*%
G36*
X45022500Y18016887D02*
G01*
X45067887Y17971500D01*
X45084500Y17909500D01*
X45084500Y11187479D01*
X45066227Y11122689D01*
X45016795Y11076994D01*
X44950772Y11063861D01*
X44887615Y11087160D01*
X44845939Y11140025D01*
X44840429Y11153328D01*
X44819206Y11180986D01*
X44744175Y11278769D01*
X44719115Y11297998D01*
X44706927Y11308688D01*
X43820092Y12195523D01*
X43809396Y12207719D01*
X43795121Y12226323D01*
X43790175Y12232769D01*
X43664734Y12329023D01*
X43655468Y12332861D01*
X43526164Y12386421D01*
X43526161Y12386422D01*
X43518655Y12389531D01*
X43510601Y12390592D01*
X43510595Y12390593D01*
X43486046Y12393824D01*
X43369952Y12409108D01*
X43361893Y12410169D01*
X43353834Y12409108D01*
X43330591Y12406048D01*
X43314406Y12404987D01*
X43026325Y12404987D01*
X42970674Y12418176D01*
X42926862Y12454939D01*
X42904209Y12507453D01*
X42907534Y12564549D01*
X42936129Y12614079D01*
X42937655Y12615698D01*
X42947351Y12625974D01*
X43034546Y12777000D01*
X43084561Y12944064D01*
X43094701Y13118158D01*
X43064419Y13289899D01*
X42995346Y13450026D01*
X42987796Y13460167D01*
X42952639Y13507392D01*
X42891208Y13589909D01*
X42885681Y13594546D01*
X42885679Y13594549D01*
X42793235Y13672118D01*
X42757618Y13702004D01*
X42732446Y13714646D01*
X42608227Y13777031D01*
X42608224Y13777032D01*
X42601777Y13780270D01*
X42554411Y13791496D01*
X42439115Y13818822D01*
X42439111Y13818823D01*
X42432088Y13820487D01*
X42301438Y13820487D01*
X42297873Y13820071D01*
X42297867Y13820070D01*
X42178849Y13806159D01*
X42178846Y13806159D01*
X42171682Y13805321D01*
X42164903Y13802854D01*
X42164900Y13802853D01*
X42014594Y13748146D01*
X42014590Y13748145D01*
X42007809Y13745676D01*
X42001779Y13741711D01*
X42001773Y13741707D01*
X41868145Y13653818D01*
X41868139Y13653814D01*
X41862109Y13649847D01*
X41857156Y13644598D01*
X41857151Y13644593D01*
X41747392Y13528255D01*
X41747388Y13528251D01*
X41742435Y13523000D01*
X41738825Y13516750D01*
X41738823Y13516745D01*
X41658850Y13378228D01*
X41658847Y13378223D01*
X41655240Y13371974D01*
X41653170Y13365062D01*
X41653169Y13365058D01*
X41623716Y13266676D01*
X41605225Y13204910D01*
X41604805Y13197705D01*
X41604805Y13197703D01*
X41595504Y13038026D01*
X41595504Y13038018D01*
X41595085Y13030816D01*
X41596338Y13023705D01*
X41596339Y13023704D01*
X41624112Y12866187D01*
X41624114Y12866179D01*
X41625367Y12859075D01*
X41628224Y12852450D01*
X41628226Y12852446D01*
X41659018Y12781063D01*
X41668375Y12718031D01*
X41645194Y12658676D01*
X41595595Y12618670D01*
X41554790Y12600502D01*
X41515431Y12582978D01*
X41510177Y12579162D01*
X41510172Y12579158D01*
X41368654Y12476340D01*
X41368647Y12476335D01*
X41363395Y12472518D01*
X41359050Y12467694D01*
X41359045Y12467688D01*
X41264260Y12362417D01*
X41237648Y12332861D01*
X41234403Y12327241D01*
X41234399Y12327235D01*
X41146933Y12175739D01*
X41146930Y12175734D01*
X41143685Y12170112D01*
X41141679Y12163940D01*
X41141677Y12163934D01*
X41093828Y12016667D01*
X41085613Y11991384D01*
X41084934Y11984932D01*
X41084933Y11984923D01*
X41069443Y11837543D01*
X41065969Y11804487D01*
X41066648Y11798027D01*
X41084933Y11624052D01*
X41084934Y11624045D01*
X41085613Y11617590D01*
X41087618Y11611418D01*
X41087621Y11611406D01*
X41107261Y11550962D01*
X41110620Y11486863D01*
X41081480Y11429673D01*
X41027648Y11394714D01*
X40963549Y11391355D01*
X40795218Y11427135D01*
X40795215Y11427136D01*
X40788856Y11428487D01*
X40782353Y11428487D01*
X40701490Y11428487D01*
X40654037Y11437926D01*
X40613809Y11464806D01*
X40518092Y11560523D01*
X40507397Y11572718D01*
X40493121Y11591323D01*
X40488175Y11597769D01*
X40362734Y11694023D01*
X40355226Y11697133D01*
X40224164Y11751421D01*
X40224161Y11751422D01*
X40216655Y11754531D01*
X40208601Y11755592D01*
X40208595Y11755593D01*
X40206355Y11755887D01*
X40067952Y11774108D01*
X40059893Y11775169D01*
X40051834Y11774108D01*
X40028591Y11771048D01*
X40012406Y11769987D01*
X39643152Y11769987D01*
X39592717Y11780707D01*
X39551003Y11811014D01*
X39527116Y11837543D01*
X39527109Y11837549D01*
X39522764Y11842375D01*
X39517505Y11846196D01*
X39374881Y11949818D01*
X39374880Y11949819D01*
X39369623Y11953638D01*
X39313179Y11978769D01*
X39202638Y12027986D01*
X39202633Y12027988D01*
X39196696Y12030631D01*
X39190337Y12031983D01*
X39190333Y12031984D01*
X39017901Y12068635D01*
X39017898Y12068636D01*
X39011539Y12069987D01*
X38822247Y12069987D01*
X38815888Y12068636D01*
X38815884Y12068635D01*
X38643452Y12031984D01*
X38643445Y12031982D01*
X38637090Y12030631D01*
X38631155Y12027989D01*
X38631147Y12027986D01*
X38470100Y11956282D01*
X38470095Y11956280D01*
X38464163Y11953638D01*
X38458909Y11949822D01*
X38458904Y11949818D01*
X38316281Y11846197D01*
X38316274Y11846192D01*
X38311022Y11842375D01*
X38306677Y11837550D01*
X38306672Y11837545D01*
X38188706Y11706531D01*
X38188701Y11706525D01*
X38184360Y11701703D01*
X38181115Y11696083D01*
X38181111Y11696077D01*
X38092962Y11543398D01*
X38092959Y11543393D01*
X38089714Y11537771D01*
X38087708Y11531599D01*
X38087706Y11531593D01*
X38033226Y11363923D01*
X38033224Y11363914D01*
X38031219Y11357743D01*
X38030541Y11351293D01*
X38030539Y11351283D01*
X38014150Y11195339D01*
X38011433Y11169487D01*
X38012112Y11163027D01*
X38030539Y10987692D01*
X38030540Y10987684D01*
X38031219Y10981231D01*
X38033226Y10975055D01*
X38039361Y10956174D01*
X38043903Y10898458D01*
X38021748Y10844970D01*
X37977725Y10807370D01*
X37921430Y10793855D01*
X37873780Y10793855D01*
X37866757Y10792191D01*
X37866752Y10792190D01*
X37715778Y10756408D01*
X37715775Y10756408D01*
X37708754Y10754743D01*
X37702308Y10751507D01*
X37702303Y10751504D01*
X37563240Y10681664D01*
X37563235Y10681662D01*
X37557196Y10678628D01*
X37551954Y10674359D01*
X37551951Y10674356D01*
X37482203Y10617539D01*
X37482188Y10617527D01*
X37479758Y10615546D01*
X37477532Y10613321D01*
X37477522Y10613311D01*
X37060080Y10195867D01*
X37060070Y10195857D01*
X37057836Y10193622D01*
X37055841Y10191175D01*
X37055830Y10191161D01*
X36999026Y10121432D01*
X36999021Y10121425D01*
X36994752Y10116184D01*
X36991720Y10110148D01*
X36991711Y10110133D01*
X36922376Y9972074D01*
X36890432Y9932037D01*
X36845032Y9908326D01*
X36793922Y9904987D01*
X36773185Y9907968D01*
X36773183Y9907968D01*
X36764405Y9909230D01*
X36755627Y9907968D01*
X36630726Y9890012D01*
X36630719Y9890011D01*
X36621948Y9888749D01*
X36613883Y9885067D01*
X36613880Y9885065D01*
X36498088Y9832184D01*
X36498084Y9832182D01*
X36491032Y9828961D01*
X36484995Y9824097D01*
X36484990Y9824093D01*
X36446943Y9793432D01*
X36446938Y9793428D01*
X36444350Y9791342D01*
X36442005Y9788998D01*
X36441996Y9788989D01*
X36269147Y9616139D01*
X36228919Y9589259D01*
X36181466Y9579820D01*
X34061632Y9579820D01*
X34045447Y9580881D01*
X34022204Y9583941D01*
X34014145Y9585002D01*
X34006086Y9583941D01*
X34006084Y9583941D01*
X33975311Y9579890D01*
X33914688Y9587065D01*
X33864836Y9622298D01*
X33837837Y9677049D01*
X33840233Y9738047D01*
X33871444Y9790508D01*
X34174417Y10093480D01*
X34212037Y10140163D01*
X34271825Y10271079D01*
X34292306Y10413536D01*
X34281085Y10491582D01*
X34286169Y10548387D01*
X34316140Y10596907D01*
X36750049Y13030816D01*
X39565085Y13030816D01*
X39566338Y13023705D01*
X39566339Y13023704D01*
X39594112Y12866187D01*
X39594114Y12866179D01*
X39595367Y12859075D01*
X39598224Y12852450D01*
X39598226Y12852446D01*
X39661580Y12705577D01*
X39664440Y12698948D01*
X39668748Y12693161D01*
X39668750Y12693158D01*
X39722678Y12620720D01*
X39768578Y12559065D01*
X39774103Y12554429D01*
X39774106Y12554426D01*
X39808391Y12525658D01*
X39902168Y12446970D01*
X40058009Y12368704D01*
X40227698Y12328487D01*
X40354749Y12328487D01*
X40358348Y12328487D01*
X40488104Y12343653D01*
X40651977Y12403298D01*
X40797677Y12499127D01*
X40917351Y12625974D01*
X41004546Y12777000D01*
X41054561Y12944064D01*
X41064701Y13118158D01*
X41034419Y13289899D01*
X40965346Y13450026D01*
X40957796Y13460167D01*
X40922639Y13507392D01*
X40861208Y13589909D01*
X40855681Y13594546D01*
X40855679Y13594549D01*
X40763235Y13672118D01*
X40727618Y13702004D01*
X40702446Y13714646D01*
X40578227Y13777031D01*
X40578224Y13777032D01*
X40571777Y13780270D01*
X40524411Y13791496D01*
X40409115Y13818822D01*
X40409111Y13818823D01*
X40402088Y13820487D01*
X40271438Y13820487D01*
X40267873Y13820071D01*
X40267867Y13820070D01*
X40148849Y13806159D01*
X40148846Y13806159D01*
X40141682Y13805321D01*
X40134903Y13802854D01*
X40134900Y13802853D01*
X39984594Y13748146D01*
X39984590Y13748145D01*
X39977809Y13745676D01*
X39971779Y13741711D01*
X39971773Y13741707D01*
X39838145Y13653818D01*
X39838139Y13653814D01*
X39832109Y13649847D01*
X39827156Y13644598D01*
X39827151Y13644593D01*
X39717392Y13528255D01*
X39717388Y13528251D01*
X39712435Y13523000D01*
X39708825Y13516750D01*
X39708823Y13516745D01*
X39628850Y13378228D01*
X39628847Y13378223D01*
X39625240Y13371974D01*
X39623170Y13365062D01*
X39623169Y13365058D01*
X39593716Y13266676D01*
X39575225Y13204910D01*
X39574805Y13197705D01*
X39574805Y13197703D01*
X39565504Y13038026D01*
X39565504Y13038018D01*
X39565085Y13030816D01*
X36750049Y13030816D01*
X38959416Y15240183D01*
X38999644Y15267062D01*
X39047097Y15276501D01*
X40391561Y15276501D01*
X40394872Y15276501D01*
X40454483Y15282909D01*
X40589331Y15333204D01*
X40704546Y15419454D01*
X40790796Y15534669D01*
X40841091Y15669517D01*
X40847500Y15729127D01*
X40847499Y17524872D01*
X40841091Y17584483D01*
X40790796Y17719331D01*
X40704546Y17834546D01*
X40706701Y17836160D01*
X40685239Y17871182D01*
X40680697Y17928898D01*
X40702852Y17982385D01*
X40746875Y18019985D01*
X40803170Y18033500D01*
X44960500Y18033500D01*
X45022500Y18016887D01*
G37*
%TD.AperFunction*%
%TA.AperFunction,Conductor*%
G36*
X8642490Y11229041D02*
G01*
X8652796Y11222684D01*
X8813785Y11169338D01*
X8913148Y11159187D01*
X9324595Y11159188D01*
X9372048Y11149749D01*
X9412276Y11122869D01*
X9774397Y10760748D01*
X9804130Y10712940D01*
X9809054Y10663037D01*
X9810188Y10662962D01*
X9809922Y10658909D01*
X9809393Y10654888D01*
X9809393Y10650836D01*
X9809393Y10650835D01*
X9809393Y10460142D01*
X9809393Y10460128D01*
X9809394Y10456087D01*
X9809922Y10452072D01*
X9809923Y10452065D01*
X9822822Y10354076D01*
X9822823Y10354073D01*
X9823884Y10346015D01*
X9826994Y10338506D01*
X9827243Y10337578D01*
X9827243Y10273399D01*
X9826992Y10272463D01*
X9823884Y10264959D01*
X9822824Y10256909D01*
X9822823Y10256904D01*
X9817280Y10214800D01*
X9795915Y10159863D01*
X9751598Y10120998D01*
X9694341Y10106987D01*
X9434582Y10106987D01*
X9434556Y10106987D01*
X9432159Y10106986D01*
X9429745Y10106797D01*
X9429742Y10106796D01*
X9402310Y10104638D01*
X9402308Y10104638D01*
X9395995Y10104141D01*
X9389918Y10102376D01*
X9389910Y10102374D01*
X9248691Y10061345D01*
X9248688Y10061344D01*
X9241199Y10059168D01*
X9234487Y10055200D01*
X9234483Y10055197D01*
X9226306Y10050361D01*
X9172699Y10033460D01*
X9117137Y10041963D01*
X9071038Y10074123D01*
X9055730Y10091124D01*
X8965464Y10191375D01*
X8960206Y10195195D01*
X8960204Y10195197D01*
X8817581Y10298818D01*
X8817580Y10298819D01*
X8812323Y10302638D01*
X8806385Y10305282D01*
X8645338Y10376986D01*
X8645333Y10376988D01*
X8639396Y10379631D01*
X8612556Y10385336D01*
X8557810Y10396973D01*
X8507250Y10420550D01*
X8472141Y10463905D01*
X8459592Y10518260D01*
X8459592Y11056495D01*
X8454034Y11110903D01*
X8465982Y11177945D01*
X8511532Y11228568D01*
X8576945Y11247503D01*
X8642490Y11229041D01*
G37*
%TD.AperFunction*%
%TA.AperFunction,Conductor*%
G36*
X20504257Y15980024D02*
G01*
X20548575Y15941158D01*
X20675395Y15760039D01*
X20675401Y15760032D01*
X20678505Y15755599D01*
X20845599Y15588505D01*
X20850031Y15585402D01*
X20850033Y15585400D01*
X20938617Y15523373D01*
X21039170Y15452965D01*
X21044070Y15450680D01*
X21044072Y15450679D01*
X21072281Y15437525D01*
X21253337Y15353097D01*
X21481592Y15291937D01*
X21681668Y15274433D01*
X21743816Y15251171D01*
X21785071Y15199192D01*
X21793615Y15133384D01*
X21767001Y15072593D01*
X21759031Y15062810D01*
X21759023Y15062799D01*
X21754752Y15057555D01*
X21751714Y15051508D01*
X21751710Y15051500D01*
X21681879Y14912455D01*
X21681876Y14912449D01*
X21678637Y14905998D01*
X21676973Y14898979D01*
X21676971Y14898972D01*
X21641190Y14748000D01*
X21641189Y14747995D01*
X21639525Y14740972D01*
X21639525Y14571374D01*
X21641189Y14564351D01*
X21641190Y14564347D01*
X21671465Y14436610D01*
X21678637Y14406348D01*
X21681875Y14399901D01*
X21681876Y14399898D01*
X21708384Y14347117D01*
X21754752Y14254790D01*
X21759024Y14249546D01*
X21810588Y14186246D01*
X21817834Y14177352D01*
X22239758Y13755430D01*
X22242217Y13753427D01*
X22242219Y13753425D01*
X22311033Y13697366D01*
X22317196Y13692346D01*
X22468754Y13616231D01*
X22633780Y13577119D01*
X22796154Y13577119D01*
X22803378Y13577119D01*
X22833837Y13584338D01*
X22890450Y13597755D01*
X22945298Y13598287D01*
X22995009Y13575107D01*
X23029857Y13532749D01*
X23097911Y13397242D01*
X23097918Y13397232D01*
X23100952Y13391190D01*
X23164034Y13313752D01*
X23585958Y12891830D01*
X23588417Y12889827D01*
X23588419Y12889825D01*
X23646901Y12842183D01*
X23663396Y12828746D01*
X23814954Y12752631D01*
X23968183Y12716315D01*
X24012753Y12695770D01*
X24045863Y12659541D01*
X24062323Y12613304D01*
X24069461Y12563655D01*
X24064377Y12506850D01*
X24034405Y12458328D01*
X23985883Y12428355D01*
X23929078Y12423271D01*
X23825233Y12438200D01*
X23825232Y12438200D01*
X23816454Y12439462D01*
X23807676Y12438200D01*
X23682775Y12420244D01*
X23682768Y12420243D01*
X23673997Y12418981D01*
X23665932Y12415299D01*
X23665929Y12415297D01*
X23550139Y12362417D01*
X23550134Y12362415D01*
X23543081Y12359193D01*
X23537041Y12354327D01*
X23537038Y12354324D01*
X23498988Y12323662D01*
X23498978Y12323654D01*
X23496398Y12321574D01*
X23494054Y12319231D01*
X23494055Y12319231D01*
X23191490Y12016667D01*
X23141097Y11986088D01*
X23082277Y11982233D01*
X23028323Y12005973D01*
X22944781Y12070076D01*
X22938334Y12075023D01*
X22918984Y12083038D01*
X22799764Y12132421D01*
X22799761Y12132422D01*
X22792255Y12135531D01*
X22784201Y12136592D01*
X22784195Y12136593D01*
X22674854Y12150987D01*
X22643552Y12155108D01*
X22635493Y12156169D01*
X22627434Y12155108D01*
X22604191Y12152048D01*
X22588006Y12150987D01*
X22124180Y12150987D01*
X22107995Y12152048D01*
X22084752Y12155108D01*
X22076693Y12156169D01*
X22068634Y12155108D01*
X22037332Y12150987D01*
X21927990Y12136593D01*
X21927982Y12136591D01*
X21919931Y12135531D01*
X21912426Y12132423D01*
X21912421Y12132421D01*
X21781359Y12078133D01*
X21781355Y12078132D01*
X21773852Y12075023D01*
X21767407Y12070079D01*
X21767404Y12070076D01*
X21654856Y11983715D01*
X21654853Y11983713D01*
X21648411Y11978769D01*
X21643466Y11972326D01*
X21643463Y11972322D01*
X21629183Y11953713D01*
X21618491Y11941522D01*
X20904073Y11227104D01*
X20849690Y11195339D01*
X20786716Y11194388D01*
X20731398Y11224496D01*
X20698006Y11277896D01*
X20697734Y11278769D01*
X20658371Y11405093D01*
X20570365Y11550672D01*
X20468231Y11652806D01*
X20436137Y11708393D01*
X20436137Y11772581D01*
X20468231Y11828168D01*
X20486260Y11846197D01*
X20570365Y11930302D01*
X20658371Y12075881D01*
X20708979Y12238291D01*
X20715393Y12308871D01*
X20715393Y12822103D01*
X20708979Y12892683D01*
X20704833Y12905987D01*
X20690484Y12952036D01*
X20658371Y13055093D01*
X20570365Y13200672D01*
X20450078Y13320959D01*
X20378312Y13364343D01*
X20310914Y13405087D01*
X20310913Y13405088D01*
X20304499Y13408965D01*
X20269654Y13419823D01*
X20148350Y13457623D01*
X20148341Y13457625D01*
X20142089Y13459573D01*
X20135555Y13460167D01*
X20135554Y13460167D01*
X20074318Y13465732D01*
X20074312Y13465733D01*
X20071509Y13465987D01*
X19408277Y13465987D01*
X19405474Y13465733D01*
X19405467Y13465732D01*
X19344231Y13460167D01*
X19344228Y13460167D01*
X19337697Y13459573D01*
X19331446Y13457626D01*
X19331435Y13457623D01*
X19182443Y13411195D01*
X19175287Y13408965D01*
X19168877Y13405091D01*
X19168870Y13405087D01*
X19113747Y13371763D01*
X19056784Y13354088D01*
X18998159Y13365052D01*
X18951434Y13402117D01*
X18927418Y13456709D01*
X18931665Y13516196D01*
X18974567Y13648231D01*
X18994353Y13836487D01*
X18974567Y14024743D01*
X18916072Y14204771D01*
X18821426Y14368703D01*
X18754637Y14442879D01*
X18699113Y14504545D01*
X18699112Y14504546D01*
X18694764Y14509375D01*
X18689506Y14513195D01*
X18689504Y14513197D01*
X18546881Y14616818D01*
X18546880Y14616819D01*
X18541623Y14620638D01*
X18535685Y14623282D01*
X18374638Y14694986D01*
X18374633Y14694988D01*
X18368696Y14697631D01*
X18362337Y14698983D01*
X18362333Y14698984D01*
X18189901Y14735635D01*
X18189898Y14735636D01*
X18183539Y14736987D01*
X17994247Y14736987D01*
X17987888Y14735636D01*
X17987884Y14735635D01*
X17815452Y14698984D01*
X17815445Y14698982D01*
X17809090Y14697631D01*
X17723681Y14659604D01*
X17702827Y14650319D01*
X17642663Y14639981D01*
X17584857Y14659604D01*
X17543419Y14704431D01*
X17528392Y14763599D01*
X17528392Y14766682D01*
X17528392Y14769831D01*
X17518242Y14869195D01*
X17464896Y15030184D01*
X17375861Y15174531D01*
X17290925Y15259467D01*
X17261186Y15307291D01*
X17255667Y15363336D01*
X17275506Y15416042D01*
X17314870Y15452908D01*
X17314830Y15452965D01*
X17314829Y15452965D01*
X17508401Y15588505D01*
X17675495Y15755599D01*
X17680836Y15763226D01*
X17805425Y15941158D01*
X17849743Y15980024D01*
X17907000Y15994035D01*
X17964257Y15980024D01*
X18008575Y15941158D01*
X18135395Y15760039D01*
X18135401Y15760032D01*
X18138505Y15755599D01*
X18305599Y15588505D01*
X18310031Y15585402D01*
X18310033Y15585400D01*
X18398617Y15523373D01*
X18499170Y15452965D01*
X18504070Y15450680D01*
X18504072Y15450679D01*
X18532281Y15437525D01*
X18713337Y15353097D01*
X18941592Y15291937D01*
X19177000Y15271341D01*
X19412408Y15291937D01*
X19640663Y15353097D01*
X19854830Y15452965D01*
X20048401Y15588505D01*
X20215495Y15755599D01*
X20220836Y15763226D01*
X20345425Y15941158D01*
X20389743Y15980024D01*
X20447000Y15994035D01*
X20504257Y15980024D01*
G37*
%TD.AperFunction*%
%TA.AperFunction,Conductor*%
G36*
X6743262Y11600942D02*
G01*
X6697801Y11584045D01*
X6649336Y11585879D01*
X6605281Y11606163D01*
X6507112Y11677487D01*
X6867361Y11677487D01*
X6743262Y11600942D01*
G37*
%TD.AperFunction*%
%TA.AperFunction,Conductor*%
G36*
X8173993Y14590974D02*
G01*
X8219380Y14545587D01*
X8235993Y14483587D01*
X8235993Y13896893D01*
X8235993Y13896874D01*
X8235994Y13893743D01*
X8236313Y13890611D01*
X8236314Y13890610D01*
X8245455Y13801115D01*
X8245456Y13801107D01*
X8246144Y13794379D01*
X8248272Y13787956D01*
X8248273Y13787953D01*
X8296618Y13642055D01*
X8299490Y13633390D01*
X8303279Y13627246D01*
X8303282Y13627241D01*
X8327492Y13587990D01*
X8345072Y13537648D01*
X8339884Y13484577D01*
X8302827Y13370526D01*
X8302825Y13370518D01*
X8300819Y13364343D01*
X8300141Y13357893D01*
X8300139Y13357883D01*
X8292247Y13282788D01*
X8281033Y13176087D01*
X8281712Y13169627D01*
X8300139Y12994292D01*
X8300140Y12994284D01*
X8300819Y12987831D01*
X8302824Y12981659D01*
X8302826Y12981652D01*
X8345290Y12850963D01*
X8350478Y12797892D01*
X8332898Y12747549D01*
X8303282Y12699534D01*
X8303279Y12699527D01*
X8299490Y12693384D01*
X8297220Y12686537D01*
X8297218Y12686530D01*
X8248319Y12538960D01*
X8246144Y12532395D01*
X8245456Y12525665D01*
X8245455Y12525658D01*
X8236312Y12436164D01*
X8236311Y12436146D01*
X8235993Y12433032D01*
X8235993Y12429885D01*
X8235993Y12429884D01*
X8235993Y11839493D01*
X8235993Y11839474D01*
X8235994Y11836343D01*
X8236313Y11833211D01*
X8236314Y11833210D01*
X8240212Y11795051D01*
X8228265Y11728010D01*
X8182717Y11677388D01*
X8117307Y11658451D01*
X8051759Y11676910D01*
X8050824Y11677487D01*
X8055893Y11677487D01*
X8055893Y14607587D01*
X8111993Y14607587D01*
X8173993Y14590974D01*
G37*
%TD.AperFunction*%
%TA.AperFunction,Conductor*%
G36*
X5504375Y11673700D02*
G01*
X5485338Y11677487D01*
X5514640Y11677487D01*
X5504375Y11673700D01*
G37*
%TD.AperFunction*%
%TA.AperFunction,Conductor*%
G36*
X5264257Y15980024D02*
G01*
X5308575Y15941158D01*
X5435395Y15760039D01*
X5435401Y15760032D01*
X5438505Y15755599D01*
X5442336Y15751768D01*
X5492480Y15701624D01*
X5525728Y15641370D01*
X5521728Y15572667D01*
X5481712Y15516678D01*
X5479394Y15514846D01*
X5473249Y15511055D01*
X5468143Y15505950D01*
X5468139Y15505946D01*
X5358435Y15396242D01*
X5358431Y15396238D01*
X5353325Y15391131D01*
X5349534Y15384986D01*
X5349530Y15384980D01*
X5268082Y15252933D01*
X5268079Y15252928D01*
X5264290Y15246784D01*
X5262019Y15239933D01*
X5262018Y15239929D01*
X5216847Y15103610D01*
X5210944Y15085795D01*
X5210256Y15079065D01*
X5210255Y15079058D01*
X5201112Y14989564D01*
X5201111Y14989546D01*
X5200793Y14986432D01*
X5200793Y14983285D01*
X5200793Y14983284D01*
X5200793Y14442893D01*
X5200794Y14442879D01*
X5200794Y14439743D01*
X5201113Y14436611D01*
X5201114Y14436610D01*
X5210255Y14347115D01*
X5210256Y14347107D01*
X5210944Y14340379D01*
X5213072Y14333956D01*
X5213073Y14333953D01*
X5257927Y14198593D01*
X5264290Y14179390D01*
X5268081Y14173244D01*
X5268082Y14173242D01*
X5309131Y14106691D01*
X5353325Y14035043D01*
X5473249Y13915119D01*
X5617596Y13826084D01*
X5778585Y13772738D01*
X5877948Y13762587D01*
X6474637Y13762588D01*
X6574001Y13772738D01*
X6734990Y13826084D01*
X6879337Y13915119D01*
X6999261Y14035043D01*
X7088296Y14179390D01*
X7141642Y14340379D01*
X7151793Y14439742D01*
X7151792Y14444770D01*
X7151921Y14445418D01*
X7151954Y14446052D01*
X7152046Y14446048D01*
X7161227Y14492233D01*
X7166893Y14500714D01*
X7166893Y13607887D01*
X5388893Y13607887D01*
X5388893Y11732621D01*
X5370647Y11797318D01*
X5370647Y13162947D01*
X5370647Y13167000D01*
X5353417Y13297871D01*
X5302903Y13419823D01*
X5222546Y13524546D01*
X5216103Y13529490D01*
X5216100Y13529493D01*
X5124273Y13599955D01*
X5124270Y13599957D01*
X5117824Y13604903D01*
X5063895Y13627241D01*
X5003385Y13652305D01*
X5003382Y13652306D01*
X4995871Y13655417D01*
X4987811Y13656479D01*
X4987808Y13656479D01*
X4869019Y13672118D01*
X4869017Y13672119D01*
X4865000Y13672647D01*
X3530442Y13672647D01*
X3467663Y13689714D01*
X3422165Y13736215D01*
X3406472Y13799352D01*
X3424902Y13861742D01*
X3469842Y13934600D01*
X3522729Y14094202D01*
X3532793Y14192713D01*
X3532793Y14801061D01*
X3522729Y14899572D01*
X3469842Y15059174D01*
X3415817Y15146761D01*
X3397710Y15202488D01*
X3407213Y15260308D01*
X3442204Y15307309D01*
X3494870Y15332995D01*
X3553446Y15331633D01*
X3701592Y15291937D01*
X3937000Y15271341D01*
X4172408Y15291937D01*
X4400663Y15353097D01*
X4614830Y15452965D01*
X4808401Y15588505D01*
X4975495Y15755599D01*
X4980836Y15763226D01*
X5105425Y15941158D01*
X5149743Y15980024D01*
X5207000Y15994035D01*
X5264257Y15980024D01*
G37*
%TD.AperFunction*%
%TA.AperFunction,Conductor*%
G36*
X11745000Y16860387D02*
G01*
X11790387Y16815000D01*
X11807000Y16753000D01*
X11807000Y15310631D01*
X11809983Y15297835D01*
X11814773Y15291999D01*
X11848174Y15265713D01*
X11872418Y15211622D01*
X11868783Y15152458D01*
X11838102Y15101741D01*
X11702479Y14966118D01*
X11646892Y14934024D01*
X11582704Y14934024D01*
X11527117Y14966118D01*
X11332207Y15161028D01*
X11300654Y15214661D01*
X11299127Y15276867D01*
X11307000Y15310631D01*
X11307000Y16753000D01*
X11323613Y16815000D01*
X11369000Y16860387D01*
X11431000Y16877000D01*
X11683000Y16877000D01*
X11745000Y16860387D01*
G37*
%TD.AperFunction*%
%TD*%
M02*
