%TF.GenerationSoftware,KiCad,Pcbnew,7.0.5-0*%
%TF.CreationDate,2023-06-02T14:28:35-04:00*%
%TF.ProjectId,mini_arduino_clone,6d696e69-5f61-4726-9475-696e6f5f636c,A*%
%TF.SameCoordinates,Original*%
%TF.FileFunction,Other,Comment*%
%FSLAX46Y46*%
G04 Gerber Fmt 4.6, Leading zero omitted, Abs format (unit mm)*
G04 Created by KiCad (PCBNEW 7.0.5-0) date 2023-06-02 14:28:35*
%MOMM*%
%LPD*%
G01*
G04 APERTURE LIST*
%ADD10C,0.150000*%
%ADD11C,0.080000*%
%ADD12C,0.050000*%
G04 APERTURE END LIST*
D10*
X18399643Y21974334D02*
X18399643Y21307667D01*
X18161548Y22355286D02*
X17923453Y21641001D01*
X17923453Y21641001D02*
X18542500Y21641001D01*
X19399643Y22307667D02*
X18923453Y22307667D01*
X18923453Y22307667D02*
X18875834Y21831477D01*
X18875834Y21831477D02*
X18923453Y21879096D01*
X18923453Y21879096D02*
X19018691Y21926715D01*
X19018691Y21926715D02*
X19256786Y21926715D01*
X19256786Y21926715D02*
X19352024Y21879096D01*
X19352024Y21879096D02*
X19399643Y21831477D01*
X19399643Y21831477D02*
X19447262Y21736239D01*
X19447262Y21736239D02*
X19447262Y21498144D01*
X19447262Y21498144D02*
X19399643Y21402906D01*
X19399643Y21402906D02*
X19352024Y21355286D01*
X19352024Y21355286D02*
X19256786Y21307667D01*
X19256786Y21307667D02*
X19018691Y21307667D01*
X19018691Y21307667D02*
X18923453Y21355286D01*
X18923453Y21355286D02*
X18875834Y21402906D01*
X19875834Y21402906D02*
X19923453Y21355286D01*
X19923453Y21355286D02*
X19875834Y21307667D01*
X19875834Y21307667D02*
X19828215Y21355286D01*
X19828215Y21355286D02*
X19875834Y21402906D01*
X19875834Y21402906D02*
X19875834Y21307667D01*
X20542500Y22307667D02*
X20637738Y22307667D01*
X20637738Y22307667D02*
X20732976Y22260048D01*
X20732976Y22260048D02*
X20780595Y22212429D01*
X20780595Y22212429D02*
X20828214Y22117191D01*
X20828214Y22117191D02*
X20875833Y21926715D01*
X20875833Y21926715D02*
X20875833Y21688620D01*
X20875833Y21688620D02*
X20828214Y21498144D01*
X20828214Y21498144D02*
X20780595Y21402906D01*
X20780595Y21402906D02*
X20732976Y21355286D01*
X20732976Y21355286D02*
X20637738Y21307667D01*
X20637738Y21307667D02*
X20542500Y21307667D01*
X20542500Y21307667D02*
X20447262Y21355286D01*
X20447262Y21355286D02*
X20399643Y21402906D01*
X20399643Y21402906D02*
X20352024Y21498144D01*
X20352024Y21498144D02*
X20304405Y21688620D01*
X20304405Y21688620D02*
X20304405Y21926715D01*
X20304405Y21926715D02*
X20352024Y22117191D01*
X20352024Y22117191D02*
X20399643Y22212429D01*
X20399643Y22212429D02*
X20447262Y22260048D01*
X20447262Y22260048D02*
X20542500Y22307667D01*
X21447262Y21879096D02*
X21352024Y21926715D01*
X21352024Y21926715D02*
X21304405Y21974334D01*
X21304405Y21974334D02*
X21256786Y22069572D01*
X21256786Y22069572D02*
X21256786Y22117191D01*
X21256786Y22117191D02*
X21304405Y22212429D01*
X21304405Y22212429D02*
X21352024Y22260048D01*
X21352024Y22260048D02*
X21447262Y22307667D01*
X21447262Y22307667D02*
X21637738Y22307667D01*
X21637738Y22307667D02*
X21732976Y22260048D01*
X21732976Y22260048D02*
X21780595Y22212429D01*
X21780595Y22212429D02*
X21828214Y22117191D01*
X21828214Y22117191D02*
X21828214Y22069572D01*
X21828214Y22069572D02*
X21780595Y21974334D01*
X21780595Y21974334D02*
X21732976Y21926715D01*
X21732976Y21926715D02*
X21637738Y21879096D01*
X21637738Y21879096D02*
X21447262Y21879096D01*
X21447262Y21879096D02*
X21352024Y21831477D01*
X21352024Y21831477D02*
X21304405Y21783858D01*
X21304405Y21783858D02*
X21256786Y21688620D01*
X21256786Y21688620D02*
X21256786Y21498144D01*
X21256786Y21498144D02*
X21304405Y21402906D01*
X21304405Y21402906D02*
X21352024Y21355286D01*
X21352024Y21355286D02*
X21447262Y21307667D01*
X21447262Y21307667D02*
X21637738Y21307667D01*
X21637738Y21307667D02*
X21732976Y21355286D01*
X21732976Y21355286D02*
X21780595Y21402906D01*
X21780595Y21402906D02*
X21828214Y21498144D01*
X21828214Y21498144D02*
X21828214Y21688620D01*
X21828214Y21688620D02*
X21780595Y21783858D01*
X21780595Y21783858D02*
X21732976Y21831477D01*
X21732976Y21831477D02*
X21637738Y21879096D01*
X22732976Y22307667D02*
X22256786Y22307667D01*
X22256786Y22307667D02*
X22209167Y21831477D01*
X22209167Y21831477D02*
X22256786Y21879096D01*
X22256786Y21879096D02*
X22352024Y21926715D01*
X22352024Y21926715D02*
X22590119Y21926715D01*
X22590119Y21926715D02*
X22685357Y21879096D01*
X22685357Y21879096D02*
X22732976Y21831477D01*
X22732976Y21831477D02*
X22780595Y21736239D01*
X22780595Y21736239D02*
X22780595Y21498144D01*
X22780595Y21498144D02*
X22732976Y21402906D01*
X22732976Y21402906D02*
X22685357Y21355286D01*
X22685357Y21355286D02*
X22590119Y21307667D01*
X22590119Y21307667D02*
X22352024Y21307667D01*
X22352024Y21307667D02*
X22256786Y21355286D01*
X22256786Y21355286D02*
X22209167Y21402906D01*
X23399643Y22307667D02*
X23494881Y22307667D01*
X23494881Y22307667D02*
X23590119Y22260048D01*
X23590119Y22260048D02*
X23637738Y22212429D01*
X23637738Y22212429D02*
X23685357Y22117191D01*
X23685357Y22117191D02*
X23732976Y21926715D01*
X23732976Y21926715D02*
X23732976Y21688620D01*
X23732976Y21688620D02*
X23685357Y21498144D01*
X23685357Y21498144D02*
X23637738Y21402906D01*
X23637738Y21402906D02*
X23590119Y21355286D01*
X23590119Y21355286D02*
X23494881Y21307667D01*
X23494881Y21307667D02*
X23399643Y21307667D01*
X23399643Y21307667D02*
X23304405Y21355286D01*
X23304405Y21355286D02*
X23256786Y21402906D01*
X23256786Y21402906D02*
X23209167Y21498144D01*
X23209167Y21498144D02*
X23161548Y21688620D01*
X23161548Y21688620D02*
X23161548Y21926715D01*
X23161548Y21926715D02*
X23209167Y22117191D01*
X23209167Y22117191D02*
X23256786Y22212429D01*
X23256786Y22212429D02*
X23304405Y22260048D01*
X23304405Y22260048D02*
X23399643Y22307667D01*
X24923453Y21307667D02*
X24923453Y21974334D01*
X24923453Y21879096D02*
X24971072Y21926715D01*
X24971072Y21926715D02*
X25066310Y21974334D01*
X25066310Y21974334D02*
X25209167Y21974334D01*
X25209167Y21974334D02*
X25304405Y21926715D01*
X25304405Y21926715D02*
X25352024Y21831477D01*
X25352024Y21831477D02*
X25352024Y21307667D01*
X25352024Y21831477D02*
X25399643Y21926715D01*
X25399643Y21926715D02*
X25494881Y21974334D01*
X25494881Y21974334D02*
X25637738Y21974334D01*
X25637738Y21974334D02*
X25732977Y21926715D01*
X25732977Y21926715D02*
X25780596Y21831477D01*
X25780596Y21831477D02*
X25780596Y21307667D01*
X26256786Y21307667D02*
X26256786Y21974334D01*
X26256786Y21879096D02*
X26304405Y21926715D01*
X26304405Y21926715D02*
X26399643Y21974334D01*
X26399643Y21974334D02*
X26542500Y21974334D01*
X26542500Y21974334D02*
X26637738Y21926715D01*
X26637738Y21926715D02*
X26685357Y21831477D01*
X26685357Y21831477D02*
X26685357Y21307667D01*
X26685357Y21831477D02*
X26732976Y21926715D01*
X26732976Y21926715D02*
X26828214Y21974334D01*
X26828214Y21974334D02*
X26971071Y21974334D01*
X26971071Y21974334D02*
X27066310Y21926715D01*
X27066310Y21926715D02*
X27113929Y21831477D01*
X27113929Y21831477D02*
X27113929Y21307667D01*
X45085000Y18534000D02*
X45085000Y21198906D01*
X0Y18534000D02*
X0Y21198906D01*
X45085000Y20612486D02*
X0Y20612486D01*
X45085000Y20612486D02*
X0Y20612486D01*
X45085000Y20612486D02*
X43958496Y20026065D01*
X45085000Y20612486D02*
X43958496Y21198907D01*
X0Y20612486D02*
X1126504Y21198907D01*
X0Y20612486D02*
X1126504Y20026065D01*
D11*
%TO.C,J102*%
X41557042Y9494868D02*
X41057042Y9494868D01*
X41557042Y9780582D02*
X41271328Y9566297D01*
X41057042Y9780582D02*
X41342756Y9494868D01*
X41295137Y9994868D02*
X41295137Y10161535D01*
X41557042Y10232963D02*
X41557042Y9994868D01*
X41557042Y9994868D02*
X41057042Y9994868D01*
X41057042Y9994868D02*
X41057042Y10232963D01*
X41295137Y10447249D02*
X41295137Y10613916D01*
X41557042Y10685344D02*
X41557042Y10447249D01*
X41557042Y10447249D02*
X41057042Y10447249D01*
X41057042Y10447249D02*
X41057042Y10685344D01*
X41557042Y10899630D02*
X41057042Y10899630D01*
X41057042Y10899630D02*
X41057042Y11090106D01*
X41057042Y11090106D02*
X41080852Y11137725D01*
X41080852Y11137725D02*
X41104661Y11161535D01*
X41104661Y11161535D02*
X41152280Y11185344D01*
X41152280Y11185344D02*
X41223709Y11185344D01*
X41223709Y11185344D02*
X41271328Y11161535D01*
X41271328Y11161535D02*
X41295137Y11137725D01*
X41295137Y11137725D02*
X41318947Y11090106D01*
X41318947Y11090106D02*
X41318947Y10899630D01*
X41057042Y11494868D02*
X41057042Y11590106D01*
X41057042Y11590106D02*
X41080852Y11637725D01*
X41080852Y11637725D02*
X41128471Y11685344D01*
X41128471Y11685344D02*
X41223709Y11709154D01*
X41223709Y11709154D02*
X41390375Y11709154D01*
X41390375Y11709154D02*
X41485613Y11685344D01*
X41485613Y11685344D02*
X41533233Y11637725D01*
X41533233Y11637725D02*
X41557042Y11590106D01*
X41557042Y11590106D02*
X41557042Y11494868D01*
X41557042Y11494868D02*
X41533233Y11447249D01*
X41533233Y11447249D02*
X41485613Y11399630D01*
X41485613Y11399630D02*
X41390375Y11375821D01*
X41390375Y11375821D02*
X41223709Y11375821D01*
X41223709Y11375821D02*
X41128471Y11399630D01*
X41128471Y11399630D02*
X41080852Y11447249D01*
X41080852Y11447249D02*
X41057042Y11494868D01*
X41057042Y11923440D02*
X41461804Y11923440D01*
X41461804Y11923440D02*
X41509423Y11947250D01*
X41509423Y11947250D02*
X41533233Y11971059D01*
X41533233Y11971059D02*
X41557042Y12018678D01*
X41557042Y12018678D02*
X41557042Y12113916D01*
X41557042Y12113916D02*
X41533233Y12161535D01*
X41533233Y12161535D02*
X41509423Y12185345D01*
X41509423Y12185345D02*
X41461804Y12209154D01*
X41461804Y12209154D02*
X41057042Y12209154D01*
X41057042Y12375822D02*
X41057042Y12661536D01*
X41557042Y12518679D02*
X41057042Y12518679D01*
D12*
X42101078Y15028915D02*
X41901078Y15028915D01*
X41801078Y15028915D02*
X41815364Y15014629D01*
X41815364Y15014629D02*
X41829650Y15028915D01*
X41829650Y15028915D02*
X41815364Y15043201D01*
X41815364Y15043201D02*
X41801078Y15028915D01*
X41801078Y15028915D02*
X41829650Y15028915D01*
X41901078Y15171772D02*
X42101078Y15171772D01*
X41929650Y15171772D02*
X41915364Y15186058D01*
X41915364Y15186058D02*
X41901078Y15214629D01*
X41901078Y15214629D02*
X41901078Y15257486D01*
X41901078Y15257486D02*
X41915364Y15286058D01*
X41915364Y15286058D02*
X41943935Y15300343D01*
X41943935Y15300343D02*
X42101078Y15300343D01*
X42101078Y15671772D02*
X41801078Y15671772D01*
X41986793Y15700343D02*
X42101078Y15786058D01*
X41901078Y15786058D02*
X42015364Y15671772D01*
X42086793Y16028915D02*
X42101078Y16000343D01*
X42101078Y16000343D02*
X42101078Y15943200D01*
X42101078Y15943200D02*
X42086793Y15914629D01*
X42086793Y15914629D02*
X42058221Y15900343D01*
X42058221Y15900343D02*
X41943935Y15900343D01*
X41943935Y15900343D02*
X41915364Y15914629D01*
X41915364Y15914629D02*
X41901078Y15943200D01*
X41901078Y15943200D02*
X41901078Y16000343D01*
X41901078Y16000343D02*
X41915364Y16028915D01*
X41915364Y16028915D02*
X41943935Y16043200D01*
X41943935Y16043200D02*
X41972507Y16043200D01*
X41972507Y16043200D02*
X42001078Y15900343D01*
X42086793Y16286058D02*
X42101078Y16257486D01*
X42101078Y16257486D02*
X42101078Y16200343D01*
X42101078Y16200343D02*
X42086793Y16171772D01*
X42086793Y16171772D02*
X42058221Y16157486D01*
X42058221Y16157486D02*
X41943935Y16157486D01*
X41943935Y16157486D02*
X41915364Y16171772D01*
X41915364Y16171772D02*
X41901078Y16200343D01*
X41901078Y16200343D02*
X41901078Y16257486D01*
X41901078Y16257486D02*
X41915364Y16286058D01*
X41915364Y16286058D02*
X41943935Y16300343D01*
X41943935Y16300343D02*
X41972507Y16300343D01*
X41972507Y16300343D02*
X42001078Y16157486D01*
X41901078Y16428915D02*
X42201078Y16428915D01*
X41915364Y16428915D02*
X41901078Y16457486D01*
X41901078Y16457486D02*
X41901078Y16514629D01*
X41901078Y16514629D02*
X41915364Y16543201D01*
X41915364Y16543201D02*
X41929650Y16557486D01*
X41929650Y16557486D02*
X41958221Y16571772D01*
X41958221Y16571772D02*
X42043935Y16571772D01*
X42043935Y16571772D02*
X42072507Y16557486D01*
X42072507Y16557486D02*
X42086793Y16543201D01*
X42086793Y16543201D02*
X42101078Y16514629D01*
X42101078Y16514629D02*
X42101078Y16457486D01*
X42101078Y16457486D02*
X42086793Y16428915D01*
X42101078Y16743201D02*
X42086793Y16714630D01*
X42086793Y16714630D02*
X42072507Y16700344D01*
X42072507Y16700344D02*
X42043935Y16686058D01*
X42043935Y16686058D02*
X41958221Y16686058D01*
X41958221Y16686058D02*
X41929650Y16700344D01*
X41929650Y16700344D02*
X41915364Y16714630D01*
X41915364Y16714630D02*
X41901078Y16743201D01*
X41901078Y16743201D02*
X41901078Y16786058D01*
X41901078Y16786058D02*
X41915364Y16814630D01*
X41915364Y16814630D02*
X41929650Y16828915D01*
X41929650Y16828915D02*
X41958221Y16843201D01*
X41958221Y16843201D02*
X42043935Y16843201D01*
X42043935Y16843201D02*
X42072507Y16828915D01*
X42072507Y16828915D02*
X42086793Y16814630D01*
X42086793Y16814630D02*
X42101078Y16786058D01*
X42101078Y16786058D02*
X42101078Y16743201D01*
X41901078Y17100344D02*
X42101078Y17100344D01*
X41901078Y16971773D02*
X42058221Y16971773D01*
X42058221Y16971773D02*
X42086793Y16986059D01*
X42086793Y16986059D02*
X42101078Y17014630D01*
X42101078Y17014630D02*
X42101078Y17057487D01*
X42101078Y17057487D02*
X42086793Y17086059D01*
X42086793Y17086059D02*
X42072507Y17100344D01*
X41901078Y17200345D02*
X41901078Y17314631D01*
X41801078Y17243202D02*
X42058221Y17243202D01*
X42058221Y17243202D02*
X42086793Y17257488D01*
X42086793Y17257488D02*
X42101078Y17286059D01*
X42101078Y17286059D02*
X42101078Y17314631D01*
X42101078Y17771773D02*
X41943935Y17771773D01*
X41943935Y17771773D02*
X41915364Y17757488D01*
X41915364Y17757488D02*
X41901078Y17728916D01*
X41901078Y17728916D02*
X41901078Y17671773D01*
X41901078Y17671773D02*
X41915364Y17643202D01*
X42086793Y17771773D02*
X42101078Y17743202D01*
X42101078Y17743202D02*
X42101078Y17671773D01*
X42101078Y17671773D02*
X42086793Y17643202D01*
X42086793Y17643202D02*
X42058221Y17628916D01*
X42058221Y17628916D02*
X42029650Y17628916D01*
X42029650Y17628916D02*
X42001078Y17643202D01*
X42001078Y17643202D02*
X41986793Y17671773D01*
X41986793Y17671773D02*
X41986793Y17743202D01*
X41986793Y17743202D02*
X41972507Y17771773D01*
X42101078Y17914631D02*
X41901078Y17914631D01*
X41958221Y17914631D02*
X41929650Y17928917D01*
X41929650Y17928917D02*
X41915364Y17943202D01*
X41915364Y17943202D02*
X41901078Y17971774D01*
X41901078Y17971774D02*
X41901078Y18000345D01*
X42086793Y18214631D02*
X42101078Y18186059D01*
X42101078Y18186059D02*
X42101078Y18128916D01*
X42101078Y18128916D02*
X42086793Y18100345D01*
X42086793Y18100345D02*
X42058221Y18086059D01*
X42058221Y18086059D02*
X41943935Y18086059D01*
X41943935Y18086059D02*
X41915364Y18100345D01*
X41915364Y18100345D02*
X41901078Y18128916D01*
X41901078Y18128916D02*
X41901078Y18186059D01*
X41901078Y18186059D02*
X41915364Y18214631D01*
X41915364Y18214631D02*
X41943935Y18228916D01*
X41943935Y18228916D02*
X41972507Y18228916D01*
X41972507Y18228916D02*
X42001078Y18086059D01*
X42101078Y18486059D02*
X41943935Y18486059D01*
X41943935Y18486059D02*
X41915364Y18471774D01*
X41915364Y18471774D02*
X41901078Y18443202D01*
X41901078Y18443202D02*
X41901078Y18386059D01*
X41901078Y18386059D02*
X41915364Y18357488D01*
X42086793Y18486059D02*
X42101078Y18457488D01*
X42101078Y18457488D02*
X42101078Y18386059D01*
X42101078Y18386059D02*
X42086793Y18357488D01*
X42086793Y18357488D02*
X42058221Y18343202D01*
X42058221Y18343202D02*
X42029650Y18343202D01*
X42029650Y18343202D02*
X42001078Y18357488D01*
X42001078Y18357488D02*
X41986793Y18386059D01*
X41986793Y18386059D02*
X41986793Y18457488D01*
X41986793Y18457488D02*
X41972507Y18486059D01*
X41466078Y14836059D02*
X41166078Y14836059D01*
X41166078Y14836059D02*
X41466078Y15007488D01*
X41466078Y15007488D02*
X41166078Y15007488D01*
X41466078Y15193202D02*
X41451793Y15164631D01*
X41451793Y15164631D02*
X41437507Y15150345D01*
X41437507Y15150345D02*
X41408935Y15136059D01*
X41408935Y15136059D02*
X41323221Y15136059D01*
X41323221Y15136059D02*
X41294650Y15150345D01*
X41294650Y15150345D02*
X41280364Y15164631D01*
X41280364Y15164631D02*
X41266078Y15193202D01*
X41266078Y15193202D02*
X41266078Y15236059D01*
X41266078Y15236059D02*
X41280364Y15264631D01*
X41280364Y15264631D02*
X41294650Y15278916D01*
X41294650Y15278916D02*
X41323221Y15293202D01*
X41323221Y15293202D02*
X41408935Y15293202D01*
X41408935Y15293202D02*
X41437507Y15278916D01*
X41437507Y15278916D02*
X41451793Y15264631D01*
X41451793Y15264631D02*
X41466078Y15236059D01*
X41466078Y15236059D02*
X41466078Y15193202D01*
X41266078Y15607488D02*
X41266078Y15721774D01*
X41166078Y15650345D02*
X41423221Y15650345D01*
X41423221Y15650345D02*
X41451793Y15664631D01*
X41451793Y15664631D02*
X41466078Y15693202D01*
X41466078Y15693202D02*
X41466078Y15721774D01*
X41466078Y15821774D02*
X41266078Y15821774D01*
X41323221Y15821774D02*
X41294650Y15836060D01*
X41294650Y15836060D02*
X41280364Y15850345D01*
X41280364Y15850345D02*
X41266078Y15878917D01*
X41266078Y15878917D02*
X41266078Y15907488D01*
X41466078Y16136059D02*
X41308935Y16136059D01*
X41308935Y16136059D02*
X41280364Y16121774D01*
X41280364Y16121774D02*
X41266078Y16093202D01*
X41266078Y16093202D02*
X41266078Y16036059D01*
X41266078Y16036059D02*
X41280364Y16007488D01*
X41451793Y16136059D02*
X41466078Y16107488D01*
X41466078Y16107488D02*
X41466078Y16036059D01*
X41466078Y16036059D02*
X41451793Y16007488D01*
X41451793Y16007488D02*
X41423221Y15993202D01*
X41423221Y15993202D02*
X41394650Y15993202D01*
X41394650Y15993202D02*
X41366078Y16007488D01*
X41366078Y16007488D02*
X41351793Y16036059D01*
X41351793Y16036059D02*
X41351793Y16107488D01*
X41351793Y16107488D02*
X41337507Y16136059D01*
X41451793Y16407488D02*
X41466078Y16378917D01*
X41466078Y16378917D02*
X41466078Y16321774D01*
X41466078Y16321774D02*
X41451793Y16293203D01*
X41451793Y16293203D02*
X41437507Y16278917D01*
X41437507Y16278917D02*
X41408935Y16264631D01*
X41408935Y16264631D02*
X41323221Y16264631D01*
X41323221Y16264631D02*
X41294650Y16278917D01*
X41294650Y16278917D02*
X41280364Y16293203D01*
X41280364Y16293203D02*
X41266078Y16321774D01*
X41266078Y16321774D02*
X41266078Y16378917D01*
X41266078Y16378917D02*
X41280364Y16407488D01*
X41466078Y16536060D02*
X41166078Y16536060D01*
X41351793Y16564631D02*
X41466078Y16650346D01*
X41266078Y16650346D02*
X41380364Y16536060D01*
X41451793Y16764631D02*
X41466078Y16793203D01*
X41466078Y16793203D02*
X41466078Y16850346D01*
X41466078Y16850346D02*
X41451793Y16878917D01*
X41451793Y16878917D02*
X41423221Y16893203D01*
X41423221Y16893203D02*
X41408935Y16893203D01*
X41408935Y16893203D02*
X41380364Y16878917D01*
X41380364Y16878917D02*
X41366078Y16850346D01*
X41366078Y16850346D02*
X41366078Y16807488D01*
X41366078Y16807488D02*
X41351793Y16778917D01*
X41351793Y16778917D02*
X41323221Y16764631D01*
X41323221Y16764631D02*
X41308935Y16764631D01*
X41308935Y16764631D02*
X41280364Y16778917D01*
X41280364Y16778917D02*
X41266078Y16807488D01*
X41266078Y16807488D02*
X41266078Y16850346D01*
X41266078Y16850346D02*
X41280364Y16878917D01*
X41466078Y17293202D02*
X41451793Y17264631D01*
X41451793Y17264631D02*
X41437507Y17250345D01*
X41437507Y17250345D02*
X41408935Y17236059D01*
X41408935Y17236059D02*
X41323221Y17236059D01*
X41323221Y17236059D02*
X41294650Y17250345D01*
X41294650Y17250345D02*
X41280364Y17264631D01*
X41280364Y17264631D02*
X41266078Y17293202D01*
X41266078Y17293202D02*
X41266078Y17336059D01*
X41266078Y17336059D02*
X41280364Y17364631D01*
X41280364Y17364631D02*
X41294650Y17378916D01*
X41294650Y17378916D02*
X41323221Y17393202D01*
X41323221Y17393202D02*
X41408935Y17393202D01*
X41408935Y17393202D02*
X41437507Y17378916D01*
X41437507Y17378916D02*
X41451793Y17364631D01*
X41451793Y17364631D02*
X41466078Y17336059D01*
X41466078Y17336059D02*
X41466078Y17293202D01*
X41466078Y17521774D02*
X41266078Y17521774D01*
X41323221Y17521774D02*
X41294650Y17536060D01*
X41294650Y17536060D02*
X41280364Y17550345D01*
X41280364Y17550345D02*
X41266078Y17578917D01*
X41266078Y17578917D02*
X41266078Y17607488D01*
X41266078Y17907488D02*
X41466078Y17978916D01*
X41466078Y17978916D02*
X41266078Y18050345D01*
X41466078Y18164630D02*
X41266078Y18164630D01*
X41166078Y18164630D02*
X41180364Y18150344D01*
X41180364Y18150344D02*
X41194650Y18164630D01*
X41194650Y18164630D02*
X41180364Y18178916D01*
X41180364Y18178916D02*
X41166078Y18164630D01*
X41166078Y18164630D02*
X41194650Y18164630D01*
X41466078Y18436058D02*
X41308935Y18436058D01*
X41308935Y18436058D02*
X41280364Y18421773D01*
X41280364Y18421773D02*
X41266078Y18393201D01*
X41266078Y18393201D02*
X41266078Y18336058D01*
X41266078Y18336058D02*
X41280364Y18307487D01*
X41451793Y18436058D02*
X41466078Y18407487D01*
X41466078Y18407487D02*
X41466078Y18336058D01*
X41466078Y18336058D02*
X41451793Y18307487D01*
X41451793Y18307487D02*
X41423221Y18293201D01*
X41423221Y18293201D02*
X41394650Y18293201D01*
X41394650Y18293201D02*
X41366078Y18307487D01*
X41366078Y18307487D02*
X41351793Y18336058D01*
X41351793Y18336058D02*
X41351793Y18407487D01*
X41351793Y18407487D02*
X41337507Y18436058D01*
X41451793Y18564630D02*
X41466078Y18593202D01*
X41466078Y18593202D02*
X41466078Y18650345D01*
X41466078Y18650345D02*
X41451793Y18678916D01*
X41451793Y18678916D02*
X41423221Y18693202D01*
X41423221Y18693202D02*
X41408935Y18693202D01*
X41408935Y18693202D02*
X41380364Y18678916D01*
X41380364Y18678916D02*
X41366078Y18650345D01*
X41366078Y18650345D02*
X41366078Y18607487D01*
X41366078Y18607487D02*
X41351793Y18578916D01*
X41351793Y18578916D02*
X41323221Y18564630D01*
X41323221Y18564630D02*
X41308935Y18564630D01*
X41308935Y18564630D02*
X41280364Y18578916D01*
X41280364Y18578916D02*
X41266078Y18607487D01*
X41266078Y18607487D02*
X41266078Y18650345D01*
X41266078Y18650345D02*
X41280364Y18678916D01*
%TD*%
M02*
