%TF.GenerationSoftware,KiCad,Pcbnew,(7.0.0-0)*%
%TF.CreationDate,2023-03-26T13:07:46-04:00*%
%TF.ProjectId,mini_arduino_clone,6d696e69-5f61-4726-9475-696e6f5f636c,rev?*%
%TF.SameCoordinates,Original*%
%TF.FileFunction,Copper,L4,Bot*%
%TF.FilePolarity,Positive*%
%FSLAX46Y46*%
G04 Gerber Fmt 4.6, Leading zero omitted, Abs format (unit mm)*
G04 Created by KiCad (PCBNEW (7.0.0-0)) date 2023-03-26 13:07:46*
%MOMM*%
%LPD*%
G01*
G04 APERTURE LIST*
%TA.AperFunction,ComponentPad*%
%ADD10O,1.700000X1.000000*%
%TD*%
%TA.AperFunction,ComponentPad*%
%ADD11O,1.700000X0.850000*%
%TD*%
%TA.AperFunction,ComponentPad*%
%ADD12R,1.700000X1.700000*%
%TD*%
%TA.AperFunction,ComponentPad*%
%ADD13O,1.700000X1.700000*%
%TD*%
%TA.AperFunction,ViaPad*%
%ADD14C,0.800000*%
%TD*%
%TA.AperFunction,Conductor*%
%ADD15C,0.200000*%
%TD*%
%TA.AperFunction,Conductor*%
%ADD16C,0.246888*%
%TD*%
G04 APERTURE END LIST*
D10*
%TO.P,J101,6,Shield*%
%TO.N,unconnected-(J101-Shield-Pad6)*%
X1514999Y11841999D03*
D11*
X1514999Y6191999D03*
%TD*%
D12*
%TO.P,J103,1,Pin_1*%
%TO.N,/D5*%
X39496999Y16626999D03*
D13*
%TO.P,J103,2,Pin_2*%
%TO.N,/D6*%
X36956999Y16626999D03*
%TO.P,J103,3,Pin_3*%
%TO.N,/D7*%
X34416999Y16626999D03*
%TO.P,J103,4,Pin_4*%
%TO.N,/D8*%
X31876999Y16626999D03*
%TO.P,J103,5,Pin_5*%
%TO.N,/D9*%
X29336999Y16626999D03*
%TO.P,J103,6,Pin_6*%
%TO.N,/D10*%
X26796999Y16626999D03*
%TO.P,J103,7,Pin_7*%
%TO.N,/D11{slash}MOSI*%
X24256999Y16626999D03*
%TO.P,J103,8,Pin_8*%
%TO.N,/D12{slash}MISO*%
X21716999Y16626999D03*
%TO.P,J103,9,Pin_9*%
%TO.N,/D4*%
X19176999Y16626999D03*
%TO.P,J103,10,Pin_10*%
%TO.N,/D3*%
X16636999Y16626999D03*
%TO.P,J103,11,Pin_11*%
%TO.N,/D2*%
X14096999Y16626999D03*
%TO.P,J103,12,Pin_12*%
%TO.N,GND*%
X11556999Y16626999D03*
%TO.P,J103,13,Pin_13*%
%TO.N,/~{RESET}*%
X9016999Y16626999D03*
%TO.P,J103,14,Pin_14*%
%TO.N,/D0{slash}RX*%
X6476999Y16626999D03*
%TO.P,J103,15,Pin_15*%
%TO.N,/D1{slash}TX*%
X3936999Y16626999D03*
%TD*%
D12*
%TO.P,J104,1,Pin_1*%
%TO.N,/D13{slash}SCK*%
X39496999Y1386999D03*
D13*
%TO.P,J104,2,Pin_2*%
%TO.N,GND*%
X36956999Y1386999D03*
%TO.P,J104,3,Pin_3*%
%TO.N,/~{RESET}*%
X34416999Y1386999D03*
%TO.P,J104,4,Pin_4*%
%TO.N,+5V*%
X31876999Y1386999D03*
%TO.P,J104,5,Pin_5*%
%TO.N,/A7*%
X29336999Y1386999D03*
%TO.P,J104,6,Pin_6*%
%TO.N,/A6*%
X26796999Y1386999D03*
%TO.P,J104,7,Pin_7*%
%TO.N,/A5{slash}SCL*%
X24256999Y1386999D03*
%TO.P,J104,8,Pin_8*%
%TO.N,/A4{slash}~{SDA}*%
X21716999Y1386999D03*
%TO.P,J104,9,Pin_9*%
%TO.N,/A3*%
X19176999Y1386999D03*
%TO.P,J104,10,Pin_10*%
%TO.N,/A2*%
X16636999Y1386999D03*
%TO.P,J104,11,Pin_11*%
%TO.N,/A1*%
X14096999Y1386999D03*
%TO.P,J104,12,Pin_12*%
%TO.N,/A0*%
X11556999Y1386999D03*
%TO.P,J104,13,Pin_13*%
%TO.N,GND*%
X9016999Y1386999D03*
%TO.P,J104,14,Pin_14*%
%TO.N,+3V3*%
X6476999Y1386999D03*
%TO.P,J104,15,Pin_15*%
%TO.N,VBUS*%
X3936999Y1386999D03*
%TD*%
D14*
%TO.N,GND*%
X20628893Y3676487D03*
X2086893Y3676487D03*
X7903493Y5403687D03*
X21162293Y11957387D03*
X16539493Y4641687D03*
X43920693Y1644487D03*
X20298693Y14192087D03*
X13135893Y9518487D03*
X29696693Y7118865D03*
X35995893Y11589568D03*
X10468893Y6597487D03*
X34569933Y6728047D03*
X40313893Y6597487D03*
X43920693Y16325687D03*
X5973093Y7384887D03*
X35437093Y4336887D03*
X34268693Y2965287D03*
X38662893Y12820487D03*
X6165244Y12007687D03*
%TO.N,VBUS*%
X6023893Y10915487D03*
X6023893Y5962487D03*
%TO.N,+5V*%
X30661893Y7994487D03*
X1324893Y17138487D03*
X25200893Y14725487D03*
X39043893Y9010487D03*
X18088893Y13836487D03*
X13770893Y5962487D03*
X13770893Y5200487D03*
X42345893Y2787487D03*
%TO.N,/~{RESET}*%
X8359593Y9518487D03*
X15421893Y13201487D03*
X26666994Y8339403D03*
X11595954Y14010356D03*
%TO.N,+3V3*%
X20628893Y4819487D03*
%TO.N,/USB_UART/VBUS*%
X9325893Y5454487D03*
X9186493Y13176087D03*
%TO.N,/D_P*%
X6150893Y8853100D03*
X13481598Y13490782D03*
%TO.N,/D_N*%
X12790188Y14182192D03*
X6150893Y9830900D03*
%TO.N,/D12{slash}MISO*%
X43170393Y7867487D03*
X27359893Y12058487D03*
%TO.N,/D13{slash}SCK*%
X43615893Y10534487D03*
X31119771Y14294365D03*
%TO.N,/D11{slash}MOSI*%
X29264893Y10661487D03*
X38916893Y11169487D03*
%TO.N,/D2*%
X26851893Y9518487D03*
%TO.N,/D3*%
X28763473Y8606810D03*
%TO.N,/D4*%
X30407893Y9261987D03*
%TO.N,/D10*%
X29010893Y11804487D03*
%TO.N,/A7*%
X25200893Y8121487D03*
%TO.N,/A6*%
X25806813Y7220390D03*
%TO.N,/A1*%
X21173993Y6028513D03*
%TO.N,/A0*%
X20456621Y6724487D03*
%TO.N,/D0{slash}RX*%
X24350993Y4184487D03*
X16844293Y9924887D03*
%TO.N,/D1{slash}TX*%
X18977893Y6826087D03*
X24882710Y3332892D03*
%TD*%
D15*
%TO.N,/~{RESET}*%
X8359593Y11041387D02*
X8359593Y9518487D01*
X34130624Y1387000D02*
X34417000Y1387000D01*
X16520979Y13201487D02*
X15421893Y13201487D01*
X26666994Y8339403D02*
X26087188Y8919209D01*
X11328562Y14010356D02*
X8359593Y11041387D01*
X20803257Y8919209D02*
X16520979Y13201487D01*
X27178221Y8339403D02*
X34130624Y1387000D01*
X26666994Y8339403D02*
X27178221Y8339403D01*
X11595954Y14010356D02*
X11328562Y14010356D01*
X26087188Y8919209D02*
X20803257Y8919209D01*
D16*
%TO.N,/D_P*%
X13090487Y13490782D02*
X13080653Y13480948D01*
X10529252Y9941144D02*
X10529251Y9941144D01*
X7001424Y9129656D02*
X6427449Y9129656D01*
X10213252Y8708551D02*
X10213254Y8708549D01*
X13481598Y13490782D02*
X13090487Y13490782D01*
X13080653Y13480948D02*
X12689544Y13480948D01*
X10028345Y9810055D02*
X10213252Y9625148D01*
X9413849Y7909143D02*
X8221937Y7909143D01*
X11570237Y10065531D02*
X11445848Y9941144D01*
X12689544Y13480948D02*
X11570237Y12361641D01*
X11570237Y12361641D02*
X11570237Y10065531D01*
X10028345Y9810056D02*
X10028345Y9810055D01*
X10213254Y8708549D02*
X9413849Y7909143D01*
X8221937Y7909143D02*
X7001424Y9129656D01*
X10213253Y8708551D02*
X10213252Y8708551D01*
X6427449Y9129656D02*
X6150893Y8853100D01*
X10529251Y9941144D02*
X10344343Y10126052D01*
X10529253Y9941145D02*
G75*
G03*
X11445847Y9941145I458297J458298D01*
G01*
X10213215Y8708589D02*
G75*
G03*
X10213252Y9625148I-458222J458298D01*
G01*
X10344343Y10126052D02*
G75*
G03*
X10028345Y10126052I-157999J-158000D01*
G01*
X10028313Y10126084D02*
G75*
G03*
X10028346Y9810057I157980J-157997D01*
G01*
%TO.N,/D_N*%
X9728046Y9509754D02*
X9912953Y9324847D01*
X11145549Y12537553D02*
X11145549Y10241443D01*
X9912953Y9008849D02*
X9912954Y9008849D01*
X9728046Y9509755D02*
X9728046Y9509754D01*
X9912954Y9008849D02*
X9237937Y8333831D01*
X9237937Y8333831D02*
X8397849Y8333831D01*
X10829551Y10241443D02*
X10644643Y10426351D01*
X12790188Y14182192D02*
X11145549Y12537553D01*
X8397849Y8333831D02*
X7177336Y9554344D01*
X6427449Y9554344D02*
X6150893Y9830900D01*
X9728046Y10426352D02*
X9728046Y10426351D01*
X7177336Y9554344D02*
X6427449Y9554344D01*
X10644692Y10426400D02*
G75*
G03*
X9728046Y10426352I-458299J-458313D01*
G01*
X10829551Y10241443D02*
G75*
G03*
X11145549Y10241443I157999J158000D01*
G01*
X9912914Y9008888D02*
G75*
G03*
X9912953Y9324847I-157921J157999D01*
G01*
X9728013Y10426384D02*
G75*
G03*
X9728047Y9509756I458380J-458297D01*
G01*
D15*
%TO.N,/D12{slash}MISO*%
X27359893Y11576537D02*
X27359893Y12058487D01*
X27359893Y12058487D02*
X25581893Y12058487D01*
X21717000Y15923380D02*
X21717000Y16627000D01*
X28974943Y9961487D02*
X27359893Y11576537D01*
X43170393Y9328987D02*
X42537893Y9961487D01*
X43170393Y7867487D02*
X43170393Y9328987D01*
X42537893Y9961487D02*
X28974943Y9961487D01*
X25581893Y12058487D02*
X21717000Y15923380D01*
%TO.N,/D13{slash}SCK*%
X43615893Y10534487D02*
X42091893Y12058487D01*
X32466649Y12947487D02*
X31119771Y14294365D01*
X37773893Y12058487D02*
X36884893Y12947487D01*
X42091893Y12058487D02*
X37773893Y12058487D01*
X36884893Y12947487D02*
X32466649Y12947487D01*
X43869893Y10280487D02*
X43869893Y5962487D01*
X43615893Y10534487D02*
X43869893Y10280487D01*
X43869893Y5962487D02*
X39497000Y1589594D01*
X39497000Y1589594D02*
X39497000Y1387000D01*
%TO.N,/D11{slash}MOSI*%
X29264893Y10661487D02*
X29163943Y10661487D01*
X28310893Y13139487D02*
X24823380Y16627000D01*
X38916893Y11169487D02*
X38408893Y10661487D01*
X24823380Y16627000D02*
X24257000Y16627000D01*
X29163943Y10661487D02*
X28310893Y11514537D01*
X28310893Y11514537D02*
X28310893Y13139487D01*
X38408893Y10661487D02*
X29264893Y10661487D01*
%TO.N,/D2*%
X26851893Y9518487D02*
X21205513Y9518487D01*
X21205513Y9518487D02*
X14097000Y16627000D01*
%TO.N,/D3*%
X21655443Y12656887D02*
X20607113Y12656887D01*
X26708796Y10661487D02*
X23650843Y10661487D01*
X28763473Y8606810D02*
X26708796Y10661487D01*
X20607113Y12656887D02*
X16637000Y16627000D01*
X23650843Y10661487D02*
X21655443Y12656887D01*
%TO.N,/D4*%
X26974013Y11296487D02*
X24507513Y11296487D01*
X24507513Y11296487D02*
X19177000Y16627000D01*
X30407893Y9261987D02*
X29008513Y9261987D01*
X29008513Y9261987D02*
X26974013Y11296487D01*
%TO.N,/D10*%
X29518893Y13963487D02*
X26855380Y16627000D01*
X26855380Y16627000D02*
X26797000Y16627000D01*
X29518893Y12312487D02*
X29518893Y13963487D01*
X29010893Y11804487D02*
X29518893Y12312487D01*
%TO.N,/A7*%
X29141380Y1387000D02*
X29337000Y1387000D01*
X25895666Y8121487D02*
X26506813Y7510340D01*
X25200893Y8121487D02*
X25895666Y8121487D01*
X26506813Y7510340D02*
X26506813Y4021567D01*
X26506813Y4021567D02*
X29141380Y1387000D01*
%TO.N,/A6*%
X25708893Y7122470D02*
X25708893Y2475107D01*
X25708893Y2475107D02*
X26797000Y1387000D01*
X25806813Y7220390D02*
X25708893Y7122470D01*
%TO.N,/A1*%
X20750597Y6028513D02*
X20746571Y6024487D01*
X14504006Y1387000D02*
X14097000Y1387000D01*
X17631693Y3219287D02*
X16336293Y3219287D01*
X20436893Y6024487D02*
X17631693Y3219287D01*
X20746571Y6024487D02*
X20436893Y6024487D01*
X21173993Y6028513D02*
X20750597Y6028513D01*
X16336293Y3219287D02*
X14504006Y1387000D01*
%TO.N,/A0*%
X17561021Y3828887D02*
X13998887Y3828887D01*
X13998887Y3828887D02*
X11557000Y1387000D01*
X20456621Y6724487D02*
X17561021Y3828887D01*
%TO.N,/D0{slash}RX*%
X14659893Y14039687D02*
X13288293Y15411287D01*
X16844293Y9924887D02*
X14659893Y12109287D01*
X13288293Y15411287D02*
X7692713Y15411287D01*
X24350993Y4184487D02*
X23168893Y4184487D01*
X23168893Y4184487D02*
X22273993Y5079387D01*
X22273993Y5079387D02*
X22273993Y6484149D01*
X22273993Y6484149D02*
X18833255Y9924887D01*
X18833255Y9924887D02*
X16844293Y9924887D01*
X7692713Y15411287D02*
X6477000Y16627000D01*
X14659893Y12109287D02*
X14659893Y14039687D01*
%TO.N,/D1{slash}TX*%
X14181598Y11597632D02*
X14181598Y13806782D01*
X24882710Y3332892D02*
X23385488Y3332892D01*
X18977893Y6826087D02*
X18953143Y6826087D01*
X5660713Y14903287D02*
X3937000Y16627000D01*
X23385488Y3332892D02*
X21873993Y4844387D01*
X21873993Y4844387D02*
X21873993Y6318463D01*
X13085093Y14903287D02*
X5660713Y14903287D01*
X20578969Y7613487D02*
X19765293Y7613487D01*
X21873993Y6318463D02*
X20578969Y7613487D01*
X14181598Y13806782D02*
X13085093Y14903287D01*
X19765293Y7613487D02*
X18977893Y6826087D01*
X18953143Y6826087D02*
X14181598Y11597632D01*
%TD*%
%TA.AperFunction,Conductor*%
%TO.N,GND*%
G36*
X45022500Y18016887D02*
G01*
X45067887Y17971500D01*
X45084500Y17909500D01*
X45084500Y124500D01*
X45067887Y62500D01*
X45022500Y17113D01*
X44960500Y500D01*
X40818304Y500D01*
X40753137Y19005D01*
X40707420Y68996D01*
X40694798Y135553D01*
X40719037Y198811D01*
X40736776Y222509D01*
X40790796Y294669D01*
X40841091Y429517D01*
X40847500Y489127D01*
X40847499Y2039499D01*
X40856938Y2086951D01*
X40883815Y2127176D01*
X41291548Y2534909D01*
X41345568Y2566570D01*
X41408174Y2567800D01*
X41463398Y2538282D01*
X41497158Y2485545D01*
X41516669Y2425495D01*
X41518714Y2419203D01*
X41521961Y2413579D01*
X41521962Y2413577D01*
X41609341Y2262231D01*
X41613360Y2255271D01*
X41740022Y2114599D01*
X41893163Y2003336D01*
X42066090Y1926343D01*
X42251247Y1886987D01*
X42434036Y1886987D01*
X42440539Y1886987D01*
X42625696Y1926343D01*
X42798623Y2003336D01*
X42951764Y2114599D01*
X43078426Y2255271D01*
X43173072Y2419203D01*
X43231567Y2599231D01*
X43251353Y2787487D01*
X43235128Y2941858D01*
X43232246Y2969283D01*
X43232245Y2969284D01*
X43231567Y2975743D01*
X43173072Y3155771D01*
X43078426Y3319703D01*
X42951764Y3460375D01*
X42946506Y3464195D01*
X42946504Y3464197D01*
X42803881Y3567818D01*
X42803880Y3567819D01*
X42798623Y3571638D01*
X42792685Y3574282D01*
X42637998Y3643154D01*
X42591054Y3679666D01*
X42566510Y3733836D01*
X42570012Y3793204D01*
X42600751Y3844112D01*
X44260937Y5504298D01*
X44273115Y5514977D01*
X44298175Y5534205D01*
X44394429Y5659646D01*
X44454937Y5805725D01*
X44462119Y5860277D01*
X44475576Y5962487D01*
X44471453Y5993796D01*
X44470393Y6009981D01*
X44470393Y10230652D01*
X44476461Y10268967D01*
X44501567Y10346231D01*
X44521353Y10534487D01*
X44501567Y10722743D01*
X44443072Y10902771D01*
X44348426Y11066703D01*
X44337401Y11078947D01*
X44226113Y11202545D01*
X44226112Y11202546D01*
X44221764Y11207375D01*
X44216506Y11211195D01*
X44216504Y11211197D01*
X44073881Y11314818D01*
X44073880Y11314819D01*
X44068623Y11318638D01*
X44043796Y11329692D01*
X43901638Y11392986D01*
X43901633Y11392988D01*
X43895696Y11395631D01*
X43889337Y11396983D01*
X43889333Y11396984D01*
X43716901Y11433635D01*
X43716898Y11433636D01*
X43710539Y11434987D01*
X43704036Y11434987D01*
X43615991Y11434987D01*
X43568538Y11444426D01*
X43528310Y11471306D01*
X43139577Y11860039D01*
X42737937Y12261678D01*
X42708792Y12307796D01*
X42702261Y12361961D01*
X42719610Y12413686D01*
X42757475Y12452955D01*
X42827677Y12499127D01*
X42947351Y12625974D01*
X43034546Y12777000D01*
X43084561Y12944064D01*
X43094701Y13118158D01*
X43064419Y13289899D01*
X42995346Y13450026D01*
X42964681Y13491216D01*
X42950538Y13510214D01*
X42891208Y13589909D01*
X42885681Y13594546D01*
X42885679Y13594549D01*
X42763145Y13697366D01*
X42757618Y13702004D01*
X42745076Y13708303D01*
X42608227Y13777031D01*
X42608224Y13777032D01*
X42601777Y13780270D01*
X42594752Y13781935D01*
X42439115Y13818822D01*
X42439111Y13818823D01*
X42432088Y13820487D01*
X42301438Y13820487D01*
X42297873Y13820071D01*
X42297867Y13820070D01*
X42178849Y13806159D01*
X42178846Y13806159D01*
X42171682Y13805321D01*
X42164903Y13802854D01*
X42164900Y13802853D01*
X42014594Y13748146D01*
X42014590Y13748145D01*
X42007809Y13745676D01*
X42001779Y13741711D01*
X42001773Y13741707D01*
X41868145Y13653818D01*
X41868139Y13653814D01*
X41862109Y13649847D01*
X41857156Y13644598D01*
X41857151Y13644593D01*
X41747392Y13528255D01*
X41747388Y13528251D01*
X41742435Y13523000D01*
X41738825Y13516750D01*
X41738823Y13516745D01*
X41658850Y13378228D01*
X41658847Y13378223D01*
X41655240Y13371974D01*
X41653170Y13365062D01*
X41653169Y13365058D01*
X41607295Y13211825D01*
X41605225Y13204910D01*
X41604805Y13197705D01*
X41604805Y13197703D01*
X41595504Y13038026D01*
X41595504Y13038018D01*
X41595085Y13030816D01*
X41596338Y13023705D01*
X41596339Y13023704D01*
X41624112Y12866187D01*
X41624114Y12866179D01*
X41625367Y12859075D01*
X41628224Y12852450D01*
X41628226Y12852446D01*
X41637002Y12832103D01*
X41646672Y12772181D01*
X41626745Y12714849D01*
X41581995Y12673842D01*
X41523144Y12658987D01*
X41135776Y12658987D01*
X41080125Y12672177D01*
X41036313Y12708939D01*
X41013660Y12761454D01*
X41016985Y12818550D01*
X41054561Y12944064D01*
X41064701Y13118158D01*
X41034419Y13289899D01*
X40965346Y13450026D01*
X40934681Y13491216D01*
X40920538Y13510214D01*
X40861208Y13589909D01*
X40855681Y13594546D01*
X40855679Y13594549D01*
X40733145Y13697366D01*
X40727618Y13702004D01*
X40715076Y13708303D01*
X40578227Y13777031D01*
X40578224Y13777032D01*
X40571777Y13780270D01*
X40564752Y13781935D01*
X40409115Y13818822D01*
X40409111Y13818823D01*
X40402088Y13820487D01*
X40271438Y13820487D01*
X40267873Y13820071D01*
X40267867Y13820070D01*
X40148849Y13806159D01*
X40148846Y13806159D01*
X40141682Y13805321D01*
X40134903Y13802854D01*
X40134900Y13802853D01*
X39984594Y13748146D01*
X39984590Y13748145D01*
X39977809Y13745676D01*
X39971779Y13741711D01*
X39971773Y13741707D01*
X39838145Y13653818D01*
X39838139Y13653814D01*
X39832109Y13649847D01*
X39827156Y13644598D01*
X39827151Y13644593D01*
X39717392Y13528255D01*
X39717388Y13528251D01*
X39712435Y13523000D01*
X39708825Y13516750D01*
X39708823Y13516745D01*
X39628850Y13378228D01*
X39628847Y13378223D01*
X39625240Y13371974D01*
X39623170Y13365062D01*
X39623169Y13365058D01*
X39577295Y13211825D01*
X39575225Y13204910D01*
X39574805Y13197705D01*
X39574805Y13197703D01*
X39565504Y13038026D01*
X39565504Y13038018D01*
X39565085Y13030816D01*
X39566338Y13023705D01*
X39566339Y13023704D01*
X39594112Y12866187D01*
X39594114Y12866179D01*
X39595367Y12859075D01*
X39598224Y12852450D01*
X39598226Y12852446D01*
X39607002Y12832103D01*
X39616672Y12772181D01*
X39596745Y12714849D01*
X39551995Y12673842D01*
X39493144Y12658987D01*
X38073990Y12658987D01*
X38026537Y12668426D01*
X37986309Y12695306D01*
X37343092Y13338523D01*
X37332396Y13350719D01*
X37323748Y13361989D01*
X37313175Y13375769D01*
X37187734Y13472023D01*
X37101914Y13507571D01*
X37049164Y13529421D01*
X37049161Y13529422D01*
X37041655Y13532531D01*
X37033601Y13533592D01*
X37033595Y13533593D01*
X36966487Y13542427D01*
X36892952Y13552108D01*
X36884893Y13553169D01*
X36876834Y13552108D01*
X36853591Y13549048D01*
X36837406Y13547987D01*
X32766746Y13547987D01*
X32719293Y13557426D01*
X32679065Y13584306D01*
X32060871Y14202500D01*
X32033991Y14242728D01*
X32024708Y14289395D01*
X32025231Y14294365D01*
X32005445Y14482621D01*
X31946950Y14662649D01*
X31852304Y14826581D01*
X31725642Y14967253D01*
X31720384Y14971073D01*
X31720382Y14971075D01*
X31590813Y15065212D01*
X31550595Y15114700D01*
X31540290Y15177631D01*
X31562622Y15237361D01*
X31611686Y15278095D01*
X31674503Y15289058D01*
X31877000Y15271341D01*
X32112408Y15291937D01*
X32340663Y15353097D01*
X32554830Y15452965D01*
X32748401Y15588505D01*
X32915495Y15755599D01*
X33045426Y15941159D01*
X33089743Y15980024D01*
X33147000Y15994035D01*
X33204257Y15980024D01*
X33248575Y15941158D01*
X33375395Y15760039D01*
X33375401Y15760032D01*
X33378505Y15755599D01*
X33545599Y15588505D01*
X33550031Y15585402D01*
X33550033Y15585400D01*
X33694260Y15484411D01*
X33739170Y15452965D01*
X33953337Y15353097D01*
X34181592Y15291937D01*
X34417000Y15271341D01*
X34652408Y15291937D01*
X34880663Y15353097D01*
X35094830Y15452965D01*
X35288401Y15588505D01*
X35455495Y15755599D01*
X35585426Y15941159D01*
X35629743Y15980024D01*
X35687000Y15994035D01*
X35744257Y15980024D01*
X35788575Y15941158D01*
X35915395Y15760039D01*
X35915401Y15760032D01*
X35918505Y15755599D01*
X36085599Y15588505D01*
X36090031Y15585402D01*
X36090033Y15585400D01*
X36234260Y15484411D01*
X36279170Y15452965D01*
X36493337Y15353097D01*
X36721592Y15291937D01*
X36957000Y15271341D01*
X37192408Y15291937D01*
X37420663Y15353097D01*
X37634830Y15452965D01*
X37828401Y15588505D01*
X37950329Y15710434D01*
X38003072Y15741727D01*
X38064365Y15743916D01*
X38119210Y15716463D01*
X38154189Y15666084D01*
X38203204Y15534669D01*
X38208518Y15527570D01*
X38208519Y15527569D01*
X38264367Y15452965D01*
X38289454Y15419454D01*
X38404669Y15333204D01*
X38539517Y15282909D01*
X38599127Y15276500D01*
X40394872Y15276501D01*
X40454483Y15282909D01*
X40589331Y15333204D01*
X40704546Y15419454D01*
X40790796Y15534669D01*
X40841091Y15669517D01*
X40847500Y15729127D01*
X40847499Y17524872D01*
X40841091Y17584483D01*
X40790796Y17719331D01*
X40704546Y17834546D01*
X40706701Y17836160D01*
X40685239Y17871182D01*
X40680697Y17928898D01*
X40702852Y17982385D01*
X40746875Y18019985D01*
X40803170Y18033500D01*
X44960500Y18033500D01*
X45022500Y18016887D01*
G37*
%TD.AperFunction*%
%TA.AperFunction,Conductor*%
G36*
X701150Y18019389D02*
G01*
X745523Y17980269D01*
X766723Y17925042D01*
X759924Y17866277D01*
X726673Y17817350D01*
X724277Y17815194D01*
X719022Y17811375D01*
X714677Y17806551D01*
X714673Y17806546D01*
X596706Y17675531D01*
X596701Y17675525D01*
X592360Y17670703D01*
X589115Y17665083D01*
X589111Y17665077D01*
X500962Y17512398D01*
X500959Y17512393D01*
X497714Y17506771D01*
X495708Y17500599D01*
X495706Y17500593D01*
X441226Y17332923D01*
X441224Y17332914D01*
X439219Y17326743D01*
X438541Y17320293D01*
X438539Y17320283D01*
X420855Y17152023D01*
X419433Y17138487D01*
X420112Y17132027D01*
X438539Y16956692D01*
X438540Y16956684D01*
X439219Y16950231D01*
X441224Y16944059D01*
X441226Y16944052D01*
X495706Y16776382D01*
X497714Y16770203D01*
X592360Y16606271D01*
X719022Y16465599D01*
X872163Y16354336D01*
X1045090Y16277343D01*
X1230247Y16237987D01*
X1413036Y16237987D01*
X1419539Y16237987D01*
X1604696Y16277343D01*
X1777623Y16354336D01*
X1930764Y16465599D01*
X2057426Y16606271D01*
X2152072Y16770203D01*
X2210567Y16950231D01*
X2230353Y17138487D01*
X2210567Y17326743D01*
X2152072Y17506771D01*
X2057426Y17670703D01*
X1930764Y17811375D01*
X1925507Y17815195D01*
X1923113Y17817350D01*
X1889862Y17866277D01*
X1883063Y17925042D01*
X1904263Y17980269D01*
X1948636Y18019389D01*
X2006085Y18033500D01*
X3199982Y18033500D01*
X3261982Y18016887D01*
X3307369Y17971500D01*
X3323982Y17909500D01*
X3307369Y17847499D01*
X3262418Y17802550D01*
X3259171Y17801035D01*
X3254741Y17797934D01*
X3254732Y17797928D01*
X3070034Y17668601D01*
X3070029Y17668598D01*
X3065599Y17665495D01*
X3061775Y17661672D01*
X3061769Y17661666D01*
X2902334Y17502231D01*
X2902328Y17502225D01*
X2898505Y17498401D01*
X2895402Y17493971D01*
X2895399Y17493966D01*
X2766073Y17309269D01*
X2766068Y17309262D01*
X2762965Y17304829D01*
X2760677Y17299923D01*
X2760675Y17299919D01*
X2665386Y17095573D01*
X2665383Y17095568D01*
X2663097Y17090663D01*
X2661698Y17085443D01*
X2661694Y17085431D01*
X2603337Y16867635D01*
X2603335Y16867629D01*
X2601937Y16862408D01*
X2601465Y16857023D01*
X2601465Y16857018D01*
X2581813Y16632395D01*
X2581341Y16627000D01*
X2601937Y16391592D01*
X2603336Y16386370D01*
X2603337Y16386366D01*
X2661694Y16168570D01*
X2661697Y16168562D01*
X2663097Y16163337D01*
X2665385Y16158430D01*
X2665386Y16158428D01*
X2760678Y15954073D01*
X2760681Y15954067D01*
X2762965Y15949170D01*
X2766064Y15944743D01*
X2766066Y15944741D01*
X2895399Y15760034D01*
X2895402Y15760030D01*
X2898505Y15755599D01*
X3065599Y15588505D01*
X3070031Y15585402D01*
X3070033Y15585400D01*
X3214260Y15484411D01*
X3259170Y15452965D01*
X3473337Y15353097D01*
X3701592Y15291937D01*
X3937000Y15271341D01*
X4172408Y15291937D01*
X4300757Y15326328D01*
X4364943Y15326328D01*
X4420531Y15294234D01*
X5202512Y14512253D01*
X5213202Y14500065D01*
X5232431Y14475005D01*
X5242775Y14467068D01*
X5340832Y14391826D01*
X5351423Y14383699D01*
X5351425Y14383698D01*
X5357872Y14378751D01*
X5503951Y14318243D01*
X5660713Y14297605D01*
X5668772Y14298666D01*
X5692015Y14301726D01*
X5708200Y14302787D01*
X8976254Y14302787D01*
X9034469Y14288272D01*
X9079055Y14248127D01*
X9099575Y14191748D01*
X9091225Y14132336D01*
X9055960Y14083797D01*
X9002035Y14057497D01*
X8913052Y14038584D01*
X8913045Y14038582D01*
X8906690Y14037231D01*
X8900755Y14034589D01*
X8900747Y14034586D01*
X8739700Y13962882D01*
X8739695Y13962880D01*
X8733763Y13960238D01*
X8728509Y13956422D01*
X8728504Y13956418D01*
X8585881Y13852797D01*
X8585874Y13852792D01*
X8580622Y13848975D01*
X8576277Y13844150D01*
X8576272Y13844145D01*
X8458306Y13713131D01*
X8458301Y13713125D01*
X8453960Y13708303D01*
X8450715Y13702683D01*
X8450711Y13702677D01*
X8362562Y13549998D01*
X8362559Y13549993D01*
X8359314Y13544371D01*
X8357308Y13538199D01*
X8357306Y13538193D01*
X8302826Y13370523D01*
X8302824Y13370514D01*
X8300819Y13364343D01*
X8300141Y13357893D01*
X8300139Y13357883D01*
X8284789Y13211825D01*
X8281033Y13176087D01*
X8281712Y13169627D01*
X8300139Y12994292D01*
X8300140Y12994284D01*
X8300819Y12987831D01*
X8302824Y12981659D01*
X8302826Y12981652D01*
X8353052Y12827074D01*
X8359314Y12807803D01*
X8362561Y12802179D01*
X8362562Y12802177D01*
X8439043Y12669707D01*
X8453960Y12643871D01*
X8458304Y12639046D01*
X8458306Y12639044D01*
X8576272Y12508030D01*
X8580622Y12503199D01*
X8585880Y12499379D01*
X8585881Y12499378D01*
X8689945Y12423771D01*
X8725250Y12384042D01*
X8740678Y12333182D01*
X8733396Y12280534D01*
X8704741Y12235772D01*
X7968558Y11499589D01*
X7956367Y11488897D01*
X7937757Y11474617D01*
X7937749Y11474610D01*
X7931311Y11469669D01*
X7926370Y11463231D01*
X7926367Y11463227D01*
X7874996Y11396278D01*
X7840004Y11350676D01*
X7840001Y11350673D01*
X7835057Y11344228D01*
X7831948Y11336725D01*
X7831947Y11336721D01*
X7777659Y11205659D01*
X7777657Y11205654D01*
X7774549Y11198149D01*
X7773489Y11190098D01*
X7773487Y11190090D01*
X7756503Y11061077D01*
X7753911Y11041387D01*
X7754972Y11033328D01*
X7758032Y11010085D01*
X7759093Y10993900D01*
X7759093Y10244939D01*
X7750857Y10200501D01*
X7727244Y10161969D01*
X7697042Y10128426D01*
X7674710Y10103624D01*
X7623749Y10069638D01*
X7562737Y10064193D01*
X7510375Y10086960D01*
X7510350Y10086916D01*
X7510002Y10087122D01*
X7506563Y10088617D01*
X7503638Y10090886D01*
X7503637Y10090887D01*
X7497474Y10095667D01*
X7490315Y10098765D01*
X7490312Y10098767D01*
X7457502Y10112966D01*
X7447018Y10118102D01*
X7415684Y10135327D01*
X7415681Y10135328D01*
X7408851Y10139083D01*
X7401299Y10141022D01*
X7401297Y10141023D01*
X7389519Y10144047D01*
X7371111Y10150349D01*
X7359955Y10155177D01*
X7359952Y10155178D01*
X7352795Y10158275D01*
X7345087Y10159496D01*
X7309777Y10165089D01*
X7298350Y10167455D01*
X7256158Y10178288D01*
X7248356Y10178288D01*
X7236199Y10178288D01*
X7216801Y10179815D01*
X7204798Y10181717D01*
X7204791Y10181718D01*
X7197090Y10182937D01*
X7189324Y10182203D01*
X7189322Y10182203D01*
X7153728Y10178838D01*
X7142058Y10178288D01*
X7061728Y10178288D01*
X6999728Y10194901D01*
X6954341Y10240288D01*
X6896742Y10340052D01*
X6883426Y10363116D01*
X6869630Y10378438D01*
X6859236Y10389982D01*
X6833455Y10434638D01*
X6828067Y10485919D01*
X6844002Y10534958D01*
X6851072Y10547203D01*
X6909567Y10727231D01*
X6929353Y10915487D01*
X6909567Y11103743D01*
X6851072Y11283771D01*
X6756426Y11447703D01*
X6748312Y11456714D01*
X6634113Y11583545D01*
X6634112Y11583546D01*
X6629764Y11588375D01*
X6624506Y11592195D01*
X6624504Y11592197D01*
X6481881Y11695818D01*
X6481880Y11695819D01*
X6476623Y11699638D01*
X6470685Y11702282D01*
X6309638Y11773986D01*
X6309633Y11773988D01*
X6303696Y11776631D01*
X6297337Y11777983D01*
X6297333Y11777984D01*
X6124901Y11814635D01*
X6124898Y11814636D01*
X6118539Y11815987D01*
X5929247Y11815987D01*
X5922888Y11814636D01*
X5922884Y11814635D01*
X5750452Y11777984D01*
X5750445Y11777982D01*
X5744090Y11776631D01*
X5738155Y11773989D01*
X5738147Y11773986D01*
X5577100Y11702282D01*
X5577095Y11702280D01*
X5571163Y11699638D01*
X5565909Y11695822D01*
X5565904Y11695818D01*
X5423281Y11592197D01*
X5423274Y11592192D01*
X5418022Y11588375D01*
X5413677Y11583550D01*
X5413672Y11583545D01*
X5295706Y11452531D01*
X5295701Y11452525D01*
X5291360Y11447703D01*
X5288115Y11442083D01*
X5288111Y11442077D01*
X5199962Y11289398D01*
X5199959Y11289393D01*
X5196714Y11283771D01*
X5194708Y11277599D01*
X5194706Y11277593D01*
X5140226Y11109923D01*
X5140224Y11109914D01*
X5138219Y11103743D01*
X5137541Y11097293D01*
X5137539Y11097283D01*
X5123135Y10960228D01*
X5118433Y10915487D01*
X5119112Y10909027D01*
X5137539Y10733692D01*
X5137540Y10733684D01*
X5138219Y10727231D01*
X5140224Y10721059D01*
X5140226Y10721052D01*
X5190472Y10566414D01*
X5196714Y10547203D01*
X5199961Y10541579D01*
X5199962Y10541577D01*
X5232096Y10485919D01*
X5291360Y10383271D01*
X5295702Y10378448D01*
X5295710Y10378438D01*
X5315548Y10356407D01*
X5341329Y10311756D01*
X5346720Y10260479D01*
X5330790Y10211441D01*
X5326965Y10204816D01*
X5326962Y10204812D01*
X5323714Y10199184D01*
X5321707Y10193010D01*
X5321704Y10193001D01*
X5267226Y10025336D01*
X5267224Y10025327D01*
X5265219Y10019156D01*
X5264541Y10012706D01*
X5264539Y10012696D01*
X5250899Y9882911D01*
X5245433Y9830900D01*
X5246112Y9824440D01*
X5264539Y9649105D01*
X5264540Y9649097D01*
X5265219Y9642644D01*
X5267224Y9636472D01*
X5267226Y9636465D01*
X5311584Y9499948D01*
X5323714Y9462616D01*
X5326962Y9456990D01*
X5326964Y9456986D01*
X5357555Y9404000D01*
X5374168Y9342002D01*
X5357556Y9280003D01*
X5326963Y9227013D01*
X5326960Y9227007D01*
X5323714Y9221384D01*
X5321708Y9215212D01*
X5321706Y9215206D01*
X5267226Y9047536D01*
X5267224Y9047527D01*
X5265219Y9041356D01*
X5264541Y9034906D01*
X5264539Y9034896D01*
X5250350Y8899882D01*
X5245433Y8853100D01*
X5246112Y8846640D01*
X5264539Y8671305D01*
X5264540Y8671297D01*
X5265219Y8664844D01*
X5267224Y8658672D01*
X5267226Y8658665D01*
X5317329Y8504467D01*
X5323714Y8484816D01*
X5326961Y8479192D01*
X5326962Y8479190D01*
X5410915Y8333778D01*
X5418360Y8320884D01*
X5422704Y8316059D01*
X5422706Y8316057D01*
X5540412Y8185332D01*
X5545022Y8180212D01*
X5550280Y8176392D01*
X5550281Y8176391D01*
X5577809Y8156391D01*
X5698163Y8068949D01*
X5871090Y7991956D01*
X6056247Y7952600D01*
X6239036Y7952600D01*
X6245539Y7952600D01*
X6430696Y7991956D01*
X6603623Y8068949D01*
X6756764Y8180212D01*
X6817020Y8247133D01*
X6872913Y8282742D01*
X6939166Y8284477D01*
X6996849Y8251841D01*
X7725882Y7522808D01*
X7733309Y7514646D01*
X7737359Y7508265D01*
X7743041Y7502929D01*
X7743043Y7502927D01*
X7786259Y7462345D01*
X7789056Y7459634D01*
X7808499Y7440191D01*
X7811646Y7437750D01*
X7820530Y7430163D01*
X7852277Y7400350D01*
X7869771Y7390732D01*
X7886027Y7380054D01*
X7901799Y7367820D01*
X7941783Y7350518D01*
X7952241Y7345394D01*
X7990422Y7324404D01*
X7997977Y7322465D01*
X7997978Y7322464D01*
X8009752Y7319441D01*
X8028164Y7313138D01*
X8046478Y7305212D01*
X8089484Y7298401D01*
X8100925Y7296032D01*
X8133222Y7287739D01*
X8143115Y7285199D01*
X8163074Y7285199D01*
X8182471Y7283673D01*
X8202183Y7280550D01*
X8245544Y7284649D01*
X8257215Y7285199D01*
X9336269Y7285199D01*
X9347289Y7284680D01*
X9354665Y7283031D01*
X9421707Y7285139D01*
X9425602Y7285199D01*
X9449205Y7285199D01*
X9453104Y7285199D01*
X9457051Y7285698D01*
X9468701Y7286616D01*
X9512231Y7287983D01*
X9519719Y7290159D01*
X9519721Y7290159D01*
X9531388Y7293549D01*
X9550454Y7297498D01*
X9570251Y7299998D01*
X9610745Y7316032D01*
X9621794Y7319814D01*
X9627938Y7321599D01*
X9663616Y7331964D01*
X9680799Y7342127D01*
X9698271Y7350685D01*
X9702254Y7352263D01*
X9716825Y7358031D01*
X9752065Y7383636D01*
X9761813Y7390040D01*
X9799309Y7412213D01*
X9813415Y7426320D01*
X9828210Y7438958D01*
X9844363Y7450692D01*
X9872127Y7484256D01*
X9879979Y7492885D01*
X10604457Y8217364D01*
X10622444Y8232242D01*
X10629155Y8236802D01*
X10634156Y8242477D01*
X10634607Y8242837D01*
X10637247Y8245240D01*
X10637652Y8245659D01*
X10643767Y8250100D01*
X10671514Y8283643D01*
X10679380Y8292287D01*
X10682207Y8295112D01*
X10682386Y8295345D01*
X10682748Y8295731D01*
X10725171Y8338145D01*
X10842876Y8500127D01*
X10933791Y8678528D01*
X10995676Y8868956D01*
X11021207Y9030102D01*
X11039685Y9078233D01*
X11076144Y9114690D01*
X11124277Y9133167D01*
X11285428Y9158690D01*
X11475857Y9220564D01*
X11654262Y9311466D01*
X11816251Y9429157D01*
X11865509Y9478416D01*
X11887040Y9499948D01*
X11887042Y9499949D01*
X11887043Y9499948D01*
X11940614Y9553519D01*
X11940614Y9553521D01*
X11956584Y9569491D01*
X11964726Y9576899D01*
X11971115Y9580953D01*
X12017042Y9629862D01*
X12019754Y9632659D01*
X12023560Y9636465D01*
X12039186Y9652090D01*
X12041617Y9655225D01*
X12049215Y9664123D01*
X12079030Y9695871D01*
X12088646Y9713364D01*
X12099324Y9729619D01*
X12111558Y9745389D01*
X12128856Y9785367D01*
X12133995Y9795854D01*
X12151216Y9827177D01*
X12151215Y9827177D01*
X12154976Y9834016D01*
X12159939Y9853348D01*
X12166240Y9871753D01*
X12174167Y9890067D01*
X12180980Y9933088D01*
X12183351Y9944533D01*
X12192241Y9979154D01*
X12192240Y9979154D01*
X12194181Y9986709D01*
X12194181Y10006661D01*
X12195708Y10026060D01*
X12197609Y10038063D01*
X12197608Y10038063D01*
X12198830Y10045771D01*
X12194730Y10089137D01*
X12194181Y10100805D01*
X12194181Y12051833D01*
X12203620Y12099286D01*
X12230500Y12139514D01*
X12375873Y12284887D01*
X12820043Y12729059D01*
X12869404Y12759307D01*
X12927120Y12763849D01*
X12980606Y12741695D01*
X13028868Y12706631D01*
X13201795Y12629638D01*
X13386952Y12590282D01*
X13393455Y12590282D01*
X13457098Y12590282D01*
X13519098Y12573669D01*
X13564485Y12528282D01*
X13581098Y12466282D01*
X13581098Y11645119D01*
X13580036Y11628934D01*
X13575916Y11597632D01*
X13576977Y11589573D01*
X13592763Y11469669D01*
X13592763Y11469668D01*
X13594300Y11457987D01*
X13596554Y11440870D01*
X13599666Y11433357D01*
X13648766Y11314818D01*
X13657062Y11294791D01*
X13753316Y11169350D01*
X13773181Y11154107D01*
X13778367Y11150128D01*
X13790562Y11139433D01*
X18037686Y6892309D01*
X18061926Y6858011D01*
X18073326Y6817589D01*
X18091539Y6644292D01*
X18091540Y6644284D01*
X18092219Y6637831D01*
X18094224Y6631659D01*
X18094226Y6631652D01*
X18147888Y6466500D01*
X18150714Y6457803D01*
X18153961Y6452179D01*
X18153962Y6452177D01*
X18232015Y6316984D01*
X18245360Y6293871D01*
X18249704Y6289046D01*
X18249706Y6289044D01*
X18367672Y6158030D01*
X18372022Y6153199D01*
X18525163Y6041936D01*
X18636889Y5992192D01*
X18683829Y5955683D01*
X18708374Y5901512D01*
X18704873Y5842144D01*
X18674131Y5791234D01*
X17348605Y4465706D01*
X17308377Y4438826D01*
X17260924Y4429387D01*
X14566842Y4429387D01*
X14511707Y4442319D01*
X14468072Y4478417D01*
X14445038Y4530152D01*
X14447410Y4586734D01*
X14474690Y4636357D01*
X14503426Y4668271D01*
X14598072Y4832203D01*
X14656567Y5012231D01*
X14676353Y5200487D01*
X14656567Y5388743D01*
X14606389Y5543174D01*
X14600321Y5581487D01*
X14606389Y5619801D01*
X14656567Y5774231D01*
X14676353Y5962487D01*
X14656567Y6150743D01*
X14598072Y6330771D01*
X14503426Y6494703D01*
X14492058Y6507328D01*
X14381113Y6630545D01*
X14381112Y6630546D01*
X14376764Y6635375D01*
X14371506Y6639195D01*
X14371504Y6639197D01*
X14228881Y6742818D01*
X14228880Y6742819D01*
X14223623Y6746638D01*
X14217685Y6749282D01*
X14056638Y6820986D01*
X14056633Y6820988D01*
X14050696Y6823631D01*
X14044337Y6824983D01*
X14044333Y6824984D01*
X13871901Y6861635D01*
X13871898Y6861636D01*
X13865539Y6862987D01*
X13676247Y6862987D01*
X13669888Y6861636D01*
X13669884Y6861635D01*
X13497452Y6824984D01*
X13497445Y6824982D01*
X13491090Y6823631D01*
X13485155Y6820989D01*
X13485147Y6820986D01*
X13324100Y6749282D01*
X13324095Y6749280D01*
X13318163Y6746638D01*
X13312909Y6742822D01*
X13312904Y6742818D01*
X13170281Y6639197D01*
X13170274Y6639192D01*
X13165022Y6635375D01*
X13160677Y6630550D01*
X13160672Y6630545D01*
X13042706Y6499531D01*
X13042701Y6499525D01*
X13038360Y6494703D01*
X13035115Y6489083D01*
X13035111Y6489077D01*
X12946962Y6336398D01*
X12946959Y6336393D01*
X12943714Y6330771D01*
X12941708Y6324599D01*
X12941706Y6324593D01*
X12887226Y6156923D01*
X12887224Y6156914D01*
X12885219Y6150743D01*
X12884541Y6144293D01*
X12884539Y6144283D01*
X12867978Y5986703D01*
X12865433Y5962487D01*
X12866112Y5956027D01*
X12884539Y5780692D01*
X12884540Y5780684D01*
X12885219Y5774231D01*
X12887224Y5768059D01*
X12887226Y5768052D01*
X12935395Y5619806D01*
X12941464Y5581488D01*
X12935395Y5543170D01*
X12887226Y5394923D01*
X12887224Y5394914D01*
X12885219Y5388743D01*
X12884541Y5382293D01*
X12884539Y5382283D01*
X12871693Y5260052D01*
X12865433Y5200487D01*
X12866112Y5194027D01*
X12884539Y5018692D01*
X12884540Y5018684D01*
X12885219Y5012231D01*
X12887224Y5006059D01*
X12887226Y5006052D01*
X12935535Y4857375D01*
X12943714Y4832203D01*
X12946961Y4826579D01*
X12946962Y4826577D01*
X13034961Y4674157D01*
X13038360Y4668271D01*
X13042702Y4663449D01*
X13042706Y4663444D01*
X13107043Y4591991D01*
X13165022Y4527599D01*
X13318163Y4416336D01*
X13443220Y4360656D01*
X13490160Y4324146D01*
X13514705Y4269976D01*
X13511203Y4210608D01*
X13480462Y4159698D01*
X12040530Y2719767D01*
X11984943Y2687673D01*
X11920756Y2687673D01*
X11797634Y2720663D01*
X11797630Y2720664D01*
X11792408Y2722063D01*
X11787020Y2722535D01*
X11787017Y2722535D01*
X11562395Y2742187D01*
X11557000Y2742659D01*
X11551605Y2742187D01*
X11326982Y2722535D01*
X11326977Y2722535D01*
X11321592Y2722063D01*
X11316371Y2720665D01*
X11316365Y2720663D01*
X11098569Y2662306D01*
X11098557Y2662302D01*
X11093337Y2660903D01*
X11088432Y2658617D01*
X11088427Y2658614D01*
X10884081Y2563325D01*
X10884077Y2563323D01*
X10879171Y2561035D01*
X10874738Y2557932D01*
X10874731Y2557927D01*
X10690034Y2428601D01*
X10690029Y2428598D01*
X10685599Y2425495D01*
X10681775Y2421672D01*
X10681769Y2421666D01*
X10522334Y2262231D01*
X10522328Y2262225D01*
X10518505Y2258401D01*
X10515403Y2253972D01*
X10515403Y2253971D01*
X10388269Y2072404D01*
X10343951Y2033539D01*
X10286694Y2019528D01*
X10229437Y2033539D01*
X10185119Y2072405D01*
X10058215Y2253643D01*
X10051280Y2261908D01*
X9891909Y2421279D01*
X9883643Y2428216D01*
X9699008Y2557499D01*
X9689676Y2562887D01*
X9485397Y2658144D01*
X9475263Y2661832D01*
X9280780Y2713944D01*
X9269551Y2714312D01*
X9267000Y2703369D01*
X9267000Y1261000D01*
X9250387Y1199000D01*
X9205000Y1153613D01*
X9143000Y1137000D01*
X8891000Y1137000D01*
X8829000Y1153613D01*
X8783613Y1199000D01*
X8767000Y1261000D01*
X8767000Y2703369D01*
X8764448Y2714312D01*
X8753219Y2713944D01*
X8558736Y2661832D01*
X8548602Y2658144D01*
X8344332Y2562890D01*
X8334982Y2557492D01*
X8150357Y2428216D01*
X8142092Y2421281D01*
X7982719Y2261908D01*
X7975788Y2253648D01*
X7848880Y2072404D01*
X7804562Y2033539D01*
X7747305Y2019528D01*
X7690048Y2033539D01*
X7645730Y2072405D01*
X7635545Y2086951D01*
X7515495Y2258401D01*
X7348401Y2425495D01*
X7343970Y2428598D01*
X7343966Y2428601D01*
X7159259Y2557934D01*
X7159257Y2557936D01*
X7154830Y2561035D01*
X7149933Y2563319D01*
X7149927Y2563322D01*
X6945572Y2658614D01*
X6945567Y2658616D01*
X6940663Y2660903D01*
X6935438Y2662303D01*
X6935430Y2662306D01*
X6717634Y2720663D01*
X6717630Y2720664D01*
X6712408Y2722063D01*
X6707020Y2722535D01*
X6707017Y2722535D01*
X6482395Y2742187D01*
X6477000Y2742659D01*
X6471605Y2742187D01*
X6246982Y2722535D01*
X6246977Y2722535D01*
X6241592Y2722063D01*
X6236371Y2720665D01*
X6236365Y2720663D01*
X6018569Y2662306D01*
X6018557Y2662302D01*
X6013337Y2660903D01*
X6008432Y2658617D01*
X6008427Y2658614D01*
X5804081Y2563325D01*
X5804077Y2563323D01*
X5799171Y2561035D01*
X5794738Y2557932D01*
X5794731Y2557927D01*
X5610034Y2428601D01*
X5610029Y2428598D01*
X5605599Y2425495D01*
X5601775Y2421672D01*
X5601769Y2421666D01*
X5442334Y2262231D01*
X5442328Y2262225D01*
X5438505Y2258401D01*
X5435402Y2253971D01*
X5435399Y2253966D01*
X5308575Y2072841D01*
X5264257Y2033975D01*
X5207000Y2019964D01*
X5149743Y2033975D01*
X5105425Y2072841D01*
X5067377Y2127179D01*
X4975495Y2258401D01*
X4808401Y2425495D01*
X4803970Y2428598D01*
X4803966Y2428601D01*
X4619259Y2557934D01*
X4619257Y2557936D01*
X4614830Y2561035D01*
X4609933Y2563319D01*
X4609927Y2563322D01*
X4405572Y2658614D01*
X4405567Y2658616D01*
X4400663Y2660903D01*
X4395438Y2662303D01*
X4395430Y2662306D01*
X4177634Y2720663D01*
X4177630Y2720664D01*
X4172408Y2722063D01*
X4167020Y2722535D01*
X4167017Y2722535D01*
X3942395Y2742187D01*
X3937000Y2742659D01*
X3931605Y2742187D01*
X3706982Y2722535D01*
X3706977Y2722535D01*
X3701592Y2722063D01*
X3696371Y2720665D01*
X3696365Y2720663D01*
X3478569Y2662306D01*
X3478557Y2662302D01*
X3473337Y2660903D01*
X3468432Y2658617D01*
X3468427Y2658614D01*
X3264081Y2563325D01*
X3264077Y2563323D01*
X3259171Y2561035D01*
X3254738Y2557932D01*
X3254731Y2557927D01*
X3070034Y2428601D01*
X3070029Y2428598D01*
X3065599Y2425495D01*
X3061775Y2421672D01*
X3061769Y2421666D01*
X2902334Y2262231D01*
X2902328Y2262225D01*
X2898505Y2258401D01*
X2895402Y2253971D01*
X2895399Y2253966D01*
X2766073Y2069269D01*
X2766068Y2069262D01*
X2762965Y2064829D01*
X2760677Y2059923D01*
X2760675Y2059919D01*
X2665386Y1855573D01*
X2665383Y1855568D01*
X2663097Y1850663D01*
X2661698Y1845443D01*
X2661694Y1845431D01*
X2603337Y1627635D01*
X2603335Y1627629D01*
X2601937Y1622408D01*
X2581341Y1387000D01*
X2601937Y1151592D01*
X2603336Y1146370D01*
X2603337Y1146366D01*
X2661694Y928570D01*
X2661697Y928562D01*
X2663097Y923337D01*
X2665385Y918430D01*
X2665386Y918428D01*
X2760678Y714073D01*
X2760681Y714067D01*
X2762965Y709170D01*
X2766064Y704743D01*
X2766066Y704741D01*
X2895399Y520034D01*
X2895402Y520030D01*
X2898505Y515599D01*
X3065599Y348505D01*
X3070031Y345402D01*
X3070033Y345400D01*
X3240447Y226075D01*
X3280773Y178858D01*
X3293153Y118010D01*
X3274481Y58790D01*
X3229439Y16047D01*
X3169323Y500D01*
X124500Y500D01*
X62500Y17113D01*
X17113Y62500D01*
X500Y124500D01*
X500Y5780254D01*
X18435Y5844489D01*
X67051Y5890143D01*
X132286Y5904009D01*
X195269Y5882076D01*
X237779Y5830690D01*
X284078Y5726701D01*
X287897Y5721445D01*
X287898Y5721443D01*
X389581Y5581488D01*
X398431Y5569308D01*
X403260Y5564960D01*
X403261Y5564959D01*
X430255Y5540653D01*
X543008Y5439130D01*
X711492Y5341856D01*
X896518Y5281738D01*
X1041496Y5266500D01*
X1985262Y5266500D01*
X1988504Y5266500D01*
X2133482Y5281738D01*
X2318508Y5341856D01*
X2486992Y5439130D01*
X2631569Y5569308D01*
X2745922Y5726701D01*
X2825051Y5904429D01*
X2837392Y5962487D01*
X5118433Y5962487D01*
X5119112Y5956027D01*
X5137539Y5780692D01*
X5137540Y5780684D01*
X5138219Y5774231D01*
X5140224Y5768059D01*
X5140226Y5768052D01*
X5178934Y5648923D01*
X5196714Y5594203D01*
X5199961Y5588579D01*
X5199962Y5588577D01*
X5283735Y5443477D01*
X5291360Y5430271D01*
X5295704Y5425446D01*
X5295706Y5425444D01*
X5413672Y5294430D01*
X5418022Y5289599D01*
X5423280Y5285779D01*
X5423281Y5285778D01*
X5449815Y5266500D01*
X5571163Y5178336D01*
X5744090Y5101343D01*
X5929247Y5061987D01*
X6112036Y5061987D01*
X6118539Y5061987D01*
X6303696Y5101343D01*
X6476623Y5178336D01*
X6629764Y5289599D01*
X6756426Y5430271D01*
X6770407Y5454487D01*
X8420433Y5454487D01*
X8421112Y5448027D01*
X8439539Y5272692D01*
X8439540Y5272684D01*
X8440219Y5266231D01*
X8442224Y5260059D01*
X8442226Y5260052D01*
X8494234Y5099991D01*
X8498714Y5086203D01*
X8501961Y5080579D01*
X8501962Y5080577D01*
X8568795Y4964818D01*
X8593360Y4922271D01*
X8597704Y4917446D01*
X8597706Y4917444D01*
X8707319Y4795707D01*
X8720022Y4781599D01*
X8873163Y4670336D01*
X9046090Y4593343D01*
X9231247Y4553987D01*
X9414036Y4553987D01*
X9420539Y4553987D01*
X9605696Y4593343D01*
X9778623Y4670336D01*
X9931764Y4781599D01*
X10058426Y4922271D01*
X10153072Y5086203D01*
X10211567Y5266231D01*
X10231353Y5454487D01*
X10211567Y5642743D01*
X10153072Y5822771D01*
X10058426Y5986703D01*
X9931764Y6127375D01*
X9926506Y6131195D01*
X9926504Y6131197D01*
X9783881Y6234818D01*
X9783880Y6234819D01*
X9778623Y6238638D01*
X9772685Y6241282D01*
X9611638Y6312986D01*
X9611633Y6312988D01*
X9605696Y6315631D01*
X9599337Y6316983D01*
X9599333Y6316984D01*
X9426901Y6353635D01*
X9426898Y6353636D01*
X9420539Y6354987D01*
X9231247Y6354987D01*
X9224888Y6353636D01*
X9224884Y6353635D01*
X9052452Y6316984D01*
X9052445Y6316982D01*
X9046090Y6315631D01*
X9040155Y6312989D01*
X9040147Y6312986D01*
X8879100Y6241282D01*
X8879095Y6241280D01*
X8873163Y6238638D01*
X8867909Y6234822D01*
X8867904Y6234818D01*
X8725281Y6131197D01*
X8725274Y6131192D01*
X8720022Y6127375D01*
X8715677Y6122550D01*
X8715672Y6122545D01*
X8597706Y5991531D01*
X8597701Y5991525D01*
X8593360Y5986703D01*
X8590115Y5981083D01*
X8590111Y5981077D01*
X8501962Y5828398D01*
X8501959Y5828393D01*
X8498714Y5822771D01*
X8496708Y5816599D01*
X8496706Y5816593D01*
X8442226Y5648923D01*
X8442224Y5648914D01*
X8440219Y5642743D01*
X8439541Y5636293D01*
X8439539Y5636283D01*
X8426271Y5510036D01*
X8420433Y5454487D01*
X6770407Y5454487D01*
X6851072Y5594203D01*
X6909567Y5774231D01*
X6929353Y5962487D01*
X6909567Y6150743D01*
X6851072Y6330771D01*
X6756426Y6494703D01*
X6745058Y6507328D01*
X6634113Y6630545D01*
X6634112Y6630546D01*
X6629764Y6635375D01*
X6624506Y6639195D01*
X6624504Y6639197D01*
X6481881Y6742818D01*
X6481880Y6742819D01*
X6476623Y6746638D01*
X6470685Y6749282D01*
X6309638Y6820986D01*
X6309633Y6820988D01*
X6303696Y6823631D01*
X6297337Y6824983D01*
X6297333Y6824984D01*
X6124901Y6861635D01*
X6124898Y6861636D01*
X6118539Y6862987D01*
X5929247Y6862987D01*
X5922888Y6861636D01*
X5922884Y6861635D01*
X5750452Y6824984D01*
X5750445Y6824982D01*
X5744090Y6823631D01*
X5738155Y6820989D01*
X5738147Y6820986D01*
X5577100Y6749282D01*
X5577095Y6749280D01*
X5571163Y6746638D01*
X5565909Y6742822D01*
X5565904Y6742818D01*
X5423281Y6639197D01*
X5423274Y6639192D01*
X5418022Y6635375D01*
X5413677Y6630550D01*
X5413672Y6630545D01*
X5295706Y6499531D01*
X5295701Y6499525D01*
X5291360Y6494703D01*
X5288115Y6489083D01*
X5288111Y6489077D01*
X5199962Y6336398D01*
X5199959Y6336393D01*
X5196714Y6330771D01*
X5194708Y6324599D01*
X5194706Y6324593D01*
X5140226Y6156923D01*
X5140224Y6156914D01*
X5138219Y6150743D01*
X5137541Y6144293D01*
X5137539Y6144283D01*
X5120978Y5986703D01*
X5118433Y5962487D01*
X2837392Y5962487D01*
X2865500Y6094726D01*
X2865500Y6289274D01*
X2825051Y6479571D01*
X2745922Y6657299D01*
X2631569Y6814692D01*
X2587281Y6854569D01*
X2491819Y6940524D01*
X2491817Y6940526D01*
X2486992Y6944870D01*
X2448684Y6966987D01*
X2427740Y6979079D01*
X3310619Y6979079D01*
X3312344Y6970774D01*
X3312345Y6970772D01*
X3339681Y6839223D01*
X3339682Y6839220D01*
X3341408Y6830915D01*
X3411029Y6696553D01*
X3416816Y6690357D01*
X3416818Y6690354D01*
X3508529Y6592156D01*
X3508531Y6592155D01*
X3514320Y6585956D01*
X3521566Y6581550D01*
X3521568Y6581548D01*
X3636374Y6511733D01*
X3643618Y6507328D01*
X3789335Y6466500D01*
X3898421Y6466500D01*
X3902658Y6466500D01*
X4014920Y6481930D01*
X4153720Y6542220D01*
X4271108Y6637722D01*
X4358377Y6761353D01*
X4409054Y6903944D01*
X4419381Y7054921D01*
X4388592Y7203085D01*
X4318971Y7337447D01*
X4313181Y7343647D01*
X4221470Y7441845D01*
X4221467Y7441847D01*
X4215680Y7448044D01*
X4208434Y7452450D01*
X4208431Y7452453D01*
X4093625Y7522268D01*
X4093621Y7522270D01*
X4086382Y7526672D01*
X4078220Y7528959D01*
X3948829Y7565213D01*
X3948825Y7565214D01*
X3940665Y7567500D01*
X3827342Y7567500D01*
X3823158Y7566925D01*
X3823144Y7566924D01*
X3723485Y7553226D01*
X3723479Y7553225D01*
X3715080Y7552070D01*
X3707299Y7548691D01*
X3707298Y7548690D01*
X3584062Y7495161D01*
X3584057Y7495159D01*
X3576280Y7491780D01*
X3569702Y7486429D01*
X3569698Y7486426D01*
X3465470Y7401630D01*
X3465468Y7401629D01*
X3458892Y7396278D01*
X3454003Y7389353D01*
X3454002Y7389351D01*
X3377202Y7280550D01*
X3371623Y7272647D01*
X3368785Y7264663D01*
X3368782Y7264656D01*
X3323786Y7138049D01*
X3323784Y7138045D01*
X3320946Y7130056D01*
X3320367Y7121597D01*
X3320367Y7121595D01*
X3311197Y6987543D01*
X3311197Y6987537D01*
X3310619Y6979079D01*
X2427740Y6979079D01*
X2324134Y7038896D01*
X2324132Y7038897D01*
X2318508Y7042144D01*
X2312331Y7044151D01*
X2312329Y7044152D01*
X2139663Y7100254D01*
X2139660Y7100255D01*
X2133482Y7102262D01*
X2127027Y7102941D01*
X2127020Y7102942D01*
X1991724Y7117162D01*
X1991715Y7117163D01*
X1988504Y7117500D01*
X1041496Y7117500D01*
X1038285Y7117163D01*
X1038275Y7117162D01*
X902979Y7102942D01*
X902970Y7102941D01*
X896518Y7102262D01*
X890341Y7100256D01*
X890336Y7100254D01*
X717670Y7044152D01*
X717664Y7044150D01*
X711492Y7042144D01*
X705870Y7038899D01*
X705865Y7038896D01*
X548634Y6948119D01*
X548628Y6948115D01*
X543008Y6944870D01*
X538186Y6940529D01*
X538180Y6940524D01*
X403261Y6819042D01*
X403256Y6819037D01*
X398431Y6814692D01*
X394614Y6809440D01*
X394609Y6809433D01*
X287898Y6662558D01*
X287894Y6662552D01*
X284078Y6657299D01*
X281435Y6651365D01*
X281435Y6651363D01*
X237780Y6553311D01*
X195269Y6501924D01*
X132286Y6479991D01*
X67051Y6493857D01*
X18435Y6539511D01*
X500Y6603746D01*
X500Y11413648D01*
X19268Y11479240D01*
X69891Y11524976D01*
X137045Y11537012D01*
X200401Y11511704D01*
X240781Y11456714D01*
X253760Y11421668D01*
X262114Y11399113D01*
X265440Y11393777D01*
X265442Y11393773D01*
X361183Y11240169D01*
X369748Y11226429D01*
X438496Y11154107D01*
X498601Y11090876D01*
X509941Y11078947D01*
X676951Y10962705D01*
X863942Y10882460D01*
X1063259Y10841500D01*
X1912600Y10841500D01*
X1915742Y10841500D01*
X2067438Y10856926D01*
X2261588Y10917841D01*
X2371918Y10979079D01*
X3310619Y10979079D01*
X3312344Y10970774D01*
X3312345Y10970772D01*
X3339681Y10839223D01*
X3339682Y10839220D01*
X3341408Y10830915D01*
X3345309Y10823386D01*
X3345310Y10823384D01*
X3359114Y10796744D01*
X3411029Y10696553D01*
X3416816Y10690357D01*
X3416818Y10690354D01*
X3508529Y10592156D01*
X3508531Y10592155D01*
X3514320Y10585956D01*
X3521566Y10581550D01*
X3521568Y10581548D01*
X3596293Y10536107D01*
X3643618Y10507328D01*
X3789335Y10466500D01*
X3898421Y10466500D01*
X3902658Y10466500D01*
X4014920Y10481930D01*
X4153720Y10542220D01*
X4271108Y10637722D01*
X4358377Y10761353D01*
X4409054Y10903944D01*
X4419381Y11054921D01*
X4388592Y11203085D01*
X4318971Y11337447D01*
X4312638Y11344228D01*
X4221470Y11441845D01*
X4221467Y11441847D01*
X4215680Y11448044D01*
X4208434Y11452450D01*
X4208431Y11452453D01*
X4093625Y11522268D01*
X4093621Y11522270D01*
X4086382Y11526672D01*
X4060403Y11533951D01*
X3948829Y11565213D01*
X3948825Y11565214D01*
X3940665Y11567500D01*
X3827342Y11567500D01*
X3823158Y11566925D01*
X3823144Y11566924D01*
X3723485Y11553226D01*
X3723479Y11553225D01*
X3715080Y11552070D01*
X3707299Y11548691D01*
X3707298Y11548690D01*
X3584062Y11495161D01*
X3584057Y11495159D01*
X3576280Y11491780D01*
X3569702Y11486429D01*
X3569698Y11486426D01*
X3465470Y11401630D01*
X3465468Y11401629D01*
X3458892Y11396278D01*
X3454003Y11389353D01*
X3454002Y11389351D01*
X3388256Y11296210D01*
X3371623Y11272647D01*
X3368785Y11264663D01*
X3368782Y11264656D01*
X3323786Y11138049D01*
X3323784Y11138045D01*
X3320946Y11130056D01*
X3320367Y11121597D01*
X3320367Y11121595D01*
X3311197Y10987543D01*
X3311197Y10987537D01*
X3310619Y10979079D01*
X2371918Y10979079D01*
X2439502Y11016591D01*
X2593895Y11149134D01*
X2718448Y11310042D01*
X2808060Y11492729D01*
X2859063Y11689715D01*
X2869369Y11892936D01*
X2838556Y12094071D01*
X2767886Y12284887D01*
X2757851Y12300987D01*
X2663578Y12452235D01*
X2663577Y12452236D01*
X2660252Y12457571D01*
X2520059Y12605053D01*
X2353049Y12721295D01*
X2334962Y12729057D01*
X2171836Y12799061D01*
X2171831Y12799063D01*
X2166058Y12801540D01*
X2105514Y12813982D01*
X1972899Y12841235D01*
X1972894Y12841236D01*
X1966741Y12842500D01*
X1114258Y12842500D01*
X1111147Y12842184D01*
X1111134Y12842183D01*
X968814Y12827710D01*
X968811Y12827710D01*
X962562Y12827074D01*
X956564Y12825193D01*
X956563Y12825192D01*
X774415Y12768043D01*
X774410Y12768041D01*
X768412Y12766159D01*
X762916Y12763109D01*
X762910Y12763106D01*
X595997Y12670462D01*
X595991Y12670458D01*
X590498Y12667409D01*
X585733Y12663320D01*
X585728Y12663315D01*
X440873Y12538960D01*
X440868Y12538956D01*
X436105Y12534866D01*
X432262Y12529902D01*
X432255Y12529894D01*
X316569Y12380440D01*
X311552Y12373958D01*
X308784Y12368317D01*
X308780Y12368309D01*
X235828Y12219584D01*
X192211Y12170312D01*
X129525Y12150295D01*
X65424Y12165170D01*
X17960Y12210748D01*
X500Y12274193D01*
X500Y17909500D01*
X17113Y17971500D01*
X62500Y18016887D01*
X124500Y18033500D01*
X643701Y18033500D01*
X701150Y18019389D01*
G37*
%TD.AperFunction*%
%TA.AperFunction,Conductor*%
G36*
X38093655Y9348908D02*
G01*
X38136638Y9315023D01*
X38160846Y9265934D01*
X38161562Y9211206D01*
X38160225Y9204918D01*
X38158219Y9198743D01*
X38157540Y9192288D01*
X38157540Y9192285D01*
X38149385Y9114690D01*
X38138433Y9010487D01*
X38139112Y9004027D01*
X38157539Y8828692D01*
X38157540Y8828684D01*
X38158219Y8822231D01*
X38160224Y8816059D01*
X38160226Y8816052D01*
X38214706Y8648382D01*
X38216714Y8642203D01*
X38219961Y8636579D01*
X38219962Y8636577D01*
X38296436Y8504119D01*
X38311360Y8478271D01*
X38315704Y8473446D01*
X38315706Y8473444D01*
X38410290Y8368398D01*
X38438022Y8337599D01*
X38443280Y8333779D01*
X38443281Y8333778D01*
X38500381Y8292293D01*
X38591163Y8226336D01*
X38764090Y8149343D01*
X38949247Y8109987D01*
X39132036Y8109987D01*
X39138539Y8109987D01*
X39323696Y8149343D01*
X39496623Y8226336D01*
X39649764Y8337599D01*
X39776426Y8478271D01*
X39871072Y8642203D01*
X39929567Y8822231D01*
X39949353Y9010487D01*
X39929567Y9198743D01*
X39927559Y9204921D01*
X39926224Y9211206D01*
X39926940Y9265934D01*
X39951148Y9315023D01*
X39994131Y9348908D01*
X40047514Y9360987D01*
X42237796Y9360987D01*
X42285249Y9351548D01*
X42325477Y9324668D01*
X42533574Y9116571D01*
X42560454Y9076343D01*
X42569893Y9028890D01*
X42569893Y8593939D01*
X42561657Y8549501D01*
X42538043Y8510967D01*
X42442206Y8404531D01*
X42442201Y8404525D01*
X42437860Y8399703D01*
X42434615Y8394083D01*
X42434611Y8394077D01*
X42346462Y8241398D01*
X42346459Y8241393D01*
X42343214Y8235771D01*
X42341209Y8229602D01*
X42341207Y8229596D01*
X42303497Y8113536D01*
X42267892Y8059128D01*
X42209650Y8030216D01*
X42144786Y8034753D01*
X42091135Y8071489D01*
X42063450Y8130323D01*
X42059630Y8151989D01*
X42049419Y8209899D01*
X41980346Y8370026D01*
X41876208Y8509909D01*
X41870681Y8514546D01*
X41870679Y8514549D01*
X41776065Y8593939D01*
X41742618Y8622004D01*
X41713601Y8636577D01*
X41593227Y8697031D01*
X41593224Y8697032D01*
X41586777Y8700270D01*
X41579752Y8701935D01*
X41424115Y8738822D01*
X41424111Y8738823D01*
X41417088Y8740487D01*
X41286438Y8740487D01*
X41282873Y8740071D01*
X41282867Y8740070D01*
X41163849Y8726159D01*
X41163846Y8726159D01*
X41156682Y8725321D01*
X41149903Y8722854D01*
X41149900Y8722853D01*
X40999594Y8668146D01*
X40999590Y8668145D01*
X40992809Y8665676D01*
X40986779Y8661711D01*
X40986773Y8661707D01*
X40853145Y8573818D01*
X40853139Y8573814D01*
X40847109Y8569847D01*
X40842156Y8564598D01*
X40842151Y8564593D01*
X40732392Y8448255D01*
X40732388Y8448251D01*
X40727435Y8443000D01*
X40723825Y8436750D01*
X40723823Y8436745D01*
X40643850Y8298228D01*
X40643847Y8298223D01*
X40640240Y8291974D01*
X40638170Y8285062D01*
X40638169Y8285058D01*
X40597135Y8147991D01*
X40590225Y8124910D01*
X40589805Y8117705D01*
X40589805Y8117703D01*
X40580504Y7958026D01*
X40580504Y7958018D01*
X40580085Y7950816D01*
X40581338Y7943705D01*
X40581339Y7943704D01*
X40609112Y7786187D01*
X40609114Y7786179D01*
X40610367Y7779075D01*
X40613224Y7772450D01*
X40613226Y7772446D01*
X40673645Y7632382D01*
X40679440Y7618948D01*
X40683748Y7613161D01*
X40683750Y7613158D01*
X40737678Y7540720D01*
X40783578Y7479065D01*
X40789103Y7474429D01*
X40789106Y7474426D01*
X40824440Y7444778D01*
X40917168Y7366970D01*
X41073009Y7288704D01*
X41242698Y7248487D01*
X41369749Y7248487D01*
X41373348Y7248487D01*
X41503104Y7263653D01*
X41666977Y7323298D01*
X41812677Y7419127D01*
X41932351Y7545974D01*
X42019546Y7697000D01*
X42023003Y7708545D01*
X42031229Y7736026D01*
X42036990Y7755271D01*
X42073022Y7812049D01*
X42133395Y7841671D01*
X42200352Y7835421D01*
X42254200Y7795138D01*
X42279102Y7732671D01*
X42280522Y7719161D01*
X42284719Y7679231D01*
X42286724Y7673059D01*
X42286726Y7673052D01*
X42341206Y7505382D01*
X42343214Y7499203D01*
X42346461Y7493579D01*
X42346462Y7493577D01*
X42434461Y7341157D01*
X42437860Y7335271D01*
X42442204Y7330446D01*
X42442206Y7330444D01*
X42546912Y7214157D01*
X42564522Y7194599D01*
X42717663Y7083336D01*
X42890590Y7006343D01*
X43075747Y6966987D01*
X43082250Y6966987D01*
X43145393Y6966987D01*
X43207393Y6950374D01*
X43252780Y6904987D01*
X43269393Y6842987D01*
X43269393Y6262584D01*
X43259954Y6215131D01*
X43233074Y6174903D01*
X39831988Y2773819D01*
X39791760Y2746939D01*
X39744307Y2737500D01*
X38602439Y2737500D01*
X38602420Y2737500D01*
X38599128Y2737499D01*
X38595850Y2737147D01*
X38595838Y2737146D01*
X38547231Y2731921D01*
X38547225Y2731920D01*
X38539517Y2731091D01*
X38532252Y2728382D01*
X38532246Y2728380D01*
X38412980Y2683896D01*
X38412978Y2683896D01*
X38404669Y2680796D01*
X38397572Y2675484D01*
X38397568Y2675481D01*
X38296550Y2599859D01*
X38296546Y2599856D01*
X38289454Y2594546D01*
X38284144Y2587454D01*
X38284141Y2587450D01*
X38208519Y2486432D01*
X38208516Y2486428D01*
X38203204Y2479331D01*
X38200104Y2471022D01*
X38200105Y2471022D01*
X38153997Y2347401D01*
X38119018Y2297022D01*
X38064173Y2269569D01*
X38002880Y2271758D01*
X37950134Y2303054D01*
X37831909Y2421279D01*
X37823643Y2428216D01*
X37639008Y2557499D01*
X37629676Y2562887D01*
X37425397Y2658144D01*
X37415263Y2661832D01*
X37220780Y2713944D01*
X37209551Y2714312D01*
X37207000Y2703369D01*
X37207000Y1261000D01*
X37190387Y1199000D01*
X37145000Y1153613D01*
X37083000Y1137000D01*
X36831000Y1137000D01*
X36769000Y1153613D01*
X36723613Y1199000D01*
X36707000Y1261000D01*
X36707000Y2703369D01*
X36704448Y2714312D01*
X36693219Y2713944D01*
X36498736Y2661832D01*
X36488602Y2658144D01*
X36284332Y2562890D01*
X36274982Y2557492D01*
X36090357Y2428216D01*
X36082092Y2421281D01*
X35922719Y2261908D01*
X35915788Y2253648D01*
X35788880Y2072404D01*
X35744562Y2033539D01*
X35687305Y2019528D01*
X35630048Y2033539D01*
X35585730Y2072405D01*
X35575545Y2086951D01*
X35455495Y2258401D01*
X35288401Y2425495D01*
X35283970Y2428598D01*
X35283966Y2428601D01*
X35099259Y2557934D01*
X35099257Y2557936D01*
X35094830Y2561035D01*
X35089933Y2563319D01*
X35089927Y2563322D01*
X34885572Y2658614D01*
X34885567Y2658616D01*
X34880663Y2660903D01*
X34875438Y2662303D01*
X34875430Y2662306D01*
X34657634Y2720663D01*
X34657630Y2720664D01*
X34652408Y2722063D01*
X34647020Y2722535D01*
X34647017Y2722535D01*
X34422395Y2742187D01*
X34417000Y2742659D01*
X34411605Y2742187D01*
X34186982Y2722535D01*
X34186977Y2722535D01*
X34181592Y2722063D01*
X34176371Y2720665D01*
X34176365Y2720663D01*
X33958569Y2662306D01*
X33958557Y2662302D01*
X33953337Y2660903D01*
X33948437Y2658619D01*
X33948431Y2658616D01*
X33863316Y2618926D01*
X33814518Y2607361D01*
X33765130Y2616070D01*
X33723231Y2643628D01*
X28856670Y7510189D01*
X28824166Y7567347D01*
X28825457Y7633088D01*
X28860180Y7688927D01*
X28918565Y7719159D01*
X29043276Y7745666D01*
X29216203Y7822659D01*
X29369344Y7933922D01*
X29496006Y8074594D01*
X29533001Y8138673D01*
X29580648Y8185332D01*
X29645578Y8200562D01*
X29709007Y8179954D01*
X29752585Y8129469D01*
X29763708Y8063711D01*
X29760665Y8034753D01*
X29756433Y7994487D01*
X29757112Y7988027D01*
X29775539Y7812692D01*
X29775540Y7812684D01*
X29776219Y7806231D01*
X29778224Y7800059D01*
X29778226Y7800052D01*
X29832477Y7633088D01*
X29834714Y7626203D01*
X29837961Y7620579D01*
X29837962Y7620577D01*
X29916320Y7484856D01*
X29929360Y7462271D01*
X29933704Y7457446D01*
X29933706Y7457444D01*
X30051672Y7326430D01*
X30056022Y7321599D01*
X30061280Y7317779D01*
X30061281Y7317778D01*
X30110841Y7281771D01*
X30209163Y7210336D01*
X30382090Y7133343D01*
X30567247Y7093987D01*
X30750036Y7093987D01*
X30756539Y7093987D01*
X30941696Y7133343D01*
X31114623Y7210336D01*
X31267764Y7321599D01*
X31394426Y7462271D01*
X31489072Y7626203D01*
X31547567Y7806231D01*
X31567353Y7994487D01*
X31551940Y8141133D01*
X31548246Y8176283D01*
X31548245Y8176284D01*
X31547567Y8182743D01*
X31489072Y8362771D01*
X31394426Y8526703D01*
X31312792Y8617366D01*
X31272113Y8662545D01*
X31272112Y8662546D01*
X31267764Y8667375D01*
X31243000Y8685367D01*
X31204437Y8731327D01*
X31191965Y8790013D01*
X31208503Y8847685D01*
X31235072Y8893703D01*
X31293567Y9073731D01*
X31302655Y9160195D01*
X31312088Y9249948D01*
X31332608Y9306327D01*
X31377194Y9346472D01*
X31435409Y9360987D01*
X38040272Y9360987D01*
X38093655Y9348908D01*
G37*
%TD.AperFunction*%
%TA.AperFunction,Conductor*%
G36*
X19811487Y4408698D02*
G01*
X19849984Y4367596D01*
X19890177Y4297980D01*
X19896360Y4287271D01*
X19900704Y4282446D01*
X19900706Y4282444D01*
X20018672Y4151430D01*
X20023022Y4146599D01*
X20176163Y4035336D01*
X20349090Y3958343D01*
X20534247Y3918987D01*
X20717036Y3918987D01*
X20723539Y3918987D01*
X20908696Y3958343D01*
X21081623Y4035336D01*
X21234764Y4146599D01*
X21361426Y4287271D01*
X21364679Y4292906D01*
X21368366Y4297980D01*
X21408095Y4333286D01*
X21458956Y4348715D01*
X21511604Y4341433D01*
X21556367Y4312778D01*
X22927287Y2941858D01*
X22937977Y2929670D01*
X22957206Y2904610D01*
X23064212Y2822502D01*
X23082647Y2808356D01*
X23228726Y2747848D01*
X23236784Y2746788D01*
X23236785Y2746787D01*
X23271726Y2742187D01*
X23385488Y2727210D01*
X23413885Y2730949D01*
X23478519Y2722153D01*
X23529748Y2681769D01*
X23553391Y2620972D01*
X23542905Y2556589D01*
X23501194Y2506436D01*
X23385599Y2425495D01*
X23381775Y2421672D01*
X23381769Y2421666D01*
X23222334Y2262231D01*
X23222328Y2262225D01*
X23218505Y2258401D01*
X23215402Y2253971D01*
X23215399Y2253966D01*
X23088575Y2072841D01*
X23044257Y2033975D01*
X22987000Y2019964D01*
X22929743Y2033975D01*
X22885425Y2072841D01*
X22847377Y2127179D01*
X22755495Y2258401D01*
X22588401Y2425495D01*
X22583970Y2428598D01*
X22583966Y2428601D01*
X22399259Y2557934D01*
X22399257Y2557936D01*
X22394830Y2561035D01*
X22389933Y2563319D01*
X22389927Y2563322D01*
X22185572Y2658614D01*
X22185567Y2658616D01*
X22180663Y2660903D01*
X22175438Y2662303D01*
X22175430Y2662306D01*
X21957634Y2720663D01*
X21957630Y2720664D01*
X21952408Y2722063D01*
X21947020Y2722535D01*
X21947017Y2722535D01*
X21722395Y2742187D01*
X21717000Y2742659D01*
X21711605Y2742187D01*
X21486982Y2722535D01*
X21486977Y2722535D01*
X21481592Y2722063D01*
X21476371Y2720665D01*
X21476365Y2720663D01*
X21258569Y2662306D01*
X21258557Y2662302D01*
X21253337Y2660903D01*
X21248432Y2658617D01*
X21248427Y2658614D01*
X21044081Y2563325D01*
X21044077Y2563323D01*
X21039171Y2561035D01*
X21034738Y2557932D01*
X21034731Y2557927D01*
X20850034Y2428601D01*
X20850029Y2428598D01*
X20845599Y2425495D01*
X20841775Y2421672D01*
X20841769Y2421666D01*
X20682334Y2262231D01*
X20682328Y2262225D01*
X20678505Y2258401D01*
X20675402Y2253971D01*
X20675399Y2253966D01*
X20548575Y2072841D01*
X20504257Y2033975D01*
X20447000Y2019964D01*
X20389743Y2033975D01*
X20345425Y2072841D01*
X20307377Y2127179D01*
X20215495Y2258401D01*
X20048401Y2425495D01*
X20043970Y2428598D01*
X20043966Y2428601D01*
X19859259Y2557934D01*
X19859257Y2557936D01*
X19854830Y2561035D01*
X19849933Y2563319D01*
X19849927Y2563322D01*
X19645572Y2658614D01*
X19645567Y2658616D01*
X19640663Y2660903D01*
X19635438Y2662303D01*
X19635430Y2662306D01*
X19417634Y2720663D01*
X19417630Y2720664D01*
X19412408Y2722063D01*
X19407020Y2722535D01*
X19407017Y2722535D01*
X19182395Y2742187D01*
X19177000Y2742659D01*
X19171605Y2742187D01*
X18946982Y2722535D01*
X18946977Y2722535D01*
X18941592Y2722063D01*
X18936371Y2720665D01*
X18936365Y2720663D01*
X18718569Y2662306D01*
X18718557Y2662302D01*
X18713337Y2660903D01*
X18708432Y2658617D01*
X18708427Y2658614D01*
X18504081Y2563325D01*
X18504077Y2563323D01*
X18499171Y2561035D01*
X18494738Y2557932D01*
X18494731Y2557927D01*
X18310034Y2428601D01*
X18310029Y2428598D01*
X18305599Y2425495D01*
X18301775Y2421672D01*
X18301769Y2421666D01*
X18142334Y2262231D01*
X18142328Y2262225D01*
X18138505Y2258401D01*
X18135402Y2253971D01*
X18135399Y2253966D01*
X18008575Y2072841D01*
X17964257Y2033975D01*
X17907000Y2019964D01*
X17849743Y2033975D01*
X17805425Y2072841D01*
X17767377Y2127179D01*
X17675495Y2258401D01*
X17530911Y2402986D01*
X17500661Y2452348D01*
X17496119Y2510064D01*
X17518274Y2563551D01*
X17562297Y2601151D01*
X17618592Y2614666D01*
X17623634Y2614666D01*
X17631693Y2613605D01*
X17788455Y2634243D01*
X17934534Y2694751D01*
X17970128Y2722063D01*
X18059975Y2791005D01*
X18079203Y2816065D01*
X18089882Y2828243D01*
X19654918Y4393279D01*
X19702738Y4423015D01*
X19758782Y4428535D01*
X19811487Y4408698D01*
G37*
%TD.AperFunction*%
%TA.AperFunction,Conductor*%
G36*
X18993677Y13403003D02*
G01*
X19041500Y13373265D01*
X20148912Y12265853D01*
X20159602Y12253665D01*
X20178831Y12228605D01*
X20292634Y12141281D01*
X20304272Y12132351D01*
X20450351Y12071843D01*
X20607113Y12051205D01*
X20615172Y12052266D01*
X20638415Y12055326D01*
X20654600Y12056387D01*
X21355346Y12056387D01*
X21402799Y12046948D01*
X21443027Y12020068D01*
X23132427Y10330668D01*
X23162677Y10281305D01*
X23167219Y10223589D01*
X23145064Y10170102D01*
X23101041Y10132502D01*
X23044746Y10118987D01*
X21505611Y10118987D01*
X21458158Y10128426D01*
X21417930Y10155306D01*
X20034338Y11538898D01*
X18632280Y12940955D01*
X18603626Y12985717D01*
X18596344Y13038364D01*
X18611773Y13089225D01*
X18647076Y13128952D01*
X18694764Y13163599D01*
X18821426Y13304271D01*
X18846433Y13347587D01*
X18884927Y13388686D01*
X18937633Y13408523D01*
X18993677Y13403003D01*
G37*
%TD.AperFunction*%
%TA.AperFunction,Conductor*%
G36*
X30305393Y13870683D02*
G01*
X30350780Y13825296D01*
X30375814Y13781935D01*
X30387238Y13762149D01*
X30391582Y13757324D01*
X30391584Y13757322D01*
X30480249Y13658850D01*
X30513900Y13621477D01*
X30667041Y13510214D01*
X30839968Y13433221D01*
X31025125Y13393865D01*
X31119674Y13393865D01*
X31167127Y13384426D01*
X31207355Y13357546D01*
X32008448Y12556453D01*
X32019138Y12544265D01*
X32038367Y12519205D01*
X32044813Y12514259D01*
X32132506Y12446970D01*
X32157360Y12427898D01*
X32157363Y12427896D01*
X32163808Y12422951D01*
X32309887Y12362443D01*
X32466649Y12341805D01*
X32474708Y12342866D01*
X32497951Y12345926D01*
X32514136Y12346987D01*
X36584796Y12346987D01*
X36632249Y12337548D01*
X36672477Y12310668D01*
X37315692Y11667453D01*
X37326382Y11655265D01*
X37345611Y11630205D01*
X37388061Y11597632D01*
X37447439Y11552070D01*
X37464604Y11538898D01*
X37464607Y11538896D01*
X37471052Y11533951D01*
X37524761Y11511704D01*
X37551694Y11500548D01*
X37604559Y11458872D01*
X37627859Y11395716D01*
X37614726Y11329692D01*
X37569031Y11280260D01*
X37504241Y11261987D01*
X29991152Y11261987D01*
X29940717Y11272707D01*
X29899003Y11303014D01*
X29870765Y11334375D01*
X29872033Y11335517D01*
X29851039Y11363338D01*
X29838763Y11409073D01*
X29844527Y11456071D01*
X29896567Y11616231D01*
X29916353Y11804487D01*
X29916231Y11805645D01*
X29925113Y11850295D01*
X29947569Y11883903D01*
X29947175Y11884205D01*
X29947174Y11884205D01*
X29994393Y11945740D01*
X30043429Y12009646D01*
X30103937Y12155725D01*
X30124575Y12312487D01*
X30120454Y12343789D01*
X30119393Y12359974D01*
X30119393Y13763296D01*
X30136006Y13825296D01*
X30181393Y13870683D01*
X30243393Y13887296D01*
X30305393Y13870683D01*
G37*
%TD.AperFunction*%
%TA.AperFunction,Conductor*%
G36*
X19660531Y15294234D02*
G01*
X21485697Y13469068D01*
X21515947Y13419705D01*
X21520489Y13361989D01*
X21498334Y13308502D01*
X21454311Y13270902D01*
X21398016Y13257387D01*
X20907210Y13257387D01*
X20859757Y13266826D01*
X20819529Y13293706D01*
X19050666Y15062569D01*
X19019765Y15113997D01*
X19016626Y15173912D01*
X19041982Y15228288D01*
X19089899Y15264394D01*
X19149153Y15273778D01*
X19177000Y15271341D01*
X19412408Y15291937D01*
X19540757Y15326328D01*
X19604943Y15326328D01*
X19660531Y15294234D01*
G37*
%TD.AperFunction*%
%TD*%
M02*
