%TF.GenerationSoftware,KiCad,Pcbnew,7.0.2-0*%
%TF.CreationDate,2023-05-15T20:56:50-04:00*%
%TF.ProjectId,mini_arduino_clone,6d696e69-5f61-4726-9475-696e6f5f636c,A*%
%TF.SameCoordinates,Original*%
%TF.FileFunction,Legend,Bot*%
%TF.FilePolarity,Positive*%
%FSLAX46Y46*%
G04 Gerber Fmt 4.6, Leading zero omitted, Abs format (unit mm)*
G04 Created by KiCad (PCBNEW 7.0.2-0) date 2023-05-15 20:56:50*
%MOMM*%
%LPD*%
G01*
G04 APERTURE LIST*
%ADD10C,0.153000*%
%ADD11C,0.120000*%
%ADD12C,0.600000*%
%ADD13O,1.700000X1.000000*%
%ADD14O,1.700000X0.850000*%
%ADD15C,0.991000*%
%ADD16R,1.700000X1.700000*%
%ADD17O,1.700000X1.700000*%
%ADD18C,0.800000*%
G04 APERTURE END LIST*
D10*
X18886107Y3599392D02*
X19219440Y3599392D01*
X18819440Y3885107D02*
X19052774Y2885107D01*
X19052774Y2885107D02*
X19286107Y3885107D01*
X19452774Y2885107D02*
X19886107Y2885107D01*
X19886107Y2885107D02*
X19652774Y3266059D01*
X19652774Y3266059D02*
X19752774Y3266059D01*
X19752774Y3266059D02*
X19819440Y3313678D01*
X19819440Y3313678D02*
X19852774Y3361297D01*
X19852774Y3361297D02*
X19886107Y3456535D01*
X19886107Y3456535D02*
X19886107Y3694630D01*
X19886107Y3694630D02*
X19852774Y3789868D01*
X19852774Y3789868D02*
X19819440Y3837487D01*
X19819440Y3837487D02*
X19752774Y3885107D01*
X19752774Y3885107D02*
X19552774Y3885107D01*
X19552774Y3885107D02*
X19486107Y3837487D01*
X19486107Y3837487D02*
X19452774Y3789868D01*
X13607000Y3599392D02*
X13940333Y3599392D01*
X13540333Y3885107D02*
X13773667Y2885107D01*
X13773667Y2885107D02*
X14007000Y3885107D01*
X14607000Y3885107D02*
X14207000Y3885107D01*
X14407000Y3885107D02*
X14407000Y2885107D01*
X14407000Y2885107D02*
X14340333Y3027964D01*
X14340333Y3027964D02*
X14273667Y3123202D01*
X14273667Y3123202D02*
X14207000Y3170821D01*
X34043666Y3885107D02*
X33810333Y3408916D01*
X33643666Y3885107D02*
X33643666Y2885107D01*
X33643666Y2885107D02*
X33910333Y2885107D01*
X33910333Y2885107D02*
X33977000Y2932726D01*
X33977000Y2932726D02*
X34010333Y2980345D01*
X34010333Y2980345D02*
X34043666Y3075583D01*
X34043666Y3075583D02*
X34043666Y3218440D01*
X34043666Y3218440D02*
X34010333Y3313678D01*
X34010333Y3313678D02*
X33977000Y3361297D01*
X33977000Y3361297D02*
X33910333Y3408916D01*
X33910333Y3408916D02*
X33643666Y3408916D01*
X34310333Y3837487D02*
X34410333Y3885107D01*
X34410333Y3885107D02*
X34577000Y3885107D01*
X34577000Y3885107D02*
X34643666Y3837487D01*
X34643666Y3837487D02*
X34677000Y3789868D01*
X34677000Y3789868D02*
X34710333Y3694630D01*
X34710333Y3694630D02*
X34710333Y3599392D01*
X34710333Y3599392D02*
X34677000Y3504154D01*
X34677000Y3504154D02*
X34643666Y3456535D01*
X34643666Y3456535D02*
X34577000Y3408916D01*
X34577000Y3408916D02*
X34443666Y3361297D01*
X34443666Y3361297D02*
X34377000Y3313678D01*
X34377000Y3313678D02*
X34343666Y3266059D01*
X34343666Y3266059D02*
X34310333Y3170821D01*
X34310333Y3170821D02*
X34310333Y3075583D01*
X34310333Y3075583D02*
X34343666Y2980345D01*
X34343666Y2980345D02*
X34377000Y2932726D01*
X34377000Y2932726D02*
X34443666Y2885107D01*
X34443666Y2885107D02*
X34610333Y2885107D01*
X34610333Y2885107D02*
X34710333Y2932726D01*
X34910333Y2885107D02*
X35310333Y2885107D01*
X35110333Y3885107D02*
X35110333Y2885107D01*
X23767000Y3599392D02*
X24100333Y3599392D01*
X23700333Y3885107D02*
X23933667Y2885107D01*
X23933667Y2885107D02*
X24167000Y3885107D01*
X24733667Y2885107D02*
X24400333Y2885107D01*
X24400333Y2885107D02*
X24367000Y3361297D01*
X24367000Y3361297D02*
X24400333Y3313678D01*
X24400333Y3313678D02*
X24467000Y3266059D01*
X24467000Y3266059D02*
X24633667Y3266059D01*
X24633667Y3266059D02*
X24700333Y3313678D01*
X24700333Y3313678D02*
X24733667Y3361297D01*
X24733667Y3361297D02*
X24767000Y3456535D01*
X24767000Y3456535D02*
X24767000Y3694630D01*
X24767000Y3694630D02*
X24733667Y3789868D01*
X24733667Y3789868D02*
X24700333Y3837487D01*
X24700333Y3837487D02*
X24633667Y3885107D01*
X24633667Y3885107D02*
X24467000Y3885107D01*
X24467000Y3885107D02*
X24400333Y3837487D01*
X24400333Y3837487D02*
X24367000Y3789868D01*
X37150333Y2932726D02*
X37083666Y2885107D01*
X37083666Y2885107D02*
X36983666Y2885107D01*
X36983666Y2885107D02*
X36883666Y2932726D01*
X36883666Y2932726D02*
X36817000Y3027964D01*
X36817000Y3027964D02*
X36783666Y3123202D01*
X36783666Y3123202D02*
X36750333Y3313678D01*
X36750333Y3313678D02*
X36750333Y3456535D01*
X36750333Y3456535D02*
X36783666Y3647011D01*
X36783666Y3647011D02*
X36817000Y3742249D01*
X36817000Y3742249D02*
X36883666Y3837487D01*
X36883666Y3837487D02*
X36983666Y3885107D01*
X36983666Y3885107D02*
X37050333Y3885107D01*
X37050333Y3885107D02*
X37150333Y3837487D01*
X37150333Y3837487D02*
X37183666Y3789868D01*
X37183666Y3789868D02*
X37183666Y3456535D01*
X37183666Y3456535D02*
X37050333Y3456535D01*
X2608773Y2885107D02*
X2842107Y3885107D01*
X2842107Y3885107D02*
X3075440Y2885107D01*
X3542107Y3361297D02*
X3642107Y3408916D01*
X3642107Y3408916D02*
X3675440Y3456535D01*
X3675440Y3456535D02*
X3708773Y3551773D01*
X3708773Y3551773D02*
X3708773Y3694630D01*
X3708773Y3694630D02*
X3675440Y3789868D01*
X3675440Y3789868D02*
X3642107Y3837487D01*
X3642107Y3837487D02*
X3575440Y3885107D01*
X3575440Y3885107D02*
X3308773Y3885107D01*
X3308773Y3885107D02*
X3308773Y2885107D01*
X3308773Y2885107D02*
X3542107Y2885107D01*
X3542107Y2885107D02*
X3608773Y2932726D01*
X3608773Y2932726D02*
X3642107Y2980345D01*
X3642107Y2980345D02*
X3675440Y3075583D01*
X3675440Y3075583D02*
X3675440Y3170821D01*
X3675440Y3170821D02*
X3642107Y3266059D01*
X3642107Y3266059D02*
X3608773Y3313678D01*
X3608773Y3313678D02*
X3542107Y3361297D01*
X3542107Y3361297D02*
X3308773Y3361297D01*
X4008773Y2885107D02*
X4008773Y3694630D01*
X4008773Y3694630D02*
X4042107Y3789868D01*
X4042107Y3789868D02*
X4075440Y3837487D01*
X4075440Y3837487D02*
X4142107Y3885107D01*
X4142107Y3885107D02*
X4275440Y3885107D01*
X4275440Y3885107D02*
X4342107Y3837487D01*
X4342107Y3837487D02*
X4375440Y3789868D01*
X4375440Y3789868D02*
X4408773Y3694630D01*
X4408773Y3694630D02*
X4408773Y2885107D01*
X4708773Y3837487D02*
X4808773Y3885107D01*
X4808773Y3885107D02*
X4975440Y3885107D01*
X4975440Y3885107D02*
X5042106Y3837487D01*
X5042106Y3837487D02*
X5075440Y3789868D01*
X5075440Y3789868D02*
X5108773Y3694630D01*
X5108773Y3694630D02*
X5108773Y3599392D01*
X5108773Y3599392D02*
X5075440Y3504154D01*
X5075440Y3504154D02*
X5042106Y3456535D01*
X5042106Y3456535D02*
X4975440Y3408916D01*
X4975440Y3408916D02*
X4842106Y3361297D01*
X4842106Y3361297D02*
X4775440Y3313678D01*
X4775440Y3313678D02*
X4742106Y3266059D01*
X4742106Y3266059D02*
X4708773Y3170821D01*
X4708773Y3170821D02*
X4708773Y3075583D01*
X4708773Y3075583D02*
X4742106Y2980345D01*
X4742106Y2980345D02*
X4775440Y2932726D01*
X4775440Y2932726D02*
X4842106Y2885107D01*
X4842106Y2885107D02*
X5008773Y2885107D01*
X5008773Y2885107D02*
X5108773Y2932726D01*
X9210333Y2932726D02*
X9143666Y2885107D01*
X9143666Y2885107D02*
X9043666Y2885107D01*
X9043666Y2885107D02*
X8943666Y2932726D01*
X8943666Y2932726D02*
X8877000Y3027964D01*
X8877000Y3027964D02*
X8843666Y3123202D01*
X8843666Y3123202D02*
X8810333Y3313678D01*
X8810333Y3313678D02*
X8810333Y3456535D01*
X8810333Y3456535D02*
X8843666Y3647011D01*
X8843666Y3647011D02*
X8877000Y3742249D01*
X8877000Y3742249D02*
X8943666Y3837487D01*
X8943666Y3837487D02*
X9043666Y3885107D01*
X9043666Y3885107D02*
X9110333Y3885107D01*
X9110333Y3885107D02*
X9210333Y3837487D01*
X9210333Y3837487D02*
X9243666Y3789868D01*
X9243666Y3789868D02*
X9243666Y3456535D01*
X9243666Y3456535D02*
X9110333Y3456535D01*
X31753667Y2885107D02*
X31420333Y2885107D01*
X31420333Y2885107D02*
X31387000Y3361297D01*
X31387000Y3361297D02*
X31420333Y3313678D01*
X31420333Y3313678D02*
X31487000Y3266059D01*
X31487000Y3266059D02*
X31653667Y3266059D01*
X31653667Y3266059D02*
X31720333Y3313678D01*
X31720333Y3313678D02*
X31753667Y3361297D01*
X31753667Y3361297D02*
X31787000Y3456535D01*
X31787000Y3456535D02*
X31787000Y3694630D01*
X31787000Y3694630D02*
X31753667Y3789868D01*
X31753667Y3789868D02*
X31720333Y3837487D01*
X31720333Y3837487D02*
X31653667Y3885107D01*
X31653667Y3885107D02*
X31487000Y3885107D01*
X31487000Y3885107D02*
X31420333Y3837487D01*
X31420333Y3837487D02*
X31387000Y3789868D01*
X31987000Y2885107D02*
X32220334Y3885107D01*
X32220334Y3885107D02*
X32453667Y2885107D01*
X16147000Y3599392D02*
X16480333Y3599392D01*
X16080333Y3885107D02*
X16313667Y2885107D01*
X16313667Y2885107D02*
X16547000Y3885107D01*
X16747000Y2980345D02*
X16780333Y2932726D01*
X16780333Y2932726D02*
X16847000Y2885107D01*
X16847000Y2885107D02*
X17013667Y2885107D01*
X17013667Y2885107D02*
X17080333Y2932726D01*
X17080333Y2932726D02*
X17113667Y2980345D01*
X17113667Y2980345D02*
X17147000Y3075583D01*
X17147000Y3075583D02*
X17147000Y3170821D01*
X17147000Y3170821D02*
X17113667Y3313678D01*
X17113667Y3313678D02*
X16713667Y3885107D01*
X16713667Y3885107D02*
X17147000Y3885107D01*
X5565440Y2885107D02*
X5998773Y2885107D01*
X5998773Y2885107D02*
X5765440Y3266059D01*
X5765440Y3266059D02*
X5865440Y3266059D01*
X5865440Y3266059D02*
X5932106Y3313678D01*
X5932106Y3313678D02*
X5965440Y3361297D01*
X5965440Y3361297D02*
X5998773Y3456535D01*
X5998773Y3456535D02*
X5998773Y3694630D01*
X5998773Y3694630D02*
X5965440Y3789868D01*
X5965440Y3789868D02*
X5932106Y3837487D01*
X5932106Y3837487D02*
X5865440Y3885107D01*
X5865440Y3885107D02*
X5665440Y3885107D01*
X5665440Y3885107D02*
X5598773Y3837487D01*
X5598773Y3837487D02*
X5565440Y3789868D01*
X6198773Y2885107D02*
X6432107Y3885107D01*
X6432107Y3885107D02*
X6665440Y2885107D01*
X6832107Y2885107D02*
X7265440Y2885107D01*
X7265440Y2885107D02*
X7032107Y3266059D01*
X7032107Y3266059D02*
X7132107Y3266059D01*
X7132107Y3266059D02*
X7198773Y3313678D01*
X7198773Y3313678D02*
X7232107Y3361297D01*
X7232107Y3361297D02*
X7265440Y3456535D01*
X7265440Y3456535D02*
X7265440Y3694630D01*
X7265440Y3694630D02*
X7232107Y3789868D01*
X7232107Y3789868D02*
X7198773Y3837487D01*
X7198773Y3837487D02*
X7132107Y3885107D01*
X7132107Y3885107D02*
X6932107Y3885107D01*
X6932107Y3885107D02*
X6865440Y3837487D01*
X6865440Y3837487D02*
X6832107Y3789868D01*
X11067000Y3599392D02*
X11400333Y3599392D01*
X11000333Y3885107D02*
X11233667Y2885107D01*
X11233667Y2885107D02*
X11467000Y3885107D01*
X11833667Y2885107D02*
X11900333Y2885107D01*
X11900333Y2885107D02*
X11967000Y2932726D01*
X11967000Y2932726D02*
X12000333Y2980345D01*
X12000333Y2980345D02*
X12033667Y3075583D01*
X12033667Y3075583D02*
X12067000Y3266059D01*
X12067000Y3266059D02*
X12067000Y3504154D01*
X12067000Y3504154D02*
X12033667Y3694630D01*
X12033667Y3694630D02*
X12000333Y3789868D01*
X12000333Y3789868D02*
X11967000Y3837487D01*
X11967000Y3837487D02*
X11900333Y3885107D01*
X11900333Y3885107D02*
X11833667Y3885107D01*
X11833667Y3885107D02*
X11767000Y3837487D01*
X11767000Y3837487D02*
X11733667Y3789868D01*
X11733667Y3789868D02*
X11700333Y3694630D01*
X11700333Y3694630D02*
X11667000Y3504154D01*
X11667000Y3504154D02*
X11667000Y3266059D01*
X11667000Y3266059D02*
X11700333Y3075583D01*
X11700333Y3075583D02*
X11733667Y2980345D01*
X11733667Y2980345D02*
X11767000Y2932726D01*
X11767000Y2932726D02*
X11833667Y2885107D01*
X21227000Y3599392D02*
X21560333Y3599392D01*
X21160333Y3885107D02*
X21393667Y2885107D01*
X21393667Y2885107D02*
X21627000Y3885107D01*
X22160333Y3218440D02*
X22160333Y3885107D01*
X21993667Y2837487D02*
X21827000Y3551773D01*
X21827000Y3551773D02*
X22260333Y3551773D01*
X38656999Y3885107D02*
X38656999Y2885107D01*
X38656999Y2885107D02*
X38823666Y2885107D01*
X38823666Y2885107D02*
X38923666Y2932726D01*
X38923666Y2932726D02*
X38990333Y3027964D01*
X38990333Y3027964D02*
X39023666Y3123202D01*
X39023666Y3123202D02*
X39056999Y3313678D01*
X39056999Y3313678D02*
X39056999Y3456535D01*
X39056999Y3456535D02*
X39023666Y3647011D01*
X39023666Y3647011D02*
X38990333Y3742249D01*
X38990333Y3742249D02*
X38923666Y3837487D01*
X38923666Y3837487D02*
X38823666Y3885107D01*
X38823666Y3885107D02*
X38656999Y3885107D01*
X39723666Y3885107D02*
X39323666Y3885107D01*
X39523666Y3885107D02*
X39523666Y2885107D01*
X39523666Y2885107D02*
X39456999Y3027964D01*
X39456999Y3027964D02*
X39390333Y3123202D01*
X39390333Y3123202D02*
X39323666Y3170821D01*
X39957000Y2885107D02*
X40390333Y2885107D01*
X40390333Y2885107D02*
X40157000Y3266059D01*
X40157000Y3266059D02*
X40257000Y3266059D01*
X40257000Y3266059D02*
X40323666Y3313678D01*
X40323666Y3313678D02*
X40357000Y3361297D01*
X40357000Y3361297D02*
X40390333Y3456535D01*
X40390333Y3456535D02*
X40390333Y3694630D01*
X40390333Y3694630D02*
X40357000Y3789868D01*
X40357000Y3789868D02*
X40323666Y3837487D01*
X40323666Y3837487D02*
X40257000Y3885107D01*
X40257000Y3885107D02*
X40057000Y3885107D01*
X40057000Y3885107D02*
X39990333Y3837487D01*
X39990333Y3837487D02*
X39957000Y3789868D01*
X28847000Y3599392D02*
X29180333Y3599392D01*
X28780333Y3885107D02*
X29013667Y2885107D01*
X29013667Y2885107D02*
X29247000Y3885107D01*
X29413667Y2885107D02*
X29880333Y2885107D01*
X29880333Y2885107D02*
X29580333Y3885107D01*
X26307000Y3599392D02*
X26640333Y3599392D01*
X26240333Y3885107D02*
X26473667Y2885107D01*
X26473667Y2885107D02*
X26707000Y3885107D01*
X27240333Y2885107D02*
X27107000Y2885107D01*
X27107000Y2885107D02*
X27040333Y2932726D01*
X27040333Y2932726D02*
X27007000Y2980345D01*
X27007000Y2980345D02*
X26940333Y3123202D01*
X26940333Y3123202D02*
X26907000Y3313678D01*
X26907000Y3313678D02*
X26907000Y3694630D01*
X26907000Y3694630D02*
X26940333Y3789868D01*
X26940333Y3789868D02*
X26973667Y3837487D01*
X26973667Y3837487D02*
X27040333Y3885107D01*
X27040333Y3885107D02*
X27173667Y3885107D01*
X27173667Y3885107D02*
X27240333Y3837487D01*
X27240333Y3837487D02*
X27273667Y3789868D01*
X27273667Y3789868D02*
X27307000Y3694630D01*
X27307000Y3694630D02*
X27307000Y3456535D01*
X27307000Y3456535D02*
X27273667Y3361297D01*
X27273667Y3361297D02*
X27240333Y3313678D01*
X27240333Y3313678D02*
X27173667Y3266059D01*
X27173667Y3266059D02*
X27040333Y3266059D01*
X27040333Y3266059D02*
X26973667Y3313678D01*
X26973667Y3313678D02*
X26940333Y3361297D01*
X26940333Y3361297D02*
X26907000Y3456535D01*
X4470333Y15135868D02*
X4070333Y15135868D01*
X4270333Y14135868D02*
X4270333Y15135868D01*
X3903667Y15135868D02*
X3437000Y14135868D01*
X3437000Y15135868D02*
X3903667Y14135868D01*
X6593666Y14135868D02*
X6826999Y14612059D01*
X6993666Y14135868D02*
X6993666Y15135868D01*
X6993666Y15135868D02*
X6726999Y15135868D01*
X6726999Y15135868D02*
X6660333Y15088249D01*
X6660333Y15088249D02*
X6626999Y15040630D01*
X6626999Y15040630D02*
X6593666Y14945392D01*
X6593666Y14945392D02*
X6593666Y14802535D01*
X6593666Y14802535D02*
X6626999Y14707297D01*
X6626999Y14707297D02*
X6660333Y14659678D01*
X6660333Y14659678D02*
X6726999Y14612059D01*
X6726999Y14612059D02*
X6993666Y14612059D01*
X6360333Y15135868D02*
X5893666Y14135868D01*
X5893666Y15135868D02*
X6360333Y14135868D01*
X9400333Y14135868D02*
X9633666Y14612059D01*
X9800333Y14135868D02*
X9800333Y15135868D01*
X9800333Y15135868D02*
X9533666Y15135868D01*
X9533666Y15135868D02*
X9467000Y15088249D01*
X9467000Y15088249D02*
X9433666Y15040630D01*
X9433666Y15040630D02*
X9400333Y14945392D01*
X9400333Y14945392D02*
X9400333Y14802535D01*
X9400333Y14802535D02*
X9433666Y14707297D01*
X9433666Y14707297D02*
X9467000Y14659678D01*
X9467000Y14659678D02*
X9533666Y14612059D01*
X9533666Y14612059D02*
X9800333Y14612059D01*
X9133666Y14183487D02*
X9033666Y14135868D01*
X9033666Y14135868D02*
X8867000Y14135868D01*
X8867000Y14135868D02*
X8800333Y14183487D01*
X8800333Y14183487D02*
X8767000Y14231107D01*
X8767000Y14231107D02*
X8733666Y14326345D01*
X8733666Y14326345D02*
X8733666Y14421583D01*
X8733666Y14421583D02*
X8767000Y14516821D01*
X8767000Y14516821D02*
X8800333Y14564440D01*
X8800333Y14564440D02*
X8867000Y14612059D01*
X8867000Y14612059D02*
X9000333Y14659678D01*
X9000333Y14659678D02*
X9067000Y14707297D01*
X9067000Y14707297D02*
X9100333Y14754916D01*
X9100333Y14754916D02*
X9133666Y14850154D01*
X9133666Y14850154D02*
X9133666Y14945392D01*
X9133666Y14945392D02*
X9100333Y15040630D01*
X9100333Y15040630D02*
X9067000Y15088249D01*
X9067000Y15088249D02*
X9000333Y15135868D01*
X9000333Y15135868D02*
X8833666Y15135868D01*
X8833666Y15135868D02*
X8733666Y15088249D01*
X8533666Y15135868D02*
X8133666Y15135868D01*
X8333666Y14135868D02*
X8333666Y15135868D01*
X11373666Y15088249D02*
X11440333Y15135868D01*
X11440333Y15135868D02*
X11540333Y15135868D01*
X11540333Y15135868D02*
X11640333Y15088249D01*
X11640333Y15088249D02*
X11707000Y14993011D01*
X11707000Y14993011D02*
X11740333Y14897773D01*
X11740333Y14897773D02*
X11773666Y14707297D01*
X11773666Y14707297D02*
X11773666Y14564440D01*
X11773666Y14564440D02*
X11740333Y14373964D01*
X11740333Y14373964D02*
X11707000Y14278726D01*
X11707000Y14278726D02*
X11640333Y14183487D01*
X11640333Y14183487D02*
X11540333Y14135868D01*
X11540333Y14135868D02*
X11473666Y14135868D01*
X11473666Y14135868D02*
X11373666Y14183487D01*
X11373666Y14183487D02*
X11340333Y14231107D01*
X11340333Y14231107D02*
X11340333Y14564440D01*
X11340333Y14564440D02*
X11473666Y14564440D01*
X14613666Y14135868D02*
X14613666Y15135868D01*
X14613666Y15135868D02*
X14446999Y15135868D01*
X14446999Y15135868D02*
X14346999Y15088249D01*
X14346999Y15088249D02*
X14280333Y14993011D01*
X14280333Y14993011D02*
X14246999Y14897773D01*
X14246999Y14897773D02*
X14213666Y14707297D01*
X14213666Y14707297D02*
X14213666Y14564440D01*
X14213666Y14564440D02*
X14246999Y14373964D01*
X14246999Y14373964D02*
X14280333Y14278726D01*
X14280333Y14278726D02*
X14346999Y14183487D01*
X14346999Y14183487D02*
X14446999Y14135868D01*
X14446999Y14135868D02*
X14613666Y14135868D01*
X13946999Y15040630D02*
X13913666Y15088249D01*
X13913666Y15088249D02*
X13846999Y15135868D01*
X13846999Y15135868D02*
X13680333Y15135868D01*
X13680333Y15135868D02*
X13613666Y15088249D01*
X13613666Y15088249D02*
X13580333Y15040630D01*
X13580333Y15040630D02*
X13546999Y14945392D01*
X13546999Y14945392D02*
X13546999Y14850154D01*
X13546999Y14850154D02*
X13580333Y14707297D01*
X13580333Y14707297D02*
X13980333Y14135868D01*
X13980333Y14135868D02*
X13546999Y14135868D01*
X17153666Y14135868D02*
X17153666Y15135868D01*
X17153666Y15135868D02*
X16986999Y15135868D01*
X16986999Y15135868D02*
X16886999Y15088249D01*
X16886999Y15088249D02*
X16820333Y14993011D01*
X16820333Y14993011D02*
X16786999Y14897773D01*
X16786999Y14897773D02*
X16753666Y14707297D01*
X16753666Y14707297D02*
X16753666Y14564440D01*
X16753666Y14564440D02*
X16786999Y14373964D01*
X16786999Y14373964D02*
X16820333Y14278726D01*
X16820333Y14278726D02*
X16886999Y14183487D01*
X16886999Y14183487D02*
X16986999Y14135868D01*
X16986999Y14135868D02*
X17153666Y14135868D01*
X16520333Y15135868D02*
X16086999Y15135868D01*
X16086999Y15135868D02*
X16320333Y14754916D01*
X16320333Y14754916D02*
X16220333Y14754916D01*
X16220333Y14754916D02*
X16153666Y14707297D01*
X16153666Y14707297D02*
X16120333Y14659678D01*
X16120333Y14659678D02*
X16086999Y14564440D01*
X16086999Y14564440D02*
X16086999Y14326345D01*
X16086999Y14326345D02*
X16120333Y14231107D01*
X16120333Y14231107D02*
X16153666Y14183487D01*
X16153666Y14183487D02*
X16220333Y14135868D01*
X16220333Y14135868D02*
X16420333Y14135868D01*
X16420333Y14135868D02*
X16486999Y14183487D01*
X16486999Y14183487D02*
X16520333Y14231107D01*
X19693666Y14135868D02*
X19693666Y15135868D01*
X19693666Y15135868D02*
X19526999Y15135868D01*
X19526999Y15135868D02*
X19426999Y15088249D01*
X19426999Y15088249D02*
X19360333Y14993011D01*
X19360333Y14993011D02*
X19326999Y14897773D01*
X19326999Y14897773D02*
X19293666Y14707297D01*
X19293666Y14707297D02*
X19293666Y14564440D01*
X19293666Y14564440D02*
X19326999Y14373964D01*
X19326999Y14373964D02*
X19360333Y14278726D01*
X19360333Y14278726D02*
X19426999Y14183487D01*
X19426999Y14183487D02*
X19526999Y14135868D01*
X19526999Y14135868D02*
X19693666Y14135868D01*
X18693666Y14802535D02*
X18693666Y14135868D01*
X18860333Y15183487D02*
X19026999Y14469202D01*
X19026999Y14469202D02*
X18593666Y14469202D01*
X22567000Y14135868D02*
X22567000Y15135868D01*
X22567000Y15135868D02*
X22400333Y15135868D01*
X22400333Y15135868D02*
X22300333Y15088249D01*
X22300333Y15088249D02*
X22233667Y14993011D01*
X22233667Y14993011D02*
X22200333Y14897773D01*
X22200333Y14897773D02*
X22167000Y14707297D01*
X22167000Y14707297D02*
X22167000Y14564440D01*
X22167000Y14564440D02*
X22200333Y14373964D01*
X22200333Y14373964D02*
X22233667Y14278726D01*
X22233667Y14278726D02*
X22300333Y14183487D01*
X22300333Y14183487D02*
X22400333Y14135868D01*
X22400333Y14135868D02*
X22567000Y14135868D01*
X21500333Y14135868D02*
X21900333Y14135868D01*
X21700333Y14135868D02*
X21700333Y15135868D01*
X21700333Y15135868D02*
X21767000Y14993011D01*
X21767000Y14993011D02*
X21833667Y14897773D01*
X21833667Y14897773D02*
X21900333Y14850154D01*
X21233666Y15040630D02*
X21200333Y15088249D01*
X21200333Y15088249D02*
X21133666Y15135868D01*
X21133666Y15135868D02*
X20967000Y15135868D01*
X20967000Y15135868D02*
X20900333Y15088249D01*
X20900333Y15088249D02*
X20867000Y15040630D01*
X20867000Y15040630D02*
X20833666Y14945392D01*
X20833666Y14945392D02*
X20833666Y14850154D01*
X20833666Y14850154D02*
X20867000Y14707297D01*
X20867000Y14707297D02*
X21267000Y14135868D01*
X21267000Y14135868D02*
X20833666Y14135868D01*
X24907893Y14135868D02*
X24907893Y15135868D01*
X24907893Y15135868D02*
X24741226Y15135868D01*
X24741226Y15135868D02*
X24641226Y15088249D01*
X24641226Y15088249D02*
X24574560Y14993011D01*
X24574560Y14993011D02*
X24541226Y14897773D01*
X24541226Y14897773D02*
X24507893Y14707297D01*
X24507893Y14707297D02*
X24507893Y14564440D01*
X24507893Y14564440D02*
X24541226Y14373964D01*
X24541226Y14373964D02*
X24574560Y14278726D01*
X24574560Y14278726D02*
X24641226Y14183487D01*
X24641226Y14183487D02*
X24741226Y14135868D01*
X24741226Y14135868D02*
X24907893Y14135868D01*
X23841226Y14135868D02*
X24241226Y14135868D01*
X24041226Y14135868D02*
X24041226Y15135868D01*
X24041226Y15135868D02*
X24107893Y14993011D01*
X24107893Y14993011D02*
X24174560Y14897773D01*
X24174560Y14897773D02*
X24241226Y14850154D01*
X23174559Y14135868D02*
X23574559Y14135868D01*
X23374559Y14135868D02*
X23374559Y15135868D01*
X23374559Y15135868D02*
X23441226Y14993011D01*
X23441226Y14993011D02*
X23507893Y14897773D01*
X23507893Y14897773D02*
X23574559Y14850154D01*
X27647000Y14135868D02*
X27647000Y15135868D01*
X27647000Y15135868D02*
X27480333Y15135868D01*
X27480333Y15135868D02*
X27380333Y15088249D01*
X27380333Y15088249D02*
X27313667Y14993011D01*
X27313667Y14993011D02*
X27280333Y14897773D01*
X27280333Y14897773D02*
X27247000Y14707297D01*
X27247000Y14707297D02*
X27247000Y14564440D01*
X27247000Y14564440D02*
X27280333Y14373964D01*
X27280333Y14373964D02*
X27313667Y14278726D01*
X27313667Y14278726D02*
X27380333Y14183487D01*
X27380333Y14183487D02*
X27480333Y14135868D01*
X27480333Y14135868D02*
X27647000Y14135868D01*
X26580333Y14135868D02*
X26980333Y14135868D01*
X26780333Y14135868D02*
X26780333Y15135868D01*
X26780333Y15135868D02*
X26847000Y14993011D01*
X26847000Y14993011D02*
X26913667Y14897773D01*
X26913667Y14897773D02*
X26980333Y14850154D01*
X26147000Y15135868D02*
X26080333Y15135868D01*
X26080333Y15135868D02*
X26013666Y15088249D01*
X26013666Y15088249D02*
X25980333Y15040630D01*
X25980333Y15040630D02*
X25947000Y14945392D01*
X25947000Y14945392D02*
X25913666Y14754916D01*
X25913666Y14754916D02*
X25913666Y14516821D01*
X25913666Y14516821D02*
X25947000Y14326345D01*
X25947000Y14326345D02*
X25980333Y14231107D01*
X25980333Y14231107D02*
X26013666Y14183487D01*
X26013666Y14183487D02*
X26080333Y14135868D01*
X26080333Y14135868D02*
X26147000Y14135868D01*
X26147000Y14135868D02*
X26213666Y14183487D01*
X26213666Y14183487D02*
X26247000Y14231107D01*
X26247000Y14231107D02*
X26280333Y14326345D01*
X26280333Y14326345D02*
X26313666Y14516821D01*
X26313666Y14516821D02*
X26313666Y14754916D01*
X26313666Y14754916D02*
X26280333Y14945392D01*
X26280333Y14945392D02*
X26247000Y15040630D01*
X26247000Y15040630D02*
X26213666Y15088249D01*
X26213666Y15088249D02*
X26147000Y15135868D01*
X29853666Y14135868D02*
X29853666Y15135868D01*
X29853666Y15135868D02*
X29686999Y15135868D01*
X29686999Y15135868D02*
X29586999Y15088249D01*
X29586999Y15088249D02*
X29520333Y14993011D01*
X29520333Y14993011D02*
X29486999Y14897773D01*
X29486999Y14897773D02*
X29453666Y14707297D01*
X29453666Y14707297D02*
X29453666Y14564440D01*
X29453666Y14564440D02*
X29486999Y14373964D01*
X29486999Y14373964D02*
X29520333Y14278726D01*
X29520333Y14278726D02*
X29586999Y14183487D01*
X29586999Y14183487D02*
X29686999Y14135868D01*
X29686999Y14135868D02*
X29853666Y14135868D01*
X29120333Y14135868D02*
X28986999Y14135868D01*
X28986999Y14135868D02*
X28920333Y14183487D01*
X28920333Y14183487D02*
X28886999Y14231107D01*
X28886999Y14231107D02*
X28820333Y14373964D01*
X28820333Y14373964D02*
X28786999Y14564440D01*
X28786999Y14564440D02*
X28786999Y14945392D01*
X28786999Y14945392D02*
X28820333Y15040630D01*
X28820333Y15040630D02*
X28853666Y15088249D01*
X28853666Y15088249D02*
X28920333Y15135868D01*
X28920333Y15135868D02*
X29053666Y15135868D01*
X29053666Y15135868D02*
X29120333Y15088249D01*
X29120333Y15088249D02*
X29153666Y15040630D01*
X29153666Y15040630D02*
X29186999Y14945392D01*
X29186999Y14945392D02*
X29186999Y14707297D01*
X29186999Y14707297D02*
X29153666Y14612059D01*
X29153666Y14612059D02*
X29120333Y14564440D01*
X29120333Y14564440D02*
X29053666Y14516821D01*
X29053666Y14516821D02*
X28920333Y14516821D01*
X28920333Y14516821D02*
X28853666Y14564440D01*
X28853666Y14564440D02*
X28820333Y14612059D01*
X28820333Y14612059D02*
X28786999Y14707297D01*
X32393666Y14135868D02*
X32393666Y15135868D01*
X32393666Y15135868D02*
X32226999Y15135868D01*
X32226999Y15135868D02*
X32126999Y15088249D01*
X32126999Y15088249D02*
X32060333Y14993011D01*
X32060333Y14993011D02*
X32026999Y14897773D01*
X32026999Y14897773D02*
X31993666Y14707297D01*
X31993666Y14707297D02*
X31993666Y14564440D01*
X31993666Y14564440D02*
X32026999Y14373964D01*
X32026999Y14373964D02*
X32060333Y14278726D01*
X32060333Y14278726D02*
X32126999Y14183487D01*
X32126999Y14183487D02*
X32226999Y14135868D01*
X32226999Y14135868D02*
X32393666Y14135868D01*
X31593666Y14707297D02*
X31660333Y14754916D01*
X31660333Y14754916D02*
X31693666Y14802535D01*
X31693666Y14802535D02*
X31726999Y14897773D01*
X31726999Y14897773D02*
X31726999Y14945392D01*
X31726999Y14945392D02*
X31693666Y15040630D01*
X31693666Y15040630D02*
X31660333Y15088249D01*
X31660333Y15088249D02*
X31593666Y15135868D01*
X31593666Y15135868D02*
X31460333Y15135868D01*
X31460333Y15135868D02*
X31393666Y15088249D01*
X31393666Y15088249D02*
X31360333Y15040630D01*
X31360333Y15040630D02*
X31326999Y14945392D01*
X31326999Y14945392D02*
X31326999Y14897773D01*
X31326999Y14897773D02*
X31360333Y14802535D01*
X31360333Y14802535D02*
X31393666Y14754916D01*
X31393666Y14754916D02*
X31460333Y14707297D01*
X31460333Y14707297D02*
X31593666Y14707297D01*
X31593666Y14707297D02*
X31660333Y14659678D01*
X31660333Y14659678D02*
X31693666Y14612059D01*
X31693666Y14612059D02*
X31726999Y14516821D01*
X31726999Y14516821D02*
X31726999Y14326345D01*
X31726999Y14326345D02*
X31693666Y14231107D01*
X31693666Y14231107D02*
X31660333Y14183487D01*
X31660333Y14183487D02*
X31593666Y14135868D01*
X31593666Y14135868D02*
X31460333Y14135868D01*
X31460333Y14135868D02*
X31393666Y14183487D01*
X31393666Y14183487D02*
X31360333Y14231107D01*
X31360333Y14231107D02*
X31326999Y14326345D01*
X31326999Y14326345D02*
X31326999Y14516821D01*
X31326999Y14516821D02*
X31360333Y14612059D01*
X31360333Y14612059D02*
X31393666Y14659678D01*
X31393666Y14659678D02*
X31460333Y14707297D01*
X34933666Y14135868D02*
X34933666Y15135868D01*
X34933666Y15135868D02*
X34766999Y15135868D01*
X34766999Y15135868D02*
X34666999Y15088249D01*
X34666999Y15088249D02*
X34600333Y14993011D01*
X34600333Y14993011D02*
X34566999Y14897773D01*
X34566999Y14897773D02*
X34533666Y14707297D01*
X34533666Y14707297D02*
X34533666Y14564440D01*
X34533666Y14564440D02*
X34566999Y14373964D01*
X34566999Y14373964D02*
X34600333Y14278726D01*
X34600333Y14278726D02*
X34666999Y14183487D01*
X34666999Y14183487D02*
X34766999Y14135868D01*
X34766999Y14135868D02*
X34933666Y14135868D01*
X34300333Y15135868D02*
X33833666Y15135868D01*
X33833666Y15135868D02*
X34133666Y14135868D01*
X37528559Y14135868D02*
X37528559Y15135868D01*
X37528559Y15135868D02*
X37361892Y15135868D01*
X37361892Y15135868D02*
X37261892Y15088249D01*
X37261892Y15088249D02*
X37195226Y14993011D01*
X37195226Y14993011D02*
X37161892Y14897773D01*
X37161892Y14897773D02*
X37128559Y14707297D01*
X37128559Y14707297D02*
X37128559Y14564440D01*
X37128559Y14564440D02*
X37161892Y14373964D01*
X37161892Y14373964D02*
X37195226Y14278726D01*
X37195226Y14278726D02*
X37261892Y14183487D01*
X37261892Y14183487D02*
X37361892Y14135868D01*
X37361892Y14135868D02*
X37528559Y14135868D01*
X36528559Y15135868D02*
X36661892Y15135868D01*
X36661892Y15135868D02*
X36728559Y15088249D01*
X36728559Y15088249D02*
X36761892Y15040630D01*
X36761892Y15040630D02*
X36828559Y14897773D01*
X36828559Y14897773D02*
X36861892Y14707297D01*
X36861892Y14707297D02*
X36861892Y14326345D01*
X36861892Y14326345D02*
X36828559Y14231107D01*
X36828559Y14231107D02*
X36795226Y14183487D01*
X36795226Y14183487D02*
X36728559Y14135868D01*
X36728559Y14135868D02*
X36595226Y14135868D01*
X36595226Y14135868D02*
X36528559Y14183487D01*
X36528559Y14183487D02*
X36495226Y14231107D01*
X36495226Y14231107D02*
X36461892Y14326345D01*
X36461892Y14326345D02*
X36461892Y14564440D01*
X36461892Y14564440D02*
X36495226Y14659678D01*
X36495226Y14659678D02*
X36528559Y14707297D01*
X36528559Y14707297D02*
X36595226Y14754916D01*
X36595226Y14754916D02*
X36728559Y14754916D01*
X36728559Y14754916D02*
X36795226Y14707297D01*
X36795226Y14707297D02*
X36828559Y14659678D01*
X36828559Y14659678D02*
X36861892Y14564440D01*
X40068559Y14135868D02*
X40068559Y15135868D01*
X40068559Y15135868D02*
X39901892Y15135868D01*
X39901892Y15135868D02*
X39801892Y15088249D01*
X39801892Y15088249D02*
X39735226Y14993011D01*
X39735226Y14993011D02*
X39701892Y14897773D01*
X39701892Y14897773D02*
X39668559Y14707297D01*
X39668559Y14707297D02*
X39668559Y14564440D01*
X39668559Y14564440D02*
X39701892Y14373964D01*
X39701892Y14373964D02*
X39735226Y14278726D01*
X39735226Y14278726D02*
X39801892Y14183487D01*
X39801892Y14183487D02*
X39901892Y14135868D01*
X39901892Y14135868D02*
X40068559Y14135868D01*
X39035226Y15135868D02*
X39368559Y15135868D01*
X39368559Y15135868D02*
X39401892Y14659678D01*
X39401892Y14659678D02*
X39368559Y14707297D01*
X39368559Y14707297D02*
X39301892Y14754916D01*
X39301892Y14754916D02*
X39135226Y14754916D01*
X39135226Y14754916D02*
X39068559Y14707297D01*
X39068559Y14707297D02*
X39035226Y14659678D01*
X39035226Y14659678D02*
X39001892Y14564440D01*
X39001892Y14564440D02*
X39001892Y14326345D01*
X39001892Y14326345D02*
X39035226Y14231107D01*
X39035226Y14231107D02*
X39068559Y14183487D01*
X39068559Y14183487D02*
X39135226Y14135868D01*
X39135226Y14135868D02*
X39301892Y14135868D01*
X39301892Y14135868D02*
X39368559Y14183487D01*
X39368559Y14183487D02*
X39401892Y14231107D01*
X22400559Y10626583D02*
X22067226Y10626583D01*
X22467226Y10340868D02*
X22233893Y11340868D01*
X22233893Y11340868D02*
X22000559Y10340868D01*
X21767226Y10340868D02*
X21767226Y11007535D01*
X21767226Y10817059D02*
X21733893Y10912297D01*
X21733893Y10912297D02*
X21700559Y10959916D01*
X21700559Y10959916D02*
X21633893Y11007535D01*
X21633893Y11007535D02*
X21567226Y11007535D01*
X21033893Y10340868D02*
X21033893Y11340868D01*
X21033893Y10388487D02*
X21100560Y10340868D01*
X21100560Y10340868D02*
X21233893Y10340868D01*
X21233893Y10340868D02*
X21300560Y10388487D01*
X21300560Y10388487D02*
X21333893Y10436107D01*
X21333893Y10436107D02*
X21367226Y10531345D01*
X21367226Y10531345D02*
X21367226Y10817059D01*
X21367226Y10817059D02*
X21333893Y10912297D01*
X21333893Y10912297D02*
X21300560Y10959916D01*
X21300560Y10959916D02*
X21233893Y11007535D01*
X21233893Y11007535D02*
X21100560Y11007535D01*
X21100560Y11007535D02*
X21033893Y10959916D01*
X20400560Y11007535D02*
X20400560Y10340868D01*
X20700560Y11007535D02*
X20700560Y10483726D01*
X20700560Y10483726D02*
X20667227Y10388487D01*
X20667227Y10388487D02*
X20600560Y10340868D01*
X20600560Y10340868D02*
X20500560Y10340868D01*
X20500560Y10340868D02*
X20433893Y10388487D01*
X20433893Y10388487D02*
X20400560Y10436107D01*
X20067227Y10340868D02*
X20067227Y11007535D01*
X20067227Y11340868D02*
X20100560Y11293249D01*
X20100560Y11293249D02*
X20067227Y11245630D01*
X20067227Y11245630D02*
X20033894Y11293249D01*
X20033894Y11293249D02*
X20067227Y11340868D01*
X20067227Y11340868D02*
X20067227Y11245630D01*
X19733894Y11007535D02*
X19733894Y10340868D01*
X19733894Y10912297D02*
X19700561Y10959916D01*
X19700561Y10959916D02*
X19633894Y11007535D01*
X19633894Y11007535D02*
X19533894Y11007535D01*
X19533894Y11007535D02*
X19467227Y10959916D01*
X19467227Y10959916D02*
X19433894Y10864678D01*
X19433894Y10864678D02*
X19433894Y10340868D01*
X19000561Y10340868D02*
X19067228Y10388487D01*
X19067228Y10388487D02*
X19100561Y10436107D01*
X19100561Y10436107D02*
X19133894Y10531345D01*
X19133894Y10531345D02*
X19133894Y10817059D01*
X19133894Y10817059D02*
X19100561Y10912297D01*
X19100561Y10912297D02*
X19067228Y10959916D01*
X19067228Y10959916D02*
X19000561Y11007535D01*
X19000561Y11007535D02*
X18900561Y11007535D01*
X18900561Y11007535D02*
X18833894Y10959916D01*
X18833894Y10959916D02*
X18800561Y10912297D01*
X18800561Y10912297D02*
X18767228Y10817059D01*
X18767228Y10817059D02*
X18767228Y10531345D01*
X18767228Y10531345D02*
X18800561Y10436107D01*
X18800561Y10436107D02*
X18833894Y10388487D01*
X18833894Y10388487D02*
X18900561Y10340868D01*
X18900561Y10340868D02*
X19000561Y10340868D01*
X17933895Y10340868D02*
X17933895Y11340868D01*
X17933895Y11340868D02*
X17533895Y10340868D01*
X17533895Y10340868D02*
X17533895Y11340868D01*
X16900562Y10340868D02*
X16900562Y10864678D01*
X16900562Y10864678D02*
X16933895Y10959916D01*
X16933895Y10959916D02*
X17000562Y11007535D01*
X17000562Y11007535D02*
X17133895Y11007535D01*
X17133895Y11007535D02*
X17200562Y10959916D01*
X16900562Y10388487D02*
X16967229Y10340868D01*
X16967229Y10340868D02*
X17133895Y10340868D01*
X17133895Y10340868D02*
X17200562Y10388487D01*
X17200562Y10388487D02*
X17233895Y10483726D01*
X17233895Y10483726D02*
X17233895Y10578964D01*
X17233895Y10578964D02*
X17200562Y10674202D01*
X17200562Y10674202D02*
X17133895Y10721821D01*
X17133895Y10721821D02*
X16967229Y10721821D01*
X16967229Y10721821D02*
X16900562Y10769440D01*
X16567229Y11007535D02*
X16567229Y10340868D01*
X16567229Y10912297D02*
X16533896Y10959916D01*
X16533896Y10959916D02*
X16467229Y11007535D01*
X16467229Y11007535D02*
X16367229Y11007535D01*
X16367229Y11007535D02*
X16300562Y10959916D01*
X16300562Y10959916D02*
X16267229Y10864678D01*
X16267229Y10864678D02*
X16267229Y10340868D01*
X15833896Y10340868D02*
X15900563Y10388487D01*
X15900563Y10388487D02*
X15933896Y10436107D01*
X15933896Y10436107D02*
X15967229Y10531345D01*
X15967229Y10531345D02*
X15967229Y10817059D01*
X15967229Y10817059D02*
X15933896Y10912297D01*
X15933896Y10912297D02*
X15900563Y10959916D01*
X15900563Y10959916D02*
X15833896Y11007535D01*
X15833896Y11007535D02*
X15733896Y11007535D01*
X15733896Y11007535D02*
X15667229Y10959916D01*
X15667229Y10959916D02*
X15633896Y10912297D01*
X15633896Y10912297D02*
X15600563Y10817059D01*
X15600563Y10817059D02*
X15600563Y10531345D01*
X15600563Y10531345D02*
X15633896Y10436107D01*
X15633896Y10436107D02*
X15667229Y10388487D01*
X15667229Y10388487D02*
X15733896Y10340868D01*
X15733896Y10340868D02*
X15833896Y10340868D01*
X14367230Y10436107D02*
X14400563Y10388487D01*
X14400563Y10388487D02*
X14500563Y10340868D01*
X14500563Y10340868D02*
X14567230Y10340868D01*
X14567230Y10340868D02*
X14667230Y10388487D01*
X14667230Y10388487D02*
X14733897Y10483726D01*
X14733897Y10483726D02*
X14767230Y10578964D01*
X14767230Y10578964D02*
X14800563Y10769440D01*
X14800563Y10769440D02*
X14800563Y10912297D01*
X14800563Y10912297D02*
X14767230Y11102773D01*
X14767230Y11102773D02*
X14733897Y11198011D01*
X14733897Y11198011D02*
X14667230Y11293249D01*
X14667230Y11293249D02*
X14567230Y11340868D01*
X14567230Y11340868D02*
X14500563Y11340868D01*
X14500563Y11340868D02*
X14400563Y11293249D01*
X14400563Y11293249D02*
X14367230Y11245630D01*
X13967230Y10340868D02*
X14033897Y10388487D01*
X14033897Y10388487D02*
X14067230Y10483726D01*
X14067230Y10483726D02*
X14067230Y11340868D01*
X13600563Y10340868D02*
X13667230Y10388487D01*
X13667230Y10388487D02*
X13700563Y10436107D01*
X13700563Y10436107D02*
X13733896Y10531345D01*
X13733896Y10531345D02*
X13733896Y10817059D01*
X13733896Y10817059D02*
X13700563Y10912297D01*
X13700563Y10912297D02*
X13667230Y10959916D01*
X13667230Y10959916D02*
X13600563Y11007535D01*
X13600563Y11007535D02*
X13500563Y11007535D01*
X13500563Y11007535D02*
X13433896Y10959916D01*
X13433896Y10959916D02*
X13400563Y10912297D01*
X13400563Y10912297D02*
X13367230Y10817059D01*
X13367230Y10817059D02*
X13367230Y10531345D01*
X13367230Y10531345D02*
X13400563Y10436107D01*
X13400563Y10436107D02*
X13433896Y10388487D01*
X13433896Y10388487D02*
X13500563Y10340868D01*
X13500563Y10340868D02*
X13600563Y10340868D01*
X13067230Y11007535D02*
X13067230Y10340868D01*
X13067230Y10912297D02*
X13033897Y10959916D01*
X13033897Y10959916D02*
X12967230Y11007535D01*
X12967230Y11007535D02*
X12867230Y11007535D01*
X12867230Y11007535D02*
X12800563Y10959916D01*
X12800563Y10959916D02*
X12767230Y10864678D01*
X12767230Y10864678D02*
X12767230Y10340868D01*
X12167230Y10388487D02*
X12233897Y10340868D01*
X12233897Y10340868D02*
X12367230Y10340868D01*
X12367230Y10340868D02*
X12433897Y10388487D01*
X12433897Y10388487D02*
X12467230Y10483726D01*
X12467230Y10483726D02*
X12467230Y10864678D01*
X12467230Y10864678D02*
X12433897Y10959916D01*
X12433897Y10959916D02*
X12367230Y11007535D01*
X12367230Y11007535D02*
X12233897Y11007535D01*
X12233897Y11007535D02*
X12167230Y10959916D01*
X12167230Y10959916D02*
X12133897Y10864678D01*
X12133897Y10864678D02*
X12133897Y10769440D01*
X12133897Y10769440D02*
X12467230Y10674202D01*
X22133893Y9244678D02*
X22033893Y9197059D01*
X22033893Y9197059D02*
X22000559Y9149440D01*
X22000559Y9149440D02*
X21967226Y9054202D01*
X21967226Y9054202D02*
X21967226Y8911345D01*
X21967226Y8911345D02*
X22000559Y8816107D01*
X22000559Y8816107D02*
X22033893Y8768487D01*
X22033893Y8768487D02*
X22100559Y8720868D01*
X22100559Y8720868D02*
X22367226Y8720868D01*
X22367226Y8720868D02*
X22367226Y9720868D01*
X22367226Y9720868D02*
X22133893Y9720868D01*
X22133893Y9720868D02*
X22067226Y9673249D01*
X22067226Y9673249D02*
X22033893Y9625630D01*
X22033893Y9625630D02*
X22000559Y9530392D01*
X22000559Y9530392D02*
X22000559Y9435154D01*
X22000559Y9435154D02*
X22033893Y9339916D01*
X22033893Y9339916D02*
X22067226Y9292297D01*
X22067226Y9292297D02*
X22133893Y9244678D01*
X22133893Y9244678D02*
X22367226Y9244678D01*
X21367226Y9387535D02*
X21367226Y8720868D01*
X21667226Y9387535D02*
X21667226Y8863726D01*
X21667226Y8863726D02*
X21633893Y8768487D01*
X21633893Y8768487D02*
X21567226Y8720868D01*
X21567226Y8720868D02*
X21467226Y8720868D01*
X21467226Y8720868D02*
X21400559Y8768487D01*
X21400559Y8768487D02*
X21367226Y8816107D01*
X21133893Y9387535D02*
X20867226Y9387535D01*
X21033893Y9720868D02*
X21033893Y8863726D01*
X21033893Y8863726D02*
X21000560Y8768487D01*
X21000560Y8768487D02*
X20933893Y8720868D01*
X20933893Y8720868D02*
X20867226Y8720868D01*
X20533893Y8720868D02*
X20600560Y8768487D01*
X20600560Y8768487D02*
X20633893Y8863726D01*
X20633893Y8863726D02*
X20633893Y9720868D01*
X20000559Y8768487D02*
X20067226Y8720868D01*
X20067226Y8720868D02*
X20200559Y8720868D01*
X20200559Y8720868D02*
X20267226Y8768487D01*
X20267226Y8768487D02*
X20300559Y8863726D01*
X20300559Y8863726D02*
X20300559Y9244678D01*
X20300559Y9244678D02*
X20267226Y9339916D01*
X20267226Y9339916D02*
X20200559Y9387535D01*
X20200559Y9387535D02*
X20067226Y9387535D01*
X20067226Y9387535D02*
X20000559Y9339916D01*
X20000559Y9339916D02*
X19967226Y9244678D01*
X19967226Y9244678D02*
X19967226Y9149440D01*
X19967226Y9149440D02*
X20300559Y9054202D01*
X19667226Y8720868D02*
X19667226Y9387535D01*
X19667226Y9197059D02*
X19633893Y9292297D01*
X19633893Y9292297D02*
X19600559Y9339916D01*
X19600559Y9339916D02*
X19533893Y9387535D01*
X19533893Y9387535D02*
X19467226Y9387535D01*
X19200560Y9720868D02*
X19267226Y9530392D01*
X18933893Y8768487D02*
X18867227Y8720868D01*
X18867227Y8720868D02*
X18733893Y8720868D01*
X18733893Y8720868D02*
X18667227Y8768487D01*
X18667227Y8768487D02*
X18633893Y8863726D01*
X18633893Y8863726D02*
X18633893Y8911345D01*
X18633893Y8911345D02*
X18667227Y9006583D01*
X18667227Y9006583D02*
X18733893Y9054202D01*
X18733893Y9054202D02*
X18833893Y9054202D01*
X18833893Y9054202D02*
X18900560Y9101821D01*
X18900560Y9101821D02*
X18933893Y9197059D01*
X18933893Y9197059D02*
X18933893Y9244678D01*
X18933893Y9244678D02*
X18900560Y9339916D01*
X18900560Y9339916D02*
X18833893Y9387535D01*
X18833893Y9387535D02*
X18733893Y9387535D01*
X18733893Y9387535D02*
X18667227Y9339916D01*
X17467227Y8720868D02*
X17800560Y8720868D01*
X17800560Y8720868D02*
X17800560Y9720868D01*
X16933893Y8720868D02*
X16933893Y9244678D01*
X16933893Y9244678D02*
X16967226Y9339916D01*
X16967226Y9339916D02*
X17033893Y9387535D01*
X17033893Y9387535D02*
X17167226Y9387535D01*
X17167226Y9387535D02*
X17233893Y9339916D01*
X16933893Y8768487D02*
X17000560Y8720868D01*
X17000560Y8720868D02*
X17167226Y8720868D01*
X17167226Y8720868D02*
X17233893Y8768487D01*
X17233893Y8768487D02*
X17267226Y8863726D01*
X17267226Y8863726D02*
X17267226Y8958964D01*
X17267226Y8958964D02*
X17233893Y9054202D01*
X17233893Y9054202D02*
X17167226Y9101821D01*
X17167226Y9101821D02*
X17000560Y9101821D01*
X17000560Y9101821D02*
X16933893Y9149440D01*
X16600560Y8720868D02*
X16600560Y9720868D01*
X16600560Y9339916D02*
X16533893Y9387535D01*
X16533893Y9387535D02*
X16400560Y9387535D01*
X16400560Y9387535D02*
X16333893Y9339916D01*
X16333893Y9339916D02*
X16300560Y9292297D01*
X16300560Y9292297D02*
X16267227Y9197059D01*
X16267227Y9197059D02*
X16267227Y8911345D01*
X16267227Y8911345D02*
X16300560Y8816107D01*
X16300560Y8816107D02*
X16333893Y8768487D01*
X16333893Y8768487D02*
X16400560Y8720868D01*
X16400560Y8720868D02*
X16533893Y8720868D01*
X16533893Y8720868D02*
X16600560Y8768487D01*
X15467227Y9768487D02*
X16067227Y8482773D01*
X14833894Y8720868D02*
X15067227Y9197059D01*
X15233894Y8720868D02*
X15233894Y9720868D01*
X15233894Y9720868D02*
X14967227Y9720868D01*
X14967227Y9720868D02*
X14900561Y9673249D01*
X14900561Y9673249D02*
X14867227Y9625630D01*
X14867227Y9625630D02*
X14833894Y9530392D01*
X14833894Y9530392D02*
X14833894Y9387535D01*
X14833894Y9387535D02*
X14867227Y9292297D01*
X14867227Y9292297D02*
X14900561Y9244678D01*
X14900561Y9244678D02*
X14967227Y9197059D01*
X14967227Y9197059D02*
X15233894Y9197059D01*
X14267227Y8768487D02*
X14333894Y8720868D01*
X14333894Y8720868D02*
X14467227Y8720868D01*
X14467227Y8720868D02*
X14533894Y8768487D01*
X14533894Y8768487D02*
X14567227Y8863726D01*
X14567227Y8863726D02*
X14567227Y9244678D01*
X14567227Y9244678D02*
X14533894Y9339916D01*
X14533894Y9339916D02*
X14467227Y9387535D01*
X14467227Y9387535D02*
X14333894Y9387535D01*
X14333894Y9387535D02*
X14267227Y9339916D01*
X14267227Y9339916D02*
X14233894Y9244678D01*
X14233894Y9244678D02*
X14233894Y9149440D01*
X14233894Y9149440D02*
X14567227Y9054202D01*
X14000561Y9387535D02*
X13833894Y8720868D01*
X13833894Y8720868D02*
X13667227Y9387535D01*
X13400561Y8816107D02*
X13367228Y8768487D01*
X13367228Y8768487D02*
X13400561Y8720868D01*
X13400561Y8720868D02*
X13433894Y8768487D01*
X13433894Y8768487D02*
X13400561Y8816107D01*
X13400561Y8816107D02*
X13400561Y8720868D01*
X12567228Y9006583D02*
X12233895Y9006583D01*
X12633895Y8720868D02*
X12400562Y9720868D01*
X12400562Y9720868D02*
X12167228Y8720868D01*
X22400559Y8005630D02*
X22367226Y8053249D01*
X22367226Y8053249D02*
X22300559Y8100868D01*
X22300559Y8100868D02*
X22133893Y8100868D01*
X22133893Y8100868D02*
X22067226Y8053249D01*
X22067226Y8053249D02*
X22033893Y8005630D01*
X22033893Y8005630D02*
X22000559Y7910392D01*
X22000559Y7910392D02*
X22000559Y7815154D01*
X22000559Y7815154D02*
X22033893Y7672297D01*
X22033893Y7672297D02*
X22433893Y7100868D01*
X22433893Y7100868D02*
X22000559Y7100868D01*
X21567226Y8100868D02*
X21500559Y8100868D01*
X21500559Y8100868D02*
X21433892Y8053249D01*
X21433892Y8053249D02*
X21400559Y8005630D01*
X21400559Y8005630D02*
X21367226Y7910392D01*
X21367226Y7910392D02*
X21333892Y7719916D01*
X21333892Y7719916D02*
X21333892Y7481821D01*
X21333892Y7481821D02*
X21367226Y7291345D01*
X21367226Y7291345D02*
X21400559Y7196107D01*
X21400559Y7196107D02*
X21433892Y7148487D01*
X21433892Y7148487D02*
X21500559Y7100868D01*
X21500559Y7100868D02*
X21567226Y7100868D01*
X21567226Y7100868D02*
X21633892Y7148487D01*
X21633892Y7148487D02*
X21667226Y7196107D01*
X21667226Y7196107D02*
X21700559Y7291345D01*
X21700559Y7291345D02*
X21733892Y7481821D01*
X21733892Y7481821D02*
X21733892Y7719916D01*
X21733892Y7719916D02*
X21700559Y7910392D01*
X21700559Y7910392D02*
X21667226Y8005630D01*
X21667226Y8005630D02*
X21633892Y8053249D01*
X21633892Y8053249D02*
X21567226Y8100868D01*
X21067225Y8005630D02*
X21033892Y8053249D01*
X21033892Y8053249D02*
X20967225Y8100868D01*
X20967225Y8100868D02*
X20800559Y8100868D01*
X20800559Y8100868D02*
X20733892Y8053249D01*
X20733892Y8053249D02*
X20700559Y8005630D01*
X20700559Y8005630D02*
X20667225Y7910392D01*
X20667225Y7910392D02*
X20667225Y7815154D01*
X20667225Y7815154D02*
X20700559Y7672297D01*
X20700559Y7672297D02*
X21100559Y7100868D01*
X21100559Y7100868D02*
X20667225Y7100868D01*
X20433892Y8100868D02*
X20000558Y8100868D01*
X20000558Y8100868D02*
X20233892Y7719916D01*
X20233892Y7719916D02*
X20133892Y7719916D01*
X20133892Y7719916D02*
X20067225Y7672297D01*
X20067225Y7672297D02*
X20033892Y7624678D01*
X20033892Y7624678D02*
X20000558Y7529440D01*
X20000558Y7529440D02*
X20000558Y7291345D01*
X20000558Y7291345D02*
X20033892Y7196107D01*
X20033892Y7196107D02*
X20067225Y7148487D01*
X20067225Y7148487D02*
X20133892Y7100868D01*
X20133892Y7100868D02*
X20333892Y7100868D01*
X20333892Y7100868D02*
X20400558Y7148487D01*
X20400558Y7148487D02*
X20433892Y7196107D01*
X19700558Y7481821D02*
X19167225Y7481821D01*
X18700558Y8100868D02*
X18633891Y8100868D01*
X18633891Y8100868D02*
X18567224Y8053249D01*
X18567224Y8053249D02*
X18533891Y8005630D01*
X18533891Y8005630D02*
X18500558Y7910392D01*
X18500558Y7910392D02*
X18467224Y7719916D01*
X18467224Y7719916D02*
X18467224Y7481821D01*
X18467224Y7481821D02*
X18500558Y7291345D01*
X18500558Y7291345D02*
X18533891Y7196107D01*
X18533891Y7196107D02*
X18567224Y7148487D01*
X18567224Y7148487D02*
X18633891Y7100868D01*
X18633891Y7100868D02*
X18700558Y7100868D01*
X18700558Y7100868D02*
X18767224Y7148487D01*
X18767224Y7148487D02*
X18800558Y7196107D01*
X18800558Y7196107D02*
X18833891Y7291345D01*
X18833891Y7291345D02*
X18867224Y7481821D01*
X18867224Y7481821D02*
X18867224Y7719916D01*
X18867224Y7719916D02*
X18833891Y7910392D01*
X18833891Y7910392D02*
X18800558Y8005630D01*
X18800558Y8005630D02*
X18767224Y8053249D01*
X18767224Y8053249D02*
X18700558Y8100868D01*
X17833891Y8100868D02*
X18167224Y8100868D01*
X18167224Y8100868D02*
X18200557Y7624678D01*
X18200557Y7624678D02*
X18167224Y7672297D01*
X18167224Y7672297D02*
X18100557Y7719916D01*
X18100557Y7719916D02*
X17933891Y7719916D01*
X17933891Y7719916D02*
X17867224Y7672297D01*
X17867224Y7672297D02*
X17833891Y7624678D01*
X17833891Y7624678D02*
X17800557Y7529440D01*
X17800557Y7529440D02*
X17800557Y7291345D01*
X17800557Y7291345D02*
X17833891Y7196107D01*
X17833891Y7196107D02*
X17867224Y7148487D01*
X17867224Y7148487D02*
X17933891Y7100868D01*
X17933891Y7100868D02*
X18100557Y7100868D01*
X18100557Y7100868D02*
X18167224Y7148487D01*
X18167224Y7148487D02*
X18200557Y7196107D01*
X17500557Y7481821D02*
X16967224Y7481821D01*
X16267223Y7100868D02*
X16667223Y7100868D01*
X16467223Y7100868D02*
X16467223Y8100868D01*
X16467223Y8100868D02*
X16533890Y7958011D01*
X16533890Y7958011D02*
X16600557Y7862773D01*
X16600557Y7862773D02*
X16667223Y7815154D01*
X15633890Y8100868D02*
X15967223Y8100868D01*
X15967223Y8100868D02*
X16000556Y7624678D01*
X16000556Y7624678D02*
X15967223Y7672297D01*
X15967223Y7672297D02*
X15900556Y7719916D01*
X15900556Y7719916D02*
X15733890Y7719916D01*
X15733890Y7719916D02*
X15667223Y7672297D01*
X15667223Y7672297D02*
X15633890Y7624678D01*
X15633890Y7624678D02*
X15600556Y7529440D01*
X15600556Y7529440D02*
X15600556Y7291345D01*
X15600556Y7291345D02*
X15633890Y7196107D01*
X15633890Y7196107D02*
X15667223Y7148487D01*
X15667223Y7148487D02*
X15733890Y7100868D01*
X15733890Y7100868D02*
X15900556Y7100868D01*
X15900556Y7100868D02*
X15967223Y7148487D01*
X15967223Y7148487D02*
X16000556Y7196107D01*
%TO.C,G\u002A\u002A\u002A*%
G36*
X29820653Y6539654D02*
G01*
X29820944Y6392533D01*
X29822039Y6226856D01*
X29823899Y6083154D01*
X29826473Y5963696D01*
X29829708Y5870755D01*
X29833554Y5806601D01*
X29837960Y5773505D01*
X29840735Y5764003D01*
X29879986Y5682690D01*
X29940724Y5626631D01*
X30024235Y5594590D01*
X30055258Y5588918D01*
X30160398Y5585127D01*
X30253199Y5605782D01*
X30328778Y5649254D01*
X30382251Y5713917D01*
X30385449Y5720124D01*
X30392150Y5736973D01*
X30397703Y5759294D01*
X30402245Y5790181D01*
X30405912Y5832732D01*
X30408841Y5890042D01*
X30411169Y5965206D01*
X30413033Y6061320D01*
X30414568Y6181480D01*
X30415911Y6328782D01*
X30417199Y6506321D01*
X30422170Y7243821D01*
X30663032Y7243821D01*
X30903893Y7243821D01*
X30903563Y6556321D01*
X30903497Y6506549D01*
X30902770Y6354804D01*
X30901327Y6210623D01*
X30899260Y6078301D01*
X30896659Y5962133D01*
X30893616Y5866413D01*
X30890221Y5795437D01*
X30886565Y5753499D01*
X30858506Y5628090D01*
X30801294Y5496095D01*
X30719252Y5386095D01*
X30613111Y5298823D01*
X30483600Y5235013D01*
X30331449Y5195400D01*
X30167894Y5179548D01*
X30003072Y5187952D01*
X29850013Y5220923D01*
X29712003Y5277104D01*
X29592328Y5355137D01*
X29494275Y5453664D01*
X29421131Y5571330D01*
X29406635Y5603405D01*
X29389641Y5646663D01*
X29375666Y5692319D01*
X29364417Y5743809D01*
X29355603Y5804571D01*
X29348933Y5878042D01*
X29344114Y5967658D01*
X29340854Y6076857D01*
X29338863Y6209076D01*
X29337847Y6367751D01*
X29337516Y6556321D01*
X29337227Y7243821D01*
X29578893Y7243821D01*
X29820560Y7243821D01*
X29820653Y6539654D01*
G37*
G36*
X25782334Y6143821D02*
G01*
X25777532Y6051730D01*
X25759252Y5885817D01*
X25728101Y5743748D01*
X25682347Y5620257D01*
X25620253Y5510075D01*
X25540087Y5407935D01*
X25530335Y5397510D01*
X25450001Y5330464D01*
X25349872Y5270374D01*
X25241698Y5223427D01*
X25137227Y5195809D01*
X25098912Y5190253D01*
X24917459Y5181536D01*
X24748974Y5202867D01*
X24595229Y5253043D01*
X24457998Y5330859D01*
X24339052Y5435108D01*
X24240165Y5564586D01*
X24163109Y5718087D01*
X24109657Y5894407D01*
X24106003Y5912417D01*
X24092419Y6013577D01*
X24084616Y6134815D01*
X24083426Y6211186D01*
X24584443Y6211186D01*
X24586531Y6122527D01*
X24600134Y5973416D01*
X24626886Y5852661D01*
X24667433Y5758497D01*
X24722420Y5689158D01*
X24792496Y5642878D01*
X24885257Y5615593D01*
X24980340Y5614657D01*
X25069185Y5638892D01*
X25144844Y5686383D01*
X25200366Y5755216D01*
X25227361Y5815138D01*
X25259694Y5930747D01*
X25279845Y6070046D01*
X25286937Y6228260D01*
X25282910Y6362174D01*
X25264349Y6514072D01*
X25230618Y6636808D01*
X25181612Y6730733D01*
X25117227Y6796194D01*
X25096496Y6808859D01*
X25021038Y6834916D01*
X24933520Y6844135D01*
X24846687Y6836007D01*
X24773286Y6810017D01*
X24737626Y6785913D01*
X24680240Y6722595D01*
X24636797Y6635266D01*
X24606729Y6522125D01*
X24589467Y6381366D01*
X24584443Y6211186D01*
X24083426Y6211186D01*
X24082577Y6265628D01*
X24086283Y6395512D01*
X24095717Y6513967D01*
X24110862Y6610487D01*
X24128520Y6681864D01*
X24187807Y6845878D01*
X24267408Y6983472D01*
X24367250Y7094588D01*
X24487262Y7179172D01*
X24627373Y7237169D01*
X24787509Y7268523D01*
X24967601Y7273178D01*
X25013074Y7270557D01*
X25136422Y7255593D01*
X25240945Y7227707D01*
X25336776Y7183568D01*
X25434049Y7119845D01*
X25540519Y7024134D01*
X25634535Y6896644D01*
X25705723Y6744870D01*
X25754085Y6568810D01*
X25779622Y6368461D01*
X25781315Y6228260D01*
X25782334Y6143821D01*
G37*
G36*
X36009461Y5929098D02*
G01*
X36056418Y5775286D01*
X36098874Y5635851D01*
X36135944Y5513709D01*
X36166744Y5411771D01*
X36190390Y5332952D01*
X36205997Y5280164D01*
X36212683Y5256321D01*
X36223209Y5210487D01*
X35984384Y5210511D01*
X35745560Y5210534D01*
X35717740Y5306344D01*
X35707434Y5341892D01*
X35683939Y5423175D01*
X35662391Y5497987D01*
X35634862Y5593821D01*
X35321917Y5593821D01*
X35008972Y5593821D01*
X34960621Y5417265D01*
X34943932Y5357450D01*
X34925246Y5293310D01*
X34910755Y5246781D01*
X34902661Y5225160D01*
X34897885Y5222651D01*
X34865441Y5217956D01*
X34807328Y5214840D01*
X34728852Y5213521D01*
X34635319Y5214216D01*
X34377587Y5218821D01*
X34620818Y6015856D01*
X35137227Y6015856D01*
X35137558Y6013385D01*
X35149109Y6004015D01*
X35180463Y5997991D01*
X35236115Y5994773D01*
X35320560Y5993821D01*
X35367607Y5994219D01*
X35441336Y5997218D01*
X35487758Y6002921D01*
X35503893Y6011046D01*
X35499894Y6029001D01*
X35488104Y6073278D01*
X35470289Y6137498D01*
X35448228Y6215491D01*
X35423699Y6301087D01*
X35398481Y6388116D01*
X35374352Y6470407D01*
X35353092Y6541791D01*
X35336479Y6596096D01*
X35326291Y6627154D01*
X35322851Y6624747D01*
X35311196Y6598129D01*
X35293341Y6548814D01*
X35271037Y6482458D01*
X35246031Y6404715D01*
X35220073Y6321242D01*
X35194913Y6237694D01*
X35172299Y6159725D01*
X35153981Y6092993D01*
X35141707Y6043151D01*
X35137227Y6015856D01*
X34620818Y6015856D01*
X34686574Y6231329D01*
X34995560Y7243837D01*
X35302091Y7239662D01*
X35608623Y7235487D01*
X35905389Y6268821D01*
X35905578Y6268206D01*
X35958886Y6094376D01*
X35984385Y6011046D01*
X36009461Y5929098D01*
G37*
G36*
X34287227Y6228509D02*
G01*
X34287227Y5210487D01*
X34045560Y5210487D01*
X33803893Y5210487D01*
X33803893Y5610487D01*
X33803893Y6010487D01*
X33758060Y6010425D01*
X33742148Y6009182D01*
X33682438Y5989572D01*
X33624063Y5952709D01*
X33581586Y5907117D01*
X33578421Y5901607D01*
X33560712Y5866449D01*
X33532693Y5807574D01*
X33496740Y5730083D01*
X33455225Y5639076D01*
X33410525Y5539654D01*
X33263582Y5210487D01*
X32984897Y5210487D01*
X32706211Y5210487D01*
X32827729Y5464654D01*
X32866596Y5545786D01*
X32931367Y5679929D01*
X32984987Y5789151D01*
X33029285Y5876974D01*
X33066091Y5946918D01*
X33097234Y6002505D01*
X33124544Y6047255D01*
X33149849Y6084690D01*
X33175304Y6123929D01*
X33191651Y6157805D01*
X33191262Y6173031D01*
X33172774Y6183024D01*
X33134456Y6207550D01*
X33086360Y6240496D01*
X33023843Y6293184D01*
X32949481Y6390214D01*
X32900950Y6504499D01*
X32879727Y6632125D01*
X32879899Y6635239D01*
X33378893Y6635239D01*
X33378951Y6624329D01*
X33383143Y6570165D01*
X33397618Y6532052D01*
X33427476Y6495300D01*
X33435408Y6487456D01*
X33481969Y6451548D01*
X33527476Y6428828D01*
X33563956Y6420315D01*
X33624701Y6410215D01*
X33691393Y6402116D01*
X33803893Y6391168D01*
X33803893Y6617494D01*
X33803893Y6843821D01*
X33693327Y6843821D01*
X33674530Y6843676D01*
X33562877Y6834613D01*
X33479446Y6810537D01*
X33422277Y6770149D01*
X33389413Y6712149D01*
X33378893Y6635239D01*
X32879899Y6635239D01*
X32887284Y6769177D01*
X32900963Y6838403D01*
X32932559Y6929874D01*
X32981311Y7007210D01*
X33053225Y7081721D01*
X33069322Y7096006D01*
X33114882Y7133312D01*
X33159934Y7163242D01*
X33208708Y7186672D01*
X33265435Y7204478D01*
X33334343Y7217537D01*
X33419663Y7226725D01*
X33525625Y7232919D01*
X33656459Y7236994D01*
X33816393Y7239827D01*
X34287227Y7246531D01*
X34287227Y6843821D01*
X34287227Y6228509D01*
G37*
G36*
X32620560Y6227154D02*
G01*
X32620560Y5210487D01*
X32281077Y5210487D01*
X32115789Y5212043D01*
X31976221Y5217328D01*
X31859113Y5227166D01*
X31759059Y5242382D01*
X31670655Y5263801D01*
X31588496Y5292247D01*
X31507178Y5328544D01*
X31395015Y5393337D01*
X31272276Y5495746D01*
X31173888Y5620129D01*
X31099104Y5767477D01*
X31047179Y5938778D01*
X31035098Y6011121D01*
X31025245Y6122797D01*
X31021645Y6237683D01*
X31527717Y6237683D01*
X31531251Y6123137D01*
X31541581Y6020034D01*
X31558726Y5938965D01*
X31561674Y5929810D01*
X31612119Y5826426D01*
X31686462Y5737965D01*
X31777757Y5672862D01*
X31786166Y5668673D01*
X31839092Y5649643D01*
X31907300Y5637460D01*
X31999727Y5630414D01*
X32153893Y5623178D01*
X32153893Y6233500D01*
X32153893Y6843821D01*
X32031919Y6843821D01*
X32028297Y6843814D01*
X31887382Y6831846D01*
X31770438Y6796871D01*
X31677114Y6738673D01*
X31607060Y6657033D01*
X31559923Y6551736D01*
X31557679Y6544068D01*
X31540952Y6458739D01*
X31530957Y6353081D01*
X31527717Y6237683D01*
X31021645Y6237683D01*
X31021346Y6247233D01*
X31023426Y6373268D01*
X31031513Y6489740D01*
X31045633Y6585487D01*
X31072980Y6688269D01*
X31136631Y6836523D01*
X31223461Y6963604D01*
X31331796Y7067252D01*
X31459964Y7145209D01*
X31517763Y7170638D01*
X31581750Y7193832D01*
X31648909Y7211666D01*
X31724262Y7224800D01*
X31812833Y7233894D01*
X31919641Y7239606D01*
X32049710Y7242599D01*
X32208060Y7243531D01*
X32620560Y7243821D01*
X32620560Y6843821D01*
X32620560Y6227154D01*
G37*
G36*
X29070560Y7043821D02*
G01*
X29070560Y6843821D01*
X28853893Y6843821D01*
X28637227Y6843821D01*
X28637227Y6227154D01*
X28637227Y5610487D01*
X28853893Y5610487D01*
X29070560Y5610487D01*
X29070560Y5410487D01*
X29070560Y5210487D01*
X28387227Y5210487D01*
X27703893Y5210487D01*
X27703893Y5410004D01*
X27703893Y5609520D01*
X27924727Y5614170D01*
X28145560Y5618821D01*
X28149932Y6231321D01*
X28154304Y6843821D01*
X27929099Y6843821D01*
X27703893Y6843821D01*
X27703893Y7043821D01*
X27703893Y7243821D01*
X28387227Y7243821D01*
X29070560Y7243821D01*
X29070560Y7043821D01*
G37*
G36*
X26320560Y6667837D02*
G01*
X26320817Y6554143D01*
X26321742Y6429250D01*
X26323260Y6319063D01*
X26325285Y6227307D01*
X26327732Y6157709D01*
X26330517Y6113992D01*
X26333553Y6099884D01*
X26333974Y6100276D01*
X26345207Y6119840D01*
X26368686Y6165890D01*
X26402782Y6235065D01*
X26445863Y6324001D01*
X26496300Y6429336D01*
X26552463Y6547705D01*
X26612720Y6675746D01*
X26878893Y7243578D01*
X27158060Y7243700D01*
X27437227Y7243821D01*
X27437227Y6227154D01*
X27437227Y5210487D01*
X27212227Y5210487D01*
X26987227Y5210487D01*
X26987227Y5804932D01*
X26986920Y5935417D01*
X26985991Y6060709D01*
X26984516Y6170834D01*
X26982574Y6262158D01*
X26980244Y6331049D01*
X26977602Y6373873D01*
X26974727Y6386997D01*
X26974073Y6386133D01*
X26962354Y6364098D01*
X26938534Y6315720D01*
X26904216Y6244370D01*
X26861004Y6153422D01*
X26810502Y6046249D01*
X26754315Y5926224D01*
X26694045Y5796720D01*
X26425863Y5218821D01*
X26148212Y5214251D01*
X25870560Y5209682D01*
X25870560Y6226751D01*
X25870560Y7243821D01*
X26095560Y7243821D01*
X26320560Y7243821D01*
X26320560Y6667837D01*
G37*
G36*
X35224130Y10284327D02*
G01*
X35214000Y10158457D01*
X35198616Y10054833D01*
X35144976Y9838927D01*
X35050482Y9578700D01*
X34926354Y9333718D01*
X34772508Y9103822D01*
X34588862Y8888851D01*
X34427312Y8733603D01*
X34203954Y8558340D01*
X33964280Y8412011D01*
X33707889Y8294408D01*
X33434383Y8205326D01*
X33143359Y8144558D01*
X33128289Y8142714D01*
X33070978Y8138874D01*
X32989346Y8136030D01*
X32889762Y8134310D01*
X32778599Y8133845D01*
X32662227Y8134764D01*
X32647553Y8134974D01*
X32522062Y8137162D01*
X32422978Y8139984D01*
X32344023Y8143975D01*
X32278916Y8149671D01*
X32221378Y8157606D01*
X32165130Y8168315D01*
X32103893Y8182334D01*
X31879185Y8247386D01*
X31647091Y8340517D01*
X31425528Y8458460D01*
X31212630Y8602635D01*
X31006530Y8774461D01*
X30805362Y8975356D01*
X30607260Y9206740D01*
X30410358Y9470032D01*
X30383404Y9508316D01*
X30333158Y9579676D01*
X30290614Y9640086D01*
X30259600Y9684111D01*
X30243944Y9706315D01*
X30242943Y9707641D01*
X30232043Y9712612D01*
X30215567Y9702734D01*
X30190475Y9674665D01*
X30153725Y9625060D01*
X30102277Y9550578D01*
X30064317Y9495335D01*
X29864981Y9225998D01*
X29663196Y8988663D01*
X29457526Y8782220D01*
X29246532Y8605558D01*
X29028776Y8457566D01*
X28802821Y8337134D01*
X28567228Y8243152D01*
X28320560Y8174509D01*
X28292244Y8168316D01*
X28236249Y8157241D01*
X28182322Y8148958D01*
X28124565Y8143073D01*
X28057076Y8139194D01*
X27973957Y8136928D01*
X27869307Y8135881D01*
X27737227Y8135662D01*
X27667224Y8135788D01*
X27542406Y8136782D01*
X27442821Y8139017D01*
X27362989Y8142800D01*
X27297432Y8148438D01*
X27240671Y8156238D01*
X27187227Y8166509D01*
X27079505Y8191676D01*
X26810503Y8273038D01*
X26563406Y8376989D01*
X26334802Y8505349D01*
X26121277Y8659938D01*
X25919420Y8842576D01*
X25875974Y8886960D01*
X25695241Y9095873D01*
X25545396Y9313815D01*
X25424866Y9543309D01*
X25332083Y9786879D01*
X25312009Y9853888D01*
X25253037Y10121175D01*
X25226372Y10389767D01*
X25229410Y10550676D01*
X26050864Y10550676D01*
X26056161Y10336344D01*
X26093023Y10125990D01*
X26133828Y9992518D01*
X26222447Y9792127D01*
X26338406Y9607704D01*
X26479521Y9441371D01*
X26643612Y9295249D01*
X26828496Y9171459D01*
X27031990Y9072125D01*
X27251912Y8999366D01*
X27321344Y8984374D01*
X27441868Y8966933D01*
X27577595Y8954839D01*
X27718976Y8948460D01*
X27856460Y8948166D01*
X27980496Y8954326D01*
X28081534Y8967309D01*
X28278236Y9016930D01*
X28466518Y9090755D01*
X28645517Y9189994D01*
X28818264Y9316597D01*
X28987785Y9472514D01*
X29157111Y9659693D01*
X29178398Y9685848D01*
X29236165Y9761097D01*
X29305156Y9855215D01*
X29380919Y9961749D01*
X29459002Y10074243D01*
X29534953Y10186243D01*
X29604320Y10291296D01*
X29662651Y10382945D01*
X29705494Y10454738D01*
X29740088Y10516188D01*
X30720560Y10516188D01*
X30726997Y10501990D01*
X30748910Y10463554D01*
X30783570Y10406103D01*
X30828072Y10334439D01*
X30879513Y10253365D01*
X30999331Y10071353D01*
X31158904Y9846260D01*
X31313123Y9650569D01*
X31463907Y9482662D01*
X31613174Y9340923D01*
X31762842Y9223733D01*
X31914830Y9129476D01*
X32071055Y9056533D01*
X32233437Y9003288D01*
X32403893Y8968124D01*
X32466340Y8959945D01*
X32639358Y8948090D01*
X32823050Y8948902D01*
X33002924Y8962516D01*
X33148001Y8986114D01*
X33363401Y9047299D01*
X33566234Y9136559D01*
X33753869Y9251641D01*
X33923676Y9390290D01*
X34073025Y9550254D01*
X34199284Y9729277D01*
X34299822Y9925106D01*
X34372010Y10135487D01*
X34375456Y10149121D01*
X34397374Y10275643D01*
X34407988Y10419786D01*
X34407299Y10569304D01*
X34395306Y10711952D01*
X34372010Y10835487D01*
X34314288Y11010168D01*
X34217150Y11210792D01*
X34092518Y11396227D01*
X33943252Y11561631D01*
X33813956Y11675026D01*
X33633236Y11800575D01*
X33442096Y11896261D01*
X33237810Y11963145D01*
X33017651Y12002288D01*
X32778893Y12014752D01*
X32662700Y12011663D01*
X32430937Y11986593D01*
X32211651Y11935481D01*
X32003034Y11857285D01*
X31803274Y11750963D01*
X31610562Y11615475D01*
X31423090Y11449778D01*
X31239046Y11252831D01*
X31056622Y11023592D01*
X31007227Y10955698D01*
X30950815Y10875721D01*
X30894100Y10793236D01*
X30840356Y10713186D01*
X30792856Y10640513D01*
X30754874Y10580160D01*
X30729684Y10537070D01*
X30723968Y10523988D01*
X30720560Y10516188D01*
X29740088Y10516188D01*
X29744479Y10523988D01*
X29613298Y10721404D01*
X29446167Y10960987D01*
X29278164Y11177828D01*
X29112716Y11367314D01*
X28951343Y11527709D01*
X28795560Y11657275D01*
X28778588Y11669681D01*
X28643267Y11756245D01*
X28489522Y11836945D01*
X28330387Y11905478D01*
X28178893Y11955539D01*
X28176978Y11956056D01*
X28117315Y11971545D01*
X28065169Y11982971D01*
X28013729Y11990949D01*
X27956190Y11996093D01*
X27885743Y11999018D01*
X27795580Y12000338D01*
X27678893Y12000668D01*
X27644017Y12000666D01*
X27536842Y12000291D01*
X27454776Y11998869D01*
X27391376Y11995785D01*
X27340198Y11990424D01*
X27294799Y11982172D01*
X27248734Y11970413D01*
X27195560Y11954531D01*
X27006533Y11885362D01*
X26798112Y11779176D01*
X26611902Y11648755D01*
X26448711Y11494773D01*
X26309345Y11317904D01*
X26194611Y11118821D01*
X26132889Y10971014D01*
X26076613Y10763921D01*
X26050864Y10550676D01*
X25229410Y10550676D01*
X25231422Y10657231D01*
X25267597Y10921133D01*
X25334304Y11179039D01*
X25430952Y11428515D01*
X25556951Y11667128D01*
X25711708Y11892443D01*
X25894631Y12102027D01*
X26057318Y12253585D01*
X26281098Y12422504D01*
X26521605Y12564009D01*
X26776411Y12677213D01*
X27043088Y12761233D01*
X27319208Y12815184D01*
X27602342Y12838179D01*
X27890063Y12829335D01*
X28173163Y12792747D01*
X28442136Y12731515D01*
X28696168Y12644453D01*
X28940126Y12529888D01*
X29178874Y12386147D01*
X29379321Y12238820D01*
X29605845Y12038693D01*
X29823814Y11809165D01*
X30031270Y11552154D01*
X30096627Y11464627D01*
X30148567Y11395745D01*
X30186040Y11347741D01*
X30211881Y11317642D01*
X30228920Y11302476D01*
X30239992Y11299272D01*
X30247928Y11305059D01*
X30255562Y11316864D01*
X30283072Y11359540D01*
X30348617Y11451143D01*
X30430396Y11556461D01*
X30523388Y11669464D01*
X30622573Y11784120D01*
X30722930Y11894397D01*
X30819439Y11994264D01*
X30880483Y12054314D01*
X31023463Y12187063D01*
X31157972Y12298876D01*
X31290832Y12394831D01*
X31428865Y12480006D01*
X31578893Y12559477D01*
X31715475Y12623195D01*
X31911631Y12699523D01*
X32110283Y12757263D01*
X32321136Y12799085D01*
X32553893Y12827657D01*
X32714160Y12837488D01*
X32997876Y12830398D01*
X33275423Y12792562D01*
X33544435Y12725082D01*
X33802544Y12629061D01*
X34047381Y12505604D01*
X34276579Y12355814D01*
X34487769Y12180793D01*
X34678583Y11981644D01*
X34846653Y11759472D01*
X34924823Y11634458D01*
X35039682Y11409451D01*
X35130041Y11169429D01*
X35198375Y10908400D01*
X35212178Y10822471D01*
X35223032Y10701513D01*
X35228643Y10565243D01*
X35229010Y10423052D01*
X35228895Y10419786D01*
X35224130Y10284327D01*
G37*
G36*
X33470560Y10552154D02*
G01*
X33470560Y10310487D01*
X32737227Y10310487D01*
X32003893Y10310487D01*
X32003893Y10552154D01*
X32003893Y10793821D01*
X32737227Y10793821D01*
X33470560Y10793821D01*
X33470560Y10552154D01*
G37*
G36*
X28007576Y11006321D02*
G01*
X28012227Y10785487D01*
X28241393Y10780851D01*
X28470560Y10776214D01*
X28470560Y10552154D01*
X28470560Y10328095D01*
X28241393Y10323458D01*
X28012227Y10318821D01*
X28007590Y10089654D01*
X28002953Y9860487D01*
X27778423Y9860487D01*
X27553893Y9860487D01*
X27553893Y10093821D01*
X27553893Y10327154D01*
X27328893Y10327154D01*
X27103893Y10327154D01*
X27103893Y10552154D01*
X27103893Y10777154D01*
X27328893Y10777154D01*
X27553893Y10777154D01*
X27553893Y11002154D01*
X27553893Y11227154D01*
X27778410Y11227154D01*
X28002926Y11227154D01*
X28007576Y11006321D01*
G37*
D11*
%TO.C,J103*%
X2607000Y15297000D02*
X2607000Y17957000D01*
X38227000Y15297000D02*
X2607000Y15297000D01*
X38227000Y15297000D02*
X38227000Y17957000D01*
X39497000Y15297000D02*
X40827000Y15297000D01*
X40827000Y15297000D02*
X40827000Y16627000D01*
X38227000Y17957000D02*
X2607000Y17957000D01*
%TO.C,J104*%
X2607000Y57000D02*
X2607000Y2717000D01*
X38227000Y57000D02*
X2607000Y57000D01*
X38227000Y57000D02*
X38227000Y2717000D01*
X39497000Y57000D02*
X40827000Y57000D01*
X40827000Y57000D02*
X40827000Y1387000D01*
X38227000Y2717000D02*
X2607000Y2717000D01*
%TD*%
%LPC*%
D12*
%TO.C,J101*%
X3865000Y11017000D03*
X3865000Y7017000D03*
D13*
X1515000Y11842000D03*
D14*
X1515000Y6192000D03*
%TD*%
D15*
%TO.C,J102*%
X41329893Y7994487D03*
X40314893Y13074487D03*
X42344893Y13074487D03*
%TD*%
D16*
%TO.C,J103*%
X39497000Y16627000D03*
D17*
X36957000Y16627000D03*
X34417000Y16627000D03*
X31877000Y16627000D03*
X29337000Y16627000D03*
X26797000Y16627000D03*
X24257000Y16627000D03*
X21717000Y16627000D03*
X19177000Y16627000D03*
X16637000Y16627000D03*
X14097000Y16627000D03*
X11557000Y16627000D03*
X9017000Y16627000D03*
X6477000Y16627000D03*
X3937000Y16627000D03*
%TD*%
D16*
%TO.C,J104*%
X39497000Y1387000D03*
D17*
X36957000Y1387000D03*
X34417000Y1387000D03*
X31877000Y1387000D03*
X29337000Y1387000D03*
X26797000Y1387000D03*
X24257000Y1387000D03*
X21717000Y1387000D03*
X19177000Y1387000D03*
X16637000Y1387000D03*
X14097000Y1387000D03*
X11557000Y1387000D03*
X9017000Y1387000D03*
X6477000Y1387000D03*
X3937000Y1387000D03*
%TD*%
D18*
X20826150Y3719987D03*
X1324893Y3676487D03*
X7903493Y5403687D03*
X21162293Y11957387D03*
X16539493Y4641687D03*
X43920693Y1644487D03*
X20298693Y14192087D03*
X13135893Y9518487D03*
X29696693Y7118865D03*
X35995893Y11589568D03*
X10468893Y6597487D03*
X34569933Y6728047D03*
X40313893Y6597487D03*
X43920693Y16325687D03*
X5973093Y7384887D03*
X35437093Y4336887D03*
X34268693Y2965287D03*
X38662893Y12820487D03*
X6165244Y12007687D03*
X6023893Y10915487D03*
X6023893Y5962487D03*
X30661893Y7994487D03*
X1324893Y17138487D03*
X25200893Y14725487D03*
X39043893Y9010487D03*
X18088893Y13836487D03*
X13770893Y5962487D03*
X13770893Y5200487D03*
X42345893Y2787487D03*
X8359593Y9518487D03*
X15421893Y13201487D03*
X26666994Y8339403D03*
X11595954Y14010356D03*
X21173993Y4819487D03*
X9325893Y5454487D03*
X9186493Y13176087D03*
X6150893Y8853100D03*
X13481598Y13490782D03*
X12790188Y14182192D03*
X6150893Y9830900D03*
X43170393Y7867487D03*
X27359893Y12058487D03*
X43615893Y10534487D03*
X30484771Y14929365D03*
X29264893Y10661487D03*
X38916893Y11169487D03*
X26851893Y9518487D03*
X28763473Y8606810D03*
X30407893Y9261987D03*
X29010893Y11804487D03*
X25200893Y8121487D03*
X25806813Y7220390D03*
X21173993Y6028513D03*
X20456621Y6724487D03*
X24350993Y4184487D03*
X16844293Y9924887D03*
X18977893Y6826087D03*
X24882710Y3332892D03*
%LPD*%
M02*
